<svg id="Layer_1" data-name="Layer 1" xmlns="http://www.w3.org/2000/svg" viewBox="0 0 64 64"><defs><style>.cls-1{fill:#fff;}.cls-2{fill:#1a2740;}.cls-3{fill:#4482aa;}</style></defs><circle class="cls-1" cx="32" cy="24.41" r="24.41"/><path class="cls-2" d="M32,51.9a24.29,24.29,0,0,1-14-4.43L32.17,64,46.92,46.81A24.29,24.29,0,0,1,32,51.9Z"/><circle class="cls-3" cx="32" cy="24.41" r="21.82"/><path class="cls-1" d="M17.78,24.5H41.46a6.23,6.23,0,1,0-4.15-10.83A5.84,5.84,0,0,0,35.65,18a1.47,1.47,0,0,0,2.93,0,3.08,3.08,0,0,1,.75-2.26,3.34,3.34,0,0,1,2.1-.81h0a3.31,3.31,0,0,1,0,6.61H17.78a1.46,1.46,0,0,0,0,2.92Z"/><path class="cls-1" d="M17.78,18.78H29.06a6.23,6.23,0,0,0,0-12.45A6.12,6.12,0,0,0,24.91,8a5.87,5.87,0,0,0-1.65,4.36,1.46,1.46,0,1,0,2.92,0,3.08,3.08,0,0,1,.76-2.26A3.3,3.3,0,0,1,29,9.25h0a3.31,3.31,0,1,1,0,6.61H17.78a1.46,1.46,0,0,0,0,2.92Z"/><path class="cls-1" d="M41.46,27H17.78a1.47,1.47,0,0,0,0,2.93H41.46a3.3,3.3,0,0,1,0,6.6h0a3.31,3.31,0,0,1-2.1-.8,3.08,3.08,0,0,1-.75-2.26,1.47,1.47,0,0,0-2.93,0,5.8,5.8,0,0,0,1.66,4.36,6.13,6.13,0,0,0,4.11,1.63h0a6.23,6.23,0,0,0,0-12.46Z"/></svg>