<svg id="Layer_1" data-name="Layer 1" xmlns="http://www.w3.org/2000/svg" viewBox="0 0 140 180"><defs><style>.cls-1{fill:#fff;}.cls-2{fill:#ccd8eb;}.cls-3{fill:#961a1a;}</style></defs><path class="cls-1" d="M67.31,66.82H97.68a9.22,9.22,0,0,1,9.49,9.45v2.15h4.31a4.61,4.61,0,0,1,5,5c0,4.45,0,8.91,0,13.36a4.58,4.58,0,0,1-4.81,4.81h-4.47v2.08a9.22,9.22,0,0,1-9.49,9.52H33a9.16,9.16,0,0,1-9.42-9.4q0-13.78,0-27.56A9.17,9.17,0,0,1,33,66.82H67.31m0-1.5H33A10.68,10.68,0,0,0,22.06,76.21c0,9,0,18.28,0,27.57A10.68,10.68,0,0,0,33,114.68h64.7a10.65,10.65,0,0,0,11-11v-.58h3a6.06,6.06,0,0,0,6.3-6.31c0-4.45,0-8.91,0-13.36a6.08,6.08,0,0,0-6.47-6.49h-2.81v-.66a10.75,10.75,0,0,0-11-10.94Z"/><rect class="cls-2" x="25.49" y="68.67" width="79.78" height="42.65" rx="7.34"/><path class="cls-3" d="M107.17,78.42c1.52,0,2.91,0,4.31,0a4.61,4.61,0,0,1,5,5c0,4.45,0,8.91,0,13.36a4.58,4.58,0,0,1-4.81,4.81c-1.45,0-2.9,0-4.47,0v2.08a9.22,9.22,0,0,1-9.49,9.52H33a9.16,9.16,0,0,1-9.42-9.4q0-13.78,0-27.56A9.17,9.17,0,0,1,33,66.82H97.68a9.22,9.22,0,0,1,9.49,9.45Zm-41.71-7q-16,0-32.06,0c-3.35,0-5.26,1.9-5.26,5.27v26.73c0,3.3,1.92,5.22,5.22,5.22q9.35,0,18.68,0,22.73,0,45.44,0a4.68,4.68,0,0,0,5.06-5q0-13.61,0-27.23A6,6,0,0,0,102.4,75a4.7,4.7,0,0,0-4.88-3.56Q81.49,71.38,65.46,71.39Z"/><path class="cls-3" d="M66,75.74A14.26,14.26,0,1,0,80.26,90,14.27,14.27,0,0,0,66,75.74Zm0,24.91A10.65,10.65,0,1,1,76.65,90,10.65,10.65,0,0,1,66,100.65Z"/><rect class="cls-3" x="59.81" y="85.19" width="12.38" height="3.94" transform="translate(153.16 21.16) rotate(90)"/><rect class="cls-3" x="64.03" y="95.08" width="3.95" height="3.95"/></svg>