<svg id="Layer_1" data-name="Layer 1" xmlns="http://www.w3.org/2000/svg" viewBox="0 0 140 180"><defs><style>.cls-1{fill:#fff;}.cls-2{fill:#24293f;}.cls-3{fill:#fadc00;}.cls-4{fill:#eb9900;}.cls-5{fill:#ccd8eb;}</style></defs><circle class="cls-1" cx="70" cy="90" r="46.45"/><circle class="cls-2" cx="70" cy="90" r="44.67"/><path class="cls-1" d="M67.19,94.82,66,101.75H46.92l5-30.11H73.58l-1.1,6.6H59.56L58.78,83h9.93L67.6,89.48H57.7l-.89,5.34Z"/><polygon class="cls-1" points="57.3 71.64 56.13 78.57 71.81 78.57 66.91 108.2 78.09 91.91 72.72 91.59 80.06 78.59 80.56 78.59 80.56 78.57 90.28 78.57 91.42 71.64 57.3 71.64"/><polygon class="cls-3" points="82.26 89.12 87.11 80.75 81.59 80.75 76.27 90.17 81.61 90.42 71.44 105.25 78.22 99.84 86.5 89.12 82.26 89.12"/><polygon class="cls-4" points="87.48 87.99 92.99 80.75 87.11 80.75 82.26 89.12 86.5 89.12 78.22 99.84 93.08 87.99 87.48 87.99"/><path class="cls-5" d="M63.54,62.09l-.18,1.06H60l.76-4.6h3.31l-.17,1h-2l-.12.72h1.65l-.16,1H61.62l-.13.81Z"/><path class="cls-5" d="M65.94,58.55l-.77,4.6H63.88l.77-4.6Z"/><path class="cls-5" d="M69.62,61.7H67.28c0,.09,0,.16,0,.21a.42.42,0,0,0,.15.34.48.48,0,0,0,.36.13.59.59,0,0,0,.58-.43l1.15.18a1.76,1.76,0,0,1-.72.81,2,2,0,0,1-1.1.31,1.77,1.77,0,0,1-1.24-.43A1.54,1.54,0,0,1,66,61.64a1.95,1.95,0,0,1,2-2,1.65,1.65,0,0,1,1.22.45,1.6,1.6,0,0,1,.45,1.19A2,2,0,0,1,69.62,61.7Zm-1.22-.65a1.16,1.16,0,0,0,0-.17.44.44,0,0,0-.11-.31.38.38,0,0,0-.31-.14.54.54,0,0,0-.39.17.74.74,0,0,0-.22.45Z"/><path class="cls-5" d="M72.22,61.83l1,.25a1.83,1.83,0,0,1-.72.92,1.86,1.86,0,0,1-.93.25,1.55,1.55,0,0,1-1.15-.45A1.53,1.53,0,0,1,70,61.66a2.08,2.08,0,0,1,.53-1.41,1.76,1.76,0,0,1,1.4-.62A1.57,1.57,0,0,1,73,60a1.21,1.21,0,0,1,.44,1l-1.15.13c0-.37-.13-.55-.38-.55s-.36.15-.45.45a2.81,2.81,0,0,0-.14.79c0,.33.13.5.38.5S72.11,62.15,72.22,61.83Z"/><path class="cls-5" d="M76.06,59.75l-.14.87H75.3l-.2,1.21a1.76,1.76,0,0,0,0,.23c0,.16.1.24.31.24a1.27,1.27,0,0,0,.32,0l-.14.89a3.58,3.58,0,0,1-.7.08,1.4,1.4,0,0,1-.62-.11.89.89,0,0,1-.32-.29.88.88,0,0,1-.13-.51,3.58,3.58,0,0,1,.06-.49l.2-1.21h-.46l.14-.87h.47l.19-1,1.23,0-.17,1Z"/><path class="cls-5" d="M76.57,59.75h1.14l-.14.82c.24-.61.6-.92,1.08-.92a.53.53,0,0,1,.16,0l-.15,1.21h-.23a.85.85,0,0,0-.62.19,1.31,1.31,0,0,0-.28.7l-.23,1.39H76Z"/><path class="cls-5" d="M80.5,63.25a1.77,1.77,0,0,1-1.2-.42,1.46,1.46,0,0,1-.48-1.15,2,2,0,0,1,.56-1.45,1.91,1.91,0,0,1,1.42-.56,1.7,1.7,0,0,1,1.24.44,1.47,1.47,0,0,1,.46,1.09,2,2,0,0,1-.59,1.51A2,2,0,0,1,80.5,63.25Zm0-.83c.24,0,.4-.17.48-.52a3.66,3.66,0,0,0,.13-.88q0-.54-.39-.54t-.48.54a3.83,3.83,0,0,0-.14.87C80.15,62.25,80.29,62.42,80.55,62.42Z"/><path class="cls-5" d="M58.24,65.3l-.6,3.55H56.31l.59-3.55h-1l.18-1.06h3.32l-.17,1.06Z"/><path class="cls-5" d="M62.21,68.85H60.88a1,1,0,0,1,0-.16,3.18,3.18,0,0,1,0-.41,1.26,1.26,0,0,1-1.12.65,1.13,1.13,0,0,1-.78-.28.92.92,0,0,1-.3-.7,1.08,1.08,0,0,1,.16-.58,1.15,1.15,0,0,1,.46-.41,2,2,0,0,1,.6-.21l1.22-.13a1,1,0,0,0,0-.2q0-.27-.39-.27a.59.59,0,0,0-.57.38L59.1,66.3a1.82,1.82,0,0,1,1.86-1,2.23,2.23,0,0,1,1.13.25.82.82,0,0,1,.42.74,15.43,15.43,0,0,1-.24,1.55,3.84,3.84,0,0,0-.1.66A1.77,1.77,0,0,0,62.21,68.85ZM61,67.23q-.93.08-.93.6c0,.19.1.28.3.28a.61.61,0,0,0,.39-.17A1.12,1.12,0,0,0,61,67.23Z"/><path class="cls-5" d="M64.88,64.25l-.77,4.6h-1.3l.77-4.6Z"/><path class="cls-5" d="M66.88,64.25l-.77,4.6h-1.3l.77-4.6Z"/><path class="cls-5" d="M68.7,65.45l-.57,3.4H66.81l.57-3.4Zm.22-1.3-.16,1H67.43l.17-1Z"/><path class="cls-5" d="M69.41,65.45h1.18L70.5,66a1,1,0,0,1,.46-.5,1.44,1.44,0,0,1,.65-.15,1,1,0,0,1,.71.23.74.74,0,0,1,.27.6,1.63,1.63,0,0,1,0,.35l-.38,2.32h-1.3l.34-2a1.28,1.28,0,0,0,0-.25.26.26,0,0,0-.3-.29c-.28,0-.44.18-.5.55l-.35,2H68.84Z"/><path class="cls-5" d="M73.44,65.45h1.18l-.09.55a1,1,0,0,1,.46-.5,1.44,1.44,0,0,1,.65-.15,1,1,0,0,1,.71.23.74.74,0,0,1,.27.6,1.63,1.63,0,0,1,0,.35l-.38,2.32H74.9l.34-2a1.28,1.28,0,0,0,0-.25.26.26,0,0,0-.3-.29c-.28,0-.44.18-.5.55l-.35,2H72.87Z"/><path class="cls-5" d="M82.11,67.34H79.76a1.79,1.79,0,0,0,0,.21.44.44,0,0,0,.14.34.52.52,0,0,0,.36.13.6.6,0,0,0,.59-.43l1.14.18a1.66,1.66,0,0,1-.72.81,2,2,0,0,1-1.1.31,1.72,1.72,0,0,1-1.23-.43,1.5,1.5,0,0,1-.47-1.18,1.93,1.93,0,0,1,2-2,1.65,1.65,0,0,1,1.21.45A1.6,1.6,0,0,1,82.15,67,3.22,3.22,0,0,1,82.11,67.34Zm-1.23-.65a1.49,1.49,0,0,0,0-.17.49.49,0,0,0-.11-.31.4.4,0,0,0-.32-.14.57.57,0,0,0-.39.17.66.66,0,0,0-.21.45Z"/><path class="cls-5" d="M86.09,67.34H83.75c0,.09,0,.16,0,.21a.42.42,0,0,0,.15.34.48.48,0,0,0,.36.13.6.6,0,0,0,.59-.43l1.14.18a1.76,1.76,0,0,1-.72.81,2,2,0,0,1-1.1.31,1.77,1.77,0,0,1-1.24-.43,1.54,1.54,0,0,1-.47-1.18,1.95,1.95,0,0,1,2-2,1.65,1.65,0,0,1,1.22.45A1.6,1.6,0,0,1,86.13,67,2,2,0,0,1,86.09,67.34Zm-1.22-.65a1.49,1.49,0,0,0,0-.17.45.45,0,0,0-.12-.31.38.38,0,0,0-.31-.14.54.54,0,0,0-.39.17.71.71,0,0,0-.22.45Z"/><polygon class="cls-5" points="78.16 67.85 77.99 68.85 76.67 68.85 76.83 67.85 78.16 67.85"/><circle class="cls-1" cx="50.38" cy="109.05" r="4.85"/><path class="cls-4" d="M50.38,114.25a5.2,5.2,0,1,1,3.67-1.52A5.2,5.2,0,0,1,50.38,114.25Zm0-9.69a4.49,4.49,0,1,0,3.17,1.31A4.48,4.48,0,0,0,50.38,104.56Z"/><path class="cls-2" d="M51.42,109.19h.47v0a.52.52,0,0,0,.52.46h.71a.52.52,0,0,0,.53-.51v-.25a.52.52,0,0,0-.53-.51h-.71a.51.51,0,0,0-.52.45v0h-.47v-2a1,1,0,0,0-2.09,0v2h-.47v0a.52.52,0,0,0-.53-.45h-.7a.52.52,0,0,0-.53.51v.25a.52.52,0,0,0,.53.51h.7a.53.53,0,0,0,.53-.46v0h.47v2a1,1,0,0,0,2.09,0Zm.76-.26a.23.23,0,0,1,.24-.23h.71a.23.23,0,0,1,.23.23v.25a.23.23,0,0,1-.23.23h-.71a.24.24,0,0,1-.24-.23Zm-3.61.25a.24.24,0,0,1-.24.23h-.7a.23.23,0,0,1-.24-.23v-.25a.23.23,0,0,1,.24-.23h.7a.23.23,0,0,1,.24.23ZM51.13,107l-.46.33a.14.14,0,0,0,0,.2.17.17,0,0,0,.21,0l.28-.2v.39l-.46.32a.14.14,0,0,0-.05.1.12.12,0,0,0,0,.1.16.16,0,0,0,.21,0l.28-.2v.39l-.46.33a.13.13,0,0,0,0,.19.16.16,0,0,0,.21,0l.28-.2v.39l-.46.33a.14.14,0,0,0,0,.2.15.15,0,0,0,.21,0l.28-.2V110l-.46.33a.14.14,0,0,0,0,.2.15.15,0,0,0,.21,0l.28-.2v.39l-.46.33a.14.14,0,0,0,0,.2.17.17,0,0,0,.21,0l.28-.21v.16a.75.75,0,0,1-1.5,0v-.16l.27.21a.17.17,0,0,0,.21,0,.14.14,0,0,0,0-.2l-.45-.33v-.39l.27.2a.15.15,0,0,0,.21,0,.14.14,0,0,0,0-.2l-.45-.33v-.39l.27.2a.15.15,0,0,0,.21,0,.14.14,0,0,0,0-.2l-.45-.33v-.39l.27.2a.16.16,0,0,0,.21,0,.13.13,0,0,0,0-.19l-.45-.33v-.39l.27.2a.16.16,0,0,0,.21,0,.19.19,0,0,0,0-.1.21.21,0,0,0-.06-.1l-.45-.32v-.39l.27.2a.17.17,0,0,0,.21,0,.14.14,0,0,0,0-.2l-.45-.33v-.11a.75.75,0,0,1,1.5,0Z"/><circle class="cls-1" cx="62.4" cy="115.49" r="4.85"/><path class="cls-4" d="M62.4,120.68a5.19,5.19,0,1,1,3.67-1.51A5.17,5.17,0,0,1,62.4,120.68Zm0-9.68a4.49,4.49,0,1,0,3.18,1.31A4.51,4.51,0,0,0,62.4,111Z"/><path class="cls-2" d="M65,114.73a1.33,1.33,0,0,0-1.86-1.87l-.12-.13a.16.16,0,0,0-.24,0l-.71.7a.18.18,0,0,0,0,.24l.12.11-1.37,1.37-.12-.12a.18.18,0,0,0-.24,0l-.71.7a.18.18,0,0,0,0,.24l.13.12A1.33,1.33,0,0,0,61.75,118l.12.12a.16.16,0,0,0,.24,0l.71-.7a.17.17,0,0,0,0-.23L62.7,117l1.37-1.37.12.12a.16.16,0,0,0,.24,0l.7-.7a.17.17,0,0,0,0-.24Zm-2.1-1.65.23.24-.47.47-.23-.24Zm-2.32,2.3.23.24-.47.47-.23-.24Zm.81,2.24.11.11a1,1,0,0,1-1.28-.11,1,1,0,0,1-.1-1.29c.08.07.12.16.22.16a.18.18,0,0,0,.12,0l.23-.23.94.94-.24.23a.18.18,0,0,0,0,.24Zm.59.12-.23-.24.47-.46.23.23Zm1.73-2.42.12.12-1.37,1.36-.12-.12a.18.18,0,0,0-.24,0l-.23.24-.94-1,.24-.23a.18.18,0,0,0,0-.24l-.12-.12L62.43,114l.12.12a.18.18,0,0,0,.24,0l.23-.23.94.94-.24.23A.18.18,0,0,0,63.72,115.32Zm.59.12-.23-.24.47-.47.23.24Zm.46-1-.1-.11a.18.18,0,0,0-.24,0l-.23.24-.94-1,.23-.23a.17.17,0,0,0,0-.24l-.11-.11a1,1,0,0,1,1.38,1.4Z"/><circle class="cls-1" cx="75.96" cy="115.41" r="4.85"/><path class="cls-4" d="M76,120.61a5.2,5.2,0,1,1,3.67-8.87h0A5.2,5.2,0,0,1,76,120.61Zm0-9.69a4.47,4.47,0,1,0,3.18,1.31h0A4.46,4.46,0,0,0,76,110.92Z"/><path class="cls-2" d="M78.19,117.68a1.3,1.3,0,1,0,0-2.59,1.53,1.53,0,0,0-.3,0h0l-.55-1.32.49-.17a.17.17,0,1,0-.11-.33l-.68.23a.18.18,0,0,0-.1.23l.15.35-1.9.49L75,114.1h.34a.18.18,0,0,0,.17-.18.18.18,0,0,0-.17-.17h-.9a.17.17,0,0,0-.17.17.17.17,0,0,0,.17.18h.17l.3.69-.44.5h0a1.27,1.27,0,0,0-.68-.19,1.3,1.3,0,0,0,0,2.59A1.31,1.31,0,0,0,75,116.59v0h.73a.21.21,0,0,0,.15-.07l1.38-1.9.28.68h0a1.3,1.3,0,0,0,.68,2.4Zm-3.55-1.08a.94.94,0,1,1-.92-1.16.92.92,0,0,1,.43.11h0l-.6.71a.17.17,0,0,0,0,.19.18.18,0,0,0,.16.1h.93Zm-.54-.39.91-1.06.46,1.06Zm1.67-.18-.47-1.09,1.57-.41Zm1.87-.41,0,0,.35.85a.19.19,0,0,0,.1.1.29.29,0,0,0,.13,0,.19.19,0,0,0,.1-.1.29.29,0,0,0,0-.13l-.36-.86h.19a.94.94,0,1,1-.55.18Z"/><circle class="cls-1" cx="88.03" cy="109.05" r="4.85"/><path class="cls-4" d="M88,114.25a5.2,5.2,0,1,1,3.67-1.52A5.18,5.18,0,0,1,88,114.25Zm0-9.69a4.49,4.49,0,1,0,3.18,1.31A4.51,4.51,0,0,0,88,104.56Z"/><path class="cls-2" d="M90.38,110l-.78-4.16h-1v.36h.67l.51,2.78-.64,1.18h-3a.76.76,0,1,0,.11,1.1H89l.94-1.72.09.52a.78.78,0,0,0-.45.7.76.76,0,0,0,.76.76.77.77,0,0,0,.77-.76.76.76,0,0,0-.72-.76Zm-4.65,1.16a.4.4,0,1,1,.4-.4A.4.4,0,0,1,85.73,111.18Zm.75-.26a.66.66,0,0,0,0-.14.61.61,0,0,0,0-.24H89l-.2.38Zm3.85.26a.4.4,0,1,1,.41-.4A.4.4,0,0,1,90.33,111.18Z"/><polygon class="cls-5" points="35.73 84.47 34.63 82.15 32.2 77.06 31.85 78.71 30.15 76.65 29.78 78.38 29.43 80.01 31.77 82.14 32.17 80.58 35.73 84.47"/><polygon class="cls-5" points="35.33 91.72 33.77 89.68 30.34 85.2 30.34 86.88 28.25 85.22 28.25 87 28.25 88.66 30.97 90.26 31.04 88.65 35.33 91.72"/><polygon class="cls-5" points="36.45 98.89 34.49 97.22 30.21 93.55 30.56 95.2 28.16 94.01 28.53 95.74 28.88 97.37 31.88 98.37 31.61 96.78 36.45 98.89"/><polygon class="cls-5" points="39.03 105.67 36.77 104.44 31.81 101.74 32.5 103.28 29.91 102.62 30.63 104.24 31.31 105.76 34.45 106.11 33.86 104.61 39.03 105.67"/><polygon class="cls-5" points="42.96 111.77 40.5 111.03 35.09 109.43 36.08 110.79 33.41 110.68 34.45 112.11 35.43 113.46 38.58 113.15 37.69 111.81 42.96 111.77"/><polygon class="cls-5" points="48.08 116.92 45.51 116.71 39.89 116.26 41.15 117.39 38.51 117.83 39.83 119.02 41.06 120.13 44.08 119.18 42.93 118.05 48.08 116.92"/><polygon class="cls-5" points="54.15 120.88 51.6 121.22 46.01 121.95 47.47 122.79 44.99 123.77 46.52 124.66 47.96 125.49 50.71 123.93 49.35 123.07 54.15 120.88"/><polygon class="cls-5" points="60.92 123.5 58.49 124.36 53.17 126.24 54.78 126.76 52.55 128.24 54.24 128.78 55.82 129.3 58.19 127.2 56.68 126.64 60.92 123.5"/><polygon class="cls-5" points="68.08 124.66 65.89 126 61.08 128.94 62.76 129.12 60.88 131.03 62.65 131.21 64.3 131.39 66.18 128.84 64.59 128.6 68.08 124.66"/><polygon class="cls-5" points="75.33 124.3 73.47 126.07 69.37 129.95 71.05 129.77 69.61 132.03 71.38 131.84 73.03 131.67 74.34 128.79 72.73 128.89 75.33 124.3"/><polygon class="cls-5" points="82.35 122.44 80.89 124.56 77.69 129.21 79.29 128.68 78.36 131.19 80.05 130.64 81.63 130.13 82.31 127.04 80.76 127.47 82.35 122.44"/><polygon class="cls-5" points="88.82 119.17 87.84 121.54 85.67 126.75 87.13 125.91 86.74 128.55 88.28 127.66 89.72 126.83 89.74 123.67 88.31 124.41 88.82 119.17"/><polygon class="cls-5" points="94.48 114.61 94 117.14 92.97 122.69 94.22 121.56 94.39 124.23 95.71 123.04 96.94 121.93 96.31 118.83 95.07 119.85 94.48 114.61"/><polygon class="cls-5" points="99.06 108.99 99.12 111.56 99.26 117.2 100.25 115.83 100.97 118.41 102.02 116.97 102.99 115.63 101.73 112.73 100.73 113.99 99.06 108.99"/><polygon class="cls-5" points="102.37 102.53 102.97 105.03 104.28 110.52 104.97 108.98 106.2 111.35 106.92 109.73 107.6 108.21 105.76 105.63 105.04 107.08 102.37 102.53"/><polygon class="cls-5" points="104.27 95.53 105.37 97.85 107.8 102.94 108.15 101.29 109.85 103.35 110.22 101.62 110.56 99.99 108.23 97.86 107.83 99.42 104.27 95.53"/><polygon class="cls-5" points="104.67 88.28 106.23 90.32 109.66 94.8 109.66 93.12 111.75 94.78 111.75 93 111.75 91.34 109.03 89.74 108.96 91.35 104.67 88.28"/><polygon class="cls-5" points="103.56 81.11 105.51 82.78 109.79 86.45 109.44 84.8 111.84 85.99 111.47 84.26 111.12 82.63 108.12 81.63 108.39 83.22 103.56 81.11"/><polygon class="cls-5" points="100.97 74.33 103.23 75.56 108.19 78.26 107.5 76.72 110.09 77.38 109.37 75.76 108.69 74.24 105.55 73.89 106.14 75.39 100.97 74.33"/><polygon class="cls-5" points="97.04 68.23 99.5 68.97 104.91 70.57 103.92 69.21 106.59 69.32 105.55 67.89 104.57 66.54 101.42 66.85 102.31 68.19 97.04 68.23"/><polygon class="cls-5" points="91.92 63.09 94.49 63.29 100.11 63.74 98.86 62.61 101.49 62.17 100.17 60.98 98.94 59.87 95.92 60.82 97.07 61.95 91.92 63.09"/><polygon class="cls-5" points="85.85 59.12 88.4 58.78 93.99 58.05 92.53 57.21 95.01 56.23 93.48 55.34 92.04 54.51 89.29 56.07 90.65 56.93 85.85 59.12"/><polygon class="cls-5" points="79.08 56.5 81.5 55.64 86.83 53.76 85.22 53.24 87.45 51.76 85.76 51.22 84.18 50.7 81.81 52.8 83.32 53.36 79.08 56.5"/><polygon class="cls-5" points="71.92 55.34 74.11 54 78.92 51.06 77.25 50.88 79.11 48.97 77.35 48.79 75.7 48.61 73.82 51.16 75.41 51.4 71.92 55.34"/><polygon class="cls-5" points="64.67 55.7 66.53 53.93 70.63 50.05 68.95 50.23 70.39 47.97 68.62 48.16 66.97 48.33 65.66 51.21 67.27 51.11 64.67 55.7"/><polygon class="cls-5" points="57.65 57.56 59.11 55.44 62.31 50.8 60.71 51.32 61.64 48.81 59.95 49.36 58.37 49.87 57.69 52.96 59.24 52.53 57.65 57.56"/><polygon class="cls-5" points="51.18 60.83 52.16 58.46 54.33 53.25 52.87 54.09 53.26 51.45 51.72 52.34 50.28 53.17 50.26 56.33 51.69 55.59 51.18 60.83"/><polygon class="cls-5" points="45.52 65.39 46 62.86 47.03 57.31 45.78 58.44 45.61 55.77 44.29 56.96 43.05 58.07 43.69 61.17 44.93 60.15 45.52 65.39"/><polygon class="cls-5" points="40.94 71.01 40.88 68.44 40.74 62.8 39.74 64.17 39.03 61.59 37.98 63.03 37.01 64.37 38.27 67.27 39.27 66.01 40.94 71.01"/><polygon class="cls-5" points="37.63 77.47 37.03 74.97 35.72 69.48 35.03 71.02 33.8 68.65 33.08 70.27 32.4 71.79 34.24 74.37 34.96 72.92 37.63 77.47"/></svg>