<svg id="Layer_1" data-name="Layer 1" xmlns="http://www.w3.org/2000/svg" viewBox="0 0 140 180"><defs><style>.cls-1{fill:#fff;}.cls-2{fill:#23293f;}.cls-3{fill:#ccd8eb;}.cls-4{fill:#87a9c3;}.cls-5{fill:#f9db00;}.cls-6{fill:#fbd09d;}.cls-7{fill:#eb9900;}</style></defs><path class="cls-1" d="M74.73,39.72l.46,1.15L62.32,47.12a10.83,10.83,0,0,1,.15,1.33A2.41,2.41,0,0,1,61.12,51a2.79,2.79,0,0,1-.58.18c-.26.87-.66,2-1.57,2.16a16.81,16.81,0,0,1-1.73.27,10.42,10.42,0,0,1-1.35.12,2.29,2.29,0,0,1-.91-.14,1.68,1.68,0,0,1-1-1l-.12,0-.46.68c-1,1.59-2.13,3.24-3,4.89,0,.08-.09.16-.13.24a17,17,0,0,1,4.9,1.92l.12-.07-.05-.42.33.27L59.41,58a13.25,13.25,0,0,1,5.68-1.6h.11c.35,0,.73,0,1.13.05l.5-.38A23,23,0,0,1,70,54l-1.29-.52-5.39-2L69,50.92c.45,0,.93-.06,1.42-.06a16.38,16.38,0,0,1,3.64.39c.33.08.66.18,1,.29L75,51.47,72.6,48.75l3.6.55c.31,0,.63.1,1,.16h.07l.08,0a15.09,15.09,0,0,1,1.53.55l.07-.25,1.25.34a13.52,13.52,0,0,1,4,1.65L85.76,53l-.15-1.57L88.2,54a8.47,8.47,0,0,1,2.42,4.51A5.78,5.78,0,0,1,90.57,60l.1.11a17.83,17.83,0,0,0,2.06-2.49l-1.5,0,2.08-4a5.05,5.05,0,0,0-1.5-.17h-.43c-.61,0-1.42.14-2.11.25l-1.09-1.22a31.79,31.79,0,0,1,3.24-.29h.4a23.2,23.2,0,0,1,4.24.53l-2.29,4,1.57-.24A14.18,14.18,0,0,1,91.42,61a8.65,8.65,0,0,1,1.32,2A5,5,0,0,1,93,65.87a34.22,34.22,0,0,1,8.14,3.95,24.26,24.26,0,0,1,6.22,5.78l.32.49,0,.59c-.07,1.15-.23,2.34-.4,3.49a78,78,0,0,1-1.76,8.57,69.82,69.82,0,0,1-9.65,21.66h2.42l-2.1,2.77-3.9,5.12h7.55l-3.85,3.08-16.2,12.92-7.38,5.89-5.83,4.65-3.15,4.6,1.26-7.66.12-.7L64,140c-.72-1.08-1.43-2.16-2.13-3.25H42.51l.33-2,3.95-23.64q-1.4-2.72-2.63-5.48A55.91,55.91,0,0,1,39.6,87.46a53.24,53.24,0,0,1-.15-5.79v-.09L20.71,83.89l7.49-4.31a185.46,185.46,0,0,1,17.9-9.35c-1.15-.72-2.3-1.51-3.38-2.29-.89-.65-1.79-1.32-2.62-2.06A11.18,11.18,0,0,1,37,60.55l-.08-.35,1.3-1.29c.73-.32,1.93-2.17,2.26-2.74a8.06,8.06,0,0,1,.62-.9L27.91,60.79l6.41-5.22L15.17,62.64l-.49-1.2L46.93,47.09l-4.31,4.23,5.78-2.56,1.33-1.63.15-.11a8.9,8.9,0,0,0,1.29-1c.32-.56.47-1,1.13-1.31a1.48,1.48,0,0,1,.51-.13l.34,0a2.16,2.16,0,0,1,1.42-1,4.17,4.17,0,0,1,.8-.08l.49,0a2.13,2.13,0,0,1,1.5-.58,3.45,3.45,0,0,1,1.43.31,4.28,4.28,0,0,1,1.31-.25,1.7,1.7,0,0,1,.87.21,1.6,1.6,0,0,1,.6.69l13.16-4.12M56.47,60.86l.29-.11-.38,0,.09.07M88.75,120h0M78.66,132.94l-7.39,5.89h0l7.39-5.89m-10.11,5.88h0l-2.21,3.23h0l2.21-3.23h0M75.47,38.16l-1.12.35L62,42.36a3,3,0,0,0-.4-.3,3,3,0,0,0-1.53-.39,5,5,0,0,0-1.25.18,4.74,4.74,0,0,0-1.49-.24,3.47,3.47,0,0,0-1.91.55h-.08a5.17,5.17,0,0,0-1.07.11,3.57,3.57,0,0,0-1.67.89l-6.21,2.77L14.17,60.28l-1.12.5.46,1.14L14,63.11l.46,1.14,1.16-.42,12-4.43-.5.41-6.83,5.56L28.4,62l8.54-3.58-.93.91-.5.51.16.69.08.35h0a12.33,12.33,0,0,0,3.51,6A34.51,34.51,0,0,0,42,69h0c.52.38,1,.73,1.49,1-5.68,2.63-11.15,5.72-15.9,8.46l-7.49,4.31-5.44,3.12,6.22-.76L38.16,83c0,1.46.05,3,.18,4.54A57.72,57.72,0,0,0,39.88,97,56.6,56.6,0,0,0,43,106.12c.74,1.65,1.55,3.34,2.48,5.17l-3.88,23.23-.33,2L41,138H61.22c.61.94,1.19,1.82,1.76,2.68l.44.67,0,.2-1.26,7.66-.94,5.64,3.24-4.71,3-4.45,5.68-4.53,7.39-5.89,16.19-12.92,3.85-3.07,2.84-2.27H94.79l2.35-3.08,2.1-2.77,1.55-2H98.16a66.05,66.05,0,0,0,4.56-8.64,77.59,77.59,0,0,0,4-11.42,79.56,79.56,0,0,0,1.8-8.72c.14-1,.32-2.3.41-3.59h0l0-.59,0-.42-.23-.36-.32-.49h0a25.38,25.38,0,0,0-6.58-6.14A35.44,35.44,0,0,0,94.36,65a6.11,6.11,0,0,0-.45-2.57,8.21,8.21,0,0,0-.75-1.3A14.59,14.59,0,0,0,96.49,57l1-2.14-1.29.2,1-1.69.87-1.5-1.69-.37a23.66,23.66,0,0,0-4.52-.56h-.45c-1.62.08-2.23.16-2.88.24l-.45,0-.74.09-.8-.8L84,48l.23,2.38a16.72,16.72,0,0,0-3.75-1.44l-1.24-.34L78,48.24l0,.14-.32-.1h0l-.08,0-.07,0-.06,0h-.07c-.37-.07-.69-.13-1-.17l-3.6-.55L69.32,47l2.33,2.63,0,0c-.4,0-.82,0-1.23,0a15.31,15.31,0,0,0-1.54.07l-5.41.51a4.53,4.53,0,0,0,.24-1.77h0c0-.17,0-.35,0-.54l12-5.85,1.06-.51-.43-1.1-.46-1.15-.44-1.09ZM61.54,52.21l.05,0,1.28.48,4.31,1.6c-.45.32-.84.62-1.13.84h0l-.11.09-.74,0h-.13a14.59,14.59,0,0,0-6.27,1.75l-3.1,1.69-2.09-1.7.15,1.31c-.55-.23-1.09-.42-1.59-.58.63-1,1.29-2.06,1.95-3.06l.37.19a3.8,3.8,0,0,0,1.4.23,11.62,11.62,0,0,0,1.46-.12h0a16.76,16.76,0,0,0,1.85-.29,3.42,3.42,0,0,0,2.29-2.37Zm28.94,2.58c.31,0,.59-.07.82-.08l-.4.78,0-.05c-.12-.22-.25-.44-.39-.65Z"/><path class="cls-1" d="M58.69,32.65c6.58.7,2.32,5.22-1.27,7.44l-3.74,2.3.89-1.49C54,41.45,51,43,51.9,43.8l-1.15,1-.07.1c-2.84-3.79,3.79-2.82,5.85-8.17a15.55,15.55,0,0,1-.47,2.07,16.07,16.07,0,0,1-.75,1.68c3.29-1.39,9.58-6.45,3.38-7.79m.93-7.51-4.28,11.1c-.79,2.07-2.44,3-3.89,3.84-1.24.7-2.41,1.37-2.68,2.68a3.53,3.53,0,0,0,.9,2.86l.33.45-.08.12.12-.07.66.88,1-1.37,1-.86,1.19-1h0l.46-.28,3.74-2.31a17.53,17.53,0,0,0,3.65-3c1.33-1.48,1.86-2.85,1.59-4.06a3,3,0,0,0-1.57-2,7.6,7.6,0,0,0-2.94-.8l-.4,2.51a3.73,3.73,0,0,1,1.44.55c.17.13.18.21.18.24,0,.26-.28,1.07-1.63,2.26a9.51,9.51,0,0,1-.75.62c.07-.35.12-.62.12-.68l1.84-11.75Z"/><g id="_2520766580608" data-name=" 2520766580608"><path class="cls-2" d="M39.45,81.58,20.71,83.89l7.49-4.31c7.67-4.41,15.49-8.74,23.85-11.72a73.23,73.23,0,0,1,28.68-4.19c7.16.33,14.37,2.14,20.39,6.15a24.26,24.26,0,0,1,6.22,5.78l.32.49,0,.59c-.07,1.15-.23,2.34-.4,3.49a78,78,0,0,1-1.76,8.57,68.48,68.48,0,0,1-11.25,23.89A153,153,0,0,1,76,132.37q-3.27,3-6.69,5.86c-.89.74-1.79,1.48-2.71,2.18l-1.49,1.15L64,140c-1.44-2.17-2.86-4.38-4.24-6.58-3-4.79-6-9.64-8.78-14.56-2.44-4.29-4.86-8.73-6.86-13.24A55.91,55.91,0,0,1,39.6,87.46a53.24,53.24,0,0,1-.15-5.79Z"/><path class="cls-3" d="M105,76.8c-1.11-1.49-8-9.81-24.43-10.56a70.09,70.09,0,0,0-27,3.79A126.1,126.1,0,0,0,33,79.79l9.26-1.14-.12,1a52.26,52.26,0,0,0,4.35,24.89c5.2,11.7,16.69,29.46,19.19,33.27,3.12-2.48,16.2-13.23,26.47-26.75C103,96.8,104.83,79.21,105,76.8Z"/><path class="cls-4" d="M104.19,82.72c.57-3,.79-5.19.85-5.92a19.4,19.4,0,0,0-3.24-3.29l-8.11,4Z"/><path class="cls-4" d="M54,96.79l-9.58,2.1a51.4,51.4,0,0,0,2.12,5.67c5.2,11.7,16.69,29.46,19.19,33.27,3.12-2.48,16.2-13.23,26.47-26.75,6.48-8.53,9.74-18.23,11.36-25.19Z"/><path class="cls-4" d="M42.15,79.67A49.21,49.21,0,0,0,43.2,94.33l31.9-18L61.34,68.81l2.08-1.42A69.68,69.68,0,0,0,53.61,70,126.1,126.1,0,0,0,33,79.79l9.26-1.14Z"/><polygon class="cls-2" points="60.32 44.23 74.73 39.73 75.19 40.87 60.9 47.81 60.32 44.23"/><polygon class="cls-5" points="61.07 44.69 74.34 40.54 61.41 46.82 61.07 44.69"/><path class="cls-2" d="M88.92,76.61a8.34,8.34,0,0,1,.53,1.67l.24.08c1.19.36,3,1.81,1.94,2.89l.4.25.08.07a31.74,31.74,0,0,1,4.26,4.57,16.38,16.38,0,0,1,1.38,2.12,9.47,9.47,0,0,1,.85,4.67,24.94,24.94,0,0,1-.92,5.87l-.17.64h0l.19.11.13.54a11.74,11.74,0,0,1-.21,5.83A22.44,22.44,0,0,1,96.25,109a6.72,6.72,0,0,0-.6,1.42,2.28,2.28,0,0,1-.51,1.68l.52-.1-2.07,1.42c-.38,1.37-1.5,1.82-2.76,2.45-2,1-7.34,3-9.56,2.4-.62-.15-1.25-.3-1.88-.4a3.07,3.07,0,0,0-.53-.07H77.59l-.1-6.12,1.18-.13a5.16,5.16,0,0,0,1-.28,9.32,9.32,0,0,0,2.63-1.6,10,10,0,0,0,2.56-3.14l.21-.6h0c0-.11,0-.21,0-.32a15.1,15.1,0,0,1,.47-3.47c.32-1.59.65-3.17,1-4.75-.91.44-1.85.84-2.77,1.18h0s-3.87,4.28-4.27,6.23,1,5.29,1,5.29a39.82,39.82,0,0,1-9.54.29c-5.47-.46-13.06-3-13.06-3a33.83,33.83,0,0,1-1-4.6,26,26,0,0,0-.35-5,54.43,54.43,0,0,1-1.9-9.32,41.11,41.11,0,0,1,0-12l.38.08v-.06a7.94,7.94,0,0,1-3-.8,7.37,7.37,0,0,1-2.07-1.53,22.58,22.58,0,0,1-1.83-2.19,5.85,5.85,0,0,0-1-1.13c-1.47-.86-3-1.87-4.34-2.87-.89-.65-1.79-1.32-2.62-2.06A11.18,11.18,0,0,1,37,60.55l-.08-.35,1.3-1.29c.73-.32,1.93-2.17,2.26-2.74,1.39-2.35,4.52-4.81,7.19-6.49l2.07-2.55.15-.11a8.9,8.9,0,0,0,1.29-1c.32-.56.47-1,1.13-1.31a1.48,1.48,0,0,1,.51-.13l.34,0a2.16,2.16,0,0,1,1.42-1,4.25,4.25,0,0,1,1.29,0,2.13,2.13,0,0,1,1.5-.58,3.45,3.45,0,0,1,1.43.31,2.76,2.76,0,0,1,2.18,0,2.29,2.29,0,0,1,.88,1.53c.12.5.22,1,.31,1.52a17.14,17.14,0,0,1,.31,2.25A2.41,2.41,0,0,1,61.12,51a2.79,2.79,0,0,1-.58.18c-.26.87-.66,2-1.57,2.16a16.81,16.81,0,0,1-1.73.27,5.06,5.06,0,0,1-2.26,0,1.68,1.68,0,0,1-1-1l-.12,0-.46.68c-1,1.59-2.13,3.24-3,4.89,0,.08-.09.16-.13.24a17,17,0,0,1,4.9,1.92l.12-.07-.05-.42.33.27L59.41,58a13.25,13.25,0,0,1,5.68-1.6c.37,0,.8,0,1.24.05l.5-.38A23,23,0,0,1,70,54l-1.29-.52-5.39-2L69,50.92a17.16,17.16,0,0,1,5.06.33c.33.08.66.18,1,.29L75,51.47,72.6,48.75l3.6.55c.31,0,.63.1,1,.16h.07l.08,0a15.09,15.09,0,0,1,1.53.55l.07-.25,1.25.34a13.52,13.52,0,0,1,4,1.65L85.76,53l-.15-1.57L88.2,54a8.47,8.47,0,0,1,2.42,4.51A5.78,5.78,0,0,1,90.57,60l.59.67a9.85,9.85,0,0,1,1.58,2.29,5.41,5.41,0,0,1-.19,4.25,12.9,12.9,0,0,1-1.83,2.66l-.34.39a9,9,0,0,0-1.87,2.91A13,13,0,0,0,88.92,76.61ZM56.76,60.75l-.38,0,.09.07Z"/><path class="cls-6" d="M78.43,62.59a2.26,2.26,0,0,1,2.7-1.67c2.1.52,4.22,3.71,4.22,3.71s1.38-1.52,2.56-.63.2,3.74.2,3.74a3.38,3.38,0,0,1,.41,1.93c-.18.89-2.79,1.4-3.48,1.6s-1.15-.68-1.15-.68a4.88,4.88,0,0,1-1.21.08c-.75,0-5.4-4.42-5.55-5.17S79,63.89,79,63.89Z"/><path class="cls-7" d="M85.35,64.63s1.38-1.52,2.56-.63.2,3.74.2,3.74a3.38,3.38,0,0,1,.41,1.93c-.18.89-2.79,1.4-3.48,1.6s-1.15-.68-1.15-.68a4.88,4.88,0,0,1-1.21.08c-.75,0-5.4-4.42-5.55-5.17,0,0,4.57,4.23,5.37,4.26A2.73,2.73,0,0,0,84,69.3s.46,1.18,1.06,1.12,2.82-.6,2.9-1.24a2.31,2.31,0,0,0-.4-1.35,1.66,1.66,0,0,0,.26-.6c.15-.49.06-2.62-.55-2.94S85.35,64.63,85.35,64.63Z"/><path class="cls-6" d="M77.78,67.74s.79,2.7,2,3.36a2.36,2.36,0,0,0,1.91.38,7.71,7.71,0,0,1-1.52.66,3.48,3.48,0,0,1-1.12.23,8.14,8.14,0,0,0,2-.07,11.09,11.09,0,0,0,2.26-.91,3.35,3.35,0,0,0,.68.82c.34.26-.2,2.46-.2,2.46a4.4,4.4,0,0,0,.63-1.57c.07-.73.1-.88.1-.88s.37.46,1.49.42a1.81,1.81,0,0,0,1.54-.83A3.19,3.19,0,0,1,87,74.18,13.66,13.66,0,0,1,84.25,76h-.66l.76-.88L84,74.7l.08.38-1.11.73-.68-.11a13.81,13.81,0,0,1-1.43-1.6c0-.2.56-.93.56-.93l-.85.43-1.6-.31a7.81,7.81,0,0,1-1.69-2.49A3.31,3.31,0,0,1,77.78,67.74Z"/><path class="cls-7" d="M77.78,67.74s.79,2.7,2,3.36a2.36,2.36,0,0,0,1.91.38,7.71,7.71,0,0,1-1.52.66,3.48,3.48,0,0,1-1.12.23,8.14,8.14,0,0,0,2-.07,11.09,11.09,0,0,0,2.26-.91s.11.18.26.38l-.44.17a6.26,6.26,0,0,1-2.82.84,9.81,9.81,0,0,1-2-.35h0a7.74,7.74,0,0,1,.72-.29,1.73,1.73,0,0,0,.79-.48A2.72,2.72,0,0,1,78,70.13a7.2,7.2,0,0,1-.55-1.9A3.6,3.6,0,0,1,77.78,67.74Zm6.07,6.7a3.51,3.51,0,0,0,.5-1.34c.07-.73.1-.88.1-.88s.37.46,1.49.42a1.81,1.81,0,0,0,1.54-.83A3.19,3.19,0,0,1,87,74.18,13.66,13.66,0,0,1,84.25,76h-.33a12.06,12.06,0,0,0,2.52-1.76c1.06-1,.62-1.24.62-1.24s0,.06-.75.11a4.64,4.64,0,0,1-1.44-.15s0,0-.26.6A2.52,2.52,0,0,1,83.85,74.44Z"/><path class="cls-1" d="M80.24,74.2a3,3,0,0,0-2.6-.27c-1.81.42-2.52,2-3.71,3.1a3.75,3.75,0,0,1-2,1.15A6.57,6.57,0,0,0,74.1,78a4.51,4.51,0,0,0,2.26-1.48,3.33,3.33,0,0,1-.4.76A2.43,2.43,0,0,1,75,78a6,6,0,0,0,2.06-1c1.3-.91,1.48-1.23,2.13-1.3a11.81,11.81,0,0,1,2.29.23,2.06,2.06,0,0,0-1-.86,6.83,6.83,0,0,0-2-.19,2.23,2.23,0,0,1,1.17-.34,2.51,2.51,0,0,1,1.07.11Zm-2.18,3.08a5.77,5.77,0,0,1-2.19,1.35,7.93,7.93,0,0,1-3.33.35,8.18,8.18,0,0,0-.84,2.12,4.35,4.35,0,0,0,.17,1.59,4.17,4.17,0,0,1,.53-1.85,3.18,3.18,0,0,1,.86-.92,4.37,4.37,0,0,0-.65,2.54c0,.7,0,1.24,0,1.63s0,.58,0,.9h0v.2a8.61,8.61,0,0,1-1.27,4l-1.84,2s3.65-.92,5.2-3.11a6,6,0,0,0,1-4.54l.84,1.7a4.42,4.42,0,0,1,.34-2.91,14.17,14.17,0,0,1,1.95-3.53l-.57-.18a2.36,2.36,0,0,0-1.41,1.33,14.63,14.63,0,0,0-.63,3.42A4.24,4.24,0,0,1,76,81.25a6.18,6.18,0,0,1,1.53-3s-2.39,1.21-3,2.83a19.16,19.16,0,0,0-.92,4A10.35,10.35,0,0,1,74,81c.69-1.5,3.16-2.68,3.54-3A2,2,0,0,0,78.06,77.28Zm1,2a18.36,18.36,0,0,0-1.55,4.25,13,13,0,0,0-.35,3.16l-.74-.54a5.46,5.46,0,0,1-2.7,3.62A24.31,24.31,0,0,1,68.5,92s6.39-1,9-2.21a4.63,4.63,0,0,0,2.82-3.48,3.62,3.62,0,0,1,.08,1.47,3.9,3.9,0,0,1-.34,1.49,4.83,4.83,0,0,0,1.44-1.78c.37-1,.37-2.27-.23-4.34a6,6,0,0,1,0-3.62L81,78.74l-.72-.06a4.4,4.4,0,0,0-.14,3c.46,1.79.89,2.27.89,3a3.58,3.58,0,0,1-.15,1.15,3.87,3.87,0,0,0-.43-2,12,12,0,0,1-1-2.56l0-.66a8,8,0,0,0-.66,3.85A4.54,4.54,0,0,1,77.47,88a7.34,7.34,0,0,0,.86-3c.12-1.76.09-3.37.28-4.3A6.8,6.8,0,0,1,79.05,79.26Zm2.61.53a6.32,6.32,0,0,0,.43,3.39,5.53,5.53,0,0,1,.43,4.14,8,8,0,0,1-.46.92s2.1-1.61,2-3.31-.57-2.12-.57-2.12A4.33,4.33,0,0,1,84.76,85c.2,1.18.06,1.33.06,1.33a5.36,5.36,0,0,0,.77-2.39,3.3,3.3,0,0,0-.89-2.33,4.16,4.16,0,0,0,2,1.18c1.18.26,1.58-.17,1.58-.17a5.36,5.36,0,0,1-2.73-1.24,15.29,15.29,0,0,1-2.3-2.73s-.08.16.44,1A5.76,5.76,0,0,0,85,81.1s-.15.07-.88-.43a6.4,6.4,0,0,1-1.35-1.38s-.29.45.68,1.68a5.2,5.2,0,0,1,1.13,2.27,18.62,18.62,0,0,0-1.1-1.51A13.9,13.9,0,0,1,82.36,80a4.35,4.35,0,0,0,.36,2.56,4.24,4.24,0,0,1,.3,2.62,3.67,3.67,0,0,0-.43-2.42A8.47,8.47,0,0,1,81.66,79.79Zm1.83-3.4a4.45,4.45,0,0,1,2.86,1.07,6.23,6.23,0,0,0,3,2.16,4.06,4.06,0,0,0,1.73.31,3.65,3.65,0,0,1-3.12,1.4,4,4,0,0,1-3.3-2c-.77-1-1.54-1.85-1.54-1.85a7.74,7.74,0,0,1,2.28,1.12,23.32,23.32,0,0,0,2,1.3A11,11,0,0,0,85.31,78a15.11,15.11,0,0,0-2.41-1.44Zm3.38-.89a10.15,10.15,0,0,1,.83,1.61,5.88,5.88,0,0,1,.44,1.39,14.79,14.79,0,0,0-1.79-1.9,4.39,4.39,0,0,0-.84-.5l.85-.25a1.46,1.46,0,0,1,.61.55l.34.49ZM75.81,69.93a6.25,6.25,0,0,0-3.19,2.25,10.47,10.47,0,0,0-1.52,4.38,3.56,3.56,0,0,1,.69-1.24,9.12,9.12,0,0,1,.77-.83,3.86,3.86,0,0,1-.77,2c-.84,1.35-1,1.38-1,1.38a6.67,6.67,0,0,0,2.59-1.45c1-1,1-1.74,2-2.43A7,7,0,0,1,78,73.08l-.37-.32a8.71,8.71,0,0,0-1.79.26,4.49,4.49,0,0,0-1.61.88s.16-.58,1.29-1.12A10.85,10.85,0,0,1,77,72.14a3.38,3.38,0,0,0-1.83,0,5.7,5.7,0,0,0-1.49.71,2.91,2.91,0,0,1,1.38-1c1.12-.52,1.41-.62,1.41-.62a3.09,3.09,0,0,0-2.21.55,6.83,6.83,0,0,0-1.85,1.75,4.15,4.15,0,0,1,1.68-2.14,18.75,18.75,0,0,1,2-1.14Zm.58-5.22s-6.1-3.56-10-4A21.5,21.5,0,0,0,58,61.73a50.74,50.74,0,0,1,5.84.54l1.33.34a19.32,19.32,0,0,0-2.33-.08h-3a29.71,29.71,0,0,0,5.75,3.56,15.71,15.71,0,0,0,7.59,1.76,3.91,3.91,0,0,1-2.16.46A34.14,34.14,0,0,1,65.46,67a7.1,7.1,0,0,0,5,2.76A13.47,13.47,0,0,0,76.3,69l.29-.43a24.63,24.63,0,0,0-2.53.34c-1.21.24-1.25.26-1.25.26s1-.46,2.27-.89a3.83,3.83,0,0,0,1.49-.72s-3.76-1-5.06-1.32A5,5,0,0,1,70,65.66s1.53.32,3.56.61a9.85,9.85,0,0,0,2.74.14,13.1,13.1,0,0,0-2.62-1.58c-1.44-.63-3.16-1.29-3.16-1.29a25,25,0,0,1,4.83,1.23l1.44.69Zm-8.76-7.56s2.91-2.24,3.88-2.36,2.94,1.5,3.89,2.85A40.78,40.78,0,0,1,78,63.31l-1-1,.38,1.69a62,62,0,0,0-8.8-4A26.62,26.62,0,0,0,60,59.19a12.94,12.94,0,0,1,5.06-1.44,23.86,23.86,0,0,1,7.68,1.62,11.13,11.13,0,0,1,2.27,1.29,11.61,11.61,0,0,0-3-2.07,11.75,11.75,0,0,0-3.88-1s2.56-1.2,3.53-1.12,3.16,2.68,3.16,2.68A37.29,37.29,0,0,0,71.79,56C71.31,55.73,67.63,57.15,67.63,57.15ZM81.84,59.6s-3.63-4.78-6-6.27-6.64-1.1-6.64-1.1a28.64,28.64,0,0,1,2.67,1.18A9.56,9.56,0,0,1,75.77,57a35.69,35.69,0,0,1,2.13,4.17A12.87,12.87,0,0,0,77.35,58c-.37-.65-.67-1.09-.67-1.09a5.9,5.9,0,0,1,1.69,1.35c.71.86,1.14,1.51,1.14,1.51a15.88,15.88,0,0,0-1.72-3.32C76.9,55.3,76.58,55,76.58,55a25.46,25.46,0,0,1,3.14,2.68A21.55,21.55,0,0,0,81.84,59.6Zm6.23,3.33s1.47-2.36,1.24-4.28a7.7,7.7,0,0,0-2-3.74l.09.89s-1.88-1.46-4-2.93a12.21,12.21,0,0,0-3.59-1.46A4.43,4.43,0,0,1,82,52.9a12.85,12.85,0,0,1,1,2.21,9.86,9.86,0,0,0-2-2.3,13.64,13.64,0,0,0-4.06-2.06L76,50.6a60.62,60.62,0,0,1,4.57,5.75c1.15,1.9,2.18,3.93,2.18,3.93a8.37,8.37,0,0,0-.68-2.44c-.58-1.23-.67-1.47-.67-1.47a9.72,9.72,0,0,1,2.28,2.39,13.2,13.2,0,0,1,1.43,3.65,6.73,6.73,0,0,0-.4-3.1,9.62,9.62,0,0,0-1.32-2.7A4.4,4.4,0,0,1,85.2,59a11.24,11.24,0,0,1,.86,3.42,7.1,7.1,0,0,0,.35-2.82,13,13,0,0,0-.38-2,4.27,4.27,0,0,1,.86,2.21,7.42,7.42,0,0,1-.14,3A10.2,10.2,0,0,0,88,59.48a9.2,9.2,0,0,0-.15-2.24,8.73,8.73,0,0,1,.47,3A14,14,0,0,1,88.07,62.93Zm1.18,6.59a14.5,14.5,0,0,0,2.1-2.88,4,4,0,0,0,.17-3.19,9.88,9.88,0,0,0-1.35-1.93,4.42,4.42,0,0,1-.51,1.59c-.47.86-.64.77-.64.77l.22,1s.17,0,.6-.49a2.24,2.24,0,0,0,.48-.68,9.07,9.07,0,0,1-.53,1.51c-.42,1-.49,1-.49,1l0,1.1a5.83,5.83,0,0,0,1-.89,2,2,0,0,0,.57-1A6.54,6.54,0,0,1,90.39,67a3.14,3.14,0,0,1-1,1.29Z"/><path class="cls-4" d="M71.46,77.67a6.85,6.85,0,0,0,2.29-2.21c.48-1.2.8-1.38.8-1.38l-.92.46a9.06,9.06,0,0,1,.75-1.31,2.73,2.73,0,0,1,.6-.67,8.62,8.62,0,0,0-1.75.83l-.39.35a19.68,19.68,0,0,1,1.62-2.06,3,3,0,0,1,2-.44s-.29.1-1.41.62a2.91,2.91,0,0,0-1.38,1,5.7,5.7,0,0,1,1.49-.71,3.38,3.38,0,0,1,1.83,0,10.85,10.85,0,0,0-1.48.64c-1.13.54-1.29,1.12-1.29,1.12A4.49,4.49,0,0,1,75.87,73a8.71,8.71,0,0,1,1.79-.26l.37.32a7,7,0,0,0-2.62.94c-1,.69-1,1.4-2,2.43A6.09,6.09,0,0,1,71.46,77.67Z"/><path class="cls-4" d="M69.43,91.14S72.87,90,74,87.81a12.56,12.56,0,0,0,1-5.06l.74.38a5.06,5.06,0,0,1-.2-1.93c.12-1,.13-1,.13-1a10.06,10.06,0,0,0-1.35,2.58c-.36,1-.58,1.62-.69,1.89a18,18,0,0,1,.86-3.54c.63-1.62,3-2.83,3-2.83a6.18,6.18,0,0,0-1.53,3,4.24,4.24,0,0,0,.15,2.07,14.63,14.63,0,0,1,.63-3.42,2.36,2.36,0,0,1,1.41-1.33l.57.18a14.17,14.17,0,0,0-1.95,3.53,4.42,4.42,0,0,0-.34,2.91l-.84-1.7a6,6,0,0,1-1,4.54C73.08,90.22,69.43,91.14,69.43,91.14Zm4.12-6.29A12.7,12.7,0,0,1,73.67,81a3.69,3.69,0,0,1,.88-1.55,17,17,0,0,0-1.87,0,1.59,1.59,0,0,1-.38,0c.13-.27.24-.45.24-.45a7.93,7.93,0,0,0,3.33-.35,5.77,5.77,0,0,0,2.19-1.35,2,2,0,0,1-.49.65c-.38.35-2.85,1.53-3.54,3A9.61,9.61,0,0,0,73.55,84.85ZM68.5,92s6.68-1.46,8.61-2.67a9,9,0,0,0,3-3.82,3.51,3.51,0,0,1,.65,1,4.11,4.11,0,0,1,.23.72,4.2,4.2,0,0,0,.46-1.51,6.53,6.53,0,0,0-.26-1.88l-.12.69c-.07-.66-.46-1.21-.88-2.84a4.4,4.4,0,0,1,.14-3l.72.06.26.75a6,6,0,0,0,0,3.62c.6,2.07.6,3.36.23,4.34a4.83,4.83,0,0,1-1.44,1.78,3.9,3.9,0,0,0,.34-1.49,3.62,3.62,0,0,0-.08-1.47,4.63,4.63,0,0,1-2.82,3.48C74.89,91,68.5,92,68.5,92Zm12.21-7.41-.66-1.08c-.47-.79-.78-1.39-.78-1.39a8.06,8.06,0,0,0-.18,2.64c.14,1-.83,2.35-1.26,2.9a4.69,4.69,0,0,0,.91-3.13,8,8,0,0,1,.66-3.85l0,.66a12,12,0,0,0,1,2.56A6,6,0,0,1,80.71,84.55Zm-3.08,3.32Zm.07-.3a15.82,15.82,0,0,0,.52-3.67c-.07-.87-.09-1.94-.09-2.53a20.47,20.47,0,0,1,.92-2.11,6.8,6.8,0,0,0-.44,1.45c-.19.93-.16,2.54-.28,4.3A7.63,7.63,0,0,1,77.7,87.57Zm5,0a3.79,3.79,0,0,0,.78-1.77,6.71,6.71,0,0,0-.5-3.43,2.12,2.12,0,0,1,1.38,1c.53.85.69,1.18.69,1.18a11.53,11.53,0,0,0-.2-1.92,2.64,2.64,0,0,0-.56-1.4,7.87,7.87,0,0,0,1.74.88,4.1,4.1,0,0,0,1.27.24,4.82,4.82,0,0,0,.92.22s-.4.43-1.58.17a4.16,4.16,0,0,1-2-1.18,3.3,3.3,0,0,1,.89,2.33,5.36,5.36,0,0,1-.77,2.39s.14-.15-.06-1.33a4.33,4.33,0,0,0-1.32-2.15s.43.43.57,2.12A3.81,3.81,0,0,1,82.75,87.61Z"/><path class="cls-4" d="M80.24,74.2l-.08,0a1.38,1.38,0,0,0-.41,0,5.09,5.09,0,0,0-2.15,1l.54,0a4.73,4.73,0,0,1,1.4.19,5.88,5.88,0,0,0-1.27.31,4,4,0,0,0-1.62,1l.2-.82s0,.13-1.39,1.1a9.62,9.62,0,0,1-2.72,1.32A8.58,8.58,0,0,0,74.1,78a4.51,4.51,0,0,0,2.26-1.48,3.33,3.33,0,0,1-.4.76A2.43,2.43,0,0,1,75,78a6,6,0,0,0,2.06-1c1.3-.91,1.48-1.23,2.13-1.3a11.81,11.81,0,0,1,2.29.23,2.06,2.06,0,0,0-1-.86,6.83,6.83,0,0,0-2-.19,2.23,2.23,0,0,1,1.17-.34,2.51,2.51,0,0,1,1.07.11Zm3.25,2.19A7.53,7.53,0,0,1,86,78.14c.85.93,1.61,1.88,1.61,1.88a4.85,4.85,0,0,1-1.13-.29,8.86,8.86,0,0,1-1.3-.57,3.83,3.83,0,0,0,2.48,1.52A5.84,5.84,0,0,0,91,79.93a3.65,3.65,0,0,1-3.12,1.4,4,4,0,0,1-3.3-2c-.77-1-1.54-1.85-1.54-1.85a7.74,7.74,0,0,1,2.28,1.12,23.32,23.32,0,0,0,2,1.3A11,11,0,0,0,85.31,78a15.11,15.11,0,0,0-2.41-1.44Zm-.13,2.4-.13-.14a.06.06,0,0,1,0,0Zm1.19,1.54L84.3,80Z"/><path class="cls-4" d="M75.4,57.64l.71,3A9.07,9.07,0,0,0,73,58.35a13.45,13.45,0,0,0-4.77-.74,10.51,10.51,0,0,1,6.69,2.91h0l.15.14-.06,0L76.26,62l.19.68a59.05,59.05,0,0,0-7.54-3.08,21.59,21.59,0,0,0-6-.44h0a22.43,22.43,0,0,1,5.68.9,62,62,0,0,1,8.8,4L77,62.36l1,1A40.78,40.78,0,0,0,75.4,57.64Zm.54,6.82a24.8,24.8,0,0,0-4.84-1.22c-1.38,0-1.9,0-1.9,0l4.55,2.52s-2.42-.53-4.2-.79-2.36-.39-2.36-.39L70.54,67A23.43,23.43,0,0,1,66,65.73a29.58,29.58,0,0,1-6.13-3.2l.58.51a36.93,36.93,0,0,0,5.1,3.05,15.71,15.71,0,0,0,7.59,1.76l-.14.08h0l1.46-.1a10.61,10.61,0,0,1-3.21,1.28c-2,.44-4.93-1.19-5-1.2a7.17,7.17,0,0,0,4.22,1.87A13.47,13.47,0,0,0,76.3,69l.29-.43a24.63,24.63,0,0,0-2.53.34c-1.21.24-1.25.26-1.25.26s1-.46,2.27-.89a3.83,3.83,0,0,0,1.49-.72s-3.76-1-5.06-1.32A5,5,0,0,1,70,65.66s1.53.32,3.56.61a9.85,9.85,0,0,0,2.74.14,13.1,13.1,0,0,0-2.62-1.58c-1.44-.63-3.16-1.29-3.16-1.29a25,25,0,0,1,4.83,1.23l1.44.69-.36-.75Z"/><path class="cls-4" d="M90.87,67.49a6,6,0,0,0,.34-1.31,4.2,4.2,0,0,0-.11-1.56l-.86.95a4.37,4.37,0,0,0,.43-1.51,16,16,0,0,0-.21-2.19l-.29-.35a4.42,4.42,0,0,1-.51,1.59c-.47.86-.64.77-.64.77l.22,1s.17,0,.6-.49a2.24,2.24,0,0,0,.48-.68,9.07,9.07,0,0,1-.53,1.51c-.42,1-.49,1-.49,1l0,1.1a5.83,5.83,0,0,0,1-.89,2,2,0,0,0,.57-1A6.54,6.54,0,0,1,90.39,67a3.14,3.14,0,0,1-1,1.29l-.12,1.28A18.82,18.82,0,0,0,90.87,67.49Zm-1.93-6.41a8.93,8.93,0,0,0-.39-3,2.87,2.87,0,0,0-1.27-1.51,12.11,12.11,0,0,1,.24,2.3,6.89,6.89,0,0,1-.11,1.34,7.93,7.93,0,0,0-.71-2.55,4.85,4.85,0,0,0-2-1.78,14.92,14.92,0,0,1,.69,1.59,4.93,4.93,0,0,1,.29,1.27,9.92,9.92,0,0,0-1.56-2.07,5.15,5.15,0,0,0-2.08-1.18l1,1.73s-1-.8-1.75-1.31-1.92-1.22-1.92-1.22h0a20.48,20.48,0,0,1,1.19,1.7c1.15,1.9,2.18,3.93,2.18,3.93a8.37,8.37,0,0,0-.68-2.44c-.58-1.23-.67-1.47-.67-1.47a9.72,9.72,0,0,1,2.28,2.39,13.2,13.2,0,0,1,1.43,3.65,6.73,6.73,0,0,0-.4-3.1,9.62,9.62,0,0,0-1.32-2.7A4.4,4.4,0,0,1,85.2,59a11.24,11.24,0,0,1,.86,3.42,7.1,7.1,0,0,0,.35-2.82,13,13,0,0,0-.38-2,4.27,4.27,0,0,1,.86,2.21,7.42,7.42,0,0,1-.14,3A10.2,10.2,0,0,0,88,59.48a9.2,9.2,0,0,0-.15-2.24,8.73,8.73,0,0,1,.47,3,16.93,16.93,0,0,1-.14,2.28,3.17,3.17,0,0,1-.07.45A10.41,10.41,0,0,0,88.94,61.08Zm-7.1-1.48s-3.06-3.36-4-4.11a12,12,0,0,0-2.4-1.31,11.74,11.74,0,0,1,1.11,1.28c.45.64.82,1.21.82,1.21L76,56l.46,1.35s-.55-.76-1.44-1.75A6.35,6.35,0,0,0,73,54.09h0A9.25,9.25,0,0,1,75.77,57a35.69,35.69,0,0,1,2.13,4.17A12.87,12.87,0,0,0,77.35,58c-.37-.65-.67-1.09-.67-1.09a5.9,5.9,0,0,1,1.69,1.35c.71.86,1.14,1.51,1.14,1.51a15.88,15.88,0,0,0-1.72-3.32C76.9,55.3,76.58,55,76.58,55a25.46,25.46,0,0,1,3.14,2.68A21.55,21.55,0,0,0,81.84,59.6Z"/><path class="cls-5" d="M80.24,74.2a3,3,0,0,0-2.6-.27c-1.81.42-2.52,2-3.71,3.1a3.75,3.75,0,0,1-2,1.15,4.59,4.59,0,0,0,1,0A5.61,5.61,0,0,0,74,77.67c1.45-.87,2.36-2.64,4-3.2a3.22,3.22,0,0,1,2.73.18ZM73.5,71.88h0a1.57,1.57,0,0,0-.32.35,3.94,3.94,0,0,0-.74,1.31c-.63,1.37-1,2.21-1,2.21h0a3.44,3.44,0,0,0-.37.81,10.47,10.47,0,0,1,1.52-4.38,6.25,6.25,0,0,1,3.19-2.25l.3.33a18.75,18.75,0,0,0-2,1.14A4.42,4.42,0,0,0,73.5,71.88Z"/><path class="cls-5" d="M58,61.73a30.21,30.21,0,0,1,9-.24c4.26.68,9.73,4,9.74,4h0l-.36-.75s-6.1-3.56-10-4A21.5,21.5,0,0,0,58,61.73Zm3.88-2.58a11.53,11.53,0,0,1,5.92-.59,36.19,36.19,0,0,1,6.88,1.82h0s-.29-.19-.71-.44-.71-.37-1.16-.57a23.86,23.86,0,0,0-7.68-1.62A12.94,12.94,0,0,0,60,59.19S60.76,59.14,61.86,59.15Zm5.77-2s3.3-1.92,4.41-1.64a11.16,11.16,0,0,1,2.61,1.23c-1-1.08-2.37-2-3.14-2C70.54,54.91,67.63,57.15,67.63,57.15Zm3.11-4.26a12.29,12.29,0,0,1,5.08,1,23.66,23.66,0,0,1,4.56,3.87,24,24,0,0,0-4.58-4.46c-2.42-1.5-6.64-1.1-6.64-1.1S69.88,52.51,70.74,52.89Zm6.18-1.23a7,7,0,0,1,3.16,1.26C81.71,54.07,83,55.11,83,55.11h0L83,55a9.88,9.88,0,0,0-2-2.22,13.64,13.64,0,0,0-4.06-2.06L76,50.6S76.38,51,76.92,51.66Zm5,1.15,4.19,2.29,1.25.7s-1.89-1.46-4-2.93a12.21,12.21,0,0,0-3.59-1.46A4.54,4.54,0,0,1,81.92,52.81Z"/><path class="cls-6" d="M91.24,82.56a28.39,28.39,0,0,1,5.35,6.33c1.67,3.1-.17,9.54-.17,9.54S95,99,92.51,95.9a16.39,16.39,0,0,1-3.22-5.69A14.24,14.24,0,0,0,92,96.79a12.57,12.57,0,0,0,4.56,3.6,10.63,10.63,0,0,1-.17,5.12c-.8,2.41-2.18,4.08-2,5.12s-3.79,3.62-3.79,3.62l3.27-.58a4.32,4.32,0,0,1-2.07,2.48c-1.61.8-8.1,1.38-10.18.86a14.05,14.05,0,0,0-2.7-.52l-.06-3.62a9,9,0,0,0,4.32-2.19A10,10,0,0,0,86.07,107s1.09-.35,3.54.52,2.5,3.74,2.5,3.74a4.45,4.45,0,0,0-.67-3.16c-1-1.33-4.91-2.25-4.91-2.25s-.49.29.29-3.45c.37-1.78.73-3.58,1-5a16.27,16.27,0,0,0,.68-3.29,9.52,9.52,0,0,0-1.15-3.36s.86,3,0,3.94a27.92,27.92,0,0,1-4.52,2.77h0c-.37.13-.76.26-1.14.37-3.54,1-6.84-.57-9.09-1.9a6.11,6.11,0,0,1-2.73-2.65s2.19.35,9.4-2.15,9.64-6.61,10.18-7.76.69-1.53.69-1.53Z"/><path class="cls-7" d="M90,93a12.11,12.11,0,0,0,2,3.8,12.57,12.57,0,0,0,4.56,3.6,10.63,10.63,0,0,1-.17,5.12c-.8,2.41-2.18,4.08-2,5.12s-3.79,3.62-3.79,3.62l3.27-.58a4.32,4.32,0,0,1-2.07,2.48c-1.61.8-8.1,1.38-10.18.86a14.05,14.05,0,0,0-2.7-.52l0-1.37a27,27,0,0,0,5.93.76c4.14.05,5.46-1,5.46-1l-1.73-.52a11.14,11.14,0,0,0,3.17-2.07,12.94,12.94,0,0,0,2.93-5.46,56.31,56.31,0,0,0,.92-5.81,10.22,10.22,0,0,1-3.33-2.64A14,14,0,0,1,90,93Zm-19.74.9a2.59,2.59,0,0,1-.33-.58,13.29,13.29,0,0,0,4.4-.64h.08l.14,0,.09,0,.13,0,.08,0h0l.13,0,.08,0,.16,0,.08,0,.16,0,.1,0,.14,0,.1,0h0l.12,0,.1,0,.18,0,.08,0c.88-.27,1.87-.58,3-1,7.22-2.5,9.64-6.61,10.18-7.76s.66-1.45.69-1.52l.55.34c-2.3,5.93-7.21,9.37-12.89,10.84l2.41,4s4-1,5.52-2.41a6.78,6.78,0,0,0,1.62-3.88s.07.28.17.71c.2,1,.43,2.59-.17,3.23a27.92,27.92,0,0,1-4.52,2.77h0c-.37.13-.76.26-1.14.37a10.19,10.19,0,0,1-7.31-.94l-.17-3.21A28.13,28.13,0,0,1,70.21,93.89Zm22,16.4a3.87,3.87,0,0,0-.72-2.19c-1-1.33-4.91-2.25-4.91-2.25s-.21.13-.14-.85a11.09,11.09,0,0,1,4.52,1.56C92.18,107.54,92.23,109.34,92.16,110.29Z"/><path class="cls-5" d="M91.24,82.56a28.39,28.39,0,0,1,5.35,6.33c1.27,2.36.51,6.67.07,8.58A18.52,18.52,0,0,0,96,89.91c-1-3.49-5-5.75-6.51-6.48l0,0c.55-1.15.69-1.53.69-1.53Z"/><path class="cls-6" d="M51.74,50.91l.89.66s-1,.23-2.41,2.1A18.5,18.5,0,0,0,48.09,57a9.74,9.74,0,0,1,2.15-2.71,17.82,17.82,0,0,1,2.1-1.67s-2.07,3.14-3.1,5-.52,1.58-2.76,2.76-3.45.95-3.45.95-.23.89,2.78,0,3.63-1.64,3.63-1.64,3.91.83,5.46,2.21,1.35,2.53,2.79,4.66A6.42,6.42,0,0,0,61,69.08a10.39,10.39,0,0,1-2.71-2.85,8.86,8.86,0,0,1-1.41-3.33s4.12,3.28,6.91,5.48L66,70.09a10.15,10.15,0,0,0,4,1.61l1,.17a6.18,6.18,0,0,0-1.77,5.27c.29,3.63,1.56,5.81,1.56,7.94s-1.3,3.82-2.65,5.23a4.15,4.15,0,0,1-2.81,1.58,9.11,9.11,0,0,1-6.82-6.15c-1.38-4.89-.12-10.93-.12-10.93a15.37,15.37,0,0,0-1.09,3.4c-.4,2-.4,2.12-.4,2.12a70.29,70.29,0,0,1-1-8.28,16.16,16.16,0,0,1,.46-4.19l-1,1.78a19.23,19.23,0,0,0-4.26-2c-1.9-.52-2.3-.41-3.85-1.62a10.25,10.25,0,0,1-2.19-2.18s.58,2.47,4,4.08a20.3,20.3,0,0,1,5,2.82C55,71.45,55.81,75,55.81,75s-1,.57-3.25-.52-3.6-4.08-4.83-4.8A53.45,53.45,0,0,1,41,64.9a10.23,10.23,0,0,1-2.7-4.66s1.26.11,3.33-3.4,8.29-7,8.29-7Z"/><path class="cls-7" d="M51.74,50.91l.89.66s-1,.23-2.41,2.1A18.5,18.5,0,0,0,48.09,57a9.74,9.74,0,0,1,2.15-2.71,17.82,17.82,0,0,1,2.1-1.67s-2.07,3.14-3.1,5-.52,1.58-2.76,2.76-3.45.95-3.45.95a.24.24,0,0,0,.09.24,7.15,7.15,0,0,1-1.58,0A9.34,9.34,0,0,0,43.35,61,21.57,21.57,0,0,0,47.64,59a7.06,7.06,0,0,0,1.44-2.52L47.15,58A11.33,11.33,0,0,1,48,55.29a17.84,17.84,0,0,1,2.73-3.53l-4.92.79h0L51,50.48Z"/><path class="cls-7" d="M57.61,65a7.31,7.31,0,0,1-.7-2.06s4.12,3.28,6.91,5.48L66,70.09a10.15,10.15,0,0,0,4,1.61l1,.17a6.18,6.18,0,0,0-1.77,5.27,35.14,35.14,0,0,0,1.33,6.19L60.93,88a26.19,26.19,0,0,1-.09-5.26c.28-2,1.32-6,1.32-6S62,76.09,61.53,74a25.59,25.59,0,0,1-.06-6Zm.28,11.09c-.08.24-.17.5-.25.79h0c-.09.29-.17.61-.25,1l-.56,2.14a64.75,64.75,0,0,1-.91-7.89,16.16,16.16,0,0,1,.46-4.19l-1,1.78a19.23,19.23,0,0,0-4.26-2c-1.9-.52-2.3-.41-3.85-1.62a10.25,10.25,0,0,1-2.19-2.18s.58,2.47,4,4.08a20.3,20.3,0,0,1,5,2.82C55,71.45,55.81,75,55.81,75s-1,.57-3.25-.52-3.6-4.08-4.83-4.8A53.45,53.45,0,0,1,41,64.9a10.23,10.23,0,0,1-2.7-4.66,17.43,17.43,0,0,0,3.45,4c1.6,1.09,4.83,3.79,5.83,4.23s3.82,4.11,4.89,4.65,1.47-.66.86-1.41-4.48-2.81-6.5-4.54a8.68,8.68,0,0,1-2.44-4.8,12.89,12.89,0,0,0,3.54,3.1c1.87,1,4.74,1.41,5.83,1.87a9.68,9.68,0,0,1,1.44.69l1.64-.74s0,3.67.09,5.46a25.88,25.88,0,0,0,.26,2.62l1.69-2.28Z"/><path class="cls-5" d="M66.87,91.36a3,3,0,0,1-1.54.53,9.11,9.11,0,0,1-6.82-6.15,25.89,25.89,0,0,1-.25-10.19,16.28,16.28,0,0,0,1.89,10.36C63.28,91.2,66.87,91.36,66.87,91.36Z"/><path class="cls-5" d="M48.22,60.34a4.09,4.09,0,0,0,1.22-.75s3.91.83,5.46,2.21,1.35,2.53,2.79,4.66a6.78,6.78,0,0,0,3,2.5h0a5.2,5.2,0,0,1-3.17-1.77c-1.56-1.66-1.9-3.3-3.6-4.71C52.56,61.36,49.43,60.6,48.22,60.34Z"/><path class="cls-6" d="M63.46,96.69a4,4,0,0,0-.55,2.71c.32,1.38,3.62,2.5,4.63,2.7a2.54,2.54,0,0,0,2.5-1.44,14.44,14.44,0,0,0-.23-3,2.85,2.85,0,0,0-1.44-1.9c-.69-.23-1.2-.92-3.28-2.07s-5.46-3.62-5.46-3.62.09.49,2.39,2.47a28.9,28.9,0,0,0,3.45,2.68S65,95,62.76,93.88a27.52,27.52,0,0,1-3.13-1.82,11.75,11.75,0,0,0,3.11,3.2,29.08,29.08,0,0,0,2.93,1.52Z"/><path class="cls-6" d="M70.82,97s0,1.12.05,2.7a10.49,10.49,0,0,1-.29,2.33c.09.26,3.74,1.73,4.64,1.47s1-1.9.8-2.33a10.37,10.37,0,0,0-2.47-2.67c-1.41-1.13-1.84-1.53-2.16-1.58A.94.94,0,0,0,70.82,97Z"/><path class="cls-6" d="M70.07,103.54a7.21,7.21,0,0,1,3.11,0,3.24,3.24,0,0,1,2.21,2.53c0,1.12.14,2.41-.46,2.58s-4.72-1-5-1.72A12.15,12.15,0,0,1,70.07,103.54Z"/><path class="cls-6" d="M63.94,102.59s2.94-.46,3.83,0a3.87,3.87,0,0,1,1.64,2.85,3.19,3.19,0,0,1-.78,2.32c-.37.29-1.21.18-2.3.12a4.86,4.86,0,0,1-3.08-1.21c-.72-.75-.51-1.44-.28-2.44A3.51,3.51,0,0,1,63.94,102.59Z"/><path class="cls-6" d="M50.63,48.1a10,10,0,0,0,1.64-1.35c.23-.37.35-.83.66-.86l1.24-.11a.9.9,0,0,1,.69-1,3.59,3.59,0,0,1,1.7.14.73.73,0,0,1,.8-.75,1.78,1.78,0,0,1,1.26.46s1.38-.54,1.67-.37.84,3.51.86,4.23S61,49.6,60.58,49.8a2.07,2.07,0,0,1-1.12,0S60,49.27,60,49s-.51-3.58-.83-3.55.27,3.57.27,3.57a8.75,8.75,0,0,1-1,1.32,3.73,3.73,0,0,1-1.3.22,8.5,8.5,0,0,0,.43-1.13c0-.15-.55-3.35-.83-3.33s-.23,1,0,1.83.31,1.63.31,1.63-.18.9-.43,1.1-1.58.3-1.68.11,0-1.65-.15-2.17a5.47,5.47,0,0,0-.53-1.19c0-.1-.34.2-.28.37s.38,1.15.53,1.61a2.93,2.93,0,0,1,0,1.52,1.89,1.89,0,0,1-1.14.33,3.77,3.77,0,0,1-1.25-.66l.78-.3A10.23,10.23,0,0,0,52,48.65a5.7,5.7,0,0,0-1.75-.09Z"/><path class="cls-7" d="M61.16,48.67c0,.61-.17.94-.58,1.13a2.07,2.07,0,0,1-1.12,0S60,49.27,60,49c0,0,0-.07,0-.13Zm-1.78.23V49a8.75,8.75,0,0,1-1,1.32,3.73,3.73,0,0,1-1.3.22,8.5,8.5,0,0,0,.43-1.13s0-.11,0-.24Zm-2.46.32a2.55,2.55,0,0,1,0,.29s-.18.9-.43,1.1-1.58.3-1.68.11a6.29,6.29,0,0,1-.07-1.23Zm-2.45.31a2.76,2.76,0,0,1,0,1.33,1.89,1.89,0,0,1-1.14.33,3.77,3.77,0,0,1-1.25-.66l.78-.3s-.08-.19-.2-.43l.11,0Z"/><path class="cls-5" d="M50.63,48.1a10,10,0,0,0,1.64-1.35c.23-.37.35-.83.66-.86l1.24-.11a.9.9,0,0,1,.69-1,3.59,3.59,0,0,1,1.7.14.73.73,0,0,1,.8-.75,1.78,1.78,0,0,1,1.26.46s1.38-.54,1.67-.37a1.35,1.35,0,0,1,.24.57.45.45,0,0,1-.22.09,12.89,12.89,0,0,0-1.66.43s-.53-.49-.91-.47-.52.72-.52.72a4.32,4.32,0,0,0-1.83.07c-.43.27,0,.56-.53.84a3,3,0,0,1-1.6,0,2,2,0,0,1-.34.85,4.51,4.51,0,0,1-1.61,1.11l-.91-.14Z"/><path class="cls-7" d="M59.37,50.43s-.43,1.57-.69,1.63a13.64,13.64,0,0,1-3.2.31c-.42-.17-.28-1-.28-1s2.62-.42,3.24-.58A3.08,3.08,0,0,0,59.37,50.43Z"/><polygon class="cls-2" points="34.32 55.57 15.17 62.64 14.68 61.44 46.93 47.09 42.62 51.32 49.81 48.14 52.19 48.51 53.01 50.26 27.91 60.79 34.32 55.57"/><polygon class="cls-5" points="49.9 48.83 51.74 49.11 52.12 49.92 31.9 58.4 37.83 53.57 15.54 61.79 43.85 49.19 39.55 53.42 49.9 48.83"/><path class="cls-2" d="M74.69,91.6h1.25l.53,1.27c.43,1,.89,2.05,1.37,3.06.27.55.54,1.1.84,1.63,1,1.78,2,3.55,3,5.32l.1.18-2.17,8.21-.69.28c-.85.34,1,.08.1.18a29.47,29.47,0,0,1-8.28-.38q-7.31-1.27-14.6-2.63l-.63-.12-2.28-9.33.71-.35.22-.11,0,0,6.23-2.55-.79.06.19-1.24c.55-3.47,1.05-6.94,1.55-10.42.17-1.2.34-2.4.52-3.6l.18-1.12a5.29,5.29,0,0,1,.15-.69l.7-1.92c0-.19-.08-.39-.11-.57-.06-.35-.1-.7-.14-1a36.13,36.13,0,0,1-.21-5.6c0-.86.08-1.74.17-2.6l.23-2.13a23.81,23.81,0,0,0,3.9,3.6,10.45,10.45,0,0,0,1.69.88c.91.4,1.87.76,2.81,1.07l1.09.35-.51,1a12.59,12.59,0,0,0-1.34,4.94,10.35,10.35,0,0,0,.33,2.21c.21.94.47,1.85.67,2.79a11.81,11.81,0,0,1,.28,4.35,7.66,7.66,0,0,1-1.59,3.34,18.61,18.61,0,0,1-1.92,2.11,14,14,0,0,0,1.83,0,33.29,33.29,0,0,0,4-.37Z"/><path class="cls-1" d="M63.67,67.61a38.74,38.74,0,0,0,.17,9,24.77,24.77,0,0,0,3.34,8.22,11.26,11.26,0,0,1-2.71-2.48,8.33,8.33,0,0,1-1.26-2.76c-.21.57-1.18,8.14-2.36,15.66l5.89-.47L54.65,99.7h0a1.43,1.43,0,0,1-.23.11l1.94,7.94s7.45,1.39,14.59,2.63,7.51-.36,7.51-.36l2.4-6.64s-2.43-4.22-3-5.32A16,16,0,0,1,77,96.45L75.4,92.56l-1.12.12a38.65,38.65,0,0,1-4.09.38A14.8,14.8,0,0,1,66,92.71s4.37-3.21,4.85-6.26-1.29-6.7-1.29-9.2A14.38,14.38,0,0,1,71,71.87s-1.23-.4-2.53-.94c-1.33,2.9-.48,7.28.47,10.08-1.69-4.31-2.12-6.4-1.78-10.69a6.7,6.7,0,0,1-.9-.52A18.28,18.28,0,0,1,63.67,67.61Z"/><path class="cls-4" d="M63.67,67.61s-.06.58-.12,1.5l2.25,1.82a15.46,15.46,0,0,0,1.32,6.27c1.52,4,1.85,4.25,1.85,4.25l0-.48c-1.68-4.28-2.11-6.37-1.77-10.65a6.7,6.7,0,0,1-.9-.52A18.28,18.28,0,0,1,63.67,67.61ZM75.78,93.49l-.38-.93-1.12.12a38.65,38.65,0,0,1-4.09.38A14.8,14.8,0,0,1,66,92.71s4.37-3.21,4.85-6.26-1.29-6.7-1.29-9.2A14.38,14.38,0,0,1,71,71.87s-1.23-.4-2.53-.94c-1.32,2.89-.49,7.23.46,10l-.71-7.63.71.07a24.53,24.53,0,0,0,0,5.06c.34,2,.38,2.84.8,4.8A10,10,0,0,1,70,86.39a9.05,9.05,0,0,1-.33,1.34c-.77,2.23-5.56,5.45-5.56,5.45a32.52,32.52,0,0,0,5.67.7A28.82,28.82,0,0,0,75.78,93.49Z"/><path class="cls-5" d="M63.67,67.61a38.74,38.74,0,0,0,.17,9,24.77,24.77,0,0,0,3.34,8.22,51.8,51.8,0,0,1-2.33-7.35,32.86,32.86,0,0,1-.3-9C64,68,63.67,67.61,63.67,67.61Zm.18,13.69a7.89,7.89,0,0,1-.64-1.73c-.21.57-1.18,8.14-2.36,15.66l1.24-.1Z"/><path class="cls-5" d="M81.13,70.29l-4.21-3.94L77,67.56l-5.68-3.87,6.34,5-.14-1.33s2.47,3.27,2.9,3.39a2.76,2.76,0,0,0,1.2-.1Z"/><path class="cls-5" d="M85.25,71.64l3.57-1.31-.14.48,3.24-1.53L88.1,71.67l.1-.57a13.18,13.18,0,0,1-2.25,1A1.08,1.08,0,0,1,85.25,71.64Z"/><polygon class="cls-1" points="73.6 102.21 55.85 102.21 50.02 102.21 44.54 135.01 65.36 135.01 66.64 127.47 55.33 127.47 56.3 121.65 67.09 121.65 68.29 114.54 57.47 114.54 58.27 109.75 71.68 109.75 66.34 142.05 78.51 124.29 72.67 123.95 80.66 109.78 81.2 109.78 81.2 109.75 91.8 109.75 93.05 102.21 73.6 102.21"/><path class="cls-2" d="M93.05,102.21l-1.25,7.54H81.2v0h-.54l-8,14.17,5.85.34L66.34,142.05l5.34-32.3H58.27l-.8,4.79H68.29l-1.2,7.11H56.29l-1,5.82H66.64L65.36,135H44.54L50,102.21h43m2-1.73H48.56l-.24,1.44-5.48,32.81-.33,2h23l-.84,5-1.26,7.66L67.76,143l12.17-17.75,1.73-2.52-3-.18-3.09-.18,6.15-10.89h1v0H93.26L93.5,110l1.25-7.55.33-2Zm-35.35,11h9.91l-.22,1.33H59.51l.22-1.33Zm-2,11.89h9.92l-.4,2.37H57.37l.39-2.37Z"/><polygon class="cls-7" points="88.75 120.02 94.75 112.13 88.35 112.13 82.33 112.13 76.53 122.4 82.36 122.67 71.27 138.83 78.66 132.94 94.85 120.02 88.75 120.02"/><path class="cls-2" d="M94.75,112.13l-6,7.89h6.1L78.66,132.94l-7.39,5.89,11.09-16.16-5.83-.27,5.8-10.27H94.75m3.48-1.73H81.32l-.49.88L75,121.56,73.65,124l2.8.13,2.73.12-9.33,13.61-4.93,8.24,7.43-5.92,7.38-5.89,16.2-12.92,3.85-3.08H92.23l3.9-5.12,2.1-2.77Z"/><polygon class="cls-5" points="88.75 120.02 94.75 112.13 88.35 112.13 83.06 121.25 87.68 121.25 78.66 132.94 94.85 120.02 88.75 120.02"/></g><path class="cls-5" d="M94.29,83.81c.69-.11,1.5-.22,2.11-.25a5.83,5.83,0,0,1,1.93.15l-2.07,4,1.49,0A18.67,18.67,0,0,1,92.19,93c-3.52,2.09-12.74,4.24-12.74,4.24a48.66,48.66,0,0,0,13.33-3.83c5.75-2.87,7.58-6.87,7.58-6.87l-1.57.24,2.3-4a22.42,22.42,0,0,0-4.64-.52,28.52,28.52,0,0,0-3.24.29Z"/><path class="cls-5" d="M89.27,53.68c.69-.11,1.5-.22,2.11-.25a5.66,5.66,0,0,1,1.93.16l-2.08,4,1.5,0a18.63,18.63,0,0,1-5.57,5.28C83.65,65,74.43,67.12,74.43,67.12a48.63,48.63,0,0,0,13.32-3.83c5.75-2.87,7.59-6.87,7.59-6.87l-1.57.24,2.29-4a22.32,22.32,0,0,0-4.64-.52,31.79,31.79,0,0,0-3.24.29Z"/><path class="cls-5" d="M46.6,82.32c1.61-2.88,5-8.48,7.8-10.21l-.3,1.36c3.59-2.24,8-2.55,11-4.63a10.77,10.77,0,0,0,1.42-1s-.39,1-2.63,2.41c-4.25,2.57-7.58,1.89-11,6.32l.44-2.42A31.35,31.35,0,0,0,49,81.33L54.18,83l0,.56c0,.56.12,2.23.12,2.23Z"/><path class="cls-5" d="M50.68,44.86c-2.84-3.79,3.79-2.82,5.85-8.17a15.55,15.55,0,0,1-.47,2.07,16.07,16.07,0,0,1-.75,1.68c3.29-1.39,9.58-6.45,3.38-7.79,6.58.7,2.32,5.22-1.27,7.44l-3.74,2.3.89-1.49C54,41.45,51,43,51.9,43.8l-1.15,1Z"/><rect class="cls-1" x="55.45" y="112.15" width="4.85" transform="translate(-62.23 150.91) rotate(-80.59)"/><polygon class="cls-1" points="75.59 124.12 72.67 123.95 72.67 123.95 75.59 124.12"/><polygon class="cls-1" points="68.29 114.54 68.29 114.54 67.09 121.65 68.29 114.54"/><rect class="cls-1" x="61.66" y="133.17" width="21.53"/><polygon class="cls-1" points="50.02 102.21 50.02 102.21 47.28 118.61 50.02 102.21"/><polygon class="cls-1" points="80.66 109.78 74.78 120.19 80.66 109.78 81.2 109.78 81.2 109.75 81.2 109.78 80.66 109.78"/><polygon class="cls-1" points="55.85 124.33 56.3 121.65 56.3 121.65 55.85 124.33"/><rect class="cls-1" x="55.33" y="127.47" width="11.3"/><polygon class="cls-3" points="55.46 121.51 55.58 120.8 56.3 120.8 66.37 120.8 66.78 118.38 48.18 118.38 45.54 134.16 64.65 134.16 65.63 128.31 55.33 128.31 54.33 128.31 54.5 127.33 55.46 121.51"/><polygon class="cls-3" points="71.26 124.71 71.93 123.53 74.83 118.38 71.11 118.38 67.79 138.43 76.97 125.05 72.61 124.79 71.26 124.71"/></svg>