<svg id="Layer_1" data-name="Layer 1" xmlns="http://www.w3.org/2000/svg" viewBox="0 0 200 202.23"><defs><style>.cls-1,.cls-6{fill:#fff;}.cls-2{fill:#24293f;}.cls-3{fill:#ccd8eb;}.cls-4{fill:#f7d915;}.cls-5{fill:#ec960f;}.cls-6{stroke:#24293f;stroke-miterlimit:10;stroke-width:4px;}</style></defs><circle class="cls-1" cx="100" cy="101.12" r="100"/><circle class="cls-2" cx="100" cy="101.12" r="96.16"/><circle class="cls-3" cx="100.68" cy="85.46" r="54.9"/><path class="cls-3" d="M100.68,147.3a54.68,54.68,0,0,1-31.54-10l31.91,37.17,33.19-38.67A54.65,54.65,0,0,1,100.68,147.3Z"/><path class="cls-4" d="M84.53,78.77l16-28.36H135a49.07,49.07,0,1,0-64.85,73.48l30.44-44.38Z"/><path class="cls-5" d="M135.07,50.46,118.26,72.2H134L90.39,107.86,70.24,123.94a49.07,49.07,0,0,0,64.83-73.48Z"/><polygon class="cls-3" points="133.96 72.2 118.26 72.2 135.07 50.46 135.11 50.41 135.02 50.41 117.14 50.41 100.53 50.41 84.53 78.77 100.61 79.51 70.17 123.89 70.01 124.12 70.24 123.94 90.39 107.86 133.96 72.2"/><polygon class="cls-3" points="26.23 89.22 23.85 84.22 18.64 73.25 17.88 76.81 14.22 72.37 13.43 76.1 12.68 79.61 17.7 84.2 18.57 80.84 26.23 89.22"/><polygon class="cls-3" points="25.37 104.82 22 100.42 14.62 90.78 14.62 94.41 10.12 90.83 10.12 94.65 10.12 98.23 15.98 101.69 16.14 98.22 25.37 104.82"/><polygon class="cls-3" points="27.77 120.25 23.56 116.65 14.34 108.75 15.09 112.31 9.94 109.75 10.73 113.48 11.48 116.98 17.94 119.14 17.37 115.72 27.77 120.25"/><polygon class="cls-3" points="33.33 134.85 28.46 132.2 17.8 126.4 19.28 129.72 13.71 128.28 15.26 131.77 16.71 135.04 23.48 135.81 22.21 132.58 33.33 134.85"/><polygon class="cls-3" points="41.8 147.98 36.49 146.4 24.85 142.93 26.99 145.87 21.24 145.63 23.48 148.72 25.59 151.62 32.36 150.96 30.45 148.06 41.8 147.98"/><polygon class="cls-3" points="52.81 159.06 47.29 158.61 35.19 157.65 37.89 160.08 32.22 161.03 35.05 163.59 37.71 165.99 44.2 163.93 41.73 161.5 52.81 159.06"/><polygon class="cls-3" points="65.89 167.6 60.4 168.31 48.35 169.88 51.5 171.7 46.15 173.82 49.46 175.72 52.56 177.52 58.48 174.16 55.56 172.29 65.89 167.6"/><polygon class="cls-3" points="80.46 173.24 75.23 175.08 63.78 179.12 67.24 180.24 62.45 183.43 66.07 184.6 69.48 185.71 74.58 181.2 71.33 179.98 80.46 173.24"/><polygon class="cls-3" points="95.88 175.73 91.15 178.61 80.79 184.95 84.4 185.32 80.38 189.43 84.17 189.83 87.74 190.21 91.78 184.73 88.35 184.22 95.88 175.73"/><polygon class="cls-3" points="111.48 174.95 107.46 178.76 98.64 187.11 102.25 186.73 99.17 191.58 102.96 191.19 106.53 190.81 109.35 184.61 105.88 184.82 111.48 174.95"/><polygon class="cls-3" points="126.58 170.95 123.44 175.51 116.55 185.51 120 184.39 118 189.78 121.62 188.6 125.03 187.49 126.5 180.84 123.16 181.77 126.58 170.95"/><polygon class="cls-3" points="140.52 163.9 138.39 169.01 133.73 180.23 136.88 178.41 136.04 184.1 139.34 182.19 142.45 180.4 142.5 173.59 139.42 175.19 140.52 163.9"/><polygon class="cls-3" points="152.69 154.1 151.67 159.55 149.44 171.49 152.14 169.05 152.5 174.79 155.34 172.24 158 169.84 156.64 163.17 153.96 165.38 152.69 154.1"/><polygon class="cls-3" points="162.55 141.99 162.69 147.53 162.99 159.67 165.13 156.73 166.67 162.27 168.92 159.18 171.02 156.28 168.3 150.04 166.14 152.76 162.55 141.99"/><polygon class="cls-3" points="169.68 128.09 170.97 133.48 173.79 145.29 175.27 141.97 177.93 147.07 179.48 143.59 180.94 140.31 176.98 134.77 175.43 137.88 169.68 128.09"/><polygon class="cls-3" points="173.77 113.02 176.15 118.02 181.36 128.98 182.12 125.43 185.78 129.86 186.57 126.13 187.32 122.63 182.3 118.03 181.43 121.39 173.77 113.02"/><polygon class="cls-3" points="174.63 97.42 178 101.82 185.38 111.46 185.38 107.83 189.88 111.4 189.88 107.58 189.88 104 184.01 100.55 183.86 104.02 174.63 97.42"/><polygon class="cls-3" points="172.23 81.98 176.44 85.58 185.66 93.48 184.91 89.93 190.06 92.49 189.26 88.76 188.52 85.25 182.06 83.09 182.63 86.52 172.23 81.98"/><polygon class="cls-3" points="166.68 67.38 171.54 70.03 182.2 75.84 180.72 72.52 186.29 73.95 184.74 70.47 183.29 67.19 176.52 66.43 177.79 69.66 166.68 67.38"/><polygon class="cls-3" points="158.2 54.26 163.51 55.84 175.15 59.3 173.01 56.36 178.76 56.6 176.52 53.52 174.41 50.62 167.64 51.27 169.55 54.17 158.2 54.26"/><polygon class="cls-3" points="147.19 43.18 152.71 43.62 164.81 44.59 162.11 42.16 167.78 41.2 164.95 38.65 162.29 36.25 155.79 38.3 158.27 40.73 147.19 43.18"/><polygon class="cls-3" points="134.11 34.63 139.6 33.92 151.65 32.35 148.5 30.53 153.85 28.42 150.54 26.51 147.44 24.72 141.52 28.07 144.44 29.94 134.11 34.63"/><polygon class="cls-3" points="119.54 29 124.77 27.15 136.22 23.11 132.76 21.99 137.55 18.81 133.93 17.63 130.52 16.52 125.42 21.04 128.67 22.25 119.54 29"/><polygon class="cls-3" points="104.12 26.51 108.85 23.62 119.21 17.29 115.6 16.91 119.62 12.8 115.83 12.4 112.26 12.03 108.22 17.5 111.65 18.02 104.12 26.51"/><polygon class="cls-3" points="88.52 27.28 92.54 23.48 101.36 15.13 97.75 15.51 100.83 10.65 97.04 11.05 93.47 11.42 90.65 17.62 94.12 17.41 88.52 27.28"/><polygon class="cls-3" points="73.42 31.28 76.56 26.72 83.45 16.72 80 17.85 82 12.46 78.38 13.63 74.97 14.74 73.5 21.39 76.84 20.46 73.42 31.28"/><polygon class="cls-3" points="59.48 38.33 61.61 33.22 66.27 22.01 63.12 23.82 63.96 18.13 60.66 20.04 57.55 21.83 57.5 28.64 60.58 27.04 59.48 38.33"/><polygon class="cls-3" points="47.31 48.13 48.33 42.69 50.56 30.75 47.86 33.18 47.5 27.44 44.66 29.99 42 32.39 43.36 39.06 46.04 36.85 47.31 48.13"/><polygon class="cls-3" points="37.45 60.24 37.31 54.71 37.01 42.57 34.87 45.51 33.33 39.97 31.08 43.05 28.98 45.95 31.7 52.19 33.86 49.48 37.45 60.24"/><polygon class="cls-3" points="30.32 74.14 29.03 68.75 26.21 56.94 24.73 60.26 22.07 55.16 20.52 58.65 19.06 61.92 23.02 67.46 24.57 64.36 30.32 74.14"/><path class="cls-6" d="M68,98a15.62,15.62,0,0,1,5.28,12.28,17.21,17.21,0,0,1-2.62,9.23,18.73,18.73,0,0,1-8.1,6.84,31.32,31.32,0,0,1-13.6,2.62,52.56,52.56,0,0,1-11.21-1.21,34.86,34.86,0,0,1-9.76-3.58L34,110.92a29.85,29.85,0,0,0,7,2.89,27.65,27.65,0,0,0,7.19,1,10.1,10.1,0,0,0,5.05-1.11,3.4,3.4,0,0,0,1.94-3.07,3.06,3.06,0,0,0-1.75-2.85c-1.17-.64-3.27-1-6.31-1H31.73l2.66-32.3H69.73V88.05H49.14l-.38,5.24h2.73Q62.66,93.29,68,98Z"/><path class="cls-6" d="M86.49,125.63A22.5,22.5,0,0,1,78,116.05a33.6,33.6,0,0,1-3.08-14.93A33.61,33.61,0,0,1,78,86.18a22.42,22.42,0,0,1,8.51-9.57,25.26,25.26,0,0,1,25,0A22.42,22.42,0,0,1,120,86.18a33.47,33.47,0,0,1,3.08,14.94A33.46,33.46,0,0,1,120,116.05a22.5,22.5,0,0,1-8.51,9.58,25.32,25.32,0,0,1-25,0Zm18.58-24.51q0-13.45-6.08-13.45t-6.08,13.45q0,13.44,6.08,13.45T105.07,101.12Z"/><path class="cls-6" d="M137.18,125.63a22.44,22.44,0,0,1-8.51-9.58,33.46,33.46,0,0,1-3.08-14.93,33.47,33.47,0,0,1,3.08-14.94,22.35,22.35,0,0,1,8.51-9.57,25.26,25.26,0,0,1,25,0,22.42,22.42,0,0,1,8.51,9.57,33.61,33.61,0,0,1,3.08,14.94,33.6,33.6,0,0,1-3.08,14.93,22.5,22.5,0,0,1-8.51,9.58,25.32,25.32,0,0,1-25,0Zm18.58-24.51q0-13.45-6.08-13.45t-6.08,13.45q0,13.44,6.08,13.45T155.76,101.12Z"/></svg>