<?xml version="1.0" encoding="utf-8"?>
<!-- Generator: Adobe Illustrator 25.0.1, SVG Export Plug-In . SVG Version: 6.00 Build 0)  -->
<svg version="1.1" id="Layer_1" xmlns="http://www.w3.org/2000/svg" xmlns:xlink="http://www.w3.org/1999/xlink" x="0px" y="0px"
	 viewBox="0 0 512 512" style="enable-background:new 0 0 512 512;" xml:space="preserve">
<style type="text/css">
	.st0{fill:#FFFFFF;}
</style>
<path class="st0" d="M471.4,325c-17-14.9-37.5-27.8-61.2-38.3c-10.1-4.5-21.9,0.1-26.4,10.2s0.1,21.9,10.2,26.4
	c19.9,8.9,37.1,19.5,51,31.8c17.2,15.1,27,36.9,27,59.9v37c0,11-9,20-20,20H60c-11,0-20-9-20-20v-37c0-23,9.8-44.9,27-59.9
	c20.2-17.8,79.1-59.1,189-59.1c81.6,0,148-66.4,148-148S337.6,0,256,0S108,66.4,108,148c0,47.7,22.7,90.2,57.9,117.3
	C101.5,279.4,61.5,306.6,40.6,325C14.8,347.7,0,380.5,0,415v37c0,33.1,26.9,60,60,60h392c33.1,0,60-26.9,60-60v-37
	C512,380.5,497.2,347.7,471.4,325z M148,148c0-59.6,48.4-108,108-108s108,48.4,108,108s-48.4,108-108,108S148,207.6,148,148z"/>
</svg>
