<?xml version="1.0" encoding="utf-8"?>
<!-- Generator: Adobe Illustrator 25.0.1, SVG Export Plug-In . SVG Version: 6.00 Build 0)  -->
<svg version="1.1" id="Layer_1" xmlns="http://www.w3.org/2000/svg" xmlns:xlink="http://www.w3.org/1999/xlink" x="0px" y="0px"
	 viewBox="0 0 512 512" style="enable-background:new 0 0 512 512;" xml:space="preserve">
<style type="text/css">
	.st0{fill:#FFFFFF;}
</style>
<path class="st0" d="M364,352c11,0,20,9,20,20s-9,20-20,20s-20-9-20-20S353,352,364,352z M512,181v26c0,27.3-16.5,50.9-40,61.3V342
	c0,11-9,20-20,20s-20-9-20-20v-69.3c-13.1-2.6-24.8-9-34-18c-12.1,11.9-28.7,19.3-47,19.3c-9.6,0-18.7-2-27-5.7V472h68
	c22.1,0,40-17.9,40-40c0-11,9-20,20-20s20,9,20,20c0,44.1-35.9,80-80,80H120c-44.1,0-80-35.9-80-80V268.3c-23.5-10.4-40-34-40-61.3
	v-26c0-3.1,0.7-6.1,2.1-8.9l43.5-87.7C59.1,57,86.6,40,117.2,40h26.2c8.3-23.3,30.5-40,56.6-40h112c26.1,0,48.3,16.7,56.6,40h26.2
	c30.6,0,58.1,17,71.7,44.5l43.5,87.7C511.3,174.9,512,177.9,512,181z M180,60c0,11,9,20,20,20h112c11,0,20-9,20-20s-9-20-20-20H200
	C189,40,180,49,180,60z M52.2,161h407.5l-29.1-58.8C423.8,88.5,410.1,80,394.8,80h-26.2c-8.3,23.3-30.5,40-56.6,40H200
	c-26.1,0-48.3-16.7-56.6-40h-26.2c-15.3,0-29,8.5-35.8,22.2L52.2,161z M284,267.9c-8.5,3.9-18,6.1-28,6.1
	c-18.6,0-35.4-7.5-47.7-19.6C196.2,266.5,179.4,274,161,274c-18.3,0-34.9-7.4-47-19.3c-9.2,9-20.9,15.4-34,18V392h204V267.9z
	 M40,207c0,14.9,12.1,27,27,27s27-12.1,27-27v-6H40V207z M188,201h-54v6c0,14.9,12.1,27,27,27s27-12.1,27-27V201z M284,206v-5h-56v5
	c0,15.4,12.6,28,28,28S284,221.4,284,206z M284,472v-40H80c0,22.1,17.9,40,40,40H284z M378,207v-6h-54v6c0,14.9,12.1,27,27,27
	S378,221.9,378,207z M472,207v-6h-54v6c0,14.9,12.1,27,27,27S472,221.9,472,207z"/>
</svg>
