<?xml version="1.0" encoding="utf-8"?>
<!-- Generator: Adobe Illustrator 25.0.1, SVG Export Plug-In . SVG Version: 6.00 Build 0)  -->
<svg version="1.1" id="Layer_1" xmlns="http://www.w3.org/2000/svg" xmlns:xlink="http://www.w3.org/1999/xlink" x="0px" y="0px"
	 viewBox="0 0 512 512" style="enable-background:new 0 0 512 512;" xml:space="preserve">
<style type="text/css">
	.st0{fill:#1a2740;}
</style>
<path class="st0" d="M432,368c0,11-9,20-20,20c-26.5-1.1-26.5-39,0-40C423,348,432,357,432,368z M512,368.5
	c0,42.3-24.9,69.3-48.9,95.4c-11.2,12.1-22.7,24.7-31.7,38.8c-3.7,5.8-10,9.3-16.9,9.3h-5.2c-6.8,0-13.2-3.5-16.9-9.3
	c-9-14.1-20.5-26.6-31.7-38.8c-24-26.1-48.8-53.1-48.9-95.4C317.7,235.1,506.4,235.2,512,368.5L512,368.5z M472,368.5
	c-3.4-80.4-116.6-80.3-120,0c0,26.6,16.9,45,38.3,68.3c7.2,7.9,14.6,15.9,21.7,24.7c7.1-8.7,14.4-16.8,21.7-24.7
	C455.1,413.6,472,395.2,472,368.5z M512,80v157c-1.1,26.5-39,26.5-40,0V124.9L344.2,253.1c-3.7,3.8-8.8,5.9-14.1,5.9l0,0
	c-5.3,0-10.4-2.1-14.1-5.9l-78.6-78.6L154,257.9l120.3,119.9c7.8,7.8,7.8,20.5,0,28.3s-20.5,7.8-28.3,0L125.5,286.2L40,371.7V432
	c0,22.1,17.9,40,40,40h230c26.5,1.1,26.5,39,0,40H80c-44.1,0-80-35.9-80-80V80C0,35.9,35.9,0,80,0h352C476.1,0,512,35.9,512,80z
	 M208.9,146.2L102.7,40H80c-22.1,0-40,17.9-40,40v235.2L208.9,146.2z M470.6,69.6C466,52.6,450.5,40,432,40H159.3L330,210.7
	L470.6,69.6z M470.9,70.7c0-0.1,0-0.1-0.1-0.2C470.7,70.7,470.7,70.8,470.9,70.7z"/>
</svg>
