<?xml version="1.0" encoding="utf-8"?>
<!-- Generator: Adobe Illustrator 25.0.1, SVG Export Plug-In . SVG Version: 6.00 Build 0)  -->
<svg version="1.1" id="Layer_1" xmlns="http://www.w3.org/2000/svg" xmlns:xlink="http://www.w3.org/1999/xlink" x="0px" y="0px"
	 viewBox="0 0 511 511" style="enable-background:new 0 0 511 511;" xml:space="preserve">
<style type="text/css">
	.st0{fill:#1A2740;}
</style>
<path class="st0" d="M493.4,257.3c-0.4-0.4-0.8-0.7-1.2-1.1L357.9,141.9c-19-16.2-43.2-25.1-68.1-25.1c-0.1,0-0.2,0-0.4,0
	c-27.9,0.1-54.2,11-73.9,30.8l-18.1,18.1c-7.6,7.6-20.2,7.8-27.9,0.3c-3.7-3.6-5.8-8.5-5.9-13.9c-0.1-5.7,2.2-11.2,6.1-15.1
	c0.2-0.2,0.3-0.3,0.5-0.5l39.3-41.9c30.4-32.4,72.6-51.7,116.9-53.5l151,123.1c8.5,7,21.1,5.7,28.1-2.9c7-8.5,5.7-21.1-2.9-28.1
	L346,5.5c-3.6-2.9-8-4.5-12.6-4.5c-37.6,0-74.3,10.2-106.2,29C194.9,11,158.3,1,120.8,1c-5.3,0-10.4,2.1-14.1,5.8L4.9,108.6
	c-7.8,7.8-7.8,20.4,0,28.2c3.9,3.9,9,5.9,14.1,5.9c5.1,0,10.2-1.9,14.1-5.8l95.8-95.8c21.7,1,42.9,6.2,62.6,15.2
	c-3.8,3.5-7.5,7.1-11.1,10.9L141.3,109c-11.3,11.5-17.7,27.3-17.6,43.5c0.2,16.2,6.6,31.2,18.1,42.3c11.4,10.9,26.3,16.9,42.1,16.7
	c15.8-0.1,30.6-6.4,41.8-17.5l18.1-18.1c12.2-12.2,28.5-19,45.8-19.1h0.2c15.5,0,30.4,5.5,42.2,15.5L465.6,286
	c6.2,6.6,6,17.1-0.5,23.5c-3.2,3.2-7.4,4.9-12,4.9c-4.6,0-8.8-1.7-12-4.9l-4.1-4.1c-7.8-7.8-20.4-7.8-28.2,0
	c-7.8,7.8-7.8,20.4,0,28.2l4.1,4.1c1.2,1.2,2.5,2.3,3.8,3.4c0.6,0.8,1.2,1.5,1.9,2.2c6.6,6.6,6.6,17.4,0,24c-6.6,6.6-17.4,6.6-24,0
	c-0.1-0.1-0.1-0.1-0.2-0.2l-6.6-6.6c-7.8-7.8-20.4-7.8-28.2,0c-7.8,7.8-7.8,20.4,0,28.2l4.6,4.6l0,0c3.5,3.5,5.5,8.4,5.7,13.5
	c0.1,2.8-0.3,8.1-4.3,12c-6.2,6.2-17.1,5.6-24.1-1.4c-0.4-0.4-0.8-0.7-1.2-1.1l-3-2.6c-8.2-7-20.3-6.2-27.6,1.6
	c-7.3,7.9-7,20.1,0.5,27.7c3.3,3.3,5.2,7.7,5.2,12.3c0.1,4.4-1.6,8.6-4.7,11.7c-6.6,6.6-17.5,6.5-24.4-0.4l-2.8-2.8
	c8.2-20.8,3.9-45.4-12.9-62.1v0c-7.5-7.5-16.7-12.8-26.6-15.4c2.5-17.1-2.9-35.2-16.1-48.4c-9.9-9.9-22.5-15.3-35.4-16.4
	c-1-12.8-6.5-25.4-16.5-35.5c-9.9-9.9-22.6-15.4-35.6-16.4c-1-13-6.5-25.7-16.4-35.6C101.9,212,66,212,43.8,234L15.9,261
	c-0.1,0.1-0.2,0.2-0.2,0.2C4.9,271.9-1,286.2-1,301.4c0,15.2,5.9,29.5,16.6,40.2c8.5,8.5,19,13.7,30,15.7
	c-0.5,15.2,5,30.6,16.6,42.2c10.3,10.3,24.1,16,38.9,16c0.3,0,0.6,0,0.8,0c1.6,11.9,6.9,23.3,16,32.4c11,11,25.5,16.5,40.1,16.5
	c1.2,0,2.4-0.1,3.7-0.1c2.1,11.6,7.7,22.3,16.1,30.8c11.3,11.3,26.1,16.9,40.9,16.9c14.5,0,28.9-5.4,40.1-16.2
	c11.1,10.8,25.5,16.2,39.9,16.2c14.5,0,29.1-5.5,40.1-16.5c8.8-8.8,14.3-20.1,15.9-32.3c14.2,0,28.2-5.3,38.9-15.9
	c9.3-9.3,14.8-21.6,15.8-35.1c14.1-0.7,27.2-6.5,37.2-16.5c11.6-11.6,17.1-27,16.6-42.2c11.3-2,21.7-7.4,30-15.7
	C515.5,315.6,515.5,279.5,493.4,257.3z M68.1,313.2c-0.1,0.1-0.2,0.2-0.2,0.2c-3.2,3.2-7.4,4.9-12,4.9s-8.8-1.7-12-4.9
	c-3.2-3.2-4.9-7.4-4.9-12c0-4.5,1.7-8.7,4.8-11.9l27.9-26.9c0.1-0.1,0.2-0.2,0.2-0.2c3.2-3.2,7.4-4.9,12-4.9c4.6,0,8.8,1.8,12,4.9
	c3.2,3.2,4.9,7.4,4.9,12c0,3.8-1.2,7.4-3.5,10.3c-0.5,0.5-1,1-1.6,1.5l-20.5,20.1L68.1,313.2z M113.9,370.5
	c-7,6.4-17.5,6.8-23.5,0.8c-6.6-6.6-6.6-17.3-0.1-23.9l12.8-12.5l20.7-20c0.1-0.1,0.2-0.2,0.2-0.2c0.5-0.5,1-1.1,1.6-1.6
	c6.6-5.1,16.2-4.6,22.3,1.5c6.6,6.6,6.6,16.1,0.1,22.7L113.9,370.5z M170.6,419.3C170.6,419.3,170.5,419.3,170.6,419.3
	c-6.9,6.9-17.8,7-24.4,0.4c-6.6-6.6-6.5-17.5,0.3-24.3l29.2-28.9c0,0,0.1-0.1,0.1-0.1c3.2-3.2,7.4-4.9,12-4.9c4.6,0,8.8,1.7,12,4.9
	c6.6,6.6,6.6,17.3,0,24L170.6,419.3z M242.4,455.6c-0.1,0.1-0.2,0.2-0.3,0.3l-10.7,11.1c-7,6.9-18.3,6.9-25.3-0.1
	c-3.4-3.4-5.4-8.1-5.4-13c-0.1-4.8,1.7-9.3,5-12.6l12-12c3.2-3.2,7.3-4.8,11.6-4.8c4.6,0,9.4,1.9,13.1,5.6
	C249.4,437.1,249.4,448.5,242.4,455.6z"/>
</svg>
