<?xml version="1.0" encoding="utf-8"?>
<!-- Generator: Adobe Illustrator 25.4.1, SVG Export Plug-In . SVG Version: 6.00 Build 0)  -->
<svg version="1.1" id="Layer_1" xmlns="http://www.w3.org/2000/svg" xmlns:xlink="http://www.w3.org/1999/xlink" x="0px" y="0px"
	 viewBox="0 0 512 512" style="enable-background:new 0 0 512 512;" xml:space="preserve">
<style type="text/css">
	.st0{fill:#FFFFFF;}
</style>
<g>
	<path class="st0" d="M475.7,397.7c0-12.7,0-25.4,0-38.1c0-24-16.1-40.1-40.1-40.1c-23,0-46,0-69,0l-25,0c0-2.6,0-5.2,0-7.8
		c0-10.1,0-20.6-0.1-30.9c-0.2-21.6-16.4-37.9-37.7-38c-31.7-0.1-63.9-0.1-95.9,0c-20.7,0.1-37.3,16.5-37.7,37.5c0,0.3,0,0.6,0,0.9
		l-27.2,0c-22.1,0-44.3,0-66.4,0c-24.6,0-40.6,15.9-40.6,40.6c0,14.2,0,28.3,0,42.5c0,40.6,0,82.7-0.1,124c0,9.8,3.8,16.8,11.5,21
		c1.3,0.7,2.8,1.1,4.3,1.1h408.1c1.5,0,3-0.4,4.3-1.1c7.7-4.2,11.5-11.3,11.5-21C475.7,458,475.7,427.3,475.7,397.7z M341.9,472.9
		V356.7c31.1,0,62.2,0,93.3,0c1.6,0,2.5,0.1,3.1,0.2c0.1,0.5,0.3,1.5,0.3,3.2c0,28.7,0,57.5,0,86.2l0,26.5H341.9z M170.4,370.2
		c0,11.4,7.7,19.8,18.2,20c5,0.1,9.6-1.7,13.1-5.1c3.7-3.6,5.8-8.8,5.8-14.6c0-11,0-22.2,0-33.1c0-4.3,0-8.7,0-13l0-12.9
		c0-9.6,0-19.2,0-28.8c0-1.4,0.1-2.2,0.2-2.6c0.4-0.1,1.1-0.2,2.3-0.2c29.5,0,60.5,0,91.9,0c1.3,0,2,0.1,2.4,0.2
		c0.1,0.3,0.1,0.8,0.1,1.6c0,56.9,0,113.9,0,170.8l0,20.3h-96.9c0-3.7,0-7.4,0-11c0-0.4,0-0.7,0-1.1c0-1.6,0-3.5-0.3-5.6
		c-1.5-9.3-9.7-16-19.1-15.7c-9.8,0.4-17.5,8.2-17.7,18.1c-0.1,5-0.1,10-0.1,15.1h-97l0-150.4c0-2,0.2-3.1,0.3-3.7
		c0.6-0.1,1.7-0.3,3.5-0.3c23,0,46.1,0,69.1,0l24.1,0l0,12.2C170.4,343.7,170.3,357,170.4,370.2z"/>
	<path class="st0" d="M100.7,34.7c11.7,7.1,24.4,14.5,40,23.1c2.6,1.4,5.3,2.1,8.1,2.1c6.3,0,12.6-3.5,16-9.5
		c4.6-8.2,2.5-18.3-5.1-24c-1.8-1.3-3.6-2.4-5.2-3.3c-0.4-0.2-0.9-0.5-1.3-0.8c-8.2-4.9-16.4-9.7-24.7-14.6L118.8,2
		c-1.4-0.8-3-1.3-4.6-1.3h-6.7c-2.1,0-4.1,0.7-5.7,2L101,3.5c-0.6,0.5-1.2,1-1.8,1.5c-4.8,4-7.4,10-6.9,16.1
		C92.7,26.7,95.8,31.7,100.7,34.7z"/>
	<path class="st0" d="M363.2,59.8c3.2,0,6.5-0.8,9.5-2.5c15.1-8.5,26.6-15.2,37.4-21.6c5.8-3.5,9.3-9,9.6-15.2
		c0.3-6.3-2.8-12.2-8.3-16.4l-0.1-0.1c-0.2-0.2-0.4-0.4-0.6-0.6c-1.7-1.6-3.9-2.5-6.2-2.5h-6.7c-1.9,0-3.7,0.6-5.2,1.7
		c-0.5,0.3-0.9,0.7-1.4,1c-0.7,0.5-1.3,1-1.7,1.2c-4.3,2.5-8.6,5-12.9,7.5c-7.3,4.2-14.9,8.6-22.3,12.9c-9.2,5.4-12.2,16.3-7.1,25.3
		C350.6,56.4,356.7,59.8,363.2,59.8z"/>
	<path class="st0" d="M151.1,96.5c-4,12.7-0.9,24.7,9,34.9c3,3,5.9,6.1,8.8,9.2c4.2,4.4,8.6,9,13,13.5c-0.8,5.6-1.5,11.2-2.2,16.6
		c-0.7,5.4-1.4,11-2.2,16.4c-1.4,9.7,1.2,19.2,7.4,26.8c6.2,7.6,15.5,12.4,25.4,13c0.2,0,0.4,0,0.6,0c0.9,0,1.9-0.1,2.7-0.4
		c1.2-0.4,2.5-0.7,3.7-1.1c3.2-0.9,6.5-1.9,9.9-3.4c9.2-4.2,18.8-8.9,28.4-13.8c0,0,0,0,0,0c0.1,0,0.2,0.1,0.3,0.1
		c10.3,5.1,20.5,10.1,30.9,14.8c12,5.4,24.2,4,34.5-4c10.2-7.9,14.7-19,12.8-32.1l-0.7-5c-1.3-9-2.6-18.2-3.6-27.3
		c7.1-7.9,14.5-15.5,22-23.3c10-10.4,13-22.7,8.7-35.5c-3-8.8-10.3-20-28.3-23c-4.4-0.7-8.8-1.5-13.2-2.3c-5.7-1-11.5-2.1-17.3-3
		c-4.6-8.7-9.7-18.1-15.9-29.3c-6.6-12-17.6-18.5-30.6-18.2c-13,0.3-23.3,6.8-29.6,18.7c-1,1.9-2,3.7-2.9,5.6
		c-3.9,7.5-8,15.2-12.2,22.6c0,0-0.1,0.1-0.2,0.1c-8,1.7-16.3,3.2-24.3,4.6c-2.3,0.4-4.7,0.8-7,1.3
		C164.8,75.6,155.2,83.8,151.1,96.5z M299.8,132.1c-6.6,6.4-9,14.2-7.4,23.9c1.4,8.8,2.6,17.8,3.8,26.5c0.2,1.3,0.4,2.7,0.5,4
		c-1.8-0.8-3.6-1.7-5.3-2.5c-7.8-3.7-16-7.5-23.8-11.5c-4.1-2.1-8.1-3.1-12-3.1c-4,0-8,1.1-12,3.2c-8.1,4.3-16.9,8.6-28.2,13.8
		c1.3-11.2,2.9-22.6,4.4-33.7l0.1-0.4c1-7.5-1.2-14.1-6.7-19.7c-8.3-8.3-15.8-16.1-22.9-23.8c10.2-2.1,21.2-4.2,33.3-6.3
		c7.7-1.3,13.5-5.6,17.1-12.6c5.5-10.8,10.6-20.4,15.4-29c5.3,9.3,10.5,19,16,29.5c3.8,7.3,9.5,11.4,17.6,12.7
		c11.2,1.8,22,3.7,32.3,5.7C314.5,117,307.3,124.8,299.8,132.1z"/>
	<path class="st0" d="M167.1,199.6c-1.6-2.3-3.6-5.2-6.7-7.4c-6.9-4.8-15.7-3.9-22,2.2c-12.4,12.1-22.4,22.2-31.6,31.6
		c-7.2,7.5-7.1,18.7,0.4,26c3.7,3.6,8.3,5.4,12.9,5.4c4.6,0,9.3-1.8,13-5.4c9.9-9.7,20.2-20,31.2-31.3c2.2-2.3,3.3-4.8,4.2-7
		c0.4-0.8,0.7-1.6,1.1-2.5c1.6-3.1,1.2-6.9-1-9.6C168.1,201.1,167.6,200.4,167.1,199.6z"/>
	<path class="st0" d="M374.3,195.1c-2.3-2.3-5-3.4-7.3-4.5c-0.9-0.4-1.9-0.8-2.8-1.3c-3.3-1.8-7.4-1.2-10.2,1.3
		c-0.6,0.6-1.4,1.1-2.2,1.8c-2.4,1.8-5.3,4.1-7.3,7.7c-4,7-2.5,15.3,3.9,21.7c3.4,3.4,6.8,6.9,10.2,10.3c6.4,6.4,13,13.1,19.6,19.5
		c4.1,4,9,6.1,13.9,6.1c4.6,0,9.1-1.8,12.8-5.4c7.6-7.5,7.5-18.8-0.3-26.8C393.4,214,383.5,204.1,374.3,195.1z"/>
	<path class="st0" d="M79.4,151.7C79.5,151.7,79.5,151.7,79.4,151.7c0.5,0,0.9,0,1.4-0.1l4.6-0.7c3.6-0.5,7.4-1.1,11.2-1.6
		c2.8-0.4,5.6-0.8,8.4-1.2c6.1-0.9,12.4-1.8,18.7-2.7c5.5-0.9,10.2-3.7,13.2-7.9c2.8-3.9,3.9-8.7,3.1-13.5
		c-1.7-10.2-10.8-16.7-21.6-15.5c-1.3,0.2-2.5,0.4-3.7,0.6c-0.6,0.1-1.2,0.2-1.8,0.3c-3.7,0.6-7.4,1.1-11.1,1.6
		c-8.8,1.3-17.9,2.6-26.9,4.1c-9.9,1.7-16.1,10.3-14.8,20.6C61.3,145.1,69.3,151.7,79.4,151.7z"/>
	<path class="st0" d="M372,124.2c-1.5,9.9,5.2,19.3,15.1,20.9c17,2.7,31.3,4.7,44.7,6.4c0.8,0.1,1.6,0.1,2.3,0.1
		c4.3,0,8.3-1.5,11.5-4.4c4.1-3.7,6.4-9.3,6.3-15.4c0-0.1,0-0.3,0-0.4c-0.5-8.4-6.4-14.9-14.7-16.3c-15.3-2.5-30.5-4.8-45.2-6.7
		C382.4,107.2,373.5,114.1,372,124.2z"/>
	<path class="st0" d="M142.9,382.4c10-12.8,10.3-30,1.5-42c-12.6-17.3-38.5-15.5-48.2,3.3c-2.5,5-1.3,10.3,3,13.1
		c4.4,2.8,9.7,1.7,13.1-2.8c0.5-0.6,0.9-1.4,1.3-2c4.2-5.9,11.9-6.1,15.4,0.2c1.8,3.2,2.8,8,1.7,11.3c-1.6,4.8-4.8,9.4-8.3,13
		c-5.6,5.6-12.3,10.2-18.2,15.5c-6,5.3-10.1,11.9-10.9,20.2c-0.7,7.7,3.2,12.2,11,12.2c11.6,0.1,23.3,0,34.9,0
		c7,0,11.3-3.7,11.4-9.5c0.1-5.8-4.3-9.6-11.2-9.7c-6.7,0-13.3,0-21.5,0c4.2-3.3,7.3-5.5,10.1-8.1
		C133.1,392.4,138.6,387.9,142.9,382.4z"/>
	<path class="st0" d="M244.9,366.8c-6.3,1.4-9.5,5-9.1,10.3c0.4,5.4,4.5,8.8,11,8.8c4.1,0,8.3,0,12.4,0c1.6,0,3.2,0,4.8,0
		c7.3,0,11.5-3.2,12-8.9c0.4-5.5-3.1-9.2-10.5-10.6c0-2,0-3.8,0-5.5c0-20.1,0.1-40.3,0-60.4c0-7.8-6.4-12.7-13-9.7
		c-4.5,2-9.1,4.3-12.7,7.5c-2.2,2-3.6,6-3.6,9.1c-0.1,3.9,3,6.5,6.9,7.5c1,0.3,2.1,0.5,3.2,0.7c0,17,0,33.8,0,50.6
		C245.8,366.6,245.4,366.7,244.9,366.8z"/>
	<path class="st0" d="M188.7,433.4c0.1,0,0.2,0,0.3,0c9.8,0,18.1-7.9,18.5-17.8c0.2-4.9-1.7-9.8-5.1-13.5c-3.4-3.6-8.2-5.8-13.2-5.8
		c-0.1,0-0.2,0-0.3,0c-9.9,0-18.1,7.9-18.5,17.8c-0.2,4.9,1.7,9.8,5.1,13.5C178.9,431.2,183.7,433.3,188.7,433.4z"/>
	<path class="st0" d="M412.8,403.7c4-13-1.7-26.6-13.5-33.2c-11.4-6.4-26-4.1-34.7,5.4c-4.1,4.5-4.3,9.8-0.6,13.8
		c3.9,4.2,9.2,4,14.4-0.4c4.6-4,9.4-4.2,13.3-0.7c3.9,3.5,4.2,8.7,0.8,13.4c-4.9,6.8-4.5,10.5,1.7,16c4.6,4,6.5,9,4.8,15
		c-2.8,9.8-12.7,13.2-22.2,7.7c-5.6-3.2-10.8-2.4-13.9,2.4c-3.1,4.7-1.8,10,3.4,13.7c5.6,4,11.9,5.9,17,6c14,0,25.2-6.4,31-17
		c6.2-11.3,6.1-22.7-0.4-33.8C412.4,409.2,411.8,407.1,412.8,403.7z"/>
</g>
</svg>
