<?xml version="1.0" encoding="utf-8"?>
<!-- Generator: Adobe Illustrator 27.2.0, SVG Export Plug-In . SVG Version: 6.00 Build 0)  -->
<svg version="1.1" id="Layer_1" xmlns="http://www.w3.org/2000/svg" xmlns:xlink="http://www.w3.org/1999/xlink" x="0px" y="0px"
	 viewBox="0 0 64 64" style="enable-background:new 0 0 64 64;" xml:space="preserve">
<style type="text/css">
	.st0{fill:#FFFFFF;}
	.st1{fill:#1A2740;}
	.st2{fill:#F8DA17;}
</style>
<circle class="st0" cx="32" cy="24.4" r="24.4"/>
<path class="st1" d="M32,51.9c-5,0-9.9-1.5-14-4.4L32.2,64l14.8-17.2C42.7,50.1,37.4,51.9,32,51.9z"/>
<circle class="st2" cx="32" cy="24.4" r="21.8"/>
<g>
	<path class="st0" d="M47.3,24.4c-0.8-0.3-1.5-0.6-2.3-0.9c0.2-0.6,0.4-1.2,0.6-1.8c0.9-3.6-0.1-6.7-2.7-9.4
		c-1.6-1.6-3.4-2.5-5.6-2.8c-1.9-0.2-3.7,0.1-5.3,0.9c-3.5,1.6-6.1,4.2-7.7,7.7c-0.5,1.1-0.5,1.1,0.4,1.9c3.7,3.7,7.5,7.5,11.2,11.2
		c0.1,0.1,0.2,0.3,0.2,0.5c0.2,0.7,0.3,1.4,0.5,2.1c-0.5,0-1,0.1-1.5,0.2c-1.3,0.1-2.6-0.2-3.9-0.6c-0.5-0.1-0.9-0.2-1.4-0.3
		c-1.1-0.3-2.1,0-2.9,0.8c-1.1,1.1-2.3,2.2-3.4,3.3c-0.3,0.3-0.6,0.6-1,1c-1,1-2.5,1-3.6,0c-0.5-0.5-1-1-1.6-1.6c-1-1.1-1-2.6,0-3.6
		c1.3-1.3,2.5-2.5,3.8-3.8c0.7-0.7,1.2-1.6,1.1-2.6c0-0.5-0.1-1-0.2-1.5c-0.2-1-0.5-1.9-0.7-2.9c-0.4-1.8-0.1-3.6,0.7-5.3
		c2.1-4.4,5.4-7.6,10-9.2c4.9-1.7,9.2-0.5,12.9,3.1c2,2,3.1,4.4,3.5,7.2C48.6,20.2,48.2,22.4,47.3,24.4z M20.7,36.4
		c0.1-0.1,0.2-0.2,0.3-0.4c1.3-1.2,2.5-2.5,3.8-3.7c0.9-0.8,1.8-1.5,3.1-1.7c1-0.2,2.1,0,3.1,0.2c0.4,0.1,0.8,0.2,1.2,0.3
		c-2.7-2.7-5.4-5.4-8.1-8c0.1,0.6,0.3,1.3,0.4,2c0.5,2.1,0.1,4.1-1.5,5.7c-1.2,1.3-2.5,2.6-3.7,3.8c-0.1,0.1-0.2,0.1-0.3,0.2
		C19.6,35.3,20.1,35.9,20.7,36.4z"/>
	<path class="st0" d="M38.5,30.9c0-2.8,2.2-5,5-5c2.7,0,5,2.3,5,5c0,2.7-2.2,5-5,5C40.7,35.9,38.5,33.6,38.5,30.9z M43.4,28.4
		c-1.4,0-2.5,1.1-2.5,2.5c0,1.4,1.1,2.5,2.5,2.5c1.4,0,2.5-1.1,2.5-2.5C45.9,29.5,44.8,28.4,43.4,28.4z"/>
</g>
</svg>
