<svg id="Layer_1" data-name="Layer 1" xmlns="http://www.w3.org/2000/svg" viewBox="0 0 64 64"><defs><style>.cls-1{fill:#fff;}.cls-2{fill:#1a2740;}.cls-3{fill:#f8da17;}.cls-4{fill:#ec970f;}</style></defs><circle class="cls-1" cx="32" cy="24.41" r="24.41"/><path class="cls-2" d="M32,51.9a24.29,24.29,0,0,1-14-4.43L32.17,64,46.92,46.81A24.29,24.29,0,0,1,32,51.9Z"/><path class="cls-3" d="M24.82,21.44,31.93,8.83H47.26A21.81,21.81,0,1,0,18.44,41.49L32,21.76Z"/><path class="cls-4" d="M47.29,8.85l-7.47,9.66h7L27.43,34.37l-9,7.14A21.81,21.81,0,0,0,47.29,8.85Z"/><polygon class="cls-1" points="46.79 18.51 39.82 18.51 47.29 8.85 47.31 8.83 47.27 8.83 39.32 8.83 31.93 8.83 24.82 21.43 31.97 21.76 18.44 41.49 18.36 41.6 18.47 41.52 27.43 34.37 46.79 18.51"/></svg>