<?xml version="1.0" encoding="utf-8"?>
<!-- Generator: Adobe Illustrator 27.2.0, SVG Export Plug-In . SVG Version: 6.00 Build 0)  -->
<svg version="1.1" id="Layer_1" xmlns="http://www.w3.org/2000/svg" xmlns:xlink="http://www.w3.org/1999/xlink" x="0px" y="0px"
	 viewBox="0 0 64 64" style="enable-background:new 0 0 64 64;" xml:space="preserve">
<style type="text/css">
	.st0{fill:#FFFFFF;}
	.st1{fill:#1A2740;}
	.st2{fill:#F44A1C;}
</style>
<circle class="st0" cx="32" cy="24.4" r="24.4"/>
<path class="st1" d="M32,51.9c-5,0-9.9-1.5-14-4.4L32.2,64L47,46.8C42.7,50.1,37.4,51.9,32,51.9z"/>
<circle class="st2" cx="32" cy="24.4" r="21.8"/>
<g>
	<path class="st0" d="M43.3,39c-0.3-0.1-0.6-0.2-0.9-0.3c-1.9-0.7-3.1-2.7-2.8-4.7c0.3-2,2.1-3.5,4.2-3.6c2,0,3.8,1.4,4.2,3.4
		c0.5,2.4-1.1,4.7-3.5,5.1c-0.1,0-0.1,0-0.2,0.1C43.9,39,43.6,39,43.3,39z"/>
	<path class="st0" d="M46.1,18.2c-0.1,3.9-1.4,6.9-3.9,9.4c-1.6,1.6-3.5,2.6-5.7,3c-0.3,0-0.6,0.1-0.8,0.1c-0.1,0-0.3-0.1-0.4-0.2
		c-3.2-3.2-6.5-6.5-9.7-9.7c-1.4-1.4-2.9-2.9-4.3-4.3c-0.2-0.2-0.2-0.3-0.2-0.5c0.2-2.3,1.1-4.4,2.8-6.1c1.3-1.4,2.9-2.5,4.7-3.3
		c1.8-0.7,3.6-1,5.5-0.9c1.8,0.1,3.5,0.6,5.1,1.4c1.7,0.9,3.1,2,4.2,3.5c1.3,1.6,2.1,3.4,2.5,5.5C46,16.8,46.1,17.7,46.1,18.2z"/>
	<path class="st0" d="M33.3,30.6c-1-0.2-2-0.4-2.9-0.5c-0.8-0.1-1.6-0.3-2.5-0.4c-1-0.1-1.9,0-2.7,0.7c-1.3-1.3-2.7-2.7-4-4
		c0.8-0.9,0.9-2,0.7-3.1c-0.1-0.9-0.3-1.8-0.5-2.6c-0.1-0.8-0.3-1.6-0.4-2.3C25.1,22.5,29.2,26.5,33.3,30.6z"/>
	<path class="st0" d="M20.2,27.5c1.3,1.3,2.7,2.7,4,4c-0.5,0.5-0.9,0.9-1.4,1.4c-1.2,1.2-2.3,2.3-3.5,3.5c-0.8,0.7-1.5,0.7-2.3,0
		c-0.6-0.6-1.2-1.2-1.8-1.8c-0.6-0.7-0.7-1.5,0-2.1C16.8,30.8,18.5,29.2,20.2,27.5C20.1,27.5,20.2,27.5,20.2,27.5z"/>
</g>
</svg>
