<?xml version="1.0" encoding="utf-8"?>
<!-- Generator: Adobe Illustrator 26.0.2, SVG Export Plug-In . SVG Version: 6.00 Build 0)  -->
<svg version="1.1" id="Layer_1" xmlns="http://www.w3.org/2000/svg" xmlns:xlink="http://www.w3.org/1999/xlink" x="0px" y="0px"
	 viewBox="0 0 459.1 421.7" style="enable-background:new 0 0 459.1 421.7;" xml:space="preserve">
<style type="text/css">
	.st0{enable-background:new    ;}
	.st1{fill:#1B2840;}
	.st2{fill:#7E700A;}
	.st3{fill:#80710A;}
	.st4{fill:#7F710A;}
	.st5{fill:#784E11;}
	.st6{fill:#7A4F12;}
	.st7{fill:#EA9922;}
	.st8{fill:#794F11;}
	.st9{fill:#F8DC14;}
	.st10{fill:#C1D2E6;}
</style>
<g>
	<g>
		<g class="st0">
			<polygon class="st1" points="125.2,68.7 118,112.3 118,170.9 125.2,127.3 247.6,127.3 247.6,68.7 			"/>
			<polygon class="st1" points="205.7,177.1 107.2,177.1 107.2,235.7 205.7,235.7 216.7,170.9 216.7,112.3 			"/>
			<polygon class="st1" points="431.2,68.7 334.5,68.7 329.6,68.9 256.6,198.1 256.6,256.7 329.6,127.5 334.5,127.3 431.2,127.3 
				442.6,58.5 442.6,0 			"/>
			<g>
				<polygon class="st1" points="107.2,177.1 107.2,235.7 98.4,288.8 98.4,230.3 				"/>
			</g>
			<polygon class="st1" points="190,299 0,299 0,357.6 190,357.6 190,357.6 201.6,288.8 201.6,230.3 			"/>
			<g>
				<polygon class="st1" points="310,201.2 310,259.8 198.9,421.7 198.9,363.1 				"/>
			</g>
		</g>
	</g>
	<g>
		<g class="st0">
			<g>
				<polygon class="st2" points="399.7,90.4 399.7,149 351.5,232.2 351.5,173.6 				"/>
			</g>
			<g>
				<polygon class="st3" points="345.1,186.5 345.1,245.1 291.9,242.7 291.9,184.1 				"/>
			</g>
			<g>
				<polygon class="st2" points="393.6,173.6 393.6,232.2 311.3,338.7 311.3,280.1 				"/>
			</g>
			<g>
				<polygon class="st4" points="311.3,280.1 311.3,338.7 243.9,392.4 243.9,333.8 				"/>
			</g>
		</g>
	</g>
	<g>
		<g class="st0">
			<g>
				<polygon class="st5" points="458.2,90.4 458.2,149 403.5,220.9 403.5,162.3 				"/>
			</g>
			<g>
				<rect x="351.5" y="173.5" class="st6" width="42.1" height="58.6"/>
			</g>
			<g>
				<polygon class="st7" points="459.1,162.3 311.3,280.1 393.6,173.5 351.5,173.5 399.7,90.4 458.2,90.4 403.5,162.3 				"/>
			</g>
			<g>
				<polygon class="st8" points="459.1,162.3 459.1,220.9 311.3,338.7 311.3,280.1 				"/>
			</g>
		</g>
	</g>
	<g>
		<polygon class="st9" points="399.7,90.4 351.5,173.6 393.6,173.6 311.3,280.1 243.9,333.8 345.1,186.5 291.9,184.1 344.8,90.4 		
			"/>
	</g>
	<g>
		<polygon class="st10" points="265.2,0 442.6,0 431.2,68.7 334.5,68.7 329.6,68.9 256.6,198.1 310,201.2 198.9,363.1 247.6,68.7 
			125.2,68.7 118,112.3 216.7,112.3 205.7,177.1 107.2,177.1 98.4,230.3 201.6,230.3 190,299 0,299 50,0 103.2,0 		"/>
	</g>
	<g>
		<polygon class="st1" points="310,201.2 310,237.1 291,265.3 289.8,230.7 		"/>
	</g>
</g>
</svg>
