<?xml version="1.0" encoding="utf-8"?>
<!-- Generator: Adobe Illustrator 26.0.2, SVG Export Plug-In . SVG Version: 6.00 Build 0)  -->
<svg version="1.1" id="Layer_1" xmlns="http://www.w3.org/2000/svg" xmlns:xlink="http://www.w3.org/1999/xlink" x="0px" y="0px"
	 viewBox="0 0 767.7 154.4" style="enable-background:new 0 0 767.7 154.4;" xml:space="preserve">
<style type="text/css">
	.st0{fill:#282729;}
	.st1{fill:#504C4D;}
	.st2{fill:#A19795;}
	.st3{fill:#DBD5CF;}
	.st4{enable-background:new    ;}
	.st5{fill:#A4910D;}
	.st6{fill:#7C6E0A;}
	.st7{fill:#A7940D;}
	.st8{fill:#A5930D;}
	.st9{fill:#F8DC14;}
	.st10{fill:#A3900D;}
	.st11{fill:#A08E0D;}
	.st12{fill:#9C8A0D;}
	.st13{fill:#9E8C0D;}
	.st14{fill:#9D8B0D;}
	.st15{fill:#98870C;}
	.st16{fill:#98860C;}
	.st17{fill:#9A890C;}
	.st18{fill:#94830C;}
	.st19{fill:#95840C;}
	.st20{fill:#91800C;}
	.st21{fill:#90800C;}
	.st22{fill:#92820C;}
</style>
<g>
	<g>
		<path d="M27,124.8L0,93.3c0,0-0.2-7.5,0.3-8.8S7.9,68.7,7.9,68s2.3-10.7,2.7-11.3s5.2-7.2,5.2-7.7s-0.5-4-0.5-4.7S19,31.2,19,31.2
			l1.5-7.7l2.5-2.3l-0.7-4l0.1-1.5l2.5-2.7l2.7-11.4l1.2-0.8l32.4,0.3l11.3,11.2l0.7,5.1l9.8,8.9l1.1-4.7l2.3-2.6h8.8l0.2-5.1
			l2.3-2.1l0.8-8.2l1.7-2.2l34.6-0.2l3.9,5.4l1.6-5.2l36.3-0.2c0,0,1.6,7.3,2.1,8.3l0.4-4.4l4.4-3.6l31.4,0.1l6,16.4l2.2,0.8
			l0.9,0.9l4.6,6.8l2.1-19.6l1.8-5.8l33.3-0.2l4.4,15.6l2.1-11.2l4.3-3.8l73.1-0.1l0.2,117.2l-3,5.6l-71.9,0.1l-5.1-12.9l-3.7,12.7
			l-32.1,0.2l-15.2-27.2l-3,27.3l-33.5,0.1l-4.8-5.6l-4.1,5.7l-30.1,0.1l-4.2-4.4l-0.5-0.1l-4.2-4.1v8.2l-33.3,0.2l-17.3-19.7H73.1
			l-3.8-3.5l-2.3-2l-2.5,22.5l-3.3,2.4L27,124.8z"/>
		<polygon points="352.4,5.2 356,0.5 433.2,0.4 432.7,21.5 428.5,54.5 389.4,54.8 389.2,72 433.9,72.2 433.7,92.5 431,124.2 
			355.5,124.2 355.5,112.7 352.9,111.2 		"/>
		<polygon points="436.9,1.2 512,1 516.4,13.3 519.5,0.7 593.5,0.5 597.9,8.3 601.9,0 677.9,0.2 679,5.2 683.4,0.3 759.9,0 
			764.2,6.2 764.2,21.2 750.5,37.5 767.5,85.3 767.7,94.5 742.4,119.7 739.7,121.3 737,122.8 706.7,123.2 688.5,58.7 669.5,86.7 
			655.5,87 655.2,94.7 635.5,122.8 602.2,123 600.9,111.5 593.2,123.3 560.5,122.8 558.5,109 557.2,116.7 551.9,122.7 521.9,123.2 
			517.4,107.2 516.5,108.3 515.9,109.2 512.2,123 478.9,123.2 478.5,96.2 470.2,123 437.4,123.2 437.2,58.5 434,52.3 434.2,24.7 
			436.7,20 		"/>
	</g>
</g>
<g id="Layer_5">
	<path class="st0" d="M3.4,91.9v1.6l24.8,28.8l28-0.2l-9.5-11.5l-1.9,0.1l-2-0.4l-4.2,2.8l-3.2-1.1c0,0-1.5-0.1-1.7-0.1
		s-0.3-0.4-0.3-0.4l2.5-1l1.5-0.1l0.9-2.9l2.3,0.3l4.3-0.1L32.1,91.9H3.4z"/>
	<path class="st0" d="M49.9,76.6l21.1-1l8.4,10.2l31.5,4.4l1.2,9.5l10.7,10.9v2.4l-2.4,0.2l-1.4,0.3l-0.5,2.5l-4.1,0.1l-1.8,1.7
		l0.5,0.8l1.9-0.5l4.7,1h2.7l6.5-0.6l-0.5,3.1h-26.9l-8.2-9.1l-6.6-8.7l-5.2-5.6l-0.6-4.3h1.4l-0.2-1.7l-2.3-1.8l-0.9,0.1l-0.8,7.2
		l3.5,3.8l-3,0.7c0,0-2.9,0.2-3.2,0s-2.7-1.2-2.7-1.2l-6.6-6.1L62,91.1l3.4-0.6l4.2,0.3h1.9l-0.1-0.9l-4.8-2.3l-5.8,0.5l-2.2-0.4
		L49.9,76.6z"/>
	<path class="st0" d="M125.9,115.8l2.8-1.1c0,0,0.2-4.8,0-5.1s-2.6-2.8-2.6-2.8l0.9,4.5L125.9,115.8z"/>
	<polygon class="st0" points="123,93.8 136.6,91.7 145.5,101.8 145.4,96.4 146.4,92 156.3,92 164.6,110.4 168.6,118.5 170.6,121.7 
		143,121.4 139.6,117.2 136.7,113.5 135.1,109.9 133.9,106.8 130.2,102.4 	"/>
	<polygon class="st0" points="165.6,93.4 170.2,98.8 172.4,103.6 176.9,112.8 182.6,121.7 212.4,121.7 201.9,93.4 189,93.1 
		187.8,93.2 186.9,97.8 190,101.8 184.3,98.7 180.5,92.2 	"/>
	<polygon class="st0" points="221.8,93.1 224.9,101.4 228.1,107.6 230.7,110.2 235.2,110.2 236.7,110.8 238.2,112.5 243.9,112.8 
		243.6,113.5 240.9,113.7 237.9,114.6 233.4,113.3 232.2,113.5 231.9,114.4 235,120.9 262.7,121.4 263.6,113.5 254.4,93.2 247.4,93 
		246.5,93.7 246.9,96 249.3,98.2 247.9,102 251.4,106.8 246.8,103.3 246.3,98.5 243.4,97.1 243.3,92.7 	"/>
	<polygon class="st0" points="267.1,93.3 271.9,111.2 275.4,121.4 344,121 344,110.8 340,109.4 336,109.6 329.6,110.8 328.7,110.6 
		328.9,109.4 330.7,108.1 338.1,107.2 340.4,105 343.1,104.8 344.4,102.8 344.5,93.6 343,92.5 327.2,93.1 324.8,93.8 323.6,96.9 
		323.8,99.1 322.2,96.8 321.9,93.2 292.8,93.2 289.2,93.6 288.7,96.3 291.4,97.8 289.8,105.2 290.5,108.5 288.6,107.5 287.8,105.8 
		287.7,99.7 282.8,93.8 276.2,92.3 	"/>
	<polygon class="st0" points="356.4,91 355.8,109.6 358.4,110.3 360.6,113.5 369.4,113.7 371.1,116.6 368.6,116.3 364.7,115.5 
		359.9,116.1 358,118 358.5,121.6 402.7,121.9 403.4,117.2 404,113.9 405.5,111.7 405.7,104.8 407.2,101.8 407.9,98.7 408.3,98.7 
		409.5,100.6 408.7,110.2 408.7,112.9 406.1,117.1 406.9,121.3 428.3,121.8 431.6,93.8 428.1,93.2 421.3,92.4 414.9,93.7 
		413.9,96.4 412.3,97.2 410.1,101.2 409,96 407.5,93.2 386.4,92.5 385.3,92.8 383.3,94.8 381.9,97.4 379,98.4 377.8,99.9 
		376.6,102.3 374.4,104.8 374.7,108.4 372.6,105.5 372.4,102.3 374.8,100.6 376.4,93.8 374.4,87.2 	"/>
	<polygon class="st0" points="442.9,91.3 441.7,94.2 439.9,96.7 439.9,109.4 447.6,108.5 447.8,109.9 448.4,110.9 453.1,111.9 
		457.5,112.2 469.9,110.5 472.7,104.3 472.9,97.2 475.8,92.3 472.7,91.7 451,86.9 447.5,84.9 	"/>
	<path class="st0" d="M440,111.5l-0.1,8.8l26.8-0.2l4-5.7l-11,0.9l-1.2-0.7c0,0-9.3,0.8-9.7,0.8s-2-0.2-2-0.2l-1.7-0.8l-0.9-2.5
		L440,111.5z"/>
	<polygon class="st0" points="488.9,90.5 486.4,92.3 481.3,120 508.9,120.4 512.7,113.8 512.5,109.2 509.6,110.1 508.6,109.8 
		506.8,108.2 509.3,108.2 510.9,107.2 514.1,104.8 517.4,100.2 520.6,92.1 518.4,91.8 506.2,92 505.9,94.2 504.7,100.1 503.4,97.8 
		501.7,96.8 500.4,91.8 	"/>
	<polygon class="st0" points="531.4,90.7 526.8,101.8 523.9,116.8 524.1,120 549.9,120.2 554.3,116.9 554.9,108.9 550,106.3 
		546,106.2 544.4,105.4 544.4,104.6 546.4,105.1 549.5,103.8 561.5,102.9 565.9,92.5 563,91.6 553.7,91.7 552.5,95.8 552.7,97.5 
		550.4,95.2 547.9,91.8 	"/>
	<polygon class="st0" points="575.9,90.5 562.9,116.4 562.9,120.1 592.8,120.1 606.9,94.9 606.9,91.3 604.2,90.8 	"/>
	<polygon class="st0" points="608.9,97.8 607.9,102.9 611.1,104 611.2,105.8 613.6,102.1 610.6,100.9 	"/>
	<polygon class="st0" points="621.8,91.7 620.3,93.2 616.3,101.4 617.2,103.2 621.2,103.3 622.2,104.7 622.5,106.6 630.5,106.8 
		632.5,108.9 632.5,109.7 631.4,109.5 629.3,108.4 626.9,108.5 619.9,109.4 616.5,109 613.9,110 611.9,110.9 610.8,112.8 
		607.9,118.7 608.4,120.1 632.6,120.5 652.5,93.6 652.6,92.7 651.7,90.3 	"/>
	<polygon class="st0" points="731.2,88.8 730.1,89.2 722.9,100.5 722.5,101.7 723.4,103.6 724.9,105.8 726.4,106.1 730,105.4 
		731.4,105.8 733.3,107.5 733.1,108.4 732.1,108.3 730.4,107.5 726.4,109.7 719.2,109.6 718.2,108.8 717.3,105.6 716.4,103.4 
		714.4,102 713.8,97.2 713.1,96.3 710.4,95.9 711.4,97.2 712.4,97.8 713.7,103.7 714.9,104.4 716,105.3 717.4,109 717.7,110.5 
		716,112.3 714.4,113.7 713,115.7 712,117.5 710.8,118.8 710.9,120 736.7,120.1 764.4,92.7 762.3,91.3 750.5,65.8 747.9,63.8 
		723.4,61.7 720.3,61.8 719.4,66.3 718.9,67.4 717.8,67.5 717.1,74.8 714.5,77.2 715,82.9 712.7,83.5 715.6,83.5 716.1,78.8 
		719.4,76 720.6,69.6 727.5,66.8 730.9,66.7 734.4,67.1 	"/>
	<polygon class="st0" points="47.6,106.8 49.6,104.9 49.2,100.4 49.5,98.4 47.6,100.1 48.7,104.5 	"/>
</g>
<g id="Layer_6">
	<polygon class="st1" points="33.9,111.8 38.1,113.4 38.8,113.3 41.6,111.3 42.6,110.2 40.7,110.7 38.9,111.6 37.9,111.9 	"/>
	<polygon class="st1" points="136.1,93 145.4,102 145.5,101.8 139,93 	"/>
	<polygon class="st1" points="179.9,93 183.4,98.5 184.4,99.2 188.5,101 185,98.5 184.3,94.8 183.9,94.2 181.5,92.8 	"/>
	<polygon class="st1" points="235.8,114 237.3,115.2 238.1,115.2 241.7,113.6 	"/>
	<polygon class="st1" points="278,93.3 281.7,94.1 283.1,95 285.6,97.8 287.1,99.5 287.8,104.7 289,99.7 285.6,96.2 284.1,94 
		283.2,93.2 279.4,92.4 	"/>
	<polygon class="st1" points="372.7,102.2 374.8,98.1 375.1,95.5 374.9,93 373.2,88.2 378.7,87.7 377.9,93.2 378.3,96 376.2,98.3 
		375.4,100.5 374.7,101.8 374.1,102.2 	"/>
	<polygon class="st1" points="408.7,110.2 411.5,104.4 411.9,101.4 412.7,97 411.4,97.6 409.7,100.3 408.8,103.5 408.3,105.2 	"/>
	<polygon class="st1" points="449.2,115.5 452.3,116.3 455.9,115.1 459.4,115.2 457.7,114 452.4,114.8 	"/>
	<polygon class="st1" points="504.8,99.7 506.2,98.2 506.4,92.4 504.6,92.4 504,93 504.3,94.9 504.7,97.8 	"/>
	<polygon class="st1" points="552.2,91.6 552,94 552.6,96.2 554.2,91.8 	"/>
	<polygon class="st1" points="546.8,106.2 551.3,105 554.9,108.9 550.8,107.2 	"/>
	<polygon class="st1" points="616.1,109.2 618.3,108.2 619.7,108.8 625.4,108.6 629,108.2 631.4,109.5 627.4,109 623.6,109.5 
		619.4,110.1 617.6,109.5 	"/>
</g>
<g id="Layer_3">
	<g>
		<path class="st2" d="M31,3.9"/>
		<polygon class="st2" points="27.1,14.2 25.1,17.2 25.1,18.4 26.9,20.2 32.1,21.1 36.5,19.2 41.5,19.1 46.9,20.5 39.4,21.8 
			33.5,23.9 25.2,23.9 22.3,26.7 16.9,46 19.2,47.8 25.4,48.9 27.1,51 25.4,61.6 24.9,51.4 17.1,51.5 13.9,54.8 3.3,85.9 2.9,90.7 
			16.9,92.2 33.7,90.8 36.4,88.4 36.8,82.1 20.9,80.8 20.5,74.2 22.9,78.4 26.1,79.6 39.4,79.3 39.5,74.1 24,72.4 24.3,64.2 
			25.2,71.2 34.4,71.7 39.3,68.7 45.8,56.9 49.4,55.5 53.4,57.3 50.5,70.3 50.7,74.1 61.9,75.8 72.6,73.9 74.3,71.3 78.8,57.1 
			79.6,57 83.9,55.8 86.7,57.6 78.9,85 79.4,90.6 94.9,92.4 112.4,90.6 112.9,90.2 123.8,45.9 123.7,45 121.9,43.2 111.9,43.4 
			110.2,40.2 99.6,39.7 82,40 82.1,37.7 82.4,36.8 83.4,38.2 91.7,38.2 100.9,36.3 103.4,34.8 103.4,20.9 88.8,20.9 84.4,28.9 
			83.6,34.3 81.6,35.1 81,35.9 80.6,37.4 62.1,37.4 62.2,30.7 64.7,27.3 64.8,23.7 62.4,21.2 61.3,21.1 57.2,23.2 45,23 52.1,21.9 
			56.1,21.8 56,15.1 59,11.5 59.9,5.8 59.3,3.9 31,3.9 		"/>
		<polygon class="st2" points="101.3,4.2 100.4,11.7 98.2,14.7 98.4,17.8 103.9,17.9 105.9,21.1 106,37.4 108.4,38.3 111.4,38.3 
			112.4,40.2 119.8,40.4 123.8,36.3 131.4,11.3 131.5,4 		"/>
	</g>
	<polygon class="st2" points="144.4,3.9 143.1,5.4 123,86.9 124,90.5 139.6,90.6 140,87.9 141,84.9 142,88.1 144.5,90.6 148.9,91 
		156.1,90.5 169,26.8 162.9,25.4 157.5,26.1 162.4,23.8 168.5,23.6 171.1,21.2 173.2,6.8 172.5,4.5 	"/>
	<polygon class="st2" points="185.4,4.1 182.6,6.6 171,61.9 173.5,63.2 179.9,62.9 184.7,62.6 180.6,63.9 174.7,65.5 172.5,65 
		170.9,66.9 167.5,86.5 165.2,90.6 177.4,91.5 182.9,90.6 193.2,91.4 200.7,90.6 201.9,88.9 202.6,77 200,70.5 196.7,68.5 189.2,68 
		187.2,65.6 182.1,65.5 184.5,63.9 186.4,62.6 190.6,65.1 202.4,67.4 204.5,65.1 207.2,54 207.6,49.1 213.5,48.9 220.6,50.8 
		215.4,51.9 215.7,64.8 217,65.8 224.1,65.2 232.4,68.8 234.6,68.8 240.1,67 245.9,69.6 246.7,69.9 249,73.1 247.4,83.5 246.6,73 
		245.7,71.8 240.2,69.6 233.9,71.5 229.6,69 226.4,69 224,71.6 223.5,84.4 221.5,86.6 221.6,90.6 232.6,91.5 244.1,90.8 245.1,88.5 
		244.7,82.6 246.6,87.8 246.6,90.5 250.2,91.6 255.5,90.5 260.4,55.2 263.4,26.2 263.2,4 235.1,4.1 232.4,7.1 232.5,14.2 
		238.2,20.8 245.2,20.6 246.6,23.4 248.9,23.2 253,22.1 260.6,25.5 244.4,24.8 242.1,23.8 235.4,23.6 234.1,21.4 232.9,21.5 
		229.4,34.2 226.9,36.9 218.5,37.5 218.7,35.1 220.7,32.5 220.9,22 219.7,20.8 212.6,20.6 205.2,18.9 210.9,18.6 212.4,17.5 
		212.7,5 212,4 	"/>
	<g>
		<polygon class="st2" points="277.1,4.2 274.4,6.2 273.9,23.4 274.5,25.9 280,27.4 284.6,25.6 286,25.6 293.5,26.8 282.4,28.4 
			272,29.4 268.5,67.9 273,68.9 282.7,67.9 285.4,69.4 284.4,82.2 288.9,90.5 313,92 322.2,90.5 322.7,87.4 324.5,80.5 324.4,89 
			325.9,91.1 344.4,90.6 344.5,74.2 341.1,74.4 338.7,78.8 330.5,78.4 326.1,78.9 327.4,77.1 337.6,76.8 338,74.4 337.2,73.6 
			300.1,73.8 302.2,63.6 302.7,57.2 305.1,57 314.1,55.5 322.7,54.5 323.1,52.9 324.1,54.6 338.6,57 341.6,57 344.5,54.4 344.6,38 
			327.7,38 325.2,39.5 323.6,44.6 323.5,47.4 324,48.8 322.1,46.4 322.1,39.6 320.9,37.5 302.4,36.9 304.9,28 305.4,21 324.1,19.8 
			343.7,21 344.5,21 347,17.9 347.1,4 		"/>
		<polygon class="st2" points="268.4,71.1 266.5,72.6 266.4,90.5 270.1,91.2 283.2,90.5 283.6,70.5 		"/>
	</g>
	<polygon class="st2" points="358.2,3.1 355.9,6.6 355.5,49.2 361.5,49.1 363.4,49.8 359,50.2 355.7,54.5 356,90.5 361.9,91.6 
		370.7,90.8 372.5,88.6 378.7,88.2 380,86.2 381.9,88.8 383.5,89.8 385,90.8 406.9,91.5 408.7,90.5 408,89.5 410,84 410,82 
		411.5,83.9 411.1,89.5 413.1,90.9 431.9,90.6 431.9,76.4 429.1,73.5 389,73.8 386.4,71 389.1,53.6 389.7,40.2 383.5,34.5 
		371.6,34.8 364.6,32.9 369.7,33.1 380,31.5 382.2,31.9 383.7,32 387,34.9 389.2,33.9 389.5,22.8 391.9,20.8 394,20.5 424,20 
		426,20.8 428.1,18.9 428.6,9.8 431,8.2 431.4,3.1 	"/>
	<path class="st2" d="M518.2,78.9l-0.5-24.2l-2.1-4.2l-0.2-5.9h-14.5l-2.9-1l-4.1,0.2l2.5-2l7.6-0.2l0.9-3.2l1.6-1.2l1.5-0.8
		l7.4-0.4l-0.1-8.2l-1.4-2.5l-1.1-3.1l-0.4-2.2l-0.1-9.6l-3.5-7.5l-52.5-0.1v2.6l2,1.6l0.8,20.5l-0.4,6.9l-0.8,3.9l2.8,1.1L468,38
		l4,4.6l-4.9-2.6l-6,2l-2.2-1.8l-1.9-2.1l-0.6-5.2l1-6.8l0.2-4.9L456.7,7l-2.2-1.8l-1.8-2.5l-13.2-0.1v25.1l5.8,0.2l4.1-0.4l3.9,0.5
		l2-0.1l-4.1,2.1l-6,0.1l-3.8,2.1l-1.8,3.8v16.5l2.9,6.6l-0.2,29.6l1.5,0.8l1.9-0.8l2.1-3.4l3.5-1.6l0.2-7.6l1.6-3.1l0.6,10.1
		l-2.6,2.9l-2.9,3l12.2,2.2l15.6-2.4V72.9l-9.4-1.4l-11.5,0.9l3.1-2.2l10.9-1.6l3.5,1l1.9-0.1l-1.1-4.5l-0.1-8.9h1.2l2.5-0.8
		l5.1,0.9l2.4,2.8v2.6l6-0.2l5.9-0.6l5.6,0.5l4.9,0.1l-21.2,2.5l-1.1,1.2l-0.2,13.2l2.9,5.5L488,89l5.2,0.9l9-1l0.4-3l1.2,1.4
		l0.2,1.9l6,1.8l11-2l0.4-5L518.2,78.9z M473.6,35.9l-0.1-8.4l-2.8-2.5l-0.2-4.9l8.6-0.2l2.1,1.8l0.2,14.5L473.6,35.9z"/>
	<path class="st2" d="M607.4,78.4l-4.4-3.2l-5.6-0.5l-1.4-2.4l-9.8-0.9l-5.5-0.5l-5.1,1.4l3.1-2l1-0.9l7.6,0.4l11,0.9l2.4,2.2
		l4.5-0.5l1-1.6L594,3.5l-73-0.4l8.1,63.4l1,22.4l7.1,1.1l12.8-0.9l7.2,1.1l8.2-1.4l-4.9-22.2l1-2.4l3.9-1.4l5.8,1.8l2.6,5l0.2,19.1
		h33.6L607.4,78.4z M567.2,19.8h0.6l5.9-1.5l4.5,1.4l0.9,7.8l-12.8,0.1l-0.2-5.1L567.2,19.8z M541.5,22.8l0.5-3.6l5.8-0.8l4.1,1
		l1.8,0.2l0.9,2.4v5.6L543,27.8L541.5,22.8z M572,50.4l-0.9-5.1l-11.5-1.8h-1.9l-0.8,6l-4.8,0.1l-0.6-5l-2.1-2.5l0.1-7.6l5.5-0.4
		v-5.5l10.4-0.5l3,5.5l5.5,0.1l0.1,1.6l3.2,3.6L577,50L572,50.4z"/>
	<polygon class="st2" points="605.2,2.8 605.2,22.2 619,89 632.9,90 652.9,88.8 647.7,56.5 649.9,56 658,53.7 660.2,51.8 662.9,42 
		662.7,39.8 663.9,42.2 662.9,49.2 663.7,51.8 663.9,53.7 688.9,55.8 689.2,50.5 686,46.2 685.7,39.3 683.2,36.2 662.5,36.2 
		661.5,36.8 660.7,36.2 644.4,35.7 641.7,33.3 638.7,19.3 639.9,19.3 645.4,17.8 655.2,16.8 655.5,13.7 654.8,13 652.4,12.9 
		651.9,11.2 649.4,8.2 646.9,7.7 647.8,4.6 648,6.3 649.9,7.2 650.9,8.5 652.9,11 656.9,11.2 657.6,12 657.8,16.2 658.4,16.7 
		680.4,19.3 680.9,19.3 680.9,13.1 678.4,9.8 676.6,6.7 676,3.9 674.1,2.7 	"/>
	<polygon class="st2" points="686.4,3 686.5,10.8 690.6,18.4 707.9,17.9 708.9,17.1 708.9,15.5 708.2,14.3 708.4,13.8 710.9,11.5 
		710.4,13.5 710.3,20.2 722.7,61.4 724.7,64.4 728.9,62.4 740.8,64.7 750.1,64.1 753,66.3 749.9,65.2 740.2,66.8 735.4,66 
		729.6,67.6 726.3,70.6 730.3,88.1 731.6,88.9 759.9,90.2 764.5,88.9 741.7,22.6 739.9,20.6 739.9,15.5 736.9,13.5 738.4,4.8 
		737.8,3.7 739,4.2 739.3,11.1 741.4,14.1 743,17.7 744.9,19 758.2,18.5 759.7,18.7 761.9,16.7 762.1,7.8 759.7,6.2 758.9,2.9 	"/>
</g>
<g id="Layer_4">
	<polygon class="st3" points="32.1,21.1 36.2,18.2 42.2,18.3 47.3,19.5 49,20 53.3,21.9 47.6,22.2 39,22 44.7,20.4 38,20.3 
		34.9,20.9 	"/>
	<polygon class="st3" points="91.5,38.3 97,38.2 103.4,37.3 103.4,34.3 97.7,35.1 94.3,36.6 	"/>
	<polygon class="st3" points="79,57.1 79.9,54.7 90.4,54.2 87.5,58.2 86.5,58.2 86.5,57.4 	"/>
	<polygon class="st3" points="72.7,73.8 50.7,73.8 50.6,76.5 52.2,77.2 69.9,77.2 70.9,76.6 	"/>
	<polygon class="st3" points="53.4,57.3 54.7,53.6 45.2,54.4 45.8,56.9 	"/>
	<polygon class="st3" points="25.4,48.9 23.3,47 16.9,46 17.7,48.8 	"/>
	<polygon class="st3" points="33.7,90.8 30.9,93.9 4.7,93.5 2.8,92.1 2.9,90.5 	"/>
	<polygon class="st3" points="79.4,90.6 81.6,93.4 108.7,93.9 112.9,90.2 	"/>
	<polygon class="st3" points="124,90.5 124,93.4 139.7,93.2 139.6,90.6 	"/>
	<polygon class="st3" points="145.7,93.6 144.5,90.6 156.1,90.5 153.8,93.5 	"/>
	<polygon class="st3" points="165.2,90.6 165.1,91.6 166.5,93.5 182.1,93.5 182.7,91.9 182.9,90.6 	"/>
	<polygon class="st3" points="187.3,90.9 188,91.2 188.5,93.8 198.6,93.9 200.9,90.4 	"/>
	<polygon class="st3" points="176.5,63.1 179.7,60.2 188.9,61.2 190.6,65.1 186.5,63.2 183.3,64.8 179.8,64.1 183,63.1 181.8,62.8 	
		"/>
	<polygon class="st3" points="247.9,23.3 251.8,20.8 252.8,20.9 257.9,22.8 260.2,25.3 254.3,23.7 	"/>
	<polygon class="st3" points="234.7,68.8 236.2,66.4 242.5,66.5 245.9,69.6 240.2,68.5 	"/>
	<polygon class="st3" points="244.1,90.8 221.6,90.6 221.6,93.4 243.5,93.6 	"/>
	<polygon class="st3" points="246.6,90.5 246.7,92.4 248,93.6 254.7,93.6 255.5,91.9 255.5,90.4 	"/>
	<polygon class="st3" points="266.4,90.5 266.1,93.8 278,93.6 283.2,90.5 	"/>
	<polygon class="st3" points="272.9,68.9 275.4,66.4 283.2,66.8 284.2,68.8 278,68.9 	"/>
	<polygon class="st3" points="288.9,90.5 289.4,91.6 290.6,91.9 294,93.8 322,93.8 322.3,90.4 	"/>
	<polygon class="st3" points="325.6,90.8 326.9,93.7 342.4,93.7 344.4,91 344.4,90.5 	"/>
	<polygon class="st3" points="338.9,57 338.4,54.5 324.1,54.6 324.6,57.1 	"/>
	<polygon class="st3" points="322.1,57.1 322.7,54.5 305.6,54.6 304.9,57 	"/>
	<polygon class="st3" points="306.5,20.9 307.6,18.2 342.4,18.1 343.9,21.1 	"/>
	<polygon class="st3" points="426,20.8 424.7,18.5 393.6,18.1 392.9,20.6 	"/>
	<polygon class="st3" points="382.7,31.9 381.6,30.1 374.2,31.8 370.6,30.6 368.6,33.1 373.2,33.5 	"/>
	<polygon class="st3" points="356,90.5 356,91.4 358.1,93.2 369,93.2 370.8,90.6 	"/>
	<polygon class="st3" points="384.7,90.6 386.9,93.4 408.9,93.6 408.7,90.5 	"/>
	<polygon class="st3" points="412.9,90.8 415.8,92.9 418.4,93.4 429.4,93.5 431.9,91.5 431.9,90.6 	"/>
	<polygon class="st3" points="442.2,92 442.2,88.9 445.6,88.9 443.6,92 	"/>
	<polygon class="st3" points="456.7,71.3 459.1,69 470.5,66.6 473,69.5 458.5,70.2 	"/>
	<polygon class="st3" points="448.7,88.6 447.9,89.4 450.9,92.6 473.5,92.2 476.1,89.4 476.1,88.7 	"/>
	<polygon class="st3" points="445,28 447.4,25.9 452.7,26.2 453.5,28.1 450.7,28.5 	"/>
	<polygon class="st3" points="474.6,56 474.4,53 480.4,53 482.2,56.1 	"/>
	<polygon class="st3" points="490.2,61.3 491.4,59 499.6,59.5 502.7,61.1 	"/>
	<polygon class="st3" points="488,89 488.1,90.5 489.6,92.5 501.4,92.5 502.2,88.9 	"/>
	<polygon class="st3" points="504.1,89 504.4,92.5 518.7,92.4 520.9,89.5 521,89 	"/>
	<polygon class="st3" points="542,19.1 542.9,17 550.7,16.8 552.1,19.4 	"/>
	<path class="st3" d="M567.9,19.8c0-0.4,0.2-2.6,0.2-2.6l8-0.4l2.1,2.9L567.9,19.8z"/>
	<polygon class="st3" points="559.2,43.5 559.4,44.5 571.1,45.2 564.7,43.1 	"/>
	<polygon class="st3" points="561.6,64.2 562.7,60.9 569.7,61.5 571.2,64.6 	"/>
	<polygon class="st3" points="577.8,70.8 578.5,69.2 582.7,67.8 587.2,68 589,69.9 580,70 	"/>
	<polygon class="st3" points="607.7,88.7 607.7,89.4 604.9,92.2 577.1,92.2 574.1,88.8 	"/>
	<polygon class="st3" points="565.5,88.9 563.2,92.1 552.2,92 550.1,89.4 548.5,92.5 531.4,91.9 530.1,88.9 	"/>
	<polygon class="st3" points="619,89 621.2,92.2 650.6,92.1 653,89.8 652.9,88.8 	"/>
	<polygon class="st3" points="648.7,56.3 650,53.6 658.1,53.6 656.2,55.6 652.2,56.1 	"/>
	<polygon class="st3" points="663.8,53.3 663.7,56.4 688.9,55.8 686.4,52.8 	"/>
	<polygon class="st3" points="680.9,19.3 678.2,16.6 657.8,16.2 658.9,19.9 	"/>
	<path class="st3" d="M654.4,19.6c0.4-0.4,1-1.6,1-1.6l-0.1-1.6l-14.5,0.2l-0.9,2.8L654.4,19.6z"/>
	<polygon class="st3" points="690.5,18.2 692.5,16 707.1,16.9 708.1,17.7 707.4,19.2 691.2,19.6 	"/>
	<polygon class="st3" points="744.6,18.8 746.5,16.6 759.5,16.5 759.9,18.5 759.1,19.5 745.1,19.5 	"/>
	<polygon class="st3" points="725.2,64.2 726.6,61.6 735,62.1 740,63.4 740.8,64.7 734.7,64.2 729.2,63.5 	"/>
	<polygon class="st3" points="730.3,88.1 734.1,92.6 761.9,92.6 764.5,88.9 	"/>
</g>
<g>
	<g class="st4">
		<g>
			<polygon class="st5" points="127,106.9 140,117.5 139.8,126.9 126.8,116.8 			"/>
		</g>
		<g>
			<polygon class="st6" points="126.8,116.8 139.8,126.9 112.1,126.9 97.4,116.8 			"/>
		</g>
		<g>
			<polygon class="st7" points="97.4,116.8 112.1,126.9 112,131.3 97.3,121.4 			"/>
		</g>
		<g>
			<polygon class="st8" points="112,121.4 125.9,131.3 125.7,140.7 111.9,131.4 			"/>
		</g>
		<g>
			<polygon class="st6" points="111.9,131.4 125.7,140.7 111.8,140.7 97.1,131.4 			"/>
		</g>
		<g>
			<polygon class="st7" points="97.1,131.4 111.8,140.7 111.8,145.1 97.1,136 			"/>
		</g>
		<g>
			<polygon class="st5" points="126.5,136 139.6,145.1 139.4,154.5 126.4,146 			"/>
		</g>
		<g>
			<polygon class="st6" points="126.4,146 139.4,154.5 102.1,154.5 86.8,146 			"/>
		</g>
		<g>
			<polygon class="st9" points="127,106.9 126.8,116.8 97.4,116.8 97.3,121.4 112,121.4 111.9,131.4 97.1,131.4 97.1,136 126.5,136 
				126.4,146 86.8,146 87.5,106.9 			"/>
		</g>
	</g>
	<g class="st4">
		<g>
			<polygon class="st10" points="141.5,106.9 153.7,117.5 153.3,145.1 141.1,136 			"/>
		</g>
		<g>
			<polygon class="st11" points="170.5,136 181.1,145.1 181,154.5 170.4,146 			"/>
		</g>
		<g>
			<polygon class="st9" points="141.5,106.9 141.1,136 170.5,136 170.4,146 130.9,146 131.5,106.9 			"/>
		</g>
		<g>
			<polygon class="st6" points="170.4,146 181,154.5 143.7,154.5 130.9,146 			"/>
		</g>
	</g>
	<g class="st4">
		<g>
			<polygon class="st12" points="214.8,106.9 222.8,117.5 222.7,126.9 214.7,116.8 			"/>
		</g>
		<g>
			<polygon class="st6" points="214.7,116.8 222.7,126.9 195,126.9 185.3,116.8 			"/>
		</g>
		<g>
			<polygon class="st13" points="185.3,116.8 195,126.9 194.9,131.3 185.3,121.4 			"/>
		</g>
		<g>
			<polygon class="st14" points="199.9,121.5 208.8,131.3 208.7,140.7 199.8,131.4 			"/>
		</g>
		<g>
			<polygon class="st6" points="199.8,131.4 208.7,140.7 194.8,140.7 185.1,131.4 			"/>
		</g>
		<g>
			<polygon class="st13" points="185.1,131.4 194.8,140.7 194.8,145.1 185.1,136 			"/>
		</g>
		<g>
			<polygon class="st12" points="214.5,136 222.5,145.1 222.4,154.5 214.4,146 			"/>
		</g>
		<g>
			<polygon class="st6" points="214.4,146 222.4,154.5 185.2,154.5 174.9,146 			"/>
		</g>
		<g>
			<polygon class="st9" points="214.8,106.9 214.7,116.8 185.3,116.8 185.3,121.4 199.9,121.5 199.8,131.4 185.1,131.4 185.1,136 
				214.5,136 214.4,146 174.9,146 175.4,106.9 			"/>
		</g>
	</g>
	<g class="st4">
		<g>
			<polygon class="st15" points="251.3,106.9 257.3,117.5 257.2,124.4 251.3,114.1 			"/>
		</g>
		<g>
			<polygon class="st6" points="248.6,116.8 254.7,126.9 236.4,126.9 229.2,116.8 			"/>
		</g>
		<g>
			<polygon class="st16" points="258.6,114.1 264.1,124.4 264,133.8 258.5,124.1 			"/>
		</g>
		<g>
			<polygon class="st6" points="258.5,124.1 264,133.8 254.6,133.8 248.5,124.1 			"/>
		</g>
		<g>
			<polygon class="st16" points="258.5,128.8 264,138.2 264,147.6 258.4,138.7 			"/>
		</g>
		<g>
			<polygon class="st6" points="258.4,138.7 264,147.6 257,147.6 251.1,138.7 			"/>
		</g>
		<g>
			<polygon class="st17" points="229.2,116.8 236.4,126.9 236.2,145.1 229,136 			"/>
		</g>
		<g>
			<polygon class="st6" points="226.4,138.7 233.7,147.6 226.8,147.6 219,138.7 			"/>
		</g>
		<g>
			<polygon class="st15" points="251.1,138.7 257,147.6 257,154.5 251,146 			"/>
		</g>
		<g>
			<polygon class="st6" points="251,146 257,154.5 233.7,154.5 226.3,146 			"/>
		</g>
		<g>
			<polygon class="st9" points="251.3,106.9 251.3,114.1 258.6,114.1 258.5,124.1 248.5,124.1 248.6,116.8 229.2,116.8 229,136 
				248.5,136 248.5,128.8 258.5,128.8 258.4,138.7 251.1,138.7 251,146 226.3,146 226.4,138.7 219,138.7 219.2,114.1 226.6,114.1 
				226.6,106.9 			"/>
		</g>
	</g>
	<g class="st4">
		<g>
			<polygon class="st18" points="302.4,106.9 305.5,117.6 305.4,126.9 302.4,116.8 			"/>
		</g>
		<g>
			<polygon class="st6" points="302.4,116.8 305.4,126.9 291.6,126.9 287.7,116.8 			"/>
		</g>
		<g>
			<polygon class="st6" points="277.7,116.8 282.2,126.9 268.3,126.9 263,116.8 			"/>
		</g>
		<g>
			<polygon class="st19" points="287.7,116.8 291.6,126.9 291.5,154.5 287.6,146 			"/>
		</g>
		<g>
			<polygon class="st9" points="302.4,106.9 302.4,116.8 287.7,116.8 287.6,146 277.6,146 277.7,116.8 263,116.8 263.1,106.9 			"/>
		</g>
		<g>
			<polygon class="st6" points="287.6,146 291.5,154.5 282,154.5 277.6,146 			"/>
		</g>
	</g>
	<g class="st4">
		<g>
			<polygon class="st20" points="338.9,106.9 339.9,117.6 339.9,124.4 338.9,114.2 			"/>
		</g>
		<g>
			<polygon class="st6" points="336.2,116.8 337.4,126.9 319.1,126.9 316.8,116.8 			"/>
		</g>
		<g>
			<polygon class="st21" points="346.1,114.2 346.7,124.4 346.7,133.8 346.1,124.1 			"/>
		</g>
		<g>
			<polygon class="st6" points="346.1,124.1 346.7,133.8 339.9,133.8 338.8,124.1 			"/>
		</g>
		<g>
			<polygon class="st22" points="316.8,116.8 319.1,126.9 319.1,131.3 316.8,121.5 			"/>
		</g>
		<g>
			<polygon class="st20" points="338.8,124.1 339.9,133.8 339.8,138.2 338.8,128.8 			"/>
		</g>
		<g>
			<polygon class="st6" points="336.2,131.4 337.4,140.7 319.1,140.7 316.8,131.4 			"/>
		</g>
		<g>
			<polygon class="st21" points="346.1,128.8 346.7,138.2 346.7,154.4 346.1,146 			"/>
		</g>
		<g>
			<polygon class="st6" points="346.1,146 346.7,154.4 337.3,154.4 336.2,146 			"/>
		</g>
		<g>
			<polygon class="st22" points="316.8,131.4 319.1,140.7 319,154.4 316.8,146 			"/>
		</g>
		<g>
			<polygon class="st6" points="316.8,146 319,154.4 309.6,154.4 306.8,146 			"/>
		</g>
		<g>
			<path class="st9" d="M346.1,124.1h-7.3v4.7h7.3V146h-9.9v-14.6h-19.4V146h-10l0.1-39.1h32v7.2h7.3L346.1,124.1z M336.2,121.5
				v-4.6h-19.4v4.6H336.2"/>
		</g>
	</g>
	<g class="st4">
		<g>
			<polygon class="st6" points="670.7,128.8 653,138.2 652.6,117.6 670.2,107 			"/>
		</g>
		<g>
			<polygon class="st6" points="656,124.1 639.2,133.8 634.8,133.8 651.4,124.1 			"/>
		</g>
		<g>
			<polygon class="st6" points="663.4,131.4 646.2,140.6 639.2,140.6 656.1,131.4 			"/>
		</g>
		<g>
			<polygon class="st6" points="656.1,131.4 639.2,140.6 639.2,133.8 656,124.1 			"/>
		</g>
		<g>
			<polygon class="st6" points="663.6,138.7 646.2,147.5 646.2,140.6 663.4,131.4 			"/>
		</g>
		<g>
			<polygon class="st6" points="670.9,138.7 653.2,147.5 646.2,147.5 663.6,138.7 			"/>
		</g>
		<g>
			<polygon class="st6" points="681,145.9 662.7,154.4 653.4,154.4 671.1,145.9 			"/>
		</g>
		<g>
			<polygon class="st6" points="671.1,145.9 653.4,154.4 653.2,147.5 670.9,138.7 			"/>
		</g>
		<g>
			<polygon class="st9" points="680.1,107 681,145.9 671.1,145.9 670.9,138.7 663.6,138.7 663.4,131.4 656.1,131.4 656,124.1 
				651.4,124.1 651.8,145.9 641.9,145.9 641.1,107 651,107 651.2,114.2 658.5,114.2 658.6,121.5 665.9,121.5 666,128.8 670.7,128.8 
				670.2,107 			"/>
		</g>
		<g>
			<polygon class="st6" points="651.8,145.9 635.2,154.4 625.8,154.4 641.9,145.9 			"/>
		</g>
		<g>
			<polygon class="st6" points="641.9,145.9 625.8,154.4 625.1,117.6 641.1,107 			"/>
		</g>
	</g>
	<g class="st4">
		<g>
			<polygon class="st6" points="627.2,128.8 612,138.2 611.6,117.6 626.8,107 			"/>
		</g>
		<g>
			<polygon class="st6" points="612.5,124.1 598.1,133.8 593.7,133.8 607.9,124.1 			"/>
		</g>
		<g>
			<polygon class="st6" points="619.9,131.4 605.1,140.6 598.2,140.6 612.6,131.4 			"/>
		</g>
		<g>
			<polygon class="st6" points="612.6,131.4 598.2,140.6 598.1,133.8 612.5,124.1 			"/>
		</g>
		<g>
			<polygon class="st6" points="620.1,138.7 605.2,147.5 605.1,140.6 619.9,131.4 			"/>
		</g>
		<g>
			<polygon class="st6" points="627.4,138.7 612.1,147.5 605.2,147.5 620.1,138.7 			"/>
		</g>
		<g>
			<polygon class="st6" points="637.4,145.9 621.6,154.4 612.2,154.4 627.5,145.9 			"/>
		</g>
		<g>
			<polygon class="st6" points="627.5,145.9 612.2,154.4 612.1,147.5 627.4,138.7 			"/>
		</g>
		<g>
			<polygon class="st9" points="636.7,107 637.4,145.9 627.5,145.9 627.4,138.7 620.1,138.7 619.9,131.4 612.6,131.4 612.5,124.1 
				607.9,124.1 608.2,145.9 598.2,145.9 597.6,107 607.6,107 607.7,114.2 615,114.2 615.1,121.5 622.4,121.5 622.5,128.8 
				627.2,128.8 626.8,107 			"/>
		</g>
		<g>
			<polygon class="st6" points="608.2,145.9 594.1,154.4 584.7,154.4 598.2,145.9 			"/>
		</g>
		<g>
			<polygon class="st6" points="598.2,145.9 584.7,154.4 584.1,117.6 597.6,107 			"/>
		</g>
	</g>
	<g class="st4">
		<g>
			<polygon class="st6" points="593.4,116.9 580.1,126.9 573.2,126.9 586.1,116.9 			"/>
		</g>
		<g>
			<polygon class="st6" points="576.2,116.9 563.8,126.9 556.9,126.9 568.9,116.9 			"/>
		</g>
		<g>
			<polygon class="st6" points="568.9,116.9 556.9,126.9 556.8,117.6 568.7,107 			"/>
		</g>
		<g>
			<polygon class="st6" points="576.4,136 564.1,145 563.8,126.9 576.2,116.9 			"/>
		</g>
		<g>
			<polygon class="st9" points="593.2,107 593.4,116.9 586.1,116.9 586.4,136 593.7,136 593.8,145.9 569.2,145.9 569.1,136 
				576.4,136 576.2,116.9 568.9,116.9 568.7,107 			"/>
		</g>
		<g>
			<polygon class="st6" points="593.8,145.9 580.5,154.4 557.2,154.4 569.2,145.9 			"/>
		</g>
		<g>
			<polygon class="st6" points="569.2,145.9 557.2,154.4 557.2,145 569.1,136 			"/>
		</g>
	</g>
	<g class="st4">
		<g>
			<polygon class="st9" points="535.1,107 535.5,136 564.7,136 564.8,145.9 525.6,145.9 525.2,107 			"/>
		</g>
		<g>
			<polygon class="st6" points="564.8,145.9 553.1,154.4 516.1,154.4 525.6,145.9 			"/>
		</g>
		<g>
			<polygon class="st6" points="525.6,145.9 516.1,154.4 515.7,117.6 525.2,107 			"/>
		</g>
	</g>
	<g class="st4">
		<g>
			<polygon class="st9" points="491.6,107 491.8,136 521,136 521.1,146 481.9,146 481.6,107 			"/>
		</g>
		<g>
			<polygon class="st6" points="521.1,146 511.9,154.4 474.9,154.4 481.9,146 			"/>
		</g>
		<g>
			<polygon class="st6" points="481.9,146 474.9,154.4 474.6,117.6 481.6,107 			"/>
		</g>
	</g>
	<g class="st4">
		<g>
			<polygon class="st6" points="445.4,114.2 440.4,124.4 440.3,117.6 445.3,106.9 			"/>
		</g>
		<g>
			<polygon class="st6" points="467.3,116.9 461.1,126.9 442.9,126.9 448,116.9 			"/>
		</g>
		<g>
			<polygon class="st6" points="467.4,128.8 461.2,138.2 461.1,126.9 467.3,116.9 			"/>
		</g>
		<g>
			<polygon class="st6" points="467.5,138.7 461.2,147.6 443,147.6 448.1,138.7 			"/>
		</g>
		<g>
			<polygon class="st6" points="477.5,146 470.7,154.4 461.3,154.4 467.5,146 			"/>
		</g>
		<g>
			<polygon class="st6" points="467.5,146 461.3,154.4 461.2,147.6 467.5,138.7 			"/>
		</g>
		<g>
			<polygon class="st6" points="448.2,146 443,154.4 433.6,154.4 438.2,146 			"/>
		</g>
		<g>
			<path class="st9" d="M470,114.2h7.3l0.3,31.8h-10l-0.1-7.3h-19.3v7.3h-10l-0.2-31.8h7.3V107h24.6L470,114.2z M467.4,128.8
				l-0.1-11.9H448l0.1,11.9H467.4"/>
		</g>
		<g>
			<polygon class="st6" points="438.2,146 433.6,154.4 433.5,124.4 438,114.2 			"/>
		</g>
	</g>
	<g class="st4">
		<g>
			<polygon class="st6" points="433.6,116.8 429.2,126.9 415.5,126.9 419,116.8 			"/>
		</g>
		<g>
			<polygon class="st6" points="409,116.8 406,126.9 392.2,126.9 394.4,116.8 			"/>
		</g>
		<g>
			<polygon class="st6" points="394.4,116.8 392.2,126.9 392.2,117.6 394.3,106.9 			"/>
		</g>
		<g>
			<polygon class="st9" points="433.5,106.9 433.6,116.8 419,116.8 419.1,146 409.1,146 409,116.8 394.4,116.8 394.3,106.9 			"/>
		</g>
		<g>
			<polygon class="st6" points="419.1,146 415.6,154.4 406.1,154.4 409.1,146 			"/>
		</g>
		<g>
			<polygon class="st6" points="409.1,146 406.1,154.4 406,126.9 409,116.8 			"/>
		</g>
	</g>
	<g class="st4">
		<g>
			<polygon class="st6" points="358,114.2 357.9,124.4 357.9,117.6 358,106.9 			"/>
		</g>
		<g>
			<polygon class="st6" points="380,116.8 378.6,126.9 360.4,126.9 360.6,116.8 			"/>
		</g>
		<g>
			<polygon class="st6" points="380,136 378.7,145 378.6,126.9 380,116.8 			"/>
		</g>
		<g>
			<polygon class="st6" points="389.9,138.7 388,147.6 381.2,147.6 382.6,138.7 			"/>
		</g>
		<g>
			<polygon class="st6" points="358,138.7 357.9,147.6 351,147.6 350.6,138.7 			"/>
		</g>
		<g>
			<path class="st9" d="M382.6,114.2h7.3l0.1,24.5h-7.3v7.3H358v-7.3h-7.4v-24.5h7.3V107h24.6L382.6,114.2z M380,136v-19.2h-19.3
				V136H380"/>
		</g>
		<g>
			<polygon class="st6" points="358,146 357.9,154.4 357.9,147.6 358,138.7 			"/>
		</g>
		<g>
			<polygon class="st6" points="382.6,146 381.2,154.4 357.9,154.4 358,146 			"/>
		</g>
	</g>
</g>
</svg>
