<svg id="Layer_1" data-name="Layer 1" xmlns="http://www.w3.org/2000/svg" viewBox="0 0 425.2 425.2"><defs><style>.cls-1{fill:#fff;}.cls-2{fill:#1b2840;}.cls-3{fill:#f8dc14;}.cls-4{fill:#ec9a22;}.cls-5{fill:#c1d2e5;}</style></defs><circle class="cls-1" cx="212.6" cy="212.6" r="212.6"/><circle class="cls-2" cx="212.6" cy="212.6" r="199.02"/><path class="cls-1" d="M200.07,234.08l-5.21,30.85H109.75l22.4-134.12h96.39l-4.91,29.38H166.09l-3.48,21h44.22l-4.91,29.08H157.79l-3.93,23.78Z"/><polygon class="cls-1" points="156 130.81 150.79 161.66 220.68 161.66 198.85 293.7 248.62 221.11 224.72 219.7 257.43 161.75 259.62 161.75 259.64 161.66 302.94 161.66 308.05 130.81 156 130.81"/><polygon class="cls-3" points="267.24 208.67 288.85 171.36 264.23 171.36 240.53 213.38 264.35 214.46 219.03 280.55 249.23 256.46 286.1 208.67 267.24 208.67"/><polygon class="cls-4" points="290.5 203.63 315.04 171.36 288.85 171.36 267.24 208.67 286.1 208.67 249.23 256.46 315.44 203.63 290.5 203.63"/><path class="cls-5" d="M183.83,88.27,183,93H167.94l3.42-20.48h14.72L185.33,77h-8.79L176,80.2h7.38l-.75,4.44h-7.36l-.6,3.63Z"/><path class="cls-5" d="M194.51,72.5,191.09,93h-5.76l3.42-20.48Z"/><path class="cls-5" d="M210.92,86.51H200.48a8.73,8.73,0,0,0-.08.92A2,2,0,0,0,201,89a2.37,2.37,0,0,0,1.61.56,2.67,2.67,0,0,0,2.61-1.92l5.1.83a8.09,8.09,0,0,1-3.2,3.6,9.1,9.1,0,0,1-4.91,1.38,7.87,7.87,0,0,1-5.5-1.93,6.77,6.77,0,0,1-2.11-5.26,8.68,8.68,0,0,1,9-8.79,7.37,7.37,0,0,1,5.43,2,7.18,7.18,0,0,1,2,5.33A10.37,10.37,0,0,1,210.92,86.51Zm-5.46-2.91a4.72,4.72,0,0,0,.07-.72,2.15,2.15,0,0,0-.5-1.41,1.73,1.73,0,0,0-1.4-.6,2.47,2.47,0,0,0-1.74.73,3.24,3.24,0,0,0-1,2Z"/><path class="cls-5" d="M222.5,87.1l4.57,1.12a8,8,0,0,1-3.22,4.07,8.23,8.23,0,0,1-4.13,1.14,6.82,6.82,0,0,1-7.11-7.11A9.4,9.4,0,0,1,215,80a7.81,7.81,0,0,1,6.22-2.73A7,7,0,0,1,225.94,79a5.46,5.46,0,0,1,1.94,4.34l-5.14.6c0-1.64-.56-2.46-1.67-2.46-.95,0-1.62.67-2,2a12.64,12.64,0,0,0-.6,3.52c0,1.48.56,2.23,1.68,2.23S222,88.52,222.5,87.1Z"/><path class="cls-5" d="M239.61,77.82,239,81.69h-2.74l-.9,5.4a7,7,0,0,0-.14,1q0,1.11,1.41,1.11A6.72,6.72,0,0,0,238,89l-.66,4a14.94,14.94,0,0,1-3.11.34,6.13,6.13,0,0,1-2.73-.46,3.86,3.86,0,0,1-1.46-1.32,4.07,4.07,0,0,1-.56-2.25,16.07,16.07,0,0,1,.27-2.19l.89-5.41h-2.08l.65-3.87h2.09l.83-4.48,5.5-.1-.77,4.58Z"/><path class="cls-5" d="M241.88,77.82h5.05l-.61,3.66c1.05-2.74,2.66-4.1,4.83-4.1a4.4,4.4,0,0,1,.7.07l-.67,5.4c-.52,0-.87,0-1,0a3.78,3.78,0,0,0-2.75.87,5.74,5.74,0,0,0-1.25,3.11l-1,6.19h-5.77Z"/><path class="cls-5" d="M259.37,93.43a7.79,7.79,0,0,1-5.32-1.89,6.46,6.46,0,0,1-2.15-5.13A8.75,8.75,0,0,1,254.4,80a8.48,8.48,0,0,1,6.3-2.52,7.65,7.65,0,0,1,5.53,2,6.49,6.49,0,0,1,2,4.87A8.68,8.68,0,0,1,265.65,91,9,9,0,0,1,259.37,93.43Zm.24-3.69c1.05,0,1.76-.78,2.14-2.34a17.7,17.7,0,0,0,.56-3.92q0-2.4-1.74-2.4c-1,0-1.74.8-2.14,2.39a17.31,17.31,0,0,0-.59,3.91C257.84,89,258.43,89.74,259.61,89.74Z"/><path class="cls-5" d="M160.19,102.54l-2.66,15.82h-5.94l2.65-15.82h-4.38l.8-4.71h14.82l-.78,4.71Z"/><path class="cls-5" d="M177.88,118.36H172a6.83,6.83,0,0,1,0-.7,16,16,0,0,1,.11-1.81,5.57,5.57,0,0,1-5,2.86,4.93,4.93,0,0,1-3.5-1.25,4.08,4.08,0,0,1-1.33-3.12,4.73,4.73,0,0,1,.72-2.55,5.11,5.11,0,0,1,2-1.86,8.51,8.51,0,0,1,2.7-.9c.91-.15,2.71-.35,5.39-.6a2.8,2.8,0,0,0,.19-.87c0-.83-.58-1.24-1.74-1.24A2.65,2.65,0,0,0,169,108l-4.94-1q1.88-4.22,8.25-4.22a9.82,9.82,0,0,1,5.07,1.12,3.62,3.62,0,0,1,1.85,3.29q0,1-1.08,6.9a21,21,0,0,0-.41,2.93A6.85,6.85,0,0,0,177.88,118.36Zm-5.33-7.2c-2.76.21-4.13,1.09-4.13,2.64,0,.85.44,1.28,1.33,1.28a2.59,2.59,0,0,0,1.71-.77A5,5,0,0,0,172.55,111.16Z"/><path class="cls-5" d="M189.77,97.89l-3.42,20.47h-5.77L184,97.89Z"/><path class="cls-5" d="M198.68,97.89l-3.42,20.47h-5.77l3.42-20.47Z"/><path class="cls-5" d="M206.83,103.21l-2.54,15.15H198.4l2.54-15.15Zm1-5.8-.75,4.45h-5.88l.74-4.45Z"/><path class="cls-5" d="M210,103.21h5.28l-.4,2.46a4.12,4.12,0,0,1,2-2.21,6.48,6.48,0,0,1,2.93-.7,4.69,4.69,0,0,1,3.14,1,3.38,3.38,0,0,1,1.19,2.69A9.41,9.41,0,0,1,224,108l-1.74,10.35h-5.76l1.53-9.1a8.68,8.68,0,0,0,.15-1.16c0-.85-.45-1.27-1.35-1.27q-1.81,0-2.22,2.43l-1.53,9.1h-5.62Z"/><path class="cls-5" d="M227.92,103.21h5.28l-.4,2.46a4.12,4.12,0,0,1,2-2.21,6.56,6.56,0,0,1,2.94-.7,4.66,4.66,0,0,1,3.13,1,3.36,3.36,0,0,1,1.2,2.69,9.55,9.55,0,0,1-.15,1.54l-1.73,10.35h-5.77l1.53-9.1a8.68,8.68,0,0,0,.15-1.16c0-.85-.45-1.27-1.34-1.27q-1.82,0-2.22,2.43l-1.53,9.1h-5.63Z"/><path class="cls-5" d="M266.54,111.64H256.1a8.12,8.12,0,0,0-.07.92,1.94,1.94,0,0,0,.64,1.55,2.35,2.35,0,0,0,1.61.56,2.67,2.67,0,0,0,2.61-1.92l5.1.82a8.06,8.06,0,0,1-3.2,3.61,9.21,9.21,0,0,1-4.92,1.37,7.78,7.78,0,0,1-5.49-1.93,6.73,6.73,0,0,1-2.11-5.25,8.67,8.67,0,0,1,9-8.79,7.36,7.36,0,0,1,5.42,2,7.18,7.18,0,0,1,2,5.33A10.59,10.59,0,0,1,266.54,111.64Zm-5.46-2.91a5,5,0,0,0,.08-.72,2.15,2.15,0,0,0-.5-1.41,1.75,1.75,0,0,0-1.41-.6,2.51,2.51,0,0,0-1.74.72,3.29,3.29,0,0,0-1,2Z"/><path class="cls-5" d="M284.3,111.64H273.86a8.12,8.12,0,0,0-.07.92,1.94,1.94,0,0,0,.64,1.55,2.35,2.35,0,0,0,1.61.56,2.67,2.67,0,0,0,2.61-1.92l5.1.82a8.06,8.06,0,0,1-3.2,3.61,9.21,9.21,0,0,1-4.92,1.37,7.82,7.82,0,0,1-5.5-1.93,6.76,6.76,0,0,1-2.1-5.25,8.67,8.67,0,0,1,9-8.79,7.36,7.36,0,0,1,5.42,2,7.18,7.18,0,0,1,2,5.33A10.59,10.59,0,0,1,284.3,111.64Zm-5.46-2.91a5,5,0,0,0,.08-.72,2.15,2.15,0,0,0-.5-1.41A1.75,1.75,0,0,0,277,106a2.51,2.51,0,0,0-1.74.72,3.29,3.29,0,0,0-1,2Z"/><polygon class="cls-5" points="248.93 113.91 248.19 118.36 242.3 118.36 243.05 113.91 248.93 113.91"/><circle class="cls-1" cx="125.17" cy="297.48" r="21.59"/><path class="cls-4" d="M125.17,320.62a23.14,23.14,0,1,1,16.36-6.77A23.08,23.08,0,0,1,125.17,320.62Zm0-43.15a20,20,0,1,0,14.16,5.85A20,20,0,0,0,125.17,277.47Z"/><path class="cls-2" d="M129.81,298.11h2.11l0,.18a2.33,2.33,0,0,0,2.35,2h3.13a2.32,2.32,0,0,0,2.36-2.28v-1.1a2.33,2.33,0,0,0-2.36-2.28h-3.13a2.33,2.33,0,0,0-2.35,2l0,.18h-2.11v-9a4.64,4.64,0,0,0-9.28,0v9h-2.12l0-.18a2.32,2.32,0,0,0-2.34-2h-3.14a2.33,2.33,0,0,0-2.36,2.28V298a2.32,2.32,0,0,0,2.36,2.28h3.14a2.32,2.32,0,0,0,2.34-2l0-.18h2.12v9a4.64,4.64,0,0,0,9.28,0Zm3.42-1.18a1,1,0,0,1,1.06-1h3.13a1,1,0,0,1,1.06,1V298a1,1,0,0,1-1.06,1h-3.13a1,1,0,0,1-1.06-1ZM117.11,298a1,1,0,0,1-1.06,1h-3.14a1,1,0,0,1-1.06-1v-1.1a1,1,0,0,1,1.06-1h3.14a1,1,0,0,1,1.06,1Zm11.4-9.67-2,1.46a.61.61,0,0,0-.13.88.68.68,0,0,0,.91.13l1.24-.9v1.73l-2,1.47a.63.63,0,0,0-.26.41.62.62,0,0,0,.13.47.67.67,0,0,0,.91.12l1.24-.9V295l-2,1.46a.61.61,0,0,0-.13.88.68.68,0,0,0,.91.13l1.24-.9v1.73l-2,1.46a.61.61,0,0,0-.13.88.67.67,0,0,0,.91.13l1.24-.9v1.73l-2,1.47a.61.61,0,0,0-.13.88.67.67,0,0,0,.91.12l1.24-.9v1.74l-2,1.46a.61.61,0,0,0-.13.88.68.68,0,0,0,.91.13l1.24-.9v.67a3.34,3.34,0,0,1-6.68,0v-.67l1.24.9a.68.68,0,0,0,.91-.13.63.63,0,0,0-.13-.88l-2-1.46v-1.74l1.24.9a.67.67,0,0,0,.91-.12.63.63,0,0,0-.13-.88l-2-1.47v-1.73l1.24.9a.67.67,0,0,0,.91-.13.63.63,0,0,0-.13-.88l-2-1.46v-1.73l1.24.9a.68.68,0,0,0,.91-.13.63.63,0,0,0-.13-.88l-2-1.46v-1.74l1.24.9A.67.67,0,0,0,124,294a.61.61,0,0,0,.12-.47.58.58,0,0,0-.25-.41l-2-1.47v-1.73l1.24.9a.68.68,0,0,0,.91-.13.63.63,0,0,0-.13-.88l-2-1.46v-.51a3.34,3.34,0,0,1,6.68,0Z"/><circle class="cls-1" cx="178.74" cy="326.17" r="21.59"/><path class="cls-4" d="M178.74,349.31a23.14,23.14,0,1,1,16.36-6.77A23.08,23.08,0,0,1,178.74,349.31Zm0-43.16A20,20,0,1,0,192.9,312,20,20,0,0,0,178.74,306.15Z"/><path class="cls-2" d="M190.37,322.77a5.93,5.93,0,0,0-8.28-8.35l-.56-.55a.74.74,0,0,0-1.05,0L177.33,317a.75.75,0,0,0,0,1.05l.53.53-6.13,6.07-.52-.52a.74.74,0,0,0-1,0L167,327.24a.75.75,0,0,0,0,1.05l.56.56a5.93,5.93,0,0,0,8.28,8.35l.56.56a.73.73,0,0,0,1,0l3.16-3.13a.74.74,0,0,0,0-1.05l-.52-.52L186.2,327l.52.53a.73.73,0,0,0,1,0l3.16-3.13a.74.74,0,0,0,0-1.05ZM181,315.44l1,1.05-2.1,2.08-1-1.05Zm-10.33,10.25,1.05,1.05-2.11,2.08-1-1.05Zm3.63,10,.48.48a4.45,4.45,0,0,1-6.18-6.22c.38.33.54.7,1,.7a.74.74,0,0,0,.53-.21l1.05-1,4.18,4.21-1.06,1a.74.74,0,0,0,0,1Zm2.62.54-1-1.06,2.11-2.08,1,1.05Zm7.71-10.79.52.53L179,332l-.52-.52a.75.75,0,0,0-1,0l-1.05,1-4.18-4.21,1.05-1a.74.74,0,0,0,0-1l-.52-.53,6.12-6.07.52.52a.74.74,0,0,0,1.05,0l1-1,4.18,4.21-1.06,1A.74.74,0,0,0,184.63,325.4Zm2.62.54-1.05-1.06,2.11-2.08,1,1.05Zm2.06-4.23-.47-.48a.75.75,0,0,0-1.05,0l-1,1-4.18-4.21,1.05-1a.74.74,0,0,0,0-1l-.48-.48a4.44,4.44,0,0,1,6.17,6.22Z"/><circle class="cls-1" cx="239.14" cy="325.81" r="21.59"/><path class="cls-4" d="M239.14,349a23.15,23.15,0,1,1,16.37-39.52h0A23.15,23.15,0,0,1,239.14,349Zm0-43.18a20,20,0,1,0,14.16,5.87h0A19.9,19.9,0,0,0,239.14,305.78Z"/><path class="cls-2" d="M249.11,335.91a5.77,5.77,0,0,0,0-11.54,6.24,6.24,0,0,0-1.36.16l-.12,0-2.46-5.9,2.19-.73a.78.78,0,1,0-.49-1.49l-3.06,1a.78.78,0,0,0-.41,1l.65,1.56-8.44,2.2-1-2.28h1.52a.78.78,0,0,0,.78-.78.79.79,0,0,0-.78-.79h-4a.79.79,0,0,0-.78.79.78.78,0,0,0,.78.78h.77l1.31,3.06-1.94,2.27-.11-.06a5.77,5.77,0,1,0-3,10.68,5.81,5.81,0,0,0,5.7-4.86l0-.13h3.25a.81.81,0,0,0,.64-.32l6.15-8.44,1.26,3-.11.06a5.77,5.77,0,0,0,3,10.68Zm-15.85-4.81a4.2,4.2,0,1,1-2.16-4.69l.17.09-2.69,3.13a.78.78,0,0,0,.59,1.29h4.13Zm-2.38-1.74,4.05-4.73,2,4.73Zm7.44-.79-2.09-4.88,7-1.81Zm8.32-1.83.16-.11,1.58,3.81a.74.74,0,0,0,.43.42.78.78,0,0,0,1-1L248.24,326l.18,0a4,4,0,0,1,.69-.06,4.19,4.19,0,1,1-2.47.8Z"/><circle class="cls-1" cx="292.93" cy="297.48" r="21.59"/><path class="cls-4" d="M292.93,320.62a23.14,23.14,0,1,1,16.37-6.77A23.08,23.08,0,0,1,292.93,320.62Zm0-43.15a20,20,0,1,0,14.16,5.85A20,20,0,0,0,292.93,277.47Z"/><path class="cls-2" d="M303.38,301.79l-3.44-18.54h-4.29v1.6h3l2.3,12.4-2.86,5.24H284.74a3.39,3.39,0,1,0,.5,4.91h12l4.17-7.65.43,2.33a3.39,3.39,0,1,0,1.58-.29ZM282.68,307a1.8,1.8,0,1,1,1.79-1.79A1.8,1.8,0,0,1,282.68,307ZM286,305.8a3.18,3.18,0,0,0,.06-.62,3.56,3.56,0,0,0-.18-1.09h11.29l-.93,1.71ZM303.19,307a1.8,1.8,0,1,1,1.79-1.79A1.8,1.8,0,0,1,303.19,307Z"/><polygon class="cls-5" points="59.92 187.97 55 177.62 44.21 154.92 42.64 162.28 35.06 153.1 33.41 160.83 31.87 168.08 42.27 177.59 44.07 170.64 59.92 187.97"/><polygon class="cls-5" points="58.13 220.25 51.17 211.15 35.9 191.19 35.9 198.72 26.57 191.32 26.57 199.21 26.57 206.63 38.72 213.77 39.03 206.6 58.13 220.25"/><polygon class="cls-5" points="63.1 252.2 54.4 244.75 35.31 228.4 36.87 235.76 26.21 230.46 27.85 238.18 29.39 245.44 42.76 249.9 41.57 242.81 63.1 252.2"/><polygon class="cls-5" points="74.6 282.42 64.54 276.94 42.47 264.92 45.52 271.79 33.99 268.82 37.2 276.04 40.22 282.81 54.23 284.4 51.59 277.71 74.6 282.42"/><polygon class="cls-5" points="92.14 309.58 81.15 306.31 57.06 299.15 61.48 305.23 49.59 304.73 54.23 311.12 58.59 317.12 72.61 315.75 68.65 309.76 92.14 309.58"/><polygon class="cls-5" points="114.93 332.51 103.51 331.6 78.45 329.59 84.04 334.62 72.31 336.61 78.17 341.89 83.69 346.85 97.12 342.61 92 337.57 114.93 332.51"/><polygon class="cls-5" points="142 350.19 130.63 351.68 105.71 354.93 112.22 358.69 101.15 363.07 107.99 367.01 114.42 370.72 126.67 363.77 120.61 359.91 142 350.19"/><polygon class="cls-5" points="172.15 361.87 161.34 365.68 137.64 374.04 144.79 376.36 134.87 382.95 142.38 385.39 149.44 387.68 159.98 378.33 153.25 375.82 172.15 361.87"/><polygon class="cls-5" points="204.07 367.02 194.29 372.99 172.84 386.1 180.32 386.88 171.99 395.39 179.84 396.21 187.22 396.99 195.59 385.65 188.49 384.59 204.07 367.02"/><polygon class="cls-5" points="236.36 365.42 228.03 373.29 209.78 390.57 217.26 389.79 210.88 399.83 218.73 399.01 226.11 398.23 231.94 385.41 224.77 385.85 236.36 365.42"/><polygon class="cls-5" points="267.61 357.14 261.11 366.57 246.85 387.27 254 384.94 249.85 396.1 257.35 393.66 264.41 391.37 267.45 377.61 260.53 379.53 267.61 357.14"/><polygon class="cls-5" points="296.46 342.54 292.06 353.12 282.41 376.33 288.93 372.57 287.19 384.35 294.02 380.4 300.45 376.69 300.56 362.6 294.19 365.92 296.46 342.54"/><polygon class="cls-5" points="321.64 322.26 319.54 333.53 314.93 358.24 320.52 353.2 321.26 365.09 327.13 359.8 332.64 354.84 329.82 341.03 324.28 345.6 321.64 322.26"/><polygon class="cls-5" points="342.06 297.2 342.35 308.65 342.97 333.78 347.39 327.69 350.59 339.16 355.23 332.77 359.59 326.77 353.96 313.85 349.49 319.48 342.06 297.2"/><polygon class="cls-5" points="356.82 268.43 359.48 279.58 365.32 304.02 368.38 297.15 373.89 307.7 377.1 300.49 380.12 293.71 371.93 282.25 368.72 288.68 356.82 268.43"/><polygon class="cls-5" points="365.28 237.22 370.2 247.57 380.99 270.27 382.55 262.92 390.14 272.09 391.78 264.37 393.32 257.11 382.93 247.6 381.13 254.56 365.28 237.22"/><polygon class="cls-5" points="367.06 204.94 374.03 214.04 389.3 234 389.3 226.48 398.63 233.88 398.63 225.99 398.63 218.56 386.48 211.42 386.17 218.6 367.06 204.94"/><polygon class="cls-5" points="362.1 173 370.8 180.45 389.89 196.8 388.33 189.44 398.99 194.74 397.35 187.01 395.81 179.76 382.44 175.3 383.62 182.38 362.1 173"/><polygon class="cls-5" points="350.59 142.78 360.66 148.26 382.73 160.28 379.67 153.41 391.2 156.37 387.99 149.16 384.97 142.38 370.97 140.8 373.6 147.48 350.59 142.78"/><polygon class="cls-5" points="333.06 115.61 344.05 118.88 368.13 126.05 363.71 119.97 375.61 120.47 370.97 114.08 366.61 108.08 352.58 109.44 356.55 115.43 333.06 115.61"/><polygon class="cls-5" points="310.26 92.69 321.69 93.6 346.74 95.6 341.15 90.57 352.89 88.59 347.03 83.31 341.51 78.34 328.08 82.59 333.2 87.63 310.26 92.69"/><polygon class="cls-5" points="283.2 75 294.56 73.52 319.49 70.27 312.97 66.51 324.04 62.13 317.21 58.18 310.78 54.47 298.52 61.42 304.58 65.28 283.2 75"/><polygon class="cls-5" points="253.05 63.33 263.86 59.52 287.56 51.16 280.41 48.83 290.32 42.25 282.82 39.81 275.76 37.52 265.21 46.86 271.94 49.38 253.05 63.33"/><polygon class="cls-5" points="221.13 58.18 230.91 52.2 252.35 39.1 244.88 38.31 253.21 29.81 245.36 28.98 237.98 28.21 229.61 39.54 236.71 40.61 221.13 58.18"/><polygon class="cls-5" points="188.84 59.78 197.16 51.9 215.41 34.63 207.94 35.41 214.32 25.36 206.47 26.19 199.09 26.96 193.25 39.79 200.43 39.35 188.84 59.78"/><polygon class="cls-5" points="157.59 68.06 164.09 58.62 178.35 37.93 171.2 40.25 175.35 29.1 167.84 31.54 160.79 33.83 157.75 47.59 164.67 45.67 157.59 68.06"/><polygon class="cls-5" points="128.74 82.66 133.14 72.08 142.78 48.87 136.27 52.63 138.01 40.85 131.18 44.8 124.75 48.51 124.64 62.6 131.01 59.28 128.74 82.66"/><polygon class="cls-5" points="103.55 102.93 105.66 91.67 110.27 66.96 104.68 71.99 103.93 60.11 98.07 65.39 92.55 70.36 95.37 84.16 100.92 79.59 103.55 102.93"/><polygon class="cls-5" points="83.14 128 82.85 116.54 82.22 91.42 77.8 97.5 74.6 86.04 69.96 92.42 65.6 98.42 71.23 111.34 75.7 105.72 83.14 128"/><polygon class="cls-5" points="68.38 156.77 65.71 145.62 59.88 121.17 56.82 128.04 51.31 117.49 48.09 124.7 45.08 131.48 53.27 142.95 56.48 136.52 68.38 156.77"/></svg>