<svg id="Layer_1" data-name="Layer 1" xmlns="http://www.w3.org/2000/svg" viewBox="0 0 512 512" width="512px" height="512px"><defs><style>.cls-1{fill:#1a2740;}.cls-2{fill:#f8dc19;}.cls-3{fill:#ec990f;}</style></defs><path class="cls-1" d="M231.64,318.44l-10.13,60H56L99.56,117.62H287l-9.56,57.13H165.57l-6.78,40.89h86l-9.55,56.56H149.42l-7.66,46.24Z"/><polygon class="cls-1" points="145.93 117.62 135.8 177.62 271.72 177.62 229.26 434.38 326.05 293.22 279.58 290.47 343.18 177.78 347.44 177.78 347.47 177.62 431.69 177.62 441.63 117.62 145.93 117.62"/><polygon class="cls-2" points="362.26 269.03 404.28 196.48 356.4 196.48 310.33 278.18 356.63 280.29 268.51 408.8 327.23 361.96 398.94 269.03 362.26 269.03"/><polygon class="cls-3" points="407.48 259.22 455.2 196.48 404.28 196.48 362.26 269.03 398.94 269.03 327.23 361.96 456 259.22 407.48 259.22"/></svg>