<?xml version="1.0" encoding="utf-8"?>
<!-- Generator: Adobe Illustrator 25.0.1, SVG Export Plug-In . SVG Version: 6.00 Build 0)  -->
<svg version="1.1" id="Layer_1" xmlns="http://www.w3.org/2000/svg" xmlns:xlink="http://www.w3.org/1999/xlink" x="0px" y="0px"
	 viewBox="0 0 512 512" style="enable-background:new 0 0 512 512;" xml:space="preserve">
<style type="text/css">
	.st0{fill:#FFFFFF;}
</style>
<path class="st0" d="M20,512c-5.1,0-10.1-1.9-13.9-5.6c-5.8-5.7-7.7-14.3-4.6-21.9l45.4-112.3C16.2,332.3,0,285.4,0,236
	c0-63.4,26.9-122.9,75.6-167.5C123.9,24.3,188,0,256,0s132.1,24.3,180.4,68.5C485.1,113.1,512,172.6,512,236
	c0,45.4-14,89.6-40.6,127.6c-6.3,9.1-18.8,11.3-27.8,4.9s-11.3-18.8-4.9-27.8C460.5,309.4,472,273.2,472,236
	c0-108.1-96.9-196-216-196S40,127.9,40,236c0,43.8,15.6,85.2,45,119.8c4.8,5.7,6.1,13.6,3.3,20.5L57,453.8l91.3-40.3
	c5.1-2.2,10.8-2.3,15.9-0.1c28.8,12.3,59.7,18.5,91.7,18.5c36.9,0,73.3-8.6,105.3-24.8c9.9-5,21.9-1.1,26.9,8.8
	c5,9.8,1.1,21.9-8.8,26.9C341.8,461.9,299.2,472,256,472c-34.5,0-67.8-6.2-99.3-18.4L28.1,510.3C25.5,511.4,22.7,512,20,512z
	 M276,325V217c0-11-9-20-20-20s-20,9-20,20v108c0,11,9,20,20,20C267,345,276,336,276,325z M256,128c-11,0-20,9-20,20l0,0
	c0,11,9,20,20,20c11,0,20-9,20-20l0,0C276,137,267,128,256,128z"/>
</svg>
