<?xml version="1.0" encoding="utf-8"?>
<!-- Generator: Adobe Illustrator 25.0.1, SVG Export Plug-In . SVG Version: 6.00 Build 0)  -->
<svg version="1.1" id="Layer_1" xmlns="http://www.w3.org/2000/svg" xmlns:xlink="http://www.w3.org/1999/xlink" x="0px" y="0px"
	 viewBox="0 0 512 512" style="enable-background:new 0 0 512 512;" xml:space="preserve">
<style type="text/css">
	.st0{fill:#FFFFFF;}
</style>
<path class="st0" d="M431.5,253V40h-331c-11,0-20,9-20,20v335.4c6.3-2.2,13-3.4,20-3.4h20V100c0-11,9-20,20-20s20,9,20,20v292h271
	v-39c0-11,9-20,20-20s20,9,20,20v59c0,11-9,20-20,20h-351c-11,0-20,9-20,20s9,20,20,20h351c11,0,20,9,20,20s-9,20-20,20h-351
	c-33.1,0-60-26.9-60-60V60c0-33.1,26.9-60,60-60h351c11,0,20,9,20,20v233c0,11-9,20-20,20S431.5,264,431.5,253z M292.5,298
	L292.5,298c-11,0-20,9-20,20s9,20,20,20l0,0c11,0,20-9,20-20S303.5,298,292.5,298z M313.5,252.7c0-6.5,3.7-12.3,9.4-14.7
	c27.7-11.8,45.6-38.9,45.6-69c0-0.3,0-0.6,0-0.8c-0.5-41-33.9-74.2-75-74.2c-41.4,0-75,33.6-75,75c0,11,9,20,20,20s20-9,20-20
	c0-19.3,15.7-35,35-35c19.3,0,35,15.7,35,35c0,0.2,0,0.4,0,0.6c-0.2,13.8-8.5,26.2-21.3,31.7c-20.5,8.7-33.7,29-33.7,51.5v1.3
	c0,11,9,20,20,20s20-9,20-20L313.5,252.7L313.5,252.7z"/>
</svg>
