<?xml version="1.0" encoding="utf-8"?>
<!-- Generator: Adobe Illustrator 25.4.1, SVG Export Plug-In . SVG Version: 6.00 Build 0)  -->
<svg version="1.1" id="Layer_1" xmlns="http://www.w3.org/2000/svg" xmlns:xlink="http://www.w3.org/1999/xlink" x="0px" y="0px"
	 viewBox="0 0 512 512" style="enable-background:new 0 0 512 512;" xml:space="preserve">
<style type="text/css">
	.st0{fill:#FFFFFF;}
</style>
<g>
	<path class="st0" d="M326,0c7.9,2.8,16.4,4.5,23.7,8.6c18.6,10.5,28.8,27.2,30.7,48.5c0.4,4,2.2,5.8,5.1,7.7
		c27.5,17.9,45.1,42.9,51.6,75.2c1.5,7.4,1.8,15.2,1.8,22.8c0.2,49.3,0.1,98.7,0.1,148c0,2,0,3.9,0,6.1c8,0,15.5,0,23.7,0
		c0-1.7,0-3.5,0-5.2c0-27.2-0.1-54.3,0-81.5c0.1-13.1,12.1-21.3,23.3-15.9c7.2,3.5,9.5,9.7,9.5,17.3c-0.1,26.8,0,53.7,0,80.5
		c0,6.3,0,12.7,0,19c-0.1,12.5-6.4,18.8-18.7,18.9c-12.3,0-24.6,0-37.7,0c0,2.2,0,4.1,0,6c0,31.7,0,44.3,0,76c0,2.8,0,5.7-0.8,8.4
		c-2.1,7.5-9.5,12.2-17.2,11.4c-7.7-0.8-13.7-7-14.4-14.9c-0.2-2.3-0.2-4.7-0.2-7c0-95.3,0-171.6,0-267c0-26.1-10-47.5-29.7-64.4
		c-0.9-0.7-1.8-1.4-2.6-2c-4.1,5-7.7,10.2-12.1,14.7c-11.8,11.9-26.3,17.8-43,17.8c-63.7,0-127.4,0.4-191.1-0.3
		c-31.6-0.3-57.3-27.8-58.4-59.6C68.5,43,77.7,21.9,100.8,8.4c6.8-4,15-5.7,22.6-8.4C190.9,0,258.5,0,326,0z M225.2,32.8
		c-30.1,0-60.2,0-90.3,0c-3.5,0-7,0.1-10.4,0.9c-16.4,4.2-24.5,18.3-22,37.8c1.8,14.5,14.4,25,30.7,25.1c61.2,0.1,122.4,0.1,183.6,0
		c7.1,0,13.8-1.6,19.6-6.1c10.6-8.2,14.7-23.4,10-37.6c-4.1-12.5-14.8-20.1-29-20.1C286.7,32.8,255.9,32.8,225.2,32.8z"/>
	<path class="st0" d="M23.6,512c-9.7-3.9-12.7-11.2-12.7-21.3c0.2-109.1,0.2-218.3,0.1-327.4c0-24.7,5.9-47.4,20-67.8
		c4.4-6.3,10.8-8.9,17.7-7.4c6.3,1.4,11.8,6.8,12.2,13.6c0.2,4-1,8.7-3,12.2c-5.8,9.8-10.9,19.9-12.6,31.2
		c-0.9,5.4-1.5,10.9-1.5,16.4c-0.1,104.3-0.1,208.6-0.1,312.9c0,1.3,0,2.6,0,4.8c2.4,0,4.5,0,6.6,0c122.4,0,244.8,0,367.1,0
		c2.3,0,4.7-0.1,7,0.2c7.6,0.9,13.2,6.2,14.4,13.2c1.3,7.7-2.3,14.5-9.5,18c-0.9,0.4-1.7,0.9-2.5,1.4C292.4,512,158,512,23.6,512z"
		/>
	<path class="st0" d="M98.8,198.9c0,40.6,0,80.4,0,120.5c20.7,0,41.2,0,62.4,0c0-2,0-3.9,0-5.8c0-28-0.1-37,0-65
		c0-11.7,9.4-19.4,20.1-16.8c6.6,1.6,10.7,5.9,12,12.6c0.5,2.4,0.6,5,0.6,7.5c0,26.8,0,34.7,0,61.5c0,2,0,3.9,0,6.2
		c20.9,0,41.3,0,62.3,0c0-2.1,0-4,0-5.9c0-27.7,0-36.3,0-64c0-8.9,4.2-15.2,11.4-17.5c11-3.5,21.3,4.5,21.3,16.8
		c0.1,27.5,0,36,0,63.5c0,2.3,0,4.6,0,7.2c20.9,0,41.2,0,62.3,0c0.1-1.9,0.2-3.8,0.2-5.7c0-28.7,0-38.3,0-67
		c0-10.8,5.6-17.5,15-18.4c8.6-0.8,16.5,5.7,17.3,14.3c0.2,1.7,0.2,3.3,0.2,5c0,34.7,0,50.3,0,85c0,13.8-5.9,19.8-19.8,19.8
		c-92.8,0-185.6,0-278.4,0c-14,0-20-6-20-20.1c0-48.8,0-97.6,0-146.5c0-13.8,6.1-19.9,19.7-19.9c93.1,0,186.3,0,279.4,0
		c11.1,0,18.3,5.7,19,14.9c0.7,9.4-5.6,16.9-14.9,17.8c-2,0.2-4,0.1-6,0.1c-85.8,0-171.6,0-257.4,0
		C103.5,198.9,101.4,198.9,98.8,198.9z"/>
	<path class="st0" d="M225.2,400.9c23.1,0,46.2,0,69.3,0c7.3,0,13,4.1,15.5,10.5c2.4,6.3,1,13.7-4.4,17.6c-3.3,2.4-7.8,4.3-11.8,4.4
		c-45.9,0.3-91.7,0.3-137.6,0.1c-10.4,0-17.2-7.3-16.9-17c0.3-9.2,7.4-15.7,17.6-15.7C179.7,400.9,202.4,400.9,225.2,400.9z"/>
	<path class="st0" d="M479.2,191.2c-12.2,0.1-22.3-9.9-22.3-22s10.2-22.2,22.3-22.2c12,0.1,21.7,9.8,21.9,21.9
		C501.3,181.2,491.4,191.2,479.2,191.2z"/>
	<path class="st0" d="M247.2,267.2c0,12.2-10,22.2-22.2,22.1c-12.1-0.1-21.8-9.8-21.8-21.9c-0.1-12.5,9.7-22.1,22.1-22
		C237.5,245.5,247.1,255.1,247.2,267.2z"/>
	<path class="st0" d="M342,267.1c0.1,12.3-9.9,22.3-22.1,22.2c-12.1,0-21.9-9.7-21.9-21.8c-0.1-12.5,9.5-22.2,22-22.1
		C332.3,245.4,341.9,255,342,267.1z"/>
	<path class="st0" d="M108.3,266.9c0.2-12.2,9.8-21.7,22.1-21.5c12.5,0.1,22.2,10,22,22.3c-0.2,12-10.2,21.7-22.2,21.6
		C117.8,289.2,108.1,279.3,108.3,266.9z"/>
	<path class="st0" d="M232.1,64.6c0-12.3,10-22.1,22.3-21.9c12.1,0.1,21.7,9.9,21.8,21.9c0,12.2-9.9,22.3-22.1,22.3
		C242,86.9,232,76.8,232.1,64.6z"/>
	<path class="st0" d="M312.3,42.9c12.4,0.1,21.9,9.5,21.9,21.8S324.2,87,312,86.9c-12.2-0.1-22-10.3-21.9-22.6
		C290.2,52.1,299.8,42.8,312.3,42.9z"/>
	<path class="st0" d="M138.1,42.9c12.6,0,22.3,9.6,22.2,22c-0.1,12-10.1,21.9-22,22c-12.2,0.1-22.1-10-22.1-22.3
		C116.2,52.2,125.6,42.9,138.1,42.9z"/>
	<path class="st0" d="M174.1,64.5c0.1-12.3,10-22.1,22.3-21.9c12.1,0.2,21.8,10,21.8,22c0,12.1-10.1,22.3-22.2,22.2
		C183.9,86.8,174,76.8,174.1,64.5z"/>
</g>
</svg>
