<?xml version="1.0" encoding="utf-8"?>
<!-- Generator: Adobe Illustrator 25.0.1, SVG Export Plug-In . SVG Version: 6.00 Build 0)  -->
<svg version="1.1" id="Layer_1" xmlns="http://www.w3.org/2000/svg" xmlns:xlink="http://www.w3.org/1999/xlink" x="0px" y="0px"
	 viewBox="0 0 512 512" style="enable-background:new 0 0 512 512;" xml:space="preserve">
<style type="text/css">
	.st0{fill:#FFFFFF;}
</style>
<path class="st0" d="M264,317c-11,0-20-9-20-20V178.3l-19.7,11.8c-9.5,5.7-21.8,2.6-27.4-6.9c-5.7-9.5-2.6-21.8,6.9-27.4l24.3-14.6
	c11.4-6.8,25.7-7,37.3-0.5c11.6,6.6,18.8,18.9,18.8,32.2v124C284,308.1,275,317,264,317L264,317z M461.6,290.7
	C512.3,150.7,405-1.4,256,0C107-1.4-0.3,150.8,50.4,290.7c3.7,10.4,15.1,15.9,25.5,12.2c10.4-3.7,15.9-15.1,12.2-25.5
	C46.4,164,135.1,38.4,256,40c120.9-1.6,209.6,124,167.9,237.3c-3.7,10.4,1.8,21.8,12.2,25.5c2.2,0.8,4.5,1.1,6.7,1.1
	C451,304,458.7,298.9,461.6,290.7L461.6,290.7z M312.8,407.9c26.1-4.7,20.9-42.3-5.5-39.6c-17.7,2.5-34.4,3.7-49.6,3.7h-0.2
	c-15.3,0-31.9-1.3-49.6-3.7c-26.4-2.6-31.7,34.9-5.5,39.6c19.5,2.7,38.1,4.1,55.2,4.1h0.2C274.7,412,293.3,410.6,312.8,407.9z
	 M345.6,501.5c32.1-6.8,55.4-35.6,55.4-68.5v-27c0-12.1,9.9-22,22-22h41.5l-15.2,16.4c-7.1,7.7-7.1,19.5,0,27.1l15.2,16.4H451
	c-26.5,1.1-26.5,39,0,40h26.8c29.6,0.1,45.3-35.9,25-57.5L491.2,414l11.5-12.5c20.3-21.6,4.7-57.6-25-57.5H423
	c-34.2,0-62,27.8-62,62v27c0,14.1-10,26.4-23.7,29.3c-54,12.4-108.7,12.4-162.6,0C161,459.5,151,447.1,151,433v-27
	c0-34.2-27.8-62-62-62H34.2c-29.6-0.1-45.3,35.9-25,57.5L20.8,414L9.2,426.5c-20.3,21.6-4.6,57.6,25,57.5H61c26.5-1.1,26.5-39,0-40
	H47.5l15.2-16.4c7.1-7.7,7.1-19.5,0-27.1L47.5,384H89c12.1,0,22,9.9,22,22v27c0,32.9,23.3,61.7,55.4,68.5
	c32.9,7,63.1,10.5,89.6,10.5S312.7,508.5,345.6,501.5L345.6,501.5z"/>
</svg>
