<svg xmlns="http://www.w3.org/2000/svg" xmlns:xlink="http://www.w3.org/1999/xlink" viewBox="0 0 4000 360"><style>
@keyframes oz0p1gb3lp5v9j1p76kxghts_t { 0% { transform: translate(1671.4px,190.1px) scale(1,1) translate(-76.5px,-116.6px); } 26.667% { transform: translate(1710.1px,210.7px) scale(1,1) translate(-76.5px,-116.6px); } 57.778% { transform: translate(1722.8px,196.3px) scale(1,1) translate(-76.5px,-116.6px); } 100% { transform: translate(1671.3px,190.1px) scale(1,1) translate(-76.5px,-116.6px); } }
@keyframes genyi7ltsjl3hqwcqn9hhbo5_o { 0% { opacity: 1; } 100% { opacity: .5; } }
@keyframes vi01g2p3hrhe7q0iw83c0tre_d { 0% { d: path('M1613.2,136.6C1616.6,136.6,1638.8,110.8,1638.8,110.8C1638.8,110.8,1646.6,101,1655.4,97.6C1656.1,97.3,1656.8,97.2,1657.4,97.1L1667.4,92.7L1674,104.7L1668.3,108.7L1667.2,107.7C1667.6,109.6,1667.7,111.5,1667.5,113C1667.5,113,1665.2,133.7,1652.8,143.6C1640.4,153.5,1601.6,158.3,1601.6,158.3L1594.8,129.7C1594.8,129.5,1609.8,136.6,1613.2,136.6Z'); animation-timing-function: cubic-bezier(0,0,.6,1); } 16.667% { d: path('M1614.8,129.7C1618.2,129.7,1638.8,110.8,1638.8,110.8C1638.8,110.8,1646.6,101,1655.4,97.6C1656.1,97.3,1656.8,97.2,1657.4,97.1L1667.4,92.7L1674,104.7L1668.3,108.7L1667.2,107.7C1667.6,109.6,1667.7,111.5,1667.5,113C1667.5,113,1665.2,133.7,1652.8,143.6C1640.4,153.5,1594.8,150.5,1594.8,150.5L1601.6,129.7C1601.6,129.5,1611.4,129.7,1614.8,129.7Z'); animation-timing-function: cubic-bezier(0,0,.6,1); } 66.667% { d: path('M1614.8,125.5C1618.2,125.5,1638.8,110.8,1638.8,110.8C1638.8,110.8,1646.6,101,1655.4,97.6C1656.1,97.3,1656.8,97.2,1657.4,97.1L1667.4,92.7L1674,104.7L1668.3,108.7L1667.2,107.7C1667.6,109.6,1667.7,111.5,1667.5,113C1667.5,113,1665.2,133.7,1652.8,143.6C1640.4,153.5,1599.8,159.5,1599.8,159.5L1609.8,143.6C1609.8,143.4,1611.4,125.5,1614.8,125.5Z'); animation-timing-function: cubic-bezier(0,0,.6,1); } 100% { d: path('M1613.2,136.6C1616.6,136.6,1638.8,110.8,1638.8,110.8C1638.8,110.8,1646.6,101,1655.4,97.6C1656.1,97.3,1656.8,97.2,1657.4,97.1L1667.4,92.7L1674,104.7L1668.3,108.7L1667.2,107.7C1667.6,109.6,1667.7,111.5,1667.5,113C1667.5,113,1665.2,133.7,1652.8,143.6C1640.4,153.5,1601.6,158.3,1601.6,158.3L1594.8,129.7C1594.8,129.5,1609.8,136.6,1613.2,136.6Z'); } }
@keyframes c3tlkuoqr7m31jlfsmbibzqh_t { 0% { transform: translate(1527.1px,227.2px) scale(1,1) translate(-51.4px,-126.6px); } 16.049% { transform: translate(1569.2px,213.6px) scale(1,1) translate(-51.4px,-126.6px); } 54.321% { transform: translate(1646.2px,220.7px) scale(1,1) translate(-51.4px,-126.6px); } 100% { transform: translate(1527.1px,227.2px) scale(1,1) translate(-51.4px,-126.6px); } }
@keyframes ty5wo5vtaaux6gin3tvfbc16_o { 0% { opacity: 1; } 100% { opacity: .5; } }
@keyframes a6_t { 0% { transform: translate(1533.9px,226.1px); } 50% { transform: translate(1527.4px,226.2px); } 100% { transform: translate(1533.9px,226.1px); } }
@keyframes ie18rej9lpiwclpovnce57ag_t { 0% { transform: rotate(0deg) scale(1,1) translate(-44.7px,-125.4px); animation-timing-function: cubic-bezier(0,0,.6,1); } 50% { transform: rotate(-3deg) scale(1,1) translate(-44.7px,-125.4px); animation-timing-function: cubic-bezier(.4,0,1,1); } 100% { transform: rotate(0deg) scale(1,1) translate(-44.7px,-125.4px); } }
@keyframes vs46w4bqagm0zrp6oblqen35_t { 0% { transform: translate(2263.7px,192.9px) scale(1,1) translate(-46.6px,-117.8px); } 24% { transform: translate(2229.6px,202.6px) scale(1,1) translate(-46.6px,-117.8px); } 66.667% { transform: translate(2192.6px,191.4px) scale(1,1) translate(-46.6px,-117.8px); } 100% { transform: translate(2263.7px,192.9px) scale(1,1) translate(-46.6px,-117.8px); } }
@keyframes wky1lh6553davxmkinxyzk0x_o { 0% { opacity: 1; } 100% { opacity: .5; } }
@keyframes ys177g9r89pxs8e25tm8v3ah_t { 0% { transform: translate(2418px,234.8px) scale(1,1) translate(-98.9px,-112.5px); } 20.652% { transform: translate(2405px,220.7px) scale(1,1) translate(-98.9px,-112.5px); } 60.87% { transform: translate(2328.5px,234.8px) scale(1,1) translate(-98.9px,-112.5px); } 100% { transform: translate(2418px,234.8px) scale(1,1) translate(-98.9px,-112.5px); } }
@keyframes ezye52vbi54onda0xbdcv8v1_o { 0% { opacity: 1; } 100% { opacity: .5; } }
@keyframes qwx64vngpqlvjem9su9uvpes_d { 0% { d: path('M2400.1,140.1C2400.1,140.1,2398,146.1,2387.7,139.5C2377.4,132.9,2363.2,136.3,2357.2,142.7C2351.2,149,2352.1,160.4,2342.7,162.6C2333.3,164.8,2324.9,161.3,2319.1,166.4C2319.1,166.4,2321.2,170.8,2332.1,182.5C2342.1,193.2,2350.8,198.6,2357.8,197.3C2364.8,196,2364.1,181.2,2368.7,177.7C2373.2,174.2,2386.5,181.2,2386.5,181.2L2398.3,157.5L2400.1,140.1Z'); animation-timing-function: cubic-bezier(0,0,.6,1); } 60% { d: path('M2400.1,140.1C2400.1,140.1,2386.4,146.7,2376.1,140.1C2365.8,133.5,2363.8,145.9,2357.8,152.3C2351.8,158.6,2341.5,155.3,2332.1,157.5C2322.7,159.7,2326.1,166.3,2332.1,174.3C2332.1,174.3,2321.2,179.6,2332.1,191.3C2342.1,202,2343.1,188.6,2350.1,187.3C2357.1,186,2365.5,190.8,2370.1,187.3C2374.6,183.8,2386.5,181.2,2386.5,181.2L2398.3,157.5L2400.1,140.1Z'); animation-timing-function: cubic-bezier(0,0,.6,1); } 100% { d: path('M2400.1,140.1C2400.1,140.1,2398,146.1,2387.7,139.5C2377.4,132.9,2363.2,136.3,2357.2,142.7C2351.2,149,2352.1,160.4,2342.7,162.6C2333.3,164.8,2324.9,161.3,2319.1,166.4C2319.1,166.4,2321.2,170.8,2332.1,182.5C2342.1,193.2,2350.8,198.6,2357.8,197.3C2364.8,196,2364.1,181.2,2368.7,177.7C2373.2,174.2,2386.5,181.2,2386.5,181.2L2398.3,157.5L2400.1,140.1Z'); } }
@keyframes aoal85ypnm3bpp9tlzwvwe59_f { 0% { fill: #f9db00; } 50% { fill: #fff; } 60% { fill: #f9db00; } 80% { fill: #f9db00; } 90% { fill: #fff; } 100% { fill: #f9db00; } }
@keyframes roec52y0cbnpp4yzk2h3q8en_f { 0% { fill: #f9db00; } 50% { fill: #fff; } 60% { fill: #f9db00; } 80% { fill: #f9db00; } 90% { fill: #fff; } 100% { fill: #f9db00; } }
@keyframes ycgshhwygmfetpq20t6ewcrk_f { 0% { fill: #f9db00; } 50% { fill: #fff; } 60% { fill: #f9db00; } 80% { fill: #f9db00; } 90% { fill: #fff; } 100% { fill: #f9db00; } }
@keyframes w77rcou11zs9d64fo4psti9b_f { 0% { fill: #f9db00; } 50% { fill: #fff; } 60% { fill: #f9db00; } 80% { fill: #f9db00; } 90% { fill: #fff; } 100% { fill: #f9db00; } }
@keyframes xztyg3t0wi8f9r4nfe8kh9g6_t { 0% { transform: translate(1999.9px,84.1px) scale(1,1) translate(-1999.9px,-84.1px); } 100% { transform: translate(0px,84.1px) scale(1,1) translate(-1999.9px,-84.1px); } }
@keyframes a18_t { 0% { transform: translate(461.3px,111.9px); } 26.667% { transform: translate(0px,111.9px); } 28.123% { transform: translate(-25px,123.2px); } 29.583% { transform: translate(-49.7px,134.8px); } 32.5% { transform: translate(-99.5px,158.5px); } 38.333% { transform: translate(-198.6px,206.8px); } 44.167% { transform: translate(-297.4px,256px); } 50% { transform: translate(-395.3px,306.3px); animation-timing-function: steps(1, start); } 50.333% { transform: translate(1447.1px,308.3px); } 53.207% { transform: translate(1383px,280.3px); } 56.083% { transform: translate(1318.1px,253.5px); } 61.833% { transform: translate(1187.6px,202.2px); } 67.583% { transform: translate(1056.2px,153.9px); } 70.457% { transform: translate(989.8px,131.4px); } 71.893% { transform: translate(956.4px,121px); } 72.613% { transform: translate(939.5px,116.2px); } 73.333% { transform: translate(922.6px,111.9px); } 100% { transform: translate(461.3px,111.9px); } }
@keyframes pzy9vvwgb9i0l2tkxddxvy53_t { 0% { transform: scale(1,1) translate(-461.3px,-111.9px); } 26.667% { transform: scale(1,1) translate(-461.3px,-111.9px); } 50% { transform: scale(.5,.5) translate(-461.3px,-111.9px); } 73.333% { transform: scale(1,1) translate(-461.3px,-111.9px); } 100% { transform: scale(1,1) translate(-461.3px,-111.9px); } }
@keyframes yh78xghe0w0skv97bc207plu_t { 0% { transform: translate(1906.1px,2.4px) scale(1,1) translate(-1906.1px,-2.4px); } 100% { transform: translate(1826.1px,2.4px) scale(1,1) translate(-1906.1px,-2.4px); } }
</style><defs><symbol id="e3hlnx5pbnadz4rr1pdoamnt" preserveAspectRatio="none" width="1041.2" height="280.3" viewBox="0 0 1041.2 280.3" overflow="visible"><g transform="translate(-1475.7,-73.5)"><g transform="translate(1671.4,190.1) translate(-76.5,-116.6)" style="animation: 9s linear infinite both oz0p1gb3lp5v9j1p76kxghts_t;"><g transform="translate(-1594.8,-73.5)"><path class="st11" d="M1603.3 303.5c0 1.8 32.4 3.2 72.3 3.2c39.9 0 72.3-1.4 72.3-3.2c0-1.8-32.4-3.2-72.3-3.2c-39.8 0-72.3 1.4-72.3 3.2Z" fill="#ccd9ec" style="animation: 16.4s linear both genyi7ltsjl3hqwcqn9hhbo5_o;"/><g><g><g><ellipse cx="1721.8" cy="288.9" class="st0" rx="14.6" ry="14.6" fill="#23293f"/><ellipse cx="1721.8" cy="288.9" class="st11" rx="9.3" ry="9.3" fill="#ccd9ec"/></g><g><ellipse cx="1629" cy="288.9" class="st0" rx="14.6" ry="14.6" fill="#23293f"/><ellipse cx="1629" cy="288.9" class="st11" rx="9.3" ry="9.3" fill="#ccd9ec"/></g><path class="st12" d="M1626.4 287.9c.4-0.8 1.3-1.2 2.3-1.4c1.3-0.3 2.9-0.2 3.8-0.2c14 0 28 0 41.9 0c6.8 0 13.6 0 20.4 0c-0.3-5.3 .5-21.3 20-27c1.7 7.5 2.3 9.2 2.3 9.2c0 0-12 4-13.3 17.7c.5 0 1.1 0 1.6 0l-0.2 5.7c-10.7 0-21.4 0-32.1 0c-13.7 0-27.5 .3-41.2 0c-2.6-0.1-7.2-0.3-5.5-4Z" fill="#427fa9"/><g><path class="st11" d="M1704.6 183.5l9 44.6l-5.1 .7l-8.7-45.4Z" fill="#ccd9ec"/><path class="st11" d="M1696.6 185.7c0 1.4 1.1 2.5 2.5 2.5c1.4 0 2.5-1.1 2.5-2.5c0-1.4-1.1-2.5-2.5-2.5c-1.3 0-2.5 1.1-2.5 2.5Z" fill="#ccd9ec"/></g><path class="st5" d="M1715.3 222.7l-9.4 1.1l11.3 65.6c0 0 .9 3.4 5.7 3c4.2-0.3 3.8-4 4-4.7c.1-0.7-11.6-65-11.6-65Z" fill="#88abc5"/></g><g><g><path class="st12" d="M1673.7 220.9c-26.6-34.5-42.2-59.7-42.2-59.7l30.3 3.1c0 0 29.1 40.2 32.5 51.2c1.8 5.6-7.4 37.2-12.8 53.4l-13.9-0.9c.4-13.3 1.7-31.6 6.1-47.1Z" fill="#427fa9"/><path class="st15" d="M1691.8 286h-24c0 0-0.4-7.4-0.1-18l13.9 .9c-2.3 6.7-3.9 11.4-3.9 11.4l14.1 5.7Z" fill="#f7d5d4"/><g><path class="st0" d="M1679.9 277.1c0 0-1.1-0.7-3.8 .5c-2.7 1.3-5.5 4.2-8.9 1.4l-0.7 5.1l23.8 .5l-10.4-7.5Z" fill="#23293f"/><path class="st11" d="M1666.5 285.9l23.7 .4v-1.8l-23.7-0.4Z" fill="#ccd9ec"/></g></g><g><path class="st13" d="M1678 121.3l-0.2 23.2l24.1 32.4c0 0 6.8 2.3 5.3 7c-2.3 1.7-2.3 1.7-2.3 1.7l-1.3-3l-3.2-2.6l-4.1 .8c0 0-30.4-23.8-32.6-33.8c-2.3-10-3-25.1-3-25.1l17.3-0.6Z" fill="#f3bfca"/><path class="st14" d="M1674.2 101.1c0 0 7 4.7 5.1 21.9c-11.7 3.4-14 4.1-14 4.1l-1.1-27.7c0 0 6.2-2.2 10 1.7Z" fill="#fadc00"/><path class="st10" d="M1662.1 97l5.1-4.3l5.5 .7l6.7 12.1l-5.7 3.9Z" fill="#eb9900"/></g><g><path class="st5" d="M1625.1 179.6c-6.2-9.9-4.2-17.8-4.2-17.8c2.5-2 28 1.7 28 1.7c0 0 15.6 36.2 20.4 47.5c4.8 11.3 3.7 13.9 3.7 13.9l-14.7 42.9l-12.5-0.7c1.3-32.7 6.3-45.1 6.3-45.1c0 0-20.8-32.5-27-42.4Z" fill="#88abc5"/><path class="st15" d="M1654.8 277.8l13 8.2h-21.8c0 0-0.6-2.8-0.6-9.3c0-3.4 .1-6.5 .3-9.5l12.5 .7l-3.4 9.9Z" fill="#f7d5d4"/><g><path class="st0" d="M1657.4 277.1c0 0-1.1-0.7-3.8 .5c-2.7 1.3-5.5 4.2-8.9 1.4l-0.7 5.1l23.8 .5l-10.4-7.5Z" fill="#23293f"/><path class="st11" d="M1644 285.9l23.7 .4v-1.8l-23.7-0.4Z" fill="#ccd9ec"/></g></g><path class="st11" d="M1667.4 94.2l6.8 13c-2 13.7-3.5 27.5-5.9 41.1c-0.7 3.7-0.4 11.8-3 19.6c-0.4 1.3-7.6 .2-8.9 0c-11.9-1.5-23.6-4.6-35.5-6.1c0 0 3.4-34.4 17.9-51c14.5-16.6 28.6-16.6 28.6-16.6Z" fill="#ccd9ec"/><g><g><path class="st15" d="M1695.6 83.1c0 0 4.9 11.3 .7 17c-4.2 5.7-12.5-0.7-15.8-6.4c-3.3-5.7-3.3-9.8 .2-14.5c3.6-4.7 11.6-2.5 14.9 3.9Z" fill="#f7d5d4"/><path class="st15" d="M1685.4 96.3l-13.4 10.7c0 0-3.1 5-6.1-11.7c15.8-4.9 17.8-6.7 17.8-6.7l1.7 7.7Z" fill="#f7d5d4"/></g><g><path class="st0" d="M1684.4 91c0 0 6.7 10.4 8.6 11.5c-1.3 .4-2.5 .4-2.5 .4c-3.2-2.9-7.3-9.1-7.9-11.5l1.8-0.4Z" fill="#23293f"/><path class="st10" d="M1698.8 81.7l-12.2 3.8c0 0 .6 5.5-1.7 7.7c-2.3 2.1-5.5 2.1-5.5 2.1c0 0-3.6-3.8-4.2-10.5c-0.6-6.8 4-9.1 9.3-10.4c3.9-0.9 11.4-0.5 14.3 7.3Z" fill="#eb9900"/></g></g><path class="st10" d="M1613.2 136.6c3.4 0 25.6-25.8 25.6-25.8c0 0 7.8-9.8 16.6-13.2c.7-0.3 1.4-0.4 2-0.5l10-4.4l6.6 12l-5.7 4l-1.1-1c.4 1.9 .5 3.8 .3 5.3c0 0-2.3 20.7-14.7 30.6c-12.4 9.9-51.2 14.7-51.2 14.7l-6.8-28.6c0-0.2 15 6.9 18.4 6.9Z" fill="#eb9900" style="animation: .6s linear infinite both vi01g2p3hrhe7q0iw83c0tre_d;"/><g><path class="st15" d="M1666.5 119.6c0 0 .8 23.2 4.9 27.5c4.1 4.3 27 30 27 30l7 4.1c0 0 .4 5.3-1.7 6.4c-2.1 1.1-2.6 .2-2.6 .2c.8-2.1 1.1-4 1.1-4c-0.8-0.4-3.8-1.3-5.7 .4c-1.9 1.7-3-3-3-3c-19-10.8-31.9-19.8-38.9-27.3c-4.6-5-9.8-17.7-11.5-26.4c15.8-5.8 23.4-7.9 23.4-7.9Z" fill="#f7d5d4"/><path class="st14" d="M1662.7 96.6c0 0 4.1 .6 5.5 8.1c1.3 7.5 0 15.7 0 15.7l-26.6 9.8c0 0-3-8.5 2.8-20.7c5.8-12.2 15.3-14.4 18.3-12.9Z" fill="#fadc00"/></g></g></g></g></g><g transform="translate(1527.1,227.2) translate(-51.4,-126.6)" style="animation: 8.1s linear infinite both c3tlkuoqr7m31jlfsmbibzqh_t;"><g transform="translate(-1475.7,-100.6)"><path class="st11" d="M1475.7 349.6c0 2.3 20.1 4.2 44.9 4.2c24.8 0 44.9-1.9 44.9-4.2c0-2.3-20.1-4.2-44.9-4.2c-24.8 0-44.9 1.9-44.9 4.2Z" fill="#ccd9ec" style="animation: 39.5s linear both ty5wo5vtaaux6gin3tvfbc16_o;"/><g style="animation: 2s linear infinite both a6_t;"><g transform="translate(1533.9,226.1) translate(-44.7,-125.4)" style="animation: 2s linear infinite both ie18rej9lpiwclpovnce57ag_t;"><g transform="translate(-1489.2,-100.6)"><path class="st12" d="M1541.1 207.7l5.6-0.1c0 0-4.6 42.8-5.8 52.2c-1.1 9.5-19.8 71.6-19.8 71.6l-10.7-2.6c0 0 1.4-58.4 7.9-68.3c-1.6-28.5-3.8-44.5-0.5-49.8c3.3-5.3 14.7-9.9 14.7-9.9l8.6 6.9Z" fill="#427fa9"/><g><path class="st13" d="M1553.6 206.4c.1 .4 3 9.8 3 9.8c0 0 2.3 .9 3.7 3c1.4 2.1-2.7 2.8-4.3 3c-1.7-4-2.6-3.6-2.6-3.6l-6.4-11.4l6.6-0.8Z" fill="#f3bfca"/><path class="st12" d="M1554.2 199.3c.3 .5 3.5 14.8 2.9 15c-0.6 .2-8.1 1.5-8.1 1.5l-7.8-19.1l13 2.6Z" fill="#427fa9"/></g><g><path class="st0" d="M1538.3 140.9c0 0 3.5-6.7-0.3-8.8c-3.8-2.1-5.8 8.1-5.8 8.1l2.4 .2c0 0 .7-5.7 1.9-6.6c1.3-0.8 2.2 3.4 .2 6.7l1.6 .4Z" fill="#23293f"/><path class="st14" d="M1542.4 145.5c0 0-2.2-6.4-8.5-7c-6.3-0.5-11.6 5.2-14.5 19.2c-7.2 9.8-18.9 13-19.3 19.5c-0.4 6.4 15 21.3 21.5 21.1c13-30.5 20.8-52.8 20.8-52.8Z" fill="#fadc00"/></g><g><g><ellipse cx="1515.2" cy="325.2" class="st0" rx="26" ry="26.3" fill="#23293f"/><ellipse cx="1515.2" cy="325.2" class="st11" rx="16.6" ry="16.8" fill="#ccd9ec"/><ellipse cx="1515.2" cy="325.2" class="st0" rx="7.7" ry="7.8" fill="#23293f"/></g></g><path class="st5" d="M1542.1 219.7c0 0-6.5 39.5-9.4 51.8c-2.9 12.4-17.4 58.4-17.4 58.4l-8-2c0 0 .3-43.1 .9-53.9c.6-10.8 3.5-17.6 3.5-17.6c-2-20-1.5-41.9 .3-47.2c1.8-5.3 5.8-11.6 17.1-12.5c5.6 4.4 12.5-0.6 13 23Z" fill="#88abc5"/><g><path class="st15" d="M1559.1 131.1l-4.2 17.3c0 0 .5 6.4-11.5-7.4c9.5-13.3 10.1-16 10.1-16l5.6 6.1Z" fill="#f7d5d4"/><path class="st15" d="M1568.7 115c0 0 .3 13.2-5.6 17.7c-5.9 4.4-10.9-4.8-11.8-11.6c-0.9-6.9 .7-11.2 5.5-14.8c4.9-3.8 11.3 1 11.9 8.7Z" fill="#f7d5d4"/><path class="st0" d="M1560.9 116l-3 8c-1.5-5-2.9-4.8-4.6-4.1c-1.7 .7 1.1 5.3 2.7 6c-3.5-0.6-4-1.7-4-1.7c0 0-2.1-4.4-1.4-7.6c.8-3.2 10.3-0.6 10.3-0.6Z" fill="#23293f"/><path class="st10" d="M1578.5 117.7l-27.8-1.1c0 0-2.2-11 6.8-13.5c9-2.5 12.2 9.9 12.2 12.6c8.9 .2 8.5 1.6 8.8 2Z" fill="#eb9900"/></g><path class="st11" d="M1549.5 143.1c0 0 7.1 4.2 11.6 11.1c4.4 6.9 6.8 19.6 1 32.1c-5.8 12.5-13.4 24.8-13.4 24.8l-36.1-5.8c8.2-7.9 12.5-16.8 13.2-21.1c.7-4.2 10.6-32.7 13.3-37.7c2.6-5 10.4-3.4 10.4-3.4Z" fill="#ccd9ec"/><path class="st10" d="M1520.4 184.7c0 0 7.2 3.5 15.5-1.1c-0.1 10 2.3 10.9 2.3 10.9c0 0-14.4 3.4-18.9-1.5c.7-5.6 1.1-8.3 1.1-8.3Z" fill="#eb9900"/><g><path class="st15" d="M1552.3 209.9l1.1 12.8c0 0 2.1 1.8 2.9 4.4c.8 2.6-6.7 3.3-7.3 2.2c-0.6-1.1-0.2-1.7-0.7-3.8c-0.5-2.3 1.2-3.2 1.2-3.2l-6.4-12.8l9.2 .4Z" fill="#f7d5d4"/><path class="st5" d="M1540.7 141.9c0 0 10-6.2 14.7 10.2c4.7 16.4-5.9 34-5.9 34l4.6 32.8l-6.1 3.7c0 0-7.3-18.9-10.2-26.2c-2.4-6.3-1.8-3-2.1-10.5c-0.3-7.5-1.3-28.3-0.4-34.2c.8-6 3.1-8.9 5.4-9.8Z" fill="#88abc5"/></g><path class="st12" d="M1514.7 327.9c2.8-1 1 1.6 5.4 2.2c4.3 .7 9.8 2.5 7.5 3.4c-2.3 1-16.3 0-19 .1c-2.7 .1-4.7 .7-4.3-1.6c.4-2.3 1-5.4 1.8-6.1c.8-0.7 5.8 3 8.6 2Z" fill="#427fa9"/></g></g></g></g></g><g transform="translate(2263.7,192.9) translate(-46.6,-117.8)" style="animation: 7.5s linear infinite both vs46w4bqagm0zrp6oblqen35_t;"><g transform="translate(-2217.1,-75)"><path class="st11" d="M2223.6 307.1c0 2 16.9 3.6 37.8 3.6c20.9 0 37.8-1.6 37.8-3.6c0-2-16.9-3.6-37.8-3.6c-20.8 0-37.8 1.6-37.8 3.6Z" fill="#ccd9ec" style="animation: 39.5s linear both wky1lh6553davxmkinxyzk0x_o;"/><g><path class="st0" d="M2243.8 295.8l1.7 4h36.1l1.8-4Z" fill="#23293f"/><path class="st13" d="M2230.7 152.3c.3 .4 .6 .7 .9 1c3.1 2.9 7.3 5 10.6 7.8c1.8 1.5 5.7 3.9 5.6 6.6c0 .6-0.2 1.2-0.3 1.8c-0.1 .7 0 1.4 .2 2.1c.1 .4 .3 .8 .7 .9c.2 .1 .3 .1 .5 .1c3.3 .2 4.2-3.7 3.3-6.2c-1.3-3.5-3.7-6.7-6.2-9.3c-1-1-8.5-8.1-7.6-8.8c1.3-1.1 2.8-1.8 4.1-2.9c2.2-1.9 4.6-3.6 6.9-5.5c4-3.3 7.9-7.5 8.9-12.6c.2-1.2 .3-2.5-0.2-3.7c-0.5-1.1-1.6-2.1-2.9-2c-0.9 .1-1.7 .6-2.4 1.1c-4.7 3.5-9 7.4-12.9 11.7c-3.4 3.8-8.6 8.9-9.9 14c-0.1 .5-0.2 1-0.2 1.5c0 .8 .3 1.7 .9 2.4Z" fill="#f3bfca"/><path class="st15" d="M2247.8 177.8c.1 .2 .2 .3 .4 .4c1.1 1.2 3.9 1.6 5.1 1.8c5.2 .8 13.3 1.7 17.9-1.4c.2-0.2 .3-0.5 .2-0.8c0-0.1 .1-0.2 0-0.3c-0.3-1.8-0.5-3.5-0.7-5.3c-0.5-4.6-0.5-9.1 .4-14c1-5.3 4.1-9.9 5-15.1c.8-4.6-2.5-8.1-4.8-11.6c-1.3-2-2.3-4-3.2-6c-0.8-2-1.5-4-2-6.1c0-0.6 0-1.3 0-1.9c.1-2.1 .6-3.3 1.6-4.9c1.2-0.8 .5-3.8 0-4.7c-0.9-1.8-2.7-3.8-4.9-3.7c-1.9 .1-2.7 1.7-2.8 3.4c0 .4-0.1 .8-0.1 1.2c-0.9 3.6-2.6 6.5-4.6 9.4c-0.7 1-1.5 2.1-2.2 3.2c-3 4.2-4.8 8.4-4.7 13.6c.1 6.9 3.2 13 3.6 19.8c.2 3.5 .4 6.9-0.7 10.3c-0.6 1.9-1.3 3.7-2 5.6c-0.4 1-0.7 2.1-1 3.1c-0.4 1.4-0.8 2.8-0.5 4Z" fill="#f7d5d4"/><path class="st15" d="M2257.8 97.1c.1-0.4 .2-0.7 .3-1.2c0-0.2 0-0.5 .1-0.7c.7-4.8 6.8-8.4 11.4-7.4c2 .4 3.4 1.4 4.4 2.7c.1 0 .1 0 .2 0c1.4 1.3 3 4 2.9 6c0 .6-0.2 1.2-0.3 1.8c-0.3 2 .1 4 1.2 5.7c.4 .6 .4 1.1-0.2 1.5c-0.3 .2-0.9 .1-1.2 .4c-0.4 .4-0.3 1-0.3 1.5c-0.8 .2-1.6 .1-2.3-0.1c-0.2 .2-0.2 .4 0 .6c.3 .5 1.2 .7 1.8 .9c.1 0 .2 .1 .3 .2c0 .1 0 .2 0 .3c-0.3 1.2-0.5 2.4-0.8 3.6c0 .2-0.1 .4-0.3 .6c-0.2 .2-0.5 .2-0.7 .3c-4.8 .4-9.9-2.8-13.4-5.8c-3.4-2.6-3.8-6.8-3.1-10.9Z" fill="#f7d5d4"/><path class="st12" d="M2247.3 252.3c1.6-4.7 4.1-9.1 6.9-13.3c2.8-4 4.2-7 3.5-12c-0.7-4.7-2.7-9.1-4.4-13.4c-2.3-5.9-4.1-12-5.1-18.2c-0.7-4.4-1.2-9-1.1-13.5c0-1.2 .1-2.4 .3-3.6c.1-0.6 .2-1.2 .4-1.8c.9-2 2.2-2.1 4.1-2.4c1.3-0.2 2.5 0 3.7 .5c2 .9 3.6 2.7 4.7 4.6c1 1.6 1.8 3.6 2.3 5.4c.4 1.7 1.2 3.1 1.8 4.8c1.7 4.6 2.6 9.5 3.4 14.3c1.8 11.2 2.7 22.8-0.4 33.6c-2 6.7-5.5 12.8-8.9 18.8c-2.9-0.6-5.8-1.3-8.5-2.5c-0.9-0.3-1.8-0.8-2.7-1.3Z" fill="#427fa9"/><path class="st13" d="M2241.7 284.6c0-0.1 .1-0.3 .1-0.4c2.2-8.9 2.8-18 4.3-26.9c.3-1.7 .7-3.3 1.2-4.9c.8 .5 1.7 1 2.6 1.4c2.7 1.2 5.6 1.9 8.5 2.5c-0.6 1.1-1.2 2.1-1.8 3.2c-2 3.6-3.8 7.2-5.3 11c-1.3 3.4-3.3 8.6-2.4 12.3c.1 .3 .2 .5 .3 .8c.5 .8 1.4 1.2 2.2 1.5c.3 .1 .7 .3 1 .4c.1 .1 .3 .1 .4 .2c-0.2 0-0.5 .1-0.7 .1c-3.6 .5-7.2 .3-10.7-0.4c.2-0.4 .3-0.6 .3-0.8Z" fill="#f3bfca"/><path class="st0" d="M2283 285.6c.2 0 .5-0.1 .7-0.1c1.5 .7 3.1 1.3 4.6 2c.7 .3 3.3 1.1 2.7 2.2c-0.5 1.1-3.2 .7-4.2 .7h-11.4c-1.4 0-3.3 .3-4-1.2c-0.6-1.2 .2-2.8 .7-4.1c3.7 .8 7.4 1 10.9 .5Z" fill="#23293f"/><path class="st0" d="M2252.2 285.6c.2 0 .5-0.1 .7-0.1c1.5 .7 3.1 1.3 4.6 2c.7 .3 3.3 1.1 2.7 2.2c-0.5 1.1-3.2 .7-4.2 .7h-11.4c-1.4 0-3.3 .3-4-1.2c-0.6-1.2 .2-2.8 .7-4.1c3.7 .8 7.4 1 10.9 .5Z" fill="#23293f"/><path class="st0" d="M2297.4 300.3c0-3.4-2.8-6.2-6.2-6.2c-3.4 0-6.2 2.8-6.2 6.2c0 3.4 2.8 6.2 6.2 6.2c3.4 0 6.2-2.8 6.2-6.2Z" fill="#23293f"/><path class="st11" d="M2294.1 300.3c0-1.6-1.3-2.9-2.9-2.9c-1.6 0-2.9 1.3-2.9 2.9c0 1.6 1.3 2.9 2.9 2.9c1.6 0 2.9-1.3 2.9-2.9Z" fill="#ccd9ec"/><path class="st0" d="M2242.1 300.3c0-3.4-2.8-6.2-6.2-6.2c-3.4 0-6.2 2.8-6.2 6.2c0 3.4 2.8 6.2 6.2 6.2c3.5 0 6.2-2.8 6.2-6.2Z" fill="#23293f"/><ellipse cx="2235.9" cy="300.3" class="st11" rx="2.9" ry="2.9" fill="#ccd9ec"/><path class="st5" d="M2217.4 288.5c.2-0.3 .5-0.6 1-0.6c.3 0 .6 0 .8 .1c1 .4 1.8 1 2.8 1.3c1.1 .3 2.2 .5 3.3 .6c2.2 .4 4.4 .6 6.6 .6c6.6 0 63.8-0.5 63.8-0.5c0 0 5.4 0 9.9-1.7c.3-0.1 .5-0.2 .8-0.3c.1 0 .2 0 .3-0.1c3.6-0.6 1.9 3.9 .6 5.4c-2 2.3-5.4 3.3-8.4 3.3c-0.1 0-74.9 0-74.9 0c-0.1 0-0.2 0-0.3 0c-3.1-0.7-6-2.8-6.6-6c0-0.7 0-1.6 .3-2.1Z" fill="#88abc5"/><path class="st15" d="M2284.8 259.3c-0.8 3.6-1.5 7.2-2.3 10.8c-0.4 2-1 3.9-1.5 5.9c-0.4 1.6-1.6 5.1-1.2 6.8c.1 .3 .2 .5 .3 .8c.5 .8 1.4 1.2 2.2 1.5c.3 .1 .7 .3 1 .4c.1 .1 .3 .1 .4 .2c-0.2 0-0.5 .1-0.7 .1c-3.6 .5-7.2 .3-10.7-0.4c.1-0.2 .2-0.4 .2-0.6c0-0.1 .1-0.3 .1-0.4c2-7.9 2.3-16.8 1.7-24.9c3.5 .7 7.1 .7 10.5-0.2Z" fill="#f7d5d4"/><path class="st5" d="M2251.9 194.9c3.5 6.6 8.5 12.4 13.9 17.6c2.9 2.8 6 5.5 8.1 8.9c1.3 2.1 2.3 4.6 2.5 7.2c.2 2.4-0.5 5.5-0.8 7.9c-0.5 3.6-1.8 7.1-1.9 10.8c-0.2 4 .5 7.9 .8 11.9c2 .6 4.1 .8 6.1 .8c.4 0 .7 0 1.1-0.1c1.1-0.1 2.2-0.3 3.2-0.6c.2-1.1 .4-2.1 .7-3.2c1.8-9.2 3.1-18.8 2-28.2c-0.4-3.7-1.4-7.2-2.7-10.6c-0.6-2.7-1.6-5.4-2.5-8.1c-1.5-4.7-3.4-9.3-5-13.9c-1.7-4.7-2.8-9.5-4.5-14.2c-0.5-1.2-0.9-2.5-1.5-3.6c-0.2-1.1-0.5-2.1-1.3-3.1c-2.6-3.6-9.4-5.6-13.6-6c-1.1-0.1-2.2-0.1-3.2 .1c-2.3 .6-4.1 2.6-4.9 4.9c-0.2 .6-0.4 1.2-0.6 1.9c-1.7 6.4 1.2 14 4.1 19.6Z" fill="#88abc5"/><path class="st10" d="M2257.3 106.9c-2.2-2.2-3-5.6-2.5-8.7c.4-3.1 1.8-6.8 4-9c.1-0.2 .3-0.3 .4-0.5c.9-1.4-0.8-2.2-1.6-3c-1-0.9-1.9-2.1-2.4-3.5c-0.5-1.3-0.7-2.8-0.3-4.1c.4-1.3 1.4-2.5 2.8-2.9c.6-0.2 1.2-0.2 1.8-0.1c2.4 .3 4.5 2.3 4.9 4.7c.3 2.1-1.2 4.6-0.6 6.6c.5 1.6 3.3 .6 4.6 .7c2.6 .3 5.2 1.2 7.3 2.7c1 .7 2.2 1.9 2.5 3.1c.2 1-0.1 2.2-1 2.7c-0.5 .3-1.1 .4-1.7 .4c-1.7 0-3.5-0.8-5.1-0.5c-1.6 .3-2.4 1.5-3.3 2.7c-1.4 2-2.1-0.6-3.7 .3c-0.6 .3-0.9 1-1 1.7c-0.2 1 0 2.1 .5 3.1c.2 .4 .5 .9 .7 1.3c.5 1.5-1.3 3.3-2.6 3.7c-1.2 .3-2.5-0.4-3.4-1.2c-0.2-0.1-0.3-0.1-0.3-0.2Z" fill="#eb9900"/><path class="st11" d="M2251.4 165.2c-0.6 1.9-1.3 3.7-2 5.6c6.5 5.8 15.3 7.3 22.4 6.9c-0.5-4.6-1.6-14.6-0.7-19.4c1-5.3 4.1-9.9 5-15.1c.8-4.6-2.5-8.1-4.8-11.6c-1.3-2-2.3-4-3.2-6c-1.4-1.5-2.7-3-4.3-4.3c-2.4-2-5.6-3.5-8.6-3c-0.7 1-1.5 2.1-2.2 3.2c-3 4.2-4.8 8.4-4.7 13.6c.1 6.9 3.2 13 3.6 19.8c.4 3.5 .5 6.8-0.5 10.3Z" fill="#ccd9ec"/><path class="st15" d="M2262.1 149.5c3.4 4.8 7.6 9.1 12 12.9c3.1 2.7 6.5 5 10.1 7c7.4 4.2 15.3 8.8 19.6 16.5c.4 .8 .9 1.7 1.6 2.2c.7 .6 1.9 .7 2.5 0c1.5-1.6-2.7-6.7-3.6-8c-2.4-3.7-5.2-7-8.3-10.1c-2.6-2.6-5.4-5-8.2-7.4c-2.6-2.1-6.1-4-8.2-6.7c-3.3-4-6.4-8.3-8.8-12.9c-2.4-4.5-3.6-9.6-5.9-14.1c-1.2-2.2-2.7-4.6-5.2-4.9c-2.5-0.3-4.8 1.8-5.5 4.2c-0.9 3.1 0 7.5 1.8 10.2c1.7 2.6 2.8 5.5 4.4 8.1c.4 1.1 1.1 2.1 1.7 3Z" fill="#f7d5d4"/><path class="st11" d="M2258.2 87.2c.1-0.3 .4-0.6 .7-0.7c1-0.2 2.1 0 3.1-0.3c.8-0.2 1.6-1 2.5-0.6c.2 .1 .3 .2 .2 .4c-0.4 1.3-2.3 2-3.5 2.1c-0.9 .1-3.3 .8-3-0.9Z" fill="#ccd9ec"/><path class="st5" d="M2260.7 123.7c-3.1-0.7-6.7 1.3-7.7 4.3c-0.3 .9-0.4 1.9-0.5 2.8c-0.1 3.4 .8 7 3.2 9.5c2-4.7 7.3-7.7 12.4-7c-0.5-2.1-1.2-4.2-2.4-5.9c-1.1-1.8-2.9-3.2-5-3.7Z" fill="#88abc5"/><path class="st0" d="M2292.5 300.3c0-0.7-0.6-1.4-1.4-1.4c-0.7 0-1.4 .6-1.4 1.4c0 .7 .6 1.4 1.4 1.4c.8 0 1.4-0.6 1.4-1.4Z" fill="#23293f"/><path class="st0" d="M2237.5 300.3c0-0.7-0.6-1.4-1.4-1.4c-0.7 0-1.4 .6-1.4 1.4c0 .7 .6 1.4 1.4 1.4c.8 0 1.4-0.6 1.4-1.4Z" fill="#23293f"/></g></g></g><g transform="translate(2418,234.8) translate(-98.9,-112.5)" style="animation: 9.2s linear infinite both ys177g9r89pxs8e25tm8v3ah_t;"><g transform="translate(-2319.1,-122.3)"><path class="st11" d="M2340.1 344.2c0 1.7 37.1 3.1 82.9 3.1c45.8 0 82.9-1.4 82.9-3.1c0-1.7-37.1-3.1-82.9-3.1c-45.7 0-82.9 1.4-82.9 3.1Z" fill="#ccd9ec" style="animation: 39.5s linear both ezye52vbi54onda0xbdcv8v1_o;"/><g><g><g><path class="st13" d="M2441.4 231.8c11.4 6 15.4 11.6 11.8 18c-2.9 5.1-25.7 38-35.2 51.6l3.8 6.8l-6.9-2.3c-0.6 .9-1 1.4-1 1.4l-5.9-2.2c0 0 5.9-40.9 21.8-52.7c-32-10.1-33.7-10.4-33.8-10.4l19.6-21.1c.1 0 8.2 1.6 25.8 10.9Z" fill="#f3bfca"/><g><path class="st0" d="M2421.3 304.9c0 0-0.9-1.1-4.1-1c-3.3 .1-7.1 1.7-9.7-2.2l-2.4 4.4l24.8 9.9l-8.6-11.1Z" fill="#23293f"/><path class="st5" d="M2404.4 307.7l24.7 9.8l.6-1.6l-24.7-9.8Z" fill="#88abc5"/></g><path class="st10" d="M2413 225.7l-13-11.7c1.4-0.1 2.1-0.1 2.1-0.1l17.5 7.4c-3.4 .7-6.3 4.7-6.3 4.7c0 0-0.1-0.2-0.3-0.3Z" fill="#eb9900"/></g><g><path class="st13" d="M2408.4 170.1c0 0 17.9 18.7 22.2 22.7c4.3 4 24.9 17.3 24.9 17.3c0 0 1.8-2.4 3.6-1.9c1.8 .5 4.1 2.8 4.1 2.8l-1.6 .7l-4.3-0.2c0 0-1.1 2.8 0 4.3c-10.7 0-40.1-6.4-60.8-30.8c9-11.4 11.9-14.9 11.9-14.9Z" fill="#f3bfca"/><path class="st12" d="M2410.2 169.6l-13.4 17.3c-10.4-6.6-15.9-15.6-10.2-25.5c5.7-10 16.6 .6 23.6 8.2Z" fill="#427fa9"/></g></g><g><ellipse cx="2416.2" cy="309.1" class="st0" rx="12.6" ry="13.2" fill="#23293f"/><g><ellipse cx="2363.5" cy="311.4" class="st0" rx="7" ry="7.3" fill="#23293f"/><path class="st5" d="M2341.4 312.1c0 12.9 10 23.4 22.4 23.4c12.4 0 22.4-10.5 22.4-23.4c0-12.9-10-23.4-22.4-23.4c-12.4 0-22.4 10.5-22.4 23.4Zm4.2 0c0-10.5 8.2-19 18.2-19c10.1 0 18.2 8.5 18.2 19c0 10.5-8.2 19-18.2 19c-10 .1-18.2-8.4-18.2-19Z" fill="#88abc5"/><path class="st0" d="M2333.1 312.1c0 17.7 13.8 32.1 30.7 32.1c16.9 0 30.7-14.4 30.7-32.1c0-17.7-13.8-32.1-30.7-32.1c-16.9 0-30.7 14.4-30.7 32.1Zm8.3 0c0-12.9 10-23.4 22.4-23.4c12.4 0 22.4 10.5 22.4 23.4c0 12.9-10 23.4-22.4 23.4c-12.4 0-22.4-10.4-22.4-23.4Z" fill="#23293f"/></g><g><path class="st0" d="M2479.3 311.4c0 4 3.1 7.3 7 7.3c3.8 0 7-3.2 7-7.3c0-4-3.1-7.3-7-7.3c-3.9 0-7 3.3-7 7.3Z" fill="#23293f"/><path class="st5" d="M2463.8 312.1c0 12.9 10 23.4 22.4 23.4c12.4 0 22.4-10.5 22.4-23.4c0-12.9-10-23.4-22.4-23.4c-12.4 0-22.4 10.5-22.4 23.4Zm4.2 0c0-10.5 8.2-19 18.2-19c10.1 0 18.2 8.5 18.2 19c0 10.5-8.2 19-18.2 19c-10 .1-18.2-8.4-18.2-19Z" fill="#88abc5"/><path class="st0" d="M2455.5 312.1c0 17.7 13.8 32.1 30.7 32.1c16.9 0 30.7-14.4 30.7-32.1c0-17.7-13.8-32.1-30.7-32.1c-16.9 0-30.7 14.4-30.7 32.1Zm8.3 0c0-12.9 10-23.4 22.4-23.4c12.4 0 22.4 10.5 22.4 23.4c0 12.9-10 23.4-22.4 23.4c-12.4 0-22.4-10.4-22.4-23.4Z" fill="#23293f"/></g><g><path class="st0" d="M2402.4 261.5l-17 4.7l14 46.4l15.4-2.2Z" fill="#23293f"/><path class="st1" d="M2395.6 279.2l8.6 10.4l-5 .2l5 8.9l-9.8-11.2l5-0.3Z" fill="#fff"/></g><path class="st0" d="M2370.4 274.9l-7 35.5l-2.1 .3l6.4-35.8Z" fill="#23293f"/><path class="st0" d="M2345.5 275.4l18.3 32.2l-0.4 2.8l-19.5-34.3Z" fill="#23293f"/><path class="st11" d="M2474.4 270l14.7 41.9c0 0 .5 2.6-2 3.5c-2.5 .9-3.6-2.1-3.6-2.1l-14.7-40.7l5.6-2.6Z" fill="#ccd9ec"/><path class="st11" d="M2451.8 211.8l12.7-2.8c0 0 3.9 .7 2.9 4.5l-8.6 11.8l11.3 34.5l-4.5 1.9l-11.6-34.3c0 0-0.9-2.6 1.8-6.2c2.7-3.6 5.4-7.6 5.4-7.6l-7.7 3.3c.1 .1-4 .3-1.7-5.1Z" fill="#ccd9ec"/><path class="st12" d="M2470.8 255.1l-8.8 3l6.1 17.1l8.6-3.3Z" fill="#427fa9"/><path class="st12" d="M2468.8 272.6l-60.6 21.3l-3.6-14l59.2-20.8Z" fill="#427fa9"/><path class="st11" d="M2404.4 269.3l-17.7 5.4c0 0-3.2 0-6.1 4c-2.9 4-19.3 31.9-19.3 31.9c0 0-1.6 3.3 1.6 4c3.2 .7 51.7-5.9 51.7-5.9l-1.4-5.4l-46.5 5.7l16.3-26.5c0 0 1.6-4.3 5.7-5c4.1-0.7 17-3.5 17-3.5l-1.3-4.7Z" fill="#ccd9ec"/><path class="st12" d="M2403.9 247.7l16.1 61.5c0 0-2 3.1-6.3 1.7c-13.4-50.4-15.9-63.6-15.9-63.6l6.1 .4Z" fill="#427fa9"/><path class="st0" d="M2384 272.3c0 0 1.1 2.6-0.2 3.3c-1.4 .7-43.5 1.4-43.5 1.4c0 0-1.6-2.1-0.5-3.8c14.7-0.4 44.2-0.9 44.2-0.9Z" fill="#23293f"/></g><g><path class="st14" d="M2400.1 140.1c0 0-2.1 6-12.4-0.6c-10.3-6.6-24.5-3.2-30.5 3.2c-6 6.3-5.1 17.7-14.5 19.9c-9.4 2.2-17.8-1.3-23.6 3.8c0 0 2.1 4.4 13 16.1c10 10.7 18.7 16.1 25.7 14.8c7-1.3 6.3-16.1 10.9-19.6c4.5-3.5 17.8 3.5 17.8 3.5l11.8-23.7l1.8-17.4Z" fill="#fadc00" style="animation: .5s linear infinite both qwx64vngpqlvjem9su9uvpes_d;"/><g><path class="st15" d="M2409.2 222.2c0 0 22.7 21.5 28.1 27.2c5.4 5.7 5.4 11.4 4.1 19.9c-1.4 8.5-22.2 51.3-22.2 51.3l14.1 8.3l-24.5-0.5c0 0 6.1-51.8 16.3-64.8c-20.4-7.6-42.2-27.4-42.2-27.4l26.3-14Z" fill="#f7d5d4"/><g><g><path class="st14" d="M2377.7 214.8c10.5-0.4 22-0.9 24.1-0.9c-0.4 0-1 0-1.8 .1l13 11.7c-0.8-0.6-3.5-1.6-11.1 1.2c-9.5 3.5-16.5 9.2-18.1 11.6c-7.3-8.3-9.3-16.3-6.1-23.7Z" fill="#fadc00"/></g></g><g><path class="st0" d="M2423 321.9c0 0-1.2-0.7-4.2 .5c-3 1.3-6.1 4.1-9.9 1.4l-0.8 5l26.5 .5l-11.6-7.4Z" fill="#23293f"/><path class="st5" d="M2408 330.5l26.5 .4v-1.7l-26.5-0.4Z" fill="#88abc5"/></g></g><path class="st5" d="M2401.6 162.2c0 0 8.6 9.1 9.2 22.2c.6 13.1-5.9 30-5.9 30l-28.3 1.3c0 0 0-18.8 .6-29.5c.6-10.7-0.5-22.1 8.5-26.9c6.5-3.3 15.9 2.9 15.9 2.9Z" fill="#88abc5"/><g><g><path class="st15" d="M2412.3 130.6c0 0 4.8 10.9 .7 16.3c-4.1 5.4-12-0.7-15.2-6.2c-3.2-5.4-3.2-9.5 .2-14c3.4-4.3 11.2-2.2 14.3 3.9Z" fill="#f7d5d4"/><path class="st15" d="M2404.5 146l-2.6 16.3c0 0 1 5.6-11.9-4.5c8.1-13.7 8.4-16.3 8.4-16.3l6.1 4.5Z" fill="#f7d5d4"/><path class="st0" d="M2406.7 131.6c0 0-2.4 13.9-7.3 15.1l-3.3 .6l-0.6 .1l5.7-13.7l5.5-2.1Z" fill="#23293f"/></g><g><path class="st0" d="M2401.7 139.5c0 0 7.4 8.7 9.4 9.5c-2 1.1-2 1.1-2 1.1c-3.5-2.4-8.2-7.7-9.1-9.9l1.7-0.7Z" fill="#23293f"/><path class="st10" d="M2414.7 129.9l-11.4 3.5c0 0 .5 5.1-1.6 7.1c-2.1 2-5.2 2-5.2 2c0 0-3.4-3.5-3.9-9.8c-0.5-6.3 3.7-8.4 8.7-9.6c3.7-0.8 10.7-0.5 13.4 6.8Z" fill="#eb9900"/></g></g><g><path class="st15" d="M2402.8 170.4c0 0 17.9 18.7 22.2 22.7c4.3 4 24.9 17.3 24.9 17.3c0 0 1.8-2.4 3.6-1.9c1.8 .5 4.1 2.8 4.1 2.8l-1.6 .7l-4.3-0.2c0 0-1.1 2.8 0 4.3c-10.7 0-40.1-6.4-60.8-30.8c9-11.4 11.9-14.9 11.9-14.9Z" fill="#f7d5d4"/><path class="st12" d="M2404.6 169.9l-13.4 17.3c-10.4-6.6-15.9-15.6-10.2-25.5c5.7-10 16.6 .6 23.6 8.2Z" fill="#427fa9"/></g></g></g></g></g></g></symbol><symbol id="dd3wf2lnyd6k51fx6kns9zud" preserveAspectRatio="none" width="419.6" height="365.4" viewBox="0 0 419.6 365.4" overflow="visible"><g transform="translate(-1791.2,6.5)"><g><g><path class="st0" d="M1820.3 349.3l-1.5 8.6h-27.6l6.3-37.5h27l-1.4 8.2h-16.1l-1 5.9h13.5l-1.4 8.1h-13.5l-1.1 6.6l16.8 .1Z" fill="#23293f"/><path class="st0" d="M1838 320.5l-6.3 37.5h-10.6l6.3-37.5h10.6Z" fill="#23293f"/><path class="st0" d="M1866.1 346.1h-19.1c-0.1 .8-0.1 1.3-0.1 1.7c0 1.2 .4 2.2 1.2 2.8c.8 .7 1.8 1 3 1c2.3 0 3.8-1.2 4.8-3.5l9.3 1.5c-1.2 2.7-3.2 4.9-5.9 6.6c-2.7 1.7-5.7 2.5-9 2.5c-4.1 0-7.5-1.2-10.1-3.5c-2.6-2.4-3.9-5.6-3.9-9.6c0-4.4 1.5-8.2 4.6-11.4c3-3.2 7-4.7 11.9-4.7c4.2 0 7.5 1.2 9.9 3.7c2.5 2.4 3.7 5.7 3.7 9.8c0 .9-0.1 1.9-0.3 3.1Zm-10-5.3c.1-0.6 .1-1 .1-1.3c0-1-0.3-1.8-0.9-2.6c-0.6-0.7-1.5-1.1-2.6-1.1c-1.2 0-2.2 .4-3.2 1.3c-1 .9-1.5 2.1-1.8 3.7h8.4Z" fill="#23293f"/><path class="st0" d="M1885.5 347.2l8.4 2.1c-1.5 3.6-3.5 6.1-5.9 7.5c-2.4 1.4-5 2.1-7.6 2.1c-3.8 0-7-1.2-9.4-3.6c-2.4-2.4-3.6-5.6-3.6-9.4c0-4.3 1.4-8.2 4.3-11.5c2.9-3.3 6.7-5 11.4-5c3.4 0 6.3 1 8.7 3.1c2.4 2.1 3.6 4.7 3.6 8l-9.4 1.1c0-3-1-4.5-3-4.5c-1.7 0-3 1.2-3.7 3.7c-0.7 2.5-1.1 4.6-1.1 6.4c0 2.7 1 4.1 3.1 4.1c1.8-0.2 3.3-1.5 4.2-4.1Z" fill="#23293f"/><path class="st0" d="M1916.8 330.2l-1.2 7.1h-5l-1.7 9.9c-0.2 1-0.3 1.6-0.3 1.8c0 1.4 .9 2 2.6 2c.8 0 1.6-0.1 2.6-0.3l-1.2 7.2c-2 .4-3.9 .6-5.7 .6c-2.3 0-3.9-0.3-5-0.9c-1.1-0.6-2-1.4-2.7-2.4c-0.7-1-1-2.4-1-4.1c0-0.7 .2-2.1 .5-4l1.6-9.9h-3.8l1.2-7.1h3.8l1.5-8.2l10.1-0.2l-1.4 8.4h5.1v.1Z" fill="#23293f"/><path class="st0" d="M1920.9 330.2h9.2l-1.1 6.7c1.9-5 4.9-7.5 8.8-7.5c.3 0 .7 0 1.3 .1l-1.2 9.9c-1-0.1-1.6-0.1-1.9-0.1c-2.3 0-4 .5-5 1.6c-1.1 1.1-1.8 3-2.3 5.7l-1.9 11.3h-10.6l4.7-27.7Z" fill="#23293f"/><path class="st0" d="M1951.1 358.8c-3.9 0-7.1-1.1-9.7-3.4c-2.6-2.3-3.9-5.4-3.9-9.4c0-4.8 1.5-8.7 4.6-11.8c3.1-3.1 6.9-4.6 11.6-4.6c4.2 0 7.6 1.2 10.1 3.6c2.5 2.4 3.7 5.4 3.7 8.9c0 5.3-1.6 9.4-4.8 12.3c-3.3 2.9-7.2 4.4-11.6 4.4Zm.4-6.8c1.9 0 3.2-1.4 3.9-4.3c.7-2.9 1-5.2 1-7.2c0-2.9-1.1-4.4-3.2-4.4c-1.9 0-3.2 1.5-3.9 4.4c-0.7 2.9-1.1 5.3-1.1 7.2c.1 2.9 1.2 4.3 3.3 4.3Z" fill="#23293f"/><path class="st0" d="M1985.1 329l-4.9 29h-10.9l4.9-29h-8l1.5-8.6h27.2l-1.4 8.6h-8.4Z" fill="#23293f"/><path class="st0" d="M2015.6 358h-10.9c-0.1-0.5-0.1-1-0.1-1.3c0-0.9 .1-2 .2-3.3c-2.2 3.5-5.2 5.2-9.1 5.2c-2.6 0-4.8-0.8-6.4-2.3c-1.6-1.5-2.4-3.4-2.4-5.7c0-1.7 .4-3.3 1.3-4.7c.9-1.4 2.1-2.6 3.7-3.4c1.6-0.8 3.3-1.4 4.9-1.7c1.7-0.3 5-0.6 9.9-1.1c.2-0.7 .3-1.2 .3-1.6c0-1.5-1.1-2.3-3.2-2.3c-2.1 0-3.6 1-4.6 3.1l-9-1.8c2.3-5.1 7.3-7.7 15.1-7.7c3.9 0 7 .7 9.3 2c2.3 1.4 3.4 3.4 3.4 6c0 1.2-0.7 5.4-2 12.6c-0.5 2.7-0.7 4.5-0.7 5.4c0 .8 .1 1.6 .3 2.6Zm-9.8-13.2c-5 .4-7.6 2-7.6 4.8c0 1.6 .8 2.3 2.4 2.3c1 0 2.1-0.5 3.1-1.4c1.1-0.9 1.8-2.8 2.1-5.7Z" fill="#23293f"/><path class="st0" d="M2037.3 320.5l-6.3 37.5h-10.6l6.3-37.5h10.6Z" fill="#23293f"/><path class="st0" d="M2053.6 320.5l-6.3 37.5h-10.6l6.3-37.5h10.6Z" fill="#23293f"/><path class="st0" d="M2068.6 330.2l-4.6 27.7h-10.8l4.6-27.7h10.8Zm1.8-10.6l-1.4 8.2h-10.8l1.4-8.2h10.8Z" fill="#23293f"/><path class="st0" d="M2074.3 330.2h9.7l-0.7 4.5c.8-1.8 2-3.2 3.7-4.1c1.7-0.9 3.5-1.3 5.4-1.3c2.4 0 4.3 .6 5.7 1.9c1.5 1.2 2.2 2.9 2.2 4.9c0 .8-0.1 1.7-0.3 2.8l-3.2 19h-10.6l2.8-16.7c.2-1.1 .3-1.8 .3-2.1c0-1.6-0.8-2.3-2.5-2.3c-2.2 0-3.6 1.5-4.1 4.5l-2.7 16.7h-10.3l4.6-27.8Z" fill="#23293f"/><path class="st0" d="M2107.2 330.2h9.7l-0.7 4.5c.8-1.8 2-3.2 3.7-4.1c1.7-0.9 3.5-1.3 5.4-1.3c2.4 0 4.3 .6 5.7 1.9c1.5 1.2 2.2 2.9 2.2 4.9c0 .8-0.1 1.7-0.3 2.8l-3.2 19h-10.6l2.8-16.7c.2-1.1 .3-1.8 .3-2.1c0-1.6-0.8-2.3-2.5-2.3c-2.2 0-3.6 1.5-4.1 4.5l-2.8 16.7h-10.3l4.7-27.8Z" fill="#23293f"/><path class="st0" d="M2177.9 345.6h-19.1c-0.1 .8-0.1 1.3-0.1 1.7c0 1.2 .4 2.2 1.2 2.8c.8 .7 1.8 1 3 1c2.3 0 3.8-1.2 4.8-3.5l9.3 1.5c-1.2 2.7-3.2 4.9-5.9 6.6c-2.7 1.7-5.7 2.5-9 2.5c-4.1 0-7.5-1.2-10.1-3.5c-2.6-2.4-3.9-5.6-3.9-9.6c0-4.4 1.5-8.2 4.6-11.4c3-3.2 7-4.7 11.9-4.7c4.2 0 7.5 1.2 9.9 3.7c2.5 2.4 3.7 5.7 3.7 9.8c0 .9-0.1 2-0.3 3.1Zm-10-5.3c.1-0.6 .1-1 .1-1.3c0-1-0.3-1.8-0.9-2.6c-0.6-0.7-1.5-1.1-2.6-1.1c-1.2 0-2.2 .4-3.2 1.3c-1 .9-1.5 2.1-1.8 3.7h8.4Z" fill="#23293f"/><path class="st0" d="M2210.5 345.6h-19.1c-0.1 .8-0.1 1.3-0.1 1.7c0 1.2 .4 2.2 1.2 2.8c.8 .7 1.8 1 3 1c2.3 0 3.8-1.2 4.8-3.5l9.3 1.5c-1.2 2.7-3.2 4.9-5.9 6.6c-2.7 1.7-5.7 2.5-9 2.5c-4.1 0-7.5-1.2-10.1-3.5c-2.6-2.4-3.9-5.6-3.9-9.6c0-4.4 1.5-8.2 4.6-11.4c3-3.2 7-4.7 11.9-4.7c4.2 0 7.5 1.2 9.9 3.7c2.5 2.4 3.7 5.7 3.7 9.8c0 .9-0.1 2-0.3 3.1Zm-10-5.3c.1-0.6 .1-1 .1-1.3c0-1-0.3-1.8-0.9-2.6c-0.6-0.7-1.5-1.1-2.6-1.1c-1.2 0-2.2 .4-3.2 1.3c-1 .9-1.5 2.1-1.8 3.7h8.4Z" fill="#23293f"/><path class="st0" d="M2145.9 349.8l-1.4 8.2h-10.8l1.4-8.2Z" fill="#23293f"/></g><g><g><path class="st1" d="M2021.7 34l1.3 3.2l-35.8 17.4c.2 1.3 .4 2.6 .4 3.7c.1 3.1-0.8 5.7-3.8 7.1c-0.5 .2-1.1 .4-1.6 .5c-0.7 2.4-1.8 5.5-4.4 6c-1.5 .3-3.2 .6-4.8 .8c-1 .1-2.4 .3-3.8 .3c-0.9 0-1.9-0.1-2.5-0.4c-1.3-0.6-2.2-1.6-2.7-2.8l-0.3 .1l-1.3 1.9c-2.9 4.4-5.9 9-8.5 13.6c-0.1 .2-0.2 .4-0.4 .6c4.3 1 9.9 2.9 13.6 5.4l.3-0.2l-0.1-1.2l.9 .8l10.7-5.8c4.5-2.4 10.7-4.4 15.8-4.4c.1 0 .2 0 .3 0c1 0 2 0 3.1 .1l1.4-1.1c2-1.5 5.6-4.2 8.8-5.9c-1.2-0.5-2.4-1-3.6-1.5l-15-5.6l15.9-1.5c1.3-0.1 2.6-0.2 4-0.2c3.4 0 7.1 .4 10.1 1.1c.9 .2 1.9 .5 2.8 .8c-0.1-0.1-0.1-0.1-0.2-0.2l-6.7-7.6l10 1.5c.9 .1 1.8 .3 2.7 .5h.2l.2 .1c1.3 .4 2.8 .9 4.3 1.6l.2-0.7l3.5 1c3.6 1 8 2.4 11.1 4.6c1.5 1.1 3 2.1 4.5 3.2l-0.4-4.4l7.2 7.2c3.1 3.1 6.2 8.1 6.7 12.6c.2 1.3 .1 2.7-0.1 4.2l.3 .3c3.7-3.8 5.7-6.9 5.7-6.9l-4.2 .1l5.8-11.2c0 0-1.4-0.5-4.2-0.5c-0.4 0-0.8 0-1.2 0c-1.7 .1-4 .4-5.9 .7l-3-3.4c2.4-0.3 3.6-0.5 9-0.8c.4 0 .7 0 1.1 0c5.2 0 11.8 1.5 11.8 1.5l-6.4 11.1l4.4-0.7c0 0-2.8 6.2-10.9 12.6c1.4 1.6 2.9 3.7 3.7 5.5c1.1 2.5 1.2 5.4 .7 8.2c8 2.7 15.6 6.3 22.7 11c5.8 3.9 13.4 10.2 17.3 16.1l.9 1.4l-0.1 1.6c-0.2 3.2-0.6 6.5-1.1 9.7c-1.2 8-2.8 16-4.9 23.9c-5.6 21.2-14.4 42.1-26.8 60.3h6.7l-5.9 7.7l-10.8 14.3h7.3h13.7l-10.7 8.6l-45.1 36l-20.6 16.4l-16.2 12.9l-8.8 12.8l3.5-21.3l.3-1.9l-2-3c-2-3-4-6-5.9-9.1h-48.3h-5.7l.9-5.6l11-65.8c-2.6-5-5.1-10.1-7.3-15.3c-7.1-15.9-11.3-33.2-12.7-50.5c-0.4-5.4-0.6-10.8-0.4-16.1c0-0.1 0-0.2 0-0.2l-52.2 6.4l20.9-12c16.2-9.3 32.7-18.5 49.8-26c-3.2-2-6.4-4.2-9.4-6.4c-2.5-1.8-5-3.7-7.3-5.7c-4-3.6-7.4-9.6-8.7-14.8l-0.2-1l3.6-3.6c2-0.9 5.4-6 6.3-7.6c.5-0.8 1.1-1.7 1.7-2.5l-36.7 15.4l17.8-14.5l-53 19.3l-1.3-3.3l89.8-40l-12 11.8l16.1-7.1l3.7-4.5l.4-0.3c.9-0.6 2.8-2 3.6-2.8c.9-1.5 1.3-2.8 3.1-3.6c.4-0.2 .9-0.3 1.4-0.4c.3 0 .6-0.1 .9-0.1c.8-1.4 2.2-2.5 4-2.9c.7-0.2 1.5-0.2 2.2-0.2c.4 0 .9 0 1.3 .1c1.1-1 2.5-1.6 4.2-1.6c1.3 0 2.7 .3 4 .9c1.2-0.4 2.5-0.7 3.7-0.7c.9 0 1.7 .2 2.4 .6c.8 .5 1.3 1.1 1.7 1.9l36.5-11.6m-50.8 58.9l.8-0.3l-1.1 .1l.3 .2m89.9 164.6h17h-17m-28.1 36l-20.6 16.4l20.6-16.4m-28.2 16.4l-6.2 9l6.2-9m19.3-280.2l-3.1 1l-34.3 10.7c-0.3-0.3-0.7-0.6-1.1-0.8c-1.2-0.7-2.6-1.1-4.2-1.1c-1.1 0-2.2 .2-3.5 .5c-1.3-0.4-2.7-0.7-4.1-0.7c-1.9 0-3.8 .5-5.3 1.5c-0.1 0-0.1 0-0.2 0c-1.1 0-2.1 .1-3 .3c-1.8 .4-3.4 1.2-4.6 2.5l-17.3 7.7l-89.8 40l-3.1 1.4l1.3 3.2l1.3 3.3l1.3 3.2l3.2-1.2l33.4-12.3l-1.4 1.1l-19 15.5l22.6-9.5l23.8-10l-2.6 2.5l-1.4 1.4l.5 1.9l.2 1c1.5 6.2 5.3 12.7 9.7 16.7c2.5 2.3 5.3 4.3 7.6 6c1.4 1 2.8 2 4.1 2.9c-15.8 7.3-31 15.9-44.3 23.5l-20.9 12l-15.1 8.7l17.3-2.1l48.1-5.9c0 4.1 .2 8.3 .5 12.6c.7 8.9 2.2 17.8 4.3 26.4c2.2 8.7 5.1 17.2 8.7 25.3c2 4.6 4.3 9.3 6.9 14.4l-10.8 64.6l-0.9 5.6l-0.7 4.1h4.2h5.7h46.4c1.7 2.6 3.3 5.1 4.9 7.5l1.2 1.8l-0.1 .6l-3.5 21.3l-2.6 15.7l9-13.1l8.5-12.4l15.8-12.6l20.6-16.4l45.1-36l10.7-8.6l7.9-6.3h-10.1h-13.7h-0.2l6.5-8.6l5.9-7.7l4.3-5.7h-7.1h-0.2c4.7-7.5 9-15.5 12.7-24c4.4-10 8.1-20.7 11-31.8c2.2-8.2 3.8-16.3 5-24.3c.4-2.8 .9-6.4 1.1-10l.1-1.6l.1-1.2l-0.6-1l-0.9-1.4c-4.3-6.4-12.2-13-18.3-17.1c-6.3-4.2-13.3-7.7-20.8-10.4c.1-2.5-0.3-5-1.3-7.1c-0.5-1.2-1.3-2.5-2.1-3.6c6.6-6 9.2-11.4 9.3-11.7l2.7-6l-3.6 .5l2.7-4.7l2.4-4.2l-4.7-1c-0.3-0.1-7-1.5-12.6-1.5c-0.4 0-0.9 0-1.3 0c-4.5 .2-6.2 .4-8 .7c-0.4 .1-0.8 .1-1.3 .2l-2.1 .2l-2.2-2.2l-7-7l.6 6.6c-3.4-1.9-7.5-3.2-10.4-4l-3.5-1l-3.4-0.9l-0.1 .4c-0.3-0.1-0.6-0.2-0.9-0.3l-0.2-0.1l-0.2-0.1h-0.2h-0.2c-1-0.2-1.9-0.4-2.8-0.5l-10-1.5l-9.7-1.5l6.5 7.3l.1 .1c-1.1-0.1-2.3-0.1-3.4-0.1c-1.5 0-2.9 .1-4.3 .2l-15.1 1.4c.5-1.5 .7-3.1 .7-4.9c0-0.5-0.1-1-0.1-1.5l33.5-16.3l3-1.4l-1.2-3.1l-1.3-3.2l-1-2.8Zm-38.8 39.1c0 0 .1 0 0 0l3.7 1.2l12 4.5c-1.2 .9-2.3 1.7-3.1 2.3l-0.3 .2c-0.7 0-1.4-0.1-2.1-0.1c-0.1 0-0.2 0-0.4 0c-5.3 .1-12.1 2-17.4 4.9l-8.6 4.7l-5.8-4.7l.4 3.6c-1.5-0.6-3-1.2-4.4-1.6c1.7-2.9 3.6-5.8 5.4-8.5c.3 .2 .7 .4 1 .5c1.1 .4 2.3 .7 3.9 .7c1.5 0 3-0.2 4.1-0.3h.1c1.5-0.2 3.4-0.4 5.1-0.8c3.7-0.8 5.5-4.2 6.4-6.6Zm80.6 7.2c.9-0.1 1.6-0.2 2.3-0.2l-1.1 2.2c0-0.1-0.1-0.1-0.1-0.2c-0.4-0.6-0.7-1.2-1.1-1.8Z" fill="#fff"/><path class="st1" d="M1977.1 14.4c18.3 1.9 6.5 14.5-3.5 20.7c-5.8 3.6-10.4 6.4-10.4 6.4l2.5-4.1c-1.5 1.5-10.1 5.9-7.4 8l-3.2 2.7l-0.2 .3c-7.9-10.6 10.5-7.9 16.3-22.7c0 0-0.6 3.6-1.3 5.7c-0.8 2.2-2.1 4.7-2.1 4.7c9-3.9 26.5-18 9.3-21.7m2.6-20.9l-11.9 30.9c-2.2 5.8-6.8 8.4-10.8 10.7c-3.5 2-6.7 3.8-7.5 7.5c-0.5 2.4 .3 5 2.5 8l.9 1.2l-0.2 .4l.3-0.2l1.8 2.4l2.8-3.8l2.9-2.4l3.3-2.8l1.3-0.8c0 0 4.6-2.8 10.4-6.4c3.9-2.4 7.6-5.4 10.2-8.3c3.7-4.1 5.2-7.9 4.4-11.3c-0.4-1.6-1.4-3.8-4.4-5.4c-2-1.1-4.7-1.9-8.2-2.2l-1.1 7c2.3 .5 3.5 1.1 4 1.5c.5 .4 .5 .6 .5 .7c.1 .7-0.8 3-4.5 6.3c-0.7 .6-1.4 1.2-2.1 1.7c.2-1 .3-1.7 .3-1.9l5.1-32.8Z" fill="#fff"/></g><g><g><g><path class="st0" d="M1923.6 150.5l-52.2 6.4l20.9-12c21.3-12.3 43.1-24.3 66.4-32.6c26.2-9.3 52-12.9 79.8-11.7c19.9 .9 40 5.9 56.8 17.1c5.8 3.9 13.4 10.2 17.3 16.1l.9 1.4l-0.1 1.6c-0.2 3.2-0.6 6.5-1.1 9.7c-1.2 8-2.8 16-4.9 23.9c-6.2 23.7-16.4 46.9-31.3 66.5c-15 19.8-32.5 38.2-50.8 55c-6.1 5.6-12.3 11-18.6 16.3c-2.5 2.1-5 4.1-7.5 6.1l-4.1 3.2l-2.9-4.4c-4-6.1-7.9-12.2-11.8-18.3c-8.4-13.3-16.6-26.8-24.4-40.5c-6.8-11.9-13.5-24.3-19.1-36.9c-7.1-15.9-11.3-33.2-12.7-50.5c-0.4-5.4-0.6-10.8-0.4-16.1c-0.2-0.1-0.2-0.2-0.2-0.3Z" fill="#23293f"/><path class="st6" d="M2106.1 137.2c-3.1-4.1-22.3-27.3-68-29.4c-28.8-1.3-52.6 2.8-75.1 10.6c-19.4 6.7-37.7 16.1-57.3 27.2l25.8-3.2l-0.3 2.9c0 .1-4 33.1 12.1 69.3c14.5 32.6 46.4 82 53.4 92.6c8.7-6.9 45.1-36.8 73.7-74.5c30-39.8 35.1-88.8 35.7-95.5Z" fill="#ccd8eb"/><g><path class="st7" d="M2103.7 153.7c1.6-8.5 2.2-14.4 2.4-16.5c-1-1.4-3.9-5-9-9.1l-22.6 11.3l29.2 14.3Z" fill="#87a9c3"/><path class="st7" d="M1963.9 192.9l-26.7 5.9c1.6 5.1 3.5 10.4 5.9 15.8c14.5 32.6 46.4 82 53.4 92.6c8.7-6.9 45.1-36.8 73.7-74.5c18-23.7 27.1-50.7 31.6-70.1l-137.9 30.3Z" fill="#87a9c3"/><path class="st7" d="M1931.1 145.2c0 .1-2.1 17.4 2.9 40.8l88.8-50l-38.3-21l5.8-4c-9.5 1.8-18.5 4.3-27.3 7.3c-19.4 6.7-37.7 16.1-57.3 27.2l25.8-3.2l-0.4 2.9Z" fill="#87a9c3"/></g><path class="st0" d="M1981.6 46.6l40.1-12.6l1.3 3.2l-39.8 19.3Z" fill="#23293f"/><path class="st8" d="M1983.7 47.9l36.9-11.6l-35.9 17.5Z" fill="#f9db00"/><path class="st0" d="M2061.2 136.7c.5 1.3 1.2 3.2 1.5 4.6c.2 .1 .4 .2 .7 .2c3.3 1 8.4 5 5.4 8l1.1 .7l.2 .2c4.2 3.7 8.5 8.3 11.9 12.7c1.4 1.9 2.7 3.9 3.9 5.9c2.1 3.8 2.5 8.7 2.4 13c-0.1 5.2-1.1 11.3-2.6 16.3l-0.5 1.8l.5 .3l.4 1.5c1.2 4.9 1 11.5-0.6 16.2c-1 3-2.4 5.8-3.8 8.6c-0.4 .7-1.6 3.2-1.7 3.9c.3 1.7-0.4 3.3-1.4 4.7l1.4-0.3l-5.7 3.9c-1.1 3.8-4.2 5.1-7.7 6.8c-5.7 2.8-20.4 8.2-26.6 6.7c-1.7-0.4-3.5-0.8-5.2-1.1c-0.5-0.1-1-0.2-1.5-0.2h-3.6l-0.3-17l3.3-0.4c.7-0.1 2-0.5 2.7-0.8c2.7-1 5.2-2.6 7.3-4.4c2.4-2 5.9-5.8 7.1-8.7l.6-1.7h.1c-0.1-0.3-0.1-0.6-0.1-0.9c-0.2-2.8 .7-6.9 1.3-9.7c.9-4.4 1.8-8.8 2.7-13.2c-2.5 1.2-5.2 2.4-7.7 3.3c0 0-10.8 11.9-11.9 17.3c-1.1 5.4 2.9 14.7 2.9 14.7c0 0-11.4 2.1-26.6 .8c-15.2-1.3-36.3-8.3-36.3-8.3c0 0-2.9-10.1-2.9-12.8c0-2.7 0-10.1-1-13.9c-1-3.8-2.6-7.1-5.3-25.9c-2.7-18.9 0-33.5 0-33.5l1.1 .2v-0.2c-2.9 0-6.1-1.2-8.3-2.2c-2.2-1-4.1-2.5-5.8-4.2c-1.9-1.9-3.5-4-5.1-6.1c-0.6-0.8-2-2.7-2.9-3.2c-4.1-2.4-8.2-5.2-12.1-8c-2.5-1.8-5-3.7-7.3-5.7c-4-3.6-7.4-9.6-8.7-14.8l-0.2-1l3.6-3.6c2-0.9 5.4-6 6.3-7.6c3.9-6.6 12.6-13.4 20-18.1l5.8-7.1l.4-0.3c.9-0.6 2.8-2 3.6-2.8c.9-1.5 1.3-2.8 3.1-3.6c.4-0.2 .9-0.3 1.4-0.4c.3 0 .6-0.1 .9-0.1c.8-1.4 2.2-2.5 4-2.9c1.1-0.2 2.3-0.3 3.6-0.2c1.1-1 2.5-1.6 4.2-1.6c1.3 0 2.7 .3 4 .9c2-0.7 4.4-1.1 6.1-0.1c1.5 .9 2 2.6 2.4 4.3c.4 1.4 .6 2.8 .9 4.2c.3 2 .8 4.3 .9 6.3c.1 3.1-0.8 5.7-3.8 7.1c-0.5 .2-1.1 .4-1.6 .5c-0.7 2.4-1.8 5.5-4.4 6c-1.5 .3-3.2 .6-4.8 .8c-1.8 .2-4.7 .6-6.3-0.1c-1.3-0.6-2.2-1.6-2.7-2.8l-0.3 .1l-1.3 1.9c-2.9 4.4-5.9 9-8.5 13.6c-0.1 .2-0.2 .4-0.4 .6c4.3 1 9.9 2.9 13.6 5.4l.3-0.2l-0.1-1.2l.9 .8l10.7-5.8c4.5-2.4 10.7-4.4 15.8-4.4c1.1 0 2.2 0 3.5 .1l1.4-1.1c2-1.5 5.6-4.2 8.8-5.9c-1.2-0.5-2.4-1-3.6-1.5l-15-5.6l15.9-1.5c4.4-0.4 9.8-0.1 14.1 .9c.9 .2 1.9 .5 2.8 .8c-0.1-0.1-0.1-0.1-0.2-0.2l-6.7-7.6l10 1.5c.9 .1 1.8 .3 2.7 .5h.2l.2 .1c1.3 .4 2.8 .9 4.3 1.6l.2-0.7l3.5 1c3.6 1 8 2.4 11.1 4.6c1.5 1.1 3 2.1 4.5 3.2l-0.4-4.4l7.2 7.2c3.1 3.1 6.2 8.1 6.7 12.6c.2 1.3 .1 2.7-0.1 4.2l1.6 1.9c1.5 1.7 3.5 4.3 4.4 6.4c1.6 3.7 1.2 8.2-0.5 11.9c-1.1 2.4-3.2 5.2-5.1 7.4c-0.3 .4-0.6 .7-0.9 1.1c-1.6 1.9-4.8 5.9-5.2 8.1c-0.4 3.1 1.2 9.7 1.2 9.7Zm-89.5-44.1l-1.1 .1l.3 .2l.8-0.3Z" fill="#23293f"/><path class="st9" d="M2032 97.7c0 0 1.7-6.1 7.5-4.6c5.9 1.4 11.8 10.3 11.8 10.3c0 0 3.8-4.2 7.1-1.8c3.3 2.5 .6 10.4 .6 10.4c0 0 1.6 2.9 1.1 5.4c-0.5 2.5-7.8 3.9-9.7 4.5c-1.9 .6-3.2-1.9-3.2-1.9c0 0-1.3 .3-3.4 .2c-2.1-0.1-15-12.3-15.4-14.4c-0.4-2.1 5.3-4.5 5.3-4.5l-1.7-3.6Z" fill="#fbd09d"/><path class="st10" d="M2051.3 103.4c0 0 3.8-4.2 7.1-1.8c3.3 2.5 .6 10.4 .6 10.4c0 0 1.6 2.9 1.1 5.4c-0.5 2.5-7.8 3.9-9.7 4.5c-1.9 .6-3.2-1.9-3.2-1.9c0 0-1.3 .3-3.4 .2c-2.1-0.1-15-12.3-15.4-14.4c0 0 12.7 11.8 14.9 11.9c2.2 .1 4.2-1.3 4.2-1.3c0 0 1.3 3.3 3 3.1c1.7-0.2 7.8-1.7 8.1-3.4c.2-1.8-1.1-3.8-1.1-3.8c0 0 .3-0.3 .7-1.7c.4-1.4 .2-7.3-1.5-8.2c-1.7-0.9-5.4 1-5.4 1Z" fill="#eb9900"/><path class="st9" d="M2030.2 112c0 0 2.2 7.5 5.5 9.4c3.3 1.9 5.3 1 5.3 1c0 0-1.9 1.1-4.2 1.8c-2.4 .7-3.1 .6-3.1 .6c0 0 3 .3 5.4-0.2c2.5-0.5 6.3-2.5 6.3-2.5c0 0 .9 1.6 1.9 2.3c1 .7-0.6 6.8-0.6 6.8c0 0 1.6-2.3 1.8-4.4c.2-2 .3-2.4 .3-2.4c0 0 1 1.3 4.2 1.2c3.1-0.1 4.3-2.3 4.3-2.3c0 0 .8 4.4-1.3 6.6c-2.1 2.2-7.7 5-7.7 5h-1.8l2.1-2.4l-1-1l.2 1.1l-3.1 2l-1.9-0.3c0 0-3.9-3.9-4-4.4c-0.1-0.6 1.6-2.6 1.6-2.6l-2.4 1.2l-4.4-0.8c0 0-2.9-2.6-4.7-7c-2-4.5 1.3-8.7 1.3-8.7Z" fill="#fbd09d"/><path class="st10" d="M2030.2 112c0 0 2.2 7.5 5.5 9.4c3.3 1.9 5.3 1 5.3 1c0 0-1.9 1.1-4.2 1.8c-2.4 .7-3.1 .6-3.1 .6c0 0 3 .3 5.4-0.2c2.5-0.5 6.3-2.5 6.3-2.5c0 0 .3 .5 .7 1.1l-1.2 .5c0 0-4.4 2.6-7.9 2.3c-3.4-0.2-5.7-1-5.7-1c0 0 .4-0.2 2-0.8c1.6-0.6 2.2-1.4 2.2-1.4c0 0-2.9-0.6-4.7-4.2c-0.7-1.3-1.2-3.3-1.5-5.3c.5-0.8 .9-1.3 .9-1.3Zm16.9 18.7c.5-0.8 1.2-2.4 1.4-3.7c.2-2 .3-2.4 .3-2.4c0 0 1 1.3 4.2 1.2c3.1-0.1 4.3-2.3 4.3-2.3c0 0 .8 4.4-1.3 6.6c-2.1 2.2-7.7 5-7.7 5h-0.9c0 0 4.1-2.1 7-4.9c3-2.8 1.7-3.4 1.7-3.4c0 0-0.1 .2-2.1 .3c-2 .2-4-0.4-4-0.4c0 0 0 0-0.7 1.7c-0.6 .9-1.7 1.9-2.2 2.3Z" fill="#eb9900"/><path class="st1" d="M2037.1 130c0 0-2.2-1.9-7.2-0.8c-5 1.2-7 5.6-10.3 8.6c-3.3 3-5.6 3.2-5.6 3.2c0 0 2.4 .4 6.1-0.5c3.7-0.8 6.3-4.1 6.3-4.1c0 0-0.2 .8-1.1 2.1c-0.9 1.4-2.6 2.1-2.6 2.1c0 0 2.1-0.4 5.7-2.9c3.6-2.5 4.1-3.4 5.9-3.6c1.8-0.2 6.4 .6 6.4 .6c0 0-0.9-1.7-2.8-2.4c-1.9-0.7-5.6-0.5-5.6-0.5c0 0 1.2-0.9 3.3-1c2-0.1 3 .3 3 .3l-1.5-1.1Zm-6.1 8.6c0 0-1.8 2.2-6.1 3.8c-4.2 1.6-9.3 1-9.3 1c0 0-2.1 3.8-2.3 5.9c-0.2 2.2 .5 4.4 .5 4.4c0 0 .1-3.2 1.5-5.2c1.3-1.9 2.4-2.6 2.4-2.6c0 0-1.7 2.1-1.8 7.1c0 1.9-0.1 3.4-0.1 4.5c0 .8 0 1.6-0.1 2.5c0 .2 0 .4 0 .5c-0.6 7-3.5 11.1-3.5 11.1l-5.1 5.4c0 0 10.2-2.6 14.5-8.6c4.3-6.1 2.7-12.6 2.7-12.6l2.3 4.7c0 0-1-2.6 1-8.1c2-5.5 5.4-9.8 5.4-9.8l-1.6-0.5c0 0-2.6 .7-3.9 3.7c-1.3 3-1.8 9.5-1.8 9.5c0 0-0.8-1.6-0.4-5.8c.4-4.2 4.2-8.3 4.2-8.3c0 0-6.6 3.4-8.4 7.9c-1.8 4.5-2.6 11.1-2.6 11.1c0 0-0.6-7.4 1.3-11.5c1.9-4.2 8.8-7.4 9.9-8.4c1-0.9 1.3-1.7 1.3-1.7Zm2.8 5.5c0 0-3.1 5.9-4.3 11.9c-1.2 5.9-1 8.8-1 8.8l-2.1-1.5c0 0-0.8 6.1-7.5 10.1c-6.7 4-14.5 6.2-14.5 6.2c0 0 17.8-2.7 25-6.2c7.3-3.4 7.9-9.7 7.9-9.7c0 0 .5 1.2 .2 4.1c-0.2 2.9-1 4.2-1 4.2c0 0 3-2.2 4-5c1-2.7 1-6.3-0.6-12.1c-1.7-5.8 0-10.1 0-10.1l-0.7-2.1l-2-0.2c0 0-1.7 3.3-0.4 8.2c1.3 5 2.5 6.3 2.5 8.4c0 2.1-0.4 3.2-0.4 3.2c0 0 .3-1.8-1.2-5.4c-1.5-3.7-2.6-5.3-2.8-7.1c-0.2-1.8-0.2-1.8-0.2-1.8c0 0-2.2 4.4-1.8 10.7c.4 6.3-3.5 9.8-3.5 9.8c0 0 2.1-3.5 2.4-8.4c.3-4.9 .2-9.4 .8-12c.5-2.6 1.2-4 1.2-4Zm7.2 1.4c0 0-0.9 5 1.2 9.5c2.1 4.4 2.3 9.1 1.2 11.5c-1.1 2.4-1.3 2.6-1.3 2.6c0 0 5.8-4.5 5.4-9.2c-0.4-4.7-1.6-5.9-1.6-5.9c0 0 3.1 2.7 3.7 6c.6 3.3 .2 3.7 .2 3.7c0 0 1.9-2.9 2.2-6.6c.2-3.8-2.5-6.5-2.5-6.5c0 0 2.2 2.6 5.5 3.3c3.3 .7 4.4-0.5 4.4-0.5c0 0-4.2-0.4-7.6-3.4c-3.4-3-6.4-7.6-6.4-7.6c0 0-0.2 .4 1.2 2.8c1.4 2.4 3.8 4.1 3.8 4.1c0 0-0.4 .2-2.4-1.2c-2-1.4-3.8-3.8-3.8-3.8c0 0-0.8 1.3 1.9 4.7c2.7 3.4 3.1 6.3 3.1 6.3c0 0-1.3-2-3-4.2c-1.8-2.2-3.2-4.9-3.2-4.9c0 0-0.8 3.4 1 7.1c1.8 3.8 .8 7.3 .8 7.3c0 0 .7-3.8-1.2-6.7c-1.9-3.1-2.6-8.4-2.6-8.4Zm5.1-9.4c0 0 5.2 0 7.9 3c2.7 2.9 4.5 4.9 8.3 6c3.7 1.1 4.8 .8 4.8 .8c0 0-3.2 4.4-8.7 3.9c-5.5-0.5-7-2.9-9.2-5.7c-2.2-2.8-4.3-5.1-4.3-5.1c0 0 3.2 .8 6.3 3.1c3.2 2.3 5.6 3.6 5.6 3.6c0 0-2-2.5-5.7-5.2c-3.8-2.7-6.7-4-6.7-4l1.7-0.4Zm9.4-2.5c0 0 1.2 1.8 2.3 4.5c1.1 2.6 1.2 3.9 1.2 3.9c0 0-3.4-4.2-5-5.3c-1.6-1.1-2.3-1.4-2.3-1.4l2.4-0.7c0 0 .8 .3 1.7 1.5c.9 1.2 1 1.4 1 1.4l-1.3-3.9Zm-30.7-15.5c0 0-5.4 1.4-8.9 6.2c-3.5 4.9-4.2 12.2-4.2 12.2c0 0 .5-1.8 1.9-3.4c1.4-1.7 2.2-2.3 2.2-2.3c0 0 .2 1.9-2.2 5.6c-2.3 3.8-2.7 3.8-2.7 3.8c0 0 4.4-1.2 7.2-4c2.8-2.8 2.9-4.8 5.6-6.8c2.6-1.9 7.3-2.6 7.3-2.6l-1-0.9c0 0-2.5 0-5 .7c-2.5 .7-4.5 2.4-4.5 2.4c0 0 .4-1.6 3.6-3.1c3.2-1.5 4.1-1.8 4.1-1.8c0 0-2.6-0.8-5.1 .1c-2.6 .8-4.1 2-4.1 2c0 0 .7-1.4 3.8-2.9c3.1-1.4 3.9-1.7 3.9-1.7c0 0-2.8-0.6-6.2 1.5c-3.3 2.2-5.2 4.9-5.2 4.9c0 0 1.1-3.7 4.7-6c3.6-2.3 5.6-3.2 5.6-3.2l-0.8-0.7Zm1.6-14.5c0 0-17-9.9-27.9-11.3c-11-1.4-23.3 3-23.3 3c0 0 12.7 .6 16.3 1.5c3.6 1 3.7 1 3.7 1c0 0-1.4-0.2-6.5-0.2c-5.1 0-8.5 0-8.5 0c0 0 4.8 4.2 16 9.9c11.2 5.7 21.1 4.9 21.1 4.9c0 0-2 1.4-6 1.3c-4-0.1-15.3-3.6-15.3-3.6c0 0 4.6 6.9 14 7.7c9.4 .8 16.2-2.1 16.2-2.1l.8-1.2c0 0-3.7 .3-7 1c-3.4 .7-3.5 .7-3.5 .7c0 0 2.8-1.3 6.3-2.5c3.5-1.2 4.2-2 4.2-2c0 0-10.5-2.6-14.1-3.7c-3.6-1-4.3-1.7-4.3-1.7c0 0 4.2 .9 9.9 1.7c5.7 .8 7.6 .4 7.6 .4c0 0-3.3-2.6-7.3-4.4c-4-1.8-8.8-3.6-8.8-3.6c0 0 9.4 1.5 13.4 3.4c4 1.9 4 1.9 4 1.9l-1-2.1Zm-24.4-21c0 0 8.1-6.2 10.8-6.6c2.7-0.3 8.2 4.2 10.8 7.9c2.6 3.8 7.2 15.8 7.2 15.8l-2.6-2.6l1 4.7c0 0-13.8-7.6-24.5-11c-10.7-3.4-23.8-2.5-23.8-2.5c0 0 7.2-3.9 14.1-4c6.9-0.1 17.4 2.7 21.4 4.5c4 1.8 6.3 3.6 6.3 3.6c0 0-3.3-3.4-8.2-5.8c-5-2.4-10.8-2.7-10.8-2.7c0 0 7.1-3.4 9.8-3.1c2.7 .2 8.8 7.4 8.8 7.4c0 0-7.4-8.3-8.7-8.9c-1.4-0.7-11.6 3.3-11.6 3.3Zm39.5 6.8c0 0-10.1-13.3-16.8-17.5c-6.7-4.2-18.5-3-18.5-3c0 0 4.1 1.5 7.4 3.3c3.4 1.8 7.6 4.5 11 10c3.4 5.5 5.9 11.6 5.9 11.6c0 0-0.5-7-1.5-8.8c-1-1.8-1.9-3-1.9-3c0 0 2.8 1.4 4.7 3.8c2 2.4 3.2 4.2 3.2 4.2c0 0-2.3-6-4.8-9.2c-2.5-3.2-3.4-4.2-3.4-4.2c0 0 4.4 3.1 8.8 7.5c4.4 4.1 5.9 5.3 5.9 5.3Zm17.4 9.2c0 0 4.1-6.6 3.4-11.9c-0.6-5.4-5.7-10.4-5.7-10.4l.2 2.5c0 0-5.2-4.1-11-8.2c-2.4-1.7-6.2-3-10-4.1c.1 0 4.4 1.4 6.1 4.1c1.7 2.8 2.9 6.2 2.9 6.2c0 0-1.6-2.9-5.7-6.4c-4.1-3.5-11.3-5.7-11.3-5.7c-1.6-0.3-2.5-0.4-2.5-0.4c0 0 9.5 10.7 12.7 16c3.2 5.3 6.1 11 6.1 11c0 0-0.3-3.4-1.9-6.8c-1.6-3.4-1.8-4.1-1.8-4.1c0 0 3.7 2.6 6.3 6.6c2.6 4.1 4 10.2 4 10.2c0 0 .6-3.5-1.1-8.6c-1.8-5.1-3.7-7.5-3.7-7.5c0 0 2.8 1.3 5 6.7c2.2 5.4 2.4 9.5 2.4 9.5c0 0 1.4-4.1 1-7.9c-0.5-3.8-1-5.5-1-5.5c0 0 1.7 1.8 2.4 6.2c.7 4.4-0.4 8.3-0.4 8.3c0 0 3.2-5.7 3.4-9.4c.2-3.7-0.4-6.2-0.4-6.2c0 0 1.3 3.3 1.3 8.3c-0.2 4.9-0.7 7.5-0.7 7.5Zm3.3 18.4c0 0 4.2-4.6 5.8-8c1.6-3.4 1.4-6.8 .5-8.9c-0.9-2.1-3.8-5.4-3.8-5.4c0 0-0.2 2-1.4 4.4c-1.3 2.4-1.8 2.2-1.8 2.2l.6 2.8c0 0 .5 0 1.7-1.4c1.2-1.4 1.3-1.9 1.3-1.9c0 0-0.3 1.6-1.5 4.2c-1.2 2.6-1.4 2.7-1.4 2.7l.2 3c0 0 1.2-0.8 2.7-2.5c1.5-1.6 1.6-2.8 1.6-2.8c0 0-0.3 1.8-1.4 4.4c-1.2 2.5-2.8 3.6-2.8 3.6l-0.3 3.6Z" fill="#fff"/><path class="st7" d="M2012.6 139.7c2.3-1.5 5.5-4 6.4-6.2c1.4-3.4 2.2-3.8 2.2-3.8l-2.6 1.3c0 0 1-2.2 2.1-3.6c1.1-1.4 1.7-1.9 1.7-1.9c0 0-3.8 1.4-4.9 2.3c-1.1 1-1.1 1-1.1 1c0 0 2.4-3.6 4.5-5.7c3.1-1.8 5.7-1.2 5.7-1.2c0 0-0.8 .3-3.9 1.7c-3.1 1.4-3.8 2.9-3.8 2.9c0 0 1.6-1.2 4.1-2c2.6-0.8 5.1-0.1 5.1-0.1c0 0-1 .2-4.1 1.8c-3.2 1.5-3.6 3.1-3.6 3.1c0 0 2-1.8 4.5-2.4c2.5-0.7 5-0.7 5-0.7l1 .9c0 0-4.6 .7-7.3 2.6c-2.6 1.9-2.7 3.9-5.6 6.8c-1.6 1.4-3.8 2.5-5.4 3.2Z" fill="#87a9c3"/><path class="st7" d="M2007 177.1c0 0 9.6-3.3 12.6-9.3c3-6 2.9-14.1 2.9-14.1l2.1 1c0 0-0.9-2.6-0.6-5.4c.3-2.8 .4-2.8 .4-2.8c0 0-2.3 3-3.8 7.2c-1 2.8-1.6 4.5-1.9 5.3c.3-2.1 1.1-6.6 2.4-9.9c1.8-4.5 8.4-7.9 8.4-7.9c0 0-3.8 4.1-4.2 8.3c-0.4 4.2 .4 5.8 .4 5.8c0 0 .5-6.6 1.8-9.5c1.3-3 3.9-3.7 3.9-3.7l1.6 .5c0 0-3.4 4.3-5.4 9.8c-2 5.5-1 8.1-1 8.1l-2.3-4.7c0 0 1.6 6.6-2.7 12.6c-4.5 6.2-14.6 8.7-14.6 8.7Zm11.5-17.5c0 0-0.8-7.4 .3-10.6c1.1-3.2 2.4-4.3 2.4-4.3c0 0-3.4-0.2-5.2-0.1c-0.4 0-0.7 0-1.1 0c.4-0.8 .7-1.3 .7-1.3c0 0 5 .6 9.3-1c4.2-1.6 6.1-3.8 6.1-3.8c0 0-0.3 .8-1.3 1.8c-1.1 1-7.9 4.3-9.9 8.4c-1.6 3.5-1.4 9-1.3 10.9Zm-14.1 19.8c0 0 18.6-4.1 23.9-7.4c5.4-3.4 8.3-10.6 8.3-10.6c0 0 1.2 1.3 1.8 2.8c.6 1.4 .6 2 .6 2c0 0 1.1-2 1.3-4.2c.2-2.2-0.7-5.2-0.7-5.2l-0.3 1.9c-0.2-1.8-1.3-3.3-2.5-7.9c-1.3-5 .4-8.2 .4-8.2l2 .2l.7 2.1c0 0-1.7 4.3 0 10.1c1.7 5.8 1.7 9.4 .6 12.1c-1 2.7-4 5-4 5c0 0 .7-1.3 1-4.2c.2-2.9-0.2-4.1-0.2-4.1c0 0-0.6 6.2-7.9 9.7c-7.2 3.2-25 5.9-25 5.9Zm34-20.6c-0.5-0.8-1.1-1.8-1.8-3c-1.3-2.2-2.2-3.9-2.2-3.9c0 0-1 3.8-0.5 7.4c.4 2.8-2.3 6.5-3.5 8.1c1.1-1.5 2.8-4.5 2.5-8.7c-0.4-6.3 1.8-10.7 1.8-10.7c0 0 0 0 .2 1.8c.2 1.8 1.3 3.4 2.8 7.1c.3 .7 .5 1.3 .7 1.9Zm-8.6 9.2Zm.2-0.8c.5-2 1.7-7.3 1.4-10.2c-0.2-2.4-0.2-5.4-0.2-7c1.2-3.4 2.6-5.9 2.6-5.9c0 0-0.7 1.5-1.2 4c-0.5 2.6-0.4 7.1-0.8 12c-0.2 3.1-1.2 5.7-1.8 7.1Zm14 .1c.9-1.1 1.8-2.7 2.2-4.9c.8-4.7-1.4-9.6-1.4-9.6c0 0 2.4 .4 3.8 2.7c1.5 2.4 1.9 3.3 1.9 3.3c0 0 0-2.4-0.6-5.4c-0.5-3-1.6-3.9-1.6-3.9c0 0 1.8 1.3 4.8 2.4c1.2 .4 2.5 .6 3.5 .7c1.5 .5 2.5 .6 2.5 .6c0 0-1.1 1.2-4.4 .5c-3.3-0.7-5.5-3.3-5.5-3.3c0 0 2.7 2.7 2.5 6.5c-0.2 3.8-2.2 6.6-2.2 6.6c0 0 .4-0.4-0.2-3.7c-0.6-3.3-3.7-6-3.7-6c0 0 1.2 1.2 1.6 5.9c.6 3.1-1.5 5.9-3.2 7.6Z" fill="#87a9c3"/><g><path class="st7" d="M2037.1 130c0 0-0.1-0.1-0.2-0.2c-0.4-0.1-0.7-0.1-1.1 0c-3 .4-6 2.8-6 2.8c0 0 0 0 1.5-0.2c1.5-0.2 3.9 .5 3.9 .5c0 0-0.7 0-3.5 .9c-2.8 .9-4.5 2.8-4.5 2.8l.6-2.3c0 0-0.1 .4-3.9 3c-3.8 2.7-7.6 3.7-7.6 3.7c1-0.1 2.3-0.2 3.8-0.5c3.7-0.8 6.3-4.1 6.3-4.1c0 0-0.2 .8-1.1 2.1c-0.9 1.4-2.6 2.1-2.6 2.1c0 0 2.1-0.4 5.7-2.9c3.6-2.5 4.1-3.4 5.9-3.6c1.8-0.2 6.4 .6 6.4 .6c0 0-0.9-1.7-2.8-2.4c-1.9-0.7-5.6-0.5-5.6-0.5c0 0 1.2-0.9 3.3-1c2-0.1 3 .3 3 .3l-1.5-1.1Zm9 6.1c.6 0 4.6 2.3 7 4.9c2.4 2.6 4.5 5.2 4.5 5.2c0 0-1 0-3.1-0.8c-2.2-0.8-3.6-1.6-3.6-1.6c0 0 2.3 3.5 6.9 4.2c4.6 .7 9.4-2.1 9.4-2.1c0 0-3.2 4.4-8.7 3.9c-5.5-0.5-7-2.9-9.2-5.7c-2.2-2.8-4.3-5.1-4.3-5.1c0 0 3.2 .8 6.3 3.1c3.2 2.3 5.6 3.6 5.6 3.6c0 0-2-2.5-5.7-5.2c-3.8-2.7-6.7-4-6.7-4l1.6-0.4Zm-0.3 6.7c-0.1-0.1-0.2-0.3-0.4-0.4c0-0.1 0-0.1 0-0.1c0 0 .1 .2 .4 .5Zm3.3 4.3c-0.2-0.3-0.5-0.5-0.7-0.8l.7 .8Z" fill="#87a9c3"/></g><path class="st7" d="M2023.6 83.9l2 8.4c0 0-3.4-4.1-8.7-6.4c-5.4-2.3-13.3-2-13.3-2c0 0 5.8 .3 10.8 2.7c3.9 1.9 6.8 4.4 7.8 5.4c.3 .2 .4 .4 .4 .4c0 0 0 0-0.2-0.1l3.5 3.9l.5 1.9c0 0-13.7-6.6-21-8.6c-7.3-1.9-16.7-1.2-16.7-1.2c4.6 .2 10.5 .8 15.8 2.5c10.7 3.4 24.5 11 24.5 11l-1-4.7l2.6 2.6c.2 0-4.4-12-7-15.8Zm1.5 19c-3.9-1.3-10.8-3.4-13.5-3.4c-3.8 0-5.3 .1-5.3 .1l12.7 7c0 0-6.7-1.5-11.7-2.2c-5-0.7-6.6-1.1-6.6-1.1l9.3 6.6c0 0-3.9-0.4-12.7-3.6c-8.8-3.2-17-8.9-17-8.9c0 0 .6 .6 1.6 1.4c2.3 1.7 6.9 4.8 14.2 8.5c11.2 5.7 21.1 4.9 21.1 4.9c0 0-0.1 .1-0.4 .2c2-0.1 4.1-0.3 4.1-0.3c0 0-3.5 2.3-9 3.6c-5.5 1.2-13.7-3.3-13.8-3.3c2.2 2.1 6.2 4.7 11.8 5.2c9.4 .8 16.2-2.1 16.2-2.1l.8-1.2c0 0-3.7 .3-7 1c-3.4 .7-3.5 .7-3.5 .7c0 0 2.8-1.3 6.3-2.5c3.5-1.2 4.2-2 4.2-2c0 0-10.5-2.6-14.1-3.7c-3.6-1-4.3-1.7-4.3-1.7c0 0 4.2 .9 9.9 1.7c5.7 .8 7.6 .4 7.6 .4c0 0-3.3-2.6-7.3-4.4c-4-1.8-8.8-3.6-8.8-3.6c0 0 9.4 1.5 13.4 3.4c4 1.9 4 1.9 4 1.9l-1-2.1c.1 .2-0.4-0.1-1.2-0.5Z" fill="#87a9c3"/><path class="st7" d="M2066.6 111.3c.5-1.4 .9-2.7 .9-3.6c.2-3.1-0.3-4.3-0.3-4.3l-2.4 2.6c0 0 1.1-2.2 1.2-4.2c.1-1.4-0.3-4.4-0.6-6.1c-0.5-0.6-0.8-1-0.8-1c0 0-0.2 2-1.4 4.4c-1.3 2.4-1.8 2.2-1.8 2.2l.6 2.8c0 0 .5 0 1.7-1.4c1.2-1.4 1.3-1.9 1.3-1.9c0 0-0.3 1.6-1.5 4.2c-1.2 2.6-1.4 2.7-1.4 2.7l.2 3c0 0 1.2-0.8 2.7-2.5c1.5-1.6 1.6-2.8 1.6-2.8c0 0-0.3 1.8-1.4 4.4c-1.2 2.5-2.8 3.6-2.8 3.6l-0.3 3.6c.1 0 2.7-2.8 4.5-5.7Zm-5.3-17.8c0-2.6-0.2-6.4-1.1-8.5c-1.5-3.4-3.5-4.2-3.5-4.2c0 0 .8 3.6 .7 6.4c-0.1 2.8-0.3 3.7-0.3 3.7c0 0-0.4-4-2-7.1c-1.6-3.1-5.5-5-5.5-5c0 0 1.2 2.3 1.9 4.4c.8 2.2 .8 3.5 .8 3.5c0 0-1.8-3.3-4.3-5.8c-2.5-2.4-5.8-3.3-5.8-3.3l2.8 4.8c0 0-2.8-2.2-4.9-3.6c-2-1.4-5.4-3.4-5.4-3.4c1.3 1.7 2.5 3.4 3.3 4.7c3.2 5.3 6.1 11 6.1 11c0 0-0.3-3.4-1.9-6.8c-1.6-3.4-1.8-4.1-1.8-4.1c0 0 3.7 2.6 6.3 6.6c2.6 4.1 4 10.2 4 10.2c0 0 .6-3.5-1.1-8.6c-1.8-5.1-3.7-7.5-3.7-7.5c0 0 2.8 1.3 5 6.7c2.2 5.4 2.4 9.5 2.4 9.5c0 0 1.4-4.1 1-7.9c-0.5-3.8-1-5.5-1-5.5c0 0 1.7 1.8 2.4 6.2c.7 4.4-0.4 8.3-0.4 8.3c0 0 3.2-5.7 3.4-9.4c.2-3.7-0.4-6.2-0.4-6.2c0 0 1.3 3.3 1.3 8.3c0 3-0.2 5.1-0.4 6.4c-0.1 .8-0.2 1.2-0.2 1.2c0 0 1.3-2.1 2.3-5Zm-19.8-4.1c0 0-8.5-9.4-11.3-11.4c-2.8-2.1-6.7-3.6-6.7-3.6c0 0 1.8 1.8 3.1 3.6c1.3 1.8 2.3 3.4 2.3 3.4l-3.6-2l1.3 3.8c0 0-1.5-2.1-4-4.9c-2.5-2.8-5.8-4.1-5.8-4.1c2.6 1.8 5.4 4.3 7.8 8.1c3.4 5.5 5.9 11.6 5.9 11.6c0 0-0.5-7-1.5-8.8c-1-1.8-1.9-3-1.9-3c0 0 2.8 1.4 4.7 3.8c2 2.4 3.2 4.2 3.2 4.2c0 0-2.3-6-4.8-9.2c-2.5-3.2-3.4-4.2-3.4-4.2c0 0 4.4 3.1 8.8 7.5c4.4 4 5.9 5.2 5.9 5.2Z" fill="#87a9c3"/><path class="st8" d="M2037.1 130c0 0-2.2-1.9-7.2-0.8c-5 1.2-7 5.6-10.3 8.6c-3.3 3-5.6 3.2-5.6 3.2c0 0 1 .1 2.7 0c1-0.3 2.1-0.8 3.2-1.5c4-2.4 6.6-7.4 11.1-8.9c4.5-1.5 7.6 .5 7.6 .5l-1.5-1.1Zm-18.8-6.5c0 0-0.3 .2-0.9 1c-1.5 1.9-2.1 3.6-2.1 3.6c-1.7 3.8-2.7 6.1-2.7 6.1c-0.8 1.2-1 2.3-1 2.3c0 0 .7-7.3 4.2-12.2c3.5-4.9 8.9-6.2 8.9-6.2l.8 .9c0 0-2 .9-5.6 3.2c-0.5 .4-1.1 .9-1.6 1.3Z" fill="#f9db00"/><path class="st8" d="M1975.1 95.3c0 0 13.2-2.5 25.1-0.7c11.9 1.9 27.1 11.1 27.1 11.1l-1-2.1c0 0-17-9.9-27.9-11.3c-10.9-1.3-23.3 3-23.3 3Zm10.8-7.2c2.8-1.1 8.9-2.9 16.5-1.7c10.6 1.7 19.1 5.1 19.1 5.1c-0.1 0-0.8-0.5-2-1.2c-0.9-0.5-2-1.1-3.2-1.6c-4-1.8-14.5-4.6-21.4-4.5c-6.9 .1-14.1 4-14.1 4c0 0 2-0.1 5.1-0.1Zm16.1-5.5c0 0 9.2-5.3 12.3-4.6c3.1 .8 7.2 3.4 7.3 3.4c-2.8-3-6.6-5.7-8.7-5.4c-2.8 .3-10.9 6.6-10.9 6.6Zm8.6-11.9c3.2 .1 9.8 .5 14.1 2.9c5.8 3.2 12.7 10.7 12.7 10.8c-3.5-4.2-8.7-9.9-12.7-12.4c-6.7-4.2-18.5-3-18.5-3c0 0 2 .6 4.4 1.7Zm17.2-3.4c0 0 4.2 .3 8.8 3.5c4.6 3.2 8.2 6.1 8.2 6.1c0 0 0-0.1-0.1-0.2c-0.5-0.8-2.1-3.2-5.5-6.2c-4.1-3.5-11.3-5.7-11.3-5.7c-1.6-0.3-2.5-0.4-2.5-0.4c0 0 .9 1.1 2.4 2.9Zm14 3.2c3.9 2.1 9.5 5.2 11.7 6.4l3.5 1.9c0 0-5.2-4.1-11-8.2c-2.4-1.7-6.2-3-10-4.1c0 .1 4 1.4 5.8 4Z" fill="#f9db00"/><path class="st9" d="M2067.7 153.3c0 0 10.2 9 14.9 17.6c4.6 8.7-0.5 26.6-0.5 26.6c0 0-3.8 1.4-10.9-7c-7.1-8.5-9-15.9-9-15.9c0 0 1.2 10.8 7.5 18.3c6.2 7.5 12.7 10 12.7 10c0 0 1.8 7.5-0.5 14.2c-2.2 6.7-6.1 11.4-5.6 14.3c.5 2.9-10.6 10.1-10.6 10.1l9.1-1.6c0 0-1.3 4.6-5.8 6.9c-4.5 2.2-22.6 3.8-28.3 2.4c-5.8-1.4-7.5-1.4-7.5-1.4l-0.2-10.1c0 0 5.6-0.6 12-6.1c6.4-5.4 8.2-10.2 8.2-10.2c0 0 3-1 9.9 1.4c6.8 2.4 7 10.4 7 10.4c0 0 1-5.1-1.8-8.8c-2.8-3.7-13.7-6.2-13.7-6.2c0 0-1.4 .8 .8-9.6c1-5 2-10 2.8-13.8c0 0 1.8-5.8 1.9-9.2c.1-3.4-3.2-9.4-3.2-9.4c0 0 2.4 8.4 0 11c-2.4 2.6-12.6 7.7-12.6 7.7c-1 .4-2.1 .7-3.2 1c-9.9 2.9-19.1-1.6-25.3-5.3c-6.2-3.7-7.6-7.4-7.6-7.4c0 0 6.1 1 26.2-6c20.1-7 26.8-18.4 28.3-21.6c1.5-3.2 1.9-4.2 1.9-4.2l3.1 1.9Z" fill="#fbd09d"/><path class="st10" d="M2064.1 182.3c1.1 3.4 2.9 7.3 5.6 10.6c6.2 7.5 12.7 10 12.7 10c0 0 1.8 7.5-0.5 14.2c-2.2 6.7-6.1 11.4-5.6 14.3c.5 2.9-10.6 10.1-10.6 10.1l9.1-1.6c0 0-1.3 4.6-5.8 6.9c-4.5 2.2-22.6 3.8-28.3 2.4c-5.8-1.4-7.5-1.4-7.5-1.4l-0.1-3.8c3.6 .9 9.5 2 16.5 2.1c11.5 .2 15.2-2.7 15.2-2.7l-4.8-1.4c0 0 5.9-2.6 8.8-5.8c2.9-3.2 6.6-8.5 8.2-15.2c1.6-6.7 2.6-16.2 2.6-16.2c0 0-4.8-2.1-9.3-7.4c-4.4-5.3-6.2-15.1-6.2-15.1Zm-54.9 2.5c-0.7-1-0.9-1.6-0.9-1.6c0 0 3.1 .5 12.2-1.8h.2l.4-0.1l.2-0.1l.4-0.1l.2-0.1h.1l.3-0.1l.2-0.1c.1 0 .3-0.1 .4-0.1l.2-0.1l.4-0.1l.3-0.1l.4-0.1l.3-0.1h.1l.4-0.1l.3-0.1c.2 0 .3-0.1 .5-0.1l.2-0.1c2.5-0.7 5.2-1.6 8.3-2.7c20.1-7 26.8-18.4 28.3-21.6c1.4-2.9 1.8-4 1.9-4.2l1.5 .9c-6.4 16.5-20.1 26.1-35.9 30.2l6.7 11.2c0 0 11.3-2.7 15.4-6.7c4.1-4 4.5-10.8 4.5-10.8c0 0 .2 .8 .5 2c.6 2.6 1.2 7.2-0.5 9c-2.4 2.6-12.6 7.7-12.6 7.7c-1 .4-2.1 .7-3.2 1c-7.5 2.2-14.6 .1-20.3-2.6l-0.5-8.9c-3.5 .4-7.2 .6-10.9 .5Zm61 45.6c-0.1-1.8-0.5-4.2-2-6.1c-2.8-3.7-13.7-6.2-13.7-6.2c0 0-0.6 .3-0.4-2.4c3.7 .6 9.4 1.9 12.6 4.4c3.6 2.7 3.8 7.7 3.5 10.3Z" fill="#eb9900"/><path class="st8" d="M2067.7 153.3c0 0 10.2 9 14.9 17.6c3.5 6.6 1.4 18.6 .2 23.9c0-0.1 1.5-9.2-2-21c-2.8-9.7-14-16-18.1-18l.1-0.1c1.5-3.2 1.9-4.2 1.9-4.2l3 1.8Z" fill="#f9db00"/><path class="st9" d="M1957.8 65.2l2.5 1.8c0 0-2.6 .6-6.7 5.8c-4.1 5.2-5.9 9.1-5.9 9.1c0 0 1.9-3.9 6-7.5c4.1-3.6 5.8-4.6 5.8-4.6c0 0-5.8 8.7-8.6 13.9c-2.9 5.1-1.4 4.4-7.7 7.7c-6.2 3.3-9.6 2.6-9.6 2.6c0 0-0.6 2.5 7.8-0.1c8.4-2.6 10.1-4.6 10.1-4.6c0 0 10.9 2.3 15.2 6.2c4.3 3.8 3.8 7 7.8 13c4 5.9 9.3 7.3 9.3 7.3c0 0-4.1-2.6-7.5-7.9c-3.4-5.3-3.9-9.3-3.9-9.3c0 0 11.5 9.1 19.2 15.3c2.7 2.1 4.9 3.8 6.1 4.7c4.6 3.5 11.2 4.5 11.2 4.5l2.7 .5c0 0-5.7 4.6-4.9 14.7c.8 10.1 4.3 16.2 4.3 22.1c0 5.9-3.6 10.6-7.4 14.6c-3.8 3.9-6.7 4.4-7.8 4.4c-1.1 0-15.1-3.5-19-17.1c-3.8-13.6-0.3-30.4-0.3-30.4c0 0-1.9 3.8-3 9.4c-1.1 5.6-1.1 5.9-1.1 5.9c0 0-2.7-15.7-2.7-23c0-7.4 1.3-11.7 1.3-11.7l-2.9 5c0 0-6.6-4.2-11.8-5.6c-5.2-1.4-6.4-1.1-10.7-4.5c-4.3-3.4-6.1-6.1-6.1-6.1c0 0 1.6 6.9 11.2 11.4c9.6 4.5 11.3 5.8 13.8 7.8c2.6 2 4.9 11.9 4.9 11.9c0 0-2.6 1.6-9-1.4c-6.4-3-10-11.4-13.5-13.4c-3.4-2-13.2-8.3-18.8-13.3c-5.6-5-7.5-13-7.5-13c0 0 3.5 .3 9.3-9.4c5.8-9.8 23-19.4 23-19.4l4.9 2.7Z" fill="#fbd09d"/><path class="st10" d="M1957.8 65.2l2.5 1.8c0 0-2.6 .6-6.7 5.8c-4.1 5.2-5.9 9.1-5.9 9.1c0 0 1.9-3.9 6-7.5c4.1-3.6 5.8-4.6 5.8-4.6c0 0-5.8 8.7-8.6 13.9c-2.9 5.1-1.4 4.4-7.7 7.7c-6.2 3.3-9.6 2.6-9.6 2.6c0 0-0.1 .4 .3 .7c-2.8 .2-4.4-0.1-4.4-0.1c0 0 1.2-0.1 5-1.4c3.8-1.3 9.8-3.8 11.9-5.4c2.1-1.5 4-7 4-7l-5.4 4.2c0 0 .6-3.5 2.5-7.6c1.9-4.1 7.6-9.8 7.6-9.8l-13.7 2.2l14.2-5.8l2.2 1.2Z" fill="#eb9900"/><path class="st10" d="M1974.1 104.3c-1.6-3.4-1.9-5.7-1.9-5.7c0 0 11.5 9.1 19.2 15.3c2.7 2.1 4.9 3.8 6.1 4.7c4.6 3.5 11.2 4.5 11.2 4.5l2.7 .5c0 0-5.7 4.6-4.9 14.7c.6 7.4 2.6 12.6 3.7 17.2l-26.8 13.1c0 0-1.1-9.1-0.3-14.7c.8-5.6 3.7-16.7 3.7-16.7c0 0-0.5-1.9-1.8-7.8c-1.3-5.9-0.2-16.7-0.2-16.7l-10.7-8.4Zm.8 30.8c-0.2 .7-0.5 1.4-0.7 2.2c-0.2 .8-0.5 1.7-0.7 2.7l-1.5 6c-0.6-3.7-2.5-15.8-2.5-21.9c0-7.4 1.3-11.7 1.3-11.7l-2.9 5c0 0-6.6-4.2-11.8-5.6c-5.2-1.4-6.4-1.1-10.7-4.5c-4.3-3.4-6.1-6.1-6.1-6.1c0 0 1.6 6.9 11.2 11.4c9.6 4.5 11.3 5.8 13.8 7.8c2.6 2 4.9 11.9 4.9 11.9c0 0-2.6 1.6-9-1.4c-6.4-3-10-11.4-13.5-13.4c-3.4-2-13.2-8.3-18.8-13.3c-5.6-5-7.5-13-7.5-13c0 0 5.1 8 9.6 11.1c4.5 3 13.4 10.6 16.2 11.8c2.8 1.2 10.6 11.4 13.6 13c3 1.5 4.1-1.8 2.4-3.9c-1.7-2.1-12.5-7.8-18.1-12.6c-5.6-4.8-6.8-13.4-6.8-13.4c0 0 4.6 6 9.8 8.6c5.2 2.6 13.2 3.9 16.3 5.2c3 1.3 4 1.9 4 1.9l4.6-2.1c0 0-0.1 10.2 .2 15.2c.3 5 .7 7.3 .7 7.3l4.7-6.3l-2.7 8.1Z" fill="#eb9900"/><path class="st8" d="M1999.9 177.8c-2 1.3-3.6 1.5-4.3 1.5c-1.1 0-15.1-3.5-19-17.1c-3-10.7-1.5-23.5-0.7-28.4c-0.7 4.8-1.6 17.3 5.2 28.9c8.8 14.6 18.8 15.1 18.8 15.1Z" fill="#f9db00"/><path class="st8" d="M1948 91.4c2.7-1.3 3.4-2.1 3.4-2.1c0 0 10.9 2.3 15.2 6.2c4.3 3.8 3.8 7 7.8 13c3 4.4 6.6 6.3 8.3 6.9c0 0-4.5-0.3-8.8-4.9c-4.3-4.6-5.3-9.2-10-13.1c-3.9-3.2-12.6-5.3-15.9-6Z" fill="#f9db00"/><path class="st9" d="M1990.4 192.6c-0.2 .5-2.4 3.7-1.5 7.5c.9 3.8 10.1 7 12.9 7.5c2.8 .6 6.6-2.2 7-4c.3-1.8-0.4-6.6-0.6-8.2c-0.2-1.7-2.1-4.6-4-5.3c-1.9-0.6-3.4-2.6-9.1-5.8c-5.8-3.2-15.2-10.1-15.2-10.1c0 0 .2 1.4 6.6 6.9c6.4 5.5 9.6 7.4 9.6 7.4c0 0-1.4-0.6-7.5-3.8c-6.2-3.2-8.7-5-8.7-5c0 0 4 6.2 8.7 8.9c4.6 2.7 8.2 4.2 8.2 4.2l-6.4-0.2Z" fill="#fbd09d"/><path class="st9" d="M2010.8 193.4c0 0 0 3.1 .2 7.5c.2 4.4-1 5.8-0.8 6.5c.2 .7 10.4 4.8 12.9 4.1c2.5-0.7 2.9-5.3 2.2-6.5c-0.6-1.2-3-4.3-6.9-7.4c-3.9-3.1-5.1-4.2-6-4.4c-0.8-0.2-1.6 .2-1.6 .2Z" fill="#fbd09d"/><path class="st9" d="M2008.8 211.7c0 0 5.5-1.1 8.7 .1c3.1 1.2 6 3.9 6.2 7c.2 3.1 .4 6.7-1.3 7.2c-1.7 .5-13.1-2.6-13.9-4.8c-0.9-2.2 .3-9.5 .3-9.5Z" fill="#fbd09d"/><path class="st9" d="M1991.7 209c0 0 8.2-1.3 10.6 .1c2.4 1.4 4.4 5.1 4.6 7.9c.2 2.8-1.1 5.7-2.2 6.5c-1 .8-3.4 .5-6.4 .3c-3-0.2-6.6-1.3-8.6-3.4c-2-2.1-1.4-4-0.8-6.8c.7-2.7 2.8-4.6 2.8-4.6Z" fill="#fbd09d"/><path class="st9" d="M1954.7 57.4c0 0 3.9-2.7 4.6-3.8c.6-1 1-2.3 1.8-2.4c.9-0.1 3.4-0.3 3.4-0.3c0 0-0.2-2.2 1.9-2.7c2.2-0.5 4.7 .4 4.7 .4c0 0-0.1-2.1 2.2-2.1c2.3 0 3.5 1.3 3.5 1.3c0 0 3.8-1.5 4.6-1c.8 .5 2.3 9.8 2.4 11.8c.1 2-0.4 3-1.6 3.6c-1.2 .6-3.1 .1-3.1 .1c0 0 1.4-1.6 1.4-2.4c0-0.9-1.4-10-2.3-9.9c-0.9 .1 .8 9.9 .8 9.9c0 0-2 3.1-2.8 3.7c-0.8 .6-3.6 .6-3.6 .6c0 0 1.2-2.7 1.2-3.1c0-0.4-1.5-9.3-2.3-9.3c-0.8 0-0.6 2.6-0.1 5.1c.6 2.4 .9 4.6 .9 4.6c0 0-0.5 2.5-1.2 3c-0.7 .6-4.4 .8-4.7 .3c-0.3-0.5-0.1-4.6-0.4-6c-0.3-1.4-1.4-3-1.5-3.3c-0.1-0.3-1 .6-0.8 1c.2 .5 1.1 3.2 1.5 4.5c.4 1.3 .5 3.7 .1 4.2c-0.4 .5-2.1 .9-3.2 .9c-1 0-3.5-1.8-3.5-1.8l2.2-0.8c0 0-1.8-3.9-2.4-4.4c-0.6-0.5-4.9-0.2-4.9-0.2l1.2-1.5Z" fill="#fbd09d"/><path class="st10" d="M1984 58.9c0 1.7-0.5 2.6-1.6 3.2c-1.2 .6-3.1 .1-3.1 .1c0 0 1.4-1.6 1.4-2.4c0-0.1 0-0.2 0-0.4l3.3-0.5Zm-5 .7v.2c0 0-2 3.1-2.8 3.7c-0.8 .6-3.6 .6-3.6 .6c0 0 1.2-2.7 1.2-3.1c0-0.1 0-0.3-0.1-0.7l5.3-0.7Zm-6.8 .9c.1 .5 .1 .8 .1 .8c0 0-0.5 2.5-1.2 3c-0.7 .6-4.4 .8-4.7 .3c-0.2-0.3-0.2-1.9-0.2-3.4l6-0.7Zm-6.8 .8c.3 1.3 .3 3.3 0 3.7c-0.4 .5-2.1 .9-3.2 .9c-1 0-3.5-1.8-3.5-1.8l2.2-0.8c0 0-0.2-0.5-0.6-1.2l.3-0.1l4.8-0.7Z" fill="#eb9900"/><path class="st8" d="M1954.7 57.4c0 0 3.9-2.7 4.6-3.8c.6-1 1-2.3 1.8-2.4c.9-0.1 3.4-0.3 3.4-0.3c0 0-0.2-2.2 1.9-2.7c2.2-0.5 4.7 .4 4.7 .4c0 0-0.1-2.1 2.2-2.1c2.3 0 3.5 1.3 3.5 1.3c0 0 3.8-1.5 4.6-1c.2 .1 .4 .7 .7 1.6c-0.2 .1-0.4 .2-0.6 .3c-1.1 .1-4.6 1.2-4.6 1.2c0 0-1.5-1.4-2.6-1.3c-1.1 0-1.4 2-1.4 2c0 0-3.9-0.6-5.1 .2c-1.2 .8-0.1 1.6-1.5 2.4c-1.4 .8-4.4 .1-4.4 .1c0 0 0 .8-1 2.4c-1 1.6-4.5 3.1-4.5 3.1l-2.5-0.4l.8-1Z" fill="#f9db00"/><path class="st10" d="M1979 63.8c0 0-1.2 4.4-1.9 4.5c-0.7 .2-7.8 1.4-8.9 .9c-1.2-0.5-0.8-2.8-0.8-2.8c0 0 7.3-1.2 9-1.6c1.7-0.4 2.6-1 2.6-1Z" fill="#eb9900"/><path class="st0" d="M1909.3 78.2l-53.3 19.6l-1.4-3.3l89.8-40l-12 11.8l20-8.8l6.6 1l2.3 4.9l-69.9 29.3Z" fill="#23293f"/><path class="st8" d="M1952.6 59.4l5.2 .8l1 2.2l-56.3 23.6l16.5-13.4l-62 22.9l78.8-35.1l-12 11.8Z" fill="#f9db00"/><path class="st0" d="M2021.6 178.4h3.5l1.5 3.5c1.2 2.9 2.5 5.7 3.8 8.5c.7 1.5 1.5 3.1 2.3 4.5c2.8 5 5.6 9.9 8.5 14.8l.3 .5l-6 22.9l-1.9 .8c-2.4 .9 2.8 .2 .3 .5c-7.6 .9-15.6 .2-23-1.1c-13.5-2.4-27.1-4.8-40.6-7.3l-1.7-0.3l-6.4-26l2-1c.2-0.1 .4-0.2 .6-0.3h.1l17.3-7.1l-2.2 .2l.5-3.5c1.5-9.7 2.9-19.3 4.3-29c.5-3.3 1-6.7 1.5-10c.2-1 .3-2.1 .5-3.1c.1-0.6 .2-1.3 .4-1.9l1.9-5.3c-0.1-0.5-0.2-1.1-0.3-1.6c-0.2-1-0.3-1.9-0.4-2.9c-0.6-5.1-0.7-10.4-0.6-15.6c.1-2.4 .2-4.9 .5-7.2l.6-5.9c3.5 3.7 6.5 7.1 10.9 10c1.4 1 3.2 1.8 4.7 2.4c2.5 1.1 5.2 2.1 7.8 3l3.1 1l-1.4 2.9c-1.9 3.8-3.7 9.5-3.7 13.7c0 2 .5 4.2 .9 6.2c.6 2.6 1.3 5.2 1.9 7.7c.8 3.9 1.4 8.1 .8 12.1c-0.5 3.4-2.4 6.6-4.4 9.3c-1.5 2-3.4 4-5.4 5.9c1.7 .1 3.4 .1 5.1 0c3.6-0.2 7.5-0.4 11-1l1.4-0.3Z" fill="#23293f"/><path class="st1" d="M1990.9 111.7c0 0-1.4 13.3 .5 25c1.9 11.7 9.3 22.9 9.3 22.9c0 0-4.8-3-7.5-6.9c-2.7-3.8-3.5-7.7-3.5-7.7c-0.6 1.6-3.3 22.7-6.6 43.6l16.4-1.3l-33.7 13.8c-0.4 .2-0.6 .3-0.6 .3l5.4 22.1c0 0 20.7 3.9 40.6 7.3c19.9 3.5 20.9-1 20.9-1l6.7-18.5c0 0-6.7-11.7-8.5-14.8c-1.7-3.1-1.5-2.9-2.3-4.5l-4.4-10.8l-3.1 .3c0 0-4.3 .7-11.4 1.1c-7 .3-11.7-1-11.7-1c0 0 12.2-9 13.5-17.4c1.4-8.5-3.6-18.7-3.6-25.6c0-7 4-15 4-15c0 0-3.4-1.1-7-2.6c-3.7 8.1-1.4 20.3 1.3 28.1c-4.7-12-5.9-17.8-5-29.8c-0.9-0.5-1.8-1-2.5-1.5c-4-2.9-7.2-6.1-7.2-6.1Z" fill="#fff"/><path class="st7" d="M1990.9 111.7c0 0-0.2 1.6-0.3 4.2l6.2 5.1c0 0-0.6 6.4 3.7 17.5c4.3 11.1 5.2 11.8 5.2 11.8l-0.1-1.3c-4.7-11.9-5.9-17.7-4.9-29.6c-0.9-0.5-1.8-1-2.5-1.5c-4.1-3-7.3-6.2-7.3-6.2Zm33.8 72l-1.1-2.6l-3.1 .3c0 0-4.3 .7-11.4 1.1c-7 .3-11.7-1-11.7-1c0 0 12.2-9 13.5-17.4c1.4-8.5-3.6-18.7-3.6-25.6c0-7 4-15 4-15c0 0-3.4-1.1-7-2.6c-3.7 8.1-1.4 20.1 1.3 27.9l-2-21.2l2 .2c-0.2 3.2-0.6 10.1 .1 14.1c1 5.5 1.1 7.9 2.2 13.4c1.2 5.4 .8 8.6 .8 8.7c-0.2 1.3-0.5 2.6-0.9 3.7c-2.1 6.2-15.5 15.2-15.5 15.2c0 0 7 1.6 15.8 2c5.6 .1 11.2-0.3 16.6-1.2Z" fill="#87a9c3"/><path class="st8" d="M1990.9 111.7c0 0-1.4 13.3 .5 25c1.9 11.7 9.3 22.9 9.3 22.9c0 0-4.1-9.9-6.5-20.4c-2.4-10.6-0.8-25.1-0.8-25.1c-1.5-1.4-2.5-2.4-2.5-2.4Zm.6 38c-1.3-2.7-1.8-4.8-1.8-4.8c-0.6 1.6-3.3 22.7-6.6 43.6l3.4-0.3l5-38.5Z" fill="#f9db00"/><path class="st8" d="M2039.6 119.1l-11.7-11l.3 3.3l-15.8-10.8l17.7 14l-0.4-3.7c0 0 6.9 9.1 8.1 9.4c1.2 .4 3.3-0.3 3.3-0.3l-1.5-0.9Z" fill="#f9db00"/><path class="st8" d="M2051 122.9l9.9-3.7l-0.4 1.3l9-4.3l-10.6 6.7l.3-1.6c0 0-5.2 2.7-6.3 2.7c-1.1 0-1.9-1.1-1.9-1.1Z" fill="#f9db00"/><g><g><g><path class="st1" d="M2018.6 207.9h-49.4h-16.2l-15.3 91.4h58l3.5-21.1h-31.5l2.7-16.1h30.1l3.3-19.8h-30.1l2.2-13.3h37.3l-14.8 89.8l33.9-49.4l-16.3-0.9l22.3-39.5h1.4h.1h29.4l3.5-21.1Z" fill="#fff"/><path class="st0" d="M2072.7 207.9l-3.5 21h-29.5v.1h-1.5l-22.3 39.4l16.3 1l-33.9 49.4l14.9-89.9h-37.3l-2.2 13.3h30.1l-3.3 19.8h-30l-2.7 16.2h31.5l-3.5 21h-57.9l15.3-91.3h16.2h49.4h53.9m5.7-4.8h-5.7h-54.1h-49.4h-16.2h-4.1l-0.7 4l-15.3 91.3l-0.9 5.6h5.7h57.9h.3l-2.3 14l-3.5 21.3l12.2-17.8l33.9-49.4l4.8-7l-8.5-0.5l-8.6-0.5l17.1-30.3h2.8v-0.1h25.4h4.1l.7-4l3.5-21l.9-5.6Zm-98.4 30.7h27.6l-0.6 3.7h-3.2h-24.4l.6-3.7Zm-5.5 33.1h26h1.6l-1.1 6.6h-1.8h-25.8l1.1-6.6Z" fill="#23293f"/></g><g><path class="st10" d="M2060.8 257.5l16.7-21.9h-17.9h-16.7l-16.1 28.6l16.2 .7l-30.9 45l20.6-16.4l45-36Z" fill="#eb9900"/><path class="st0" d="M2077.5 235.6l-16.7 22h17l-45.1 36l-20.6 16.4l30.8-45l-16.2-0.7l16.1-28.6h16.8l17.9-0.1m9.7-4.8h-9.7h-17.8h-16.8h-2.8l-1.4 2.4l-16.1 28.6l-3.8 6.8l7.8 .4l7.6 .3l-26 37.9l-13.7 23l20.7-16.5l20.6-16.4l45.1-36l10.7-8.6h-13.7h-7.3l10.8-14.3l5.8-7.6Z" fill="#23293f"/></g></g><path class="st8" d="M2060.8 257.5l16.7-21.9h-17.9l-14.7 25.4h12.9l-25.1 32.5l45-36Z" fill="#f9db00"/></g></g></g><g transform="translate(2019.3,104.2) translate(-75.8,-89.9)"><path class="st8" d="M2076.2 156.7c1.9-0.3 4.2-0.6 5.9-0.7c3.6-0.2 5.4 .4 5.4 .4l-5.8 11.2h4.2c0 0-5.7 8.9-15.5 14.7c-9.8 5.8-35.4 11.8-35.4 11.8c0 0 21.1-2.7 37.1-10.7c16-8 21.1-19.1 21.1-19.1l-4.4 .7l6.4-11.1c0 0-7.5-1.7-12.9-1.4c-5.4 .2-6.6 .5-9 .8l2.9 3.4Z" fill="#f9db00" transform="translate(-1943.5,-14.3)" style="animation: 1s linear infinite both aoal85ypnm3bpp9tlzwvwe59_f;"/><path class="st8" d="M2062.2 72.9c1.9-0.3 4.2-0.6 5.9-0.7c3.6-0.2 5.4 .4 5.4 .4l-5.8 11.2l4.2-0.1c0 0-5.7 8.9-15.5 14.7c-9.8 5.8-35.4 11.8-35.4 11.8c0 0 21.1-2.7 37.1-10.7c16-8 21.1-19.1 21.1-19.1l-4.4 .7l6.4-11.1c0 0-7.5-1.7-12.9-1.4c-5.4 .3-6.6 .5-9 .8l2.9 3.5Z" fill="#f9db00" transform="translate(-1943.5,-14.3)" style="animation: 1s linear infinite both roec52y0cbnpp4yzk2h3q8en_f;"/><path class="st8" d="M1943.5 152.6c4.5-8 14-23.6 21.7-28.4l-0.8 3.8c10-6.2 22.3-7.1 30.5-12.9c4-2.8 4-2.9 4-2.9c0 0-1.1 2.9-7.3 6.7c-11.8 7.2-21.1 5.3-30.6 17.6l1.2-6.7c-5 6.1-9 12.9-12.1 20.1l14.5 4.6c0 0 0 0 0 1.6c0 1.6 .3 6.2 .3 6.2l-21.4-9.7Z" fill="#f9db00" transform="translate(-1943.5,-14.3)" style="animation: 1s linear infinite both ycgshhwygmfetpq20t6ewcrk_f;"/><path class="st8" d="M1954.8 48.3c-7.9-10.6 10.5-7.9 16.3-22.7c0 0-0.6 3.6-1.3 5.7c-0.8 2.2-2.1 4.7-2.1 4.7c9.1-3.9 26.6-17.9 9.4-21.7c18.3 1.9 6.5 14.5-3.5 20.7c-5.8 3.6-10.4 6.4-10.4 6.4l2.5-4.1c-1.5 1.5-10.1 5.9-7.4 8l-3.2 2.7l-0.3 .3Z" fill="#f9db00" transform="translate(-1943.5,-14.3)" style="animation: 1s linear infinite both w77rcou11zs9d64fo4psti9b_f;"/></g><g><path class="st6" d="M1968.1 261.7l.3-2h2h28.1l1.1-6.7h-51.8l-7.3 43.9h53.2l2.7-16.3h-28.7h-2.7l.4-2.7Z" fill="#ccd8eb"/><path class="st6" d="M2012.1 270.6l1.8-3.3l8.1-14.3h-10.3l-9.3 55.8l25.6-37.3l-12.1-0.7Z" fill="#ccd8eb"/></g></g></g></g></g></symbol><symbol id="wonn7mew7oimhjog2gpsycg9" preserveAspectRatio="none" width="3999.8" height="168.2" viewBox="0 0 3999.8 168.2" overflow="visible"><g transform="translate(1999.9,84.1) translate(-1999.9,-84.1)" style="animation: 20s linear infinite both xztyg3t0wi8f9r4nfe8kh9g6_t;"><path class="st1" d="M2486.2 24.7c15.9 5.3 18.2 19.4 21.3 33.3c10.6-17.3 26.7 .8 22.2 15.2c-0.5 .2 .2 .1 .4-0.4c4-11 33.5-0.6 34.1 12c.9 18.1-23.5 19.9-35.2 13.3c12.6 25.5-42.4 22.7-37.5 3c-6.2 25.2-72.9 26.9-71.6-1.9c-0.4 8.9-45.3 17.5-42.2-4.5c-35.6 11.6-19.1-36-2-16.9c-8.4-14.5 11.1-19.2 19.7-9.1c-15.6-18.2 27.6-37.4 38.9-16c-6.9-14 12.3-19.7 16.4-5.9c-2.6-14.1 12.7-22.1 24.6-23.3c3.9-0.4 7.6 .1 10.9 1.2Z" fill="#fff"/><path class="st1" d="M2927.4 35.3c-3.1-9.5-12-16.4-22.5-16.4c-5.4 0-10.4 1.8-14.4 4.9c-0.4-13.2-11.2-23.8-24.5-23.8c-10.1 0-18.7 6.1-22.5 14.7c-4-3.8-9.4-6.1-15.4-6.1c-11.9 0-21.7 9.2-22.5 20.9c-2.6-1.2-5.5-1.8-8.6-1.8c-5.6 0-10.7 2.2-14.5 5.7c-3.4-4.5-8.7-7.5-14.8-7.5c-7.2 0-13.3 4.1-16.4 10.1c-0.7-0.1-1.3-0.2-2-0.2c-7.3 0-13.3 6-13.3 13.3c0 7.3 5.9 13.3 13.3 13.3c3.1 0 5.9-1 8.1-2.8c2.9 2 6.5 3.1 10.3 3.1c3.9 0 7.5-1.2 10.5-3.3c3.6 6.6 10.7 11.1 18.8 11.1c4.4 0 8.5-1.3 11.9-3.6c4.1 6.8 11.6 11.4 20.2 11.4c6.2 0 11.8-2.4 16-6.3c4.3 7.1 12.1 11.9 21.1 11.9c8.5 0 16-4.3 20.4-10.9c3.2 3.2 7.7 5.2 12.6 5.2c6.9 0 12.9-4 15.9-9.7c2.4 1.2 5.2 2 8.1 2c9.9 0 17.9-8 17.9-17.9c-0.1-8.3-5.9-15.3-13.7-17.3Z" fill="#fff"/><path class="st1" d="M3999.8 66.4c0-10.8-8.7-19.5-19.5-19.5c-2.2 0-4.4 .4-6.4 1.1c-3.5-8.9-12.2-15.1-22.3-15.1c-5.1 0-9.8 1.6-13.7 4.3c-2.5-2.6-5.9-4.3-9.8-4.3c-3.3 0-6.4 1.2-8.7 3.2c-1.6-3.3-5-5.7-8.9-5.7c-2.3 0-4.5 .8-6.2 2.2c-3.4-2.4-7.6-3.9-12.1-3.9c-11.5 0-20.8 9.3-20.8 20.8c0 .7 0 1.4 .1 2.1c-1.6-0.8-3.4-1.3-5.3-1.3c-6.3 0-11.5 5.1-11.5 11.5c0 6.3 5.1 11.5 11.5 11.5c0 0 0 0 0 0c0 .2 0 .4 0 .6c0 5.3 3.4 9.8 8.1 11.4c3.9 6.9 11.3 11.6 19.7 11.6c5.3 0 10.1-1.8 13.9-4.8c2 1.2 4.3 1.9 6.7 1.9c3.8 0 7.1-1.6 9.5-4.2c.3 0 .6 0 .9 0c4.1 0 7.9-1.5 10.8-4.1c1.1 2 3.1 3.5 5.4 3.9c2.6 3.1 6.5 5.1 10.9 5.1c5.6 0 10.3-3.2 12.7-7.9c2.1 1.8 4.7 2.9 7.7 2.9c3.5 0 6.6-1.5 8.7-3.9c10.3-0.4 18.6-8.9 18.6-19.4Z" fill="#fff"/><path class="st1" d="M3900 146.8c0-5.7-4.6-10.2-10.2-10.2c-0.5 0-1 0-1.5 .1c-1.8-6.9-8.2-12-15.7-12c-3.5 0-6.7 1.1-9.3 3c-1-7.4-7.3-13-14.9-13c-5.8 0-10.8 3.2-13.3 8c-2.8-2-6.2-3.2-9.9-3.2c-7 0-13 4.2-15.6 10.1c-1.3-0.6-2.8-0.9-4.3-0.9c-6.2 0-11.3 5.1-11.3 11.3c0 1 .1 2 .4 2.9c-1.6 1.3-2.6 3.3-2.6 5.5c0 3.9 3.2 7.2 7.1 7.2c.8 0 1.5-0.1 2.2-0.4c1.2 3.8 4.8 6.5 9 6.5c2.3 0 4.5-0.9 6.1-2.3c2.4 1.7 5.2 2.7 8.4 2.7c2.7 0 5.2-0.7 7.4-2c1.1 .8 2.4 1.3 3.9 1.3c1.3 0 2.5-0.4 3.5-1c1.8 3.1 5.2 5.2 9.1 5.2c3.8 0 7.1-2 9-5c1.6 1.5 3.8 2.4 6.2 2.4c3 0 5.6-1.4 7.3-3.7c2.1 3.2 5.8 5.4 9.9 5.4c5.2 0 9.5-3.3 11.2-7.9c4.5-1 7.9-5.1 7.9-10Z" fill="#fff"/><path class="st1" d="M2116.1 137c0-7.4-6-13.4-13.4-13.4c-0.4 0-0.7 0-1.1 .1c0 0 0 0 0-0.1c0-8.9-7.3-16.2-16.2-16.2c-3.4 0-6.5 1-9.1 2.8c-3.7-6.6-10.7-11.1-18.8-11.1c-7.9 0-14.8 4.3-18.5 10.6c-2.5-1.5-5.4-2.3-8.5-2.3c-9.3 0-16.9 7.5-17 16.8c-7.8 2-13.6 9.1-13.6 17.6c0 10 8.1 18.1 18.1 18.1c.7 0 1.4 0 2-0.1c2.6 2.9 6.3 4.8 10.6 4.8c4 0 7.6-1.7 10.2-4.4c4 4.9 10.1 8 16.9 8c5.3 0 10.2-1.9 14-5.1c3.4 1.8 7.3 2.9 11.4 2.9c10.3 0 19.1-6.6 22.4-15.7c5.9-1.3 10.6-6.7 10.6-13.3Z" fill="#fff"/><path class="st1" d="M3075 113c0-7.2-5.9-13.1-13.1-13.1c-1.6 0-3.2 .3-4.6 .8c-2.2-5-7.2-8.6-13.1-8.6c-0.8 0-1.5 .1-2.2 .2c-2.9-6.4-9.3-10.8-16.8-10.8c-8 0-14.9 5.2-17.4 12.3c-0.2 0-0.4 0-0.6 0c-7.7 0-13.9 6.2-13.9 13.9c0 .5 0 1 .1 1.5c-4.8 2.4-8.2 7.3-8.2 13.1c0 8 6.5 14.6 14.6 14.6c2.5 0 4.9-0.6 7-1.8c1.9 2.1 4.6 3.5 7.6 3.5c2.3 0 4.5-0.8 6.2-2.2c3.5 2.8 8.2 4.5 13.4 4.5c5.1 0 9.8-1.7 13.3-4.4c1.1 .3 2.3 .5 3.5 .5c6.4 0 11.7-4.7 12.5-10.9c6.6-0.8 11.7-6.4 11.7-13.1Z" fill="#fff"/><path class="st1" d="M3560 83c-4.8 0-9.1 1.9-12.3 5c-3.9-4.2-9.5-6.9-15.7-6.9c-1.3 0-2.5 .1-3.7 .3c0-0.1 0-0.2 0-0.3c0-9.7-7.9-17.6-17.6-17.6c-1.6 0-3.2 .2-4.7 .6c-1.8-10.8-10.2-19.4-21-21.3c-3.5-13.7-15.9-23.9-30.7-23.9c-17.5 0-31.7 14.2-31.7 31.7c0 2.3 .3 4.5 .7 6.7c-9.5 .2-17.1 8-17.1 17.6c0 3.3 .9 6.4 2.5 9.1c-0.1 .2-0.2 .3-0.3 .5c-1.1-0.2-2.2-0.3-3.4-0.3c-7 0-13.1 3.9-16.2 9.7c-2.1-1.3-4.6-2.1-7.3-2.1c-2.6 0-4.9 .7-7 1.9c-1.9-1.4-4.2-2.3-6.7-2.3c-6.1 0-11.1 5-11.1 11.1c0 6.1 5 11.1 11.1 11.1c.2 0 .4 0 .6 0c1.7 5.7 6.9 9.8 13.1 9.8c5 0 9.4-2.7 11.7-6.7c3.2 2.7 7.3 4.3 11.8 4.3c2.7 0 5.3-0.6 7.6-1.7c3.3 3.1 7.8 5 12.7 5c4.4 0 8.5-1.6 11.7-4.1c4.3 6.2 11.4 10.3 19.5 10.3c6.4 0 12.2-2.5 16.4-6.7c6-0.3 11.6-2.4 16.2-5.8c4 6.7 11.3 11.1 19.7 11.1c6.2 0 11.8-2.5 16-6.5c2.2 .8 4.5 1.2 7 1.2c7.2 0 13.5-3.6 17.4-9c2.9 2.2 6.6 3.5 10.6 3.5c9.7 0 17.6-7.9 17.6-17.6c0-9.7-7.7-17.7-17.4-17.7Z" fill="#fff"/><path class="st1" d="M486.3 24.7c15.9 5.3 18.2 19.4 21.3 33.3c10.6-17.3 26.7 .8 22.2 15.2c-0.5 .2 .2 .1 .4-0.4c4-11 33.5-0.6 34.1 12c.9 18.1-23.5 19.9-35.2 13.3c12.6 25.5-42.4 22.7-37.5 3c-6.2 25.2-72.9 26.9-71.6-1.9c-0.4 8.9-45.3 17.5-42.2-4.5c-35.6 11.6-19.1-36-2-16.9c-8.4-14.5 11.1-19.2 19.7-9.1c-15.6-18.2 27.6-37.4 38.9-16c-6.9-14 12.3-19.7 16.4-5.9c-2.6-14.1 12.7-22.1 24.6-23.3c3.9-0.4 7.5 .1 10.9 1.2Z" fill="#fff"/><path class="st1" d="M927.5 35.3c-3.1-9.5-12-16.4-22.5-16.4c-5.4 0-10.4 1.8-14.4 4.9c-0.4-13.2-11.2-23.8-24.5-23.8c-10.1 0-18.7 6.1-22.5 14.7c-4-3.8-9.4-6.1-15.4-6.1c-11.9 0-21.7 9.2-22.5 20.9c-2.6-1.2-5.5-1.8-8.6-1.8c-5.6 0-10.7 2.2-14.5 5.7c-3.4-4.5-8.7-7.5-14.8-7.5c-7.2 0-13.3 4.1-16.4 10.1c-0.7-0.1-1.3-0.2-2-0.2c-7.3 0-13.3 6-13.3 13.3c0 7.3 5.9 13.3 13.3 13.3c3.1 0 5.9-1 8.1-2.8c2.9 2 6.5 3.1 10.3 3.1c3.9 0 7.5-1.2 10.5-3.3c3.6 6.6 10.7 11.1 18.8 11.1c4.4 0 8.5-1.3 11.9-3.6c4.1 6.8 11.6 11.4 20.2 11.4c6.2 0 11.8-2.4 16-6.3c4.3 7.1 12.1 11.9 21.1 11.9c8.5 0 16-4.3 20.5-10.9c3.2 3.2 7.7 5.2 12.6 5.2c6.9 0 12.9-4 15.9-9.7c2.4 1.2 5.2 2 8.1 2c9.9 0 17.9-8 17.9-17.9c-0.2-8.3-6-15.3-13.8-17.3Z" fill="#fff"/><path class="st1" d="M1999.9 66.4c0-10.8-8.7-19.5-19.5-19.5c-2.2 0-4.4 .4-6.4 1.1c-3.5-8.9-12.2-15.1-22.3-15.1c-5.1 0-9.8 1.6-13.7 4.3c-2.5-2.6-5.9-4.3-9.8-4.3c-3.3 0-6.4 1.2-8.7 3.2c-1.6-3.3-5-5.7-8.9-5.7c-2.3 0-4.5 .8-6.2 2.2c-3.4-2.4-7.6-3.9-12.1-3.9c-11.5 0-20.8 9.3-20.8 20.8c0 .7 0 1.4 .1 2.1c-1.6-0.8-3.4-1.3-5.3-1.3c-6.3 0-11.5 5.1-11.5 11.5c0 6.3 5.1 11.5 11.5 11.5c0 0 0 0 0 0c0 .2 0 .4 0 .6c0 5.3 3.4 9.8 8.1 11.4c3.9 6.9 11.3 11.6 19.7 11.6c5.3 0 10.1-1.8 13.9-4.8c2 1.2 4.3 1.9 6.7 1.9c3.8 0 7.1-1.6 9.5-4.2c.3 0 .6 0 .9 0c4.1 0 7.9-1.5 10.8-4.1c1.1 2 3.1 3.5 5.4 3.9c2.6 3.1 6.5 5.1 10.9 5.1c5.6 0 10.3-3.2 12.7-7.9c2.1 1.8 4.7 2.9 7.7 2.9c3.5 0 6.6-1.5 8.7-3.9c10.3-0.4 18.6-8.9 18.6-19.4Z" fill="#fff"/><path class="st1" d="M1900.1 146.8c0-5.7-4.6-10.2-10.2-10.2c-0.5 0-1 0-1.5 .1c-1.8-6.9-8.2-12-15.7-12c-3.5 0-6.7 1.1-9.3 3c-1-7.4-7.3-13-14.9-13c-5.8 0-10.8 3.2-13.3 8c-2.8-2-6.2-3.2-9.9-3.2c-7 0-13 4.2-15.6 10.1c-1.3-0.6-2.8-0.9-4.3-0.9c-6.2 0-11.3 5.1-11.3 11.3c0 1 .1 2 .4 2.9c-1.6 1.3-2.6 3.3-2.6 5.5c0 3.9 3.2 7.2 7.1 7.2c.8 0 1.5-0.1 2.2-0.4c1.2 3.8 4.8 6.5 9 6.5c2.3 0 4.5-0.9 6.1-2.3c2.4 1.7 5.2 2.7 8.4 2.7c2.7 0 5.2-0.7 7.4-2c1.1 .8 2.4 1.3 3.9 1.3c1.3 0 2.5-0.4 3.5-1c1.8 3.1 5.2 5.2 9.1 5.2c3.8 0 7.1-2 9-5c1.6 1.5 3.8 2.4 6.2 2.4c3 0 5.6-1.4 7.3-3.7c2.1 3.2 5.8 5.4 9.9 5.4c5.2 0 9.5-3.3 11.2-7.9c4.5-1 7.9-5.1 7.9-10Z" fill="#fff"/><path class="st1" d="M116.2 137c0-7.4-6-13.4-13.4-13.4c-0.4 0-0.7 0-1.1 .1c0 0 0 0 0-0.1c0-8.9-7.3-16.2-16.2-16.2c-3.4 0-6.5 1-9.1 2.8c-3.7-6.6-10.7-11.1-18.8-11.1c-7.9 0-14.8 4.3-18.5 10.6c-2.5-1.5-5.4-2.3-8.5-2.3c-9.3 0-16.9 7.5-17 16.8c-7.8 2-13.6 9.1-13.6 17.6c0 10 8.1 18.1 18.1 18.1c.7 0 1.4 0 2-0.1c2.6 2.9 6.3 4.8 10.6 4.8c4 0 7.6-1.7 10.2-4.4c4 4.9 10.1 8 16.9 8c5.3 0 10.2-1.9 14-5.1c3.4 1.8 7.3 2.9 11.4 2.9c10.3 0 19.1-6.6 22.4-15.7c5.9-1.3 10.6-6.7 10.6-13.3Z" fill="#fff"/><path class="st1" d="M1075.1 113c0-7.2-5.9-13.1-13.1-13.1c-1.6 0-3.2 .3-4.6 .8c-2.2-5-7.2-8.6-13.1-8.6c-0.8 0-1.5 .1-2.2 .2c-2.9-6.4-9.3-10.8-16.8-10.8c-8 0-14.9 5.2-17.4 12.3c-0.2 0-0.4 0-0.6 0c-7.7 0-13.9 6.2-13.9 13.9c0 .5 0 1 .1 1.5c-4.8 2.4-8.2 7.3-8.2 13.1c0 8 6.5 14.6 14.6 14.6c2.5 0 4.9-0.6 7-1.8c1.9 2.1 4.6 3.5 7.6 3.5c2.3 0 4.5-0.8 6.2-2.2c3.5 2.8 8.2 4.5 13.4 4.5c5.1 0 9.8-1.7 13.3-4.4c1.1 .3 2.3 .5 3.5 .5c6.4 0 11.7-4.7 12.5-10.9c6.6-0.8 11.7-6.4 11.7-13.1Z" fill="#fff"/><path class="st1" d="M1560.1 83c-4.8 0-9.1 1.9-12.3 5c-3.9-4.2-9.5-6.9-15.7-6.9c-1.3 0-2.5 .1-3.7 .3c0-0.1 0-0.2 0-0.3c0-9.7-7.9-17.6-17.6-17.6c-1.6 0-3.2 .2-4.7 .6c-1.8-10.8-10.2-19.4-21-21.3c-3.5-13.7-15.9-23.9-30.7-23.9c-17.5 0-31.7 14.2-31.7 31.7c0 2.3 .3 4.5 .7 6.7c-9.5 .2-17.1 8-17.1 17.6c0 3.3 .9 6.4 2.5 9.1c-0.1 .2-0.2 .3-0.3 .5c-1.1-0.2-2.2-0.3-3.4-0.3c-7 0-13.1 3.9-16.2 9.7c-2.1-1.3-4.6-2.1-7.3-2.1c-2.6 0-4.9 .7-7 1.9c-1.9-1.4-4.2-2.3-6.7-2.3c-6.1 0-11.1 5-11.1 11.1c0 6.1 5 11.1 11.1 11.1c.2 0 .4 0 .6 0c1.7 5.7 6.9 9.8 13.1 9.8c5 0 9.4-2.7 11.7-6.7c3.2 2.7 7.3 4.3 11.8 4.3c2.7 0 5.3-0.6 7.6-1.7c3.3 3.1 7.8 5 12.7 5c4.4 0 8.5-1.6 11.7-4.1c4.3 6.2 11.4 10.3 19.5 10.3c6.4 0 12.2-2.5 16.4-6.7c6-0.3 11.6-2.4 16.2-5.8c4 6.7 11.3 11.1 19.7 11.1c6.2 0 11.8-2.5 16-6.5c2.2 .8 4.5 1.2 7 1.2c7.2 0 13.5-3.6 17.4-9c2.9 2.2 6.6 3.5 10.6 3.5c9.7 0 17.6-7.9 17.6-17.6c0-9.7-7.7-17.7-17.4-17.7Z" fill="#fff"/><path class="st1" d="M6486 24.7c15.9 5.3 18.2 19.4 21.3 33.3c10.6-17.3 26.7 .8 22.2 15.2c-0.5 .2 .2 .1 .4-0.4c4-11 33.5-0.6 34.1 12c.9 18.1-23.5 19.9-35.2 13.3c12.6 25.5-42.4 22.7-37.5 3c-6.2 25.2-72.9 26.9-71.6-1.9c-0.4 8.9-45.3 17.5-42.2-4.5c-35.6 11.6-19.1-36-2-16.9c-8.4-14.5 11.1-19.2 19.7-9.1c-15.6-18.2 27.6-37.4 38.9-16c-6.9-14 12.3-19.7 16.4-5.9c-2.6-14.1 12.7-22.1 24.6-23.3c3.9-0.4 7.6 .1 10.9 1.2Z" fill="#fff"/><path class="st1" d="M6927.2 35.3c-3.1-9.5-12-16.4-22.5-16.4c-5.4 0-10.4 1.8-14.4 4.9c-0.4-13.2-11.2-23.8-24.5-23.8c-10.1 0-18.7 6.1-22.5 14.7c-4-3.8-9.4-6.1-15.4-6.1c-11.9 0-21.7 9.2-22.5 20.9c-2.6-1.2-5.5-1.8-8.6-1.8c-5.6 0-10.7 2.2-14.5 5.7c-3.4-4.5-8.7-7.5-14.8-7.5c-7.2 0-13.3 4.1-16.4 10.1c-0.7-0.1-1.3-0.2-2-0.2c-7.3 0-13.3 6-13.3 13.3c0 7.3 5.9 13.3 13.3 13.3c3.1 0 5.9-1 8.1-2.8c2.9 2 6.5 3.1 10.3 3.1c3.9 0 7.5-1.2 10.5-3.3c3.6 6.6 10.7 11.1 18.8 11.1c4.4 0 8.5-1.3 11.9-3.6c4.1 6.8 11.6 11.4 20.2 11.4c6.2 0 11.8-2.4 16-6.3c4.3 7.1 12.1 11.9 21.1 11.9c8.5 0 16-4.3 20.4-10.9c3.2 3.2 7.7 5.2 12.6 5.2c6.9 0 12.9-4 15.9-9.7c2.4 1.2 5.2 2 8.1 2c9.9 0 17.9-8 17.9-17.9c-0.1-8.3-5.9-15.3-13.7-17.3Z" fill="#fff"/><path class="st1" d="M7999.6 66.4c0-10.8-8.7-19.5-19.5-19.5c-2.2 0-4.4 .4-6.4 1.1c-3.5-8.9-12.2-15.1-22.3-15.1c-5.1 0-9.8 1.6-13.7 4.3c-2.5-2.6-5.9-4.3-9.8-4.3c-3.3 0-6.4 1.2-8.7 3.2c-1.6-3.3-5-5.7-8.9-5.7c-2.3 0-4.5 .8-6.2 2.2c-3.4-2.4-7.6-3.9-12.1-3.9c-11.5 0-20.8 9.3-20.8 20.8c0 .7 0 1.4 .1 2.1c-1.6-0.8-3.4-1.3-5.3-1.3c-6.3 0-11.5 5.1-11.5 11.5c0 6.3 5.1 11.5 11.5 11.5c0 0 0 0 0 0c0 .2 0 .4 0 .6c0 5.3 3.4 9.8 8.1 11.4c3.9 6.9 11.3 11.6 19.7 11.6c5.3 0 10.1-1.8 13.9-4.8c2 1.2 4.3 1.9 6.7 1.9c3.8 0 7.1-1.6 9.5-4.2c.3 0 .6 0 .9 0c4.1 0 7.9-1.5 10.8-4.1c1.1 2 3.1 3.5 5.4 3.9c2.6 3.1 6.5 5.1 10.9 5.1c5.6 0 10.3-3.2 12.7-7.9c2.1 1.8 4.7 2.9 7.7 2.9c3.5 0 6.6-1.5 8.7-3.9c10.3-0.4 18.6-8.9 18.6-19.4Z" fill="#fff"/><path class="st1" d="M7899.8 146.8c0-5.7-4.6-10.2-10.2-10.2c-0.5 0-1 0-1.5 .1c-1.8-6.9-8.2-12-15.7-12c-3.5 0-6.7 1.1-9.3 3c-1-7.4-7.3-13-14.9-13c-5.8 0-10.8 3.2-13.3 8c-2.8-2-6.2-3.2-9.9-3.2c-7 0-13 4.2-15.6 10.1c-1.3-0.6-2.8-0.9-4.3-0.9c-6.2 0-11.3 5.1-11.3 11.3c0 1 .1 2 .4 2.9c-1.6 1.3-2.6 3.3-2.6 5.5c0 3.9 3.2 7.2 7.1 7.2c.8 0 1.5-0.1 2.2-0.4c1.2 3.8 4.8 6.5 9 6.5c2.3 0 4.5-0.9 6.1-2.3c2.4 1.7 5.2 2.7 8.4 2.7c2.7 0 5.2-0.7 7.4-2c1.1 .8 2.4 1.3 3.9 1.3c1.3 0 2.5-0.4 3.5-1c1.8 3.1 5.2 5.2 9.1 5.2c3.8 0 7.1-2 9-5c1.6 1.5 3.8 2.4 6.2 2.4c3 0 5.6-1.4 7.3-3.7c2.1 3.2 5.8 5.4 9.9 5.4c5.2 0 9.5-3.3 11.2-7.9c4.5-1 7.9-5.1 7.9-10Z" fill="#fff"/><path class="st1" d="M6115.9 137c0-7.4-6-13.4-13.4-13.4c-0.4 0-0.7 0-1.1 .1c0 0 0 0 0-0.1c0-8.9-7.3-16.2-16.2-16.2c-3.4 0-6.5 1-9.1 2.8c-3.7-6.6-10.7-11.1-18.8-11.1c-7.9 0-14.8 4.3-18.5 10.6c-2.5-1.5-5.4-2.3-8.5-2.3c-9.3 0-16.9 7.5-17 16.8c-7.8 2-13.6 9.1-13.6 17.6c0 10 8.1 18.1 18.1 18.1c.7 0 1.4 0 2-0.1c2.6 2.9 6.3 4.8 10.6 4.8c4 0 7.6-1.7 10.2-4.4c4 4.9 10.1 8 16.9 8c5.3 0 10.2-1.9 14-5.1c3.4 1.8 7.3 2.9 11.4 2.9c10.3 0 19.1-6.6 22.4-15.7c5.9-1.3 10.6-6.7 10.6-13.3Z" fill="#fff"/><path class="st1" d="M7074.8 113c0-7.2-5.9-13.1-13.1-13.1c-1.6 0-3.2 .3-4.6 .8c-2.2-5-7.2-8.6-13.1-8.6c-0.8 0-1.5 .1-2.2 .2c-2.9-6.4-9.3-10.8-16.8-10.8c-8 0-14.9 5.2-17.4 12.3c-0.2 0-0.4 0-0.6 0c-7.7 0-13.9 6.2-13.9 13.9c0 .5 0 1 .1 1.5c-4.8 2.4-8.2 7.3-8.2 13.1c0 8 6.5 14.6 14.6 14.6c2.5 0 4.9-0.6 7-1.8c1.9 2.1 4.6 3.5 7.6 3.5c2.3 0 4.5-0.8 6.2-2.2c3.5 2.8 8.2 4.5 13.4 4.5c5.1 0 9.8-1.7 13.3-4.4c1.1 .3 2.3 .5 3.5 .5c6.4 0 11.7-4.7 12.5-10.9c6.6-0.8 11.7-6.4 11.7-13.1Z" fill="#fff"/><path class="st1" d="M7559.8 83c-4.8 0-9.1 1.9-12.3 5c-3.9-4.2-9.5-6.9-15.7-6.9c-1.3 0-2.5 .1-3.7 .3c0-0.1 0-0.2 0-0.3c0-9.7-7.9-17.6-17.6-17.6c-1.6 0-3.2 .2-4.7 .6c-1.8-10.8-10.2-19.4-21-21.3c-3.5-13.7-15.9-23.9-30.7-23.9c-17.5 0-31.7 14.2-31.7 31.7c0 2.3 .3 4.5 .7 6.7c-9.5 .2-17.1 8-17.1 17.6c0 3.3 .9 6.4 2.5 9.1c-0.1 .2-0.2 .3-0.3 .5c-1.1-0.2-2.2-0.3-3.4-0.3c-7 0-13.1 3.9-16.2 9.7c-2.1-1.3-4.6-2.1-7.3-2.1c-2.6 0-4.9 .7-7 1.9c-1.9-1.4-4.2-2.3-6.7-2.3c-6.1 0-11.1 5-11.1 11.1c0 6.1 5 11.1 11.1 11.1c.2 0 .4 0 .6 0c1.7 5.7 6.9 9.8 13.1 9.8c5 0 9.4-2.7 11.7-6.7c3.2 2.7 7.3 4.3 11.8 4.3c2.7 0 5.3-0.6 7.6-1.7c3.3 3.1 7.8 5 12.7 5c4.4 0 8.5-1.6 11.7-4.1c4.3 6.2 11.4 10.3 19.5 10.3c6.4 0 12.2-2.5 16.4-6.7c6-0.3 11.6-2.4 16.2-5.8c4 6.7 11.3 11.1 19.7 11.1c6.2 0 11.8-2.5 16-6.5c2.2 .8 4.5 1.2 7 1.2c7.2 0 13.5-3.6 17.4-9c2.9 2.2 6.6 3.5 10.6 3.5c9.7 0 17.6-7.9 17.6-17.6c0-9.7-7.7-17.7-17.4-17.7Z" fill="#fff"/><path class="st1" d="M4486.1 24.7c15.9 5.3 18.2 19.4 21.3 33.3c10.6-17.3 26.7 .8 22.2 15.2c-0.5 .2 .2 .1 .4-0.4c4-11 33.5-0.6 34.1 12c.9 18.1-23.5 19.9-35.2 13.3c12.6 25.5-42.4 22.7-37.5 3c-6.2 25.2-72.9 26.9-71.6-1.9c-0.4 8.9-45.3 17.5-42.2-4.5c-35.6 11.6-19.1-36-2-16.9c-8.4-14.5 11.1-19.2 19.7-9.1c-15.6-18.2 27.6-37.4 38.9-16c-6.9-14 12.3-19.7 16.4-5.9c-2.6-14.1 12.7-22.1 24.6-23.3c3.9-0.4 7.5 .1 10.9 1.2Z" fill="#fff"/><path class="st1" d="M4927.3 35.3c-3.1-9.5-12-16.4-22.5-16.4c-5.4 0-10.4 1.8-14.4 4.9c-0.4-13.2-11.2-23.8-24.5-23.8c-10.1 0-18.7 6.1-22.5 14.7c-4-3.8-9.4-6.1-15.4-6.1c-11.9 0-21.7 9.2-22.5 20.9c-2.6-1.2-5.5-1.8-8.6-1.8c-5.6 0-10.7 2.2-14.5 5.7c-3.4-4.5-8.7-7.5-14.8-7.5c-7.2 0-13.3 4.1-16.4 10.1c-0.7-0.1-1.3-0.2-2-0.2c-7.3 0-13.3 6-13.3 13.3c0 7.3 5.9 13.3 13.3 13.3c3.1 0 5.9-1 8.1-2.8c2.9 2 6.5 3.1 10.3 3.1c3.9 0 7.5-1.2 10.5-3.3c3.6 6.6 10.7 11.1 18.8 11.1c4.4 0 8.5-1.3 11.9-3.6c4.1 6.8 11.6 11.4 20.2 11.4c6.2 0 11.8-2.4 16-6.3c4.3 7.1 12.1 11.9 21.1 11.9c8.5 0 16-4.3 20.5-10.9c3.2 3.2 7.7 5.2 12.6 5.2c6.9 0 12.9-4 15.9-9.7c2.4 1.2 5.2 2 8.1 2c9.9 0 17.9-8 17.9-17.9c-0.2-8.3-6-15.3-13.8-17.3Z" fill="#fff"/><path class="st1" d="M5999.7 66.4c0-10.8-8.7-19.5-19.5-19.5c-2.2 0-4.4 .4-6.4 1.1c-3.5-8.9-12.2-15.1-22.3-15.1c-5.1 0-9.8 1.6-13.7 4.3c-2.5-2.6-5.9-4.3-9.8-4.3c-3.3 0-6.4 1.2-8.7 3.2c-1.6-3.3-5-5.7-8.9-5.7c-2.3 0-4.5 .8-6.2 2.2c-3.4-2.4-7.6-3.9-12.1-3.9c-11.5 0-20.8 9.3-20.8 20.8c0 .7 0 1.4 .1 2.1c-1.6-0.8-3.4-1.3-5.3-1.3c-6.3 0-11.5 5.1-11.5 11.5c0 6.3 5.1 11.5 11.5 11.5c0 0 0 0 0 0c0 .2 0 .4 0 .6c0 5.3 3.4 9.8 8.1 11.4c3.9 6.9 11.3 11.6 19.7 11.6c5.3 0 10.1-1.8 13.9-4.8c2 1.2 4.3 1.9 6.7 1.9c3.8 0 7.1-1.6 9.5-4.2c.3 0 .6 0 .9 0c4.1 0 7.9-1.5 10.8-4.1c1.1 2 3.1 3.5 5.4 3.9c2.6 3.1 6.5 5.1 10.9 5.1c5.6 0 10.3-3.2 12.7-7.9c2.1 1.8 4.7 2.9 7.7 2.9c3.5 0 6.6-1.5 8.7-3.9c10.3-0.4 18.6-8.9 18.6-19.4Z" fill="#fff"/><path class="st1" d="M5899.9 146.8c0-5.7-4.6-10.2-10.2-10.2c-0.5 0-1 0-1.5 .1c-1.8-6.9-8.2-12-15.7-12c-3.5 0-6.7 1.1-9.3 3c-1-7.4-7.3-13-14.9-13c-5.8 0-10.8 3.2-13.3 8c-2.8-2-6.2-3.2-9.9-3.2c-7 0-13 4.2-15.6 10.1c-1.3-0.6-2.8-0.9-4.3-0.9c-6.2 0-11.3 5.1-11.3 11.3c0 1 .1 2 .4 2.9c-1.6 1.3-2.6 3.3-2.6 5.5c0 3.9 3.2 7.2 7.1 7.2c.8 0 1.5-0.1 2.2-0.4c1.2 3.8 4.8 6.5 9 6.5c2.3 0 4.5-0.9 6.1-2.3c2.4 1.7 5.2 2.7 8.4 2.7c2.7 0 5.2-0.7 7.4-2c1.1 .8 2.4 1.3 3.9 1.3c1.3 0 2.5-0.4 3.5-1c1.8 3.1 5.2 5.2 9.1 5.2c3.8 0 7.1-2 9-5c1.6 1.5 3.8 2.4 6.2 2.4c3 0 5.6-1.4 7.3-3.7c2.1 3.2 5.8 5.4 9.9 5.4c5.2 0 9.5-3.3 11.2-7.9c4.5-1 7.9-5.1 7.9-10Z" fill="#fff"/><path class="st1" d="M4116 137c0-7.4-6-13.4-13.4-13.4c-0.4 0-0.7 0-1.1 .1c0 0 0 0 0-0.1c0-8.9-7.3-16.2-16.2-16.2c-3.4 0-6.5 1-9.1 2.8c-3.7-6.6-10.7-11.1-18.8-11.1c-7.9 0-14.8 4.3-18.5 10.6c-2.5-1.5-5.4-2.3-8.5-2.3c-9.3 0-16.9 7.5-17 16.8c-7.8 2-13.6 9.1-13.6 17.6c0 10 8.1 18.1 18.1 18.1c.7 0 1.4 0 2-0.1c2.6 2.9 6.3 4.8 10.6 4.8c4 0 7.6-1.7 10.2-4.4c4 4.9 10.1 8 16.9 8c5.3 0 10.2-1.9 14-5.1c3.4 1.8 7.3 2.9 11.4 2.9c10.3 0 19.1-6.6 22.4-15.7c5.9-1.3 10.6-6.7 10.6-13.3Z" fill="#fff"/><path class="st1" d="M5074.9 113c0-7.2-5.9-13.1-13.1-13.1c-1.6 0-3.2 .3-4.6 .8c-2.2-5-7.2-8.6-13.1-8.6c-0.8 0-1.5 .1-2.2 .2c-2.9-6.4-9.3-10.8-16.8-10.8c-8 0-14.9 5.2-17.4 12.3c-0.2 0-0.4 0-0.6 0c-7.7 0-13.9 6.2-13.9 13.9c0 .5 0 1 .1 1.5c-4.8 2.4-8.2 7.3-8.2 13.1c0 8 6.5 14.6 14.6 14.6c2.5 0 4.9-0.6 7-1.8c1.9 2.1 4.6 3.5 7.6 3.5c2.3 0 4.5-0.8 6.2-2.2c3.5 2.8 8.2 4.5 13.4 4.5c5.1 0 9.8-1.7 13.3-4.4c1.1 .3 2.3 .5 3.5 .5c6.4 0 11.7-4.7 12.5-10.9c6.6-0.8 11.7-6.4 11.7-13.1Z" fill="#fff"/><path class="st1" d="M5559.9 83c-4.8 0-9.1 1.9-12.3 5c-3.9-4.2-9.5-6.9-15.7-6.9c-1.3 0-2.5 .1-3.7 .3c0-0.1 0-0.2 0-0.3c0-9.7-7.9-17.6-17.6-17.6c-1.6 0-3.2 .2-4.7 .6c-1.8-10.8-10.2-19.4-21-21.3c-3.5-13.7-15.9-23.9-30.7-23.9c-17.5 0-31.7 14.2-31.7 31.7c0 2.3 .3 4.5 .7 6.7c-9.5 .2-17.1 8-17.1 17.6c0 3.3 .9 6.4 2.5 9.1c-0.1 .2-0.2 .3-0.3 .5c-1.1-0.2-2.2-0.3-3.4-0.3c-7 0-13.1 3.9-16.2 9.7c-2.1-1.3-4.6-2.1-7.3-2.1c-2.6 0-4.9 .7-7 1.9c-1.9-1.4-4.2-2.3-6.7-2.3c-6.1 0-11.1 5-11.1 11.1c0 6.1 5 11.1 11.1 11.1c.2 0 .4 0 .6 0c1.7 5.7 6.9 9.8 13.1 9.8c5 0 9.4-2.7 11.7-6.7c3.2 2.7 7.3 4.3 11.8 4.3c2.7 0 5.3-0.6 7.6-1.7c3.3 3.1 7.8 5 12.7 5c4.4 0 8.5-1.6 11.7-4.1c4.3 6.2 11.4 10.3 19.5 10.3c6.4 0 12.2-2.5 16.4-6.7c6-0.3 11.6-2.4 16.2-5.8c4 6.7 11.3 11.1 19.7 11.1c6.2 0 11.8-2.5 16-6.5c2.2 .8 4.5 1.2 7 1.2c7.2 0 13.5-3.6 17.4-9c2.9 2.2 6.6 3.5 10.6 3.5c9.7 0 17.6-7.9 17.6-17.6c0-9.7-7.7-17.7-17.4-17.7Z" fill="#fff"/></g></symbol><symbol id="jz2wfkyfxmylcnf7yl2egi64" preserveAspectRatio="none" width="922.6" height="223.8" viewBox="0 0 922.6 223.8" overflow="visible"><g style="animation: 30s linear infinite both a18_t;"><g transform="translate(461.3,111.9) translate(-461.3,-111.9)" style="animation: 30s linear infinite both pzy9vvwgb9i0l2tkxddxvy53_t;"><g transform="translate(-1538.7,-69.7)"><path class="st1" d="M1538.7 293.5c3.7-4.8 8.6-5.3 14.2-5.2c7.1 .1 14.2-0.7 21.4-0.8c2.5-0.1 5.1 .7 7.6 .9c4.2 .3 8.3 .6 11.6-3.3c3.3-3.9 8-4.6 12.7-4.7c6.3-0.1 12.7 0 19.8 0c-2.5-10 4.6-13.1 11.2-17.5c7.2 13.5 19.6 6.7 30.9 8.7c-1.1-14.6 .2-28.3 5.5-41.3c4.7 1.9 9.3 15 10.2 28.5c2.3 0 4.7 0 7.6 0c0-1.7-0.2-3.5 0-5.3c.6-5.9 1.1-11.9 2.2-17.7c.3-1.5 2.5-2.6 3.8-3.8c.6 1.2 1.5 2.4 1.7 3.7c.8 4.9 1.5 9.8 2 14.7c.5 4.8 .6 9.6 .9 14.2c7.2 2.4 12.3-0.3 17-5c2.6-2.5 5.1-5.3 8.1-7.1c2.2-1.3 5.1-1.3 8-2c-2.7-7.8 .5-13.8 6.8-18.5c.8-0.6 2.5-0.9 3.4-0.5c4.5 2.4 8.1 10.7 7.4 15.5c5 2.9 10 5.5 14.8 8.4c5.1 3 5.6 2.8 7.6-2.7c1.2-3.2 2.9-6.1 4.7-9.7c5.9 0 12.4 0 19.5 0c0-4.8-0.3-9.3 .1-13.7c.2-2.4 1.3-5.2 2.9-6.8c4.5-4.6 9.3-8.7 14.2-12.7c.8-0.6 2.9-0.7 3.6 0c4.6 4.1 9.4 8.1 13.2 12.9c1.6 1.9 1.1 5.6 1.7 9.2c5.5-0.2 11.6 2.2 15.9-4.9c1.3-2.2 5-3 8-4.6c0-4.6-0.1-10 .1-15.4c0-1.1 .6-3 1.2-3.2c7.9-2.3 6.6-9.4 7.4-15.1c2.4-16 4.5-32.1 6.7-48.2c.5-3.4 .7-6.9 1.3-10.3c.1-0.9 1.1-1.6 1.7-2.3c.7 .8 1.9 1.6 2 2.5c1.4 8.6 2.7 17.3 4 26c1.6 11 3.7 21.9 4.5 32.9c.4 5.7 2.9 9.5 6 13.5c1 1.3 1.1 3.6 1.2 5.4c.2 4 .1 8.1 .1 12.3c1 .2 1.8 .5 2.5 .4c6.7-1.2 11.4 1.9 15.6 6.9c4.5 5.3 6.6 4.8 10.5-1.3c.6-1 1.3-1.9 1.8-2.9c2.6-4.8 4.6-5.1 8.5-1.4c.5 .4 .9 .8 2.2 1.9c0-5.4 .1-10-0.1-14.6c0-0.9-0.9-2.2-1.7-2.7c-3-1.6-3-4.5-1.3-6.3c2.9-3.1 6.9-7.6 10-7.3c3.8 .4 7.2 5.1 10.5 8.3c.6 .6 .4 3.3-0.2 3.7c-4 2.7-2.1 6.5-2.5 10.2c1.6 .1 3 .2 4.3 .3c.2-0.7 .5-1.2 .5-1.7c0-4.4 .1-8.8 .1-13.2c0-1 0-2.1-0.2-3c-0.6-2.2-2.7-5.5-2-6.2c2.9-3.2 6.3-6.7 10.2-7.8c2.2-0.6 5.8 2.8 8.3 4.9c2.5 2.1 3.9 4.2 1.8 8.5c-1.7 3.5-0.3 8.5-0.3 13.5c1.3-0.3 2.8-0.2 3.5-0.8c.4-0.4 .2-2.6-0.4-3.1c-5.1-3.7-1.4-7 .7-9.5c4.8-5.5 12.1-5 16.7 1c1.2 1.6 1.9 4.3 1.7 6.4c-0.6 6.8-1.7 13.6-2.6 20.6c7.5 1.8 12-2.7 17.1-5c1-0.4 1.3-3.3 1.4-5c.2-5.4-0.1-10.8 .1-16.2c.1-1.7 .6-4 1.7-4.8c4.7-3.2 4.6-8.2 5-13c1.3-13.6 2.6-27.1 3.9-40.7c.4-4.8 .7-9.6 1.1-14.5c1.3-15.6 2.6-31.2 3.9-46.8c.2-3 0-6 1.1-9.6c.6 .8 1.6 1.4 1.7 2.3c1.7 14 3.3 28 5 42c1.5 12 3.3 23.9 4.8 35.9c1.2 9.6 2 19.1 3.1 28.7c.4 3.6 .6 7.3 1.6 10.8c.6 2.2 2.5 4.1 3.8 6.1c.5-0.2 .9-0.5 1.4-0.7c0 6.7 .1 13.5 0 20.2c0 2.6 .3 4.2 3.3 5.1c3.4 1 6.6 3.2 10.5 5.1c0-5.7 .1-10.7 0-15.7c-0.1-7.2 5.6-11.2 9-16.4c.2-0.3 3.6 .7 4.6 1.9c5.3 6.2 9.7 12.9 8 21.9c-0.2 1.3 .1 2.7 .2 4c0 .2 .4 .4 1.5 1.6c1-15.4-1.4-30.4 4-44.3c.6 0 1.3 0 1.9 0c2.2 14.7 4.4 29.5 6.7 44.3c8 2.1 6.9-7 11.4-10.3c2.7 3.2 5.7 6.1 7.9 9.5c1.9 3 3.9 2.3 4.6 .1c3-8.3 9.4-7.6 16-7.3c5.5 .2 11.1 0 17.1 0c-3.1-5.8 1.3-8.5 3.7-12.1c1.8-2.8 3.7-5.9 4.1-9.1c1.4-12.2 2.3-24.5 3.5-38.5c1.6 1.7 3.2 2.6 3.4 3.7c1.2 9.4 1.9 18.8 3.1 28.2c.7 5.5 .3 11.2 4.7 15.8c1.4 1.5 1.9 4.5 2 6.8c.2 9.7 .1 19.5 .1 29.1c4.5 1.5 6.7-0.2 8.2-4.1c1.8-4.7 4.3-9.2 6.5-13.8c1.8-3.6 3.7-3.8 6-0.4c2.9 4.4 6.3 8.5 8.4 13.3c3.6 8.4 10.1 11.8 18.1 13.5c7.2 1.6 7.2 1.7 8 8.7c7.4 1.2 14.3 1.2 19.4-6.2c1.8-2.6 5.4-4 8.1-5.9c.3 .4 .7 .8 1 1.2c.2-1.4 .4-2.9 .7-4.6c.7-0.1 1.5-0.4 2.2-0.3c4.4 1 7.8-1.5 11.1-3.7c5.4-3.6 9-3.2 13.6 .9c4.8 4.2 6.8 8.9 6.1 15.3c-0.5 4.3-0.1 8.7-0.1 14.2c6.7-0.5 13.2-0.2 19.4-1.6c6.4-1.5 10.8 1 15.1 4.9c1.3 1.2 2.6 2.6 3.8 3.9c2.9 3.4 6.3 4.6 10.4 2.4c5.1-2.7 11.4-1.1 16.1-5.6c1.4-1.3 6.2-2.1 8.3 2.3c.6 1.2 3 1.6 4.6 2.3c2 .8 4.6 1 6.1 2.4c8.3 8.2 18.5 3.7 27.8 4.5c1.4 .1 3-2.2 4.7-3.5c5.3 1.6 7 3.5 7.6 9.1c5.1-0.4 10.2-1.4 15.3-1.1c8.3 .5 17.2-0.6 23.6 6.8c-307.6 .2-615.1 .2-922.6 .2Z" fill="#fff"/></g></g></g></symbol><symbol id="lawonk45hu438qmr5de24a7w" preserveAspectRatio="none" width="3812.2" height="4.8" viewBox="0 0 3812.2 4.8" overflow="visible"><g transform="translate(1906.1,2.4) translate(-1906.1,-2.4)" style="animation: .3s linear infinite both yh78xghe0w0skv97bc207plu_t;"><g transform="translate(-93.9,-311.3)"><path class="st5" d="M1259.7 316.1h-45.8l6.4-4.8h45.8Z" fill="#88abc5"/><path class="st5" d="M1339.7 316.1h-45.8l6.4-4.8h45.8Z" fill="#88abc5"/><path class="st5" d="M1099.7 316.1h-45.8l6.4-4.8h45.8Z" fill="#88abc5"/><path class="st5" d="M1179.7 316.1h-45.8l6.4-4.8h45.8Z" fill="#88abc5"/><path class="st5" d="M939.7 316.1h-45.8l6.4-4.8h45.8Z" fill="#88abc5"/><path class="st5" d="M1019.7 316.1h-45.8l6.4-4.8h45.8Z" fill="#88abc5"/><path class="st5" d="M779.7 316.1h-45.8l6.4-4.8h45.8Z" fill="#88abc5"/><path class="st5" d="M859.7 316.1h-45.8l6.4-4.8h45.8Z" fill="#88abc5"/><path class="st5" d="M619.7 316.1h-45.8l6.4-4.8h45.8Z" fill="#88abc5"/><path class="st5" d="M699.7 316.1h-45.8l6.4-4.8h45.8Z" fill="#88abc5"/><path class="st5" d="M459.7 316.1h-45.8l6.4-4.8h45.8Z" fill="#88abc5"/><path class="st5" d="M539.7 316.1h-45.8l6.4-4.8h45.8Z" fill="#88abc5"/><path class="st5" d="M299.7 316.1h-45.8l6.4-4.8h45.8Z" fill="#88abc5"/><path class="st5" d="M379.7 316.1h-45.8l6.4-4.8h45.8Z" fill="#88abc5"/><path class="st5" d="M139.7 316.1h-45.8l6.4-4.8h45.8Z" fill="#88abc5"/><path class="st5" d="M219.7 316.1h-45.8l6.4-4.8h45.8Z" fill="#88abc5"/><path class="st5" d="M2539.7 316.1h-45.8l6.4-4.8h45.8Z" fill="#88abc5"/><path class="st5" d="M2619.7 316.1h-45.8l6.4-4.8h45.8Z" fill="#88abc5"/><path class="st5" d="M2379.7 316.1h-45.8l6.4-4.8h45.8Z" fill="#88abc5"/><path class="st5" d="M2459.7 316.1h-45.8l6.4-4.8h45.8Z" fill="#88abc5"/><path class="st5" d="M2219.7 316.1h-45.8l6.4-4.8h45.8Z" fill="#88abc5"/><path class="st5" d="M2299.7 316.1h-45.8l6.4-4.8h45.8Z" fill="#88abc5"/><path class="st5" d="M2059.7 316.1h-45.8l6.4-4.8h45.8Z" fill="#88abc5"/><path class="st5" d="M2139.7 316.1h-45.8l6.4-4.8h45.8Z" fill="#88abc5"/><path class="st5" d="M1899.7 316.1h-45.8l6.4-4.8h45.8Z" fill="#88abc5"/><path class="st5" d="M1979.7 316.1h-45.8l6.4-4.8h45.8Z" fill="#88abc5"/><path class="st5" d="M1739.7 316.1h-45.8l6.4-4.8h45.8Z" fill="#88abc5"/><path class="st5" d="M1819.7 316.1h-45.8l6.4-4.8h45.8Z" fill="#88abc5"/><path class="st5" d="M1579.7 316.1h-45.8l6.4-4.8h45.8Z" fill="#88abc5"/><path class="st5" d="M1659.7 316.1h-45.8l6.4-4.8h45.8Z" fill="#88abc5"/><path class="st5" d="M1419.7 316.1h-45.8l6.4-4.8h45.8Z" fill="#88abc5"/><path class="st5" d="M1499.7 316.1h-45.8l6.4-4.8h45.8Z" fill="#88abc5"/><path class="st5" d="M3819.7 316.1h-45.8l6.4-4.8h45.8Z" fill="#88abc5"/><path class="st5" d="M3899.7 316.1h-45.8l6.4-4.8h45.8Z" fill="#88abc5"/><path class="st5" d="M3659.7 316.1h-45.8l6.4-4.8h45.8Z" fill="#88abc5"/><path class="st5" d="M3739.7 316.1h-45.8l6.4-4.8h45.8Z" fill="#88abc5"/><path class="st5" d="M3499.7 316.1h-45.8l6.4-4.8h45.8Z" fill="#88abc5"/><path class="st5" d="M3579.7 316.1h-45.8l6.4-4.8h45.8Z" fill="#88abc5"/><path class="st5" d="M3339.7 316.1h-45.8l6.4-4.8h45.8Z" fill="#88abc5"/><path class="st5" d="M3419.7 316.1h-45.8l6.4-4.8h45.8Z" fill="#88abc5"/><path class="st5" d="M3179.7 316.1h-45.8l6.4-4.8h45.8Z" fill="#88abc5"/><path class="st5" d="M3259.7 316.1h-45.8l6.4-4.8h45.8Z" fill="#88abc5"/><path class="st5" d="M3019.7 316.1h-45.8l6.4-4.8h45.8Z" fill="#88abc5"/><path class="st5" d="M3099.7 316.1h-45.8l6.4-4.8h45.8Z" fill="#88abc5"/><path class="st5" d="M2859.7 316.1h-45.8l6.4-4.8h45.8Z" fill="#88abc5"/><path class="st5" d="M2939.7 316.1h-45.8l6.4-4.8h45.8Z" fill="#88abc5"/><path class="st5" d="M2699.7 316.1h-45.8l6.4-4.8h45.8Z" fill="#88abc5"/><path class="st5" d="M2779.7 316.1h-45.8l6.4-4.8h45.8Z" fill="#88abc5"/></g></g></symbol></defs><g><rect y="-6.5" class="st0" width="4000" height="296.7" fill="#23293f"/></g><use x=".2" y="20.1" width="3999.8" height="168.2" xlink:href="#wonn7mew7oimhjog2gpsycg9"/><use x="1538.7" y="69.7" width="922.6" height="223.8" xlink:href="#jz2wfkyfxmylcnf7yl2egi64"/><use x="93.9" y="311.3" width="3812.2" height="4.8" xlink:href="#lawonk45hu438qmr5de24a7w"/><use x="1791.2" y="-6.5" width="419.6" height="365.4" xlink:href="#dd3wf2lnyd6k51fx6kns9zud"/><use x="1475.7" y="73.5" width="1041.2" height="280.3" xlink:href="#e3hlnx5pbnadz4rr1pdoamnt"/></svg>