<?xml version="1.0" encoding="utf-8"?>
<!-- Generator: Adobe Illustrator 25.4.1, SVG Export Plug-In . SVG Version: 6.00 Build 0)  -->
<svg version="1.1" xmlns="http://www.w3.org/2000/svg" xmlns:xlink="http://www.w3.org/1999/xlink" x="0px" y="0px"
	 viewBox="0 0 4000 342" style="enable-background:new 0 0 4000 342;" xml:space="preserve">
<style type="text/css">
	.st0{fill:#23293F;}
	.st1{fill:#FFFFFF;}
	.st2{fill:#CCD8EB;}
	.st3{fill:#87A9C3;}
	.st4{fill:#F9DB00;}
	.st5{fill:#FBD09D;}
	.st6{fill:#EB9900;}
	.st7{fill:#427FA9;}
	.st8{fill:#F3BFCA;}
	.st9{fill:#FADC00;}
	.st10{fill:#CCD9EC;}
	.st11{fill:#88ABC5;}
	.st12{fill:#F7D5D4;}
</style>
<g id="Layer_4">
	<rect x="0" y="-9.3" class="st0" width="4000" height="288"/>
</g>
<g id="Layer_5">
</g>
<g id="Layer_1">
	<g>
		<path class="st1" d="M1521.8,281.7c3.7-4.8,8.6-5.3,14.2-5.2c7.1,0.1,14.2-0.7,21.4-0.8c2.5-0.1,5.1,0.7,7.6,0.9
			c4.2,0.3,8.3,0.6,11.6-3.3c3.3-3.9,8-4.6,12.7-4.7c6.3-0.1,12.7,0,19.8,0c-2.5-10,4.6-13.1,11.2-17.5c7.2,13.5,19.6,6.7,30.9,8.7
			c-1.1-14.6,0.2-28.3,5.5-41.3c4.7,1.9,9.3,15,10.2,28.5c2.3,0,4.7,0,7.6,0c0-1.7-0.2-3.5,0-5.3c0.6-5.9,1.1-11.9,2.2-17.7
			c0.3-1.5,2.5-2.6,3.8-3.8c0.6,1.2,1.5,2.4,1.7,3.7c0.8,4.9,1.5,9.8,2,14.7c0.5,4.8,0.6,9.6,0.9,14.2c7.2,2.4,12.3-0.3,17-5
			c2.6-2.5,5.1-5.3,8.1-7.1c2.2-1.3,5.1-1.3,8-2c-2.7-7.8,0.5-13.8,6.8-18.5c0.8-0.6,2.5-0.9,3.4-0.5c4.5,2.4,8.1,10.7,7.4,15.5
			c5,2.9,10,5.5,14.8,8.4c5.1,3,5.6,2.8,7.6-2.7c1.2-3.2,2.9-6.1,4.7-9.7c5.9,0,12.4,0,19.5,0c0-4.8-0.3-9.3,0.1-13.7
			c0.2-2.4,1.3-5.2,2.9-6.8c4.5-4.6,9.3-8.7,14.2-12.7c0.8-0.6,2.9-0.7,3.6,0c4.6,4.1,9.4,8.1,13.2,12.9c1.6,1.9,1.1,5.6,1.7,9.2
			c5.5-0.2,11.6,2.2,15.9-4.9c1.3-2.2,5-3,8-4.6c0-4.6-0.1-10,0.1-15.4c0-1.1,0.6-3,1.2-3.2c7.9-2.3,6.6-9.4,7.4-15.1
			c2.4-16,4.5-32.1,6.7-48.2c0.5-3.4,0.7-6.9,1.3-10.3c0.1-0.9,1.1-1.6,1.7-2.3c0.7,0.8,1.9,1.6,2,2.5c1.4,8.6,2.7,17.3,4,26
			c1.6,11,3.7,21.9,4.5,32.9c0.4,5.7,2.9,9.5,6,13.5c1,1.3,1.1,3.6,1.2,5.4c0.2,4,0.1,8.1,0.1,12.3c1,0.2,1.8,0.5,2.5,0.4
			c6.7-1.2,11.4,1.9,15.6,6.9c4.5,5.3,6.6,4.8,10.5-1.3c0.6-1,1.3-1.9,1.8-2.9c2.6-4.8,4.6-5.1,8.5-1.4c0.5,0.4,0.9,0.8,2.2,1.9
			c0-5.4,0.1-10-0.1-14.6c0-0.9-0.9-2.2-1.7-2.7c-3-1.6-3-4.5-1.3-6.3c2.9-3.1,6.9-7.6,10-7.3c3.8,0.4,7.2,5.1,10.5,8.3
			c0.6,0.6,0.4,3.3-0.2,3.7c-4,2.7-2.1,6.5-2.5,10.2c1.6,0.1,3,0.2,4.3,0.3c0.2-0.7,0.5-1.2,0.5-1.7c0-4.4,0.1-8.8,0.1-13.2
			c0-1,0-2.1-0.2-3c-0.6-2.2-2.7-5.5-2-6.2c2.9-3.2,6.3-6.7,10.2-7.8c2.2-0.6,5.8,2.8,8.3,4.9c2.5,2.1,3.9,4.2,1.8,8.5
			c-1.7,3.5-0.3,8.5-0.3,13.5c1.3-0.3,2.8-0.2,3.5-0.8c0.4-0.4,0.2-2.6-0.4-3.1c-5.1-3.7-1.4-7,0.7-9.5c4.8-5.5,12.1-5,16.7,1
			c1.2,1.6,1.9,4.3,1.7,6.4c-0.6,6.8-1.7,13.6-2.6,20.6c7.5,1.8,12-2.7,17.1-5c1-0.4,1.3-3.3,1.4-5c0.2-5.4-0.1-10.8,0.1-16.2
			c0.1-1.7,0.6-4,1.7-4.8c4.7-3.2,4.6-8.2,5-13c1.3-13.6,2.6-27.1,3.9-40.7c0.4-4.8,0.7-9.6,1.1-14.5c1.3-15.6,2.6-31.2,3.9-46.8
			c0.2-3,0-6,1.1-9.6c0.6,0.8,1.6,1.4,1.7,2.3c1.7,14,3.3,28,5,42c1.5,12,3.3,23.9,4.8,35.9c1.2,9.6,2,19.1,3.1,28.7
			c0.4,3.6,0.6,7.3,1.6,10.8c0.6,2.2,2.5,4.1,3.8,6.1c0.5-0.2,0.9-0.5,1.4-0.7c0,6.7,0.1,13.5,0,20.2c0,2.6,0.3,4.2,3.3,5.1
			c3.4,1,6.6,3.2,10.5,5.1c0-5.7,0.1-10.7,0-15.7c-0.1-7.2,5.6-11.2,9-16.4c0.2-0.3,3.6,0.7,4.6,1.9c5.3,6.2,9.7,12.9,8,21.9
			c-0.2,1.3,0.1,2.7,0.2,4c0,0.2,0.4,0.4,1.5,1.6c1-15.4-1.4-30.4,4-44.3c0.6,0,1.3,0,1.9,0c2.2,14.7,4.4,29.5,6.7,44.3
			c8,2.1,6.9-7,11.4-10.3c2.7,3.2,5.7,6.1,7.9,9.5c1.9,3,3.9,2.3,4.6,0.1c3-8.3,9.4-7.6,16-7.3c5.5,0.2,11.1,0,17.1,0
			c-3.1-5.8,1.3-8.5,3.7-12.1c1.8-2.8,3.7-5.9,4.1-9.1c1.4-12.2,2.3-24.5,3.5-38.5c1.6,1.7,3.2,2.6,3.4,3.7
			c1.2,9.4,1.9,18.8,3.1,28.2c0.7,5.5,0.3,11.2,4.7,15.8c1.4,1.5,1.9,4.5,2,6.8c0.2,9.7,0.1,19.5,0.1,29.1c4.5,1.5,6.7-0.2,8.2-4.1
			c1.8-4.7,4.3-9.2,6.5-13.8c1.8-3.6,3.7-3.8,6-0.4c2.9,4.4,6.3,8.5,8.4,13.3c3.6,8.4,10.1,11.8,18.1,13.5c7.2,1.6,7.2,1.7,8,8.7
			c7.4,1.2,14.3,1.2,19.4-6.2c1.8-2.6,5.4-4,8.1-5.9c0.3,0.4,0.7,0.8,1,1.2c0.2-1.4,0.4-2.9,0.7-4.6c0.7-0.1,1.5-0.4,2.2-0.3
			c4.4,1,7.8-1.5,11.1-3.7c5.4-3.6,9-3.2,13.6,0.9c4.8,4.2,6.8,8.9,6.1,15.3c-0.5,4.3-0.1,8.7-0.1,14.2c6.7-0.5,13.2-0.2,19.4-1.6
			c6.4-1.5,10.8,1,15.1,4.9c1.3,1.2,2.6,2.6,3.8,3.9c2.9,3.4,6.3,4.6,10.4,2.4c5.1-2.7,11.4-1.1,16.1-5.6c1.4-1.3,6.2-2.1,8.3,2.3
			c0.6,1.2,3,1.6,4.6,2.3c2,0.8,4.6,1,6.1,2.4c8.3,8.2,18.5,3.7,27.8,4.5c1.4,0.1,3-2.2,4.7-3.5c5.3,1.6,7,3.5,7.6,9.1
			c5.1-0.4,10.2-1.4,15.3-1.1c8.3,0.5,17.2-0.6,23.6,6.8C2136.8,281.7,1829.3,281.7,1521.8,281.7z"/>
	</g>
	<g>
		<g>
			<path class="st0" d="M1820.3,331.3l-1.5,8.6h-27.6l6.3-37.5h27l-1.4,8.2H1807l-1,5.9h13.5l-1.4,8.1h-13.5l-1.1,6.6H1820.3z"/>
			<path class="st0" d="M1838,302.4l-6.3,37.5h-10.6l6.3-37.5H1838z"/>
			<path class="st0" d="M1866.1,328.1H1847c-0.1,0.8-0.1,1.3-0.1,1.7c0,1.2,0.4,2.2,1.2,2.8c0.8,0.7,1.8,1,3,1
				c2.3,0,3.8-1.2,4.8-3.5l9.3,1.5c-1.2,2.7-3.2,4.9-5.9,6.6c-2.7,1.7-5.7,2.5-9,2.5c-4.1,0-7.5-1.2-10.1-3.5
				c-2.6-2.4-3.9-5.6-3.9-9.6c0-4.4,1.5-8.2,4.6-11.4c3-3.2,7-4.7,11.9-4.7c4.2,0,7.5,1.2,9.9,3.7c2.5,2.4,3.7,5.7,3.7,9.8
				C1866.4,325.8,1866.3,326.9,1866.1,328.1z M1856.1,322.7c0.1-0.6,0.1-1,0.1-1.3c0-1-0.3-1.8-0.9-2.6c-0.6-0.7-1.5-1.1-2.6-1.1
				c-1.2,0-2.2,0.4-3.2,1.3c-1,0.9-1.5,2.1-1.8,3.7H1856.1z"/>
			<path class="st0" d="M1885.5,329.1l8.4,2.1c-1.5,3.6-3.5,6.1-5.9,7.5c-2.4,1.4-5,2.1-7.6,2.1c-3.8,0-7-1.2-9.4-3.6
				c-2.4-2.4-3.6-5.6-3.6-9.4c0-4.3,1.4-8.2,4.3-11.5s6.7-5,11.4-5c3.4,0,6.3,1,8.7,3.1c2.4,2.1,3.6,4.7,3.6,8l-9.4,1.1
				c0-3-1-4.5-3-4.5c-1.7,0-3,1.2-3.7,3.7s-1.1,4.6-1.1,6.4c0,2.7,1,4.1,3.1,4.1C1883.1,333,1884.6,331.7,1885.5,329.1z"/>
			<path class="st0" d="M1916.8,312.2l-1.2,7.1h-5l-1.7,9.9c-0.2,1-0.3,1.6-0.3,1.8c0,1.4,0.9,2,2.6,2c0.8,0,1.6-0.1,2.6-0.3
				l-1.2,7.2c-2,0.4-3.9,0.6-5.7,0.6c-2.3,0-3.9-0.3-5-0.9c-1.1-0.6-2-1.4-2.7-2.4c-0.7-1-1-2.4-1-4.1c0-0.7,0.2-2.1,0.5-4l1.6-9.9
				h-3.8l1.2-7.1h3.8l1.5-8.2l10.1-0.2l-1.4,8.4H1916.8z"/>
			<path class="st0" d="M1920.9,312.2h9.2l-1.1,6.7c1.9-5,4.9-7.5,8.8-7.5c0.3,0,0.7,0,1.3,0.1l-1.2,9.9c-1-0.1-1.6-0.1-1.9-0.1
				c-2.3,0-4,0.5-5,1.6c-1.1,1.1-1.8,3-2.3,5.7l-1.9,11.3h-10.6L1920.9,312.2z"/>
			<path class="st0" d="M1951.1,340.7c-3.9,0-7.1-1.1-9.7-3.4c-2.6-2.3-3.9-5.4-3.9-9.4c0-4.8,1.5-8.7,4.6-11.8s6.9-4.6,11.6-4.6
				c4.2,0,7.6,1.2,10.1,3.6c2.5,2.4,3.7,5.4,3.7,8.9c0,5.3-1.6,9.4-4.8,12.3C1959.4,339.3,1955.5,340.7,1951.1,340.7z M1951.5,334
				c1.9,0,3.2-1.4,3.9-4.3c0.7-2.9,1-5.2,1-7.2c0-2.9-1.1-4.4-3.2-4.4c-1.9,0-3.2,1.5-3.9,4.4c-0.7,2.9-1.1,5.3-1.1,7.2
				C1948.3,332.5,1949.4,334,1951.5,334z"/>
			<path class="st0" d="M1985.1,310.9l-4.9,29h-10.9l4.9-29h-8l1.5-8.6h27.2l-1.4,8.6H1985.1z"/>
			<path class="st0" d="M2015.6,339.9h-10.9c-0.1-0.5-0.1-1-0.1-1.3c0-0.9,0.1-2,0.2-3.3c-2.2,3.5-5.2,5.2-9.1,5.2
				c-2.6,0-4.8-0.8-6.4-2.3c-1.6-1.5-2.4-3.4-2.4-5.7c0-1.7,0.4-3.3,1.3-4.7c0.9-1.4,2.1-2.6,3.7-3.4c1.6-0.8,3.3-1.4,4.9-1.7
				c1.7-0.3,5-0.6,9.9-1.1c0.2-0.7,0.3-1.2,0.3-1.6c0-1.5-1.1-2.3-3.2-2.3c-2.1,0-3.6,1-4.6,3.1l-9-1.8c2.3-5.1,7.3-7.7,15.1-7.7
				c3.9,0,7,0.7,9.3,2c2.3,1.4,3.4,3.4,3.4,6c0,1.2-0.7,5.4-2,12.6c-0.5,2.7-0.7,4.5-0.7,5.4C2015.3,338.2,2015.4,339,2015.6,339.9z
				 M2005.8,326.7c-5,0.4-7.6,2-7.6,4.8c0,1.6,0.8,2.3,2.4,2.3c1,0,2.1-0.5,3.1-1.4C2004.8,331.6,2005.5,329.6,2005.8,326.7z"/>
			<path class="st0" d="M2037.3,302.4l-6.3,37.5h-10.6l6.3-37.5H2037.3z"/>
			<path class="st0" d="M2053.6,302.4l-6.3,37.5h-10.6l6.3-37.5H2053.6z"/>
			<path class="st0" d="M2068.6,312.2l-4.6,27.7h-10.8l4.6-27.7H2068.6z M2070.4,301.5l-1.4,8.2h-10.8l1.4-8.2H2070.4z"/>
			<path class="st0" d="M2074.3,312.2h9.7l-0.7,4.5c0.8-1.8,2-3.2,3.7-4.1c1.7-0.9,3.5-1.3,5.4-1.3c2.4,0,4.3,0.6,5.7,1.9
				c1.5,1.2,2.2,2.9,2.2,4.9c0,0.8-0.1,1.7-0.3,2.8l-3.2,19h-10.6l2.8-16.7c0.2-1.1,0.3-1.8,0.3-2.1c0-1.6-0.8-2.3-2.5-2.3
				c-2.2,0-3.6,1.5-4.1,4.5l-2.8,16.7h-10.3L2074.3,312.2z"/>
			<path class="st0" d="M2107.2,312.2h9.7l-0.7,4.5c0.8-1.8,2-3.2,3.7-4.1c1.7-0.9,3.5-1.3,5.4-1.3c2.4,0,4.3,0.6,5.7,1.9
				c1.5,1.2,2.2,2.9,2.2,4.9c0,0.8-0.1,1.7-0.3,2.8l-3.2,19h-10.6l2.8-16.7c0.2-1.1,0.3-1.8,0.3-2.1c0-1.6-0.8-2.3-2.5-2.3
				c-2.2,0-3.6,1.5-4.1,4.5l-2.8,16.7h-10.3L2107.2,312.2z"/>
			<path class="st0" d="M2177.9,327.6h-19.1c-0.1,0.8-0.1,1.3-0.1,1.7c0,1.2,0.4,2.2,1.2,2.8c0.8,0.7,1.8,1,3,1
				c2.3,0,3.8-1.2,4.8-3.5l9.3,1.5c-1.2,2.7-3.2,4.9-5.9,6.6c-2.7,1.7-5.7,2.5-9,2.5c-4.1,0-7.5-1.2-10.1-3.5
				c-2.6-2.4-3.9-5.6-3.9-9.6c0-4.4,1.5-8.2,4.6-11.4c3-3.2,7-4.7,11.9-4.7c4.2,0,7.5,1.2,9.9,3.7c2.5,2.4,3.7,5.7,3.7,9.8
				C2178.2,325.3,2178.1,326.4,2177.9,327.6z M2167.9,322.3c0.1-0.6,0.1-1,0.1-1.3c0-1-0.3-1.8-0.9-2.6c-0.6-0.7-1.5-1.1-2.6-1.1
				c-1.2,0-2.2,0.4-3.2,1.3c-1,0.9-1.5,2.1-1.8,3.7H2167.9z"/>
			<path class="st0" d="M2210.5,327.6h-19.1c-0.1,0.8-0.1,1.3-0.1,1.7c0,1.2,0.4,2.2,1.2,2.8c0.8,0.7,1.8,1,3,1
				c2.3,0,3.8-1.2,4.8-3.5l9.3,1.5c-1.2,2.7-3.2,4.9-5.9,6.6c-2.7,1.7-5.7,2.5-9,2.5c-4.1,0-7.5-1.2-10.1-3.5
				c-2.6-2.4-3.9-5.6-3.9-9.6c0-4.4,1.5-8.2,4.6-11.4c3-3.2,7-4.7,11.9-4.7c4.2,0,7.5,1.2,9.9,3.7c2.5,2.4,3.7,5.7,3.7,9.8
				C2210.8,325.3,2210.7,326.4,2210.5,327.6z M2200.5,322.3c0.1-0.6,0.1-1,0.1-1.3c0-1-0.3-1.8-0.9-2.6c-0.6-0.7-1.5-1.1-2.6-1.1
				c-1.2,0-2.2,0.4-3.2,1.3c-1,0.9-1.5,2.1-1.8,3.7H2200.5z"/>
			<polygon class="st0" points="2145.9,331.7 2144.5,339.9 2133.7,339.9 2135.1,331.7 			"/>
		</g>
		<g>
			<g>
				<path class="st1" d="M2021.7,16l1.3,3.2l-35.8,17.4c0.2,1.3,0.4,2.6,0.4,3.7c0.1,3.1-0.8,5.7-3.8,7.1c-0.5,0.2-1.1,0.4-1.6,0.5
					c-0.7,2.4-1.8,5.5-4.4,6c-1.5,0.3-3.2,0.6-4.8,0.8c-1,0.1-2.4,0.3-3.8,0.3c-0.9,0-1.9-0.1-2.5-0.4c-1.3-0.6-2.2-1.6-2.7-2.8
					l-0.3,0.1l-1.3,1.9c-2.9,4.4-5.9,9-8.5,13.6c-0.1,0.2-0.2,0.4-0.4,0.6c4.3,1,9.9,2.9,13.6,5.4l0.3-0.2l-0.1-1.2l0.9,0.8
					l10.7-5.8c4.5-2.4,10.7-4.4,15.8-4.4c0.1,0,0.2,0,0.3,0c1,0,2,0,3.1,0.1l1.4-1.1c2-1.5,5.6-4.2,8.8-5.9c-1.2-0.5-2.4-1-3.6-1.5
					l-15-5.6l15.9-1.5c1.3-0.1,2.6-0.2,4-0.2c3.4,0,7.1,0.4,10.1,1.1c0.9,0.2,1.9,0.5,2.8,0.8c-0.1-0.1-0.1-0.1-0.2-0.2l-6.7-7.6
					l10,1.5c0.9,0.1,1.8,0.3,2.7,0.5l0.2,0l0.2,0.1c1.3,0.4,2.8,0.9,4.3,1.6l0.2-0.7l3.5,1c3.6,1,8,2.4,11.1,4.6
					c1.5,1.1,3,2.1,4.5,3.2l-0.4-4.4l7.2,7.2c3.1,3.1,6.2,8.1,6.7,12.6c0.2,1.3,0.1,2.7-0.1,4.2l0.3,0.3c3.7-3.8,5.7-6.9,5.7-6.9
					l-4.2,0.1l5.8-11.2c0,0-1.4-0.5-4.2-0.5c-0.4,0-0.8,0-1.2,0c-1.7,0.1-4,0.4-5.9,0.7l-3-3.4c2.4-0.3,3.6-0.5,9-0.8
					c0.4,0,0.7,0,1.1,0c5.2,0,11.8,1.5,11.8,1.5l-6.4,11.1l4.4-0.7c0,0-2.8,6.2-10.9,12.6c1.4,1.6,2.9,3.7,3.7,5.5
					c1.1,2.5,1.2,5.4,0.7,8.2c8,2.7,15.6,6.3,22.7,11c5.8,3.9,13.4,10.2,17.3,16.1l0.9,1.4l-0.1,1.6c-0.2,3.2-0.6,6.5-1.1,9.7
					c-1.2,8-2.8,16-4.9,23.9c-5.6,21.2-14.4,42.1-26.8,60.3h6.7l-5.9,7.7l-10.8,14.3h7.3h13.7l-10.7,8.6l-45.1,36l-20.6,16.4
					l-16.2,12.9l-8.8,12.8l3.5-21.3l0.3-1.9l-2-3c-2-3-4-6-5.9-9.1h-48.3h-5.7l0.9-5.6l11-65.8c-2.6-5-5.1-10.1-7.3-15.3
					c-7.1-15.9-11.3-33.2-12.7-50.5c-0.4-5.4-0.6-10.8-0.4-16.1c0-0.1,0-0.2,0-0.2l-52.2,6.4l20.9-12c16.2-9.3,32.7-18.5,49.8-26
					c-3.2-2-6.4-4.2-9.4-6.4c-2.5-1.8-5-3.7-7.3-5.7c-4-3.6-7.4-9.6-8.7-14.8l-0.2-1l3.6-3.6c2-0.9,5.4-6,6.3-7.6
					c0.5-0.8,1.1-1.7,1.7-2.5l-36.7,15.4l17.8-14.5L1856,79.8l-1.3-3.3l89.8-40l-12,11.8l16.1-7.1l3.7-4.5l0.4-0.3
					c0.9-0.6,2.8-2,3.6-2.8c0.9-1.5,1.3-2.8,3.1-3.6c0.4-0.2,0.9-0.3,1.4-0.4c0.3,0,0.6-0.1,0.9-0.1c0.8-1.4,2.2-2.5,4-2.9
					c0.7-0.2,1.5-0.2,2.2-0.2c0.4,0,0.9,0,1.3,0.1c1.1-1,2.5-1.6,4.2-1.6c1.3,0,2.7,0.3,4,0.9c1.2-0.4,2.5-0.7,3.7-0.7
					c0.9,0,1.7,0.2,2.4,0.6c0.8,0.5,1.3,1.1,1.7,1.9L2021.7,16 M1970.9,74.8l0.8-0.3l-1.1,0.1L1970.9,74.8 M2060.8,239.5h17H2060.8
					 M2032.7,275.4l-20.6,16.4l0,0L2032.7,275.4 M2004.5,291.8L2004.5,291.8L2004.5,291.8l-6.2,9v0L2004.5,291.8
					C2004.5,291.8,2004.5,291.8,2004.5,291.8 M2023.8,11.6l-3.1,1l-34.3,10.7c-0.3-0.3-0.7-0.6-1.1-0.8c-1.2-0.7-2.6-1.1-4.2-1.1
					c-1.1,0-2.2,0.2-3.5,0.5c-1.3-0.4-2.7-0.7-4.1-0.7c-1.9,0-3.8,0.5-5.3,1.5c-0.1,0-0.1,0-0.2,0c-1.1,0-2.1,0.1-3,0.3
					c-1.8,0.4-3.4,1.2-4.6,2.5l-17.3,7.7l-89.8,40l-3.1,1.4l1.3,3.2l1.3,3.3l1.3,3.2l3.2-1.2l33.4-12.3l-1.4,1.1l-19,15.5l22.6-9.5
					l23.8-10l-2.6,2.5l-1.4,1.4l0.5,1.9l0.2,1l0,0l0,0c1.5,6.2,5.3,12.7,9.7,16.7c2.5,2.3,5.3,4.3,7.6,6l0,0l0,0
					c1.4,1,2.8,2,4.1,2.9c-15.8,7.3-31,15.9-44.3,23.5l-20.9,12l-15.1,8.7l17.3-2.1l48.1-5.9c0,4.1,0.2,8.3,0.5,12.6
					c0.7,8.9,2.2,17.8,4.3,26.4c2.2,8.7,5.1,17.2,8.7,25.3c2,4.6,4.3,9.3,6.9,14.4l-10.8,64.6l-0.9,5.6l-0.7,4.1h4.2h5.7h46.4
					c1.7,2.6,3.3,5.1,4.9,7.5l1.2,1.8l-0.1,0.6l-3.5,21.3l-2.6,15.7l9-13.1l8.5-12.4l15.8-12.6l20.6-16.4l45.1-36l10.7-8.6l7.9-6.3
					h-10.1h-13.7h-0.2l6.5-8.6l5.9-7.7l4.3-5.7h-7.1h-0.2c4.7-7.5,9-15.5,12.7-24c4.4-10,8.1-20.7,11-31.8c2.2-8.2,3.8-16.3,5-24.3
					c0.4-2.8,0.9-6.4,1.1-10l0,0l0.1-1.6l0.1-1.2l-0.6-1l-0.9-1.4l0,0l0,0c-4.3-6.4-12.2-13-18.3-17.1c-6.3-4.2-13.3-7.7-20.8-10.4
					c0.1-2.5-0.3-5-1.3-7.1c-0.5-1.2-1.3-2.5-2.1-3.6c6.6-6,9.2-11.4,9.3-11.7l2.7-6l-3.6,0.5l2.7-4.7l2.4-4.2l-4.7-1
					c-0.3-0.1-7-1.5-12.6-1.5c-0.4,0-0.9,0-1.3,0c-4.5,0.2-6.2,0.4-8,0.7c-0.4,0.1-0.8,0.1-1.3,0.2l-2.1,0.2l-2.2-2.2l-7-7l0.6,6.6
					c-3.4-1.9-7.5-3.2-10.4-4l-3.5-1l-3.4-0.9l-0.1,0.4c-0.3-0.1-0.6-0.2-0.9-0.3l0,0l0,0l-0.2-0.1l-0.2-0.1l-0.2,0l-0.2,0
					c-1-0.2-1.9-0.4-2.8-0.5l-10-1.5l-9.7-1.5l6.5,7.3l0.1,0.1c-1.1-0.1-2.3-0.1-3.4-0.1c-1.5,0-2.9,0.1-4.3,0.2l-15.1,1.4
					c0.5-1.5,0.7-3.1,0.7-4.9l0,0l0,0c0-0.5-0.1-1-0.1-1.5l33.5-16.3l3-1.4l-1.2-3.1l-1.3-3.2L2023.8,11.6L2023.8,11.6z M1985,50.7
					c0,0,0.1,0,0.1-0.1l3.6,1.3l12,4.5c-1.2,0.9-2.3,1.7-3.1,2.3v0l-0.3,0.2c-0.7,0-1.4-0.1-2.1-0.1c-0.1,0-0.2,0-0.4,0
					c-5.3,0.1-12.1,2-17.4,4.9l-8.6,4.7l-5.8-4.7l0.4,3.6c-1.5-0.6-3-1.2-4.4-1.6c1.7-2.9,3.6-5.8,5.4-8.5c0.3,0.2,0.7,0.4,1,0.5
					c1.1,0.4,2.3,0.7,3.9,0.7c1.5,0,3-0.2,4.1-0.3l0.1,0l0,0c1.5-0.2,3.4-0.4,5.1-0.8C1982.3,56.5,1984.1,53.2,1985,50.7L1985,50.7z
					 M2065.6,57.9c0.9-0.1,1.6-0.2,2.3-0.2l-1.1,2.2c0-0.1-0.1-0.1-0.1-0.2C2066.3,59.1,2066,58.5,2065.6,57.9L2065.6,57.9z"/>
				<path class="st1" d="M1977.1-3.7c18.3,1.9,6.5,14.5-3.5,20.7c-5.8,3.6-10.4,6.4-10.4,6.4l2.5-4.1c-1.5,1.5-10.1,5.9-7.4,8
					L1955,30l-0.2,0.3c-7.9-10.6,10.5-7.9,16.3-22.7c0,0-0.6,3.6-1.3,5.7c-0.8,2.2-2.1,4.7-2.1,4.7C1976.8,14.1,1994.3,0,1977.1-3.7
					 M1979.7-24.6l-11.9,30.9c-2.2,5.8-6.8,8.4-10.8,10.7c-3.5,2-6.7,3.8-7.5,7.5c-0.5,2.4,0.3,5,2.5,8l0.9,1.2l-0.2,0.4l0.3-0.2
					l1.8,2.4l2.8-3.8l2.9-2.4l3.3-2.8l0,0l1.3-0.8c0,0,4.6-2.8,10.4-6.4c3.9-2.4,7.6-5.4,10.2-8.3c3.7-4.1,5.2-7.9,4.4-11.3
					c-0.4-1.6-1.4-3.8-4.4-5.4c-2-1.1-4.7-1.9-8.2-2.2l-1.1,7c2.3,0.5,3.5,1.1,4,1.5c0.5,0.4,0.5,0.6,0.5,0.7c0.1,0.7-0.8,3-4.5,6.3
					c-0.7,0.6-1.4,1.2-2.1,1.7c0.2-1,0.3-1.7,0.3-1.9L1979.7-24.6L1979.7-24.6z"/>
			</g>
			<g>
				<g id="_2520766580608_2_">
					<g>
						<path class="st0" d="M1923.6,132.5l-52.2,6.4l20.9-12c21.3-12.3,43.1-24.3,66.4-32.6c26.2-9.3,52-12.9,79.8-11.7
							c19.9,0.9,40,5.9,56.8,17.1c5.8,3.9,13.4,10.2,17.3,16.1l0.9,1.4l-0.1,1.6c-0.2,3.2-0.6,6.5-1.1,9.7c-1.2,8-2.8,16-4.9,23.9
							c-6.2,23.7-16.4,46.9-31.3,66.5c-15,19.8-32.5,38.2-50.8,55c-6.1,5.6-12.3,11-18.6,16.3c-2.5,2.1-5,4.1-7.5,6.1l-4.1,3.2
							l-2.9-4.4c-4-6.1-7.9-12.2-11.8-18.3c-8.4-13.3-16.6-26.8-24.4-40.5c-6.8-11.9-13.5-24.3-19.1-36.9
							c-7.1-15.9-11.3-33.2-12.7-50.5c-0.4-5.4-0.6-10.8-0.4-16.1C1923.6,132.6,1923.6,132.6,1923.6,132.5z"/>
						<path class="st2" d="M2106.1,119.2c-3.1-4.1-22.3-27.3-68-29.4c-28.8-1.3-52.6,2.8-75.1,10.6c-19.4,6.7-37.7,16.1-57.3,27.2
							l25.8-3.2l-0.3,2.9c0,0.1-4,33.1,12.1,69.3c14.5,32.6,46.4,82,53.4,92.6c8.7-6.9,45.1-36.8,73.7-74.5
							C2100.4,174.8,2105.5,125.9,2106.1,119.2z"/>
						<g>
							<path class="st3" d="M2103.7,135.7c1.6-8.5,2.2-14.4,2.4-16.5c-1-1.4-3.9-5-9-9.1l-22.6,11.3L2103.7,135.7z"/>
							<path class="st3" d="M1963.9,174.8l-26.7,5.9c1.6,5.1,3.5,10.4,5.9,15.8c14.5,32.6,46.4,82,53.4,92.6
								c8.7-6.9,45.1-36.8,73.7-74.5c18-23.7,27.1-50.7,31.6-70.1L1963.9,174.8z"/>
							<path class="st3" d="M1931.1,127.2c0,0.1-2.1,17.4,2.9,40.8l88.8-50l-38.3-21l5.8-4c-9.5,1.8-18.5,4.3-27.3,7.3
								c-19.4,6.7-37.7,16.1-57.3,27.2l25.8-3.2L1931.1,127.2z"/>
						</g>
						<polygon class="st0" points="1981.6,28.5 2021.7,16 2023,19.2 1983.2,38.5 						"/>
						<polygon class="st4" points="1983.7,29.8 2020.6,18.3 1984.7,35.7 						"/>
						<path class="st0" d="M2061.2,118.6c0.5,1.3,1.2,3.2,1.5,4.6c0.2,0.1,0.4,0.2,0.7,0.2c3.3,1,8.4,5,5.4,8l1.1,0.7l0.2,0.2
							c4.2,3.7,8.5,8.3,11.9,12.7c1.4,1.9,2.7,3.9,3.9,5.9c2.1,3.8,2.5,8.7,2.4,13c-0.1,5.2-1.1,11.3-2.6,16.3l-0.5,1.8h0l0.5,0.3
							l0.4,1.5c1.2,4.9,1,11.5-0.6,16.2c-1,3-2.4,5.8-3.8,8.6c-0.4,0.7-1.6,3.2-1.7,3.9c0.3,1.7-0.4,3.3-1.4,4.7l1.4-0.3l-5.7,3.9
							c-1.1,3.8-4.2,5.1-7.7,6.8c-5.7,2.8-20.4,8.2-26.6,6.7c-1.7-0.4-3.5-0.8-5.2-1.1c-0.5-0.1-1-0.2-1.5-0.2h-3.6l-0.3-17l3.3-0.4
							c0.7-0.1,2-0.5,2.7-0.8c2.7-1,5.2-2.6,7.3-4.4c2.4-2,5.9-5.8,7.1-8.7l0.6-1.7l0.1,0c-0.1-0.3-0.1-0.6-0.1-0.9
							c-0.2-2.8,0.7-6.9,1.3-9.7c0.9-4.4,1.8-8.8,2.7-13.2c-2.5,1.2-5.2,2.4-7.7,3.3l0,0c0,0-10.8,11.9-11.9,17.3
							c-1.1,5.4,2.9,14.7,2.9,14.7s-11.4,2.1-26.6,0.8c-15.2-1.3-36.3-8.3-36.3-8.3s-2.9-10.1-2.9-12.8c0-2.7,0-10.1-1-13.9
							c-1-3.8-2.6-7.1-5.3-25.9c-2.7-18.9,0-33.5,0-33.5l1.1,0.2l0-0.2c-2.9,0-6.1-1.2-8.3-2.2c-2.2-1-4.1-2.5-5.8-4.2
							c-1.9-1.9-3.5-4-5.1-6.1c-0.6-0.8-2-2.7-2.9-3.2c-4.1-2.4-8.2-5.2-12.1-8c-2.5-1.8-5-3.7-7.3-5.7c-4-3.6-7.4-9.6-8.7-14.8
							l-0.2-1l3.6-3.6c2-0.9,5.4-6,6.3-7.6c3.9-6.6,12.6-13.4,20-18.1l5.8-7.1l0.4-0.3c0.9-0.6,2.8-2,3.6-2.8
							c0.9-1.5,1.3-2.8,3.1-3.6c0.4-0.2,0.9-0.3,1.4-0.4c0.3,0,0.6-0.1,0.9-0.1c0.8-1.4,2.2-2.5,4-2.9c1.1-0.2,2.3-0.3,3.6-0.2
							c1.1-1,2.5-1.6,4.2-1.6c1.3,0,2.7,0.3,4,0.9c2-0.7,4.4-1.1,6.1-0.1c1.5,0.9,2,2.6,2.4,4.3c0.4,1.4,0.6,2.8,0.9,4.2
							c0.3,2,0.8,4.3,0.9,6.3c0.1,3.1-0.8,5.7-3.8,7.1c-0.5,0.2-1.1,0.4-1.6,0.5c-0.7,2.4-1.8,5.5-4.4,6c-1.5,0.3-3.2,0.6-4.8,0.8
							c-1.8,0.2-4.7,0.6-6.3-0.1c-1.3-0.6-2.2-1.6-2.7-2.8l-0.3,0.1l-1.3,1.9c-2.9,4.4-5.9,9-8.5,13.6c-0.1,0.2-0.2,0.4-0.4,0.6
							c4.3,1,9.9,2.9,13.6,5.4l0.3-0.2l-0.1-1.2l0.9,0.8l10.7-5.8c4.5-2.4,10.7-4.4,15.8-4.4c1.1,0,2.2,0,3.5,0.1l1.4-1.1
							c2-1.5,5.6-4.2,8.8-5.9c-1.2-0.5-2.4-1-3.6-1.5l-15-5.6l15.9-1.5c4.4-0.4,9.8-0.1,14.1,0.9c0.9,0.2,1.9,0.5,2.8,0.8
							c-0.1-0.1-0.1-0.1-0.2-0.2l-6.7-7.6l10,1.5c0.9,0.1,1.8,0.3,2.7,0.5l0.2,0l0.2,0.1c1.3,0.4,2.8,0.9,4.3,1.6l0.2-0.7l3.5,1
							c3.6,1,8,2.4,11.1,4.6c1.5,1.1,3,2.1,4.5,3.2l-0.4-4.4l7.2,7.2c3.1,3.1,6.2,8.1,6.7,12.6c0.2,1.3,0.1,2.7-0.1,4.2l1.6,1.9
							c1.5,1.7,3.5,4.3,4.4,6.4c1.6,3.7,1.2,8.2-0.5,11.9c-1.1,2.4-3.2,5.2-5.1,7.4c-0.3,0.4-0.6,0.7-0.9,1.1
							c-1.6,1.9-4.8,5.9-5.2,8.1C2059.6,112,2061.2,118.6,2061.2,118.6z M1971.7,74.5l-1.1,0.1l0.3,0.2L1971.7,74.5z"/>
						<path class="st5" d="M2032,79.6c0,0,1.7-6.1,7.5-4.6c5.9,1.4,11.8,10.3,11.8,10.3s3.8-4.2,7.1-1.8c3.3,2.5,0.6,10.4,0.6,10.4
							s1.6,2.9,1.1,5.4c-0.5,2.5-7.8,3.9-9.7,4.5c-1.9,0.6-3.2-1.9-3.2-1.9s-1.3,0.3-3.4,0.2c-2.1-0.1-15-12.3-15.4-14.4
							c-0.4-2.1,5.3-4.5,5.3-4.5L2032,79.6z"/>
						<path class="st6" d="M2051.3,85.3c0,0,3.8-4.2,7.1-1.8c3.3,2.5,0.6,10.4,0.6,10.4s1.6,2.9,1.1,5.4c-0.5,2.5-7.8,3.9-9.7,4.5
							c-1.9,0.6-3.2-1.9-3.2-1.9s-1.3,0.3-3.4,0.2c-2.1-0.1-15-12.3-15.4-14.4c0,0,12.7,11.8,14.9,11.9c2.2,0.1,4.2-1.3,4.2-1.3
							s1.3,3.3,3,3.1c1.7-0.2,7.8-1.7,8.1-3.4c0.2-1.8-1.1-3.8-1.1-3.8s0.3-0.3,0.7-1.7c0.4-1.4,0.2-7.3-1.5-8.2
							C2055,83.5,2051.3,85.3,2051.3,85.3z"/>
						<path class="st5" d="M2030.2,94c0,0,2.2,7.5,5.5,9.4s5.3,1,5.3,1s-1.9,1.1-4.2,1.8c-2.4,0.7-3.1,0.6-3.1,0.6s3,0.3,5.4-0.2
							c2.5-0.5,6.3-2.5,6.3-2.5s0.9,1.6,1.9,2.3c1,0.7-0.6,6.8-0.6,6.8s1.6-2.3,1.8-4.4c0.2-2,0.3-2.4,0.3-2.4s1,1.3,4.2,1.2
							c3.1-0.1,4.3-2.3,4.3-2.3s0.8,4.4-1.3,6.6c-2.1,2.2-7.7,5-7.7,5l-1.8,0l2.1-2.4l-1-1l0.2,1.1l-3.1,2l-1.9-0.3
							c0,0-3.9-3.9-4-4.4c-0.1-0.6,1.6-2.6,1.6-2.6l-2.4,1.2l-4.4-0.8c0,0-2.9-2.6-4.7-7C2026.9,98.1,2030.2,94,2030.2,94z"/>
						<path class="st6" d="M2030.2,94c0,0,2.2,7.5,5.5,9.4s5.3,1,5.3,1s-1.9,1.1-4.2,1.8c-2.4,0.7-3.1,0.6-3.1,0.6s3,0.3,5.4-0.2
							c2.5-0.5,6.3-2.5,6.3-2.5s0.3,0.5,0.7,1.1l-1.2,0.5c0,0-4.4,2.6-7.9,2.3c-3.4-0.2-5.7-1-5.7-1l0,0c0,0,0.4-0.2,2-0.8
							c1.6-0.6,2.2-1.4,2.2-1.4s-2.9-0.6-4.7-4.2c-0.7-1.3-1.2-3.3-1.5-5.3C2029.8,94.5,2030.2,94,2030.2,94z M2047.1,112.6
							c0.5-0.8,1.2-2.4,1.4-3.7c0.2-2,0.3-2.4,0.3-2.4s1,1.3,4.2,1.2c3.1-0.1,4.3-2.3,4.3-2.3s0.8,4.4-1.3,6.6c-2.1,2.2-7.7,5-7.7,5
							l-0.9,0c0,0,4.1-2.1,7-4.9c3-2.8,1.7-3.4,1.7-3.4s-0.1,0.2-2.1,0.3c-2,0.2-4-0.4-4-0.4s0,0-0.7,1.7
							C2048.7,111.2,2047.6,112.2,2047.1,112.6z"/>
						<path class="st1" d="M2037.1,112c0,0-2.2-1.9-7.2-0.8c-5,1.2-7,5.6-10.3,8.6c-3.3,3-5.6,3.2-5.6,3.2s2.4,0.4,6.1-0.5
							c3.7-0.8,6.3-4.1,6.3-4.1s-0.2,0.8-1.1,2.1c-0.9,1.4-2.6,2.1-2.6,2.1s2.1-0.4,5.7-2.9c3.6-2.5,4.1-3.4,5.9-3.6
							c1.8-0.2,6.4,0.6,6.4,0.6s-0.9-1.7-2.8-2.4c-1.9-0.7-5.6-0.5-5.6-0.5s1.2-0.9,3.3-1c2-0.1,3,0.3,3,0.3L2037.1,112z
							 M2031,120.5c0,0-1.8,2.2-6.1,3.8c-4.2,1.6-9.3,1-9.3,1s-2.1,3.8-2.3,5.9c-0.2,2.2,0.5,4.4,0.5,4.4s0.1-3.2,1.5-5.2
							c1.3-1.9,2.4-2.6,2.4-2.6s-1.7,2.1-1.8,7.1c0,1.9-0.1,3.4-0.1,4.5c0,0.8,0,1.6-0.1,2.5l0,0l0,0c0,0.2,0,0.4,0,0.5
							c-0.6,7-3.5,11.1-3.5,11.1l-5.1,5.4c0,0,10.2-2.6,14.5-8.6c4.3-6.1,2.7-12.6,2.7-12.6l2.3,4.7c0,0-1-2.6,1-8.1
							c2-5.5,5.4-9.8,5.4-9.8l-1.6-0.5c0,0-2.6,0.7-3.9,3.7c-1.3,3-1.8,9.5-1.8,9.5s-0.8-1.6-0.4-5.8c0.4-4.2,4.2-8.3,4.2-8.3
							s-6.6,3.4-8.4,7.9c-1.8,4.5-2.6,11.1-2.6,11.1s-0.6-7.4,1.3-11.5c1.9-4.2,8.8-7.4,9.9-8.4C2030.7,121.3,2031,120.5,2031,120.5
							z M2033.8,126c0,0-3.1,5.9-4.3,11.9c-1.2,5.9-1,8.8-1,8.8l-2.1-1.5c0,0-0.8,6.1-7.5,10.1c-6.7,4-14.5,6.2-14.5,6.2
							s17.8-2.7,25-6.2c7.3-3.4,7.9-9.7,7.9-9.7s0.5,1.2,0.2,4.1c-0.2,2.9-1,4.2-1,4.2s3-2.2,4-5c1-2.7,1-6.3-0.6-12.1
							c-1.7-5.8,0-10.1,0-10.1l-0.7-2.1l-2-0.2c0,0-1.7,3.3-0.4,8.2c1.3,5,2.5,6.3,2.5,8.4c0,2.1-0.4,3.2-0.4,3.2s0.3-1.8-1.2-5.4
							c-1.5-3.7-2.6-5.3-2.8-7.1c-0.2-1.8-0.2-1.8-0.2-1.8s-2.2,4.4-1.8,10.7s-3.5,9.8-3.5,9.8s2.1-3.5,2.4-8.4
							c0.3-4.9,0.2-9.4,0.8-12C2033.1,127.5,2033.8,126,2033.8,126z M2041,127.5c0,0-0.9,5,1.2,9.5c2.1,4.4,2.3,9.1,1.2,11.5
							c-1.1,2.4-1.3,2.6-1.3,2.6s5.8-4.5,5.4-9.2c-0.4-4.7-1.6-5.9-1.6-5.9s3.1,2.7,3.7,6c0.6,3.3,0.2,3.7,0.2,3.7s1.9-2.9,2.2-6.6
							c0.2-3.8-2.5-6.5-2.5-6.5s2.2,2.6,5.5,3.3c3.3,0.7,4.4-0.5,4.4-0.5s-4.2-0.4-7.6-3.4c-3.4-3-6.4-7.6-6.4-7.6s-0.2,0.4,1.2,2.8
							c1.4,2.4,3.8,4.1,3.8,4.1s-0.4,0.2-2.4-1.2c-2-1.4-3.8-3.8-3.8-3.8s-0.8,1.3,1.9,4.7c2.7,3.4,3.1,6.3,3.1,6.3s-1.3-2-3-4.2
							c-1.8-2.2-3.2-4.9-3.2-4.9s-0.8,3.4,1,7.1c1.8,3.8,0.8,7.3,0.8,7.3s0.7-3.8-1.2-6.7C2041.7,132.8,2041,127.5,2041,127.5z
							 M2046.1,118c0,0,5.2,0,7.9,3c2.7,2.9,4.5,4.9,8.3,6c3.7,1.1,4.8,0.8,4.8,0.8s-3.2,4.4-8.7,3.9c-5.5-0.5-7-2.9-9.2-5.7
							c-2.2-2.8-4.3-5.1-4.3-5.1s3.2,0.8,6.3,3.1c3.2,2.3,5.6,3.6,5.6,3.6s-2-2.5-5.7-5.2c-3.8-2.7-6.7-4-6.7-4L2046.1,118z
							 M2055.5,115.6c0,0,1.2,1.8,2.3,4.5c1.1,2.6,1.2,3.9,1.2,3.9s-3.4-4.2-5-5.3c-1.6-1.1-2.3-1.4-2.3-1.4l2.4-0.7
							c0,0,0.8,0.3,1.7,1.5c0.9,1.2,1,1.4,1,1.4L2055.5,115.6z M2024.8,100.1c0,0-5.4,1.4-8.9,6.2c-3.5,4.9-4.2,12.2-4.2,12.2
							s0.5-1.8,1.9-3.4c1.4-1.7,2.2-2.3,2.2-2.3s0.2,1.9-2.2,5.6c-2.3,3.8-2.7,3.8-2.7,3.8s4.4-1.2,7.2-4c2.8-2.8,2.9-4.8,5.6-6.8
							c2.6-1.9,7.3-2.6,7.3-2.6l-1-0.9c0,0-2.5,0-5,0.7c-2.5,0.7-4.5,2.4-4.5,2.4s0.4-1.6,3.6-3.1c3.2-1.5,4.1-1.8,4.1-1.8
							s-2.6-0.8-5.1,0.1c-2.6,0.8-4.1,2-4.1,2s0.7-1.4,3.8-2.9c3.1-1.4,3.9-1.7,3.9-1.7s-2.8-0.6-6.2,1.5c-3.3,2.2-5.2,4.9-5.2,4.9
							s1.1-3.7,4.7-6c3.6-2.3,5.6-3.2,5.6-3.2L2024.8,100.1z M2026.4,85.5c0,0-17-9.9-27.9-11.3c-11-1.4-23.3,3-23.3,3
							s12.7,0.6,16.3,1.5c3.6,1,3.7,1,3.7,1s-1.4-0.2-6.5-0.2s-8.5,0-8.5,0s4.8,4.2,16,9.9c11.2,5.7,21.1,4.9,21.1,4.9s-2,1.4-6,1.3
							c-4-0.1-15.3-3.6-15.3-3.6s4.6,6.9,14,7.7c9.4,0.8,16.2-2.1,16.2-2.1l0.8-1.2c0,0-3.7,0.3-7,1c-3.4,0.7-3.5,0.7-3.5,0.7
							s2.8-1.3,6.3-2.5c3.5-1.2,4.2-2,4.2-2s-10.5-2.6-14.1-3.7c-3.6-1-4.3-1.7-4.3-1.7s4.2,0.9,9.9,1.7c5.7,0.8,7.6,0.4,7.6,0.4
							s-3.3-2.6-7.3-4.4c-4-1.8-8.8-3.6-8.8-3.6s9.4,1.5,13.4,3.4c4,1.9,4,1.9,4,1.9L2026.4,85.5z M2002,64.5c0,0,8.1-6.2,10.8-6.6
							c2.7-0.3,8.2,4.2,10.8,7.9c2.6,3.8,7.2,15.8,7.2,15.8l-2.6-2.6l1,4.7c0,0-13.8-7.6-24.5-11c-10.7-3.4-23.8-2.5-23.8-2.5
							s7.2-3.9,14.1-4c6.9-0.1,17.4,2.7,21.4,4.5c4,1.8,6.3,3.6,6.3,3.6s-3.3-3.4-8.2-5.8c-5-2.4-10.8-2.7-10.8-2.7s7.1-3.4,9.8-3.1
							c2.7,0.2,8.8,7.4,8.8,7.4s-7.4-8.3-8.7-8.9C2012.2,60.5,2002,64.5,2002,64.5z M2041.5,71.3c0,0-10.1-13.3-16.8-17.5
							c-6.7-4.2-18.5-3-18.5-3s4.1,1.5,7.4,3.3c3.4,1.8,7.6,4.5,11,10c3.4,5.5,5.9,11.6,5.9,11.6s-0.5-7-1.5-8.8c-1-1.8-1.9-3-1.9-3
							s2.8,1.4,4.7,3.8c2,2.4,3.2,4.2,3.2,4.2s-2.3-6-4.8-9.2c-2.5-3.2-3.4-4.2-3.4-4.2s4.4,3.1,8.8,7.5
							C2040,70.2,2041.5,71.3,2041.5,71.3z M2058.9,80.6c0,0,4.1-6.6,3.4-11.9c-0.6-5.4-5.7-10.4-5.7-10.4l0.2,2.5
							c0,0-5.2-4.1-11-8.2c-2.4-1.7-6.2-3-10-4.1c0.1,0,4.4,1.4,6.1,4.1c1.7,2.8,2.9,6.2,2.9,6.2s-1.6-2.9-5.7-6.4
							c-4.1-3.5-11.3-5.7-11.3-5.7c-1.6-0.3-2.5-0.4-2.5-0.4s9.5,10.7,12.7,16c3.2,5.3,6.1,11,6.1,11s-0.3-3.4-1.9-6.8
							c-1.6-3.4-1.8-4.1-1.8-4.1s3.7,2.6,6.3,6.6c2.6,4.1,4,10.2,4,10.2s0.6-3.5-1.1-8.6c-1.8-5.1-3.7-7.5-3.7-7.5s2.8,1.3,5,6.7
							c2.2,5.4,2.4,9.5,2.4,9.5s1.4-4.1,1-7.9c-0.5-3.8-1-5.5-1-5.5s1.7,1.8,2.4,6.2c0.7,4.4-0.4,8.3-0.4,8.3s3.2-5.7,3.4-9.4
							c0.2-3.7-0.4-6.2-0.4-6.2s1.3,3.3,1.3,8.3C2059.4,77.9,2058.9,80.6,2058.9,80.6z M2062.2,98.9c0,0,4.2-4.6,5.8-8
							s1.4-6.8,0.5-8.9c-0.9-2.1-3.8-5.4-3.8-5.4s-0.2,2-1.4,4.4c-1.3,2.4-1.8,2.2-1.8,2.2l0.6,2.8c0,0,0.5,0,1.7-1.4
							c1.2-1.4,1.3-1.9,1.3-1.9s-0.3,1.6-1.5,4.2c-1.2,2.6-1.4,2.7-1.4,2.7l0.2,3c0,0,1.2-0.8,2.7-2.5c1.5-1.6,1.6-2.8,1.6-2.8
							s-0.3,1.8-1.4,4.4c-1.2,2.5-2.8,3.6-2.8,3.6L2062.2,98.9z"/>
						<path class="st3" d="M2012.6,121.6c2.3-1.5,5.5-4,6.4-6.2c1.4-3.4,2.2-3.8,2.2-3.8l-2.6,1.3c0,0,1-2.2,2.1-3.6
							c1.1-1.5,1.7-1.9,1.7-1.9s-3.8,1.4-4.9,2.3c-1.1,1-1.1,1-1.1,1s2.4-3.6,4.5-5.7c3.1-1.8,5.7-1.2,5.7-1.2s-0.8,0.3-3.9,1.7
							c-3.1,1.4-3.8,2.9-3.8,2.9s1.6-1.2,4.1-2c2.6-0.8,5.1-0.1,5.1-0.1s-1,0.2-4.1,1.8c-3.2,1.5-3.6,3.1-3.6,3.1s2-1.8,4.5-2.4
							c2.5-0.7,5-0.7,5-0.7l1,0.9c0,0-4.6,0.7-7.3,2.6c-2.6,1.9-2.7,3.9-5.6,6.8C2016.4,119.9,2014.2,121,2012.6,121.6z"/>
						<path class="st3" d="M2007,159.1c0,0,9.6-3.3,12.6-9.3c3-6,2.9-14.1,2.9-14.1l2.1,1c0,0-0.9-2.6-0.6-5.4
							c0.3-2.8,0.4-2.8,0.4-2.8s-2.3,3-3.8,7.2c-1,2.8-1.6,4.5-1.9,5.3c0.3-2.1,1.1-6.6,2.4-9.9c1.8-4.5,8.4-7.9,8.4-7.9
							s-3.8,4.1-4.2,8.3c-0.4,4.2,0.4,5.8,0.4,5.8s0.5-6.6,1.8-9.5c1.3-3,3.9-3.7,3.9-3.7l1.6,0.5c0,0-3.4,4.3-5.4,9.8
							c-2,5.5-1,8.1-1,8.1l-2.3-4.7c0,0,1.6,6.6-2.7,12.6C2017.1,156.5,2007,159.1,2007,159.1z M2018.5,141.6c0,0-0.8-7.4,0.3-10.6
							c1.1-3.2,2.4-4.3,2.4-4.3s-3.4-0.2-5.2-0.1c-0.4,0-0.7,0-1.1,0c0.4-0.8,0.7-1.3,0.7-1.3s5,0.6,9.3-1c4.2-1.6,6.1-3.8,6.1-3.8
							s-0.3,0.8-1.3,1.8c-1.1,1-7.9,4.3-9.9,8.4C2018.2,134.1,2018.4,139.6,2018.5,141.6z M2004.4,161.4c0,0,18.6-4.1,23.9-7.4
							c5.4-3.4,8.3-10.6,8.3-10.6s1.2,1.3,1.8,2.8c0.6,1.4,0.6,2,0.6,2s1.1-2,1.3-4.2c0.2-2.2-0.7-5.2-0.7-5.2l-0.3,1.9
							c-0.2-1.8-1.3-3.3-2.5-7.9c-1.3-5,0.4-8.2,0.4-8.2l2,0.2l0.7,2.1c0,0-1.7,4.3,0,10.1c1.7,5.8,1.7,9.4,0.6,12.1c-1,2.7-4,5-4,5
							s0.7-1.3,1-4.2c0.2-2.9-0.2-4.1-0.2-4.1s-0.6,6.2-7.9,9.7C2022.2,158.7,2004.4,161.4,2004.4,161.4z M2038.4,140.8
							c-0.5-0.8-1.1-1.8-1.8-3c-1.3-2.2-2.2-3.9-2.2-3.9s-1,3.8-0.5,7.4c0.4,2.8-2.3,6.5-3.5,8.1c1.1-1.5,2.8-4.5,2.5-8.7
							c-0.4-6.3,1.8-10.7,1.8-10.7s0,0,0.2,1.8c0.2,1.8,1.3,3.4,2.8,7.1C2038,139.5,2038.2,140.2,2038.4,140.8z M2029.8,150
							L2029.8,150L2029.8,150L2029.8,150z M2030,149.2c0.5-2,1.7-7.3,1.4-10.2c-0.2-2.4-0.2-5.4-0.2-7c1.2-3.4,2.6-5.9,2.6-5.9
							s-0.7,1.5-1.2,4c-0.5,2.6-0.4,7.1-0.8,12C2031.6,145.1,2030.6,147.7,2030,149.2z M2044,149.3c0.9-1.1,1.8-2.7,2.2-4.9
							c0.8-4.7-1.4-9.6-1.4-9.6s2.4,0.4,3.8,2.7c1.5,2.4,1.9,3.3,1.9,3.3s0-2.4-0.6-5.4c-0.5-3-1.6-3.9-1.6-3.9s1.8,1.3,4.8,2.4
							c1.2,0.4,2.5,0.6,3.5,0.7c1.5,0.5,2.5,0.6,2.5,0.6s-1.1,1.2-4.4,0.5c-3.3-0.7-5.5-3.3-5.5-3.3s2.7,2.7,2.5,6.5
							c-0.2,3.8-2.2,6.6-2.2,6.6s0.4-0.4-0.2-3.7c-0.6-3.3-3.7-6-3.7-6s1.2,1.2,1.6,5.9C2047.8,144.7,2045.7,147.5,2044,149.3z"/>
						<g>
							<path class="st3" d="M2037.1,112c0,0-0.1-0.1-0.2-0.2c-0.4-0.1-0.7-0.1-1.1,0c-3,0.4-6,2.8-6,2.8s0,0,1.5-0.2
								c1.5-0.2,3.9,0.5,3.9,0.5s-0.7,0-3.5,0.9c-2.8,0.9-4.5,2.8-4.5,2.8l0.6-2.3c0,0-0.1,0.4-3.9,3c-3.8,2.7-7.6,3.7-7.6,3.7
								c1-0.1,2.3-0.2,3.8-0.5c3.7-0.8,6.3-4.1,6.3-4.1s-0.2,0.8-1.1,2.1c-0.9,1.4-2.6,2.1-2.6,2.1s2.1-0.4,5.7-2.9
								c3.6-2.5,4.1-3.4,5.9-3.6c1.8-0.2,6.4,0.6,6.4,0.6s-0.9-1.7-2.8-2.4c-1.9-0.7-5.6-0.5-5.6-0.5s1.2-0.9,3.3-1
								c2-0.1,3,0.3,3,0.3L2037.1,112z M2046.1,118c0.6,0,4.6,2.3,7,4.9c2.4,2.6,4.5,5.2,4.5,5.2s-1,0-3.1-0.8
								c-2.2-0.8-3.6-1.6-3.6-1.6s2.3,3.5,6.9,4.2c4.6,0.7,9.4-2.1,9.4-2.1s-3.2,4.4-8.7,3.9c-5.5-0.5-7-2.9-9.2-5.7
								c-2.2-2.8-4.3-5.1-4.3-5.1s3.2,0.8,6.3,3.1c3.2,2.3,5.6,3.6,5.6,3.6s-2-2.5-5.7-5.2c-3.8-2.7-6.7-4-6.7-4L2046.1,118z
								 M2045.8,124.7c-0.1-0.1-0.2-0.3-0.4-0.4c0-0.1,0-0.1,0-0.1S2045.5,124.4,2045.8,124.7z M2049.1,129
								c-0.2-0.3-0.5-0.5-0.7-0.8L2049.1,129z"/>
						</g>
						<path class="st3" d="M2023.6,65.9l2,8.4c0,0-3.4-4.1-8.7-6.4c-5.4-2.3-13.3-2-13.3-2s5.8,0.3,10.8,2.7
							c3.9,1.9,6.8,4.4,7.8,5.4l0,0l0,0c0.3,0.2,0.4,0.4,0.4,0.4s0,0-0.2-0.1l3.5,3.9l0.5,1.9c0,0-13.7-6.6-21-8.6
							c-7.3-1.9-16.7-1.2-16.7-1.2l0,0c4.6,0.2,10.5,0.8,15.8,2.5c10.7,3.4,24.5,11,24.5,11l-1-4.7l2.6,2.6
							C2030.8,81.6,2026.2,69.6,2023.6,65.9z M2025.1,84.8c-3.9-1.3-10.8-3.4-13.5-3.4c-3.8,0-5.3,0.1-5.3,0.1l12.7,7
							c0,0-6.7-1.5-11.7-2.2c-5-0.7-6.6-1.1-6.6-1.1l9.3,6.6c0,0-3.9-0.4-12.7-3.6c-8.8-3.2-17-8.9-17-8.9s0.6,0.6,1.6,1.4
							c2.3,1.7,6.9,4.8,14.2,8.5c11.2,5.7,21.1,4.9,21.1,4.9s-0.1,0.1-0.4,0.2l0,0c2-0.1,4.1-0.3,4.1-0.3s-3.5,2.3-9,3.6
							c-5.5,1.2-13.7-3.3-13.8-3.3c2.2,2.1,6.2,4.7,11.8,5.2c9.4,0.8,16.2-2.1,16.2-2.1l0.8-1.2c0,0-3.7,0.3-7,1
							c-3.4,0.7-3.5,0.7-3.5,0.7s2.8-1.3,6.3-2.5c3.5-1.2,4.2-2,4.2-2s-10.5-2.6-14.1-3.7c-3.6-1-4.3-1.7-4.3-1.7s4.2,0.9,9.9,1.7
							c5.7,0.8,7.6,0.4,7.6,0.4s-3.3-2.6-7.3-4.4c-4-1.8-8.8-3.6-8.8-3.6s9.4,1.5,13.4,3.4c4,1.9,4,1.9,4,1.9l-1-2.1
							C2026.4,85.5,2025.9,85.3,2025.1,84.8z"/>
						<path class="st3" d="M2066.6,93.3c0.5-1.4,0.9-2.7,0.9-3.6c0.2-3.1-0.3-4.3-0.3-4.3l-2.4,2.6c0,0,1.1-2.2,1.2-4.2
							c0.1-1.4-0.3-4.4-0.6-6.1c-0.5-0.6-0.8-1-0.8-1s-0.2,2-1.4,4.4c-1.3,2.4-1.8,2.2-1.8,2.2l0.6,2.8c0,0,0.5,0,1.7-1.4
							c1.2-1.4,1.3-1.9,1.3-1.9s-0.3,1.6-1.5,4.2c-1.2,2.6-1.4,2.7-1.4,2.7l0.2,3c0,0,1.2-0.8,2.7-2.5c1.5-1.6,1.6-2.8,1.6-2.8
							s-0.3,1.8-1.4,4.4c-1.2,2.5-2.8,3.6-2.8,3.6l-0.3,3.6C2062.2,98.9,2064.8,96.1,2066.6,93.3z M2061.3,75.4
							c0-2.6-0.2-6.4-1.1-8.5c-1.5-3.4-3.5-4.2-3.5-4.2s0.8,3.6,0.7,6.4c-0.1,2.8-0.3,3.7-0.3,3.7s-0.4-4-2-7.1
							c-1.6-3.1-5.5-5-5.5-5s1.2,2.3,1.9,4.4c0.8,2.2,0.8,3.5,0.8,3.5s-1.8-3.3-4.3-5.8c-2.5-2.4-5.8-3.3-5.8-3.3l2.8,4.8
							c0,0-2.8-2.2-4.9-3.6c-2-1.4-5.4-3.4-5.4-3.4l0,0c1.3,1.7,2.5,3.4,3.3,4.7c3.2,5.3,6.1,11,6.1,11s-0.3-3.4-1.9-6.8
							c-1.6-3.4-1.8-4.1-1.8-4.1s3.7,2.6,6.3,6.6c2.6,4.1,4,10.2,4,10.2s0.6-3.5-1.1-8.6c-1.8-5.1-3.7-7.5-3.7-7.5s2.8,1.3,5,6.7
							c2.2,5.4,2.4,9.5,2.4,9.5s1.4-4.1,1-7.9c-0.5-3.8-1-5.5-1-5.5s1.7,1.8,2.4,6.2c0.7,4.4-0.4,8.3-0.4,8.3s3.2-5.7,3.4-9.4
							c0.2-3.7-0.4-6.2-0.4-6.2s1.3,3.3,1.3,8.3c0,3-0.2,5.1-0.4,6.4c-0.1,0.8-0.2,1.2-0.2,1.2S2060.3,78.4,2061.3,75.4z
							 M2041.5,71.3c0,0-8.5-9.4-11.3-11.4c-2.8-2.1-6.7-3.6-6.7-3.6s1.8,1.8,3.1,3.6c1.3,1.8,2.3,3.4,2.3,3.4l-3.6-2l1.3,3.8
							c0,0-1.5-2.1-4-4.9c-2.5-2.8-5.8-4.1-5.8-4.1l0,0c2.6,1.8,5.4,4.3,7.8,8.1c3.4,5.5,5.9,11.6,5.9,11.6s-0.5-7-1.5-8.8
							c-1-1.8-1.9-3-1.9-3s2.8,1.4,4.7,3.8c2,2.4,3.2,4.2,3.2,4.2s-2.3-6-4.8-9.2c-2.5-3.2-3.4-4.2-3.4-4.2s4.4,3.1,8.8,7.5
							C2040,70.2,2041.5,71.3,2041.5,71.3z"/>
						<path class="st4" d="M2037.1,112c0,0-2.2-1.9-7.2-0.8c-5,1.2-7,5.6-10.3,8.6c-3.3,3-5.6,3.2-5.6,3.2s1,0.1,2.7,0
							c1-0.3,2.1-0.8,3.2-1.5c4-2.4,6.6-7.4,11.1-8.9s7.6,0.5,7.6,0.5L2037.1,112z M2018.3,105.5L2018.3,105.5c0,0-0.3,0.2-0.9,1
							c-1.5,1.9-2.1,3.6-2.1,3.6c-1.7,3.8-2.7,6.1-2.7,6.1l0,0c-0.8,1.2-1,2.3-1,2.3s0.7-7.3,4.2-12.2c3.5-4.9,8.9-6.2,8.9-6.2
							l0.8,0.9c0,0-2,0.9-5.6,3.2C2019.4,104.6,2018.8,105,2018.3,105.5z"/>
						<path class="st4" d="M1975.1,77.2c0,0,13.2-2.5,25.1-0.7c11.9,1.9,27.1,11.1,27.1,11.1l0,0l-1-2.1c0,0-17-9.9-27.9-11.3
							C1987.5,72.9,1975.1,77.2,1975.1,77.2z M1985.9,70.1c2.8-1.1,8.9-2.9,16.5-1.7c10.6,1.7,19.1,5.1,19.1,5.1h0l0,0
							c-0.1,0-0.8-0.5-2-1.2c-0.9-0.5-2-1.1-3.2-1.6c-4-1.8-14.5-4.6-21.4-4.5c-6.9,0.1-14.1,4-14.1,4S1982.8,70,1985.9,70.1z
							 M2002,64.5c0,0,9.2-5.3,12.3-4.6c3.1,0.8,7.2,3.4,7.3,3.4c-2.8-3-6.6-5.7-8.7-5.4C2010.1,58.3,2002,64.5,2002,64.5z
							 M2010.6,52.6c3.2,0.1,9.8,0.5,14.1,2.9c5.8,3.2,12.7,10.7,12.7,10.8c-3.5-4.2-8.7-9.9-12.7-12.4c-6.7-4.2-18.5-3-18.5-3
							S2008.2,51.6,2010.6,52.6z M2027.8,49.2c0,0,4.2,0.3,8.8,3.5c4.6,3.2,8.2,6.1,8.2,6.1l0,0l0,0c0,0,0-0.1-0.1-0.2
							c-0.5-0.8-2.1-3.2-5.5-6.2c-4.1-3.5-11.3-5.7-11.3-5.7c-1.6-0.3-2.5-0.4-2.5-0.4S2026.3,47.4,2027.8,49.2z M2041.8,52.4
							c3.9,2.1,9.5,5.2,11.7,6.4l3.5,1.9c0,0-5.2-4.1-11-8.2c-2.4-1.7-6.2-3-10-4.1C2036,48.5,2040,49.8,2041.8,52.4z"/>
						<path class="st5" d="M2067.7,135.2c0,0,10.2,9,14.9,17.6c4.6,8.7-0.5,26.6-0.5,26.6s-3.8,1.4-10.9-7c-7.1-8.5-9-15.9-9-15.9
							s1.2,10.8,7.5,18.3c6.2,7.5,12.7,10,12.7,10s1.8,7.5-0.5,14.2c-2.2,6.7-6.1,11.4-5.6,14.3c0.5,2.9-10.6,10.1-10.6,10.1
							l9.1-1.6c0,0-1.3,4.6-5.8,6.9s-22.6,3.8-28.3,2.4c-5.8-1.4-7.5-1.4-7.5-1.4l-0.2-10.1c0,0,5.6-0.6,12-6.1
							c6.4-5.4,8.2-10.2,8.2-10.2s3-1,9.9,1.4c6.8,2.4,7,10.4,7,10.4s1-5.1-1.8-8.8c-2.8-3.7-13.7-6.2-13.7-6.2s-1.4,0.8,0.8-9.6
							c1-5,2-10,2.8-13.8c0,0,1.8-5.8,1.9-9.2c0.1-3.4-3.2-9.4-3.2-9.4s2.4,8.4,0,11c-2.4,2.6-12.6,7.7-12.6,7.7l0,0
							c-1,0.4-2.1,0.7-3.2,1c-9.9,2.9-19.1-1.6-25.3-5.3c-6.2-3.7-7.6-7.4-7.6-7.4s6.1,1,26.2-6c20.1-7,26.8-18.4,28.3-21.6
							c1.5-3.2,1.9-4.2,1.9-4.2L2067.7,135.2z"/>
						<path class="st6" d="M2064.1,164.2c1.1,3.4,2.9,7.3,5.6,10.6c6.2,7.5,12.7,10,12.7,10s1.8,7.5-0.5,14.2
							c-2.2,6.7-6.1,11.4-5.6,14.3c0.5,2.9-10.6,10.1-10.6,10.1l9.1-1.6c0,0-1.3,4.6-5.8,6.9s-22.6,3.8-28.3,2.4
							c-5.8-1.4-7.5-1.4-7.5-1.4l-0.1-3.8c3.6,0.9,9.5,2,16.5,2.1c11.5,0.2,15.2-2.7,15.2-2.7l-4.8-1.4c0,0,5.9-2.6,8.8-5.8
							c2.9-3.2,6.6-8.5,8.2-15.2c1.6-6.7,2.6-16.2,2.6-16.2s-4.8-2.1-9.3-7.4C2065.9,174,2064.1,164.2,2064.1,164.2L2064.1,164.2z
							 M2009.2,166.8c-0.7-1-0.9-1.6-0.9-1.6s3.1,0.5,12.2-1.8l0.2,0l0.4-0.1l0.2-0.1l0.4-0.1l0.2-0.1l0.1,0l0.3-0.1l0.2-0.1
							c0.1,0,0.3-0.1,0.4-0.1l0.2-0.1l0.4-0.1l0.3-0.1l0.4-0.1l0.3-0.1l0.1,0l0.4-0.1l0.3-0.1c0.2,0,0.3-0.1,0.5-0.1l0.2-0.1
							c2.5-0.7,5.2-1.6,8.3-2.7c20.1-7,26.8-18.4,28.3-21.6c1.4-2.9,1.8-4,1.9-4.2l1.5,0.9c-6.4,16.5-20.1,26.1-35.9,30.2l6.7,11.2
							c0,0,11.3-2.7,15.4-6.7c4.1-4,4.5-10.8,4.5-10.8s0.2,0.8,0.5,2c0.6,2.6,1.2,7.2-0.5,9c-2.4,2.6-12.6,7.7-12.6,7.7l0,0
							c-1,0.4-2.1,0.7-3.2,1c-7.5,2.2-14.6,0.1-20.3-2.6l-0.5-8.9C2016.6,166.7,2012.9,166.8,2009.2,166.8z M2070.2,212.4
							c-0.1-1.8-0.5-4.2-2-6.1c-2.8-3.7-13.7-6.2-13.7-6.2s-0.6,0.3-0.4-2.4c3.7,0.6,9.4,1.9,12.6,4.4
							C2070.3,204.7,2070.5,209.7,2070.2,212.4z"/>
						<path class="st4" d="M2067.7,135.2c0,0,10.2,9,14.9,17.6c3.5,6.6,1.4,18.6,0.2,23.9c0-0.1,1.5-9.2-2-21
							c-2.8-9.7-14-16-18.1-18l0.1-0.1c1.5-3.2,1.9-4.2,1.9-4.2L2067.7,135.2z"/>
						<path class="st5" d="M1957.8,47.1l2.5,1.8c0,0-2.6,0.6-6.7,5.8c-4.1,5.2-5.9,9.1-5.9,9.1s1.9-3.9,6-7.5
							c4.1-3.6,5.8-4.6,5.8-4.6s-5.8,8.7-8.6,13.9c-2.9,5.1-1.4,4.4-7.7,7.7c-6.2,3.3-9.6,2.6-9.6,2.6s-0.6,2.5,7.8-0.1
							c8.4-2.6,10.1-4.6,10.1-4.6s10.9,2.3,15.2,6.2c4.3,3.8,3.8,7,7.8,13c4,5.9,9.3,7.3,9.3,7.3s-4.1-2.6-7.5-7.9
							c-3.4-5.3-3.9-9.3-3.9-9.3s11.5,9.1,19.2,15.3c2.7,2.1,4.9,3.8,6.1,4.7c4.6,3.5,11.2,4.5,11.2,4.5l2.7,0.5
							c0,0-5.7,4.6-4.9,14.7s4.3,16.2,4.3,22.1c0,5.9-3.6,10.6-7.4,14.6c-3.8,3.9-6.7,4.4-7.8,4.4c-1.1,0-15.1-3.5-19-17.1
							c-3.8-13.6-0.3-30.4-0.3-30.4s-1.9,3.8-3,9.4c-1.1,5.6-1.1,5.9-1.1,5.9s-2.7-15.7-2.7-23c0-7.4,1.3-11.7,1.3-11.7l-2.9,5
							c0,0-6.6-4.2-11.8-5.6s-6.4-1.1-10.7-4.5c-4.3-3.4-6.1-6.1-6.1-6.1s1.6,6.9,11.2,11.4c9.6,4.5,11.3,5.8,13.8,7.8
							c2.6,2,4.9,11.9,4.9,11.9s-2.6,1.6-9-1.4c-6.4-3-10-11.4-13.5-13.4c-3.4-2-13.2-8.3-18.8-13.3c-5.6-5-7.5-13-7.5-13
							s3.5,0.3,9.3-9.4c5.8-9.8,23-19.4,23-19.4L1957.8,47.1z"/>
						<path class="st6" d="M1957.8,47.1l2.5,1.8c0,0-2.6,0.6-6.7,5.8c-4.1,5.2-5.9,9.1-5.9,9.1s1.9-3.9,6-7.5
							c4.1-3.6,5.8-4.6,5.8-4.6s-5.8,8.7-8.6,13.9c-2.9,5.1-1.4,4.4-7.7,7.7c-6.2,3.3-9.6,2.6-9.6,2.6s-0.1,0.4,0.3,0.7
							c-2.8,0.2-4.4-0.1-4.4-0.1s1.2-0.1,5-1.4c3.8-1.3,9.8-3.8,11.9-5.4c2.1-1.5,4-7,4-7l-5.4,4.2c0,0,0.6-3.5,2.5-7.6
							c1.9-4.1,7.6-9.8,7.6-9.8l-13.7,2.2l0,0l14.2-5.8L1957.8,47.1z"/>
						<path class="st6" d="M1974.1,86.2c-1.6-3.4-1.9-5.7-1.9-5.7s11.5,9.1,19.2,15.3c2.7,2.1,4.9,3.8,6.1,4.7
							c4.6,3.5,11.2,4.5,11.2,4.5l2.7,0.5c0,0-5.7,4.6-4.9,14.7c0.6,7.4,2.6,12.6,3.7,17.2l-26.8,13.1c0,0-1.1-9.1-0.3-14.7
							c0.8-5.6,3.7-16.7,3.7-16.7s-0.5-1.9-1.8-7.8c-1.3-5.9-0.2-16.7-0.2-16.7L1974.1,86.2z M1974.9,117.1
							c-0.2,0.7-0.5,1.4-0.7,2.2l0,0v0c-0.2,0.8-0.5,1.7-0.7,2.7l-1.5,6c-0.6-3.7-2.5-15.8-2.5-21.9c0-7.4,1.3-11.7,1.3-11.7l-2.9,5
							c0,0-6.6-4.2-11.8-5.6s-6.4-1.1-10.7-4.5c-4.3-3.4-6.1-6.1-6.1-6.1s1.6,6.9,11.2,11.4c9.6,4.5,11.3,5.8,13.8,7.8
							c2.6,2,4.9,11.9,4.9,11.9s-2.6,1.6-9-1.4c-6.4-3-10-11.4-13.5-13.4c-3.4-2-13.2-8.3-18.8-13.3c-5.6-5-7.5-13-7.5-13
							s5.1,8,9.6,11.1c4.5,3,13.4,10.6,16.2,11.8s10.6,11.4,13.6,13c3,1.5,4.1-1.8,2.4-3.9c-1.7-2.1-12.5-7.8-18.1-12.6
							c-5.6-4.8-6.8-13.4-6.8-13.4s4.6,6,9.8,8.6c5.2,2.6,13.2,3.9,16.3,5.2c3,1.3,4,1.9,4,1.9l4.6-2.1c0,0-0.1,10.2,0.2,15.2
							c0.3,5,0.7,7.3,0.7,7.3l4.7-6.3L1974.9,117.1z"/>
						<path class="st4" d="M1999.9,159.7c-2,1.3-3.6,1.5-4.3,1.5c-1.1,0-15.1-3.5-19-17.1c-3-10.7-1.5-23.5-0.7-28.4
							c-0.7,4.8-1.6,17.3,5.2,28.9C1989.9,159.3,1999.9,159.7,1999.9,159.7z"/>
						<path class="st4" d="M1948,73.4c2.7-1.3,3.4-2.1,3.4-2.1s10.9,2.3,15.2,6.2c4.3,3.8,3.8,7,7.8,13c3,4.4,6.6,6.3,8.3,6.9l0,0
							c0,0-4.5-0.3-8.8-4.9c-4.3-4.6-5.3-9.2-10-13.1C1960,76.2,1951.3,74.1,1948,73.4z"/>
						<path class="st5" d="M1990.4,174.5c-0.2,0.5-2.4,3.7-1.5,7.5c0.9,3.8,10.1,7,12.9,7.5s6.6-2.2,7-4c0.3-1.8-0.4-6.6-0.6-8.2
							c-0.2-1.7-2.1-4.6-4-5.3c-1.9-0.6-3.4-2.6-9.1-5.8c-5.8-3.2-15.2-10.1-15.2-10.1s0.2,1.4,6.6,6.9c6.4,5.5,9.6,7.4,9.6,7.4
							s-1.4-0.6-7.5-3.8c-6.2-3.2-8.7-5-8.7-5s4,6.2,8.7,8.9c4.6,2.7,8.2,4.2,8.2,4.2L1990.4,174.5z"/>
						<path class="st5" d="M2010.8,175.4c0,0,0,3.1,0.2,7.5c0.2,4.4-1,5.8-0.8,6.5c0.2,0.7,10.4,4.8,12.9,4.1
							c2.5-0.7,2.9-5.3,2.2-6.5c-0.6-1.2-3-4.3-6.9-7.4c-3.9-3.1-5.1-4.2-6-4.4C2011.6,174.9,2010.8,175.4,2010.8,175.4z"/>
						<path class="st5" d="M2008.8,193.6c0,0,5.5-1.1,8.7,0.1c3.1,1.2,6,3.9,6.2,7c0.2,3.1,0.4,6.7-1.3,7.2
							c-1.7,0.5-13.1-2.6-13.9-4.8C2007.6,201,2008.8,193.6,2008.8,193.6z"/>
						<path class="st5" d="M1991.7,191c0,0,8.2-1.3,10.6,0.1c2.5,1.4,4.4,5.1,4.6,7.9c0.2,2.8-1.1,5.7-2.2,6.5
							c-1,0.8-3.4,0.5-6.4,0.3c-3-0.2-6.6-1.3-8.6-3.4c-2-2.1-1.4-4-0.8-6.8C1989.6,192.8,1991.7,191,1991.7,191z"/>
						<path class="st5" d="M1954.7,39.3c0,0,3.9-2.7,4.6-3.8c0.6-1,1-2.3,1.8-2.4c0.9-0.1,3.4-0.3,3.4-0.3s-0.2-2.2,1.9-2.7
							c2.2-0.5,4.7,0.4,4.7,0.4s-0.1-2.1,2.2-2.1c2.3,0,3.5,1.3,3.5,1.3s3.8-1.5,4.6-1c0.8,0.5,2.3,9.8,2.4,11.8
							c0.1,2-0.4,3-1.6,3.6c-1.2,0.6-3.1,0.1-3.1,0.1s1.4-1.6,1.4-2.4c0-0.9-1.4-10-2.3-9.9c-0.9,0.1,0.8,9.9,0.8,9.9
							s-2,3.1-2.8,3.7c-0.8,0.6-3.6,0.6-3.6,0.6s1.2-2.7,1.2-3.1c0-0.4-1.5-9.3-2.3-9.3c-0.8,0-0.6,2.6-0.1,5.1
							c0.6,2.4,0.9,4.6,0.9,4.6s-0.5,2.5-1.2,3c-0.7,0.6-4.4,0.8-4.7,0.3c-0.3-0.5-0.1-4.6-0.4-6c-0.3-1.4-1.4-3-1.5-3.3
							c-0.1-0.3-1,0.6-0.8,1c0.2,0.5,1.1,3.2,1.5,4.5c0.4,1.3,0.5,3.7,0.1,4.2c-0.4,0.5-2.1,0.9-3.2,0.9c-1,0-3.5-1.8-3.5-1.8
							l2.2-0.8c0,0-1.8-3.9-2.4-4.4c-0.6-0.5-4.9-0.2-4.9-0.2L1954.7,39.3z"/>
						<path class="st6" d="M1984,40.9c0,1.7-0.5,2.6-1.6,3.2c-1.2,0.6-3.1,0.1-3.1,0.1s1.4-1.6,1.4-2.4c0-0.1,0-0.2,0-0.4L1984,40.9
							z M1979,41.5l0,0.2c0,0-2,3.1-2.8,3.7c-0.8,0.6-3.6,0.6-3.6,0.6s1.2-2.7,1.2-3.1c0-0.1,0-0.3-0.1-0.7L1979,41.5z M1972.2,42.4
							c0.1,0.5,0.1,0.8,0.1,0.8s-0.5,2.5-1.2,3c-0.7,0.6-4.4,0.8-4.7,0.3c-0.2-0.3-0.2-1.9-0.2-3.4L1972.2,42.4z M1965.4,43.3
							c0.3,1.3,0.3,3.3,0,3.7c-0.4,0.5-2.1,0.9-3.2,0.9c-1,0-3.5-1.8-3.5-1.8l2.2-0.8c0,0-0.2-0.5-0.6-1.2l0.3-0.1L1965.4,43.3z"/>
						<path class="st4" d="M1954.7,39.3c0,0,3.9-2.7,4.6-3.8c0.6-1,1-2.3,1.8-2.4c0.9-0.1,3.4-0.3,3.4-0.3s-0.2-2.2,1.9-2.7
							c2.2-0.5,4.7,0.4,4.7,0.4s-0.1-2.1,2.2-2.1c2.3,0,3.5,1.3,3.5,1.3s3.8-1.5,4.6-1c0.2,0.1,0.4,0.7,0.7,1.6
							c-0.2,0.1-0.4,0.2-0.6,0.3c-1.1,0.1-4.6,1.2-4.6,1.2s-1.5-1.4-2.6-1.3c-1.1,0-1.4,2-1.4,2s-3.9-0.6-5.1,0.2
							c-1.2,0.8-0.1,1.6-1.5,2.4c-1.4,0.8-4.4,0.1-4.4,0.1s0,0.8-1,2.4c-1,1.6-4.5,3.1-4.5,3.1l-2.5-0.4L1954.7,39.3z"/>
						<path class="st6" d="M1979,45.8c0,0-1.2,4.4-1.9,4.5c-0.7,0.2-7.8,1.4-8.9,0.9c-1.2-0.5-0.8-2.8-0.8-2.8s7.3-1.2,9-1.6
							C1978.1,46.4,1979,45.8,1979,45.8z"/>
						<polygon class="st0" points="1909.3,60.1 1856,79.8 1854.6,76.4 1944.4,36.5 1932.4,48.3 1952.4,39.4 1959,40.4 1961.3,45.3 
							1891.4,74.6 						"/>
						<polygon class="st4" points="1952.6,41.3 1957.8,42.1 1958.8,44.4 1902.5,68 1919,54.5 1857,77.4 1935.8,42.3 1923.8,54.1 
													"/>
						<path class="st0" d="M2021.6,160.4l3.5,0l1.5,3.5c1.2,2.9,2.5,5.7,3.8,8.5c0.7,1.5,1.5,3.1,2.3,4.5c2.8,5,5.6,9.9,8.5,14.8
							l0.3,0.5l-6,22.9l-1.9,0.8c-2.4,0.9,2.8,0.2,0.3,0.5c-7.6,0.9-15.6,0.2-23-1.1c-13.5-2.4-27.1-4.8-40.6-7.3l-1.7-0.3l-6.4-26
							l2-1c0.2-0.1,0.4-0.2,0.6-0.3l0.1,0l17.3-7.1l-2.2,0.2l0.5-3.5c1.5-9.7,2.9-19.3,4.3-29c0.5-3.3,1-6.7,1.5-10
							c0.2-1,0.3-2.1,0.5-3.1c0.1-0.6,0.2-1.3,0.4-1.9l1.9-5.3c-0.1-0.5-0.2-1.1-0.3-1.6c-0.2-1-0.3-1.9-0.4-2.9
							c-0.6-5.1-0.7-10.4-0.6-15.6c0.1-2.4,0.2-4.9,0.5-7.2l0.6-5.9c3.5,3.7,6.5,7.1,10.9,10c1.4,1,3.2,1.8,4.7,2.4
							c2.5,1.1,5.2,2.1,7.8,3l3.1,1l-1.4,2.9c-1.9,3.8-3.7,9.5-3.7,13.7c0,2,0.5,4.2,0.9,6.2c0.6,2.6,1.3,5.2,1.9,7.7
							c0.8,3.9,1.4,8.1,0.8,12.1c-0.5,3.4-2.4,6.6-4.4,9.3c-1.5,2-3.4,4-5.4,5.9c1.7,0.1,3.4,0.1,5.1,0c3.6-0.2,7.5-0.4,11-1
							L2021.6,160.4z"/>
						<path class="st1" d="M1990.9,93.6c0,0-1.4,13.3,0.5,25c1.9,11.7,9.3,22.9,9.3,22.9s-4.8-3-7.5-6.9c-2.7-3.8-3.5-7.7-3.5-7.7
							c-0.6,1.6-3.3,22.7-6.6,43.6l16.4-1.3l-33.7,13.8l0,0c-0.4,0.2-0.6,0.3-0.6,0.3l5.4,22.1c0,0,20.7,3.9,40.6,7.3
							c19.9,3.5,20.9-1,20.9-1l6.7-18.5c0,0-6.7-11.7-8.5-14.8c-1.7-3.1-1.5-2.9-2.3-4.5l-4.4-10.8l-3.1,0.3c0,0-4.3,0.7-11.4,1.1
							c-7,0.3-11.7-1-11.7-1s12.2-9,13.5-17.4c1.4-8.5-3.6-18.7-3.6-25.6c0-7,4-15,4-15s-3.4-1.1-7-2.6c-3.7,8.1-1.4,20.3,1.3,28.1
							c-4.7-12-5.9-17.8-5-29.8c-0.9-0.5-1.8-1-2.5-1.5C1994.1,96.9,1990.9,93.6,1990.9,93.6z"/>
						<path class="st3" d="M1990.9,93.6c0,0-0.2,1.6-0.3,4.2l6.2,5.1c0,0-0.6,6.4,3.7,17.5s5.2,11.8,5.2,11.8l-0.1-1.3
							c-4.7-11.9-5.9-17.7-4.9-29.6c-0.9-0.5-1.8-1-2.5-1.5C1994.1,96.9,1990.9,93.6,1990.9,93.6z M2024.7,165.6l-1.1-2.6l-3.1,0.3
							c0,0-4.3,0.7-11.4,1.1c-7,0.3-11.7-1-11.7-1s12.2-9,13.5-17.4c1.4-8.5-3.6-18.7-3.6-25.6c0-7,4-15,4-15s-3.4-1.1-7-2.6
							c-3.7,8.1-1.4,20.1,1.3,27.9l-2-21.2l2,0.2c-0.2,3.2-0.6,10.1,0.1,14.1c1,5.5,1.1,7.9,2.2,13.4c1.2,5.4,0.8,8.6,0.8,8.7
							c-0.2,1.3-0.5,2.6-0.9,3.7c-2.1,6.2-15.5,15.2-15.5,15.2s7,1.6,15.8,2C2013.7,166.9,2019.3,166.6,2024.7,165.6z"/>
						<path class="st4" d="M1990.9,93.6c0,0-1.4,13.3,0.5,25c1.9,11.7,9.3,22.9,9.3,22.9s-4.1-9.9-6.5-20.4
							c-2.4-10.6-0.8-25.1-0.8-25.1C1991.9,94.6,1990.9,93.6,1990.9,93.6z M1991.5,131.7c-1.3-2.7-1.8-4.8-1.8-4.8
							c-0.6,1.6-3.3,22.7-6.6,43.6l3.4-0.3L1991.5,131.7z"/>
						<path class="st4" d="M2039.6,101.1l-11.7-11l0.3,3.3l-15.8-10.8l17.7,14l-0.4-3.7c0,0,6.9,9.1,8.1,9.4
							c1.2,0.4,3.3-0.3,3.3-0.3L2039.6,101.1z"/>
						<path class="st4" d="M2051,104.8l9.9-3.7l-0.4,1.3l9-4.3l-10.6,6.7l0.3-1.6c0,0-5.2,2.7-6.3,2.7S2051,104.8,2051,104.8z"/>
						<g>
							<g>
								<g>
									<polygon class="st1" points="2018.6,189.9 1969.2,189.9 1953,189.9 1937.7,281.2 1995.7,281.2 1999.2,260.2 1967.7,260.2 
										1970.4,244 2000.5,244 2003.8,224.2 1973.7,224.2 1975.9,210.9 2013.2,210.9 1998.4,300.8 2032.3,251.4 2016,250.4 
										2038.3,211 2039.7,211 2039.8,210.9 2069.2,210.9 2072.7,189.9 									"/>
									<path class="st0" d="M2072.7,189.9l-3.5,21h-29.5l0,0.1h-1.5l-22.3,39.4l16.3,1l-33.9,49.4l14.9-89.9h-37.3l-2.2,13.3h30.1
										l-3.3,19.8h-30l-2.7,16.2h31.5l-3.5,21h-57.9l15.3-91.3h16.2h49.4H2072.7 M2078.4,185.1h-5.7h-54.1h-49.4H1953h-4.1l-0.7,4
										l-15.3,91.3l-0.9,5.6h5.7h57.9h0.3l-2.3,14l-3.5,21.3l12.2-17.8l33.9-49.4l4.8-7l-8.5-0.5l-8.6-0.5l17.1-30.3h2.8l0-0.1
										h25.4h4.1l0.7-4l3.5-21L2078.4,185.1L2078.4,185.1z M1980,215.7h27.6l-0.6,3.7h-3.2h-24.4L1980,215.7L1980,215.7z
										 M1974.5,248.8h26h1.6l-1.1,6.6h-1.8h-25.8L1974.5,248.8L1974.5,248.8z"/>
								</g>
								<g>
									<polygon class="st6" points="2060.8,239.5 2077.5,217.5 2059.6,217.5 2042.9,217.5 2026.8,246.1 2043,246.8 2012.1,291.8 
										2032.7,275.4 2077.7,239.5 									"/>
									<path class="st0" d="M2077.5,217.5l-16.7,22h17l-45.1,36l-20.6,16.4l30.8-45l-16.2-0.7l16.1-28.6h16.8H2077.5
										 M2087.2,212.7h-9.7h-17.8h-16.8h-2.8l-1.4,2.4l-16.1,28.6l-3.8,6.8l7.8,0.4l7.6,0.3l-26,37.9l-13.7,23l20.7-16.5
										l20.6-16.4l45.1-36l10.7-8.6h-13.7h-7.3l10.8-14.3L2087.2,212.7L2087.2,212.7z"/>
								</g>
							</g>
							<polygon class="st4" points="2060.8,239.5 2077.5,217.5 2059.6,217.5 2044.9,242.9 2057.8,242.9 2032.7,275.4 2077.7,239.5 
															"/>
						</g>
					</g>
				</g>
				<path class="st4" d="M2076.2,138.7c1.9-0.3,4.2-0.6,5.9-0.7c3.6-0.2,5.4,0.4,5.4,0.4l-5.8,11.2l4.2,0c0,0-5.7,8.9-15.5,14.7
					c-9.8,5.8-35.4,11.8-35.4,11.8s21.1-2.7,37.1-10.7c16-8,21.1-19.1,21.1-19.1l-4.4,0.7l6.4-11.1c0,0-7.5-1.7-12.9-1.4
					s-6.6,0.5-9,0.8L2076.2,138.7z"/>
				<path class="st4" d="M2062.2,54.8c1.9-0.3,4.2-0.6,5.9-0.7c3.6-0.2,5.4,0.4,5.4,0.4l-5.8,11.2l4.2-0.1c0,0-5.7,8.9-15.5,14.7
					c-9.8,5.8-35.4,11.8-35.4,11.8s21.1-2.7,37.1-10.7c16-8,21.1-19.1,21.1-19.1l-4.4,0.7l6.4-11.1c0,0-7.5-1.7-12.9-1.4
					c-5.4,0.3-6.6,0.5-9,0.8L2062.2,54.8z"/>
				<path class="st4" d="M1943.5,134.5c4.5-8,14-23.6,21.7-28.4l-0.8,3.8c10-6.2,22.3-7.1,30.5-12.9c4-2.8,4-2.9,4-2.9
					s-1.1,2.9-7.3,6.7c-11.8,7.2-21.1,5.3-30.6,17.6l1.2-6.7c-5,6.1-9,12.9-12.1,20.1l14.5,4.6c0,0,0,0,0,1.6c0,1.6,0.3,6.2,0.3,6.2
					L1943.5,134.5z"/>
				<path class="st4" d="M1954.8,30.3c-7.9-10.6,10.5-7.9,16.3-22.7c0,0-0.6,3.6-1.3,5.7c-0.8,2.2-2.1,4.7-2.1,4.7
					c9.1-3.9,26.6-17.9,9.4-21.7c18.3,1.9,6.5,14.5-3.5,20.7c-5.8,3.6-10.4,6.4-10.4,6.4l2.5-4.1c-1.5,1.5-10.1,5.9-7.4,8L1955,30
					L1954.8,30.3z"/>
				<g>
					
						<rect x="1968.1" y="217.6" transform="matrix(0.1634 -0.9866 0.9866 0.1634 1437.4528 2130.2617)" class="st1" width="13.5" height="0"/>
					<polygon class="st1" points="2024.1,250.9 2016,250.4 2016,250.4 					"/>
					<polygon class="st1" points="2003.8,224.2 2003.8,224.2 2000.5,244 					"/>
					<rect x="1985.4" y="276.1" class="st1" width="59.9" height="0"/>
					<polygon class="st1" points="1953,189.9 1953,189.9 1945.3,235.5 					"/>
					<polygon class="st1" points="2038.3,211 2021.9,239.9 2038.3,211 2039.7,211 2039.8,210.9 2039.7,211 					"/>
					<polygon class="st1" points="1969.2,251.5 1970.4,244 1970.4,244 					"/>
					<rect x="1967.7" y="260.2" class="st1" width="31.5" height="0"/>
				</g>
				<g>
					<polygon class="st2" points="1968.1,243.6 1968.4,241.7 1970.4,241.7 1998.5,241.7 1999.6,234.9 1947.8,234.9 1940.5,278.8 
						1993.7,278.8 1996.4,262.6 1967.7,262.6 1965,262.6 1965.4,259.8 					"/>
					<polygon class="st2" points="2012.1,252.5 2013.9,249.2 2022,234.9 2011.7,234.9 2002.4,290.7 2028,253.5 2015.9,252.8 					
						"/>
				</g>
			</g>
		</g>
	</g>
	<g>
		<g>
			<g>
				<path class="st0" d="M1817.8,288.2c-6.7,0-13.3-2.5-18.4-7.6c-10.1-10.1-10.1-26.7,0-36.8c10.1-10.1,26.7-10.1,36.8,0
					c10.1,10.1,10.1,26.7,0,36.8C1831.1,285.6,1824.4,288.2,1817.8,288.2z M1817.8,239.5c-5.8,0-11.6,2.2-16,6.6
					c-8.8,8.8-8.8,23.2,0,32.1c8.8,8.8,23.2,8.8,32.1,0c8.8-8.8,8.8-23.2,0-32.1C1829.4,241.7,1823.6,239.5,1817.8,239.5z"/>
			</g>
			<g>
				<path class="st0" d="M1830.9,258.3c2-2.6,1.9-6.4-0.5-8.8c-2.4-2.5-6.2-2.6-8.8-0.6l-0.6-0.6c-0.3-0.3-0.9-0.3-1.2,0l-3.6,3.5
					c-0.3,0.3-0.3,0.9,0,1.2l0.6,0.6l-6.9,6.9l-0.6-0.6c-0.3-0.3-0.9-0.3-1.2,0l-3.6,3.5c-0.3,0.3-0.3,0.9,0,1.2l0.6,0.6
					c-2,2.6-1.9,6.4,0.5,8.8c2.4,2.4,6.2,2.6,8.8,0.6l0.6,0.6c0.3,0.3,0.9,0.3,1.2,0l3.6-3.5c0.3-0.3,0.3-0.9,0-1.2l-0.6-0.6
					l6.9-6.9l0.6,0.6c0.3,0.3,0.9,0.3,1.2,0l3.6-3.5c0.3-0.3,0.3-0.9,0-1.2L1830.9,258.3z M1820.3,250l1.2,1.2l-2.4,2.4l-1.2-1.2
					L1820.3,250z M1808.7,261.6l1.2,1.2l-2.4,2.4l-1.2-1.2L1808.7,261.6z M1812.8,272.9l0.5,0.5c-1.9,1.4-4.7,1.2-6.4-0.6
					c-1.8-1.8-1.9-4.5-0.5-6.5c0.4,0.4,0.6,0.8,1.1,0.8c0.2,0,0.4-0.1,0.6-0.2l1.2-1.2l4.7,4.7l-1.2,1.2
					C1812.4,272,1812.4,272.5,1812.8,272.9L1812.8,272.9z M1815.7,273.5l-1.2-1.2l2.4-2.4l1.2,1.2L1815.7,273.5z M1824.4,261.3
					l0.6,0.6l-6.9,6.9l-0.6-0.6c-0.3-0.3-0.9-0.3-1.2,0l-1.2,1.2l-4.7-4.7l1.2-1.2c0.3-0.3,0.3-0.9,0-1.2l-0.6-0.6l6.9-6.9l0.6,0.6
					c0.3,0.3,0.9,0.3,1.2,0l1.2-1.2l4.7,4.7l-1.2,1.2C1824.1,260.4,1824.1,261,1824.4,261.3z M1827.4,261.9l-1.2-1.2l2.4-2.4
					l1.2,1.2L1827.4,261.9z M1829.7,257.1l-0.5-0.5c-0.3-0.3-0.9-0.3-1.2,0l-1.2,1.2l-4.7-4.7l1.2-1.2c0.3-0.3,0.3-0.9,0-1.2
					l-0.5-0.5c1.9-1.4,4.7-1.2,6.4,0.6C1830.9,252.4,1831.1,255.2,1829.7,257.1L1829.7,257.1z"/>
			</g>
		</g>
		<g>
			<g>
				<path class="st0" d="M1877.4,288.2c-6.7,0-13.3-2.5-18.4-7.6c-10.1-10.1-10.1-26.7,0-36.8c10.2-10.2,26.7-10.1,36.8,0
					c10.1,10.1,10.1,26.7,0,36.8C1890.8,285.6,1884.1,288.2,1877.4,288.2z M1877.4,239.5c-5.8,0-11.6,2.2-16,6.6
					c-8.8,8.8-8.8,23.2,0,32.1c8.8,8.8,23.2,8.8,32.1,0c8.8-8.8,8.8-23.2,0-32.1C1889,241.7,1883.2,239.5,1877.4,239.5z"/>
			</g>
			<path class="st0" d="M1888.7,273.6c3.6,0,6.5-2.9,6.5-6.5c0-3.6-2.9-6.5-6.5-6.5c-0.5,0-1,0.1-1.5,0.2l-0.1,0l-2.8-6.7l2.5-0.8
				c0.5-0.2,0.7-0.7,0.6-1.1c-0.2-0.5-0.7-0.7-1.1-0.6l-3.4,1.2c-0.4,0.2-0.7,0.7-0.5,1.2l0.7,1.8l-9.5,2.5l-1.1-2.6h1.7
				c0.5,0,0.9-0.4,0.9-0.9s-0.4-0.9-0.9-0.9h-4.5c-0.5,0-0.9,0.4-0.9,0.9s0.4,0.9,0.9,0.9h0.9l1.5,3.5l-2.2,2.6l-0.1-0.1
				c-1-0.6-2.2-1-3.4-1c-3.6,0-6.5,2.9-6.5,6.5c0,3.6,2.9,6.5,6.5,6.5c3.2,0,5.9-2.4,6.4-5.5l0-0.1h3.7c0.3,0,0.5-0.1,0.7-0.4
				l6.9-9.5l1.4,3.4l-0.1,0.1c-1.9,1.2-3.1,3.3-3.1,5.5C1882.2,270.6,1885.1,273.6,1888.7,273.6z M1870.8,268.1
				c-0.5,2.1-2.4,3.7-4.6,3.7c-2.6,0-4.7-2.1-4.7-4.7c0-2.6,2.1-4.7,4.7-4.7c0.8,0,1.5,0.2,2.2,0.5l0.2,0.1l-3,3.5
				c-0.2,0.3-0.3,0.6-0.1,0.9c0.1,0.3,0.5,0.5,0.8,0.5h4.7L1870.8,268.1z M1868.1,266.2l4.6-5.3l2.3,5.3H1868.1z M1876.5,265.3
				l-2.4-5.5l7.9-2L1876.5,265.3z M1885.9,263.2l0.2-0.1l1.8,4.3c0.1,0.2,0.3,0.4,0.5,0.5c0.2,0.1,0.5,0.1,0.7,0
				c0.2-0.1,0.4-0.3,0.5-0.5c0.1-0.2,0.1-0.5,0-0.7l-1.8-4.3l0.2,0c0.3,0,0.5-0.1,0.8-0.1c2.6,0,4.7,2.1,4.7,4.7
				c0,2.6-2.1,4.7-4.7,4.7c-2.6,0-4.7-2.1-4.7-4.7C1883.9,265.5,1884.7,264.1,1885.9,263.2z"/>
		</g>
	</g>
	<g>
		<g>
			<g>
				<path class="st0" d="M2183.1,288.2c-6.7,0-13.3-2.5-18.4-7.6c-10.1-10.1-10.1-26.7,0-36.8c10.1-10.2,26.7-10.1,36.8,0
					c10.1,10.1,10.1,26.7,0,36.8C2196.5,285.6,2189.8,288.2,2183.1,288.2z M2183.1,239.5c-5.8,0-11.6,2.2-16,6.6
					c-8.8,8.8-8.8,23.2,0,32.1c8.8,8.8,23.2,8.8,32.1,0c8.8-8.8,8.8-23.2,0-32.1C2194.8,241.7,2189,239.5,2183.1,239.5z"/>
			</g>
			<path class="st0" d="M2188.4,262.9h2.4l0,0.2c0.1,1.3,1.3,2.3,2.6,2.3h3.5c1.5,0,2.7-1.2,2.7-2.6v-1.2c0-1.4-1.2-2.6-2.7-2.6
				h-3.5c-1.4,0-2.5,1-2.6,2.3l0,0.2h-2.4v-10.2c0-2.8-2.3-5.1-5.2-5.1s-5.2,2.3-5.2,5.1v10.2h-2.4l0-0.2c-0.1-1.3-1.3-2.3-2.6-2.3
				h-3.5c-1.5,0-2.7,1.2-2.7,2.6v1.2c0,1.4,1.2,2.6,2.7,2.6h3.5c1.4,0,2.5-1,2.6-2.3l0-0.2h2.4V273c0,2.8,2.3,5.1,5.2,5.1
				s5.2-2.3,5.2-5.1V262.9z M2192.2,261.5c0-0.6,0.5-1.2,1.2-1.2h3.5c0.7,0,1.2,0.5,1.2,1.2v1.2c0,0.6-0.5,1.2-1.2,1.2h-3.5
				c-0.7,0-1.2-0.5-1.2-1.2V261.5z M2174.1,262.8c0,0.6-0.5,1.2-1.2,1.2h-3.5c-0.7,0-1.2-0.5-1.2-1.2v-1.2c0-0.6,0.5-1.2,1.2-1.2
				h3.5c0.7,0,1.2,0.5,1.2,1.2V262.8z M2186.9,251.9l-2.3,1.7c-0.3,0.2-0.4,0.7-0.1,1c0.2,0.3,0.7,0.4,1,0.1l1.4-1v2l-2.3,1.7
				c-0.2,0.1-0.3,0.3-0.3,0.5c0,0.2,0,0.4,0.1,0.5c0.2,0.3,0.7,0.4,1,0.1l1.4-1v2l-2.3,1.7c-0.3,0.2-0.4,0.7-0.1,1
				c0.2,0.3,0.7,0.4,1,0.1l1.4-1v2l-2.3,1.7c-0.3,0.2-0.4,0.7-0.1,1c0.2,0.3,0.7,0.4,1,0.1l1.4-1v2l-2.3,1.7c-0.3,0.2-0.4,0.7-0.1,1
				c0.2,0.3,0.7,0.4,1,0.1l1.4-1v2l-2.3,1.7c-0.3,0.2-0.4,0.7-0.1,1c0.2,0.3,0.7,0.4,1,0.1l1.4-1v0.8c0,2-1.7,3.6-3.8,3.6
				s-3.8-1.6-3.8-3.6v-0.8l1.4,1c0.3,0.2,0.8,0.2,1-0.1c0.2-0.3,0.2-0.8-0.1-1l-2.3-1.7v-2l1.4,1c0.3,0.2,0.8,0.2,1-0.1
				c0.2-0.3,0.2-0.8-0.1-1l-2.3-1.7v-2l1.4,1c0.3,0.2,0.8,0.2,1-0.1c0.2-0.3,0.2-0.8-0.1-1l-2.3-1.7v-2l1.4,1c0.3,0.2,0.8,0.2,1-0.1
				c0.2-0.3,0.2-0.8-0.1-1l-2.3-1.7v-2l1.4,1c0.3,0.2,0.8,0.2,1-0.1c0.1-0.2,0.2-0.3,0.1-0.5c0-0.2-0.1-0.4-0.3-0.5l-2.3-1.7v-2
				l1.4,1c0.3,0.2,0.8,0.2,1-0.1c0.2-0.3,0.2-0.8-0.1-1l-2.3-1.7v-0.6c0-2,1.7-3.6,3.8-3.6s3.8,1.6,3.8,3.6V251.9z"/>
		</g>
		<g>
			<g>
				<path class="st0" d="M2123.5,288.2c-6.7,0-13.3-2.5-18.4-7.6c-10.1-10.1-10.1-26.7,0-36.8c10.1-10.2,26.7-10.1,36.8,0
					c10.1,10.1,10.1,26.7,0,36.8C2136.8,285.6,2130.1,288.2,2123.5,288.2z M2123.5,239.5c-5.8,0-11.6,2.2-16,6.6
					c-8.8,8.8-8.8,23.2,0,32.1c8.8,8.8,23.2,8.8,32.1,0c8.8-8.8,8.8-23.2,0-32.1C2135.1,241.7,2129.3,239.5,2123.5,239.5z"/>
			</g>
			<path class="st0" d="M2135.3,267l-3.9-20.9h-4.8v1.8h3.3l2.6,14l-3.2,5.9h-15c-0.6-0.5-1.5-0.8-2.3-0.8c-2.1,0-3.8,1.7-3.8,3.8
				c0,2.1,1.7,3.8,3.8,3.8c1.2,0,2.2-0.5,2.9-1.3h13.5l4.7-8.6l0.5,2.6c-1.3,0.6-2.3,1.9-2.3,3.5c0,2.1,1.7,3.8,3.8,3.8
				s3.8-1.7,3.8-3.8C2138.9,268.8,2137.3,267.1,2135.3,267L2135.3,267z M2111.9,272.9c-1.1,0-2-0.9-2-2c0-1.1,0.9-2,2-2s2,0.9,2,2
				C2113.9,272,2113,272.9,2111.9,272.9z M2115.7,271.5c0-0.2,0.1-0.5,0.1-0.7c0-0.4-0.1-0.8-0.2-1.2h12.7l-1.1,1.9H2115.7z
				 M2135.1,272.9c-1.1,0-2-0.9-2-2c0-1.1,0.9-2,2-2s2,0.9,2,2C2137.1,272,2136.2,272.9,2135.1,272.9z"/>
		</g>
	</g>
</g>
<g id="Layer_3">
	<g>
		<g>
			<path class="st7" d="M1545.9,179.9l5.6-0.1c0,0-4.6,42.8-5.8,52.2c-1.1,9.5-19.8,71.6-19.8,71.6l-10.7-2.6c0,0,1.4-58.4,7.9-68.3
				c-1.6-28.5-3.8-44.5-0.5-49.8c3.3-5.3,14.7-9.9,14.7-9.9L1545.9,179.9z"/>
			<g>
				<path class="st8" d="M1558.4,178.6c0.1,0.4,3,9.8,3,9.8s2.3,0.9,3.7,3c1.4,2.1-2.7,2.8-4.3,3c-1.7-4-2.6-3.6-2.6-3.6l-6.4-11.4
					L1558.4,178.6z"/>
				<path class="st7" d="M1558.9,171.5c0.3,0.5,3.5,14.8,2.9,15c-0.6,0.2-8.1,1.5-8.1,1.5l-7.8-19.1L1558.9,171.5z"/>
			</g>
			<g>
				<path class="st0" d="M1543,113.1c0,0,3.5-6.7-0.3-8.8s-5.8,8.1-5.8,8.1l2.4,0.2c0,0,0.7-5.7,1.9-6.6c1.3-0.8,2.2,3.4,0.2,6.7
					L1543,113.1z"/>
				<path class="st9" d="M1547.2,117.7c0,0-2.2-6.4-8.5-7c-6.3-0.5-11.6,5.2-14.5,19.2c-7.2,9.8-18.9,13-19.3,19.5
					c-0.4,6.4,15,21.3,21.5,21.1C1539.4,140,1547.2,117.7,1547.2,117.7z"/>
			</g>
			<g>
				<path class="st10" d="M1467.2,322c0,2.3,20.1,4.2,44.9,4.2c24.8,0,44.9-1.9,44.9-4.2c0-2.3-20.1-4.2-44.9-4.2
					C1487.3,317.8,1467.2,319.7,1467.2,322z"/>
				<ellipse class="st11" cx="1520.4" cy="297.4" rx="22.9" ry="25.3"/>
				<g>
					<g>
						<ellipse class="st0" cx="1516.8" cy="297.4" rx="22.9" ry="26.3"/>
						<ellipse class="st10" cx="1516.8" cy="297.4" rx="14.6" ry="16.8"/>
						<ellipse class="st0" cx="1516.8" cy="297.4" rx="6.8" ry="7.8"/>
					</g>
				</g>
			</g>
			<path class="st11" d="M1546.9,191.9c0,0-6.5,39.5-9.4,51.8c-2.9,12.4-17.4,58.4-17.4,58.4l-8-2c0,0,0.3-43.1,0.9-53.9
				c0.6-10.8,3.5-17.6,3.5-17.6c-2-20-1.5-41.9,0.3-47.2c1.8-5.3,5.8-11.6,17.1-12.5C1539.5,173.3,1546.4,168.3,1546.9,191.9z"/>
			<g>
				<path class="st12" d="M1563.9,103.3l-4.2,17.3c0,0,0.5,6.4-11.5-7.4c9.5-13.3,10.1-16,10.1-16L1563.9,103.3z"/>
				<path class="st12" d="M1573.5,87.2c0,0,0.3,13.2-5.6,17.7c-5.9,4.4-10.9-4.8-11.8-11.6c-0.9-6.9,0.7-11.2,5.5-14.8
					C1566.5,74.7,1572.9,79.5,1573.5,87.2z"/>
				<path class="st0" d="M1565.7,88.2l-3,8c-1.5-5-2.9-4.8-4.6-4.1c-1.7,0.7,1.1,5.3,2.7,6c-3.5-0.6-4-1.7-4-1.7s-2.1-4.4-1.4-7.6
					C1556.2,85.6,1565.7,88.2,1565.7,88.2z"/>
				<path class="st6" d="M1583.3,89.9l-27.8-1.1c0,0-2.2-11,6.8-13.5c9-2.5,12.2,9.9,12.2,12.6C1583.4,88.1,1583,89.5,1583.3,89.9z"
					/>
			</g>
			<path class="st10" d="M1554.3,115.3c0,0,7.1,4.2,11.6,11.1c4.4,6.9,6.8,19.6,1,32.1c-5.8,12.5-13.4,24.8-13.4,24.8l-36.1-5.8
				c8.2-7.9,12.5-16.8,13.2-21.1c0.7-4.2,10.6-32.7,13.3-37.7C1546.5,113.7,1554.3,115.3,1554.3,115.3z"/>
			<path class="st6" d="M1525.2,156.9c0,0,7.2,3.5,15.5-1.1c-0.1,10,2.3,10.9,2.3,10.9s-14.4,3.4-18.9-1.5
				C1524.8,159.6,1525.2,156.9,1525.2,156.9z"/>
			<g>
				<path class="st12" d="M1557.1,182.1l1.1,12.8c0,0,2.1,1.8,2.9,4.4c0.8,2.6-6.7,3.3-7.3,2.2c-0.6-1.1-0.2-1.7-0.7-3.8
					c-0.5-2.3,1.2-3.2,1.2-3.2l-6.4-12.8L1557.1,182.1z"/>
				<path class="st11" d="M1545.5,114.1c0,0,10-6.2,14.7,10.2s-5.9,34-5.9,34l4.6,32.8l-6.1,3.7c0,0-7.3-18.9-10.2-26.2
					c-2.4-6.3-1.8-3-2.1-10.5c-0.3-7.5-1.3-28.3-0.4-34.2C1540.9,117.9,1543.2,115,1545.5,114.1z"/>
			</g>
		</g>
		<path class="st7" d="M1519.5,300.1c2.8-1,1,1.6,5.4,2.2c4.3,0.7,9.8,2.5,7.5,3.4c-2.3,1-16.3,0-19,0.1c-2.7,0.1-4.7,0.7-4.3-1.6
			c0.4-2.3,1-5.4,1.8-6.1C1511.5,297.4,1516.7,301.1,1519.5,300.1z"/>
	</g>
	<g>
		<path class="st10" d="M2360.1,326.4c0,1.7,37.1,3.1,82.9,3.1s82.9-1.4,82.9-3.1c0-1.7-37.1-3.1-82.9-3.1
			S2360.1,324.7,2360.1,326.4z"/>
		<g>
			<g>
				<path class="st8" d="M2461.3,212c11.4,6,15.4,11.6,11.8,18c-2.9,5.1-25.7,38-35.2,51.6l3.8,6.8l-6.9-2.3c-0.6,0.9-1,1.4-1,1.4
					l-5.9-2.2c0,0,5.9-40.9,21.8-52.7c-32-10.1-33.7-10.4-33.8-10.4l19.6-21.1C2435.6,201.1,2443.7,202.7,2461.3,212z"/>
				<g>
					<path class="st0" d="M2441.2,285.1c0,0-0.9-1.1-4.1-1c-3.3,0.1-7.1,1.7-9.7-2.2l-2.4,4.4l24.8,9.9L2441.2,285.1z"/>
					<polygon class="st11" points="2424.3,287.9 2449.1,297.7 2449.6,296.1 2424.9,286.3 					"/>
				</g>
				<path class="st6" d="M2432.9,205.9l-13-11.7c1.4-0.1,2.1-0.1,2.1-0.1l17.5,7.4c-3.4,0.7-6.3,4.7-6.3,4.7
					S2433.1,206,2432.9,205.9z"/>
			</g>
			<g>
				<path class="st8" d="M2428.3,150.3c0,0,17.9,18.7,22.2,22.7c4.3,4,24.9,17.3,24.9,17.3s1.8-2.4,3.6-1.9s4.1,2.8,4.1,2.8
					l-1.6,0.7l-4.3-0.2c0,0-1.1,2.8,0,4.3c-10.7,0-40.1-6.4-60.8-30.8C2425.4,153.8,2428.3,150.3,2428.3,150.3z"/>
				<path class="st7" d="M2430.1,149.8l-13.4,17.3c-10.4-6.6-15.9-15.6-10.2-25.5C2412.2,131.6,2423.1,142.2,2430.1,149.8z"/>
			</g>
		</g>
		<g>
			<ellipse class="st0" cx="2436.1" cy="289.3" rx="12.6" ry="13.2"/>
			<g>
				<ellipse class="st0" cx="2383.4" cy="291.6" rx="7" ry="7.3"/>
				<path class="st11" d="M2361.3,292.3c0,12.9,10,23.4,22.4,23.4s22.4-10.5,22.4-23.4s-10-23.4-22.4-23.4
					S2361.3,279.4,2361.3,292.3z M2365.5,292.3c0-10.5,8.2-19,18.2-19c10.1,0,18.2,8.5,18.2,19c0,10.5-8.2,19-18.2,19
					C2373.7,311.4,2365.5,302.8,2365.5,292.3z"/>
				<path class="st0" d="M2353,292.3c0,17.7,13.8,32.1,30.7,32.1c17,0,30.7-14.4,30.7-32.1c0-17.7-13.8-32.1-30.7-32.1
					C2366.8,260.3,2353,274.6,2353,292.3z M2361.3,292.3c0-12.9,10-23.4,22.4-23.4s22.4,10.5,22.4,23.4s-10,23.4-22.4,23.4
					S2361.3,305.3,2361.3,292.3z"/>
			</g>
			<g>
				<path class="st0" d="M2499.2,291.6c0,4,3.1,7.3,7,7.3c3.8,0,7-3.2,7-7.3c0-4-3.1-7.3-7-7.3
					C2502.3,284.3,2499.2,287.6,2499.2,291.6z"/>
				<path class="st11" d="M2483.7,292.3c0,12.9,10,23.4,22.4,23.4s22.4-10.5,22.4-23.4s-10-23.4-22.4-23.4
					S2483.7,279.4,2483.7,292.3z M2487.9,292.3c0-10.5,8.2-19,18.2-19c10.1,0,18.2,8.5,18.2,19c0,10.5-8.2,19-18.2,19
					C2496.1,311.4,2487.9,302.8,2487.9,292.3z"/>
				<path class="st0" d="M2475.4,292.3c0,17.7,13.8,32.1,30.7,32.1s30.7-14.4,30.7-32.1c0-17.7-13.8-32.1-30.7-32.1
					S2475.4,274.6,2475.4,292.3z M2483.7,292.3c0-12.9,10-23.4,22.4-23.4s22.4,10.5,22.4,23.4s-10,23.4-22.4,23.4
					S2483.7,305.3,2483.7,292.3z"/>
			</g>
			<g>
				<polygon class="st0" points="2422.3,241.6 2405.3,246.4 2419.3,292.7 2434.7,290.6 				"/>
				<polygon class="st1" points="2415.5,259.4 2424.1,269.8 2419.1,270 2424.1,278.9 2414.3,267.7 2419.3,267.4 				"/>
			</g>
			<polygon class="st0" points="2390.3,255.1 2383.3,290.6 2381.2,290.9 2387.6,255.1 			"/>
			<polygon class="st0" points="2365.4,255.6 2383.7,287.8 2383.3,290.6 2363.8,256.3 			"/>
			<path class="st10" d="M2494.4,250.2l14.7,41.9c0,0,0.5,2.6-2,3.5c-2.5,0.9-3.6-2.1-3.6-2.1l-14.7-40.7L2494.4,250.2z"/>
			<path class="st10" d="M2471.7,192l12.7-2.8c0,0,3.9,0.7,2.9,4.5l-8.6,11.8L2490,240l-4.5,1.9l-11.6-34.3c0,0-0.9-2.6,1.8-6.2
				s5.4-7.6,5.4-7.6l-7.7,3.3C2473.5,197.2,2469.4,197.4,2471.7,192z"/>
			<polygon class="st7" points="2490.7,235.3 2481.9,238.3 2488,255.4 2496.6,252.1 			"/>
			<polygon class="st7" points="2488.7,252.8 2428.2,274.1 2424.5,260.1 2483.7,239.3 			"/>
			<path class="st10" d="M2424.3,249.5l-17.7,5.4c0,0-3.2,0-6.1,4c-2.9,4-19.3,31.9-19.3,31.9s-1.6,3.3,1.6,4
				c3.2,0.7,51.7-5.9,51.7-5.9l-1.4-5.4l-46.5,5.7l16.3-26.5c0,0,1.6-4.3,5.7-5c4.1-0.7,17-3.5,17-3.5L2424.3,249.5z"/>
			<path class="st7" d="M2423.9,227.9l16.1,61.5c0,0-2,3.1-6.3,1.7c-13.4-50.4-15.9-63.6-15.9-63.6L2423.9,227.9z"/>
			<path class="st0" d="M2403.9,252.5c0,0,1.1,2.6-0.2,3.3c-1.4,0.7-43.5,1.4-43.5,1.4s-1.6-2.1-0.5-3.8
				C2374.4,253,2403.9,252.5,2403.9,252.5z"/>
		</g>
		<g>
			<path class="st9" d="M2420,120.3c0,0-2.1,6-12.4-0.6c-10.3-6.6-24.5-3.2-30.5,3.2c-6,6.3-5.1,17.7-14.5,19.9
				c-9.4,2.2-17.8-1.3-23.6,3.8c0,0,2.1,4.4,13,16.1c10,10.7,18.7,16.1,25.7,14.8c7-1.3,6.3-16.1,10.9-19.6
				c4.5-3.5,17.8,3.5,17.8,3.5l11.8-23.7L2420,120.3z"/>
			<g>
				<path class="st12" d="M2429.1,202.4c0,0,22.7,21.5,28.1,27.2c5.4,5.7,5.4,11.4,4.1,19.9c-1.4,8.5-22.2,51.3-22.2,51.3l14.1,8.3
					l-24.5-0.5c0,0,6.1-51.8,16.3-64.8c-20.4-7.6-42.2-27.4-42.2-27.4L2429.1,202.4z"/>
				<g>
					<g>
						<path class="st9" d="M2397.6,195c10.5-0.4,22-0.9,24.1-0.9c-0.4,0-1,0-1.8,0.1l13,11.7c-0.8-0.6-3.5-1.6-11.1,1.2
							c-9.5,3.5-16.5,9.2-18.1,11.6C2396.4,210.4,2394.4,202.3,2397.6,195z"/>
					</g>
				</g>
				<g>
					<path class="st0" d="M2442.9,302.1c0,0-1.2-0.7-4.2,0.5c-3,1.3-6.1,4.1-9.9,1.4l-0.8,5l26.5,0.5L2442.9,302.1z"/>
					<polygon class="st11" points="2427.9,310.7 2454.4,311.1 2454.4,309.4 2427.9,309 					"/>
				</g>
			</g>
			<path class="st11" d="M2421.5,142.4c0,0,8.6,9.1,9.2,22.2c0.6,13.1-5.9,30-5.9,30l-28.3,1.3c0,0,0-18.8,0.6-29.5
				c0.6-10.7-0.5-22.1,8.5-26.9C2412.1,136.1,2421.5,142.4,2421.5,142.4z"/>
			<g>
				<g>
					<path class="st12" d="M2432.2,110.8c0,0,4.8,10.9,0.7,16.3c-4.1,5.4-12-0.7-15.2-6.2c-3.2-5.4-3.2-9.5,0.2-14
						C2421.4,102.6,2429.1,104.7,2432.2,110.8z"/>
					<path class="st12" d="M2424.4,126.1l-2.6,16.3c0,0,1,5.6-11.9-4.5c8.1-13.7,8.4-16.3,8.4-16.3L2424.4,126.1z"/>
					<path class="st0" d="M2426.7,111.8c0,0-2.4,13.9-7.3,15.1l-3.3,0.6l-0.6,0.1l5.7-13.7L2426.7,111.8z"/>
				</g>
				<g>
					<path class="st0" d="M2421.7,119.7c0,0,7.4,8.7,9.4,9.5c-2,1.1-2,1.1-2,1.1c-3.5-2.4-8.2-7.7-9.1-9.9L2421.7,119.7z"/>
					<path class="st6" d="M2434.6,110.1l-11.4,3.5c0,0,0.5,5.1-1.6,7.1c-2.1,2-5.2,2-5.2,2s-3.4-3.5-3.9-9.8
						c-0.5-6.3,3.7-8.4,8.7-9.6C2424.9,102.5,2432,102.8,2434.6,110.1z"/>
				</g>
			</g>
			<g>
				<path class="st12" d="M2422.7,150.6c0,0,17.9,18.7,22.2,22.7c4.3,4,24.9,17.3,24.9,17.3s1.8-2.4,3.6-1.9
					c1.8,0.5,4.1,2.8,4.1,2.8l-1.6,0.7l-4.3-0.2c0,0-1.1,2.8,0,4.3c-10.7,0-40.1-6.4-60.8-30.8
					C2419.8,154.1,2422.7,150.6,2422.7,150.6z"/>
				<path class="st7" d="M2424.5,150.1l-13.4,17.3c-10.4-6.6-15.9-15.6-10.2-25.5C2406.6,131.9,2417.5,142.5,2424.5,150.1z"/>
			</g>
		</g>
	</g>
	<g>
		<path class="st10" d="M1591.6,305.8c0,1.8,32.4,3.2,72.3,3.2c39.9,0,72.3-1.4,72.3-3.2c0-1.8-32.4-3.2-72.3-3.2
			C1624,302.6,1591.6,304.1,1591.6,305.8z"/>
		<g>
			<g>
				<circle class="st0" cx="1721.8" cy="292.8" r="14.6"/>
				<circle class="st10" cx="1721.8" cy="292.8" r="9.3"/>
			</g>
			<g>
				<circle class="st0" cx="1629" cy="292.8" r="14.6"/>
				<circle class="st10" cx="1629" cy="292.8" r="9.3"/>
			</g>
			<path class="st7" d="M1626.4,291.8c0.4-0.8,1.3-1.2,2.3-1.4c1.3-0.3,2.9-0.2,3.8-0.2c14,0,28,0,41.9,0c6.8,0,13.6,0,20.4,0
				c-0.3-5.3,0.5-21.3,20-27c1.7,7.5,2.3,9.2,2.3,9.2s-12,4-13.3,17.7c0.5,0,1.1,0,1.6,0l-0.2,5.7c-10.7,0-21.4,0-32.1,0
				c-13.7,0-27.5,0.3-41.2,0C1629.3,295.8,1624.7,295.5,1626.4,291.8z"/>
			<g>
				<polygon class="st10" points="1704.6,187.5 1713.6,232 1708.5,232.8 1699.8,187.3 				"/>
				<path class="st10" d="M1696.6,189.7c0,1.4,1.1,2.5,2.5,2.5c1.4,0,2.5-1.1,2.5-2.5c0-1.4-1.1-2.5-2.5-2.5
					C1697.8,187.1,1696.6,188.3,1696.6,189.7z"/>
			</g>
			<path class="st11" d="M1715.3,226.6l-9.4,1.1l11.3,65.6c0,0,0.9,3.4,5.7,3c4.2-0.3,3.8-4,4-4.7
				C1727,290.9,1715.3,226.6,1715.3,226.6z"/>
		</g>
		<g>
			<g>
				<path class="st7" d="M1673.7,224.8c-26.6-34.5-42.2-59.7-42.2-59.7l30.3,3.1c0,0,29.1,40.2,32.5,51.2
					c1.8,5.6-7.4,37.2-12.8,53.4l-13.9-0.9C1668,258.7,1669.3,240.4,1673.7,224.8z"/>
				<path class="st12" d="M1691.8,289.9h-24c0,0-0.4-7.4-0.1-18l13.9,0.9c-2.3,6.7-3.9,11.4-3.9,11.4L1691.8,289.9z"/>
				<g>
					<path class="st0" d="M1679.9,281c0,0-1.1-0.7-3.8,0.5c-2.7,1.3-5.5,4.2-8.9,1.4l-0.7,5.1l23.8,0.5L1679.9,281z"/>
					<polygon class="st10" points="1666.5,289.8 1690.2,290.2 1690.2,288.5 1666.5,288.1 					"/>
				</g>
			</g>
			<g>
				<path class="st8" d="M1678,125.3l-0.2,23.2l24.1,32.4c0,0,6.8,2.3,5.3,7c-2.3,1.7-2.3,1.7-2.3,1.7l-1.3-3l-3.2-2.6l-4.1,0.8
					c0,0-30.4-23.8-32.6-33.8c-2.3-10-3-25.1-3-25.1L1678,125.3z"/>
				<path class="st9" d="M1674.2,105.1c0,0,7,4.7,5.1,21.9c-11.7,3.4-14,4.1-14,4.1l-1.1-27.7
					C1664.2,103.4,1670.4,101.1,1674.2,105.1z"/>
				<polygon class="st6" points="1662.1,100.9 1667.2,96.7 1672.7,97.4 1679.4,109.4 1673.7,113.4 				"/>
			</g>
			<g>
				<path class="st11" d="M1625.1,183.5c-6.2-9.9-4.2-17.8-4.2-17.8c2.5-2,28,1.7,28,1.7s15.6,36.2,20.4,47.5
					c4.8,11.3,3.7,13.9,3.7,13.9l-14.7,42.9l-12.5-0.7c1.3-32.7,6.3-45.1,6.3-45.1S1631.3,193.4,1625.1,183.5z"/>
				<path class="st12" d="M1654.8,281.7l13,8.2H1646c0,0-0.6-2.8-0.6-9.3c0-3.4,0.1-6.5,0.3-9.5l12.5,0.7L1654.8,281.7z"/>
				<g>
					<path class="st0" d="M1657.4,281c0,0-1.1-0.7-3.8,0.5c-2.7,1.3-5.5,4.2-8.9,1.4l-0.7,5.1l23.8,0.5L1657.4,281z"/>
					<polygon class="st10" points="1644,289.8 1667.7,290.2 1667.7,288.5 1644,288.1 					"/>
				</g>
			</g>
			<path class="st10" d="M1667.4,98.1c0,0,6.8,13,6.8,13c-2,13.7-3.5,27.5-5.9,41.1c-0.7,3.7-0.4,11.8-3,19.6
				c-0.4,1.3-7.6,0.2-8.9,0c-11.9-1.5-23.6-4.6-35.5-6.1c0,0,3.4-34.4,17.9-51S1667.4,98.1,1667.4,98.1z"/>
			<g>
				<g>
					<path class="st12" d="M1695.6,87c0,0,4.9,11.3,0.7,17c-4.2,5.7-12.5-0.7-15.8-6.4c-3.3-5.7-3.3-9.8,0.2-14.5
						C1684.3,78.4,1692.3,80.6,1695.6,87z"/>
					<path class="st12" d="M1685.4,100.2L1672,111c0,0-3.1,5-6.1-11.7c15.8-4.9,17.8-6.7,17.8-6.7L1685.4,100.2z"/>
				</g>
				<g>
					<path class="st0" d="M1684.4,94.9c0,0,6.7,10.4,8.6,11.5c-1.3,0.4-2.5,0.4-2.5,0.4c-3.2-2.9-7.3-9.1-7.9-11.5L1684.4,94.9z"/>
					<path class="st6" d="M1698.8,85.7l-12.2,3.8c0,0,0.6,5.5-1.7,7.7c-2.3,2.1-5.5,2.1-5.5,2.1s-3.6-3.8-4.2-10.5
						c-0.6-6.8,4-9.1,9.3-10.4C1688.4,77.5,1695.9,77.8,1698.8,85.7z"/>
				</g>
			</g>
			<path class="st6" d="M1613.2,140.5c3.4,0,25.6-25.8,25.6-25.8s7.8-9.8,16.6-13.2c0.7-0.3,1.4-0.4,2-0.5l10-4.4l6.6,12l-5.7,4
				l-1.1-1c0.4,1.9,0.5,3.8,0.3,5.3c0,0-2.3,20.7-14.7,30.6c-12.4,9.9-51.2,14.7-51.2,14.7l-6.8-28.6
				C1594.8,133.5,1609.8,140.5,1613.2,140.5z"/>
			<g>
				<path class="st12" d="M1666.5,123.6c0,0,0.8,23.2,4.9,27.5c4.1,4.3,27,30,27,30l7,4.1c0,0,0.4,5.3-1.7,6.4
					c-2.1,1.1-2.6,0.2-2.6,0.2c0.8-2.1,1.1-4,1.1-4c-0.8-0.4-3.8-1.3-5.7,0.4c-1.9,1.7-3-3-3-3c-19-10.8-31.9-19.8-38.9-27.3
					c-4.6-5-9.8-17.7-11.5-26.4C1658.9,125.6,1666.5,123.6,1666.5,123.6z"/>
				<path class="st9" d="M1662.7,100.6c0,0,4.1,0.6,5.5,8.1c1.3,7.5,0,15.7,0,15.7l-26.6,9.8c0,0-3-8.5,2.8-20.7
					S1659.7,99,1662.7,100.6z"/>
			</g>
		</g>
	</g>
	<g>
		<path class="st10" d="M2227.7,296.7c0,2,16.9,3.6,37.8,3.6c20.9,0,37.8-1.6,37.8-3.6c0-2-16.9-3.6-37.8-3.6
			C2244.7,293.1,2227.7,294.7,2227.7,296.7z"/>
		<path class="st11" d="M2247.9,285.3l1.7,4c0.5,1.1,1.5,1.7,2.6,1.7h31c1.1,0,2.1-0.7,2.6-1.7c0-0.1,1.8-4.1,1.8-4.1H2247.9z"/>
		<polygon class="st0" points="2247.9,285.3 2249.6,289.4 2285.7,289.4 2287.5,285.3 		"/>
		<path class="st8" d="M2234.8,141.8c0.3,0.4,0.6,0.7,0.9,1c3.1,2.9,7.3,5,10.6,7.8c1.8,1.5,5.7,3.9,5.6,6.6c0,0.6-0.2,1.2-0.3,1.8
			c-0.1,0.7,0,1.4,0.2,2.1c0.1,0.4,0.3,0.8,0.7,0.9c0.2,0.1,0.3,0.1,0.5,0.1c3.3,0.2,4.2-3.7,3.3-6.2c-1.3-3.5-3.7-6.7-6.2-9.3
			c-1-1-8.5-8.1-7.6-8.8c1.3-1.1,2.8-1.8,4.1-2.9c2.2-1.9,4.6-3.6,6.9-5.5c4-3.3,7.9-7.5,8.9-12.6c0.2-1.2,0.3-2.5-0.2-3.7
			c-0.5-1.1-1.6-2.1-2.9-2c-0.9,0.1-1.7,0.6-2.4,1.1c-4.7,3.5-9,7.4-12.9,11.7c-3.4,3.8-8.6,8.9-9.9,14c-0.1,0.5-0.2,1-0.2,1.5
			C2233.9,140.2,2234.2,141.1,2234.8,141.8z"/>
		<path class="st12" d="M2251.9,167.4c0.1,0.2,0.2,0.3,0.4,0.4c1.1,1.2,3.9,1.6,5.1,1.8c5.2,0.8,13.3,1.7,17.9-1.4
			c0.2-0.2,0.3-0.5,0.2-0.8c0-0.1,0.1-0.2,0-0.3c-0.3-1.8-0.5-3.5-0.7-5.3c-0.5-4.6-0.5-9.1,0.4-14c1-5.3,4.1-9.9,5-15.1
			c0.8-4.6-2.5-8.1-4.8-11.6c-1.3-2-2.3-4-3.2-6c-0.8-2-1.5-4-2-6.1c0-0.6,0-1.3,0-1.9c0.1-2.1,0.6-3.3,1.6-4.9
			c1.2-0.8,0.5-3.8,0-4.7c-0.9-1.8-2.7-3.8-4.9-3.7c-1.9,0.1-2.7,1.7-2.8,3.4c0,0.4-0.1,0.8-0.1,1.2c-0.9,3.6-2.6,6.5-4.6,9.4
			c-0.7,1-1.5,2.1-2.2,3.2c-3,4.2-4.8,8.4-4.7,13.6c0.1,6.9,3.2,13,3.6,19.8c0.2,3.5,0.4,6.9-0.7,10.3c-0.6,1.9-1.3,3.7-2,5.6
			c-0.4,1-0.7,2.1-1,3.1C2252,164.8,2251.6,166.1,2251.9,167.4z"/>
		<path class="st12" d="M2261.9,86.7c0.1-0.4,0.2-0.7,0.3-1.2c0-0.2,0-0.5,0.1-0.7c0.7-4.8,6.8-8.4,11.4-7.4c2,0.4,3.4,1.4,4.4,2.7
			c0.1,0,0.1,0,0.2,0c1.4,1.3,3,4,2.9,6c0,0.6-0.2,1.2-0.3,1.8c-0.3,2,0.1,4,1.2,5.7c0.4,0.6,0.4,1.1-0.2,1.5
			c-0.3,0.2-0.9,0.1-1.2,0.4c-0.4,0.4-0.3,1-0.3,1.5c-0.8,0.2-1.6,0.1-2.3-0.1c-0.2,0.2-0.2,0.4,0,0.6c0.3,0.5,1.2,0.7,1.8,0.9
			c0.1,0,0.2,0.1,0.3,0.2c0,0.1,0,0.2,0,0.3c-0.3,1.2-0.5,2.4-0.8,3.6c0,0.2-0.1,0.4-0.3,0.6c-0.2,0.2-0.5,0.2-0.7,0.3
			c-4.8,0.4-9.9-2.8-13.4-5.8C2261.6,94.9,2261.2,90.8,2261.9,86.7z"/>
		<path class="st7" d="M2251.4,241.8c1.6-4.7,4.1-9.1,6.9-13.3c2.8-4,4.2-7,3.5-12c-0.7-4.7-2.7-9.1-4.4-13.4
			c-2.3-5.9-4.1-12-5.1-18.2c-0.7-4.4-1.2-9-1.1-13.5c0-1.2,0.1-2.4,0.3-3.6c0.1-0.6,0.2-1.2,0.4-1.8c0.9-2,2.2-2.1,4.1-2.4
			c1.3-0.2,2.5,0,3.7,0.5c2,0.9,3.6,2.7,4.7,4.6c1,1.6,1.8,3.6,2.3,5.4c0.4,1.7,1.2,3.1,1.8,4.8c1.7,4.6,2.6,9.5,3.4,14.3
			c1.8,11.2,2.7,22.8-0.4,33.6c-2,6.7-5.5,12.8-8.9,18.8c-2.9-0.6-5.8-1.3-8.5-2.5C2253.2,242.8,2252.3,242.4,2251.4,241.8z"/>
		<path class="st8" d="M2245.8,274.1c0-0.1,0.1-0.3,0.1-0.4c2.2-8.9,2.8-18,4.3-26.9c0.3-1.7,0.7-3.3,1.2-4.9c0.8,0.5,1.7,1,2.6,1.4
			c2.7,1.2,5.6,1.9,8.5,2.5c-0.6,1.1-1.2,2.1-1.8,3.2c-2,3.6-3.8,7.2-5.3,11c-1.3,3.4-3.3,8.6-2.4,12.3c0.1,0.3,0.2,0.5,0.3,0.8
			c0.5,0.8,1.4,1.2,2.2,1.5c0.3,0.1,0.7,0.3,1,0.4c0.1,0.1,0.3,0.1,0.4,0.2c-0.2,0-0.5,0.1-0.7,0.1c-3.6,0.5-7.2,0.3-10.7-0.4
			C2245.7,274.5,2245.8,274.3,2245.8,274.1z"/>
		<path class="st0" d="M2287.1,275.2c0.2,0,0.5-0.1,0.7-0.1c1.5,0.7,3.1,1.3,4.6,2c0.7,0.3,3.3,1.1,2.7,2.2
			c-0.5,1.1-3.2,0.7-4.2,0.7h-11.4c-1.4,0-3.3,0.3-4-1.2c-0.6-1.2,0.2-2.8,0.7-4.1C2279.9,275.5,2283.6,275.7,2287.1,275.2z"/>
		<path class="st0" d="M2256.3,275.2c0.2,0,0.5-0.1,0.7-0.1c1.5,0.7,3.1,1.3,4.6,2c0.7,0.3,3.3,1.1,2.7,2.2
			c-0.5,1.1-3.2,0.7-4.2,0.7h-11.4c-1.4,0-3.3,0.3-4-1.2c-0.6-1.2,0.2-2.8,0.7-4.1C2249.1,275.5,2252.8,275.7,2256.3,275.2z"/>
		<path class="st0" d="M2301.5,289.9c0-3.4-2.8-6.2-6.2-6.2c-3.4,0-6.2,2.8-6.2,6.2c0,3.4,2.8,6.2,6.2,6.2
			C2298.7,296,2301.5,293.3,2301.5,289.9z"/>
		<path class="st10" d="M2298.2,289.9c0-1.6-1.3-2.9-2.9-2.9c-1.6,0-2.9,1.3-2.9,2.9c0,1.6,1.3,2.9,2.9,2.9
			C2296.9,292.7,2298.2,291.4,2298.2,289.9z"/>
		<path class="st0" d="M2246.2,289.9c0-3.4-2.8-6.2-6.2-6.2c-3.4,0-6.2,2.8-6.2,6.2c0,3.4,2.8,6.2,6.2,6.2
			C2243.5,296,2246.2,293.3,2246.2,289.9z"/>
		<circle class="st10" cx="2240" cy="289.9" r="2.9"/>
		<path class="st11" d="M2221.5,278c0.2-0.3,0.5-0.6,1-0.6c0.3,0,0.6,0,0.8,0.1c1,0.4,1.8,1,2.8,1.3c1.1,0.3,2.2,0.5,3.3,0.6
			c2.2,0.4,4.4,0.6,6.6,0.6c6.6,0,63.8-0.5,63.8-0.5s5.4,0,9.9-1.7c0.3-0.1,0.5-0.2,0.8-0.3c0.1,0,0.2,0,0.3-0.1
			c3.6-0.6,1.9,3.9,0.6,5.4c-2,2.3-5.4,3.3-8.4,3.3c-0.1,0-74.9,0-74.9,0c-0.1,0-0.2,0-0.3,0c-3.1-0.7-6-2.8-6.6-6
			C2221.2,279.5,2221.2,278.6,2221.5,278z"/>
		<path class="st12" d="M2288.9,248.8c-0.8,3.6-1.5,7.2-2.3,10.8c-0.4,2-1,3.9-1.5,5.9c-0.4,1.6-1.6,5.1-1.2,6.8
			c0.1,0.3,0.2,0.5,0.3,0.8c0.5,0.8,1.4,1.2,2.2,1.5c0.3,0.1,0.7,0.3,1,0.4c0.1,0.1,0.3,0.1,0.4,0.2c-0.2,0-0.5,0.1-0.7,0.1
			c-3.6,0.5-7.2,0.3-10.7-0.4c0.1-0.2,0.2-0.4,0.2-0.6c0-0.1,0.1-0.3,0.1-0.4c2-7.9,2.3-16.8,1.7-24.9
			C2281.9,249.7,2285.5,249.8,2288.9,248.8z"/>
		<path class="st11" d="M2256,184.5c3.5,6.6,8.5,12.4,13.9,17.6c2.9,2.8,6,5.5,8.1,8.9c1.3,2.1,2.3,4.6,2.5,7.2
			c0.2,2.4-0.5,5.5-0.8,7.9c-0.5,3.6-1.8,7.1-1.9,10.8c-0.2,4,0.5,7.9,0.8,11.9c2,0.6,4.1,0.8,6.1,0.8c0.4,0,0.7,0,1.1-0.1
			c1.1-0.1,2.2-0.3,3.2-0.6c0.2-1.1,0.4-2.1,0.7-3.2c1.8-9.2,3.1-18.8,2-28.2c-0.4-3.7-1.4-7.2-2.7-10.6c-0.6-2.7-1.6-5.4-2.5-8.1
			c-1.5-4.7-3.4-9.3-5-13.9c-1.7-4.7-2.8-9.5-4.5-14.2c-0.5-1.2-0.9-2.5-1.5-3.6c-0.2-1.1-0.5-2.1-1.3-3.1c-2.6-3.6-9.4-5.6-13.6-6
			c-1.1-0.1-2.2-0.1-3.2,0.1c-2.3,0.6-4.1,2.6-4.9,4.9c-0.2,0.6-0.4,1.2-0.6,1.9C2250.2,171.2,2253.1,178.9,2256,184.5z"/>
		<path class="st6" d="M2261.4,96.5c-2.2-2.2-3-5.6-2.5-8.7c0.4-3.1,1.8-6.8,4-9c0.1-0.2,0.3-0.3,0.4-0.5c0.9-1.4-0.8-2.2-1.6-3
			c-1-0.9-1.9-2.1-2.4-3.5c-0.5-1.3-0.7-2.8-0.3-4.1c0.4-1.3,1.4-2.5,2.8-2.9c0.6-0.2,1.2-0.2,1.8-0.1c2.4,0.3,4.5,2.3,4.9,4.7
			c0.3,2.1-1.2,4.6-0.6,6.6c0.5,1.6,3.3,0.6,4.6,0.7c2.6,0.3,5.2,1.2,7.3,2.7c1,0.7,2.2,1.9,2.5,3.1c0.2,1-0.1,2.2-1,2.7
			c-0.5,0.3-1.1,0.4-1.7,0.4c-1.7,0-3.5-0.8-5.1-0.5c-1.6,0.3-2.4,1.5-3.3,2.7c-1.4,2-2.1-0.6-3.7,0.3c-0.6,0.3-0.9,1-1,1.7
			c-0.2,1,0,2.1,0.5,3.1c0.2,0.4,0.5,0.9,0.7,1.3c0.5,1.5-1.3,3.3-2.6,3.7c-1.2,0.3-2.5-0.4-3.4-1.2
			C2261.5,96.5,2261.4,96.5,2261.4,96.5z"/>
		<path class="st10" d="M2255.5,154.7c-0.6,1.9-1.3,3.7-2,5.6c6.5,5.8,15.3,7.3,22.4,6.9c-0.5-4.6-1.6-14.6-0.7-19.4
			c1-5.3,4.1-9.9,5-15.1c0.8-4.6-2.5-8.1-4.8-11.6c-1.3-2-2.3-4-3.2-6c-1.4-1.5-2.7-3-4.3-4.3c-2.4-2-5.6-3.5-8.6-3
			c-0.7,1-1.5,2.1-2.2,3.2c-3,4.2-4.8,8.4-4.7,13.6c0.1,6.9,3.2,13,3.6,19.8C2256.4,147.9,2256.5,151.3,2255.5,154.7z"/>
		<path class="st12" d="M2266.2,139.1c3.4,4.8,7.6,9.1,12,12.9c3.1,2.7,6.5,5,10.1,7c7.4,4.2,15.3,8.8,19.6,16.5
			c0.4,0.8,0.9,1.7,1.6,2.2c0.7,0.6,1.9,0.7,2.5,0c1.5-1.6-2.7-6.7-3.6-8c-2.4-3.7-5.2-7-8.3-10.1c-2.6-2.6-5.4-5-8.2-7.4
			c-2.6-2.1-6.1-4-8.2-6.7c-3.3-4-6.4-8.3-8.8-12.9c-2.4-4.5-3.6-9.6-5.9-14.1c-1.2-2.2-2.7-4.6-5.2-4.9c-2.5-0.3-4.8,1.8-5.5,4.2
			c-0.9,3.1,0,7.5,1.8,10.2c1.7,2.6,2.8,5.5,4.4,8.1C2264.9,137.1,2265.6,138.1,2266.2,139.1z"/>
		<path class="st10" d="M2262.3,76.7c0.1-0.3,0.4-0.6,0.7-0.7c1-0.2,2.1,0,3.1-0.3c0.8-0.2,1.6-1,2.5-0.6c0.2,0.1,0.3,0.2,0.2,0.4
			c-0.4,1.3-2.3,2-3.5,2.1C2264.4,77.8,2262,78.4,2262.3,76.7z"/>
		<path class="st11" d="M2264.8,113.3c-3.1-0.7-6.7,1.3-7.7,4.3c-0.3,0.9-0.4,1.9-0.5,2.8c-0.1,3.4,0.8,7,3.2,9.5
			c2-4.7,7.3-7.7,12.4-7c-0.5-2.1-1.2-4.2-2.4-5.9C2268.7,115.2,2266.9,113.7,2264.8,113.3z"/>
		<path class="st0" d="M2296.6,289.9c0-0.7-0.6-1.4-1.4-1.4c-0.7,0-1.4,0.6-1.4,1.4c0,0.7,0.6,1.4,1.4,1.4
			C2296,291.2,2296.6,290.6,2296.6,289.9z"/>
		<path class="st0" d="M2241.6,289.9c0-0.7-0.6-1.4-1.4-1.4c-0.7,0-1.4,0.6-1.4,1.4c0,0.7,0.6,1.4,1.4,1.4
			C2241,291.2,2241.6,290.6,2241.6,289.9z"/>
	</g>
</g>
<g id="Layer_2">
</g>
</svg>
