<?xml version="1.0" encoding="utf-8"?>
<!-- Generator: Adobe Illustrator 25.4.1, SVG Export Plug-In . SVG Version: 6.00 Build 0)  -->
<svg version="1.1" id="Layer_1" xmlns="http://www.w3.org/2000/svg" xmlns:xlink="http://www.w3.org/1999/xlink" x="0px" y="0px"
	 viewBox="0 0 4000 360" style="enable-background:new 0 0 4000 360;" xml:space="preserve">
<style type="text/css">
	.st0{fill:#23293F;}
	.st1{fill:#FFFFFF;}
	.st2{display:none;}
	.st3{display:inline;}
	.st4{fill:#374260;}
	.st5{fill:#88ABC5;}
	.st6{fill:#CCD8EB;}
	.st7{fill:#87A9C3;}
	.st8{fill:#F9DB00;}
	.st9{fill:#FBD09D;}
	.st10{fill:#EB9900;}
	.st11{fill:#CCD9EC;}
	.st12{fill:#427FA9;}
	.st13{fill:#F3BFCA;}
	.st14{fill:#FADC00;}
	.st15{fill:#F7D5D4;}
</style>
<g id="Layer_4">
	<rect y="-6.5" class="st0" width="4000" height="296.7"/>
</g>
<g>
	<g>
		<path class="st1" d="M2486.4,44.8c15.9,5.3,18.2,19.4,21.3,33.3c10.6-17.3,26.7,0.8,22.2,15.2c-0.5,0.2,0.2,0.1,0.4-0.4
			c4-11,33.5-0.6,34.1,12c0.9,18.1-23.5,19.9-35.2,13.3c12.6,25.5-42.4,22.7-37.5,3c-6.2,25.2-72.9,26.9-71.6-1.9
			c-0.4,8.9-45.3,17.5-42.2-4.5c-35.6,11.6-19.1-36-2-16.9c-8.4-14.5,11.1-19.2,19.7-9.1c-15.6-18.2,27.6-37.4,38.9-16
			c-6.9-14,12.3-19.7,16.4-5.9c-2.6-14.1,12.7-22.1,24.6-23.3C2479.4,43.2,2483.1,43.7,2486.4,44.8z"/>
		<path class="st1" d="M2927.6,55.4c-3.1-9.5-12-16.4-22.5-16.4c-5.4,0-10.4,1.8-14.4,4.9c-0.4-13.2-11.2-23.8-24.5-23.8
			c-10.1,0-18.7,6.1-22.5,14.7c-4-3.8-9.4-6.1-15.4-6.1c-11.9,0-21.7,9.2-22.5,20.9c-2.6-1.2-5.5-1.8-8.6-1.8
			c-5.6,0-10.7,2.2-14.5,5.7c-3.4-4.5-8.7-7.5-14.8-7.5c-7.2,0-13.3,4.1-16.4,10.1c-0.7-0.1-1.3-0.2-2-0.2c-7.3,0-13.3,6-13.3,13.3
			c0,7.3,5.9,13.3,13.3,13.3c3.1,0,5.9-1,8.1-2.8c2.9,2,6.5,3.1,10.3,3.1c3.9,0,7.5-1.2,10.5-3.3c3.6,6.6,10.7,11.1,18.8,11.1
			c4.4,0,8.5-1.3,11.9-3.6c4.1,6.8,11.6,11.4,20.2,11.4c6.2,0,11.8-2.4,16-6.3c4.3,7.1,12.1,11.9,21.1,11.9c8.5,0,16-4.3,20.4-10.9
			c3.2,3.2,7.7,5.2,12.6,5.2c6.9,0,12.9-4,15.9-9.7c2.4,1.2,5.2,2,8.1,2c9.9,0,17.9-8,17.9-17.9
			C2941.2,64.4,2935.4,57.4,2927.6,55.4z"/>
		<path class="st1" d="M4000,86.5c0-10.8-8.7-19.5-19.5-19.5c-2.2,0-4.4,0.4-6.4,1.1c-3.5-8.9-12.2-15.1-22.3-15.1
			c-5.1,0-9.8,1.6-13.7,4.3c-2.5-2.6-5.9-4.3-9.8-4.3c-3.3,0-6.4,1.2-8.7,3.2c-1.6-3.3-5-5.7-8.9-5.7c-2.3,0-4.5,0.8-6.2,2.2
			c-3.4-2.4-7.6-3.9-12.1-3.9c-11.5,0-20.8,9.3-20.8,20.8c0,0.7,0,1.4,0.1,2.1c-1.6-0.8-3.4-1.3-5.3-1.3c-6.3,0-11.5,5.1-11.5,11.5
			c0,6.3,5.1,11.5,11.5,11.5c0,0,0,0,0,0c0,0.2,0,0.4,0,0.6c0,5.3,3.4,9.8,8.1,11.4c3.9,6.9,11.3,11.6,19.7,11.6
			c5.3,0,10.1-1.8,13.9-4.8c2,1.2,4.3,1.9,6.7,1.9c3.8,0,7.1-1.6,9.5-4.2c0.3,0,0.6,0,0.9,0c4.1,0,7.9-1.5,10.8-4.1
			c1.1,2,3.1,3.5,5.4,3.9c2.6,3.1,6.5,5.1,10.9,5.1c5.6,0,10.3-3.2,12.7-7.9c2.1,1.8,4.7,2.9,7.7,2.9c3.5,0,6.6-1.5,8.7-3.9
			C3991.7,105.5,4000,97,4000,86.5z"/>
		<path class="st1" d="M3900.2,166.9c0-5.7-4.6-10.2-10.2-10.2c-0.5,0-1,0-1.5,0.1c-1.8-6.9-8.2-12-15.7-12c-3.5,0-6.7,1.1-9.3,3
			c-1-7.4-7.3-13-14.9-13c-5.8,0-10.8,3.2-13.3,8c-2.8-2-6.2-3.2-9.9-3.2c-7,0-13,4.2-15.6,10.1c-1.3-0.6-2.8-0.9-4.3-0.9
			c-6.2,0-11.3,5.1-11.3,11.3c0,1,0.1,2,0.4,2.9c-1.6,1.3-2.6,3.3-2.6,5.5c0,3.9,3.2,7.2,7.1,7.2c0.8,0,1.5-0.1,2.2-0.4
			c1.2,3.8,4.8,6.5,9,6.5c2.3,0,4.5-0.9,6.1-2.3c2.4,1.7,5.2,2.7,8.4,2.7c2.7,0,5.2-0.7,7.4-2c1.1,0.8,2.4,1.3,3.9,1.3
			c1.3,0,2.5-0.4,3.5-1c1.8,3.1,5.2,5.2,9.1,5.2c3.8,0,7.1-2,9-5c1.6,1.5,3.8,2.4,6.2,2.4c3,0,5.6-1.4,7.3-3.7
			c2.1,3.2,5.8,5.4,9.9,5.4c5.2,0,9.5-3.3,11.2-7.9C3896.8,175.9,3900.2,171.8,3900.2,166.9z"/>
		<path class="st1" d="M2116.3,157.1c0-7.4-6-13.4-13.4-13.4c-0.4,0-0.7,0-1.1,0.1c0,0,0,0,0-0.1c0-8.9-7.3-16.2-16.2-16.2
			c-3.4,0-6.5,1-9.1,2.8c-3.7-6.6-10.7-11.1-18.8-11.1c-7.9,0-14.8,4.3-18.5,10.6c-2.5-1.5-5.4-2.3-8.5-2.3c-9.3,0-16.9,7.5-17,16.8
			c-7.8,2-13.6,9.1-13.6,17.6c0,10,8.1,18.1,18.1,18.1c0.7,0,1.4,0,2-0.1c2.6,2.9,6.3,4.8,10.6,4.8c4,0,7.6-1.7,10.2-4.4
			c4,4.9,10.1,8,16.9,8c5.3,0,10.2-1.9,14-5.1c3.4,1.8,7.3,2.9,11.4,2.9c10.3,0,19.1-6.6,22.4-15.7
			C2111.6,169.1,2116.3,163.7,2116.3,157.1z"/>
		<path class="st1" d="M3075.2,133.1c0-7.2-5.9-13.1-13.1-13.1c-1.6,0-3.2,0.3-4.6,0.8c-2.2-5-7.2-8.6-13.1-8.6
			c-0.8,0-1.5,0.1-2.2,0.2c-2.9-6.4-9.3-10.8-16.8-10.8c-8,0-14.9,5.2-17.4,12.3c-0.2,0-0.4,0-0.6,0c-7.7,0-13.9,6.2-13.9,13.9
			c0,0.5,0,1,0.1,1.5c-4.8,2.4-8.2,7.3-8.2,13.1c0,8,6.5,14.6,14.6,14.6c2.5,0,4.9-0.6,7-1.8c1.9,2.1,4.6,3.5,7.6,3.5
			c2.3,0,4.5-0.8,6.2-2.2c3.5,2.8,8.2,4.5,13.4,4.5c5.1,0,9.8-1.7,13.3-4.4c1.1,0.3,2.3,0.5,3.5,0.5c6.4,0,11.7-4.7,12.5-10.9
			C3070.1,145.4,3075.2,139.8,3075.2,133.1z"/>
		<path class="st1" d="M3560.2,103.1c-4.8,0-9.1,1.9-12.3,5c-3.9-4.2-9.5-6.9-15.7-6.9c-1.3,0-2.5,0.1-3.7,0.3c0-0.1,0-0.2,0-0.3
			c0-9.7-7.9-17.6-17.6-17.6c-1.6,0-3.2,0.2-4.7,0.6c-1.8-10.8-10.2-19.4-21-21.3c-3.5-13.7-15.9-23.9-30.7-23.9
			c-17.5,0-31.7,14.2-31.7,31.7c0,2.3,0.3,4.5,0.7,6.7c-9.5,0.2-17.1,8-17.1,17.6c0,3.3,0.9,6.4,2.5,9.1c-0.1,0.2-0.2,0.3-0.3,0.5
			c-1.1-0.2-2.2-0.3-3.4-0.3c-7,0-13.1,3.9-16.2,9.7c-2.1-1.3-4.6-2.1-7.3-2.1c-2.6,0-4.9,0.7-7,1.9c-1.9-1.4-4.2-2.3-6.7-2.3
			c-6.1,0-11.1,5-11.1,11.1c0,6.1,5,11.1,11.1,11.1c0.2,0,0.4,0,0.6,0c1.7,5.7,6.9,9.8,13.1,9.8c5,0,9.4-2.7,11.7-6.7
			c3.2,2.7,7.3,4.3,11.8,4.3c2.7,0,5.3-0.6,7.6-1.7c3.3,3.1,7.8,5,12.7,5c4.4,0,8.5-1.6,11.7-4.1c4.3,6.2,11.4,10.3,19.5,10.3
			c6.4,0,12.2-2.5,16.4-6.7c6-0.3,11.6-2.4,16.2-5.8c4,6.7,11.3,11.1,19.7,11.1c6.2,0,11.8-2.5,16-6.5c2.2,0.8,4.5,1.2,7,1.2
			c7.2,0,13.5-3.6,17.4-9c2.9,2.2,6.6,3.5,10.6,3.5c9.7,0,17.6-7.9,17.6-17.6S3569.9,103.1,3560.2,103.1z"/>
	</g>
	<g>
		<path class="st1" d="M486.5,44.8c15.9,5.3,18.2,19.4,21.3,33.3c10.6-17.3,26.7,0.8,22.2,15.2c-0.5,0.2,0.2,0.1,0.4-0.4
			c4-11,33.5-0.6,34.1,12c0.9,18.1-23.5,19.9-35.2,13.3c12.6,25.5-42.4,22.7-37.5,3c-6.2,25.2-72.9,26.9-71.6-1.9
			c-0.4,8.9-45.3,17.5-42.2-4.5c-35.6,11.6-19.1-36-2-16.9c-8.4-14.5,11.1-19.2,19.7-9.1c-15.6-18.2,27.6-37.4,38.9-16
			c-6.9-14,12.3-19.7,16.4-5.9c-2.6-14.1,12.7-22.1,24.6-23.3C479.5,43.2,483.1,43.7,486.5,44.8z"/>
		<path class="st1" d="M927.7,55.4c-3.1-9.5-12-16.4-22.5-16.4c-5.4,0-10.4,1.8-14.4,4.9c-0.4-13.2-11.2-23.8-24.5-23.8
			c-10.1,0-18.7,6.1-22.5,14.7c-4-3.8-9.4-6.1-15.4-6.1c-11.9,0-21.7,9.2-22.5,20.9c-2.6-1.2-5.5-1.8-8.6-1.8
			c-5.6,0-10.7,2.2-14.5,5.7c-3.4-4.5-8.7-7.5-14.8-7.5c-7.2,0-13.3,4.1-16.4,10.1c-0.7-0.1-1.3-0.2-2-0.2c-7.3,0-13.3,6-13.3,13.3
			c0,7.3,5.9,13.3,13.3,13.3c3.1,0,5.9-1,8.1-2.8c2.9,2,6.5,3.1,10.3,3.1c3.9,0,7.5-1.2,10.5-3.3c3.6,6.6,10.7,11.1,18.8,11.1
			c4.4,0,8.5-1.3,11.9-3.6c4.1,6.8,11.6,11.4,20.2,11.4c6.2,0,11.8-2.4,16-6.3c4.3,7.1,12.1,11.9,21.1,11.9c8.5,0,16-4.3,20.5-10.9
			c3.2,3.2,7.7,5.2,12.6,5.2c6.9,0,12.9-4,15.9-9.7c2.4,1.2,5.2,2,8.1,2c9.9,0,17.9-8,17.9-17.9C941.3,64.4,935.5,57.4,927.7,55.4z"
			/>
		<path class="st1" d="M2000.1,86.5c0-10.8-8.7-19.5-19.5-19.5c-2.2,0-4.4,0.4-6.4,1.1c-3.5-8.9-12.2-15.1-22.3-15.1
			c-5.1,0-9.8,1.6-13.7,4.3c-2.5-2.6-5.9-4.3-9.8-4.3c-3.3,0-6.4,1.2-8.7,3.2c-1.6-3.3-5-5.7-8.9-5.7c-2.3,0-4.5,0.8-6.2,2.2
			c-3.4-2.4-7.6-3.9-12.1-3.9c-11.5,0-20.8,9.3-20.8,20.8c0,0.7,0,1.4,0.1,2.1c-1.6-0.8-3.4-1.3-5.3-1.3c-6.3,0-11.5,5.1-11.5,11.5
			c0,6.3,5.1,11.5,11.5,11.5c0,0,0,0,0,0c0,0.2,0,0.4,0,0.6c0,5.3,3.4,9.8,8.1,11.4c3.9,6.9,11.3,11.6,19.7,11.6
			c5.3,0,10.1-1.8,13.9-4.8c2,1.2,4.3,1.9,6.7,1.9c3.8,0,7.1-1.6,9.5-4.2c0.3,0,0.6,0,0.9,0c4.1,0,7.9-1.5,10.8-4.1
			c1.1,2,3.1,3.5,5.4,3.9c2.6,3.1,6.5,5.1,10.9,5.1c5.6,0,10.3-3.2,12.7-7.9c2.1,1.8,4.7,2.9,7.7,2.9c3.5,0,6.6-1.5,8.7-3.9
			C1991.8,105.5,2000.1,97,2000.1,86.5z"/>
		<path class="st1" d="M1900.3,166.9c0-5.7-4.6-10.2-10.2-10.2c-0.5,0-1,0-1.5,0.1c-1.8-6.9-8.2-12-15.7-12c-3.5,0-6.7,1.1-9.3,3
			c-1-7.4-7.3-13-14.9-13c-5.8,0-10.8,3.2-13.3,8c-2.8-2-6.2-3.2-9.9-3.2c-7,0-13,4.2-15.6,10.1c-1.3-0.6-2.8-0.9-4.3-0.9
			c-6.2,0-11.3,5.1-11.3,11.3c0,1,0.1,2,0.4,2.9c-1.6,1.3-2.6,3.3-2.6,5.5c0,3.9,3.2,7.2,7.1,7.2c0.8,0,1.5-0.1,2.2-0.4
			c1.2,3.8,4.8,6.5,9,6.5c2.3,0,4.5-0.9,6.1-2.3c2.4,1.7,5.2,2.7,8.4,2.7c2.7,0,5.2-0.7,7.4-2c1.1,0.8,2.4,1.3,3.9,1.3
			c1.3,0,2.5-0.4,3.5-1c1.8,3.1,5.2,5.2,9.1,5.2c3.8,0,7.1-2,9-5c1.6,1.5,3.8,2.4,6.2,2.4c3,0,5.6-1.4,7.3-3.7
			c2.1,3.2,5.8,5.4,9.9,5.4c5.2,0,9.5-3.3,11.2-7.9C1896.9,175.9,1900.3,171.8,1900.3,166.9z"/>
		<path class="st1" d="M116.4,157.1c0-7.4-6-13.4-13.4-13.4c-0.4,0-0.7,0-1.1,0.1c0,0,0,0,0-0.1c0-8.9-7.3-16.2-16.2-16.2
			c-3.4,0-6.5,1-9.1,2.8c-3.7-6.6-10.7-11.1-18.8-11.1c-7.9,0-14.8,4.3-18.5,10.6c-2.5-1.5-5.4-2.3-8.5-2.3c-9.3,0-16.9,7.5-17,16.8
			c-7.8,2-13.6,9.1-13.6,17.6c0,10,8.1,18.1,18.1,18.1c0.7,0,1.4,0,2-0.1c2.6,2.9,6.3,4.8,10.6,4.8c4,0,7.6-1.7,10.2-4.4
			c4,4.9,10.1,8,16.9,8c5.3,0,10.2-1.9,14-5.1c3.4,1.8,7.3,2.9,11.4,2.9c10.3,0,19.1-6.6,22.4-15.7
			C111.7,169.1,116.4,163.7,116.4,157.1z"/>
		<path class="st1" d="M1075.3,133.1c0-7.2-5.9-13.1-13.1-13.1c-1.6,0-3.2,0.3-4.6,0.8c-2.2-5-7.2-8.6-13.1-8.6
			c-0.8,0-1.5,0.1-2.2,0.2c-2.9-6.4-9.3-10.8-16.8-10.8c-8,0-14.9,5.2-17.4,12.3c-0.2,0-0.4,0-0.6,0c-7.7,0-13.9,6.2-13.9,13.9
			c0,0.5,0,1,0.1,1.5c-4.8,2.4-8.2,7.3-8.2,13.1c0,8,6.5,14.6,14.6,14.6c2.5,0,4.9-0.6,7-1.8c1.9,2.1,4.6,3.5,7.6,3.5
			c2.3,0,4.5-0.8,6.2-2.2c3.5,2.8,8.2,4.5,13.4,4.5c5.1,0,9.8-1.7,13.3-4.4c1.1,0.3,2.3,0.5,3.5,0.5c6.4,0,11.7-4.7,12.5-10.9
			C1070.2,145.4,1075.3,139.8,1075.3,133.1z"/>
		<path class="st1" d="M1560.3,103.1c-4.8,0-9.1,1.9-12.3,5c-3.9-4.2-9.5-6.9-15.7-6.9c-1.3,0-2.5,0.1-3.7,0.3c0-0.1,0-0.2,0-0.3
			c0-9.7-7.9-17.6-17.6-17.6c-1.6,0-3.2,0.2-4.7,0.6c-1.8-10.8-10.2-19.4-21-21.3c-3.5-13.7-15.9-23.9-30.7-23.9
			c-17.5,0-31.7,14.2-31.7,31.7c0,2.3,0.3,4.5,0.7,6.7c-9.5,0.2-17.1,8-17.1,17.6c0,3.3,0.9,6.4,2.5,9.1c-0.1,0.2-0.2,0.3-0.3,0.5
			c-1.1-0.2-2.2-0.3-3.4-0.3c-7,0-13.1,3.9-16.2,9.7c-2.1-1.3-4.6-2.1-7.3-2.1c-2.6,0-4.9,0.7-7,1.9c-1.9-1.4-4.2-2.3-6.7-2.3
			c-6.1,0-11.1,5-11.1,11.1c0,6.1,5,11.1,11.1,11.1c0.2,0,0.4,0,0.6,0c1.7,5.7,6.9,9.8,13.1,9.8c5,0,9.4-2.7,11.7-6.7
			c3.2,2.7,7.3,4.3,11.8,4.3c2.7,0,5.3-0.6,7.6-1.7c3.3,3.1,7.8,5,12.7,5c4.4,0,8.5-1.6,11.7-4.1c4.3,6.2,11.4,10.3,19.5,10.3
			c6.4,0,12.2-2.5,16.4-6.7c6-0.3,11.6-2.4,16.2-5.8c4,6.7,11.3,11.1,19.7,11.1c6.2,0,11.8-2.5,16-6.5c2.2,0.8,4.5,1.2,7,1.2
			c7.2,0,13.5-3.6,17.4-9c2.9,2.2,6.6,3.5,10.6,3.5c9.7,0,17.6-7.9,17.6-17.6S1570,103.1,1560.3,103.1z"/>
	</g>
</g>
<g class="st2">
	<g class="st3">
		<g>
			<g>
				<path class="st4" d="M1500.7,212.9c-22,0-43.8-8.2-60.5-25c-33.2-33.2-33.2-87.9,0-121.1c33.2-33.2,87.9-33.2,121.1,0
					c33.2,33.2,33.2,87.9,0,121.1C1544.5,204.6,1522.5,212.9,1500.7,212.9z M1500.7,52.6c-19.1,0-38.2,7.2-52.6,21.7
					c-29,29-29,76.3,0,105.6c29,29,76.3,29,105.6,0c29-29,29-76.3,0-105.6C1538.9,60.2,1519.8,52.6,1500.7,52.6z"/>
			</g>
			<g>
				<path class="st4" d="M1543.8,114.8c6.6-8.6,6.3-21.1-1.6-29c-7.9-8.2-20.4-8.6-29-2l-2-2c-1-1-3-1-3.9,0l-11.8,11.5
					c-1,1-1,3,0,3.9l2,2l-22.7,22.7l-2-2c-1-1-3-1-3.9,0l-11.8,11.5c-1,1-1,3,0,3.9l2,2c-6.6,8.6-6.3,21.1,1.6,29
					c7.9,7.9,20.4,8.6,29,2l2,2c1,1,3,1,3.9,0l11.8-11.5c1-1,1-3,0-3.9l-2-2l22.7-22.7l2,2c1,1,3,1,3.9,0l11.8-11.5c1-1,1-3,0-3.9
					L1543.8,114.8z M1509,87.5l3.9,3.9l-7.9,7.9l-3.9-3.9L1509,87.5z M1470.8,125.7l3.9,3.9l-7.9,7.9l-3.9-3.9L1470.8,125.7z
					 M1484.3,162.5l1.6,1.6c-6.3,4.6-15.5,3.9-21.1-2c-5.9-5.9-6.3-14.8-1.6-21.4c1.3,1.3,2,2.6,3.6,2.6c0.7,0,1.3-0.3,2-0.7
					l3.9-3.9l15.5,15.5l-3.9,3.9C1483,159.9,1483,161.5,1484.3,162.5L1484.3,162.5z M1493.8,164.5l-3.9-3.9l7.9-7.9l3.9,3.9
					L1493.8,164.5z M1522.5,124.4l2,2l-22.7,22.7l-2-2c-1-1-3-1-3.9,0l-3.9,3.9l-15.5-15.5l3.9-3.9c1-1,1-3,0-3.9l-2-2l22.7-22.7
					l2,2c1,1,3,1,3.9,0l3.9-3.9l15.5,15.5l-3.9,3.9C1521.5,121.7,1521.5,123.4,1522.5,124.4z M1532.3,126.3l-3.9-3.9l7.9-7.9
					l3.9,3.9L1532.3,126.3z M1539.9,110.9l-1.6-1.6c-1-1-3-1-3.9,0l-3.9,3.9l-15.5-15.5l3.9-3.9c1-1,1-3,0-3.9l-1.6-1.6
					c6.3-4.6,15.5-3.9,21.1,2C1543.8,95.4,1544.5,104.3,1539.9,110.9L1539.9,110.9z"/>
			</g>
		</g>
		<g>
			<g>
				<path class="st4" d="M1729.8,212.9c-22,0-43.8-8.2-60.5-25c-33.2-33.2-33.2-87.9,0-121.1c33.6-33.6,87.9-33.2,121.1,0
					c33.2,33.2,33.2,87.9,0,121.1C1773.8,204.6,1751.8,212.9,1729.8,212.9z M1729.8,52.6c-19.1,0-38.2,7.2-52.6,21.7
					c-29,29-29,76.3,0,105.6c29,29,76.3,29,105.6,0c29-29,29-76.3,0-105.6C1767.9,60.2,1748.8,52.6,1729.8,52.6z"/>
			</g>
			<path class="st4" d="M1766.9,164.8c11.8,0,21.4-9.5,21.4-21.4c0-11.8-9.5-21.4-21.4-21.4c-1.6,0-3.3,0.3-4.9,0.7h-0.3l-9.2-22
				l8.2-2.6c1.6-0.7,2.3-2.3,2-3.6c-0.7-1.6-2.3-2.3-3.6-2l-11.2,3.9c-1.3,0.7-2.3,2.3-1.6,3.9l2.3,5.9l-31.3,8.2l-3.6-8.6h5.6
				c1.6,0,3-1.3,3-3c0-1.6-1.3-3-3-3h-14.8c-1.6,0-3,1.3-3,3c0,1.6,1.3,3,3,3h3l4.9,11.5l-7.2,8.6l-0.3-0.3c-3.3-2-7.2-3.3-11.2-3.3
				c-11.8,0-21.4,9.5-21.4,21.4c0,11.8,9.5,21.4,21.4,21.4c10.5,0,19.4-7.9,21.1-18.1v-0.3h12.2c1,0,1.6-0.3,2.3-1.3l22.7-31.3
				l4.6,11.2l-0.3,0.3c-6.3,3.9-10.2,10.9-10.2,18.1C1745.5,155.3,1755.1,164.8,1766.9,164.8z M1708,147.1
				c-1.6,6.9-7.9,12.2-15.1,12.2c-8.6,0-15.5-6.9-15.5-15.5c0-8.6,6.9-15.5,15.5-15.5c2.6,0,4.9,0.7,7.2,1.6l0.7,0.3l-9.9,11.5
				c-0.7,1-1,2-0.3,3c0.3,1,1.6,1.6,2.6,1.6h15.5L1708,147.1z M1699.2,140.5l15.1-17.4l7.6,17.4H1699.2z M1726.8,137.5l-7.9-18.1
				l26-6.6L1726.8,137.5z M1757.7,130.9l0.7-0.3l5.9,14.1c0.3,0.7,1,1.3,1.6,1.6c0.7,0.3,1.6,0.3,2.3,0c0.7-0.3,1.3-1,1.6-1.6
				c0.3-0.7,0.3-1.6,0-2.3l-5.9-14.1h0.7c1,0,1.6-0.3,2.6-0.3c8.6,0,15.5,6.9,15.5,15.5c0,8.6-6.9,15.5-15.5,15.5
				c-8.6,0-15.5-6.9-15.5-15.5C1751.1,138.5,1753.8,133.9,1757.7,130.9z"/>
		</g>
	</g>
	<g class="st3">
		<g>
			<g>
				<path class="st4" d="M2499.3,212.9c-22,0-43.8-8.2-60.5-25c-33.2-33.2-33.2-87.9,0-121.1c33.2-33.6,87.9-33.2,121.1,0
					c33.2,33.2,33.2,87.9,0,121.1C2543.3,204.6,2521.3,212.9,2499.3,212.9z M2499.3,52.6c-19.1,0-38.2,7.2-52.6,21.7
					c-29,29-29,76.3,0,105.6c29,29,76.3,29,105.6,0c29-29,29-76.3,0-105.6C2537.8,60.2,2518.7,52.6,2499.3,52.6z"/>
			</g>
			<path class="st4" d="M2516.7,129.6h7.9v0.7c0.3,4.3,4.3,7.6,8.6,7.6h11.5c4.9,0,8.9-3.9,8.9-8.6v-3.9c0-4.6-3.9-8.6-8.9-8.6
				h-11.5c-4.6,0-8.2,3.3-8.6,7.6v0.7h-7.9V91.5c0-9.2-7.6-16.8-17.1-16.8s-17.1,7.6-17.1,16.8V125h-7.9v-0.7
				c-0.3-4.3-4.3-7.6-8.6-7.6h-11.5c-4.9,0-8.9,3.9-8.9,8.6v3.9c0,4.6,3.9,8.6,8.9,8.6h11.5c4.6,0,8.2-3.3,8.6-7.6v-0.7h7.9v33.6
				c0,9.2,7.6,16.8,17.1,16.8s17.1-7.6,17.1-16.8V129.6z M2529.2,125.3c0-2,1.6-3.9,3.9-3.9h11.5c2.3,0,3.9,1.6,3.9,3.9v3.9
				c0,2-1.6,3.9-3.9,3.9h-11.5c-2.3,0-3.9-1.6-3.9-3.9V125.3z M2469.6,129.3c0,2-1.6,3.9-3.9,3.9h-11.5c-2.3,0-3.9-1.6-3.9-3.9v-3.9
				c0-2,1.6-3.9,3.9-3.9h11.5c2.3,0,3.9,1.6,3.9,3.9V129.3z M2511.8,93.4l-7.6,5.6c-1,0.7-1.3,2.3-0.3,3.3c0.7,1,2.3,1.3,3.3,0.3
				l4.6-3.3v6.6l-7.6,5.6c-0.7,0.3-1,1-1,1.6c0,0.7,0,1.3,0.3,1.6c0.7,1,2.3,1.3,3.3,0.3l4.6-3.3v6.6l-7.6,5.6
				c-1,0.7-1.3,2.3-0.3,3.3c0.7,1,2.3,1.3,3.3,0.3l4.6-3.3v6.6l-7.6,5.6c-1,0.7-1.3,2.3-0.3,3.3c0.7,1,2.3,1.3,3.3,0.3l4.6-3.3v6.6
				l-7.6,5.6c-1,0.7-1.3,2.3-0.3,3.3c0.7,1,2.3,1.3,3.3,0.3l4.6-3.3v6.6l-7.6,5.6c-1,0.7-1.3,2.3-0.3,3.3c0.7,1,2.3,1.3,3.3,0.3
				l4.6-3.3v2.6c0,6.6-5.6,11.8-12.5,11.8c-6.9,0-12.5-5.3-12.5-11.8v-2.6l4.6,3.3c1,0.7,2.6,0.7,3.3-0.3c0.7-1,0.7-2.6-0.3-3.3
				l-7.6-5.6v-6.6l4.6,3.3c1,0.7,2.6,0.7,3.3-0.3c0.7-1,0.7-2.6-0.3-3.3l-7.6-5.6v-6.6l4.6,3.3c1,0.7,2.6,0.7,3.3-0.3
				c0.7-1,0.7-2.6-0.3-3.3l-7.6-5.6v-6.6l4.6,3.3c1,0.7,2.6,0.7,3.3-0.3c0.7-1,0.7-2.6-0.3-3.3l-7.6-5.6v-6.6l4.6,3.3
				c1,0.7,2.6,0.7,3.3-0.3c0.3-0.7,0.7-1,0.3-1.6c0-0.7-0.3-1.3-1-1.6l-7.6-5.6v-6.6l4.6,3.3c1,0.7,2.6,0.7,3.3-0.3
				c0.7-1,0.7-2.6-0.3-3.3l-7.6-5.6v-2c0-6.6,5.6-11.8,12.5-11.8s12.5,5.3,12.5,11.8v2H2511.8z"/>
		</g>
		<g>
			<g>
				<path class="st4" d="M2270.2,212.9c-22,0-43.8-8.2-60.5-25c-33.2-33.2-33.2-87.9,0-121.1c33.2-33.6,87.9-33.2,121.1,0
					c33.2,33.2,33.2,87.9,0,121.1C2314,204.6,2292,212.9,2270.2,212.9z M2270.2,52.6c-19.1,0-38.2,7.2-52.6,21.7
					c-29,29-29,76.3,0,105.6c29,29,76.3,29,105.6,0c29-29,29-76.3,0-105.6C2308.4,60.2,2289.3,52.6,2270.2,52.6z"/>
			</g>
			<path class="st4" d="M2309.1,143.4l-12.8-68.8h-15.8v5.9h10.9l8.6,46.1l-10.5,19.4H2240c-2-1.6-4.9-2.6-7.6-2.6
				c-6.9,0-12.5,5.6-12.5,12.5c0,6.9,5.6,12.5,12.5,12.5c3.9,0,7.2-1.6,9.5-4.3h44.4l15.5-28.3l1.6,8.6c-4.3,2-7.6,6.3-7.6,11.5
				c0,6.9,5.6,12.5,12.5,12.5s12.5-5.6,12.5-12.5C2320.9,149.4,2315.7,143.8,2309.1,143.4L2309.1,143.4z M2232.1,162.5
				c-3.6,0-6.6-3-6.6-6.6s3-6.6,6.6-6.6c3.6,0,6.6,3,6.6,6.6S2235.7,162.5,2232.1,162.5z M2244.6,158.3c0-0.7,0.3-1.6,0.3-2.3
				c0-1.3-0.3-2.6-0.7-3.9h41.8l-3.6,6.3L2244.6,158.3L2244.6,158.3z M2308.4,162.5c-3.6,0-6.6-3-6.6-6.6s3-6.6,6.6-6.6
				c3.6,0,6.6,3,6.6,6.6S2312,162.5,2308.4,162.5z"/>
		</g>
	</g>
</g>
<g>
	<polygon class="st5" points="1259.7,316.1 1213.9,316.1 1220.3,311.3 1266.1,311.3 	"/>
	<polygon class="st5" points="1339.7,316.1 1293.9,316.1 1300.3,311.3 1346.1,311.3 	"/>
	<polygon class="st5" points="1099.7,316.1 1053.9,316.1 1060.3,311.3 1106.1,311.3 	"/>
	<polygon class="st5" points="1179.7,316.1 1133.9,316.1 1140.3,311.3 1186.1,311.3 	"/>
	<polygon class="st5" points="939.7,316.1 893.9,316.1 900.3,311.3 946.1,311.3 	"/>
	<polygon class="st5" points="1019.7,316.1 973.9,316.1 980.3,311.3 1026.1,311.3 	"/>
	<polygon class="st5" points="779.7,316.1 733.9,316.1 740.3,311.3 786.1,311.3 	"/>
	<polygon class="st5" points="859.7,316.1 813.9,316.1 820.3,311.3 866.1,311.3 	"/>
	<polygon class="st5" points="619.7,316.1 573.9,316.1 580.3,311.3 626.1,311.3 	"/>
	<polygon class="st5" points="699.7,316.1 653.9,316.1 660.3,311.3 706.1,311.3 	"/>
	<polygon class="st5" points="459.7,316.1 413.9,316.1 420.3,311.3 466.1,311.3 	"/>
	<polygon class="st5" points="539.7,316.1 493.9,316.1 500.3,311.3 546.1,311.3 	"/>
	<polygon class="st5" points="299.7,316.1 253.9,316.1 260.3,311.3 306.1,311.3 	"/>
	<polygon class="st5" points="379.7,316.1 333.9,316.1 340.3,311.3 386.1,311.3 	"/>
	<polygon class="st5" points="139.7,316.1 93.9,316.1 100.3,311.3 146.1,311.3 	"/>
	<polygon class="st5" points="219.7,316.1 173.9,316.1 180.3,311.3 226.1,311.3 	"/>
	<polygon class="st5" points="2539.7,316.1 2493.9,316.1 2500.3,311.3 2546.1,311.3 	"/>
	<polygon class="st5" points="2619.7,316.1 2573.9,316.1 2580.3,311.3 2626.1,311.3 	"/>
	<polygon class="st5" points="2379.7,316.1 2333.9,316.1 2340.3,311.3 2386.1,311.3 	"/>
	<polygon class="st5" points="2459.7,316.1 2413.9,316.1 2420.3,311.3 2466.1,311.3 	"/>
	<polygon class="st5" points="2219.7,316.1 2173.9,316.1 2180.3,311.3 2226.1,311.3 	"/>
	<polygon class="st5" points="2299.7,316.1 2253.9,316.1 2260.3,311.3 2306.1,311.3 	"/>
	<polygon class="st5" points="2059.7,316.1 2013.9,316.1 2020.3,311.3 2066.1,311.3 	"/>
	<polygon class="st5" points="2139.7,316.1 2093.9,316.1 2100.3,311.3 2146.1,311.3 	"/>
	<polygon class="st5" points="1899.7,316.1 1853.9,316.1 1860.3,311.3 1906.1,311.3 	"/>
	<polygon class="st5" points="1979.7,316.1 1933.9,316.1 1940.3,311.3 1986.1,311.3 	"/>
	<polygon class="st5" points="1739.7,316.1 1693.9,316.1 1700.3,311.3 1746.1,311.3 	"/>
	<polygon class="st5" points="1819.7,316.1 1773.9,316.1 1780.3,311.3 1826.1,311.3 	"/>
	<polygon class="st5" points="1579.7,316.1 1533.9,316.1 1540.3,311.3 1586.1,311.3 	"/>
	<polygon class="st5" points="1659.7,316.1 1613.9,316.1 1620.3,311.3 1666.1,311.3 	"/>
	<polygon class="st5" points="1419.7,316.1 1373.9,316.1 1380.3,311.3 1426.1,311.3 	"/>
	<polygon class="st5" points="1499.7,316.1 1453.9,316.1 1460.3,311.3 1506.1,311.3 	"/>
	<polygon class="st5" points="3819.7,316.1 3773.9,316.1 3780.3,311.3 3826.1,311.3 	"/>
	<polygon class="st5" points="3899.7,316.1 3853.9,316.1 3860.3,311.3 3906.1,311.3 	"/>
	<polygon class="st5" points="3659.7,316.1 3613.9,316.1 3620.3,311.3 3666.1,311.3 	"/>
	<polygon class="st5" points="3739.7,316.1 3693.9,316.1 3700.3,311.3 3746.1,311.3 	"/>
	<polygon class="st5" points="3499.7,316.1 3453.9,316.1 3460.3,311.3 3506.1,311.3 	"/>
	<polygon class="st5" points="3579.7,316.1 3533.9,316.1 3540.3,311.3 3586.1,311.3 	"/>
	<polygon class="st5" points="3339.7,316.1 3293.9,316.1 3300.3,311.3 3346.1,311.3 	"/>
	<polygon class="st5" points="3419.7,316.1 3373.9,316.1 3380.3,311.3 3426.1,311.3 	"/>
	<polygon class="st5" points="3179.7,316.1 3133.9,316.1 3140.3,311.3 3186.1,311.3 	"/>
	<polygon class="st5" points="3259.7,316.1 3213.9,316.1 3220.3,311.3 3266.1,311.3 	"/>
	<polygon class="st5" points="3019.7,316.1 2973.9,316.1 2980.3,311.3 3026.1,311.3 	"/>
	<polygon class="st5" points="3099.7,316.1 3053.9,316.1 3060.3,311.3 3106.1,311.3 	"/>
	<polygon class="st5" points="2859.7,316.1 2813.9,316.1 2820.3,311.3 2866.1,311.3 	"/>
	<polygon class="st5" points="2939.7,316.1 2893.9,316.1 2900.3,311.3 2946.1,311.3 	"/>
	<polygon class="st5" points="2699.7,316.1 2653.9,316.1 2660.3,311.3 2706.1,311.3 	"/>
	<polygon class="st5" points="2779.7,316.1 2733.9,316.1 2740.3,311.3 2786.1,311.3 	"/>
</g>
<g>
	<path class="st1" d="M1538.7,293.5c3.7-4.8,8.6-5.3,14.2-5.2c7.1,0.1,14.2-0.7,21.4-0.8c2.5-0.1,5.1,0.7,7.6,0.9
		c4.2,0.3,8.3,0.6,11.6-3.3c3.3-3.9,8-4.6,12.7-4.7c6.3-0.1,12.7,0,19.8,0c-2.5-10,4.6-13.1,11.2-17.5c7.2,13.5,19.6,6.7,30.9,8.7
		c-1.1-14.6,0.2-28.3,5.5-41.3c4.7,1.9,9.3,15,10.2,28.5c2.3,0,4.7,0,7.6,0c0-1.7-0.2-3.5,0-5.3c0.6-5.9,1.1-11.9,2.2-17.7
		c0.3-1.5,2.5-2.6,3.8-3.8c0.6,1.2,1.5,2.4,1.7,3.7c0.8,4.9,1.5,9.8,2,14.7c0.5,4.8,0.6,9.6,0.9,14.2c7.2,2.4,12.3-0.3,17-5
		c2.6-2.5,5.1-5.3,8.1-7.1c2.2-1.3,5.1-1.3,8-2c-2.7-7.8,0.5-13.8,6.8-18.5c0.8-0.6,2.5-0.9,3.4-0.5c4.5,2.4,8.1,10.7,7.4,15.5
		c5,2.9,10,5.5,14.8,8.4c5.1,3,5.6,2.8,7.6-2.7c1.2-3.2,2.9-6.1,4.7-9.7c5.9,0,12.4,0,19.5,0c0-4.8-0.3-9.3,0.1-13.7
		c0.2-2.4,1.3-5.2,2.9-6.8c4.5-4.6,9.3-8.7,14.2-12.7c0.8-0.6,2.9-0.7,3.6,0c4.6,4.1,9.4,8.1,13.2,12.9c1.6,1.9,1.1,5.6,1.7,9.2
		c5.5-0.2,11.6,2.2,15.9-4.9c1.3-2.2,5-3,8-4.6c0-4.6-0.1-10,0.1-15.4c0-1.1,0.6-3,1.2-3.2c7.9-2.3,6.6-9.4,7.4-15.1
		c2.4-16,4.5-32.1,6.7-48.2c0.5-3.4,0.7-6.9,1.3-10.3c0.1-0.9,1.1-1.6,1.7-2.3c0.7,0.8,1.9,1.6,2,2.5c1.4,8.6,2.7,17.3,4,26
		c1.6,11,3.7,21.9,4.5,32.9c0.4,5.7,2.9,9.5,6,13.5c1,1.3,1.1,3.6,1.2,5.4c0.2,4,0.1,8.1,0.1,12.3c1,0.2,1.8,0.5,2.5,0.4
		c6.7-1.2,11.4,1.9,15.6,6.9c4.5,5.3,6.6,4.8,10.5-1.3c0.6-1,1.3-1.9,1.8-2.9c2.6-4.8,4.6-5.1,8.5-1.4c0.5,0.4,0.9,0.8,2.2,1.9
		c0-5.4,0.1-10-0.1-14.6c0-0.9-0.9-2.2-1.7-2.7c-3-1.6-3-4.5-1.3-6.3c2.9-3.1,6.9-7.6,10-7.3c3.8,0.4,7.2,5.1,10.5,8.3
		c0.6,0.6,0.4,3.3-0.2,3.7c-4,2.7-2.1,6.5-2.5,10.2c1.6,0.1,3,0.2,4.3,0.3c0.2-0.7,0.5-1.2,0.5-1.7c0-4.4,0.1-8.8,0.1-13.2
		c0-1,0-2.1-0.2-3c-0.6-2.2-2.7-5.5-2-6.2c2.9-3.2,6.3-6.7,10.2-7.8c2.2-0.6,5.8,2.8,8.3,4.9c2.5,2.1,3.9,4.2,1.8,8.5
		c-1.7,3.5-0.3,8.5-0.3,13.5c1.3-0.3,2.8-0.2,3.5-0.8c0.4-0.4,0.2-2.6-0.4-3.1c-5.1-3.7-1.4-7,0.7-9.5c4.8-5.5,12.1-5,16.7,1
		c1.2,1.6,1.9,4.3,1.7,6.4c-0.6,6.8-1.7,13.6-2.6,20.6c7.5,1.8,12-2.7,17.1-5c1-0.4,1.3-3.3,1.4-5c0.2-5.4-0.1-10.8,0.1-16.2
		c0.1-1.7,0.6-4,1.7-4.8c4.7-3.2,4.6-8.2,5-13c1.3-13.6,2.6-27.1,3.9-40.7c0.4-4.8,0.7-9.6,1.1-14.5c1.3-15.6,2.6-31.2,3.9-46.8
		c0.2-3,0-6,1.1-9.6c0.6,0.8,1.6,1.4,1.7,2.3c1.7,14,3.3,28,5,42c1.5,12,3.3,23.9,4.8,35.9c1.2,9.6,2,19.1,3.1,28.7
		c0.4,3.6,0.6,7.3,1.6,10.8c0.6,2.2,2.5,4.1,3.8,6.1c0.5-0.2,0.9-0.5,1.4-0.7c0,6.7,0.1,13.5,0,20.2c0,2.6,0.3,4.2,3.3,5.1
		c3.4,1,6.6,3.2,10.5,5.1c0-5.7,0.1-10.7,0-15.7c-0.1-7.2,5.6-11.2,9-16.4c0.2-0.3,3.6,0.7,4.6,1.9c5.3,6.2,9.7,12.9,8,21.9
		c-0.2,1.3,0.1,2.7,0.2,4c0,0.2,0.4,0.4,1.5,1.6c1-15.4-1.4-30.4,4-44.3c0.6,0,1.3,0,1.9,0c2.2,14.7,4.4,29.5,6.7,44.3
		c8,2.1,6.9-7,11.4-10.3c2.7,3.2,5.7,6.1,7.9,9.5c1.9,3,3.9,2.3,4.6,0.1c3-8.3,9.4-7.6,16-7.3c5.5,0.2,11.1,0,17.1,0
		c-3.1-5.8,1.3-8.5,3.7-12.1c1.8-2.8,3.7-5.9,4.1-9.1c1.4-12.2,2.3-24.5,3.5-38.5c1.6,1.7,3.2,2.6,3.4,3.7
		c1.2,9.4,1.9,18.8,3.1,28.2c0.7,5.5,0.3,11.2,4.7,15.8c1.4,1.5,1.9,4.5,2,6.8c0.2,9.7,0.1,19.5,0.1,29.1c4.5,1.5,6.7-0.2,8.2-4.1
		c1.8-4.7,4.3-9.2,6.5-13.8c1.8-3.6,3.7-3.8,6-0.4c2.9,4.4,6.3,8.5,8.4,13.3c3.6,8.4,10.1,11.8,18.1,13.5c7.2,1.6,7.2,1.7,8,8.7
		c7.4,1.2,14.3,1.2,19.4-6.2c1.8-2.6,5.4-4,8.1-5.9c0.3,0.4,0.7,0.8,1,1.2c0.2-1.4,0.4-2.9,0.7-4.6c0.7-0.1,1.5-0.4,2.2-0.3
		c4.4,1,7.8-1.5,11.1-3.7c5.4-3.6,9-3.2,13.6,0.9c4.8,4.2,6.8,8.9,6.1,15.3c-0.5,4.3-0.1,8.7-0.1,14.2c6.7-0.5,13.2-0.2,19.4-1.6
		c6.4-1.5,10.8,1,15.1,4.9c1.3,1.2,2.6,2.6,3.8,3.9c2.9,3.4,6.3,4.6,10.4,2.4c5.1-2.7,11.4-1.1,16.1-5.6c1.4-1.3,6.2-2.1,8.3,2.3
		c0.6,1.2,3,1.6,4.6,2.3c2,0.8,4.6,1,6.1,2.4c8.3,8.2,18.5,3.7,27.8,4.5c1.4,0.1,3-2.2,4.7-3.5c5.3,1.6,7,3.5,7.6,9.1
		c5.1-0.4,10.2-1.4,15.3-1.1c8.3,0.5,17.2-0.6,23.6,6.8C2153.7,293.5,1846.2,293.5,1538.7,293.5z"/>
</g>
<g id="Layer_5">
</g>
<g id="Layer_1_00000095306085378922820320000017329340167001087108_">
	<g>
		<g>
			<path class="st0" d="M1820.3,349.3l-1.5,8.6h-27.6l6.3-37.5h27l-1.4,8.2H1807l-1,5.9h13.5l-1.4,8.1h-13.5l-1.1,6.6L1820.3,349.3
				L1820.3,349.3z"/>
			<path class="st0" d="M1838,320.5l-6.3,37.5h-10.6l6.3-37.5H1838z"/>
			<path class="st0" d="M1866.1,346.1H1847c-0.1,0.8-0.1,1.3-0.1,1.7c0,1.2,0.4,2.2,1.2,2.8c0.8,0.7,1.8,1,3,1
				c2.3,0,3.8-1.2,4.8-3.5l9.3,1.5c-1.2,2.7-3.2,4.9-5.9,6.6c-2.7,1.7-5.7,2.5-9,2.5c-4.1,0-7.5-1.2-10.1-3.5
				c-2.6-2.4-3.9-5.6-3.9-9.6c0-4.4,1.5-8.2,4.6-11.4c3-3.2,7-4.7,11.9-4.7c4.2,0,7.5,1.2,9.9,3.7c2.5,2.4,3.7,5.7,3.7,9.8
				C1866.4,343.9,1866.3,344.9,1866.1,346.1z M1856.1,340.8c0.1-0.6,0.1-1,0.1-1.3c0-1-0.3-1.8-0.9-2.6c-0.6-0.7-1.5-1.1-2.6-1.1
				c-1.2,0-2.2,0.4-3.2,1.3s-1.5,2.1-1.8,3.7H1856.1z"/>
			<path class="st0" d="M1885.5,347.2l8.4,2.1c-1.5,3.6-3.5,6.1-5.9,7.5s-5,2.1-7.6,2.1c-3.8,0-7-1.2-9.4-3.6s-3.6-5.6-3.6-9.4
				c0-4.3,1.4-8.2,4.3-11.5s6.7-5,11.4-5c3.4,0,6.3,1,8.7,3.1c2.4,2.1,3.6,4.7,3.6,8l-9.4,1.1c0-3-1-4.5-3-4.5c-1.7,0-3,1.2-3.7,3.7
				s-1.1,4.6-1.1,6.4c0,2.7,1,4.1,3.1,4.1C1883.1,351.1,1884.6,349.8,1885.5,347.2z"/>
			<path class="st0" d="M1916.8,330.2l-1.2,7.1h-5l-1.7,9.9c-0.2,1-0.3,1.6-0.3,1.8c0,1.4,0.9,2,2.6,2c0.8,0,1.6-0.1,2.6-0.3
				l-1.2,7.2c-2,0.4-3.9,0.6-5.7,0.6c-2.3,0-3.9-0.3-5-0.9s-2-1.4-2.7-2.4s-1-2.4-1-4.1c0-0.7,0.2-2.1,0.5-4l1.6-9.9h-3.8l1.2-7.1
				h3.8l1.5-8.2l10.1-0.2l-1.4,8.4h5.1V330.2z"/>
			<path class="st0" d="M1920.9,330.2h9.2l-1.1,6.7c1.9-5,4.9-7.5,8.8-7.5c0.3,0,0.7,0,1.3,0.1l-1.2,9.9c-1-0.1-1.6-0.1-1.9-0.1
				c-2.3,0-4,0.5-5,1.6c-1.1,1.1-1.8,3-2.3,5.7l-1.9,11.3h-10.6L1920.9,330.2z"/>
			<path class="st0" d="M1951.1,358.8c-3.9,0-7.1-1.1-9.7-3.4s-3.9-5.4-3.9-9.4c0-4.8,1.5-8.7,4.6-11.8s6.9-4.6,11.6-4.6
				c4.2,0,7.6,1.2,10.1,3.6s3.7,5.4,3.7,8.9c0,5.3-1.6,9.4-4.8,12.3C1959.4,357.3,1955.5,358.8,1951.1,358.8z M1951.5,352
				c1.9,0,3.2-1.4,3.9-4.3c0.7-2.9,1-5.2,1-7.2c0-2.9-1.1-4.4-3.2-4.4c-1.9,0-3.2,1.5-3.9,4.4c-0.7,2.9-1.1,5.3-1.1,7.2
				C1948.3,350.6,1949.4,352,1951.5,352z"/>
			<path class="st0" d="M1985.1,329l-4.9,29h-10.9l4.9-29h-8l1.5-8.6h27.2l-1.4,8.6H1985.1z"/>
			<path class="st0" d="M2015.6,358h-10.9c-0.1-0.5-0.1-1-0.1-1.3c0-0.9,0.1-2,0.2-3.3c-2.2,3.5-5.2,5.2-9.1,5.2
				c-2.6,0-4.8-0.8-6.4-2.3s-2.4-3.4-2.4-5.7c0-1.7,0.4-3.3,1.3-4.7c0.9-1.4,2.1-2.6,3.7-3.4s3.3-1.4,4.9-1.7c1.7-0.3,5-0.6,9.9-1.1
				c0.2-0.7,0.3-1.2,0.3-1.6c0-1.5-1.1-2.3-3.2-2.3s-3.6,1-4.6,3.1l-9-1.8c2.3-5.1,7.3-7.7,15.1-7.7c3.9,0,7,0.7,9.3,2
				c2.3,1.4,3.4,3.4,3.4,6c0,1.2-0.7,5.4-2,12.6c-0.5,2.7-0.7,4.5-0.7,5.4C2015.3,356.2,2015.4,357,2015.6,358z M2005.8,344.8
				c-5,0.4-7.6,2-7.6,4.8c0,1.6,0.8,2.3,2.4,2.3c1,0,2.1-0.5,3.1-1.4C2004.8,349.6,2005.5,347.7,2005.8,344.8z"/>
			<path class="st0" d="M2037.3,320.5L2031,358h-10.6l6.3-37.5H2037.3z"/>
			<path class="st0" d="M2053.6,320.5l-6.3,37.5h-10.6l6.3-37.5H2053.6z"/>
			<path class="st0" d="M2068.6,330.2l-4.6,27.7h-10.8l4.6-27.7H2068.6z M2070.4,319.6l-1.4,8.2h-10.8l1.4-8.2H2070.4z"/>
			<path class="st0" d="M2074.3,330.2h9.7l-0.7,4.5c0.8-1.8,2-3.2,3.7-4.1s3.5-1.3,5.4-1.3c2.4,0,4.3,0.6,5.7,1.9
				c1.5,1.2,2.2,2.9,2.2,4.9c0,0.8-0.1,1.7-0.3,2.8l-3.2,19h-10.6l2.8-16.7c0.2-1.1,0.3-1.8,0.3-2.1c0-1.6-0.8-2.3-2.5-2.3
				c-2.2,0-3.6,1.5-4.1,4.5L2080,358h-10.3L2074.3,330.2z"/>
			<path class="st0" d="M2107.2,330.2h9.7l-0.7,4.5c0.8-1.8,2-3.2,3.7-4.1s3.5-1.3,5.4-1.3c2.4,0,4.3,0.6,5.7,1.9
				c1.5,1.2,2.2,2.9,2.2,4.9c0,0.8-0.1,1.7-0.3,2.8l-3.2,19h-10.6l2.8-16.7c0.2-1.1,0.3-1.8,0.3-2.1c0-1.6-0.8-2.3-2.5-2.3
				c-2.2,0-3.6,1.5-4.1,4.5l-2.8,16.7h-10.3L2107.2,330.2z"/>
			<path class="st0" d="M2177.9,345.6h-19.1c-0.1,0.8-0.1,1.3-0.1,1.7c0,1.2,0.4,2.2,1.2,2.8c0.8,0.7,1.8,1,3,1
				c2.3,0,3.8-1.2,4.8-3.5l9.3,1.5c-1.2,2.7-3.2,4.9-5.9,6.6s-5.7,2.5-9,2.5c-4.1,0-7.5-1.2-10.1-3.5c-2.6-2.4-3.9-5.6-3.9-9.6
				c0-4.4,1.5-8.2,4.6-11.4c3-3.2,7-4.7,11.9-4.7c4.2,0,7.5,1.2,9.9,3.7c2.5,2.4,3.7,5.7,3.7,9.8
				C2178.2,343.4,2178.1,344.5,2177.9,345.6z M2167.9,340.3c0.1-0.6,0.1-1,0.1-1.3c0-1-0.3-1.8-0.9-2.6c-0.6-0.7-1.5-1.1-2.6-1.1
				c-1.2,0-2.2,0.4-3.2,1.3s-1.5,2.1-1.8,3.7H2167.9z"/>
			<path class="st0" d="M2210.5,345.6h-19.1c-0.1,0.8-0.1,1.3-0.1,1.7c0,1.2,0.4,2.2,1.2,2.8c0.8,0.7,1.8,1,3,1
				c2.3,0,3.8-1.2,4.8-3.5l9.3,1.5c-1.2,2.7-3.2,4.9-5.9,6.6s-5.7,2.5-9,2.5c-4.1,0-7.5-1.2-10.1-3.5c-2.6-2.4-3.9-5.6-3.9-9.6
				c0-4.4,1.5-8.2,4.6-11.4c3-3.2,7-4.7,11.9-4.7c4.2,0,7.5,1.2,9.9,3.7c2.5,2.4,3.7,5.7,3.7,9.8
				C2210.8,343.4,2210.7,344.5,2210.5,345.6z M2200.5,340.3c0.1-0.6,0.1-1,0.1-1.3c0-1-0.3-1.8-0.9-2.6c-0.6-0.7-1.5-1.1-2.6-1.1
				c-1.2,0-2.2,0.4-3.2,1.3s-1.5,2.1-1.8,3.7H2200.5z"/>
			<polygon class="st0" points="2145.9,349.8 2144.5,358 2133.7,358 2135.1,349.8 			"/>
		</g>
		<g>
			<g>
				<path class="st1" d="M2021.7,34l1.3,3.2l-35.8,17.4c0.2,1.3,0.4,2.6,0.4,3.7c0.1,3.1-0.8,5.7-3.8,7.1c-0.5,0.2-1.1,0.4-1.6,0.5
					c-0.7,2.4-1.8,5.5-4.4,6c-1.5,0.3-3.2,0.6-4.8,0.8c-1,0.1-2.4,0.3-3.8,0.3c-0.9,0-1.9-0.1-2.5-0.4c-1.3-0.6-2.2-1.6-2.7-2.8
					l-0.3,0.1l-1.3,1.9c-2.9,4.4-5.9,9-8.5,13.6c-0.1,0.2-0.2,0.4-0.4,0.6c4.3,1,9.9,2.9,13.6,5.4l0.3-0.2l-0.1-1.2l0.9,0.8
					l10.7-5.8c4.5-2.4,10.7-4.4,15.8-4.4c0.1,0,0.2,0,0.3,0c1,0,2,0,3.1,0.1l1.4-1.1c2-1.5,5.6-4.2,8.8-5.9c-1.2-0.5-2.4-1-3.6-1.5
					l-15-5.6l15.9-1.5c1.3-0.1,2.6-0.2,4-0.2c3.4,0,7.1,0.4,10.1,1.1c0.9,0.2,1.9,0.5,2.8,0.8c-0.1-0.1-0.1-0.1-0.2-0.2l-6.7-7.6
					l10,1.5c0.9,0.1,1.8,0.3,2.7,0.5h0.2l0.2,0.1c1.3,0.4,2.8,0.9,4.3,1.6l0.2-0.7l3.5,1c3.6,1,8,2.4,11.1,4.6
					c1.5,1.1,3,2.1,4.5,3.2l-0.4-4.4l7.2,7.2c3.1,3.1,6.2,8.1,6.7,12.6c0.2,1.3,0.1,2.7-0.1,4.2l0.3,0.3c3.7-3.8,5.7-6.9,5.7-6.9
					l-4.2,0.1l5.8-11.2c0,0-1.4-0.5-4.2-0.5c-0.4,0-0.8,0-1.2,0c-1.7,0.1-4,0.4-5.9,0.7l-3-3.4c2.4-0.3,3.6-0.5,9-0.8
					c0.4,0,0.7,0,1.1,0c5.2,0,11.8,1.5,11.8,1.5l-6.4,11.1l4.4-0.7c0,0-2.8,6.2-10.9,12.6c1.4,1.6,2.9,3.7,3.7,5.5
					c1.1,2.5,1.2,5.4,0.7,8.2c8,2.7,15.6,6.3,22.7,11c5.8,3.9,13.4,10.2,17.3,16.1l0.9,1.4l-0.1,1.6c-0.2,3.2-0.6,6.5-1.1,9.7
					c-1.2,8-2.8,16-4.9,23.9c-5.6,21.2-14.4,42.1-26.8,60.3h6.7l-5.9,7.7l-10.8,14.3h7.3h13.7l-10.7,8.6l-45.1,36l-20.6,16.4
					l-16.2,12.9l-8.8,12.8l3.5-21.3l0.3-1.9l-2-3c-2-3-4-6-5.9-9.1h-48.3h-5.7l0.9-5.6l11-65.8c-2.6-5-5.1-10.1-7.3-15.3
					c-7.1-15.9-11.3-33.2-12.7-50.5c-0.4-5.4-0.6-10.8-0.4-16.1c0-0.1,0-0.2,0-0.2l-52.2,6.4l20.9-12c16.2-9.3,32.7-18.5,49.8-26
					c-3.2-2-6.4-4.2-9.4-6.4c-2.5-1.8-5-3.7-7.3-5.7c-4-3.6-7.4-9.6-8.7-14.8l-0.2-1l3.6-3.6c2-0.9,5.4-6,6.3-7.6
					c0.5-0.8,1.1-1.7,1.7-2.5L1891.2,93l17.8-14.5l-53,19.3l-1.3-3.3l89.8-40l-12,11.8l16.1-7.1l3.7-4.5l0.4-0.3
					c0.9-0.6,2.8-2,3.6-2.8c0.9-1.5,1.3-2.8,3.1-3.6c0.4-0.2,0.9-0.3,1.4-0.4c0.3,0,0.6-0.1,0.9-0.1c0.8-1.4,2.2-2.5,4-2.9
					c0.7-0.2,1.5-0.2,2.2-0.2c0.4,0,0.9,0,1.3,0.1c1.1-1,2.5-1.6,4.2-1.6c1.3,0,2.7,0.3,4,0.9c1.2-0.4,2.5-0.7,3.7-0.7
					c0.9,0,1.7,0.2,2.4,0.6c0.8,0.5,1.3,1.1,1.7,1.9L2021.7,34 M1970.9,92.9l0.8-0.3l-1.1,0.1L1970.9,92.9 M2060.8,257.5h17H2060.8
					 M2032.7,293.5l-20.6,16.4l0,0L2032.7,293.5 M2004.5,309.9L2004.5,309.9L2004.5,309.9l-6.2,9l0,0L2004.5,309.9L2004.5,309.9
					 M2023.8,29.7l-3.1,1l-34.3,10.7c-0.3-0.3-0.7-0.6-1.1-0.8c-1.2-0.7-2.6-1.1-4.2-1.1c-1.1,0-2.2,0.2-3.5,0.5
					c-1.3-0.4-2.7-0.7-4.1-0.7c-1.9,0-3.8,0.5-5.3,1.5c-0.1,0-0.1,0-0.2,0c-1.1,0-2.1,0.1-3,0.3c-1.8,0.4-3.4,1.2-4.6,2.5l-17.3,7.7
					l-89.8,40l-3.1,1.4l1.3,3.2l1.3,3.3l1.3,3.2l3.2-1.2l33.4-12.3l-1.4,1.1l-19,15.5l22.6-9.5l23.8-10l-2.6,2.5l-1.4,1.4l0.5,1.9
					l0.2,1l0,0l0,0c1.5,6.2,5.3,12.7,9.7,16.7c2.5,2.3,5.3,4.3,7.6,6l0,0l0,0c1.4,1,2.8,2,4.1,2.9c-15.8,7.3-31,15.9-44.3,23.5
					l-20.9,12l-15.1,8.7l17.3-2.1l48.1-5.9c0,4.1,0.2,8.3,0.5,12.6c0.7,8.9,2.2,17.8,4.3,26.4c2.2,8.7,5.1,17.2,8.7,25.3
					c2,4.6,4.3,9.3,6.9,14.4l-10.8,64.6l-0.9,5.6l-0.7,4.1h4.2h5.7h46.4c1.7,2.6,3.3,5.1,4.9,7.5l1.2,1.8l-0.1,0.6l-3.5,21.3
					l-2.6,15.7l9-13.1l8.5-12.4l15.8-12.6L2038,300l45.1-36l10.7-8.6l7.9-6.3h-10.1h-13.7h-0.2l6.5-8.6l5.9-7.7l4.3-5.7h-7.1h-0.2
					c4.7-7.5,9-15.5,12.7-24c4.4-10,8.1-20.7,11-31.8c2.2-8.2,3.8-16.3,5-24.3c0.4-2.8,0.9-6.4,1.1-10l0,0l0.1-1.6l0.1-1.2l-0.6-1
					l-0.9-1.4l0,0l0,0c-4.3-6.4-12.2-13-18.3-17.1c-6.3-4.2-13.3-7.7-20.8-10.4c0.1-2.5-0.3-5-1.3-7.1c-0.5-1.2-1.3-2.5-2.1-3.6
					c6.6-6,9.2-11.4,9.3-11.7l2.7-6l-3.6,0.5l2.7-4.7l2.4-4.2l-4.7-1c-0.3-0.1-7-1.5-12.6-1.5c-0.4,0-0.9,0-1.3,0
					c-4.5,0.2-6.2,0.4-8,0.7c-0.4,0.1-0.8,0.1-1.3,0.2l-2.1,0.2l-2.2-2.2l-7-7l0.6,6.6c-3.4-1.9-7.5-3.2-10.4-4l-3.5-1l-3.4-0.9
					l-0.1,0.4c-0.3-0.1-0.6-0.2-0.9-0.3l0,0l0,0l-0.2-0.1l-0.2-0.1h-0.2h-0.2c-1-0.2-1.9-0.4-2.8-0.5l-10-1.5l-9.7-1.5l6.5,7.3
					l0.1,0.1c-1.1-0.1-2.3-0.1-3.4-0.1c-1.5,0-2.9,0.1-4.3,0.2l-15.1,1.4c0.5-1.5,0.7-3.1,0.7-4.9l0,0l0,0c0-0.5-0.1-1-0.1-1.5
					l33.5-16.3l3-1.4l-1.2-3.1l-1.3-3.2L2023.8,29.7L2023.8,29.7z M1985,68.8C1985,68.8,1985.1,68.8,1985,68.8l3.7,1.2l12,4.5
					c-1.2,0.9-2.3,1.7-3.1,2.3l0,0l-0.3,0.2c-0.7,0-1.4-0.1-2.1-0.1c-0.1,0-0.2,0-0.4,0c-5.3,0.1-12.1,2-17.4,4.9l-8.6,4.7l-5.8-4.7
					l0.4,3.6c-1.5-0.6-3-1.2-4.4-1.6c1.7-2.9,3.6-5.8,5.4-8.5c0.3,0.2,0.7,0.4,1,0.5c1.1,0.4,2.3,0.7,3.9,0.7c1.5,0,3-0.2,4.1-0.3
					h0.1l0,0c1.5-0.2,3.4-0.4,5.1-0.8C1982.3,74.6,1984.1,71.2,1985,68.8L1985,68.8z M2065.6,76c0.9-0.1,1.6-0.2,2.3-0.2l-1.1,2.2
					c0-0.1-0.1-0.1-0.1-0.2C2066.3,77.2,2066,76.6,2065.6,76L2065.6,76z"/>
				<path class="st1" d="M1977.1,14.4c18.3,1.9,6.5,14.5-3.5,20.7c-5.8,3.6-10.4,6.4-10.4,6.4l2.5-4.1c-1.5,1.5-10.1,5.9-7.4,8
					l-3.2,2.7l-0.2,0.3c-7.9-10.6,10.5-7.9,16.3-22.7c0,0-0.6,3.6-1.3,5.7c-0.8,2.2-2.1,4.7-2.1,4.7
					C1976.8,32.2,1994.3,18.1,1977.1,14.4 M1979.7-6.5l-11.9,30.9c-2.2,5.8-6.8,8.4-10.8,10.7c-3.5,2-6.7,3.8-7.5,7.5
					c-0.5,2.4,0.3,5,2.5,8l0.9,1.2l-0.2,0.4l0.3-0.2l1.8,2.4l2.8-3.8l2.9-2.4l3.3-2.8l0,0l1.3-0.8c0,0,4.6-2.8,10.4-6.4
					c3.9-2.4,7.6-5.4,10.2-8.3c3.7-4.1,5.2-7.9,4.4-11.3c-0.4-1.6-1.4-3.8-4.4-5.4c-2-1.1-4.7-1.9-8.2-2.2l-1.1,7
					c2.3,0.5,3.5,1.1,4,1.5s0.5,0.6,0.5,0.7c0.1,0.7-0.8,3-4.5,6.3c-0.7,0.6-1.4,1.2-2.1,1.7c0.2-1,0.3-1.7,0.3-1.9L1979.7-6.5
					L1979.7-6.5z"/>
			</g>
			<g>
				<g id="_2520766580608_2_">
					<g>
						<path class="st0" d="M1923.6,150.5l-52.2,6.4l20.9-12c21.3-12.3,43.1-24.3,66.4-32.6c26.2-9.3,52-12.9,79.8-11.7
							c19.9,0.9,40,5.9,56.8,17.1c5.8,3.9,13.4,10.2,17.3,16.1l0.9,1.4l-0.1,1.6c-0.2,3.2-0.6,6.5-1.1,9.7c-1.2,8-2.8,16-4.9,23.9
							c-6.2,23.7-16.4,46.9-31.3,66.5c-15,19.8-32.5,38.2-50.8,55c-6.1,5.6-12.3,11-18.6,16.3c-2.5,2.1-5,4.1-7.5,6.1l-4.1,3.2
							l-2.9-4.4c-4-6.1-7.9-12.2-11.8-18.3c-8.4-13.3-16.6-26.8-24.4-40.5c-6.8-11.9-13.5-24.3-19.1-36.9
							c-7.1-15.9-11.3-33.2-12.7-50.5c-0.4-5.4-0.6-10.8-0.4-16.1C1923.6,150.7,1923.6,150.6,1923.6,150.5z"/>
						<path class="st6" d="M2106.1,137.2c-3.1-4.1-22.3-27.3-68-29.4c-28.8-1.3-52.6,2.8-75.1,10.6c-19.4,6.7-37.7,16.1-57.3,27.2
							l25.8-3.2l-0.3,2.9c0,0.1-4,33.1,12.1,69.3c14.5,32.6,46.4,82,53.4,92.6c8.7-6.9,45.1-36.8,73.7-74.5
							C2100.4,192.9,2105.5,143.9,2106.1,137.2z"/>
						<g>
							<path class="st7" d="M2103.7,153.7c1.6-8.5,2.2-14.4,2.4-16.5c-1-1.4-3.9-5-9-9.1l-22.6,11.3L2103.7,153.7z"/>
							<path class="st7" d="M1963.9,192.9l-26.7,5.9c1.6,5.1,3.5,10.4,5.9,15.8c14.5,32.6,46.4,82,53.4,92.6
								c8.7-6.9,45.1-36.8,73.7-74.5c18-23.7,27.1-50.7,31.6-70.1L1963.9,192.9z"/>
							<path class="st7" d="M1931.1,145.2c0,0.1-2.1,17.4,2.9,40.8l88.8-50l-38.3-21l5.8-4c-9.5,1.8-18.5,4.3-27.3,7.3
								c-19.4,6.7-37.7,16.1-57.3,27.2l25.8-3.2L1931.1,145.2z"/>
						</g>
						<polygon class="st0" points="1981.6,46.6 2021.7,34 2023,37.2 1983.2,56.5 						"/>
						<polygon class="st8" points="1983.7,47.9 2020.6,36.3 1984.7,53.8 						"/>
						<path class="st0" d="M2061.2,136.7c0.5,1.3,1.2,3.2,1.5,4.6c0.2,0.1,0.4,0.2,0.7,0.2c3.3,1,8.4,5,5.4,8l1.1,0.7l0.2,0.2
							c4.2,3.7,8.5,8.3,11.9,12.7c1.4,1.9,2.7,3.9,3.9,5.9c2.1,3.8,2.5,8.7,2.4,13c-0.1,5.2-1.1,11.3-2.6,16.3l-0.5,1.8l0,0l0.5,0.3
							l0.4,1.5c1.2,4.9,1,11.5-0.6,16.2c-1,3-2.4,5.8-3.8,8.6c-0.4,0.7-1.6,3.2-1.7,3.9c0.3,1.7-0.4,3.3-1.4,4.7l1.4-0.3l-5.7,3.9
							c-1.1,3.8-4.2,5.1-7.7,6.8c-5.7,2.8-20.4,8.2-26.6,6.7c-1.7-0.4-3.5-0.8-5.2-1.1c-0.5-0.1-1-0.2-1.5-0.2h-3.6l-0.3-17l3.3-0.4
							c0.7-0.1,2-0.5,2.7-0.8c2.7-1,5.2-2.6,7.3-4.4c2.4-2,5.9-5.8,7.1-8.7l0.6-1.7h0.1c-0.1-0.3-0.1-0.6-0.1-0.9
							c-0.2-2.8,0.7-6.9,1.3-9.7c0.9-4.4,1.8-8.8,2.7-13.2c-2.5,1.2-5.2,2.4-7.7,3.3l0,0c0,0-10.8,11.9-11.9,17.3
							c-1.1,5.4,2.9,14.7,2.9,14.7s-11.4,2.1-26.6,0.8s-36.3-8.3-36.3-8.3s-2.9-10.1-2.9-12.8s0-10.1-1-13.9
							c-1-3.8-2.6-7.1-5.3-25.9c-2.7-18.9,0-33.5,0-33.5l1.1,0.2V136c-2.9,0-6.1-1.2-8.3-2.2c-2.2-1-4.1-2.5-5.8-4.2
							c-1.9-1.9-3.5-4-5.1-6.1c-0.6-0.8-2-2.7-2.9-3.2c-4.1-2.4-8.2-5.2-12.1-8c-2.5-1.8-5-3.7-7.3-5.7c-4-3.6-7.4-9.6-8.7-14.8
							l-0.2-1l3.6-3.6c2-0.9,5.4-6,6.3-7.6c3.9-6.6,12.6-13.4,20-18.1l5.8-7.1l0.4-0.3c0.9-0.6,2.8-2,3.6-2.8
							c0.9-1.5,1.3-2.8,3.1-3.6c0.4-0.2,0.9-0.3,1.4-0.4c0.3,0,0.6-0.1,0.9-0.1c0.8-1.4,2.2-2.5,4-2.9c1.1-0.2,2.3-0.3,3.6-0.2
							c1.1-1,2.5-1.6,4.2-1.6c1.3,0,2.7,0.3,4,0.9c2-0.7,4.4-1.1,6.1-0.1c1.5,0.9,2,2.6,2.4,4.3c0.4,1.4,0.6,2.8,0.9,4.2
							c0.3,2,0.8,4.3,0.9,6.3c0.1,3.1-0.8,5.7-3.8,7.1c-0.5,0.2-1.1,0.4-1.6,0.5c-0.7,2.4-1.8,5.5-4.4,6c-1.5,0.3-3.2,0.6-4.8,0.8
							c-1.8,0.2-4.7,0.6-6.3-0.1c-1.3-0.6-2.2-1.6-2.7-2.8l-0.3,0.1l-1.3,1.9c-2.9,4.4-5.9,9-8.5,13.6c-0.1,0.2-0.2,0.4-0.4,0.6
							c4.3,1,9.9,2.9,13.6,5.4l0.3-0.2l-0.1-1.2l0.9,0.8l10.7-5.8c4.5-2.4,10.7-4.4,15.8-4.4c1.1,0,2.2,0,3.5,0.1l1.4-1.1
							c2-1.5,5.6-4.2,8.8-5.9c-1.2-0.5-2.4-1-3.6-1.5l-15-5.6l15.9-1.5c4.4-0.4,9.8-0.1,14.1,0.9c0.9,0.2,1.9,0.5,2.8,0.8
							c-0.1-0.1-0.1-0.1-0.2-0.2l-6.7-7.6l10,1.5c0.9,0.1,1.8,0.3,2.7,0.5h0.2l0.2,0.1c1.3,0.4,2.8,0.9,4.3,1.6l0.2-0.7l3.5,1
							c3.6,1,8,2.4,11.1,4.6c1.5,1.1,3,2.1,4.5,3.2l-0.4-4.4l7.2,7.2c3.1,3.1,6.2,8.1,6.7,12.6c0.2,1.3,0.1,2.7-0.1,4.2l1.6,1.9
							c1.5,1.7,3.5,4.3,4.4,6.4c1.6,3.7,1.2,8.2-0.5,11.9c-1.1,2.4-3.2,5.2-5.1,7.4c-0.3,0.4-0.6,0.7-0.9,1.1
							c-1.6,1.9-4.8,5.9-5.2,8.1C2059.6,130.1,2061.2,136.7,2061.2,136.7z M1971.7,92.6l-1.1,0.1l0.3,0.2L1971.7,92.6z"/>
						<path class="st9" d="M2032,97.7c0,0,1.7-6.1,7.5-4.6c5.9,1.4,11.8,10.3,11.8,10.3s3.8-4.2,7.1-1.8c3.3,2.5,0.6,10.4,0.6,10.4
							s1.6,2.9,1.1,5.4s-7.8,3.9-9.7,4.5s-3.2-1.9-3.2-1.9s-1.3,0.3-3.4,0.2c-2.1-0.1-15-12.3-15.4-14.4s5.3-4.5,5.3-4.5L2032,97.7z
							"/>
						<path class="st10" d="M2051.3,103.4c0,0,3.8-4.2,7.1-1.8c3.3,2.5,0.6,10.4,0.6,10.4s1.6,2.9,1.1,5.4s-7.8,3.9-9.7,4.5
							s-3.2-1.9-3.2-1.9s-1.3,0.3-3.4,0.2c-2.1-0.1-15-12.3-15.4-14.4c0,0,12.7,11.8,14.9,11.9c2.2,0.1,4.2-1.3,4.2-1.3
							s1.3,3.3,3,3.1c1.7-0.2,7.8-1.7,8.1-3.4c0.2-1.8-1.1-3.8-1.1-3.8s0.3-0.3,0.7-1.7c0.4-1.4,0.2-7.3-1.5-8.2
							C2055,101.5,2051.3,103.4,2051.3,103.4z"/>
						<path class="st9" d="M2030.2,112c0,0,2.2,7.5,5.5,9.4s5.3,1,5.3,1s-1.9,1.1-4.2,1.8c-2.4,0.7-3.1,0.6-3.1,0.6s3,0.3,5.4-0.2
							c2.5-0.5,6.3-2.5,6.3-2.5s0.9,1.6,1.9,2.3c1,0.7-0.6,6.8-0.6,6.8s1.6-2.3,1.8-4.4c0.2-2,0.3-2.4,0.3-2.4s1,1.3,4.2,1.2
							c3.1-0.1,4.3-2.3,4.3-2.3s0.8,4.4-1.3,6.6c-2.1,2.2-7.7,5-7.7,5h-1.8l2.1-2.4l-1-1l0.2,1.1l-3.1,2l-1.9-0.3c0,0-3.9-3.9-4-4.4
							c-0.1-0.6,1.6-2.6,1.6-2.6l-2.4,1.2l-4.4-0.8c0,0-2.9-2.6-4.7-7C2026.9,116.2,2030.2,112,2030.2,112z"/>
						<path class="st10" d="M2030.2,112c0,0,2.2,7.5,5.5,9.4s5.3,1,5.3,1s-1.9,1.1-4.2,1.8c-2.4,0.7-3.1,0.6-3.1,0.6s3,0.3,5.4-0.2
							c2.5-0.5,6.3-2.5,6.3-2.5s0.3,0.5,0.7,1.1l-1.2,0.5c0,0-4.4,2.6-7.9,2.3c-3.4-0.2-5.7-1-5.7-1l0,0c0,0,0.4-0.2,2-0.8
							c1.6-0.6,2.2-1.4,2.2-1.4s-2.9-0.6-4.7-4.2c-0.7-1.3-1.2-3.3-1.5-5.3C2029.8,112.5,2030.2,112,2030.2,112z M2047.1,130.7
							c0.5-0.8,1.2-2.4,1.4-3.7c0.2-2,0.3-2.4,0.3-2.4s1,1.3,4.2,1.2c3.1-0.1,4.3-2.3,4.3-2.3s0.8,4.4-1.3,6.6s-7.7,5-7.7,5h-0.9
							c0,0,4.1-2.1,7-4.9c3-2.8,1.7-3.4,1.7-3.4s-0.1,0.2-2.1,0.3c-2,0.2-4-0.4-4-0.4s0,0-0.7,1.7
							C2048.7,129.3,2047.6,130.3,2047.1,130.7z"/>
						<path class="st1" d="M2037.1,130c0,0-2.2-1.9-7.2-0.8c-5,1.2-7,5.6-10.3,8.6s-5.6,3.2-5.6,3.2s2.4,0.4,6.1-0.5
							c3.7-0.8,6.3-4.1,6.3-4.1s-0.2,0.8-1.1,2.1c-0.9,1.4-2.6,2.1-2.6,2.1s2.1-0.4,5.7-2.9s4.1-3.4,5.9-3.6
							c1.8-0.2,6.4,0.6,6.4,0.6s-0.9-1.7-2.8-2.4s-5.6-0.5-5.6-0.5s1.2-0.9,3.3-1c2-0.1,3,0.3,3,0.3L2037.1,130z M2031,138.6
							c0,0-1.8,2.2-6.1,3.8c-4.2,1.6-9.3,1-9.3,1s-2.1,3.8-2.3,5.9c-0.2,2.2,0.5,4.4,0.5,4.4s0.1-3.2,1.5-5.2
							c1.3-1.9,2.4-2.6,2.4-2.6s-1.7,2.1-1.8,7.1c0,1.9-0.1,3.4-0.1,4.5c0,0.8,0,1.6-0.1,2.5l0,0l0,0c0,0.2,0,0.4,0,0.5
							c-0.6,7-3.5,11.1-3.5,11.1l-5.1,5.4c0,0,10.2-2.6,14.5-8.6c4.3-6.1,2.7-12.6,2.7-12.6l2.3,4.7c0,0-1-2.6,1-8.1
							s5.4-9.8,5.4-9.8l-1.6-0.5c0,0-2.6,0.7-3.9,3.7s-1.8,9.5-1.8,9.5s-0.8-1.6-0.4-5.8s4.2-8.3,4.2-8.3s-6.6,3.4-8.4,7.9
							s-2.6,11.1-2.6,11.1s-0.6-7.4,1.3-11.5c1.9-4.2,8.8-7.4,9.9-8.4C2030.7,139.4,2031,138.6,2031,138.6z M2033.8,144.1
							c0,0-3.1,5.9-4.3,11.9c-1.2,5.9-1,8.8-1,8.8l-2.1-1.5c0,0-0.8,6.1-7.5,10.1s-14.5,6.2-14.5,6.2s17.8-2.7,25-6.2
							c7.3-3.4,7.9-9.7,7.9-9.7s0.5,1.2,0.2,4.1c-0.2,2.9-1,4.2-1,4.2s3-2.2,4-5c1-2.7,1-6.3-0.6-12.1c-1.7-5.8,0-10.1,0-10.1
							l-0.7-2.1l-2-0.2c0,0-1.7,3.3-0.4,8.2c1.3,5,2.5,6.3,2.5,8.4c0,2.1-0.4,3.2-0.4,3.2s0.3-1.8-1.2-5.4c-1.5-3.7-2.6-5.3-2.8-7.1
							c-0.2-1.8-0.2-1.8-0.2-1.8s-2.2,4.4-1.8,10.7s-3.5,9.8-3.5,9.8s2.1-3.5,2.4-8.4s0.2-9.4,0.8-12
							C2033.1,145.5,2033.8,144.1,2033.8,144.1z M2041,145.5c0,0-0.9,5,1.2,9.5c2.1,4.4,2.3,9.1,1.2,11.5c-1.1,2.4-1.3,2.6-1.3,2.6
							s5.8-4.5,5.4-9.2s-1.6-5.9-1.6-5.9s3.1,2.7,3.7,6c0.6,3.3,0.2,3.7,0.2,3.7s1.9-2.9,2.2-6.6c0.2-3.8-2.5-6.5-2.5-6.5
							s2.2,2.6,5.5,3.3s4.4-0.5,4.4-0.5s-4.2-0.4-7.6-3.4c-3.4-3-6.4-7.6-6.4-7.6s-0.2,0.4,1.2,2.8c1.4,2.4,3.8,4.1,3.8,4.1
							s-0.4,0.2-2.4-1.2c-2-1.4-3.8-3.8-3.8-3.8s-0.8,1.3,1.9,4.7c2.7,3.4,3.1,6.3,3.1,6.3s-1.3-2-3-4.2c-1.8-2.2-3.2-4.9-3.2-4.9
							s-0.8,3.4,1,7.1c1.8,3.8,0.8,7.3,0.8,7.3s0.7-3.8-1.2-6.7C2041.7,150.8,2041,145.5,2041,145.5z M2046.1,136.1c0,0,5.2,0,7.9,3
							c2.7,2.9,4.5,4.9,8.3,6c3.7,1.1,4.8,0.8,4.8,0.8s-3.2,4.4-8.7,3.9s-7-2.9-9.2-5.7s-4.3-5.1-4.3-5.1s3.2,0.8,6.3,3.1
							c3.2,2.3,5.6,3.6,5.6,3.6s-2-2.5-5.7-5.2c-3.8-2.7-6.7-4-6.7-4L2046.1,136.1z M2055.5,133.6c0,0,1.2,1.8,2.3,4.5
							c1.1,2.6,1.2,3.9,1.2,3.9s-3.4-4.2-5-5.3s-2.3-1.4-2.3-1.4l2.4-0.7c0,0,0.8,0.3,1.7,1.5s1,1.4,1,1.4L2055.5,133.6z
							 M2024.8,118.1c0,0-5.4,1.4-8.9,6.2c-3.5,4.9-4.2,12.2-4.2,12.2s0.5-1.8,1.9-3.4c1.4-1.7,2.2-2.3,2.2-2.3s0.2,1.9-2.2,5.6
							c-2.3,3.8-2.7,3.8-2.7,3.8s4.4-1.2,7.2-4c2.8-2.8,2.9-4.8,5.6-6.8c2.6-1.9,7.3-2.6,7.3-2.6l-1-0.9c0,0-2.5,0-5,0.7
							s-4.5,2.4-4.5,2.4s0.4-1.6,3.6-3.1s4.1-1.8,4.1-1.8s-2.6-0.8-5.1,0.1c-2.6,0.8-4.1,2-4.1,2s0.7-1.4,3.8-2.9
							c3.1-1.4,3.9-1.7,3.9-1.7s-2.8-0.6-6.2,1.5c-3.3,2.2-5.2,4.9-5.2,4.9s1.1-3.7,4.7-6s5.6-3.2,5.6-3.2L2024.8,118.1z
							 M2026.4,103.6c0,0-17-9.9-27.9-11.3c-11-1.4-23.3,3-23.3,3s12.7,0.6,16.3,1.5c3.6,1,3.7,1,3.7,1s-1.4-0.2-6.5-0.2
							s-8.5,0-8.5,0s4.8,4.2,16,9.9c11.2,5.7,21.1,4.9,21.1,4.9s-2,1.4-6,1.3s-15.3-3.6-15.3-3.6s4.6,6.9,14,7.7
							c9.4,0.8,16.2-2.1,16.2-2.1l0.8-1.2c0,0-3.7,0.3-7,1c-3.4,0.7-3.5,0.7-3.5,0.7s2.8-1.3,6.3-2.5s4.2-2,4.2-2
							s-10.5-2.6-14.1-3.7c-3.6-1-4.3-1.7-4.3-1.7s4.2,0.9,9.9,1.7c5.7,0.8,7.6,0.4,7.6,0.4s-3.3-2.6-7.3-4.4s-8.8-3.6-8.8-3.6
							s9.4,1.5,13.4,3.4s4,1.9,4,1.9L2026.4,103.6z M2002,82.6c0,0,8.1-6.2,10.8-6.6c2.7-0.3,8.2,4.2,10.8,7.9
							c2.6,3.8,7.2,15.8,7.2,15.8l-2.6-2.6l1,4.7c0,0-13.8-7.6-24.5-11s-23.8-2.5-23.8-2.5s7.2-3.9,14.1-4s17.4,2.7,21.4,4.5
							s6.3,3.6,6.3,3.6s-3.3-3.4-8.2-5.8c-5-2.4-10.8-2.7-10.8-2.7s7.1-3.4,9.8-3.1c2.7,0.2,8.8,7.4,8.8,7.4s-7.4-8.3-8.7-8.9
							C2012.2,78.6,2002,82.6,2002,82.6z M2041.5,89.4c0,0-10.1-13.3-16.8-17.5c-6.7-4.2-18.5-3-18.5-3s4.1,1.5,7.4,3.3
							c3.4,1.8,7.6,4.5,11,10s5.9,11.6,5.9,11.6s-0.5-7-1.5-8.8s-1.9-3-1.9-3s2.8,1.4,4.7,3.8c2,2.4,3.2,4.2,3.2,4.2s-2.3-6-4.8-9.2
							s-3.4-4.2-3.4-4.2s4.4,3.1,8.8,7.5C2040,88.2,2041.5,89.4,2041.5,89.4z M2058.9,98.6c0,0,4.1-6.6,3.4-11.9
							c-0.6-5.4-5.7-10.4-5.7-10.4l0.2,2.5c0,0-5.2-4.1-11-8.2c-2.4-1.7-6.2-3-10-4.1c0.1,0,4.4,1.4,6.1,4.1
							c1.7,2.8,2.9,6.2,2.9,6.2s-1.6-2.9-5.7-6.4s-11.3-5.7-11.3-5.7c-1.6-0.3-2.5-0.4-2.5-0.4s9.5,10.7,12.7,16s6.1,11,6.1,11
							s-0.3-3.4-1.9-6.8s-1.8-4.1-1.8-4.1s3.7,2.6,6.3,6.6c2.6,4.1,4,10.2,4,10.2s0.6-3.5-1.1-8.6c-1.8-5.1-3.7-7.5-3.7-7.5
							s2.8,1.3,5,6.7c2.2,5.4,2.4,9.5,2.4,9.5s1.4-4.1,1-7.9c-0.5-3.8-1-5.5-1-5.5s1.7,1.8,2.4,6.2c0.7,4.4-0.4,8.3-0.4,8.3
							s3.2-5.7,3.4-9.4c0.2-3.7-0.4-6.2-0.4-6.2s1.3,3.3,1.3,8.3C2059.4,96,2058.9,98.6,2058.9,98.6z M2062.2,117c0,0,4.2-4.6,5.8-8
							s1.4-6.8,0.5-8.9s-3.8-5.4-3.8-5.4s-0.2,2-1.4,4.4c-1.3,2.4-1.8,2.2-1.8,2.2l0.6,2.8c0,0,0.5,0,1.7-1.4s1.3-1.9,1.3-1.9
							s-0.3,1.6-1.5,4.2s-1.4,2.7-1.4,2.7l0.2,3c0,0,1.2-0.8,2.7-2.5c1.5-1.6,1.6-2.8,1.6-2.8s-0.3,1.8-1.4,4.4
							c-1.2,2.5-2.8,3.6-2.8,3.6L2062.2,117z"/>
						<path class="st7" d="M2012.6,139.7c2.3-1.5,5.5-4,6.4-6.2c1.4-3.4,2.2-3.8,2.2-3.8l-2.6,1.3c0,0,1-2.2,2.1-3.6
							s1.7-1.9,1.7-1.9s-3.8,1.4-4.9,2.3c-1.1,1-1.1,1-1.1,1s2.4-3.6,4.5-5.7c3.1-1.8,5.7-1.2,5.7-1.2s-0.8,0.3-3.9,1.7
							c-3.1,1.4-3.8,2.9-3.8,2.9s1.6-1.2,4.1-2c2.6-0.8,5.1-0.1,5.1-0.1s-1,0.2-4.1,1.8c-3.2,1.5-3.6,3.1-3.6,3.1s2-1.8,4.5-2.4
							c2.5-0.7,5-0.7,5-0.7l1,0.9c0,0-4.6,0.7-7.3,2.6c-2.6,1.9-2.7,3.9-5.6,6.8C2016.4,137.9,2014.2,139,2012.6,139.7z"/>
						<path class="st7" d="M2007,177.1c0,0,9.6-3.3,12.6-9.3s2.9-14.1,2.9-14.1l2.1,1c0,0-0.9-2.6-0.6-5.4c0.3-2.8,0.4-2.8,0.4-2.8
							s-2.3,3-3.8,7.2c-1,2.8-1.6,4.5-1.9,5.3c0.3-2.1,1.1-6.6,2.4-9.9c1.8-4.5,8.4-7.9,8.4-7.9s-3.8,4.1-4.2,8.3
							c-0.4,4.2,0.4,5.8,0.4,5.8s0.5-6.6,1.8-9.5c1.3-3,3.9-3.7,3.9-3.7l1.6,0.5c0,0-3.4,4.3-5.4,9.8s-1,8.1-1,8.1l-2.3-4.7
							c0,0,1.6,6.6-2.7,12.6C2017.1,174.6,2007,177.1,2007,177.1z M2018.5,159.6c0,0-0.8-7.4,0.3-10.6c1.1-3.2,2.4-4.3,2.4-4.3
							s-3.4-0.2-5.2-0.1c-0.4,0-0.7,0-1.1,0c0.4-0.8,0.7-1.3,0.7-1.3s5,0.6,9.3-1c4.2-1.6,6.1-3.8,6.1-3.8s-0.3,0.8-1.3,1.8
							c-1.1,1-7.9,4.3-9.9,8.4C2018.2,152.2,2018.4,157.7,2018.5,159.6z M2004.4,179.4c0,0,18.6-4.1,23.9-7.4
							c5.4-3.4,8.3-10.6,8.3-10.6s1.2,1.3,1.8,2.8c0.6,1.4,0.6,2,0.6,2s1.1-2,1.3-4.2c0.2-2.2-0.7-5.2-0.7-5.2l-0.3,1.9
							c-0.2-1.8-1.3-3.3-2.5-7.9c-1.3-5,0.4-8.2,0.4-8.2l2,0.2l0.7,2.1c0,0-1.7,4.3,0,10.1s1.7,9.4,0.6,12.1c-1,2.7-4,5-4,5
							s0.7-1.3,1-4.2c0.2-2.9-0.2-4.1-0.2-4.1s-0.6,6.2-7.9,9.7C2022.2,176.7,2004.4,179.4,2004.4,179.4z M2038.4,158.8
							c-0.5-0.8-1.1-1.8-1.8-3c-1.3-2.2-2.2-3.9-2.2-3.9s-1,3.8-0.5,7.4c0.4,2.8-2.3,6.5-3.5,8.1c1.1-1.5,2.8-4.5,2.5-8.7
							c-0.4-6.3,1.8-10.7,1.8-10.7s0,0,0.2,1.8s1.3,3.4,2.8,7.1C2038,157.6,2038.2,158.2,2038.4,158.8z M2029.8,168L2029.8,168
							L2029.8,168L2029.8,168z M2030,167.2c0.5-2,1.7-7.3,1.4-10.2c-0.2-2.4-0.2-5.4-0.2-7c1.2-3.4,2.6-5.9,2.6-5.9s-0.7,1.5-1.2,4
							c-0.5,2.6-0.4,7.1-0.8,12C2031.6,163.2,2030.6,165.8,2030,167.2z M2044,167.3c0.9-1.1,1.8-2.7,2.2-4.9
							c0.8-4.7-1.4-9.6-1.4-9.6s2.4,0.4,3.8,2.7c1.5,2.4,1.9,3.3,1.9,3.3s0-2.4-0.6-5.4c-0.5-3-1.6-3.9-1.6-3.9s1.8,1.3,4.8,2.4
							c1.2,0.4,2.5,0.6,3.5,0.7c1.5,0.5,2.5,0.6,2.5,0.6s-1.1,1.2-4.4,0.5c-3.3-0.7-5.5-3.3-5.5-3.3s2.7,2.7,2.5,6.5
							s-2.2,6.6-2.2,6.6s0.4-0.4-0.2-3.7c-0.6-3.3-3.7-6-3.7-6s1.2,1.2,1.6,5.9C2047.8,162.8,2045.7,165.6,2044,167.3z"/>
						<g>
							<path class="st7" d="M2037.1,130c0,0-0.1-0.1-0.2-0.2c-0.4-0.1-0.7-0.1-1.1,0c-3,0.4-6,2.8-6,2.8s0,0,1.5-0.2
								s3.9,0.5,3.9,0.5s-0.7,0-3.5,0.9s-4.5,2.8-4.5,2.8l0.6-2.3c0,0-0.1,0.4-3.9,3c-3.8,2.7-7.6,3.7-7.6,3.7
								c1-0.1,2.3-0.2,3.8-0.5c3.7-0.8,6.3-4.1,6.3-4.1s-0.2,0.8-1.1,2.1c-0.9,1.4-2.6,2.1-2.6,2.1s2.1-0.4,5.7-2.9s4.1-3.4,5.9-3.6
								c1.8-0.2,6.4,0.6,6.4,0.6s-0.9-1.7-2.8-2.4s-5.6-0.5-5.6-0.5s1.2-0.9,3.3-1c2-0.1,3,0.3,3,0.3L2037.1,130z M2046.1,136.1
								c0.6,0,4.6,2.3,7,4.9c2.4,2.6,4.5,5.2,4.5,5.2s-1,0-3.1-0.8c-2.2-0.8-3.6-1.6-3.6-1.6s2.3,3.5,6.9,4.2
								c4.6,0.7,9.4-2.1,9.4-2.1s-3.2,4.4-8.7,3.9s-7-2.9-9.2-5.7s-4.3-5.1-4.3-5.1s3.2,0.8,6.3,3.1c3.2,2.3,5.6,3.6,5.6,3.6
								s-2-2.5-5.7-5.2c-3.8-2.7-6.7-4-6.7-4L2046.1,136.1z M2045.8,142.8c-0.1-0.1-0.2-0.3-0.4-0.4c0-0.1,0-0.1,0-0.1
								S2045.5,142.5,2045.8,142.8z M2049.1,147.1c-0.2-0.3-0.5-0.5-0.7-0.8L2049.1,147.1z"/>
						</g>
						<path class="st7" d="M2023.6,83.9l2,8.4c0,0-3.4-4.1-8.7-6.4c-5.4-2.3-13.3-2-13.3-2s5.8,0.3,10.8,2.7
							c3.9,1.9,6.8,4.4,7.8,5.4l0,0l0,0c0.3,0.2,0.4,0.4,0.4,0.4s0,0-0.2-0.1l3.5,3.9l0.5,1.9c0,0-13.7-6.6-21-8.6
							c-7.3-1.9-16.7-1.2-16.7-1.2l0,0c4.6,0.2,10.5,0.8,15.8,2.5c10.7,3.4,24.5,11,24.5,11l-1-4.7l2.6,2.6
							C2030.8,99.7,2026.2,87.7,2023.6,83.9z M2025.1,102.9c-3.9-1.3-10.8-3.4-13.5-3.4c-3.8,0-5.3,0.1-5.3,0.1l12.7,7
							c0,0-6.7-1.5-11.7-2.2s-6.6-1.1-6.6-1.1l9.3,6.6c0,0-3.9-0.4-12.7-3.6c-8.8-3.2-17-8.9-17-8.9s0.6,0.6,1.6,1.4
							c2.3,1.7,6.9,4.8,14.2,8.5c11.2,5.7,21.1,4.9,21.1,4.9s-0.1,0.1-0.4,0.2l0,0c2-0.1,4.1-0.3,4.1-0.3s-3.5,2.3-9,3.6
							c-5.5,1.2-13.7-3.3-13.8-3.3c2.2,2.1,6.2,4.7,11.8,5.2c9.4,0.8,16.2-2.1,16.2-2.1l0.8-1.2c0,0-3.7,0.3-7,1
							c-3.4,0.7-3.5,0.7-3.5,0.7s2.8-1.3,6.3-2.5s4.2-2,4.2-2s-10.5-2.6-14.1-3.7c-3.6-1-4.3-1.7-4.3-1.7s4.2,0.9,9.9,1.7
							c5.7,0.8,7.6,0.4,7.6,0.4s-3.3-2.6-7.3-4.4s-8.8-3.6-8.8-3.6s9.4,1.5,13.4,3.4s4,1.9,4,1.9l-1-2.1
							C2026.4,103.6,2025.9,103.3,2025.1,102.9z"/>
						<path class="st7" d="M2066.6,111.3c0.5-1.4,0.9-2.7,0.9-3.6c0.2-3.1-0.3-4.3-0.3-4.3l-2.4,2.6c0,0,1.1-2.2,1.2-4.2
							c0.1-1.4-0.3-4.4-0.6-6.1c-0.5-0.6-0.8-1-0.8-1s-0.2,2-1.4,4.4c-1.3,2.4-1.8,2.2-1.8,2.2l0.6,2.8c0,0,0.5,0,1.7-1.4
							s1.3-1.9,1.3-1.9s-0.3,1.6-1.5,4.2s-1.4,2.7-1.4,2.7l0.2,3c0,0,1.2-0.8,2.7-2.5c1.5-1.6,1.6-2.8,1.6-2.8s-0.3,1.8-1.4,4.4
							c-1.2,2.5-2.8,3.6-2.8,3.6l-0.3,3.6C2062.2,117,2064.8,114.2,2066.6,111.3z M2061.3,93.5c0-2.6-0.2-6.4-1.1-8.5
							c-1.5-3.4-3.5-4.2-3.5-4.2s0.8,3.6,0.7,6.4s-0.3,3.7-0.3,3.7s-0.4-4-2-7.1s-5.5-5-5.5-5s1.2,2.3,1.9,4.4
							c0.8,2.2,0.8,3.5,0.8,3.5s-1.8-3.3-4.3-5.8c-2.5-2.4-5.8-3.3-5.8-3.3l2.8,4.8c0,0-2.8-2.2-4.9-3.6c-2-1.4-5.4-3.4-5.4-3.4l0,0
							c1.3,1.7,2.5,3.4,3.3,4.7c3.2,5.3,6.1,11,6.1,11s-0.3-3.4-1.9-6.8s-1.8-4.1-1.8-4.1s3.7,2.6,6.3,6.6c2.6,4.1,4,10.2,4,10.2
							s0.6-3.5-1.1-8.6c-1.8-5.1-3.7-7.5-3.7-7.5s2.8,1.3,5,6.7c2.2,5.4,2.4,9.5,2.4,9.5s1.4-4.1,1-7.9c-0.5-3.8-1-5.5-1-5.5
							s1.7,1.8,2.4,6.2c0.7,4.4-0.4,8.3-0.4,8.3s3.2-5.7,3.4-9.4c0.2-3.7-0.4-6.2-0.4-6.2s1.3,3.3,1.3,8.3c0,3-0.2,5.1-0.4,6.4
							c-0.1,0.8-0.2,1.2-0.2,1.2S2060.3,96.4,2061.3,93.5z M2041.5,89.4c0,0-8.5-9.4-11.3-11.4c-2.8-2.1-6.7-3.6-6.7-3.6
							s1.8,1.8,3.1,3.6c1.3,1.8,2.3,3.4,2.3,3.4l-3.6-2l1.3,3.8c0,0-1.5-2.1-4-4.9s-5.8-4.1-5.8-4.1l0,0c2.6,1.8,5.4,4.3,7.8,8.1
							c3.4,5.5,5.9,11.6,5.9,11.6s-0.5-7-1.5-8.8s-1.9-3-1.9-3s2.8,1.4,4.7,3.8c2,2.4,3.2,4.2,3.2,4.2s-2.3-6-4.8-9.2
							s-3.4-4.2-3.4-4.2s4.4,3.1,8.8,7.5C2040,88.2,2041.5,89.4,2041.5,89.4z"/>
						<path class="st8" d="M2037.1,130c0,0-2.2-1.9-7.2-0.8c-5,1.2-7,5.6-10.3,8.6s-5.6,3.2-5.6,3.2s1,0.1,2.7,0
							c1-0.3,2.1-0.8,3.2-1.5c4-2.4,6.6-7.4,11.1-8.9s7.6,0.5,7.6,0.5L2037.1,130z M2018.3,123.5L2018.3,123.5c0,0-0.3,0.2-0.9,1
							c-1.5,1.9-2.1,3.6-2.1,3.6c-1.7,3.8-2.7,6.1-2.7,6.1l0,0c-0.8,1.2-1,2.3-1,2.3s0.7-7.3,4.2-12.2c3.5-4.9,8.9-6.2,8.9-6.2
							l0.8,0.9c0,0-2,0.9-5.6,3.2C2019.4,122.6,2018.8,123.1,2018.3,123.5z"/>
						<path class="st8" d="M1975.1,95.3c0,0,13.2-2.5,25.1-0.7c11.9,1.9,27.1,11.1,27.1,11.1l0,0l-1-2.1c0,0-17-9.9-27.9-11.3
							C1987.5,91,1975.1,95.3,1975.1,95.3z M1985.9,88.1c2.8-1.1,8.9-2.9,16.5-1.7c10.6,1.7,19.1,5.1,19.1,5.1l0,0l0,0
							c-0.1,0-0.8-0.5-2-1.2c-0.9-0.5-2-1.1-3.2-1.6c-4-1.8-14.5-4.6-21.4-4.5s-14.1,4-14.1,4S1982.8,88.1,1985.9,88.1z M2002,82.6
							c0,0,9.2-5.3,12.3-4.6c3.1,0.8,7.2,3.4,7.3,3.4c-2.8-3-6.6-5.7-8.7-5.4C2010.1,76.3,2002,82.6,2002,82.6z M2010.6,70.7
							c3.2,0.1,9.8,0.5,14.1,2.9c5.8,3.2,12.7,10.7,12.7,10.8c-3.5-4.2-8.7-9.9-12.7-12.4c-6.7-4.2-18.5-3-18.5-3
							S2008.2,69.6,2010.6,70.7z M2027.8,67.3c0,0,4.2,0.3,8.8,3.5c4.6,3.2,8.2,6.1,8.2,6.1l0,0l0,0c0,0,0-0.1-0.1-0.2
							c-0.5-0.8-2.1-3.2-5.5-6.2c-4.1-3.5-11.3-5.7-11.3-5.7c-1.6-0.3-2.5-0.4-2.5-0.4S2026.3,65.5,2027.8,67.3z M2041.8,70.5
							c3.9,2.1,9.5,5.2,11.7,6.4l3.5,1.9c0,0-5.2-4.1-11-8.2c-2.4-1.7-6.2-3-10-4.1C2036,66.6,2040,67.9,2041.8,70.5z"/>
						<path class="st9" d="M2067.7,153.3c0,0,10.2,9,14.9,17.6c4.6,8.7-0.5,26.6-0.5,26.6s-3.8,1.4-10.9-7c-7.1-8.5-9-15.9-9-15.9
							s1.2,10.8,7.5,18.3c6.2,7.5,12.7,10,12.7,10s1.8,7.5-0.5,14.2c-2.2,6.7-6.1,11.4-5.6,14.3c0.5,2.9-10.6,10.1-10.6,10.1
							l9.1-1.6c0,0-1.3,4.6-5.8,6.9c-4.5,2.2-22.6,3.8-28.3,2.4c-5.8-1.4-7.5-1.4-7.5-1.4l-0.2-10.1c0,0,5.6-0.6,12-6.1
							c6.4-5.4,8.2-10.2,8.2-10.2s3-1,9.9,1.4c6.8,2.4,7,10.4,7,10.4s1-5.1-1.8-8.8s-13.7-6.2-13.7-6.2s-1.4,0.8,0.8-9.6
							c1-5,2-10,2.8-13.8c0,0,1.8-5.8,1.9-9.2c0.1-3.4-3.2-9.4-3.2-9.4s2.4,8.4,0,11s-12.6,7.7-12.6,7.7l0,0c-1,0.4-2.1,0.7-3.2,1
							c-9.9,2.9-19.1-1.6-25.3-5.3s-7.6-7.4-7.6-7.4s6.1,1,26.2-6c20.1-7,26.8-18.4,28.3-21.6c1.5-3.2,1.9-4.2,1.9-4.2L2067.7,153.3
							z"/>
						<path class="st10" d="M2064.1,182.3c1.1,3.4,2.9,7.3,5.6,10.6c6.2,7.5,12.7,10,12.7,10s1.8,7.5-0.5,14.2
							c-2.2,6.7-6.1,11.4-5.6,14.3c0.5,2.9-10.6,10.1-10.6,10.1l9.1-1.6c0,0-1.3,4.6-5.8,6.9c-4.5,2.2-22.6,3.8-28.3,2.4
							c-5.8-1.4-7.5-1.4-7.5-1.4l-0.1-3.8c3.6,0.9,9.5,2,16.5,2.1c11.5,0.2,15.2-2.7,15.2-2.7l-4.8-1.4c0,0,5.9-2.6,8.8-5.8
							c2.9-3.2,6.6-8.5,8.2-15.2c1.6-6.7,2.6-16.2,2.6-16.2s-4.8-2.1-9.3-7.4C2065.9,192.1,2064.1,182.3,2064.1,182.3L2064.1,182.3z
							 M2009.2,184.8c-0.7-1-0.9-1.6-0.9-1.6s3.1,0.5,12.2-1.8h0.2l0.4-0.1l0.2-0.1l0.4-0.1l0.2-0.1h0.1l0.3-0.1l0.2-0.1
							c0.1,0,0.3-0.1,0.4-0.1l0.2-0.1l0.4-0.1l0.3-0.1l0.4-0.1l0.3-0.1h0.1l0.4-0.1l0.3-0.1c0.2,0,0.3-0.1,0.5-0.1l0.2-0.1
							c2.5-0.7,5.2-1.6,8.3-2.7c20.1-7,26.8-18.4,28.3-21.6c1.4-2.9,1.8-4,1.9-4.2l1.5,0.9c-6.4,16.5-20.1,26.1-35.9,30.2l6.7,11.2
							c0,0,11.3-2.7,15.4-6.7s4.5-10.8,4.5-10.8s0.2,0.8,0.5,2c0.6,2.6,1.2,7.2-0.5,9c-2.4,2.6-12.6,7.7-12.6,7.7l0,0
							c-1,0.4-2.1,0.7-3.2,1c-7.5,2.2-14.6,0.1-20.3-2.6l-0.5-8.9C2016.6,184.7,2012.9,184.9,2009.2,184.8z M2070.2,230.4
							c-0.1-1.8-0.5-4.2-2-6.1c-2.8-3.7-13.7-6.2-13.7-6.2s-0.6,0.3-0.4-2.4c3.7,0.6,9.4,1.9,12.6,4.4
							C2070.3,222.8,2070.5,227.8,2070.2,230.4z"/>
						<path class="st8" d="M2067.7,153.3c0,0,10.2,9,14.9,17.6c3.5,6.6,1.4,18.6,0.2,23.9c0-0.1,1.5-9.2-2-21
							c-2.8-9.7-14-16-18.1-18l0.1-0.1c1.5-3.2,1.9-4.2,1.9-4.2L2067.7,153.3z"/>
						<path class="st9" d="M1957.8,65.2l2.5,1.8c0,0-2.6,0.6-6.7,5.8c-4.1,5.2-5.9,9.1-5.9,9.1s1.9-3.9,6-7.5s5.8-4.6,5.8-4.6
							s-5.8,8.7-8.6,13.9c-2.9,5.1-1.4,4.4-7.7,7.7c-6.2,3.3-9.6,2.6-9.6,2.6s-0.6,2.5,7.8-0.1s10.1-4.6,10.1-4.6s10.9,2.3,15.2,6.2
							c4.3,3.8,3.8,7,7.8,13c4,5.9,9.3,7.3,9.3,7.3s-4.1-2.6-7.5-7.9s-3.9-9.3-3.9-9.3s11.5,9.1,19.2,15.3c2.7,2.1,4.9,3.8,6.1,4.7
							c4.6,3.5,11.2,4.5,11.2,4.5l2.7,0.5c0,0-5.7,4.6-4.9,14.7s4.3,16.2,4.3,22.1c0,5.9-3.6,10.6-7.4,14.6
							c-3.8,3.9-6.7,4.4-7.8,4.4c-1.1,0-15.1-3.5-19-17.1c-3.8-13.6-0.3-30.4-0.3-30.4s-1.9,3.8-3,9.4c-1.1,5.6-1.1,5.9-1.1,5.9
							s-2.7-15.7-2.7-23c0-7.4,1.3-11.7,1.3-11.7l-2.9,5c0,0-6.6-4.2-11.8-5.6s-6.4-1.1-10.7-4.5c-4.3-3.4-6.1-6.1-6.1-6.1
							s1.6,6.9,11.2,11.4s11.3,5.8,13.8,7.8c2.6,2,4.9,11.9,4.9,11.9s-2.6,1.6-9-1.4s-10-11.4-13.5-13.4c-3.4-2-13.2-8.3-18.8-13.3
							c-5.6-5-7.5-13-7.5-13s3.5,0.3,9.3-9.4c5.8-9.8,23-19.4,23-19.4L1957.8,65.2z"/>
						<path class="st10" d="M1957.8,65.2l2.5,1.8c0,0-2.6,0.6-6.7,5.8c-4.1,5.2-5.9,9.1-5.9,9.1s1.9-3.9,6-7.5s5.8-4.6,5.8-4.6
							s-5.8,8.7-8.6,13.9c-2.9,5.1-1.4,4.4-7.7,7.7c-6.2,3.3-9.6,2.6-9.6,2.6s-0.1,0.4,0.3,0.7c-2.8,0.2-4.4-0.1-4.4-0.1
							s1.2-0.1,5-1.4s9.8-3.8,11.9-5.4c2.1-1.5,4-7,4-7L1945,85c0,0,0.6-3.5,2.5-7.6s7.6-9.8,7.6-9.8l-13.7,2.2l0,0l14.2-5.8
							L1957.8,65.2z"/>
						<path class="st10" d="M1974.1,104.3c-1.6-3.4-1.9-5.7-1.9-5.7s11.5,9.1,19.2,15.3c2.7,2.1,4.9,3.8,6.1,4.7
							c4.6,3.5,11.2,4.5,11.2,4.5l2.7,0.5c0,0-5.7,4.6-4.9,14.7c0.6,7.4,2.6,12.6,3.7,17.2l-26.8,13.1c0,0-1.1-9.1-0.3-14.7
							c0.8-5.6,3.7-16.7,3.7-16.7s-0.5-1.9-1.8-7.8c-1.3-5.9-0.2-16.7-0.2-16.7L1974.1,104.3z M1974.9,135.1
							c-0.2,0.7-0.5,1.4-0.7,2.2l0,0l0,0c-0.2,0.8-0.5,1.7-0.7,2.7l-1.5,6c-0.6-3.7-2.5-15.8-2.5-21.9c0-7.4,1.3-11.7,1.3-11.7
							l-2.9,5c0,0-6.6-4.2-11.8-5.6s-6.4-1.1-10.7-4.5c-4.3-3.4-6.1-6.1-6.1-6.1s1.6,6.9,11.2,11.4s11.3,5.8,13.8,7.8
							c2.6,2,4.9,11.9,4.9,11.9s-2.6,1.6-9-1.4s-10-11.4-13.5-13.4c-3.4-2-13.2-8.3-18.8-13.3c-5.6-5-7.5-13-7.5-13s5.1,8,9.6,11.1
							c4.5,3,13.4,10.6,16.2,11.8s10.6,11.4,13.6,13c3,1.5,4.1-1.8,2.4-3.9s-12.5-7.8-18.1-12.6c-5.6-4.8-6.8-13.4-6.8-13.4
							s4.6,6,9.8,8.6c5.2,2.6,13.2,3.9,16.3,5.2c3,1.3,4,1.9,4,1.9l4.6-2.1c0,0-0.1,10.2,0.2,15.2c0.3,5,0.7,7.3,0.7,7.3l4.7-6.3
							L1974.9,135.1z"/>
						<path class="st8" d="M1999.9,177.8c-2,1.3-3.6,1.5-4.3,1.5c-1.1,0-15.1-3.5-19-17.1c-3-10.7-1.5-23.5-0.7-28.4
							c-0.7,4.8-1.6,17.3,5.2,28.9C1989.9,177.3,1999.9,177.8,1999.9,177.8z"/>
						<path class="st8" d="M1948,91.4c2.7-1.3,3.4-2.1,3.4-2.1s10.9,2.3,15.2,6.2c4.3,3.8,3.8,7,7.8,13c3,4.4,6.6,6.3,8.3,6.9l0,0
							c0,0-4.5-0.3-8.8-4.9s-5.3-9.2-10-13.1C1960,94.2,1951.3,92.1,1948,91.4z"/>
						<path class="st9" d="M1990.4,192.6c-0.2,0.5-2.4,3.7-1.5,7.5s10.1,7,12.9,7.5c2.8,0.6,6.6-2.2,7-4c0.3-1.8-0.4-6.6-0.6-8.2
							c-0.2-1.7-2.1-4.6-4-5.3c-1.9-0.6-3.4-2.6-9.1-5.8c-5.8-3.2-15.2-10.1-15.2-10.1s0.2,1.4,6.6,6.9s9.6,7.4,9.6,7.4
							s-1.4-0.6-7.5-3.8c-6.2-3.2-8.7-5-8.7-5s4,6.2,8.7,8.9c4.6,2.7,8.2,4.2,8.2,4.2L1990.4,192.6z"/>
						<path class="st9" d="M2010.8,193.4c0,0,0,3.1,0.2,7.5s-1,5.8-0.8,6.5s10.4,4.8,12.9,4.1s2.9-5.3,2.2-6.5
							c-0.6-1.2-3-4.3-6.9-7.4c-3.9-3.1-5.1-4.2-6-4.4C2011.6,193,2010.8,193.4,2010.8,193.4z"/>
						<path class="st9" d="M2008.8,211.7c0,0,5.5-1.1,8.7,0.1c3.1,1.2,6,3.9,6.2,7s0.4,6.7-1.3,7.2c-1.7,0.5-13.1-2.6-13.9-4.8
							C2007.6,219,2008.8,211.7,2008.8,211.7z"/>
						<path class="st9" d="M1991.7,209c0,0,8.2-1.3,10.6,0.1s4.4,5.1,4.6,7.9c0.2,2.8-1.1,5.7-2.2,6.5c-1,0.8-3.4,0.5-6.4,0.3
							s-6.6-1.3-8.6-3.4c-2-2.1-1.4-4-0.8-6.8C1989.6,210.9,1991.7,209,1991.7,209z"/>
						<path class="st9" d="M1954.7,57.4c0,0,3.9-2.7,4.6-3.8c0.6-1,1-2.3,1.8-2.4c0.9-0.1,3.4-0.3,3.4-0.3s-0.2-2.2,1.9-2.7
							c2.2-0.5,4.7,0.4,4.7,0.4s-0.1-2.1,2.2-2.1c2.3,0,3.5,1.3,3.5,1.3s3.8-1.5,4.6-1c0.8,0.5,2.3,9.8,2.4,11.8s-0.4,3-1.6,3.6
							s-3.1,0.1-3.1,0.1s1.4-1.6,1.4-2.4c0-0.9-1.4-10-2.3-9.9c-0.9,0.1,0.8,9.9,0.8,9.9s-2,3.1-2.8,3.7s-3.6,0.6-3.6,0.6
							s1.2-2.7,1.2-3.1c0-0.4-1.5-9.3-2.3-9.3s-0.6,2.6-0.1,5.1c0.6,2.4,0.9,4.6,0.9,4.6s-0.5,2.5-1.2,3c-0.7,0.6-4.4,0.8-4.7,0.3
							c-0.3-0.5-0.1-4.6-0.4-6s-1.4-3-1.5-3.3s-1,0.6-0.8,1c0.2,0.5,1.1,3.2,1.5,4.5s0.5,3.7,0.1,4.2s-2.1,0.9-3.2,0.9
							c-1,0-3.5-1.8-3.5-1.8l2.2-0.8c0,0-1.8-3.9-2.4-4.4s-4.9-0.2-4.9-0.2L1954.7,57.4z"/>
						<path class="st10" d="M1984,58.9c0,1.7-0.5,2.6-1.6,3.2c-1.2,0.6-3.1,0.1-3.1,0.1s1.4-1.6,1.4-2.4c0-0.1,0-0.2,0-0.4
							L1984,58.9z M1979,59.6v0.2c0,0-2,3.1-2.8,3.7c-0.8,0.6-3.6,0.6-3.6,0.6s1.2-2.7,1.2-3.1c0-0.1,0-0.3-0.1-0.7L1979,59.6z
							 M1972.2,60.5c0.1,0.5,0.1,0.8,0.1,0.8s-0.5,2.5-1.2,3c-0.7,0.6-4.4,0.8-4.7,0.3c-0.2-0.3-0.2-1.9-0.2-3.4L1972.2,60.5z
							 M1965.4,61.3c0.3,1.3,0.3,3.3,0,3.7c-0.4,0.5-2.1,0.9-3.2,0.9c-1,0-3.5-1.8-3.5-1.8l2.2-0.8c0,0-0.2-0.5-0.6-1.2l0.3-0.1
							L1965.4,61.3z"/>
						<path class="st8" d="M1954.7,57.4c0,0,3.9-2.7,4.6-3.8c0.6-1,1-2.3,1.8-2.4c0.9-0.1,3.4-0.3,3.4-0.3s-0.2-2.2,1.9-2.7
							c2.2-0.5,4.7,0.4,4.7,0.4s-0.1-2.1,2.2-2.1c2.3,0,3.5,1.3,3.5,1.3s3.8-1.5,4.6-1c0.2,0.1,0.4,0.7,0.7,1.6
							c-0.2,0.1-0.4,0.2-0.6,0.3c-1.1,0.1-4.6,1.2-4.6,1.2s-1.5-1.4-2.6-1.3c-1.1,0-1.4,2-1.4,2s-3.9-0.6-5.1,0.2s-0.1,1.6-1.5,2.4
							c-1.4,0.8-4.4,0.1-4.4,0.1s0,0.8-1,2.4c-1,1.6-4.5,3.1-4.5,3.1l-2.5-0.4L1954.7,57.4z"/>
						<path class="st10" d="M1979,63.8c0,0-1.2,4.4-1.9,4.5c-0.7,0.2-7.8,1.4-8.9,0.9c-1.2-0.5-0.8-2.8-0.8-2.8s7.3-1.2,9-1.6
							C1978.1,64.4,1979,63.8,1979,63.8z"/>
						<polygon class="st0" points="1909.3,78.2 1856,97.8 1854.6,94.5 1944.4,54.5 1932.4,66.3 1952.4,57.5 1959,58.5 1961.3,63.4 
							1891.4,92.7 						"/>
						<polygon class="st8" points="1952.6,59.4 1957.8,60.2 1958.8,62.4 1902.5,86 1919,72.6 1857,95.5 1935.8,60.4 1923.8,72.2 
													"/>
						<path class="st0" d="M2021.6,178.4h3.5l1.5,3.5c1.2,2.9,2.5,5.7,3.8,8.5c0.7,1.5,1.5,3.1,2.3,4.5c2.8,5,5.6,9.9,8.5,14.8
							l0.3,0.5l-6,22.9l-1.9,0.8c-2.4,0.9,2.8,0.2,0.3,0.5c-7.6,0.9-15.6,0.2-23-1.1c-13.5-2.4-27.1-4.8-40.6-7.3l-1.7-0.3l-6.4-26
							l2-1c0.2-0.1,0.4-0.2,0.6-0.3h0.1l17.3-7.1l-2.2,0.2l0.5-3.5c1.5-9.7,2.9-19.3,4.3-29c0.5-3.3,1-6.7,1.5-10
							c0.2-1,0.3-2.1,0.5-3.1c0.1-0.6,0.2-1.3,0.4-1.9l1.9-5.3c-0.1-0.5-0.2-1.1-0.3-1.6c-0.2-1-0.3-1.9-0.4-2.9
							c-0.6-5.1-0.7-10.4-0.6-15.6c0.1-2.4,0.2-4.9,0.5-7.2l0.6-5.9c3.5,3.7,6.5,7.1,10.9,10c1.4,1,3.2,1.8,4.7,2.4
							c2.5,1.1,5.2,2.1,7.8,3l3.1,1l-1.4,2.9c-1.9,3.8-3.7,9.5-3.7,13.7c0,2,0.5,4.2,0.9,6.2c0.6,2.6,1.3,5.2,1.9,7.7
							c0.8,3.9,1.4,8.1,0.8,12.1c-0.5,3.4-2.4,6.6-4.4,9.3c-1.5,2-3.4,4-5.4,5.9c1.7,0.1,3.4,0.1,5.1,0c3.6-0.2,7.5-0.4,11-1
							L2021.6,178.4z"/>
						<path class="st1" d="M1990.9,111.7c0,0-1.4,13.3,0.5,25s9.3,22.9,9.3,22.9s-4.8-3-7.5-6.9c-2.7-3.8-3.5-7.7-3.5-7.7
							c-0.6,1.6-3.3,22.7-6.6,43.6l16.4-1.3l-33.7,13.8l0,0c-0.4,0.2-0.6,0.3-0.6,0.3l5.4,22.1c0,0,20.7,3.9,40.6,7.3
							c19.9,3.5,20.9-1,20.9-1l6.7-18.5c0,0-6.7-11.7-8.5-14.8c-1.7-3.1-1.5-2.9-2.3-4.5l-4.4-10.8l-3.1,0.3c0,0-4.3,0.7-11.4,1.1
							c-7,0.3-11.7-1-11.7-1s12.2-9,13.5-17.4c1.4-8.5-3.6-18.7-3.6-25.6c0-7,4-15,4-15s-3.4-1.1-7-2.6c-3.7,8.1-1.4,20.3,1.3,28.1
							c-4.7-12-5.9-17.8-5-29.8c-0.9-0.5-1.8-1-2.5-1.5C1994.1,114.9,1990.9,111.7,1990.9,111.7z"/>
						<path class="st7" d="M1990.9,111.7c0,0-0.2,1.6-0.3,4.2l6.2,5.1c0,0-0.6,6.4,3.7,17.5s5.2,11.8,5.2,11.8l-0.1-1.3
							c-4.7-11.9-5.9-17.7-4.9-29.6c-0.9-0.5-1.8-1-2.5-1.5C1994.1,114.9,1990.9,111.7,1990.9,111.7z M2024.7,183.7l-1.1-2.6
							l-3.1,0.3c0,0-4.3,0.7-11.4,1.1c-7,0.3-11.7-1-11.7-1s12.2-9,13.5-17.4c1.4-8.5-3.6-18.7-3.6-25.6c0-7,4-15,4-15
							s-3.4-1.1-7-2.6c-3.7,8.1-1.4,20.1,1.3,27.9l-2-21.2l2,0.2c-0.2,3.2-0.6,10.1,0.1,14.1c1,5.5,1.1,7.9,2.2,13.4
							c1.2,5.4,0.8,8.6,0.8,8.7c-0.2,1.3-0.5,2.6-0.9,3.7c-2.1,6.2-15.5,15.2-15.5,15.2s7,1.6,15.8,2
							C2013.7,185,2019.3,184.6,2024.7,183.7z"/>
						<path class="st8" d="M1990.9,111.7c0,0-1.4,13.3,0.5,25s9.3,22.9,9.3,22.9s-4.1-9.9-6.5-20.4c-2.4-10.6-0.8-25.1-0.8-25.1
							C1991.9,112.7,1990.9,111.7,1990.9,111.7z M1991.5,149.7c-1.3-2.7-1.8-4.8-1.8-4.8c-0.6,1.6-3.3,22.7-6.6,43.6l3.4-0.3
							L1991.5,149.7z"/>
						<path class="st8" d="M2039.6,119.1l-11.7-11l0.3,3.3l-15.8-10.8l17.7,14l-0.4-3.7c0,0,6.9,9.1,8.1,9.4
							c1.2,0.4,3.3-0.3,3.3-0.3L2039.6,119.1z"/>
						<path class="st8" d="M2051,122.9l9.9-3.7l-0.4,1.3l9-4.3l-10.6,6.7l0.3-1.6c0,0-5.2,2.7-6.3,2.7S2051,122.9,2051,122.9z"/>
						<g>
							<g>
								<g>
									<polygon class="st1" points="2018.6,207.9 1969.2,207.9 1953,207.9 1937.7,299.3 1995.7,299.3 1999.2,278.2 1967.7,278.2 
										1970.4,262.1 2000.5,262.1 2003.8,242.3 1973.7,242.3 1975.9,229 2013.2,229 1998.4,318.8 2032.3,269.4 2016,268.5 
										2038.3,229 2039.7,229 2039.8,229 2069.2,229 2072.7,207.9 									"/>
									<path class="st0" d="M2072.7,207.9l-3.5,21h-29.5v0.1h-1.5l-22.3,39.4l16.3,1l-33.9,49.4l14.9-89.9h-37.3l-2.2,13.3h30.1
										l-3.3,19.8h-30l-2.7,16.2h31.5l-3.5,21h-57.9l15.3-91.3h16.2h49.4L2072.7,207.9 M2078.4,203.1h-5.7h-54.1h-49.4H1953h-4.1
										l-0.7,4l-15.3,91.3l-0.9,5.6h5.7h57.9h0.3l-2.3,14l-3.5,21.3l12.2-17.8l33.9-49.4l4.8-7l-8.5-0.5l-8.6-0.5l17.1-30.3h2.8
										v-0.1h25.4h4.1l0.7-4l3.5-21L2078.4,203.1L2078.4,203.1z M1980,233.8h27.6l-0.6,3.7h-3.2h-24.4L1980,233.8L1980,233.8z
										 M1974.5,266.9h26h1.6l-1.1,6.6h-1.8h-25.8L1974.5,266.9L1974.5,266.9z"/>
								</g>
								<g>
									<polygon class="st10" points="2060.8,257.5 2077.5,235.6 2059.6,235.6 2042.9,235.6 2026.8,264.2 2043,264.9 2012.1,309.9 
										2032.7,293.5 2077.7,257.5 									"/>
									<path class="st0" d="M2077.5,235.6l-16.7,22h17l-45.1,36l-20.6,16.4l30.8-45l-16.2-0.7l16.1-28.6h16.8L2077.5,235.6
										 M2087.2,230.8h-9.7h-17.8h-16.8h-2.8l-1.4,2.4l-16.1,28.6l-3.8,6.8l7.8,0.4l7.6,0.3l-26,37.9l-13.7,23l20.7-16.5
										l20.6-16.4l45.1-36l10.7-8.6h-13.7h-7.3l10.8-14.3L2087.2,230.8L2087.2,230.8z"/>
								</g>
							</g>
							<polygon class="st8" points="2060.8,257.5 2077.5,235.6 2059.6,235.6 2044.9,261 2057.8,261 2032.7,293.5 2077.7,257.5 
															"/>
						</g>
					</g>
				</g>
				<path class="st8" d="M2076.2,156.7c1.9-0.3,4.2-0.6,5.9-0.7c3.6-0.2,5.4,0.4,5.4,0.4l-5.8,11.2h4.2c0,0-5.7,8.9-15.5,14.7
					s-35.4,11.8-35.4,11.8s21.1-2.7,37.1-10.7s21.1-19.1,21.1-19.1l-4.4,0.7l6.4-11.1c0,0-7.5-1.7-12.9-1.4c-5.4,0.2-6.6,0.5-9,0.8
					L2076.2,156.7z"/>
				<path class="st8" d="M2062.2,72.9c1.9-0.3,4.2-0.6,5.9-0.7c3.6-0.2,5.4,0.4,5.4,0.4l-5.8,11.2l4.2-0.1c0,0-5.7,8.9-15.5,14.7
					c-9.8,5.8-35.4,11.8-35.4,11.8s21.1-2.7,37.1-10.7s21.1-19.1,21.1-19.1l-4.4,0.7l6.4-11.1c0,0-7.5-1.7-12.9-1.4
					c-5.4,0.3-6.6,0.5-9,0.8L2062.2,72.9z"/>
				<path class="st8" d="M1943.5,152.6c4.5-8,14-23.6,21.7-28.4l-0.8,3.8c10-6.2,22.3-7.1,30.5-12.9c4-2.8,4-2.9,4-2.9
					s-1.1,2.9-7.3,6.7c-11.8,7.2-21.1,5.3-30.6,17.6l1.2-6.7c-5,6.1-9,12.9-12.1,20.1l14.5,4.6c0,0,0,0,0,1.6s0.3,6.2,0.3,6.2
					L1943.5,152.6z"/>
				<path class="st8" d="M1954.8,48.3c-7.9-10.6,10.5-7.9,16.3-22.7c0,0-0.6,3.6-1.3,5.7c-0.8,2.2-2.1,4.7-2.1,4.7
					c9.1-3.9,26.6-17.9,9.4-21.7c18.3,1.9,6.5,14.5-3.5,20.7c-5.8,3.6-10.4,6.4-10.4,6.4l2.5-4.1c-1.5,1.5-10.1,5.9-7.4,8l-3.2,2.7
					L1954.8,48.3z"/>
				<g>
					<polygon class="st6" points="1968.1,261.7 1968.4,259.7 1970.4,259.7 1998.5,259.7 1999.6,253 1947.8,253 1940.5,296.9 
						1993.7,296.9 1996.4,280.6 1967.7,280.6 1965,280.6 1965.4,277.9 					"/>
					<polygon class="st6" points="2012.1,270.6 2013.9,267.3 2022,253 2011.7,253 2002.4,308.8 2028,271.5 2015.9,270.8 					"/>
				</g>
			</g>
		</g>
	</g>
</g>
<g id="Layer_3">
	<g>
		<path class="st11" d="M1475.7,349.6c0,2.3,20.1,4.2,44.9,4.2s44.9-1.9,44.9-4.2c0-2.3-20.1-4.2-44.9-4.2
			C1495.8,345.4,1475.7,347.3,1475.7,349.6z"/>
		<g>
			<path class="st12" d="M1541.1,207.7l5.6-0.1c0,0-4.6,42.8-5.8,52.2c-1.1,9.5-19.8,71.6-19.8,71.6l-10.7-2.6
				c0,0,1.4-58.4,7.9-68.3c-1.6-28.5-3.8-44.5-0.5-49.8s14.7-9.9,14.7-9.9L1541.1,207.7z"/>
			<g>
				<path class="st13" d="M1553.6,206.4c0.1,0.4,3,9.8,3,9.8s2.3,0.9,3.7,3c1.4,2.1-2.7,2.8-4.3,3c-1.7-4-2.6-3.6-2.6-3.6l-6.4-11.4
					L1553.6,206.4z"/>
				<path class="st12" d="M1554.2,199.3c0.3,0.5,3.5,14.8,2.9,15s-8.1,1.5-8.1,1.5l-7.8-19.1L1554.2,199.3z"/>
			</g>
			<g>
				<path class="st0" d="M1538.3,140.9c0,0,3.5-6.7-0.3-8.8s-5.8,8.1-5.8,8.1l2.4,0.2c0,0,0.7-5.7,1.9-6.6c1.3-0.8,2.2,3.4,0.2,6.7
					L1538.3,140.9z"/>
				<path class="st14" d="M1542.4,145.5c0,0-2.2-6.4-8.5-7c-6.3-0.5-11.6,5.2-14.5,19.2c-7.2,9.8-18.9,13-19.3,19.5
					c-0.4,6.4,15,21.3,21.5,21.1C1534.6,167.8,1542.4,145.5,1542.4,145.5z"/>
			</g>
			<g>
				<g>
					<ellipse class="st0" cx="1515.2" cy="325.2" rx="26" ry="26.3"/>
					<ellipse class="st11" cx="1515.2" cy="325.2" rx="16.6" ry="16.8"/>
					<ellipse class="st0" cx="1515.2" cy="325.2" rx="7.7" ry="7.8"/>
				</g>
			</g>
			<path class="st5" d="M1542.1,219.7c0,0-6.5,39.5-9.4,51.8c-2.9,12.4-17.4,58.4-17.4,58.4l-8-2c0,0,0.3-43.1,0.9-53.9
				s3.5-17.6,3.5-17.6c-2-20-1.5-41.9,0.3-47.2s5.8-11.6,17.1-12.5C1534.7,201.1,1541.6,196.1,1542.1,219.7z"/>
			<g>
				<path class="st15" d="M1559.1,131.1l-4.2,17.3c0,0,0.5,6.4-11.5-7.4c9.5-13.3,10.1-16,10.1-16L1559.1,131.1z"/>
				<path class="st15" d="M1568.7,115c0,0,0.3,13.2-5.6,17.7c-5.9,4.4-10.9-4.8-11.8-11.6c-0.9-6.9,0.7-11.2,5.5-14.8
					C1561.7,102.5,1568.1,107.3,1568.7,115z"/>
				<path class="st0" d="M1560.9,116l-3,8c-1.5-5-2.9-4.8-4.6-4.1c-1.7,0.7,1.1,5.3,2.7,6c-3.5-0.6-4-1.7-4-1.7s-2.1-4.4-1.4-7.6
					C1551.4,113.4,1560.9,116,1560.9,116z"/>
				<path class="st10" d="M1578.5,117.7l-27.8-1.1c0,0-2.2-11,6.8-13.5s12.2,9.9,12.2,12.6C1578.6,115.9,1578.2,117.3,1578.5,117.7z
					"/>
			</g>
			<path class="st11" d="M1549.5,143.1c0,0,7.1,4.2,11.6,11.1c4.4,6.9,6.8,19.6,1,32.1s-13.4,24.8-13.4,24.8l-36.1-5.8
				c8.2-7.9,12.5-16.8,13.2-21.1c0.7-4.2,10.6-32.7,13.3-37.7C1541.7,141.5,1549.5,143.1,1549.5,143.1z"/>
			<path class="st10" d="M1520.4,184.7c0,0,7.2,3.5,15.5-1.1c-0.1,10,2.3,10.9,2.3,10.9s-14.4,3.4-18.9-1.5
				C1520,187.4,1520.4,184.7,1520.4,184.7z"/>
			<g>
				<path class="st15" d="M1552.3,209.9l1.1,12.8c0,0,2.1,1.8,2.9,4.4c0.8,2.6-6.7,3.3-7.3,2.2c-0.6-1.1-0.2-1.7-0.7-3.8
					c-0.5-2.3,1.2-3.2,1.2-3.2l-6.4-12.8L1552.3,209.9z"/>
				<path class="st5" d="M1540.7,141.9c0,0,10-6.2,14.7,10.2s-5.9,34-5.9,34l4.6,32.8l-6.1,3.7c0,0-7.3-18.9-10.2-26.2
					c-2.4-6.3-1.8-3-2.1-10.5c-0.3-7.5-1.3-28.3-0.4-34.2C1536.1,145.7,1538.4,142.8,1540.7,141.9z"/>
			</g>
			<path class="st12" d="M1514.7,327.9c2.8-1,1,1.6,5.4,2.2c4.3,0.7,9.8,2.5,7.5,3.4c-2.3,1-16.3,0-19,0.1s-4.7,0.7-4.3-1.6
				c0.4-2.3,1-5.4,1.8-6.1S1511.9,328.9,1514.7,327.9z"/>
		</g>
	</g>
	<g>
		<path class="st11" d="M2340.1,344.2c0,1.7,37.1,3.1,82.9,3.1c45.8,0,82.9-1.4,82.9-3.1s-37.1-3.1-82.9-3.1
			C2377.3,341.1,2340.1,342.5,2340.1,344.2z"/>
		<g>
			<g>
				<g>
					<path class="st13" d="M2441.4,231.8c11.4,6,15.4,11.6,11.8,18c-2.9,5.1-25.7,38-35.2,51.6l3.8,6.8l-6.9-2.3
						c-0.6,0.9-1,1.4-1,1.4l-5.9-2.2c0,0,5.9-40.9,21.8-52.7c-32-10.1-33.7-10.4-33.8-10.4l19.6-21.1
						C2415.7,220.9,2423.8,222.5,2441.4,231.8z"/>
					<g>
						<path class="st0" d="M2421.3,304.9c0,0-0.9-1.1-4.1-1c-3.3,0.1-7.1,1.7-9.7-2.2l-2.4,4.4l24.8,9.9L2421.3,304.9z"/>
						<polygon class="st5" points="2404.4,307.7 2429.1,317.5 2429.7,315.9 2405,306.1 						"/>
					</g>
					<path class="st10" d="M2413,225.7l-13-11.7c1.4-0.1,2.1-0.1,2.1-0.1l17.5,7.4c-3.4,0.7-6.3,4.7-6.3,4.7
						S2413.2,225.8,2413,225.7z"/>
				</g>
				<g>
					<path class="st13" d="M2408.4,170.1c0,0,17.9,18.7,22.2,22.7s24.9,17.3,24.9,17.3s1.8-2.4,3.6-1.9s4.1,2.8,4.1,2.8l-1.6,0.7
						l-4.3-0.2c0,0-1.1,2.8,0,4.3c-10.7,0-40.1-6.4-60.8-30.8C2405.5,173.6,2408.4,170.1,2408.4,170.1z"/>
					<path class="st12" d="M2410.2,169.6l-13.4,17.3c-10.4-6.6-15.9-15.6-10.2-25.5C2392.3,151.4,2403.2,162,2410.2,169.6z"/>
				</g>
			</g>
			<g>
				<ellipse class="st0" cx="2416.2" cy="309.1" rx="12.6" ry="13.2"/>
				<g>
					<ellipse class="st0" cx="2363.5" cy="311.4" rx="7" ry="7.3"/>
					<path class="st5" d="M2341.4,312.1c0,12.9,10,23.4,22.4,23.4s22.4-10.5,22.4-23.4s-10-23.4-22.4-23.4
						S2341.4,299.2,2341.4,312.1z M2345.6,312.1c0-10.5,8.2-19,18.2-19c10.1,0,18.2,8.5,18.2,19s-8.2,19-18.2,19
						C2353.8,331.2,2345.6,322.7,2345.6,312.1z"/>
					<path class="st0" d="M2333.1,312.1c0,17.7,13.8,32.1,30.7,32.1s30.7-14.4,30.7-32.1s-13.8-32.1-30.7-32.1
						S2333.1,294.4,2333.1,312.1z M2341.4,312.1c0-12.9,10-23.4,22.4-23.4s22.4,10.5,22.4,23.4s-10,23.4-22.4,23.4
						S2341.4,325.1,2341.4,312.1z"/>
				</g>
				<g>
					<path class="st0" d="M2479.3,311.4c0,4,3.1,7.3,7,7.3c3.8,0,7-3.2,7-7.3c0-4-3.1-7.3-7-7.3
						C2482.4,304.1,2479.3,307.4,2479.3,311.4z"/>
					<path class="st5" d="M2463.8,312.1c0,12.9,10,23.4,22.4,23.4s22.4-10.5,22.4-23.4s-10-23.4-22.4-23.4
						S2463.8,299.2,2463.8,312.1z M2468,312.1c0-10.5,8.2-19,18.2-19c10.1,0,18.2,8.5,18.2,19s-8.2,19-18.2,19
						C2476.2,331.2,2468,322.7,2468,312.1z"/>
					<path class="st0" d="M2455.5,312.1c0,17.7,13.8,32.1,30.7,32.1s30.7-14.4,30.7-32.1s-13.8-32.1-30.7-32.1
						S2455.5,294.4,2455.5,312.1z M2463.8,312.1c0-12.9,10-23.4,22.4-23.4s22.4,10.5,22.4,23.4s-10,23.4-22.4,23.4
						S2463.8,325.1,2463.8,312.1z"/>
				</g>
				<g>
					<polygon class="st0" points="2402.4,261.5 2385.4,266.2 2399.4,312.6 2414.8,310.4 					"/>
					<polygon class="st1" points="2395.6,279.2 2404.2,289.6 2399.2,289.8 2404.2,298.7 2394.4,287.5 2399.4,287.2 					"/>
				</g>
				<polygon class="st0" points="2370.4,274.9 2363.4,310.4 2361.3,310.7 2367.7,274.9 				"/>
				<polygon class="st0" points="2345.5,275.4 2363.8,307.6 2363.4,310.4 2343.9,276.1 				"/>
				<path class="st11" d="M2474.4,270l14.7,41.9c0,0,0.5,2.6-2,3.5s-3.6-2.1-3.6-2.1l-14.7-40.7L2474.4,270z"/>
				<path class="st11" d="M2451.8,211.8l12.7-2.8c0,0,3.9,0.7,2.9,4.5l-8.6,11.8l11.3,34.5l-4.5,1.9l-11.6-34.3c0,0-0.9-2.6,1.8-6.2
					s5.4-7.6,5.4-7.6l-7.7,3.3C2453.6,217,2449.5,217.2,2451.8,211.8z"/>
				<polygon class="st12" points="2470.8,255.1 2462,258.1 2468.1,275.2 2476.7,271.9 				"/>
				<polygon class="st12" points="2468.8,272.6 2408.2,293.9 2404.6,279.9 2463.8,259.1 				"/>
				<path class="st11" d="M2404.4,269.3l-17.7,5.4c0,0-3.2,0-6.1,4c-2.9,4-19.3,31.9-19.3,31.9s-1.6,3.3,1.6,4
					c3.2,0.7,51.7-5.9,51.7-5.9l-1.4-5.4l-46.5,5.7l16.3-26.5c0,0,1.6-4.3,5.7-5c4.1-0.7,17-3.5,17-3.5L2404.4,269.3z"/>
				<path class="st12" d="M2403.9,247.7l16.1,61.5c0,0-2,3.1-6.3,1.7c-13.4-50.4-15.9-63.6-15.9-63.6L2403.9,247.7z"/>
				<path class="st0" d="M2384,272.3c0,0,1.1,2.6-0.2,3.3c-1.4,0.7-43.5,1.4-43.5,1.4s-1.6-2.1-0.5-3.8
					C2354.5,272.8,2384,272.3,2384,272.3z"/>
			</g>
			<g>
				<path class="st14" d="M2400.1,140.1c0,0-2.1,6-12.4-0.6c-10.3-6.6-24.5-3.2-30.5,3.2c-6,6.3-5.1,17.7-14.5,19.9
					s-17.8-1.3-23.6,3.8c0,0,2.1,4.4,13,16.1c10,10.7,18.7,16.1,25.7,14.8s6.3-16.1,10.9-19.6c4.5-3.5,17.8,3.5,17.8,3.5l11.8-23.7
					L2400.1,140.1z"/>
				<g>
					<path class="st15" d="M2409.2,222.2c0,0,22.7,21.5,28.1,27.2c5.4,5.7,5.4,11.4,4.1,19.9c-1.4,8.5-22.2,51.3-22.2,51.3l14.1,8.3
						l-24.5-0.5c0,0,6.1-51.8,16.3-64.8c-20.4-7.6-42.2-27.4-42.2-27.4L2409.2,222.2z"/>
					<g>
						<g>
							<path class="st14" d="M2377.7,214.8c10.5-0.4,22-0.9,24.1-0.9c-0.4,0-1,0-1.8,0.1l13,11.7c-0.8-0.6-3.5-1.6-11.1,1.2
								c-9.5,3.5-16.5,9.2-18.1,11.6C2376.5,230.2,2374.5,222.2,2377.7,214.8z"/>
						</g>
					</g>
					<g>
						<path class="st0" d="M2423,321.9c0,0-1.2-0.7-4.2,0.5c-3,1.3-6.1,4.1-9.9,1.4l-0.8,5l26.5,0.5L2423,321.9z"/>
						<polygon class="st5" points="2408,330.5 2434.5,330.9 2434.5,329.2 2408,328.8 						"/>
					</g>
				</g>
				<path class="st5" d="M2401.6,162.2c0,0,8.6,9.1,9.2,22.2c0.6,13.1-5.9,30-5.9,30l-28.3,1.3c0,0,0-18.8,0.6-29.5
					s-0.5-22.1,8.5-26.9C2392.2,156,2401.6,162.2,2401.6,162.2z"/>
				<g>
					<g>
						<path class="st15" d="M2412.3,130.6c0,0,4.8,10.9,0.7,16.3c-4.1,5.4-12-0.7-15.2-6.2c-3.2-5.4-3.2-9.5,0.2-14
							C2401.4,122.4,2409.2,124.5,2412.3,130.6z"/>
						<path class="st15" d="M2404.5,146l-2.6,16.3c0,0,1,5.6-11.9-4.5c8.1-13.7,8.4-16.3,8.4-16.3L2404.5,146z"/>
						<path class="st0" d="M2406.7,131.6c0,0-2.4,13.9-7.3,15.1l-3.3,0.6l-0.6,0.1l5.7-13.7L2406.7,131.6z"/>
					</g>
					<g>
						<path class="st0" d="M2401.7,139.5c0,0,7.4,8.7,9.4,9.5c-2,1.1-2,1.1-2,1.1c-3.5-2.4-8.2-7.7-9.1-9.9L2401.7,139.5z"/>
						<path class="st10" d="M2414.7,129.9l-11.4,3.5c0,0,0.5,5.1-1.6,7.1s-5.2,2-5.2,2s-3.4-3.5-3.9-9.8s3.7-8.4,8.7-9.6
							C2405,122.3,2412,122.6,2414.7,129.9z"/>
					</g>
				</g>
				<g>
					<path class="st15" d="M2402.8,170.4c0,0,17.9,18.7,22.2,22.7s24.9,17.3,24.9,17.3s1.8-2.4,3.6-1.9s4.1,2.8,4.1,2.8l-1.6,0.7
						l-4.3-0.2c0,0-1.1,2.8,0,4.3c-10.7,0-40.1-6.4-60.8-30.8C2399.9,173.9,2402.8,170.4,2402.8,170.4z"/>
					<path class="st12" d="M2404.6,169.9l-13.4,17.3c-10.4-6.6-15.9-15.6-10.2-25.5C2386.7,151.7,2397.6,162.3,2404.6,169.9z"/>
				</g>
			</g>
		</g>
	</g>
	<g>
		<path class="st11" d="M1603.3,303.5c0,1.8,32.4,3.2,72.3,3.2s72.3-1.4,72.3-3.2c0-1.8-32.4-3.2-72.3-3.2
			C1635.8,300.3,1603.3,301.7,1603.3,303.5z"/>
		<g>
			<g>
				<g>
					<circle class="st0" cx="1721.8" cy="288.9" r="14.6"/>
					<circle class="st11" cx="1721.8" cy="288.9" r="9.3"/>
				</g>
				<g>
					<circle class="st0" cx="1629" cy="288.9" r="14.6"/>
					<circle class="st11" cx="1629" cy="288.9" r="9.3"/>
				</g>
				<path class="st12" d="M1626.4,287.9c0.4-0.8,1.3-1.2,2.3-1.4c1.3-0.3,2.9-0.2,3.8-0.2c14,0,28,0,41.9,0c6.8,0,13.6,0,20.4,0
					c-0.3-5.3,0.5-21.3,20-27c1.7,7.5,2.3,9.2,2.3,9.2s-12,4-13.3,17.7c0.5,0,1.1,0,1.6,0l-0.2,5.7c-10.7,0-21.4,0-32.1,0
					c-13.7,0-27.5,0.3-41.2,0C1629.3,291.8,1624.7,291.6,1626.4,287.9z"/>
				<g>
					<polygon class="st11" points="1704.6,183.5 1713.6,228.1 1708.5,228.8 1699.8,183.4 					"/>
					<path class="st11" d="M1696.6,185.7c0,1.4,1.1,2.5,2.5,2.5s2.5-1.1,2.5-2.5s-1.1-2.5-2.5-2.5
						C1697.8,183.2,1696.6,184.3,1696.6,185.7z"/>
				</g>
				<path class="st5" d="M1715.3,222.7l-9.4,1.1l11.3,65.6c0,0,0.9,3.4,5.7,3c4.2-0.3,3.8-4,4-4.7
					C1727,287,1715.3,222.7,1715.3,222.7z"/>
			</g>
			<g>
				<g>
					<path class="st12" d="M1673.7,220.9c-26.6-34.5-42.2-59.7-42.2-59.7l30.3,3.1c0,0,29.1,40.2,32.5,51.2
						c1.8,5.6-7.4,37.2-12.8,53.4l-13.9-0.9C1668,254.7,1669.3,236.4,1673.7,220.9z"/>
					<path class="st15" d="M1691.8,286h-24c0,0-0.4-7.4-0.1-18l13.9,0.9c-2.3,6.7-3.9,11.4-3.9,11.4L1691.8,286z"/>
					<g>
						<path class="st0" d="M1679.9,277.1c0,0-1.1-0.7-3.8,0.5c-2.7,1.3-5.5,4.2-8.9,1.4l-0.7,5.1l23.8,0.5L1679.9,277.1z"/>
						<polygon class="st11" points="1666.5,285.9 1690.2,286.3 1690.2,284.5 1666.5,284.1 						"/>
					</g>
				</g>
				<g>
					<path class="st13" d="M1678,121.3l-0.2,23.2l24.1,32.4c0,0,6.8,2.3,5.3,7c-2.3,1.7-2.3,1.7-2.3,1.7l-1.3-3l-3.2-2.6l-4.1,0.8
						c0,0-30.4-23.8-32.6-33.8c-2.3-10-3-25.1-3-25.1L1678,121.3z"/>
					<path class="st14" d="M1674.2,101.1c0,0,7,4.7,5.1,21.9c-11.7,3.4-14,4.1-14,4.1l-1.1-27.7
						C1664.2,99.4,1670.4,97.2,1674.2,101.1z"/>
					<polygon class="st10" points="1662.1,97 1667.2,92.7 1672.7,93.4 1679.4,105.5 1673.7,109.4 					"/>
				</g>
				<g>
					<path class="st5" d="M1625.1,179.6c-6.2-9.9-4.2-17.8-4.2-17.8c2.5-2,28,1.7,28,1.7s15.6,36.2,20.4,47.5s3.7,13.9,3.7,13.9
						l-14.7,42.9l-12.5-0.7c1.3-32.7,6.3-45.1,6.3-45.1S1631.3,189.5,1625.1,179.6z"/>
					<path class="st15" d="M1654.8,277.8l13,8.2H1646c0,0-0.6-2.8-0.6-9.3c0-3.4,0.1-6.5,0.3-9.5l12.5,0.7L1654.8,277.8z"/>
					<g>
						<path class="st0" d="M1657.4,277.1c0,0-1.1-0.7-3.8,0.5c-2.7,1.3-5.5,4.2-8.9,1.4l-0.7,5.1l23.8,0.5L1657.4,277.1z"/>
						<polygon class="st11" points="1644,285.9 1667.7,286.3 1667.7,284.5 1644,284.1 						"/>
					</g>
				</g>
				<path class="st11" d="M1667.4,94.2l6.8,13c-2,13.7-3.5,27.5-5.9,41.1c-0.7,3.7-0.4,11.8-3,19.6c-0.4,1.3-7.6,0.2-8.9,0
					c-11.9-1.5-23.6-4.6-35.5-6.1c0,0,3.4-34.4,17.9-51S1667.4,94.2,1667.4,94.2z"/>
				<g>
					<g>
						<path class="st15" d="M1695.6,83.1c0,0,4.9,11.3,0.7,17c-4.2,5.7-12.5-0.7-15.8-6.4c-3.3-5.7-3.3-9.8,0.2-14.5
							C1684.3,74.5,1692.3,76.7,1695.6,83.1z"/>
						<path class="st15" d="M1685.4,96.3L1672,107c0,0-3.1,5-6.1-11.7c15.8-4.9,17.8-6.7,17.8-6.7L1685.4,96.3z"/>
					</g>
					<g>
						<path class="st0" d="M1684.4,91c0,0,6.7,10.4,8.6,11.5c-1.3,0.4-2.5,0.4-2.5,0.4c-3.2-2.9-7.3-9.1-7.9-11.5L1684.4,91z"/>
						<path class="st10" d="M1698.8,81.7l-12.2,3.8c0,0,0.6,5.5-1.7,7.7c-2.3,2.1-5.5,2.1-5.5,2.1s-3.6-3.8-4.2-10.5
							c-0.6-6.8,4-9.1,9.3-10.4C1688.4,73.5,1695.9,73.9,1698.8,81.7z"/>
					</g>
				</g>
				<path class="st10" d="M1613.2,136.6c3.4,0,25.6-25.8,25.6-25.8s7.8-9.8,16.6-13.2c0.7-0.3,1.4-0.4,2-0.5l10-4.4l6.6,12l-5.7,4
					l-1.1-1c0.4,1.9,0.5,3.8,0.3,5.3c0,0-2.3,20.7-14.7,30.6c-12.4,9.9-51.2,14.7-51.2,14.7l-6.8-28.6
					C1594.8,129.5,1609.8,136.6,1613.2,136.6z"/>
				<g>
					<path class="st15" d="M1666.5,119.6c0,0,0.8,23.2,4.9,27.5s27,30,27,30l7,4.1c0,0,0.4,5.3-1.7,6.4c-2.1,1.1-2.6,0.2-2.6,0.2
						c0.8-2.1,1.1-4,1.1-4c-0.8-0.4-3.8-1.3-5.7,0.4c-1.9,1.7-3-3-3-3c-19-10.8-31.9-19.8-38.9-27.3c-4.6-5-9.8-17.7-11.5-26.4
						C1658.9,121.7,1666.5,119.6,1666.5,119.6z"/>
					<path class="st14" d="M1662.7,96.6c0,0,4.1,0.6,5.5,8.1c1.3,7.5,0,15.7,0,15.7l-26.6,9.8c0,0-3-8.5,2.8-20.7
						S1659.7,95.1,1662.7,96.6z"/>
				</g>
			</g>
		</g>
	</g>
	<g>
		<path class="st11" d="M2223.6,307.1c0,2,16.9,3.6,37.8,3.6c20.9,0,37.8-1.6,37.8-3.6s-16.9-3.6-37.8-3.6
			C2240.6,303.5,2223.6,305.1,2223.6,307.1z"/>
		<g>
			<polygon class="st0" points="2243.8,295.8 2245.5,299.8 2281.6,299.8 2283.4,295.8 			"/>
			<path class="st13" d="M2230.7,152.3c0.3,0.4,0.6,0.7,0.9,1c3.1,2.9,7.3,5,10.6,7.8c1.8,1.5,5.7,3.9,5.6,6.6
				c0,0.6-0.2,1.2-0.3,1.8c-0.1,0.7,0,1.4,0.2,2.1c0.1,0.4,0.3,0.8,0.7,0.9c0.2,0.1,0.3,0.1,0.5,0.1c3.3,0.2,4.2-3.7,3.3-6.2
				c-1.3-3.5-3.7-6.7-6.2-9.3c-1-1-8.5-8.1-7.6-8.8c1.3-1.1,2.8-1.8,4.1-2.9c2.2-1.9,4.6-3.6,6.9-5.5c4-3.3,7.9-7.5,8.9-12.6
				c0.2-1.2,0.3-2.5-0.2-3.7c-0.5-1.1-1.6-2.1-2.9-2c-0.9,0.1-1.7,0.6-2.4,1.1c-4.7,3.5-9,7.4-12.9,11.7c-3.4,3.8-8.6,8.9-9.9,14
				c-0.1,0.5-0.2,1-0.2,1.5C2229.8,150.7,2230.1,151.6,2230.7,152.3z"/>
			<path class="st15" d="M2247.8,177.8c0.1,0.2,0.2,0.3,0.4,0.4c1.1,1.2,3.9,1.6,5.1,1.8c5.2,0.8,13.3,1.7,17.9-1.4
				c0.2-0.2,0.3-0.5,0.2-0.8c0-0.1,0.1-0.2,0-0.3c-0.3-1.8-0.5-3.5-0.7-5.3c-0.5-4.6-0.5-9.1,0.4-14c1-5.3,4.1-9.9,5-15.1
				c0.8-4.6-2.5-8.1-4.8-11.6c-1.3-2-2.3-4-3.2-6c-0.8-2-1.5-4-2-6.1c0-0.6,0-1.3,0-1.9c0.1-2.1,0.6-3.3,1.6-4.9
				c1.2-0.8,0.5-3.8,0-4.7c-0.9-1.8-2.7-3.8-4.9-3.7c-1.9,0.1-2.7,1.7-2.8,3.4c0,0.4-0.1,0.8-0.1,1.2c-0.9,3.6-2.6,6.5-4.6,9.4
				c-0.7,1-1.5,2.1-2.2,3.2c-3,4.2-4.8,8.4-4.7,13.6c0.1,6.9,3.2,13,3.6,19.8c0.2,3.5,0.4,6.9-0.7,10.3c-0.6,1.9-1.3,3.7-2,5.6
				c-0.4,1-0.7,2.1-1,3.1C2247.9,175.2,2247.5,176.6,2247.8,177.8z"/>
			<path class="st15" d="M2257.8,97.1c0.1-0.4,0.2-0.7,0.3-1.2c0-0.2,0-0.5,0.1-0.7c0.7-4.8,6.8-8.4,11.4-7.4c2,0.4,3.4,1.4,4.4,2.7
				c0.1,0,0.1,0,0.2,0c1.4,1.3,3,4,2.9,6c0,0.6-0.2,1.2-0.3,1.8c-0.3,2,0.1,4,1.2,5.7c0.4,0.6,0.4,1.1-0.2,1.5
				c-0.3,0.2-0.9,0.1-1.2,0.4c-0.4,0.4-0.3,1-0.3,1.5c-0.8,0.2-1.6,0.1-2.3-0.1c-0.2,0.2-0.2,0.4,0,0.6c0.3,0.5,1.2,0.7,1.8,0.9
				c0.1,0,0.2,0.1,0.3,0.2c0,0.1,0,0.2,0,0.3c-0.3,1.2-0.5,2.4-0.8,3.6c0,0.2-0.1,0.4-0.3,0.6s-0.5,0.2-0.7,0.3
				c-4.8,0.4-9.9-2.8-13.4-5.8C2257.5,105.4,2257.1,101.2,2257.8,97.1z"/>
			<path class="st12" d="M2247.3,252.3c1.6-4.7,4.1-9.1,6.9-13.3c2.8-4,4.2-7,3.5-12c-0.7-4.7-2.7-9.1-4.4-13.4
				c-2.3-5.9-4.1-12-5.1-18.2c-0.7-4.4-1.2-9-1.1-13.5c0-1.2,0.1-2.4,0.3-3.6c0.1-0.6,0.2-1.2,0.4-1.8c0.9-2,2.2-2.1,4.1-2.4
				c1.3-0.2,2.5,0,3.7,0.5c2,0.9,3.6,2.7,4.7,4.6c1,1.6,1.8,3.6,2.3,5.4c0.4,1.7,1.2,3.1,1.8,4.8c1.7,4.6,2.6,9.5,3.4,14.3
				c1.8,11.2,2.7,22.8-0.4,33.6c-2,6.7-5.5,12.8-8.9,18.8c-2.9-0.6-5.8-1.3-8.5-2.5C2249.1,253.3,2248.2,252.8,2247.3,252.3z"/>
			<path class="st13" d="M2241.7,284.6c0-0.1,0.1-0.3,0.1-0.4c2.2-8.9,2.8-18,4.3-26.9c0.3-1.7,0.7-3.3,1.2-4.9
				c0.8,0.5,1.7,1,2.6,1.4c2.7,1.2,5.6,1.9,8.5,2.5c-0.6,1.1-1.2,2.1-1.8,3.2c-2,3.6-3.8,7.2-5.3,11c-1.3,3.4-3.3,8.6-2.4,12.3
				c0.1,0.3,0.2,0.5,0.3,0.8c0.5,0.8,1.4,1.2,2.2,1.5c0.3,0.1,0.7,0.3,1,0.4c0.1,0.1,0.3,0.1,0.4,0.2c-0.2,0-0.5,0.1-0.7,0.1
				c-3.6,0.5-7.2,0.3-10.7-0.4C2241.6,285,2241.7,284.8,2241.7,284.6z"/>
			<path class="st0" d="M2283,285.6c0.2,0,0.5-0.1,0.7-0.1c1.5,0.7,3.1,1.3,4.6,2c0.7,0.3,3.3,1.1,2.7,2.2c-0.5,1.1-3.2,0.7-4.2,0.7
				h-11.4c-1.4,0-3.3,0.3-4-1.2c-0.6-1.2,0.2-2.8,0.7-4.1C2275.8,285.9,2279.5,286.1,2283,285.6z"/>
			<path class="st0" d="M2252.2,285.6c0.2,0,0.5-0.1,0.7-0.1c1.5,0.7,3.1,1.3,4.6,2c0.7,0.3,3.3,1.1,2.7,2.2
				c-0.5,1.1-3.2,0.7-4.2,0.7h-11.4c-1.4,0-3.3,0.3-4-1.2c-0.6-1.2,0.2-2.8,0.7-4.1C2245,285.9,2248.7,286.1,2252.2,285.6z"/>
			<path class="st0" d="M2297.4,300.3c0-3.4-2.8-6.2-6.2-6.2s-6.2,2.8-6.2,6.2s2.8,6.2,6.2,6.2S2297.4,303.7,2297.4,300.3z"/>
			<path class="st11" d="M2294.1,300.3c0-1.6-1.3-2.9-2.9-2.9c-1.6,0-2.9,1.3-2.9,2.9s1.3,2.9,2.9,2.9S2294.1,301.9,2294.1,300.3z"
				/>
			<path class="st0" d="M2242.1,300.3c0-3.4-2.8-6.2-6.2-6.2s-6.2,2.8-6.2,6.2s2.8,6.2,6.2,6.2
				C2239.4,306.5,2242.1,303.7,2242.1,300.3z"/>
			<circle class="st11" cx="2235.9" cy="300.3" r="2.9"/>
			<path class="st5" d="M2217.4,288.5c0.2-0.3,0.5-0.6,1-0.6c0.3,0,0.6,0,0.8,0.1c1,0.4,1.8,1,2.8,1.3c1.1,0.3,2.2,0.5,3.3,0.6
				c2.2,0.4,4.4,0.6,6.6,0.6c6.6,0,63.8-0.5,63.8-0.5s5.4,0,9.9-1.7c0.3-0.1,0.5-0.2,0.8-0.3c0.1,0,0.2,0,0.3-0.1
				c3.6-0.6,1.9,3.9,0.6,5.4c-2,2.3-5.4,3.3-8.4,3.3c-0.1,0-74.9,0-74.9,0c-0.1,0-0.2,0-0.3,0c-3.1-0.7-6-2.8-6.6-6
				C2217.1,289.9,2217.1,289,2217.4,288.5z"/>
			<path class="st15" d="M2284.8,259.3c-0.8,3.6-1.5,7.2-2.3,10.8c-0.4,2-1,3.9-1.5,5.9c-0.4,1.6-1.6,5.1-1.2,6.8
				c0.1,0.3,0.2,0.5,0.3,0.8c0.5,0.8,1.4,1.2,2.2,1.5c0.3,0.1,0.7,0.3,1,0.4c0.1,0.1,0.3,0.1,0.4,0.2c-0.2,0-0.5,0.1-0.7,0.1
				c-3.6,0.5-7.2,0.3-10.7-0.4c0.1-0.2,0.2-0.4,0.2-0.6c0-0.1,0.1-0.3,0.1-0.4c2-7.9,2.3-16.8,1.7-24.9
				C2277.8,260.2,2281.4,260.2,2284.8,259.3z"/>
			<path class="st5" d="M2251.9,194.9c3.5,6.6,8.5,12.4,13.9,17.6c2.9,2.8,6,5.5,8.1,8.9c1.3,2.1,2.3,4.6,2.5,7.2
				c0.2,2.4-0.5,5.5-0.8,7.9c-0.5,3.6-1.8,7.1-1.9,10.8c-0.2,4,0.5,7.9,0.8,11.9c2,0.6,4.1,0.8,6.1,0.8c0.4,0,0.7,0,1.1-0.1
				c1.1-0.1,2.2-0.3,3.2-0.6c0.2-1.1,0.4-2.1,0.7-3.2c1.8-9.2,3.1-18.8,2-28.2c-0.4-3.7-1.4-7.2-2.7-10.6c-0.6-2.7-1.6-5.4-2.5-8.1
				c-1.5-4.7-3.4-9.3-5-13.9c-1.7-4.7-2.8-9.5-4.5-14.2c-0.5-1.2-0.9-2.5-1.5-3.6c-0.2-1.1-0.5-2.1-1.3-3.1c-2.6-3.6-9.4-5.6-13.6-6
				c-1.1-0.1-2.2-0.1-3.2,0.1c-2.3,0.6-4.1,2.6-4.9,4.9c-0.2,0.6-0.4,1.2-0.6,1.9C2246.1,181.7,2249,189.3,2251.9,194.9z"/>
			<path class="st10" d="M2257.3,106.9c-2.2-2.2-3-5.6-2.5-8.7c0.4-3.1,1.8-6.8,4-9c0.1-0.2,0.3-0.3,0.4-0.5c0.9-1.4-0.8-2.2-1.6-3
				c-1-0.9-1.9-2.1-2.4-3.5c-0.5-1.3-0.7-2.8-0.3-4.1c0.4-1.3,1.4-2.5,2.8-2.9c0.6-0.2,1.2-0.2,1.8-0.1c2.4,0.3,4.5,2.3,4.9,4.7
				c0.3,2.1-1.2,4.6-0.6,6.6c0.5,1.6,3.3,0.6,4.6,0.7c2.6,0.3,5.2,1.2,7.3,2.7c1,0.7,2.2,1.9,2.5,3.1c0.2,1-0.1,2.2-1,2.7
				c-0.5,0.3-1.1,0.4-1.7,0.4c-1.7,0-3.5-0.8-5.1-0.5s-2.4,1.5-3.3,2.7c-1.4,2-2.1-0.6-3.7,0.3c-0.6,0.3-0.9,1-1,1.7
				c-0.2,1,0,2.1,0.5,3.1c0.2,0.4,0.5,0.9,0.7,1.3c0.5,1.5-1.3,3.3-2.6,3.7c-1.2,0.3-2.5-0.4-3.4-1.2
				C2257.4,107,2257.3,107,2257.3,106.9z"/>
			<path class="st11" d="M2251.4,165.2c-0.6,1.9-1.3,3.7-2,5.6c6.5,5.8,15.3,7.3,22.4,6.9c-0.5-4.6-1.6-14.6-0.7-19.4
				c1-5.3,4.1-9.9,5-15.1c0.8-4.6-2.5-8.1-4.8-11.6c-1.3-2-2.3-4-3.2-6c-1.4-1.5-2.7-3-4.3-4.3c-2.4-2-5.6-3.5-8.6-3
				c-0.7,1-1.5,2.1-2.2,3.2c-3,4.2-4.8,8.4-4.7,13.6c0.1,6.9,3.2,13,3.6,19.8C2252.3,158.4,2252.4,161.7,2251.4,165.2z"/>
			<path class="st15" d="M2262.1,149.5c3.4,4.8,7.6,9.1,12,12.9c3.1,2.7,6.5,5,10.1,7c7.4,4.2,15.3,8.8,19.6,16.5
				c0.4,0.8,0.9,1.7,1.6,2.2c0.7,0.6,1.9,0.7,2.5,0c1.5-1.6-2.7-6.7-3.6-8c-2.4-3.7-5.2-7-8.3-10.1c-2.6-2.6-5.4-5-8.2-7.4
				c-2.6-2.1-6.1-4-8.2-6.7c-3.3-4-6.4-8.3-8.8-12.9c-2.4-4.5-3.6-9.6-5.9-14.1c-1.2-2.2-2.7-4.6-5.2-4.9c-2.5-0.3-4.8,1.8-5.5,4.2
				c-0.9,3.1,0,7.5,1.8,10.2c1.7,2.6,2.8,5.5,4.4,8.1C2260.8,147.6,2261.5,148.6,2262.1,149.5z"/>
			<path class="st11" d="M2258.2,87.2c0.1-0.3,0.4-0.6,0.7-0.7c1-0.2,2.1,0,3.1-0.3c0.8-0.2,1.6-1,2.5-0.6c0.2,0.1,0.3,0.2,0.2,0.4
				c-0.4,1.3-2.3,2-3.5,2.1C2260.3,88.2,2257.9,88.9,2258.2,87.2z"/>
			<path class="st5" d="M2260.7,123.7c-3.1-0.7-6.7,1.3-7.7,4.3c-0.3,0.9-0.4,1.9-0.5,2.8c-0.1,3.4,0.8,7,3.2,9.5
				c2-4.7,7.3-7.7,12.4-7c-0.5-2.1-1.2-4.2-2.4-5.9C2264.6,125.6,2262.8,124.2,2260.7,123.7z"/>
			<path class="st0" d="M2292.5,300.3c0-0.7-0.6-1.4-1.4-1.4c-0.7,0-1.4,0.6-1.4,1.4c0,0.7,0.6,1.4,1.4,1.4
				S2292.5,301.1,2292.5,300.3z"/>
			<path class="st0" d="M2237.5,300.3c0-0.7-0.6-1.4-1.4-1.4c-0.7,0-1.4,0.6-1.4,1.4c0,0.7,0.6,1.4,1.4,1.4
				S2237.5,301.1,2237.5,300.3z"/>
		</g>
	</g>
</g>
<g id="Layer_2_00000021117111675359763140000012818039330096206782_">
</g>
</svg>
