<?xml version="1.0" encoding="utf-8"?>
<!-- Generator: Adobe Illustrator 25.4.1, SVG Export Plug-In . SVG Version: 6.00 Build 0)  -->
<svg version="1.1" xmlns="http://www.w3.org/2000/svg" xmlns:xlink="http://www.w3.org/1999/xlink" x="0px" y="0px"
	 viewBox="0 0 4000 360" style="enable-background:new 0 0 4000 360;" xml:space="preserve">
<style type="text/css">
	.st0{fill:#23293F;}
	.st1{fill:#FFFFFF;}
	.st2{fill:#CCD8EB;}
	.st3{fill:#87A9C3;}
	.st4{fill:#F9DB00;}
	.st5{fill:#FBD09D;}
	.st6{fill:#EB9900;}
	.st7{fill:#427FA9;}
	.st8{fill:#F3BFCA;}
	.st9{fill:#FADC00;}
	.st10{fill:#CCD9EC;}
	.st11{fill:#88ABC5;}
	.st12{fill:#F7D5D4;}
</style>
<g id="Layer_4">
	<rect x="0" y="-6.5" class="st0" width="4000" height="303.3"/>
</g>
<g id="Layer_5">
</g>
<g id="Layer_1">
	<g>
		<path class="st1" d="M1521.8,299.8c3.7-4.8,8.6-5.3,14.2-5.2c7.1,0.1,14.2-0.7,21.4-0.8c2.5-0.1,5.1,0.7,7.6,0.9
			c4.2,0.3,8.3,0.6,11.6-3.3c3.3-3.9,8-4.6,12.7-4.7c6.3-0.1,12.7,0,19.8,0c-2.5-10,4.6-13.1,11.2-17.5c7.2,13.5,19.6,6.7,30.9,8.7
			c-1.1-14.6,0.2-28.3,5.5-41.3c4.7,1.9,9.3,15,10.2,28.5c2.3,0,4.7,0,7.6,0c0-1.7-0.2-3.5,0-5.3c0.6-5.9,1.1-11.9,2.2-17.7
			c0.3-1.5,2.5-2.6,3.8-3.8c0.6,1.2,1.5,2.4,1.7,3.7c0.8,4.9,1.5,9.8,2,14.7c0.5,4.8,0.6,9.6,0.9,14.2c7.2,2.4,12.3-0.3,17-5
			c2.6-2.5,5.1-5.3,8.1-7.1c2.2-1.3,5.1-1.3,8-2c-2.7-7.8,0.5-13.8,6.8-18.5c0.8-0.6,2.5-0.9,3.4-0.5c4.5,2.4,8.1,10.7,7.4,15.5
			c5,2.9,10,5.5,14.8,8.4c5.1,3,5.6,2.8,7.6-2.7c1.2-3.2,2.9-6.1,4.7-9.7c5.9,0,12.4,0,19.5,0c0-4.8-0.3-9.3,0.1-13.7
			c0.2-2.4,1.3-5.2,2.9-6.8c4.5-4.6,9.3-8.7,14.2-12.7c0.8-0.6,2.9-0.7,3.6,0c4.6,4.1,9.4,8.1,13.2,12.9c1.6,1.9,1.1,5.6,1.7,9.2
			c5.5-0.2,11.6,2.2,15.9-4.9c1.3-2.2,5-3,8-4.6c0-4.6-0.1-10,0.1-15.4c0-1.1,0.6-3,1.2-3.2c7.9-2.3,6.6-9.4,7.4-15.1
			c2.4-16,4.5-32.1,6.7-48.2c0.5-3.4,0.7-6.9,1.3-10.3c0.1-0.9,1.1-1.6,1.7-2.3c0.7,0.8,1.9,1.6,2,2.5c1.4,8.6,2.7,17.3,4,26
			c1.6,11,3.7,21.9,4.5,32.9c0.4,5.7,2.9,9.5,6,13.5c1,1.3,1.1,3.6,1.2,5.4c0.2,4,0.1,8.1,0.1,12.3c1,0.2,1.8,0.5,2.5,0.4
			c6.7-1.2,11.4,1.9,15.6,6.9c4.5,5.3,6.6,4.8,10.5-1.3c0.6-1,1.3-1.9,1.8-2.9c2.6-4.8,4.6-5.1,8.5-1.4c0.5,0.4,0.9,0.8,2.2,1.9
			c0-5.4,0.1-10-0.1-14.6c0-0.9-0.9-2.2-1.7-2.7c-3-1.6-3-4.5-1.3-6.3c2.9-3.1,6.9-7.6,10-7.3c3.8,0.4,7.2,5.1,10.5,8.3
			c0.6,0.6,0.4,3.3-0.2,3.7c-4,2.7-2.1,6.5-2.5,10.2c1.6,0.1,3,0.2,4.3,0.3c0.2-0.7,0.5-1.2,0.5-1.7c0-4.4,0.1-8.8,0.1-13.2
			c0-1,0-2.1-0.2-3c-0.6-2.2-2.7-5.5-2-6.2c2.9-3.2,6.3-6.7,10.2-7.8c2.2-0.6,5.8,2.8,8.3,4.9c2.5,2.1,3.9,4.2,1.8,8.5
			c-1.7,3.5-0.3,8.5-0.3,13.5c1.3-0.3,2.8-0.2,3.5-0.8c0.4-0.4,0.2-2.6-0.4-3.1c-5.1-3.7-1.4-7,0.7-9.5c4.8-5.5,12.1-5,16.7,1
			c1.2,1.6,1.9,4.3,1.7,6.4c-0.6,6.8-1.7,13.6-2.6,20.6c7.5,1.8,12-2.7,17.1-5c1-0.4,1.3-3.3,1.4-5c0.2-5.4-0.1-10.8,0.1-16.2
			c0.1-1.7,0.6-4,1.7-4.8c4.7-3.2,4.6-8.2,5-13c1.3-13.6,2.6-27.1,3.9-40.7c0.4-4.8,0.7-9.6,1.1-14.5c1.3-15.6,2.6-31.2,3.9-46.8
			c0.2-3,0-6,1.1-9.6c0.6,0.8,1.6,1.4,1.7,2.3c1.7,14,3.3,28,5,42c1.5,12,3.3,23.9,4.8,35.9c1.2,9.6,2,19.1,3.1,28.7
			c0.4,3.6,0.6,7.3,1.6,10.8c0.6,2.2,2.5,4.1,3.8,6.1c0.5-0.2,0.9-0.5,1.4-0.7c0,6.7,0.1,13.5,0,20.2c0,2.6,0.3,4.2,3.3,5.1
			c3.4,1,6.6,3.2,10.5,5.1c0-5.7,0.1-10.7,0-15.7c-0.1-7.2,5.6-11.2,9-16.4c0.2-0.3,3.6,0.7,4.6,1.9c5.3,6.2,9.7,12.9,8,21.9
			c-0.2,1.3,0.1,2.7,0.2,4c0,0.2,0.4,0.4,1.5,1.6c1-15.4-1.4-30.4,4-44.3c0.6,0,1.3,0,1.9,0c2.2,14.7,4.4,29.5,6.7,44.3
			c8,2.1,6.9-7,11.4-10.3c2.7,3.2,5.7,6.1,7.9,9.5c1.9,3,3.9,2.3,4.6,0.1c3-8.3,9.4-7.6,16-7.3c5.5,0.2,11.1,0,17.1,0
			c-3.1-5.8,1.3-8.5,3.7-12.1c1.8-2.8,3.7-5.9,4.1-9.1c1.4-12.2,2.3-24.5,3.5-38.5c1.6,1.7,3.2,2.6,3.4,3.7
			c1.2,9.4,1.9,18.8,3.1,28.2c0.7,5.5,0.3,11.2,4.7,15.8c1.4,1.5,1.9,4.5,2,6.8c0.2,9.7,0.1,19.5,0.1,29.1c4.5,1.5,6.7-0.2,8.2-4.1
			c1.8-4.7,4.3-9.2,6.5-13.8c1.8-3.6,3.7-3.8,6-0.4c2.9,4.4,6.3,8.5,8.4,13.3c3.6,8.4,10.1,11.8,18.1,13.5c7.2,1.6,7.2,1.7,8,8.7
			c7.4,1.2,14.3,1.2,19.4-6.2c1.8-2.6,5.4-4,8.1-5.9c0.3,0.4,0.7,0.8,1,1.2c0.2-1.4,0.4-2.9,0.7-4.6c0.7-0.1,1.5-0.4,2.2-0.3
			c4.4,1,7.8-1.5,11.1-3.7c5.4-3.6,9-3.2,13.6,0.9c4.8,4.2,6.8,8.9,6.1,15.3c-0.5,4.3-0.1,8.7-0.1,14.2c6.7-0.5,13.2-0.2,19.4-1.6
			c6.4-1.5,10.8,1,15.1,4.9c1.3,1.2,2.6,2.6,3.8,3.9c2.9,3.4,6.3,4.6,10.4,2.4c5.1-2.7,11.4-1.1,16.1-5.6c1.4-1.3,6.2-2.1,8.3,2.3
			c0.6,1.2,3,1.6,4.6,2.3c2,0.8,4.6,1,6.1,2.4c8.3,8.2,18.5,3.7,27.8,4.5c1.4,0.1,3-2.2,4.7-3.5c5.3,1.6,7,3.5,7.6,9.1
			c5.1-0.4,10.2-1.4,15.3-1.1c8.3,0.5,17.2-0.6,23.6,6.8C2136.8,299.8,1829.3,299.8,1521.8,299.8z"/>
	</g>
	<g>
		<g>
			<path class="st0" d="M1820.3,349.3l-1.5,8.6h-27.6l6.3-37.5h27l-1.4,8.2H1807l-1,5.9h13.5l-1.4,8.1h-13.5l-1.1,6.6H1820.3z"/>
			<path class="st0" d="M1838,320.5l-6.3,37.5h-10.6l6.3-37.5H1838z"/>
			<path class="st0" d="M1866.1,346.1H1847c-0.1,0.8-0.1,1.3-0.1,1.7c0,1.2,0.4,2.2,1.2,2.8c0.8,0.7,1.8,1,3,1
				c2.3,0,3.8-1.2,4.8-3.5l9.3,1.5c-1.2,2.7-3.2,4.9-5.9,6.6c-2.7,1.7-5.7,2.5-9,2.5c-4.1,0-7.5-1.2-10.1-3.5
				c-2.6-2.4-3.9-5.6-3.9-9.6c0-4.4,1.5-8.2,4.6-11.4c3-3.2,7-4.7,11.9-4.7c4.2,0,7.5,1.2,9.9,3.7c2.5,2.4,3.7,5.7,3.7,9.8
				C1866.4,343.9,1866.3,344.9,1866.1,346.1z M1856.1,340.8c0.1-0.6,0.1-1,0.1-1.3c0-1-0.3-1.8-0.9-2.6c-0.6-0.7-1.5-1.1-2.6-1.1
				c-1.2,0-2.2,0.4-3.2,1.3c-1,0.9-1.5,2.1-1.8,3.7H1856.1z"/>
			<path class="st0" d="M1885.5,347.2l8.4,2.1c-1.5,3.6-3.5,6.1-5.9,7.5c-2.4,1.4-5,2.1-7.6,2.1c-3.8,0-7-1.2-9.4-3.6
				c-2.4-2.4-3.6-5.6-3.6-9.4c0-4.3,1.4-8.2,4.3-11.5s6.7-5,11.4-5c3.4,0,6.3,1,8.7,3.1c2.4,2.1,3.6,4.7,3.6,8l-9.4,1.1
				c0-3-1-4.5-3-4.5c-1.7,0-3,1.2-3.7,3.7s-1.1,4.6-1.1,6.4c0,2.7,1,4.1,3.1,4.1C1883.1,351.1,1884.6,349.8,1885.5,347.2z"/>
			<path class="st0" d="M1916.8,330.2l-1.2,7.1h-5l-1.7,9.9c-0.2,1-0.3,1.6-0.3,1.8c0,1.4,0.9,2,2.6,2c0.8,0,1.6-0.1,2.6-0.3
				l-1.2,7.2c-2,0.4-3.9,0.6-5.7,0.6c-2.3,0-3.9-0.3-5-0.9c-1.1-0.6-2-1.4-2.7-2.4c-0.7-1-1-2.4-1-4.1c0-0.7,0.2-2.1,0.5-4l1.6-9.9
				h-3.8l1.2-7.1h3.8l1.5-8.2l10.1-0.2l-1.4,8.4H1916.8z"/>
			<path class="st0" d="M1920.9,330.2h9.2l-1.1,6.7c1.9-5,4.9-7.5,8.8-7.5c0.3,0,0.7,0,1.3,0.1l-1.2,9.9c-1-0.1-1.6-0.1-1.9-0.1
				c-2.3,0-4,0.5-5,1.6c-1.1,1.1-1.8,3-2.3,5.7l-1.9,11.3h-10.6L1920.9,330.2z"/>
			<path class="st0" d="M1951.1,358.8c-3.9,0-7.1-1.1-9.7-3.4c-2.6-2.3-3.9-5.4-3.9-9.4c0-4.8,1.5-8.7,4.6-11.8s6.9-4.6,11.6-4.6
				c4.2,0,7.6,1.2,10.1,3.6c2.5,2.4,3.7,5.4,3.7,8.9c0,5.3-1.6,9.4-4.8,12.3C1959.4,357.3,1955.5,358.8,1951.1,358.8z M1951.5,352
				c1.9,0,3.2-1.4,3.9-4.3c0.7-2.9,1-5.2,1-7.2c0-2.9-1.1-4.4-3.2-4.4c-1.9,0-3.2,1.5-3.9,4.4c-0.7,2.9-1.1,5.3-1.1,7.2
				C1948.3,350.6,1949.4,352,1951.5,352z"/>
			<path class="st0" d="M1985.1,329l-4.9,29h-10.9l4.9-29h-8l1.5-8.6h27.2l-1.4,8.6H1985.1z"/>
			<path class="st0" d="M2015.6,358h-10.9c-0.1-0.5-0.1-1-0.1-1.3c0-0.9,0.1-2,0.2-3.3c-2.2,3.5-5.2,5.2-9.1,5.2
				c-2.6,0-4.8-0.8-6.4-2.3c-1.6-1.5-2.4-3.4-2.4-5.7c0-1.7,0.4-3.3,1.3-4.7c0.9-1.4,2.1-2.6,3.7-3.4c1.6-0.8,3.3-1.4,4.9-1.7
				c1.7-0.3,5-0.6,9.9-1.1c0.2-0.7,0.3-1.2,0.3-1.6c0-1.5-1.1-2.3-3.2-2.3c-2.1,0-3.6,1-4.6,3.1l-9-1.8c2.3-5.1,7.3-7.7,15.1-7.7
				c3.9,0,7,0.7,9.3,2c2.3,1.4,3.4,3.4,3.4,6c0,1.2-0.7,5.4-2,12.6c-0.5,2.7-0.7,4.5-0.7,5.4C2015.3,356.2,2015.4,357,2015.6,358z
				 M2005.8,344.8c-5,0.4-7.6,2-7.6,4.8c0,1.6,0.8,2.3,2.4,2.3c1,0,2.1-0.5,3.1-1.4C2004.8,349.6,2005.5,347.7,2005.8,344.8z"/>
			<path class="st0" d="M2037.3,320.5l-6.3,37.5h-10.6l6.3-37.5H2037.3z"/>
			<path class="st0" d="M2053.6,320.5l-6.3,37.5h-10.6l6.3-37.5H2053.6z"/>
			<path class="st0" d="M2068.6,330.2l-4.6,27.7h-10.8l4.6-27.7H2068.6z M2070.4,319.6l-1.4,8.2h-10.8l1.4-8.2H2070.4z"/>
			<path class="st0" d="M2074.3,330.2h9.7l-0.7,4.5c0.8-1.8,2-3.2,3.7-4.1c1.7-0.9,3.5-1.3,5.4-1.3c2.4,0,4.3,0.6,5.7,1.9
				c1.5,1.2,2.2,2.9,2.2,4.9c0,0.8-0.1,1.7-0.3,2.8l-3.2,19h-10.6l2.8-16.7c0.2-1.1,0.3-1.8,0.3-2.1c0-1.6-0.8-2.3-2.5-2.3
				c-2.2,0-3.6,1.5-4.1,4.5L2080,358h-10.3L2074.3,330.2z"/>
			<path class="st0" d="M2107.2,330.2h9.7l-0.7,4.5c0.8-1.8,2-3.2,3.7-4.1c1.7-0.9,3.5-1.3,5.4-1.3c2.4,0,4.3,0.6,5.7,1.9
				c1.5,1.2,2.2,2.9,2.2,4.9c0,0.8-0.1,1.7-0.3,2.8l-3.2,19h-10.6l2.8-16.7c0.2-1.1,0.3-1.8,0.3-2.1c0-1.6-0.8-2.3-2.5-2.3
				c-2.2,0-3.6,1.5-4.1,4.5l-2.8,16.7h-10.3L2107.2,330.2z"/>
			<path class="st0" d="M2177.9,345.6h-19.1c-0.1,0.8-0.1,1.3-0.1,1.7c0,1.2,0.4,2.2,1.2,2.8c0.8,0.7,1.8,1,3,1
				c2.3,0,3.8-1.2,4.8-3.5l9.3,1.5c-1.2,2.7-3.2,4.9-5.9,6.6c-2.7,1.7-5.7,2.5-9,2.5c-4.1,0-7.5-1.2-10.1-3.5
				c-2.6-2.4-3.9-5.6-3.9-9.6c0-4.4,1.5-8.2,4.6-11.4c3-3.2,7-4.7,11.9-4.7c4.2,0,7.5,1.2,9.9,3.7c2.5,2.4,3.7,5.7,3.7,9.8
				C2178.2,343.4,2178.1,344.5,2177.9,345.6z M2167.9,340.3c0.1-0.6,0.1-1,0.1-1.3c0-1-0.3-1.8-0.9-2.6c-0.6-0.7-1.5-1.1-2.6-1.1
				c-1.2,0-2.2,0.4-3.2,1.3c-1,0.9-1.5,2.1-1.8,3.7H2167.9z"/>
			<path class="st0" d="M2210.5,345.6h-19.1c-0.1,0.8-0.1,1.3-0.1,1.7c0,1.2,0.4,2.2,1.2,2.8c0.8,0.7,1.8,1,3,1
				c2.3,0,3.8-1.2,4.8-3.5l9.3,1.5c-1.2,2.7-3.2,4.9-5.9,6.6c-2.7,1.7-5.7,2.5-9,2.5c-4.1,0-7.5-1.2-10.1-3.5
				c-2.6-2.4-3.9-5.6-3.9-9.6c0-4.4,1.5-8.2,4.6-11.4c3-3.2,7-4.7,11.9-4.7c4.2,0,7.5,1.2,9.9,3.7c2.5,2.4,3.7,5.7,3.7,9.8
				C2210.8,343.4,2210.7,344.5,2210.5,345.6z M2200.5,340.3c0.1-0.6,0.1-1,0.1-1.3c0-1-0.3-1.8-0.9-2.6c-0.6-0.7-1.5-1.1-2.6-1.1
				c-1.2,0-2.2,0.4-3.2,1.3c-1,0.9-1.5,2.1-1.8,3.7H2200.5z"/>
			<polygon class="st0" points="2145.9,349.8 2144.5,358 2133.7,358 2135.1,349.8 			"/>
		</g>
		<g>
			<g>
				<path class="st1" d="M2021.7,34l1.3,3.2l-35.8,17.4c0.2,1.3,0.4,2.6,0.4,3.7c0.1,3.1-0.8,5.7-3.8,7.1c-0.5,0.2-1.1,0.4-1.6,0.5
					c-0.7,2.4-1.8,5.5-4.4,6c-1.5,0.3-3.2,0.6-4.8,0.8c-1,0.1-2.4,0.3-3.8,0.3c-0.9,0-1.9-0.1-2.5-0.4c-1.3-0.6-2.2-1.6-2.7-2.8
					l-0.3,0.1l-1.3,1.9c-2.9,4.4-5.9,9-8.5,13.6c-0.1,0.2-0.2,0.4-0.4,0.6c4.3,1,9.9,2.9,13.6,5.4l0.3-0.2l-0.1-1.2l0.9,0.8
					l10.7-5.8c4.5-2.4,10.7-4.4,15.8-4.4c0.1,0,0.2,0,0.3,0c1,0,2,0,3.1,0.1l1.4-1.1c2-1.5,5.6-4.2,8.8-5.9c-1.2-0.5-2.4-1-3.6-1.5
					l-15-5.6l15.9-1.5c1.3-0.1,2.6-0.2,4-0.2c3.4,0,7.1,0.4,10.1,1.1c0.9,0.2,1.9,0.5,2.8,0.8c-0.1-0.1-0.1-0.1-0.2-0.2l-6.7-7.6
					l10,1.5c0.9,0.1,1.8,0.3,2.7,0.5l0.2,0l0.2,0.1c1.3,0.4,2.8,0.9,4.3,1.6l0.2-0.7l3.5,1c3.6,1,8,2.4,11.1,4.6
					c1.5,1.1,3,2.1,4.5,3.2l-0.4-4.4l7.2,7.2c3.1,3.1,6.2,8.1,6.7,12.6c0.2,1.3,0.1,2.7-0.1,4.2l0.3,0.3c3.7-3.8,5.7-6.9,5.7-6.9
					l-4.2,0.1l5.8-11.2c0,0-1.4-0.5-4.2-0.5c-0.4,0-0.8,0-1.2,0c-1.7,0.1-4,0.4-5.9,0.7l-3-3.4c2.4-0.3,3.6-0.5,9-0.8
					c0.4,0,0.7,0,1.1,0c5.2,0,11.8,1.5,11.8,1.5l-6.4,11.1l4.4-0.7c0,0-2.8,6.2-10.9,12.6c1.4,1.6,2.9,3.7,3.7,5.5
					c1.1,2.5,1.2,5.4,0.7,8.2c8,2.7,15.6,6.3,22.7,11c5.8,3.9,13.4,10.2,17.3,16.1l0.9,1.4l-0.1,1.6c-0.2,3.2-0.6,6.5-1.1,9.7
					c-1.2,8-2.8,16-4.9,23.9c-5.6,21.2-14.4,42.1-26.8,60.3h6.7l-5.9,7.7l-10.8,14.3h7.3h13.7l-10.7,8.6l-45.1,36l-20.6,16.4
					l-16.2,12.9l-8.8,12.8l3.5-21.3l0.3-1.9l-2-3c-2-3-4-6-5.9-9.1h-48.3h-5.7l0.9-5.6l11-65.8c-2.6-5-5.1-10.1-7.3-15.3
					c-7.1-15.9-11.3-33.2-12.7-50.5c-0.4-5.4-0.6-10.8-0.4-16.1c0-0.1,0-0.2,0-0.2l-52.2,6.4l20.9-12c16.2-9.3,32.7-18.5,49.8-26
					c-3.2-2-6.4-4.2-9.4-6.4c-2.5-1.8-5-3.7-7.3-5.7c-4-3.6-7.4-9.6-8.7-14.8l-0.2-1l3.6-3.6c2-0.9,5.4-6,6.3-7.6
					c0.5-0.8,1.1-1.7,1.7-2.5l-36.7,15.4l17.8-14.5L1856,97.8l-1.3-3.3l89.8-40l-12,11.8l16.1-7.1l3.7-4.5l0.4-0.3
					c0.9-0.6,2.8-2,3.6-2.8c0.9-1.5,1.3-2.8,3.1-3.6c0.4-0.2,0.9-0.3,1.4-0.4c0.3,0,0.6-0.1,0.9-0.1c0.8-1.4,2.2-2.5,4-2.9
					c0.7-0.2,1.5-0.2,2.2-0.2c0.4,0,0.9,0,1.3,0.1c1.1-1,2.5-1.6,4.2-1.6c1.3,0,2.7,0.3,4,0.9c1.2-0.4,2.5-0.7,3.7-0.7
					c0.9,0,1.7,0.2,2.4,0.6c0.8,0.5,1.3,1.1,1.7,1.9L2021.7,34 M1970.9,92.9l0.8-0.3l-1.1,0.1L1970.9,92.9 M2060.8,257.5h17H2060.8
					 M2032.7,293.5l-20.6,16.4l0,0L2032.7,293.5 M2004.5,309.9L2004.5,309.9L2004.5,309.9l-6.2,9v0L2004.5,309.9
					C2004.5,309.9,2004.5,309.9,2004.5,309.9 M2023.8,29.7l-3.1,1l-34.3,10.7c-0.3-0.3-0.7-0.6-1.1-0.8c-1.2-0.7-2.6-1.1-4.2-1.1
					c-1.1,0-2.2,0.2-3.5,0.5c-1.3-0.4-2.7-0.7-4.1-0.7c-1.9,0-3.8,0.5-5.3,1.5c-0.1,0-0.1,0-0.2,0c-1.1,0-2.1,0.1-3,0.3
					c-1.8,0.4-3.4,1.2-4.6,2.5l-17.3,7.7l-89.8,40l-3.1,1.4l1.3,3.2l1.3,3.3l1.3,3.2l3.2-1.2l33.4-12.3l-1.4,1.1l-19,15.5l22.6-9.5
					l23.8-10l-2.6,2.5l-1.4,1.4l0.5,1.9l0.2,1l0,0l0,0c1.5,6.2,5.3,12.7,9.7,16.7c2.5,2.3,5.3,4.3,7.6,6l0,0l0,0
					c1.4,1,2.8,2,4.1,2.9c-15.8,7.3-31,15.9-44.3,23.5l-20.9,12l-15.1,8.7l17.3-2.1l48.1-5.9c0,4.1,0.2,8.3,0.5,12.6
					c0.7,8.9,2.2,17.8,4.3,26.4c2.2,8.7,5.1,17.2,8.7,25.3c2,4.6,4.3,9.3,6.9,14.4l-10.8,64.6l-0.9,5.6l-0.7,4.1h4.2h5.7h46.4
					c1.7,2.6,3.3,5.1,4.9,7.5l1.2,1.8l-0.1,0.6l-3.5,21.3l-2.6,15.7l9-13.1l8.5-12.4l15.8-12.6l20.6-16.4l45.1-36l10.7-8.6l7.9-6.3
					h-10.1h-13.7h-0.2l6.5-8.6l5.9-7.7l4.3-5.7h-7.1h-0.2c4.7-7.5,9-15.5,12.7-24c4.4-10,8.1-20.7,11-31.8c2.2-8.2,3.8-16.3,5-24.3
					c0.4-2.8,0.9-6.4,1.1-10l0,0l0.1-1.6l0.1-1.2l-0.6-1l-0.9-1.4l0,0l0,0c-4.3-6.4-12.2-13-18.3-17.1c-6.3-4.2-13.3-7.7-20.8-10.4
					c0.1-2.5-0.3-5-1.3-7.1c-0.5-1.2-1.3-2.5-2.1-3.6c6.6-6,9.2-11.4,9.3-11.7l2.7-6l-3.6,0.5l2.7-4.7l2.4-4.2l-4.7-1
					c-0.3-0.1-7-1.5-12.6-1.5c-0.4,0-0.9,0-1.3,0c-4.5,0.2-6.2,0.4-8,0.7c-0.4,0.1-0.8,0.1-1.3,0.2l-2.1,0.2l-2.2-2.2l-7-7l0.6,6.6
					c-3.4-1.9-7.5-3.2-10.4-4l-3.5-1l-3.4-0.9l-0.1,0.4c-0.3-0.1-0.6-0.2-0.9-0.3l0,0l0,0l-0.2-0.1l-0.2-0.1l-0.2,0l-0.2,0
					c-1-0.2-1.9-0.4-2.8-0.5l-10-1.5l-9.7-1.5l6.5,7.3l0.1,0.1c-1.1-0.1-2.3-0.1-3.4-0.1c-1.5,0-2.9,0.1-4.3,0.2l-15.1,1.4
					c0.5-1.5,0.7-3.1,0.7-4.9l0,0l0,0c0-0.5-0.1-1-0.1-1.5l33.5-16.3l3-1.4l-1.2-3.1l-1.3-3.2L2023.8,29.7L2023.8,29.7z M1985,68.8
					c0,0,0.1,0,0.1-0.1l3.6,1.3l12,4.5c-1.2,0.9-2.3,1.7-3.1,2.3v0l-0.3,0.2c-0.7,0-1.4-0.1-2.1-0.1c-0.1,0-0.2,0-0.4,0
					c-5.3,0.1-12.1,2-17.4,4.9l-8.6,4.7l-5.8-4.7l0.4,3.6c-1.5-0.6-3-1.2-4.4-1.6c1.7-2.9,3.6-5.8,5.4-8.5c0.3,0.2,0.7,0.4,1,0.5
					c1.1,0.4,2.3,0.7,3.9,0.7c1.5,0,3-0.2,4.1-0.3l0.1,0l0,0c1.5-0.2,3.4-0.4,5.1-0.8C1982.3,74.6,1984.1,71.2,1985,68.8L1985,68.8z
					 M2065.6,76c0.9-0.1,1.6-0.2,2.3-0.2l-1.1,2.2c0-0.1-0.1-0.1-0.1-0.2C2066.3,77.2,2066,76.6,2065.6,76L2065.6,76z"/>
				<path class="st1" d="M1977.1,14.4c18.3,1.9,6.5,14.5-3.5,20.7c-5.8,3.6-10.4,6.4-10.4,6.4l2.5-4.1c-1.5,1.5-10.1,5.9-7.4,8
					l-3.2,2.7l-0.2,0.3c-7.9-10.6,10.5-7.9,16.3-22.7c0,0-0.6,3.6-1.3,5.7c-0.8,2.2-2.1,4.7-2.1,4.7
					C1976.8,32.2,1994.3,18.1,1977.1,14.4 M1979.7-6.5l-11.9,30.9c-2.2,5.8-6.8,8.4-10.8,10.7c-3.5,2-6.7,3.8-7.5,7.5
					c-0.5,2.4,0.3,5,2.5,8l0.9,1.2l-0.2,0.4l0.3-0.2l1.8,2.4l2.8-3.8l2.9-2.4l3.3-2.8l0,0l1.3-0.8c0,0,4.6-2.8,10.4-6.4
					c3.9-2.4,7.6-5.4,10.2-8.3c3.7-4.1,5.2-7.9,4.4-11.3c-0.4-1.6-1.4-3.8-4.4-5.4c-2-1.1-4.7-1.9-8.2-2.2l-1.1,7
					c2.3,0.5,3.5,1.1,4,1.5c0.5,0.4,0.5,0.6,0.5,0.7c0.1,0.7-0.8,3-4.5,6.3c-0.7,0.6-1.4,1.2-2.1,1.7c0.2-1,0.3-1.7,0.3-1.9
					L1979.7-6.5L1979.7-6.5z"/>
			</g>
			<g>
				<g id="_2520766580608_2_">
					<g>
						<path class="st0" d="M1923.6,150.5l-52.2,6.4l20.9-12c21.3-12.3,43.1-24.3,66.4-32.6c26.2-9.3,52-12.9,79.8-11.7
							c19.9,0.9,40,5.9,56.8,17.1c5.8,3.9,13.4,10.2,17.3,16.1l0.9,1.4l-0.1,1.6c-0.2,3.2-0.6,6.5-1.1,9.7c-1.2,8-2.8,16-4.9,23.9
							c-6.2,23.7-16.4,46.9-31.3,66.5c-15,19.8-32.5,38.2-50.8,55c-6.1,5.6-12.3,11-18.6,16.3c-2.5,2.1-5,4.1-7.5,6.1l-4.1,3.2
							l-2.9-4.4c-4-6.1-7.9-12.2-11.8-18.3c-8.4-13.3-16.6-26.8-24.4-40.5c-6.8-11.9-13.5-24.3-19.1-36.9
							c-7.1-15.9-11.3-33.2-12.7-50.5c-0.4-5.4-0.6-10.8-0.4-16.1C1923.6,150.7,1923.6,150.6,1923.6,150.5z"/>
						<path class="st2" d="M2106.1,137.2c-3.1-4.1-22.3-27.3-68-29.4c-28.8-1.3-52.6,2.8-75.1,10.6c-19.4,6.7-37.7,16.1-57.3,27.2
							l25.8-3.2l-0.3,2.9c0,0.1-4,33.1,12.1,69.3c14.5,32.6,46.4,82,53.4,92.6c8.7-6.9,45.1-36.8,73.7-74.5
							C2100.4,192.9,2105.5,143.9,2106.1,137.2z"/>
						<g>
							<path class="st3" d="M2103.7,153.7c1.6-8.5,2.2-14.4,2.4-16.5c-1-1.4-3.9-5-9-9.1l-22.6,11.3L2103.7,153.7z"/>
							<path class="st3" d="M1963.9,192.9l-26.7,5.9c1.6,5.1,3.5,10.4,5.9,15.8c14.5,32.6,46.4,82,53.4,92.6
								c8.7-6.9,45.1-36.8,73.7-74.5c18-23.7,27.1-50.7,31.6-70.1L1963.9,192.9z"/>
							<path class="st3" d="M1931.1,145.2c0,0.1-2.1,17.4,2.9,40.8l88.8-50l-38.3-21l5.8-4c-9.5,1.8-18.5,4.3-27.3,7.3
								c-19.4,6.7-37.7,16.1-57.3,27.2l25.8-3.2L1931.1,145.2z"/>
						</g>
						<polygon class="st0" points="1981.6,46.6 2021.7,34 2023,37.2 1983.2,56.5 						"/>
						<polygon class="st4" points="1983.7,47.9 2020.6,36.3 1984.7,53.8 						"/>
						<path class="st0" d="M2061.2,136.7c0.5,1.3,1.2,3.2,1.5,4.6c0.2,0.1,0.4,0.2,0.7,0.2c3.3,1,8.4,5,5.4,8l1.1,0.7l0.2,0.2
							c4.2,3.7,8.5,8.3,11.9,12.7c1.4,1.9,2.7,3.9,3.9,5.9c2.1,3.8,2.5,8.7,2.4,13c-0.1,5.2-1.1,11.3-2.6,16.3l-0.5,1.8h0l0.5,0.3
							l0.4,1.5c1.2,4.9,1,11.5-0.6,16.2c-1,3-2.4,5.8-3.8,8.6c-0.4,0.7-1.6,3.2-1.7,3.9c0.3,1.7-0.4,3.3-1.4,4.7l1.4-0.3l-5.7,3.9
							c-1.1,3.8-4.2,5.1-7.7,6.8c-5.7,2.8-20.4,8.2-26.6,6.7c-1.7-0.4-3.5-0.8-5.2-1.1c-0.5-0.1-1-0.2-1.5-0.2h-3.6l-0.3-17l3.3-0.4
							c0.7-0.1,2-0.5,2.7-0.8c2.7-1,5.2-2.6,7.3-4.4c2.4-2,5.9-5.8,7.1-8.7l0.6-1.7l0.1,0c-0.1-0.3-0.1-0.6-0.1-0.9
							c-0.2-2.8,0.7-6.9,1.3-9.7c0.9-4.4,1.8-8.8,2.7-13.2c-2.5,1.2-5.2,2.4-7.7,3.3l0,0c0,0-10.8,11.9-11.9,17.3
							c-1.1,5.4,2.9,14.7,2.9,14.7s-11.4,2.1-26.6,0.8c-15.2-1.3-36.3-8.3-36.3-8.3s-2.9-10.1-2.9-12.8c0-2.7,0-10.1-1-13.9
							c-1-3.8-2.6-7.1-5.3-25.9c-2.7-18.9,0-33.5,0-33.5l1.1,0.2l0-0.2c-2.9,0-6.1-1.2-8.3-2.2c-2.2-1-4.1-2.5-5.8-4.2
							c-1.9-1.9-3.5-4-5.1-6.1c-0.6-0.8-2-2.7-2.9-3.2c-4.1-2.4-8.2-5.2-12.1-8c-2.5-1.8-5-3.7-7.3-5.7c-4-3.6-7.4-9.6-8.7-14.8
							l-0.2-1l3.6-3.6c2-0.9,5.4-6,6.3-7.6c3.9-6.6,12.6-13.4,20-18.1l5.8-7.1l0.4-0.3c0.9-0.6,2.8-2,3.6-2.8
							c0.9-1.5,1.3-2.8,3.1-3.6c0.4-0.2,0.9-0.3,1.4-0.4c0.3,0,0.6-0.1,0.9-0.1c0.8-1.4,2.2-2.5,4-2.9c1.1-0.2,2.3-0.3,3.6-0.2
							c1.1-1,2.5-1.6,4.2-1.6c1.3,0,2.7,0.3,4,0.9c2-0.7,4.4-1.1,6.1-0.1c1.5,0.9,2,2.6,2.4,4.3c0.4,1.4,0.6,2.8,0.9,4.2
							c0.3,2,0.8,4.3,0.9,6.3c0.1,3.1-0.8,5.7-3.8,7.1c-0.5,0.2-1.1,0.4-1.6,0.5c-0.7,2.4-1.8,5.5-4.4,6c-1.5,0.3-3.2,0.6-4.8,0.8
							c-1.8,0.2-4.7,0.6-6.3-0.1c-1.3-0.6-2.2-1.6-2.7-2.8l-0.3,0.1l-1.3,1.9c-2.9,4.4-5.9,9-8.5,13.6c-0.1,0.2-0.2,0.4-0.4,0.6
							c4.3,1,9.9,2.9,13.6,5.4l0.3-0.2l-0.1-1.2l0.9,0.8l10.7-5.8c4.5-2.4,10.7-4.4,15.8-4.4c1.1,0,2.2,0,3.5,0.1l1.4-1.1
							c2-1.5,5.6-4.2,8.8-5.9c-1.2-0.5-2.4-1-3.6-1.5l-15-5.6l15.9-1.5c4.4-0.4,9.8-0.1,14.1,0.9c0.9,0.2,1.9,0.5,2.8,0.8
							c-0.1-0.1-0.1-0.1-0.2-0.2l-6.7-7.6l10,1.5c0.9,0.1,1.8,0.3,2.7,0.5l0.2,0l0.2,0.1c1.3,0.4,2.8,0.9,4.3,1.6l0.2-0.7l3.5,1
							c3.6,1,8,2.4,11.1,4.6c1.5,1.1,3,2.1,4.5,3.2l-0.4-4.4l7.2,7.2c3.1,3.1,6.2,8.1,6.7,12.6c0.2,1.3,0.1,2.7-0.1,4.2l1.6,1.9
							c1.5,1.7,3.5,4.3,4.4,6.4c1.6,3.7,1.2,8.2-0.5,11.9c-1.1,2.4-3.2,5.2-5.1,7.4c-0.3,0.4-0.6,0.7-0.9,1.1
							c-1.6,1.9-4.8,5.9-5.2,8.1C2059.6,130.1,2061.2,136.7,2061.2,136.7z M1971.7,92.6l-1.1,0.1l0.3,0.2L1971.7,92.6z"/>
						<path class="st5" d="M2032,97.7c0,0,1.7-6.1,7.5-4.6c5.9,1.4,11.8,10.3,11.8,10.3s3.8-4.2,7.1-1.8c3.3,2.5,0.6,10.4,0.6,10.4
							s1.6,2.9,1.1,5.4c-0.5,2.5-7.8,3.9-9.7,4.5c-1.9,0.6-3.2-1.9-3.2-1.9s-1.3,0.3-3.4,0.2c-2.1-0.1-15-12.3-15.4-14.4
							c-0.4-2.1,5.3-4.5,5.3-4.5L2032,97.7z"/>
						<path class="st6" d="M2051.3,103.4c0,0,3.8-4.2,7.1-1.8c3.3,2.5,0.6,10.4,0.6,10.4s1.6,2.9,1.1,5.4c-0.5,2.5-7.8,3.9-9.7,4.5
							c-1.9,0.6-3.2-1.9-3.2-1.9s-1.3,0.3-3.4,0.2c-2.1-0.1-15-12.3-15.4-14.4c0,0,12.7,11.8,14.9,11.9c2.2,0.1,4.2-1.3,4.2-1.3
							s1.3,3.3,3,3.1c1.7-0.2,7.8-1.7,8.1-3.4c0.2-1.8-1.1-3.8-1.1-3.8s0.3-0.3,0.7-1.7c0.4-1.4,0.2-7.3-1.5-8.2
							C2055,101.5,2051.3,103.4,2051.3,103.4z"/>
						<path class="st5" d="M2030.2,112c0,0,2.2,7.5,5.5,9.4s5.3,1,5.3,1s-1.9,1.1-4.2,1.8c-2.4,0.7-3.1,0.6-3.1,0.6s3,0.3,5.4-0.2
							c2.5-0.5,6.3-2.5,6.3-2.5s0.9,1.6,1.9,2.3c1,0.7-0.6,6.8-0.6,6.8s1.6-2.3,1.8-4.4c0.2-2,0.3-2.4,0.3-2.4s1,1.3,4.2,1.2
							c3.1-0.1,4.3-2.3,4.3-2.3s0.8,4.4-1.3,6.6c-2.1,2.2-7.7,5-7.7,5l-1.8,0l2.1-2.4l-1-1l0.2,1.1l-3.1,2l-1.9-0.3
							c0,0-3.9-3.9-4-4.4c-0.1-0.6,1.6-2.6,1.6-2.6l-2.4,1.2l-4.4-0.8c0,0-2.9-2.6-4.7-7C2026.9,116.2,2030.2,112,2030.2,112z"/>
						<path class="st6" d="M2030.2,112c0,0,2.2,7.5,5.5,9.4s5.3,1,5.3,1s-1.9,1.1-4.2,1.8c-2.4,0.7-3.1,0.6-3.1,0.6s3,0.3,5.4-0.2
							c2.5-0.5,6.3-2.5,6.3-2.5s0.3,0.5,0.7,1.1l-1.2,0.5c0,0-4.4,2.6-7.9,2.3c-3.4-0.2-5.7-1-5.7-1l0,0c0,0,0.4-0.2,2-0.8
							c1.6-0.6,2.2-1.4,2.2-1.4s-2.9-0.6-4.7-4.2c-0.7-1.3-1.2-3.3-1.5-5.3C2029.8,112.5,2030.2,112,2030.2,112z M2047.1,130.7
							c0.5-0.8,1.2-2.4,1.4-3.7c0.2-2,0.3-2.4,0.3-2.4s1,1.3,4.2,1.2c3.1-0.1,4.3-2.3,4.3-2.3s0.8,4.4-1.3,6.6c-2.1,2.2-7.7,5-7.7,5
							l-0.9,0c0,0,4.1-2.1,7-4.9c3-2.8,1.7-3.4,1.7-3.4s-0.1,0.2-2.1,0.3c-2,0.2-4-0.4-4-0.4s0,0-0.7,1.7
							C2048.7,129.3,2047.6,130.3,2047.1,130.7z"/>
						<path class="st1" d="M2037.1,130c0,0-2.2-1.9-7.2-0.8c-5,1.2-7,5.6-10.3,8.6c-3.3,3-5.6,3.2-5.6,3.2s2.4,0.4,6.1-0.5
							c3.7-0.8,6.3-4.1,6.3-4.1s-0.2,0.8-1.1,2.1c-0.9,1.4-2.6,2.1-2.6,2.1s2.1-0.4,5.7-2.9c3.6-2.5,4.1-3.4,5.9-3.6
							c1.8-0.2,6.4,0.6,6.4,0.6s-0.9-1.7-2.8-2.4c-1.9-0.7-5.6-0.5-5.6-0.5s1.2-0.9,3.3-1c2-0.1,3,0.3,3,0.3L2037.1,130z
							 M2031,138.6c0,0-1.8,2.2-6.1,3.8c-4.2,1.6-9.3,1-9.3,1s-2.1,3.8-2.3,5.9c-0.2,2.2,0.5,4.4,0.5,4.4s0.1-3.2,1.5-5.2
							c1.3-1.9,2.4-2.6,2.4-2.6s-1.7,2.1-1.8,7.1c0,1.9-0.1,3.4-0.1,4.5c0,0.8,0,1.6-0.1,2.5l0,0l0,0c0,0.2,0,0.4,0,0.5
							c-0.6,7-3.5,11.1-3.5,11.1l-5.1,5.4c0,0,10.2-2.6,14.5-8.6c4.3-6.1,2.7-12.6,2.7-12.6l2.3,4.7c0,0-1-2.6,1-8.1
							c2-5.5,5.4-9.8,5.4-9.8l-1.6-0.5c0,0-2.6,0.7-3.9,3.7c-1.3,3-1.8,9.5-1.8,9.5s-0.8-1.6-0.4-5.8c0.4-4.2,4.2-8.3,4.2-8.3
							s-6.6,3.4-8.4,7.9c-1.8,4.5-2.6,11.1-2.6,11.1s-0.6-7.4,1.3-11.5c1.9-4.2,8.8-7.4,9.9-8.4C2030.7,139.4,2031,138.6,2031,138.6
							z M2033.8,144.1c0,0-3.1,5.9-4.3,11.9c-1.2,5.9-1,8.8-1,8.8l-2.1-1.5c0,0-0.8,6.1-7.5,10.1c-6.7,4-14.5,6.2-14.5,6.2
							s17.8-2.7,25-6.2c7.3-3.4,7.9-9.7,7.9-9.7s0.5,1.2,0.2,4.1c-0.2,2.9-1,4.2-1,4.2s3-2.2,4-5c1-2.7,1-6.3-0.6-12.1
							c-1.7-5.8,0-10.1,0-10.1l-0.7-2.1l-2-0.2c0,0-1.7,3.3-0.4,8.2c1.3,5,2.5,6.3,2.5,8.4c0,2.1-0.4,3.2-0.4,3.2s0.3-1.8-1.2-5.4
							c-1.5-3.7-2.6-5.3-2.8-7.1c-0.2-1.8-0.2-1.8-0.2-1.8s-2.2,4.4-1.8,10.7s-3.5,9.8-3.5,9.8s2.1-3.5,2.4-8.4s0.2-9.4,0.8-12
							C2033.1,145.5,2033.8,144.1,2033.8,144.1z M2041,145.5c0,0-0.9,5,1.2,9.5c2.1,4.4,2.3,9.1,1.2,11.5c-1.1,2.4-1.3,2.6-1.3,2.6
							s5.8-4.5,5.4-9.2c-0.4-4.7-1.6-5.9-1.6-5.9s3.1,2.7,3.7,6c0.6,3.3,0.2,3.7,0.2,3.7s1.9-2.9,2.2-6.6c0.2-3.8-2.5-6.5-2.5-6.5
							s2.2,2.6,5.5,3.3c3.3,0.7,4.4-0.5,4.4-0.5s-4.2-0.4-7.6-3.4c-3.4-3-6.4-7.6-6.4-7.6s-0.2,0.4,1.2,2.8c1.4,2.4,3.8,4.1,3.8,4.1
							s-0.4,0.2-2.4-1.2c-2-1.4-3.8-3.8-3.8-3.8s-0.8,1.3,1.9,4.7c2.7,3.4,3.1,6.3,3.1,6.3s-1.3-2-3-4.2c-1.8-2.2-3.2-4.9-3.2-4.9
							s-0.8,3.4,1,7.1c1.8,3.8,0.8,7.3,0.8,7.3s0.7-3.8-1.2-6.7C2041.7,150.8,2041,145.5,2041,145.5z M2046.1,136.1c0,0,5.2,0,7.9,3
							c2.7,2.9,4.5,4.9,8.3,6c3.7,1.1,4.8,0.8,4.8,0.8s-3.2,4.4-8.7,3.9c-5.5-0.5-7-2.9-9.2-5.7c-2.2-2.8-4.3-5.1-4.3-5.1
							s3.2,0.8,6.3,3.1c3.2,2.3,5.6,3.6,5.6,3.6s-2-2.5-5.7-5.2c-3.8-2.7-6.7-4-6.7-4L2046.1,136.1z M2055.5,133.6
							c0,0,1.2,1.8,2.3,4.5c1.1,2.6,1.2,3.9,1.2,3.9s-3.4-4.2-5-5.3c-1.6-1.1-2.3-1.4-2.3-1.4l2.4-0.7c0,0,0.8,0.3,1.7,1.5
							c0.9,1.2,1,1.4,1,1.4L2055.5,133.6z M2024.8,118.1c0,0-5.4,1.4-8.9,6.2c-3.5,4.9-4.2,12.2-4.2,12.2s0.5-1.8,1.9-3.4
							c1.4-1.7,2.2-2.3,2.2-2.3s0.2,1.9-2.2,5.6c-2.3,3.8-2.7,3.8-2.7,3.8s4.4-1.2,7.2-4c2.8-2.8,2.9-4.8,5.6-6.8
							c2.6-1.9,7.3-2.6,7.3-2.6l-1-0.9c0,0-2.5,0-5,0.7c-2.5,0.7-4.5,2.4-4.5,2.4s0.4-1.6,3.6-3.1c3.2-1.5,4.1-1.8,4.1-1.8
							s-2.6-0.8-5.1,0.1c-2.6,0.8-4.1,2-4.1,2s0.7-1.4,3.8-2.9c3.1-1.4,3.9-1.7,3.9-1.7s-2.8-0.6-6.2,1.5c-3.3,2.2-5.2,4.9-5.2,4.9
							s1.1-3.7,4.7-6c3.6-2.3,5.6-3.2,5.6-3.2L2024.8,118.1z M2026.4,103.6c0,0-17-9.9-27.9-11.3c-11-1.4-23.3,3-23.3,3
							s12.7,0.6,16.3,1.5c3.6,1,3.7,1,3.7,1s-1.4-0.2-6.5-0.2s-8.5,0-8.5,0s4.8,4.2,16,9.9c11.2,5.7,21.1,4.9,21.1,4.9s-2,1.4-6,1.3
							c-4-0.1-15.3-3.6-15.3-3.6s4.6,6.9,14,7.7c9.4,0.8,16.2-2.1,16.2-2.1l0.8-1.2c0,0-3.7,0.3-7,1c-3.4,0.7-3.5,0.7-3.5,0.7
							s2.8-1.3,6.3-2.5c3.5-1.2,4.2-2,4.2-2s-10.5-2.6-14.1-3.7c-3.6-1-4.3-1.7-4.3-1.7s4.2,0.9,9.9,1.7c5.7,0.8,7.6,0.4,7.6,0.4
							s-3.3-2.6-7.3-4.4c-4-1.8-8.8-3.6-8.8-3.6s9.4,1.5,13.4,3.4c4,1.9,4,1.9,4,1.9L2026.4,103.6z M2002,82.6c0,0,8.1-6.2,10.8-6.6
							c2.7-0.3,8.2,4.2,10.8,7.9c2.6,3.8,7.2,15.8,7.2,15.8l-2.6-2.6l1,4.7c0,0-13.8-7.6-24.5-11c-10.7-3.4-23.8-2.5-23.8-2.5
							s7.2-3.9,14.1-4c6.9-0.1,17.4,2.7,21.4,4.5c4,1.8,6.3,3.6,6.3,3.6s-3.3-3.4-8.2-5.8c-5-2.4-10.8-2.7-10.8-2.7s7.1-3.4,9.8-3.1
							c2.7,0.2,8.8,7.4,8.8,7.4s-7.4-8.3-8.7-8.9C2012.2,78.6,2002,82.6,2002,82.6z M2041.5,89.4c0,0-10.1-13.3-16.8-17.5
							c-6.7-4.2-18.5-3-18.5-3s4.1,1.5,7.4,3.3c3.4,1.8,7.6,4.5,11,10c3.4,5.5,5.9,11.6,5.9,11.6s-0.5-7-1.5-8.8c-1-1.8-1.9-3-1.9-3
							s2.8,1.4,4.7,3.8c2,2.4,3.2,4.2,3.2,4.2s-2.3-6-4.8-9.2s-3.4-4.2-3.4-4.2s4.4,3.1,8.8,7.5C2040,88.2,2041.5,89.4,2041.5,89.4z
							 M2058.9,98.6c0,0,4.1-6.6,3.4-11.9c-0.6-5.4-5.7-10.4-5.7-10.4l0.2,2.5c0,0-5.2-4.1-11-8.2c-2.4-1.7-6.2-3-10-4.1
							c0.1,0,4.4,1.4,6.1,4.1c1.7,2.8,2.9,6.2,2.9,6.2s-1.6-2.9-5.7-6.4c-4.1-3.5-11.3-5.7-11.3-5.7c-1.6-0.3-2.5-0.4-2.5-0.4
							s9.5,10.7,12.7,16c3.2,5.3,6.1,11,6.1,11s-0.3-3.4-1.9-6.8s-1.8-4.1-1.8-4.1s3.7,2.6,6.3,6.6c2.6,4.1,4,10.2,4,10.2
							s0.6-3.5-1.1-8.6c-1.8-5.1-3.7-7.5-3.7-7.5s2.8,1.3,5,6.7c2.2,5.4,2.4,9.5,2.4,9.5s1.4-4.1,1-7.9c-0.5-3.8-1-5.5-1-5.5
							s1.7,1.8,2.4,6.2c0.7,4.4-0.4,8.3-0.4,8.3s3.2-5.7,3.4-9.4c0.2-3.7-0.4-6.2-0.4-6.2s1.3,3.3,1.3,8.3
							C2059.4,96,2058.9,98.6,2058.9,98.6z M2062.2,117c0,0,4.2-4.6,5.8-8s1.4-6.8,0.5-8.9c-0.9-2.1-3.8-5.4-3.8-5.4s-0.2,2-1.4,4.4
							c-1.3,2.4-1.8,2.2-1.8,2.2l0.6,2.8c0,0,0.5,0,1.7-1.4c1.2-1.4,1.3-1.9,1.3-1.9s-0.3,1.6-1.5,4.2c-1.2,2.6-1.4,2.7-1.4,2.7
							l0.2,3c0,0,1.2-0.8,2.7-2.5c1.5-1.6,1.6-2.8,1.6-2.8s-0.3,1.8-1.4,4.4c-1.2,2.5-2.8,3.6-2.8,3.6L2062.2,117z"/>
						<path class="st3" d="M2012.6,139.7c2.3-1.5,5.5-4,6.4-6.2c1.4-3.4,2.2-3.8,2.2-3.8l-2.6,1.3c0,0,1-2.2,2.1-3.6
							s1.7-1.9,1.7-1.9s-3.8,1.4-4.9,2.3c-1.1,1-1.1,1-1.1,1s2.4-3.6,4.5-5.7c3.1-1.8,5.7-1.2,5.7-1.2s-0.8,0.3-3.9,1.7
							c-3.1,1.4-3.8,2.9-3.8,2.9s1.6-1.2,4.1-2c2.6-0.8,5.1-0.1,5.1-0.1s-1,0.2-4.1,1.8c-3.2,1.5-3.6,3.1-3.6,3.1s2-1.8,4.5-2.4
							c2.5-0.7,5-0.7,5-0.7l1,0.9c0,0-4.6,0.7-7.3,2.6c-2.6,1.9-2.7,3.9-5.6,6.8C2016.4,137.9,2014.2,139,2012.6,139.7z"/>
						<path class="st3" d="M2007,177.1c0,0,9.6-3.3,12.6-9.3c3-6,2.9-14.1,2.9-14.1l2.1,1c0,0-0.9-2.6-0.6-5.4
							c0.3-2.8,0.4-2.8,0.4-2.8s-2.3,3-3.8,7.2c-1,2.8-1.6,4.5-1.9,5.3c0.3-2.1,1.1-6.6,2.4-9.9c1.8-4.5,8.4-7.9,8.4-7.9
							s-3.8,4.1-4.2,8.3c-0.4,4.2,0.4,5.8,0.4,5.8s0.5-6.6,1.8-9.5c1.3-3,3.9-3.7,3.9-3.7l1.6,0.5c0,0-3.4,4.3-5.4,9.8
							c-2,5.5-1,8.1-1,8.1l-2.3-4.7c0,0,1.6,6.6-2.7,12.6C2017.1,174.6,2007,177.1,2007,177.1z M2018.5,159.6c0,0-0.8-7.4,0.3-10.6
							c1.1-3.2,2.4-4.3,2.4-4.3s-3.4-0.2-5.2-0.1c-0.4,0-0.7,0-1.1,0c0.4-0.8,0.7-1.3,0.7-1.3s5,0.6,9.3-1c4.2-1.6,6.1-3.8,6.1-3.8
							s-0.3,0.8-1.3,1.8c-1.1,1-7.9,4.3-9.9,8.4C2018.2,152.2,2018.4,157.7,2018.5,159.6z M2004.4,179.4c0,0,18.6-4.1,23.9-7.4
							c5.4-3.4,8.3-10.6,8.3-10.6s1.2,1.3,1.8,2.8c0.6,1.4,0.6,2,0.6,2s1.1-2,1.3-4.2c0.2-2.2-0.7-5.2-0.7-5.2l-0.3,1.9
							c-0.2-1.8-1.3-3.3-2.5-7.9c-1.3-5,0.4-8.2,0.4-8.2l2,0.2l0.7,2.1c0,0-1.7,4.3,0,10.1c1.7,5.8,1.7,9.4,0.6,12.1c-1,2.7-4,5-4,5
							s0.7-1.3,1-4.2c0.2-2.9-0.2-4.1-0.2-4.1s-0.6,6.2-7.9,9.7C2022.2,176.7,2004.4,179.4,2004.4,179.4z M2038.4,158.8
							c-0.5-0.8-1.1-1.8-1.8-3c-1.3-2.2-2.2-3.9-2.2-3.9s-1,3.8-0.5,7.4c0.4,2.8-2.3,6.5-3.5,8.1c1.1-1.5,2.8-4.5,2.5-8.7
							c-0.4-6.3,1.8-10.7,1.8-10.7s0,0,0.2,1.8c0.2,1.8,1.3,3.4,2.8,7.1C2038,157.6,2038.2,158.2,2038.4,158.8z M2029.8,168
							L2029.8,168L2029.8,168L2029.8,168z M2030,167.2c0.5-2,1.7-7.3,1.4-10.2c-0.2-2.4-0.2-5.4-0.2-7c1.2-3.4,2.6-5.9,2.6-5.9
							s-0.7,1.5-1.2,4c-0.5,2.6-0.4,7.1-0.8,12C2031.6,163.2,2030.6,165.8,2030,167.2z M2044,167.3c0.9-1.1,1.8-2.7,2.2-4.9
							c0.8-4.7-1.4-9.6-1.4-9.6s2.4,0.4,3.8,2.7c1.5,2.4,1.9,3.3,1.9,3.3s0-2.4-0.6-5.4c-0.5-3-1.6-3.9-1.6-3.9s1.8,1.3,4.8,2.4
							c1.2,0.4,2.5,0.6,3.5,0.7c1.5,0.5,2.5,0.6,2.5,0.6s-1.1,1.2-4.4,0.5c-3.3-0.7-5.5-3.3-5.5-3.3s2.7,2.7,2.5,6.5
							c-0.2,3.8-2.2,6.6-2.2,6.6s0.4-0.4-0.2-3.7c-0.6-3.3-3.7-6-3.7-6s1.2,1.2,1.6,5.9C2047.8,162.8,2045.7,165.6,2044,167.3z"/>
						<g>
							<path class="st3" d="M2037.1,130c0,0-0.1-0.1-0.2-0.2c-0.4-0.1-0.7-0.1-1.1,0c-3,0.4-6,2.8-6,2.8s0,0,1.5-0.2
								c1.5-0.2,3.9,0.5,3.9,0.5s-0.7,0-3.5,0.9c-2.8,0.9-4.5,2.8-4.5,2.8l0.6-2.3c0,0-0.1,0.4-3.9,3c-3.8,2.7-7.6,3.7-7.6,3.7
								c1-0.1,2.3-0.2,3.8-0.5c3.7-0.8,6.3-4.1,6.3-4.1s-0.2,0.8-1.1,2.1c-0.9,1.4-2.6,2.1-2.6,2.1s2.1-0.4,5.7-2.9
								c3.6-2.5,4.1-3.4,5.9-3.6c1.8-0.2,6.4,0.6,6.4,0.6s-0.9-1.7-2.8-2.4c-1.9-0.7-5.6-0.5-5.6-0.5s1.2-0.9,3.3-1
								c2-0.1,3,0.3,3,0.3L2037.1,130z M2046.1,136.1c0.6,0,4.6,2.3,7,4.9c2.4,2.6,4.5,5.2,4.5,5.2s-1,0-3.1-0.8
								c-2.2-0.8-3.6-1.6-3.6-1.6s2.3,3.5,6.9,4.2c4.6,0.7,9.4-2.1,9.4-2.1s-3.2,4.4-8.7,3.9c-5.5-0.5-7-2.9-9.2-5.7
								c-2.2-2.8-4.3-5.1-4.3-5.1s3.2,0.8,6.3,3.1c3.2,2.3,5.6,3.6,5.6,3.6s-2-2.5-5.7-5.2c-3.8-2.7-6.7-4-6.7-4L2046.1,136.1z
								 M2045.8,142.8c-0.1-0.1-0.2-0.3-0.4-0.4c0-0.1,0-0.1,0-0.1S2045.5,142.5,2045.8,142.8z M2049.1,147.1
								c-0.2-0.3-0.5-0.5-0.7-0.8L2049.1,147.1z"/>
						</g>
						<path class="st3" d="M2023.6,83.9l2,8.4c0,0-3.4-4.1-8.7-6.4c-5.4-2.3-13.3-2-13.3-2s5.8,0.3,10.8,2.7
							c3.9,1.9,6.8,4.4,7.8,5.4l0,0l0,0c0.3,0.2,0.4,0.4,0.4,0.4s0,0-0.2-0.1l3.5,3.9l0.5,1.9c0,0-13.7-6.6-21-8.6
							c-7.3-1.9-16.7-1.2-16.7-1.2l0,0c4.6,0.2,10.5,0.8,15.8,2.5c10.7,3.4,24.5,11,24.5,11l-1-4.7l2.6,2.6
							C2030.8,99.7,2026.2,87.7,2023.6,83.9z M2025.1,102.9c-3.9-1.3-10.8-3.4-13.5-3.4c-3.8,0-5.3,0.1-5.3,0.1l12.7,7
							c0,0-6.7-1.5-11.7-2.2c-5-0.7-6.6-1.1-6.6-1.1l9.3,6.6c0,0-3.9-0.4-12.7-3.6c-8.8-3.2-17-8.9-17-8.9s0.6,0.6,1.6,1.4
							c2.3,1.7,6.9,4.8,14.2,8.5c11.2,5.7,21.1,4.9,21.1,4.9s-0.1,0.1-0.4,0.2l0,0c2-0.1,4.1-0.3,4.1-0.3s-3.5,2.3-9,3.6
							c-5.5,1.2-13.7-3.3-13.8-3.3c2.2,2.1,6.2,4.7,11.8,5.2c9.4,0.8,16.2-2.1,16.2-2.1l0.8-1.2c0,0-3.7,0.3-7,1
							c-3.4,0.7-3.5,0.7-3.5,0.7s2.8-1.3,6.3-2.5c3.5-1.2,4.2-2,4.2-2s-10.5-2.6-14.1-3.7c-3.6-1-4.3-1.7-4.3-1.7s4.2,0.9,9.9,1.7
							c5.7,0.8,7.6,0.4,7.6,0.4s-3.3-2.6-7.3-4.4c-4-1.8-8.8-3.6-8.8-3.6s9.4,1.5,13.4,3.4c4,1.9,4,1.9,4,1.9l-1-2.1
							C2026.4,103.6,2025.9,103.3,2025.1,102.9z"/>
						<path class="st3" d="M2066.6,111.3c0.5-1.4,0.9-2.7,0.9-3.6c0.2-3.1-0.3-4.3-0.3-4.3l-2.4,2.6c0,0,1.1-2.2,1.2-4.2
							c0.1-1.4-0.3-4.4-0.6-6.1c-0.5-0.6-0.8-1-0.8-1s-0.2,2-1.4,4.4c-1.3,2.4-1.8,2.2-1.8,2.2l0.6,2.8c0,0,0.5,0,1.7-1.4
							c1.2-1.4,1.3-1.9,1.3-1.9s-0.3,1.6-1.5,4.2c-1.2,2.6-1.4,2.7-1.4,2.7l0.2,3c0,0,1.2-0.8,2.7-2.5c1.5-1.6,1.6-2.8,1.6-2.8
							s-0.3,1.8-1.4,4.4c-1.2,2.5-2.8,3.6-2.8,3.6l-0.3,3.6C2062.2,117,2064.8,114.2,2066.6,111.3z M2061.3,93.5
							c0-2.6-0.2-6.4-1.1-8.5c-1.5-3.4-3.5-4.2-3.5-4.2s0.8,3.6,0.7,6.4c-0.1,2.8-0.3,3.7-0.3,3.7s-0.4-4-2-7.1
							c-1.6-3.1-5.5-5-5.5-5s1.2,2.3,1.9,4.4c0.8,2.2,0.8,3.5,0.8,3.5s-1.8-3.3-4.3-5.8c-2.5-2.4-5.8-3.3-5.8-3.3l2.8,4.8
							c0,0-2.8-2.2-4.9-3.6c-2-1.4-5.4-3.4-5.4-3.4l0,0c1.3,1.7,2.5,3.4,3.3,4.7c3.2,5.3,6.1,11,6.1,11s-0.3-3.4-1.9-6.8
							s-1.8-4.1-1.8-4.1s3.7,2.6,6.3,6.6c2.6,4.1,4,10.2,4,10.2s0.6-3.5-1.1-8.6c-1.8-5.1-3.7-7.5-3.7-7.5s2.8,1.3,5,6.7
							c2.2,5.4,2.4,9.5,2.4,9.5s1.4-4.1,1-7.9c-0.5-3.8-1-5.5-1-5.5s1.7,1.8,2.4,6.2c0.7,4.4-0.4,8.3-0.4,8.3s3.2-5.7,3.4-9.4
							c0.2-3.7-0.4-6.2-0.4-6.2s1.3,3.3,1.3,8.3c0,3-0.2,5.1-0.4,6.4c-0.1,0.8-0.2,1.2-0.2,1.2S2060.3,96.4,2061.3,93.5z
							 M2041.5,89.4c0,0-8.5-9.4-11.3-11.4c-2.8-2.1-6.7-3.6-6.7-3.6s1.8,1.8,3.1,3.6c1.3,1.8,2.3,3.4,2.3,3.4l-3.6-2l1.3,3.8
							c0,0-1.5-2.1-4-4.9c-2.5-2.8-5.8-4.1-5.8-4.1l0,0c2.6,1.8,5.4,4.3,7.8,8.1c3.4,5.5,5.9,11.6,5.9,11.6s-0.5-7-1.5-8.8
							c-1-1.8-1.9-3-1.9-3s2.8,1.4,4.7,3.8c2,2.4,3.2,4.2,3.2,4.2s-2.3-6-4.8-9.2s-3.4-4.2-3.4-4.2s4.4,3.1,8.8,7.5
							C2040,88.2,2041.5,89.4,2041.5,89.4z"/>
						<path class="st4" d="M2037.1,130c0,0-2.2-1.9-7.2-0.8c-5,1.2-7,5.6-10.3,8.6c-3.3,3-5.6,3.2-5.6,3.2s1,0.1,2.7,0
							c1-0.3,2.1-0.8,3.2-1.5c4-2.4,6.6-7.4,11.1-8.9s7.6,0.5,7.6,0.5L2037.1,130z M2018.3,123.5L2018.3,123.5c0,0-0.3,0.2-0.9,1
							c-1.5,1.9-2.1,3.6-2.1,3.6c-1.7,3.8-2.7,6.1-2.7,6.1l0,0c-0.8,1.2-1,2.3-1,2.3s0.7-7.3,4.2-12.2c3.5-4.9,8.9-6.2,8.9-6.2
							l0.8,0.9c0,0-2,0.9-5.6,3.2C2019.4,122.6,2018.8,123.1,2018.3,123.5z"/>
						<path class="st4" d="M1975.1,95.3c0,0,13.2-2.5,25.1-0.7c11.9,1.9,27.1,11.1,27.1,11.1l0,0l-1-2.1c0,0-17-9.9-27.9-11.3
							C1987.5,91,1975.1,95.3,1975.1,95.3z M1985.9,88.1c2.8-1.1,8.9-2.9,16.5-1.7c10.6,1.7,19.1,5.1,19.1,5.1h0l0,0
							c-0.1,0-0.8-0.5-2-1.2c-0.9-0.5-2-1.1-3.2-1.6c-4-1.8-14.5-4.6-21.4-4.5c-6.9,0.1-14.1,4-14.1,4S1982.8,88.1,1985.9,88.1z
							 M2002,82.6c0,0,9.2-5.3,12.3-4.6c3.1,0.8,7.2,3.4,7.3,3.4c-2.8-3-6.6-5.7-8.7-5.4C2010.1,76.3,2002,82.6,2002,82.6z
							 M2010.6,70.7c3.2,0.1,9.8,0.5,14.1,2.9c5.8,3.2,12.7,10.7,12.7,10.8c-3.5-4.2-8.7-9.9-12.7-12.4c-6.7-4.2-18.5-3-18.5-3
							S2008.2,69.6,2010.6,70.7z M2027.8,67.3c0,0,4.2,0.3,8.8,3.5c4.6,3.2,8.2,6.1,8.2,6.1l0,0l0,0c0,0,0-0.1-0.1-0.2
							c-0.5-0.8-2.1-3.2-5.5-6.2c-4.1-3.5-11.3-5.7-11.3-5.7c-1.6-0.3-2.5-0.4-2.5-0.4S2026.3,65.5,2027.8,67.3z M2041.8,70.5
							c3.9,2.1,9.5,5.2,11.7,6.4l3.5,1.9c0,0-5.2-4.1-11-8.2c-2.4-1.7-6.2-3-10-4.1C2036,66.6,2040,67.9,2041.8,70.5z"/>
						<path class="st5" d="M2067.7,153.3c0,0,10.2,9,14.9,17.6c4.6,8.7-0.5,26.6-0.5,26.6s-3.8,1.4-10.9-7c-7.1-8.5-9-15.9-9-15.9
							s1.2,10.8,7.5,18.3c6.2,7.5,12.7,10,12.7,10s1.8,7.5-0.5,14.2c-2.2,6.7-6.1,11.4-5.6,14.3c0.5,2.9-10.6,10.1-10.6,10.1
							l9.1-1.6c0,0-1.3,4.6-5.8,6.9c-4.5,2.2-22.6,3.8-28.3,2.4c-5.8-1.4-7.5-1.4-7.5-1.4l-0.2-10.1c0,0,5.6-0.6,12-6.1
							c6.4-5.4,8.2-10.2,8.2-10.2s3-1,9.9,1.4c6.8,2.4,7,10.4,7,10.4s1-5.1-1.8-8.8c-2.8-3.7-13.7-6.2-13.7-6.2s-1.4,0.8,0.8-9.6
							c1-5,2-10,2.8-13.8c0,0,1.8-5.8,1.9-9.2c0.1-3.4-3.2-9.4-3.2-9.4s2.4,8.4,0,11c-2.4,2.6-12.6,7.7-12.6,7.7l0,0
							c-1,0.4-2.1,0.7-3.2,1c-9.9,2.9-19.1-1.6-25.3-5.3s-7.6-7.4-7.6-7.4s6.1,1,26.2-6c20.1-7,26.8-18.4,28.3-21.6
							c1.5-3.2,1.9-4.2,1.9-4.2L2067.7,153.3z"/>
						<path class="st6" d="M2064.1,182.3c1.1,3.4,2.9,7.3,5.6,10.6c6.2,7.5,12.7,10,12.7,10s1.8,7.5-0.5,14.2
							c-2.2,6.7-6.1,11.4-5.6,14.3c0.5,2.9-10.6,10.1-10.6,10.1l9.1-1.6c0,0-1.3,4.6-5.8,6.9c-4.5,2.2-22.6,3.8-28.3,2.4
							c-5.8-1.4-7.5-1.4-7.5-1.4l-0.1-3.8c3.6,0.9,9.5,2,16.5,2.1c11.5,0.2,15.2-2.7,15.2-2.7l-4.8-1.4c0,0,5.9-2.6,8.8-5.8
							c2.9-3.2,6.6-8.5,8.2-15.2c1.6-6.7,2.6-16.2,2.6-16.2s-4.8-2.1-9.3-7.4C2065.9,192.1,2064.1,182.3,2064.1,182.3L2064.1,182.3z
							 M2009.2,184.8c-0.7-1-0.9-1.6-0.9-1.6s3.1,0.5,12.2-1.8l0.2,0l0.4-0.1l0.2-0.1l0.4-0.1l0.2-0.1l0.1,0l0.3-0.1l0.2-0.1
							c0.1,0,0.3-0.1,0.4-0.1l0.2-0.1l0.4-0.1l0.3-0.1l0.4-0.1l0.3-0.1l0.1,0l0.4-0.1l0.3-0.1c0.2,0,0.3-0.1,0.5-0.1l0.2-0.1
							c2.5-0.7,5.2-1.6,8.3-2.7c20.1-7,26.8-18.4,28.3-21.6c1.4-2.9,1.8-4,1.9-4.2l1.5,0.9c-6.4,16.5-20.1,26.1-35.9,30.2l6.7,11.2
							c0,0,11.3-2.7,15.4-6.7c4.1-4,4.5-10.8,4.5-10.8s0.2,0.8,0.5,2c0.6,2.6,1.2,7.2-0.5,9c-2.4,2.6-12.6,7.7-12.6,7.7l0,0
							c-1,0.4-2.1,0.7-3.2,1c-7.5,2.2-14.6,0.1-20.3-2.6l-0.5-8.9C2016.6,184.7,2012.9,184.9,2009.2,184.8z M2070.2,230.4
							c-0.1-1.8-0.5-4.2-2-6.1c-2.8-3.7-13.7-6.2-13.7-6.2s-0.6,0.3-0.4-2.4c3.7,0.6,9.4,1.9,12.6,4.4
							C2070.3,222.8,2070.5,227.8,2070.2,230.4z"/>
						<path class="st4" d="M2067.7,153.3c0,0,10.2,9,14.9,17.6c3.5,6.6,1.4,18.6,0.2,23.9c0-0.1,1.5-9.2-2-21
							c-2.8-9.7-14-16-18.1-18l0.1-0.1c1.5-3.2,1.9-4.2,1.9-4.2L2067.7,153.3z"/>
						<path class="st5" d="M1957.8,65.2l2.5,1.8c0,0-2.6,0.6-6.7,5.8c-4.1,5.2-5.9,9.1-5.9,9.1s1.9-3.9,6-7.5
							c4.1-3.6,5.8-4.6,5.8-4.6s-5.8,8.7-8.6,13.9c-2.9,5.1-1.4,4.4-7.7,7.7c-6.2,3.3-9.6,2.6-9.6,2.6s-0.6,2.5,7.8-0.1
							c8.4-2.6,10.1-4.6,10.1-4.6s10.9,2.3,15.2,6.2c4.3,3.8,3.8,7,7.8,13c4,5.9,9.3,7.3,9.3,7.3s-4.1-2.6-7.5-7.9
							c-3.4-5.3-3.9-9.3-3.9-9.3s11.5,9.1,19.2,15.3c2.7,2.1,4.9,3.8,6.1,4.7c4.6,3.5,11.2,4.5,11.2,4.5l2.7,0.5
							c0,0-5.7,4.6-4.9,14.7s4.3,16.2,4.3,22.1c0,5.9-3.6,10.6-7.4,14.6c-3.8,3.9-6.7,4.4-7.8,4.4c-1.1,0-15.1-3.5-19-17.1
							c-3.8-13.6-0.3-30.4-0.3-30.4s-1.9,3.8-3,9.4c-1.1,5.6-1.1,5.9-1.1,5.9s-2.7-15.7-2.7-23c0-7.4,1.3-11.7,1.3-11.7l-2.9,5
							c0,0-6.6-4.2-11.8-5.6s-6.4-1.1-10.7-4.5c-4.3-3.4-6.1-6.1-6.1-6.1s1.6,6.9,11.2,11.4c9.6,4.5,11.3,5.8,13.8,7.8
							c2.6,2,4.9,11.9,4.9,11.9s-2.6,1.6-9-1.4c-6.4-3-10-11.4-13.5-13.4c-3.4-2-13.2-8.3-18.8-13.3c-5.6-5-7.5-13-7.5-13
							s3.5,0.3,9.3-9.4c5.8-9.8,23-19.4,23-19.4L1957.8,65.2z"/>
						<path class="st6" d="M1957.8,65.2l2.5,1.8c0,0-2.6,0.6-6.7,5.8c-4.1,5.2-5.9,9.1-5.9,9.1s1.9-3.9,6-7.5
							c4.1-3.6,5.8-4.6,5.8-4.6s-5.8,8.7-8.6,13.9c-2.9,5.1-1.4,4.4-7.7,7.7c-6.2,3.3-9.6,2.6-9.6,2.6s-0.1,0.4,0.3,0.7
							c-2.8,0.2-4.4-0.1-4.4-0.1s1.2-0.1,5-1.4c3.8-1.3,9.8-3.8,11.9-5.4c2.1-1.5,4-7,4-7L1945,85c0,0,0.6-3.5,2.5-7.6
							c1.9-4.1,7.6-9.8,7.6-9.8l-13.7,2.2l0,0l14.2-5.8L1957.8,65.2z"/>
						<path class="st6" d="M1974.1,104.3c-1.6-3.4-1.9-5.7-1.9-5.7s11.5,9.1,19.2,15.3c2.7,2.1,4.9,3.8,6.1,4.7
							c4.6,3.5,11.2,4.5,11.2,4.5l2.7,0.5c0,0-5.7,4.6-4.9,14.7c0.6,7.4,2.6,12.6,3.7,17.2l-26.8,13.1c0,0-1.1-9.1-0.3-14.7
							c0.8-5.6,3.7-16.7,3.7-16.7s-0.5-1.9-1.8-7.8c-1.3-5.9-0.2-16.7-0.2-16.7L1974.1,104.3z M1974.9,135.1
							c-0.2,0.7-0.5,1.4-0.7,2.2l0,0v0c-0.2,0.8-0.5,1.7-0.7,2.7l-1.5,6c-0.6-3.7-2.5-15.8-2.5-21.9c0-7.4,1.3-11.7,1.3-11.7l-2.9,5
							c0,0-6.6-4.2-11.8-5.6s-6.4-1.1-10.7-4.5c-4.3-3.4-6.1-6.1-6.1-6.1s1.6,6.9,11.2,11.4c9.6,4.5,11.3,5.8,13.8,7.8
							c2.6,2,4.9,11.9,4.9,11.9s-2.6,1.6-9-1.4c-6.4-3-10-11.4-13.5-13.4c-3.4-2-13.2-8.3-18.8-13.3c-5.6-5-7.5-13-7.5-13
							s5.1,8,9.6,11.1c4.5,3,13.4,10.6,16.2,11.8s10.6,11.4,13.6,13c3,1.5,4.1-1.8,2.4-3.9c-1.7-2.1-12.5-7.8-18.1-12.6
							c-5.6-4.8-6.8-13.4-6.8-13.4s4.6,6,9.8,8.6c5.2,2.6,13.2,3.9,16.3,5.2c3,1.3,4,1.9,4,1.9l4.6-2.1c0,0-0.1,10.2,0.2,15.2
							c0.3,5,0.7,7.3,0.7,7.3l4.7-6.3L1974.9,135.1z"/>
						<path class="st4" d="M1999.9,177.8c-2,1.3-3.6,1.5-4.3,1.5c-1.1,0-15.1-3.5-19-17.1c-3-10.7-1.5-23.5-0.7-28.4
							c-0.7,4.8-1.6,17.3,5.2,28.9C1989.9,177.3,1999.9,177.8,1999.9,177.8z"/>
						<path class="st4" d="M1948,91.4c2.7-1.3,3.4-2.1,3.4-2.1s10.9,2.3,15.2,6.2c4.3,3.8,3.8,7,7.8,13c3,4.4,6.6,6.3,8.3,6.9l0,0
							c0,0-4.5-0.3-8.8-4.9c-4.3-4.6-5.3-9.2-10-13.1C1960,94.2,1951.3,92.1,1948,91.4z"/>
						<path class="st5" d="M1990.4,192.6c-0.2,0.5-2.4,3.7-1.5,7.5c0.9,3.8,10.1,7,12.9,7.5c2.8,0.6,6.6-2.2,7-4
							c0.3-1.8-0.4-6.6-0.6-8.2c-0.2-1.7-2.1-4.6-4-5.3c-1.9-0.6-3.4-2.6-9.1-5.8c-5.8-3.2-15.2-10.1-15.2-10.1s0.2,1.4,6.6,6.9
							c6.4,5.5,9.6,7.4,9.6,7.4s-1.4-0.6-7.5-3.8c-6.2-3.2-8.7-5-8.7-5s4,6.2,8.7,8.9c4.6,2.7,8.2,4.2,8.2,4.2L1990.4,192.6z"/>
						<path class="st5" d="M2010.8,193.4c0,0,0,3.1,0.2,7.5c0.2,4.4-1,5.8-0.8,6.5c0.2,0.7,10.4,4.8,12.9,4.1
							c2.5-0.7,2.9-5.3,2.2-6.5c-0.6-1.2-3-4.3-6.9-7.4c-3.9-3.1-5.1-4.2-6-4.4C2011.6,193,2010.8,193.4,2010.8,193.4z"/>
						<path class="st5" d="M2008.8,211.7c0,0,5.5-1.1,8.7,0.1c3.1,1.2,6,3.9,6.2,7c0.2,3.1,0.4,6.7-1.3,7.2
							c-1.7,0.5-13.1-2.6-13.9-4.8C2007.6,219,2008.8,211.7,2008.8,211.7z"/>
						<path class="st5" d="M1991.7,209c0,0,8.2-1.3,10.6,0.1s4.4,5.1,4.6,7.9c0.2,2.8-1.1,5.7-2.2,6.5c-1,0.8-3.4,0.5-6.4,0.3
							c-3-0.2-6.6-1.3-8.6-3.4c-2-2.1-1.4-4-0.8-6.8C1989.6,210.9,1991.7,209,1991.7,209z"/>
						<path class="st5" d="M1954.7,57.4c0,0,3.9-2.7,4.6-3.8c0.6-1,1-2.3,1.8-2.4c0.9-0.1,3.4-0.3,3.4-0.3s-0.2-2.2,1.9-2.7
							c2.2-0.5,4.7,0.4,4.7,0.4s-0.1-2.1,2.2-2.1c2.3,0,3.5,1.3,3.5,1.3s3.8-1.5,4.6-1c0.8,0.5,2.3,9.8,2.4,11.8
							c0.1,2-0.4,3-1.6,3.6c-1.2,0.6-3.1,0.1-3.1,0.1s1.4-1.6,1.4-2.4c0-0.9-1.4-10-2.3-9.9c-0.9,0.1,0.8,9.9,0.8,9.9
							s-2,3.1-2.8,3.7c-0.8,0.6-3.6,0.6-3.6,0.6s1.2-2.7,1.2-3.1c0-0.4-1.5-9.3-2.3-9.3c-0.8,0-0.6,2.6-0.1,5.1
							c0.6,2.4,0.9,4.6,0.9,4.6s-0.5,2.5-1.2,3c-0.7,0.6-4.4,0.8-4.7,0.3c-0.3-0.5-0.1-4.6-0.4-6c-0.3-1.4-1.4-3-1.5-3.3
							c-0.1-0.3-1,0.6-0.8,1c0.2,0.5,1.1,3.2,1.5,4.5c0.4,1.3,0.5,3.7,0.1,4.2c-0.4,0.5-2.1,0.9-3.2,0.9c-1,0-3.5-1.8-3.5-1.8
							l2.2-0.8c0,0-1.8-3.9-2.4-4.4c-0.6-0.5-4.9-0.2-4.9-0.2L1954.7,57.4z"/>
						<path class="st6" d="M1984,58.9c0,1.7-0.5,2.6-1.6,3.2c-1.2,0.6-3.1,0.1-3.1,0.1s1.4-1.6,1.4-2.4c0-0.1,0-0.2,0-0.4L1984,58.9
							z M1979,59.6l0,0.2c0,0-2,3.1-2.8,3.7c-0.8,0.6-3.6,0.6-3.6,0.6s1.2-2.7,1.2-3.1c0-0.1,0-0.3-0.1-0.7L1979,59.6z M1972.2,60.5
							c0.1,0.5,0.1,0.8,0.1,0.8s-0.5,2.5-1.2,3c-0.7,0.6-4.4,0.8-4.7,0.3c-0.2-0.3-0.2-1.9-0.2-3.4L1972.2,60.5z M1965.4,61.3
							c0.3,1.3,0.3,3.3,0,3.7c-0.4,0.5-2.1,0.9-3.2,0.9c-1,0-3.5-1.8-3.5-1.8l2.2-0.8c0,0-0.2-0.5-0.6-1.2l0.3-0.1L1965.4,61.3z"/>
						<path class="st4" d="M1954.7,57.4c0,0,3.9-2.7,4.6-3.8c0.6-1,1-2.3,1.8-2.4c0.9-0.1,3.4-0.3,3.4-0.3s-0.2-2.2,1.9-2.7
							c2.2-0.5,4.7,0.4,4.7,0.4s-0.1-2.1,2.2-2.1c2.3,0,3.5,1.3,3.5,1.3s3.8-1.5,4.6-1c0.2,0.1,0.4,0.7,0.7,1.6
							c-0.2,0.1-0.4,0.2-0.6,0.3c-1.1,0.1-4.6,1.2-4.6,1.2s-1.5-1.4-2.6-1.3c-1.1,0-1.4,2-1.4,2s-3.9-0.6-5.1,0.2
							c-1.2,0.8-0.1,1.6-1.5,2.4c-1.4,0.8-4.4,0.1-4.4,0.1s0,0.8-1,2.4c-1,1.6-4.5,3.1-4.5,3.1l-2.5-0.4L1954.7,57.4z"/>
						<path class="st6" d="M1979,63.8c0,0-1.2,4.4-1.9,4.5c-0.7,0.2-7.8,1.4-8.9,0.9c-1.2-0.5-0.8-2.8-0.8-2.8s7.3-1.2,9-1.6
							C1978.1,64.4,1979,63.8,1979,63.8z"/>
						<polygon class="st0" points="1909.3,78.2 1856,97.8 1854.6,94.5 1944.4,54.5 1932.4,66.3 1952.4,57.5 1959,58.5 1961.3,63.4 
							1891.4,92.7 						"/>
						<polygon class="st4" points="1952.6,59.4 1957.8,60.2 1958.8,62.4 1902.5,86 1919,72.6 1857,95.5 1935.8,60.4 1923.8,72.2 
													"/>
						<path class="st0" d="M2021.6,178.4l3.5,0l1.5,3.5c1.2,2.9,2.5,5.7,3.8,8.5c0.7,1.5,1.5,3.1,2.3,4.5c2.8,5,5.6,9.9,8.5,14.8
							l0.3,0.5l-6,22.9l-1.9,0.8c-2.4,0.9,2.8,0.2,0.3,0.5c-7.6,0.9-15.6,0.2-23-1.1c-13.5-2.4-27.1-4.8-40.6-7.3l-1.7-0.3l-6.4-26
							l2-1c0.2-0.1,0.4-0.2,0.6-0.3l0.1,0l17.3-7.1l-2.2,0.2l0.5-3.5c1.5-9.7,2.9-19.3,4.3-29c0.5-3.3,1-6.7,1.5-10
							c0.2-1,0.3-2.1,0.5-3.1c0.1-0.6,0.2-1.3,0.4-1.9l1.9-5.3c-0.1-0.5-0.2-1.1-0.3-1.6c-0.2-1-0.3-1.9-0.4-2.9
							c-0.6-5.1-0.7-10.4-0.6-15.6c0.1-2.4,0.2-4.9,0.5-7.2l0.6-5.9c3.5,3.7,6.5,7.1,10.9,10c1.4,1,3.2,1.8,4.7,2.4
							c2.5,1.1,5.2,2.1,7.8,3l3.1,1l-1.4,2.9c-1.9,3.8-3.7,9.5-3.7,13.7c0,2,0.5,4.2,0.9,6.2c0.6,2.6,1.3,5.2,1.9,7.7
							c0.8,3.9,1.4,8.1,0.8,12.1c-0.5,3.4-2.4,6.6-4.4,9.3c-1.5,2-3.4,4-5.4,5.9c1.7,0.1,3.4,0.1,5.1,0c3.6-0.2,7.5-0.4,11-1
							L2021.6,178.4z"/>
						<path class="st1" d="M1990.9,111.7c0,0-1.4,13.3,0.5,25c1.9,11.7,9.3,22.9,9.3,22.9s-4.8-3-7.5-6.9c-2.7-3.8-3.5-7.7-3.5-7.7
							c-0.6,1.6-3.3,22.7-6.6,43.6l16.4-1.3l-33.7,13.8l0,0c-0.4,0.2-0.6,0.3-0.6,0.3l5.4,22.1c0,0,20.7,3.9,40.6,7.3
							c19.9,3.5,20.9-1,20.9-1l6.7-18.5c0,0-6.7-11.7-8.5-14.8c-1.7-3.1-1.5-2.9-2.3-4.5l-4.4-10.8l-3.1,0.3c0,0-4.3,0.7-11.4,1.1
							c-7,0.3-11.7-1-11.7-1s12.2-9,13.5-17.4c1.4-8.5-3.6-18.7-3.6-25.6c0-7,4-15,4-15s-3.4-1.1-7-2.6c-3.7,8.1-1.4,20.3,1.3,28.1
							c-4.7-12-5.9-17.8-5-29.8c-0.9-0.5-1.8-1-2.5-1.5C1994.1,114.9,1990.9,111.7,1990.9,111.7z"/>
						<path class="st3" d="M1990.9,111.7c0,0-0.2,1.6-0.3,4.2l6.2,5.1c0,0-0.6,6.4,3.7,17.5s5.2,11.8,5.2,11.8l-0.1-1.3
							c-4.7-11.9-5.9-17.7-4.9-29.6c-0.9-0.5-1.8-1-2.5-1.5C1994.1,114.9,1990.9,111.7,1990.9,111.7z M2024.7,183.7l-1.1-2.6
							l-3.1,0.3c0,0-4.3,0.7-11.4,1.1c-7,0.3-11.7-1-11.7-1s12.2-9,13.5-17.4c1.4-8.5-3.6-18.7-3.6-25.6c0-7,4-15,4-15
							s-3.4-1.1-7-2.6c-3.7,8.1-1.4,20.1,1.3,27.9l-2-21.2l2,0.2c-0.2,3.2-0.6,10.1,0.1,14.1c1,5.5,1.1,7.9,2.2,13.4
							c1.2,5.4,0.8,8.6,0.8,8.7c-0.2,1.3-0.5,2.6-0.9,3.7c-2.1,6.2-15.5,15.2-15.5,15.2s7,1.6,15.8,2
							C2013.7,185,2019.3,184.6,2024.7,183.7z"/>
						<path class="st4" d="M1990.9,111.7c0,0-1.4,13.3,0.5,25c1.9,11.7,9.3,22.9,9.3,22.9s-4.1-9.9-6.5-20.4
							c-2.4-10.6-0.8-25.1-0.8-25.1C1991.9,112.7,1990.9,111.7,1990.9,111.7z M1991.5,149.7c-1.3-2.7-1.8-4.8-1.8-4.8
							c-0.6,1.6-3.3,22.7-6.6,43.6l3.4-0.3L1991.5,149.7z"/>
						<path class="st4" d="M2039.6,119.1l-11.7-11l0.3,3.3l-15.8-10.8l17.7,14l-0.4-3.7c0,0,6.9,9.1,8.1,9.4
							c1.2,0.4,3.3-0.3,3.3-0.3L2039.6,119.1z"/>
						<path class="st4" d="M2051,122.9l9.9-3.7l-0.4,1.3l9-4.3l-10.6,6.7l0.3-1.6c0,0-5.2,2.7-6.3,2.7S2051,122.9,2051,122.9z"/>
						<g>
							<g>
								<g>
									<polygon class="st1" points="2018.6,207.9 1969.2,207.9 1953,207.9 1937.7,299.3 1995.7,299.3 1999.2,278.2 1967.7,278.2 
										1970.4,262.1 2000.5,262.1 2003.8,242.3 1973.7,242.3 1975.9,229 2013.2,229 1998.4,318.8 2032.3,269.4 2016,268.5 
										2038.3,229 2039.7,229 2039.8,229 2069.2,229 2072.7,207.9 									"/>
									<path class="st0" d="M2072.7,207.9l-3.5,21h-29.5l0,0.1h-1.5l-22.3,39.4l16.3,1l-33.9,49.4l14.9-89.9h-37.3l-2.2,13.3h30.1
										l-3.3,19.8h-30l-2.7,16.2h31.5l-3.5,21h-57.9l15.3-91.3h16.2h49.4H2072.7 M2078.4,203.1h-5.7h-54.1h-49.4H1953h-4.1l-0.7,4
										l-15.3,91.3l-0.9,5.6h5.7h57.9h0.3l-2.3,14l-3.5,21.3l12.2-17.8l33.9-49.4l4.8-7l-8.5-0.5l-8.6-0.5l17.1-30.3h2.8l0-0.1
										h25.4h4.1l0.7-4l3.5-21L2078.4,203.1L2078.4,203.1z M1980,233.8h27.6l-0.6,3.7h-3.2h-24.4L1980,233.8L1980,233.8z
										 M1974.5,266.9h26h1.6l-1.1,6.6h-1.8h-25.8L1974.5,266.9L1974.5,266.9z"/>
								</g>
								<g>
									<polygon class="st6" points="2060.8,257.5 2077.5,235.6 2059.6,235.6 2042.9,235.6 2026.8,264.2 2043,264.9 2012.1,309.9 
										2032.7,293.5 2077.7,257.5 									"/>
									<path class="st0" d="M2077.5,235.6l-16.7,22h17l-45.1,36l-20.6,16.4l30.8-45l-16.2-0.7l16.1-28.6h16.8H2077.5
										 M2087.2,230.8h-9.7h-17.8h-16.8h-2.8l-1.4,2.4l-16.1,28.6l-3.8,6.8l7.8,0.4l7.6,0.3l-26,37.9l-13.7,23l20.7-16.5
										l20.6-16.4l45.1-36l10.7-8.6h-13.7h-7.3l10.8-14.3L2087.2,230.8L2087.2,230.8z"/>
								</g>
							</g>
							<polygon class="st4" points="2060.8,257.5 2077.5,235.6 2059.6,235.6 2044.9,261 2057.8,261 2032.7,293.5 2077.7,257.5 
															"/>
						</g>
					</g>
				</g>
				<path class="st4" d="M2076.2,156.7c1.9-0.3,4.2-0.6,5.9-0.7c3.6-0.2,5.4,0.4,5.4,0.4l-5.8,11.2l4.2,0c0,0-5.7,8.9-15.5,14.7
					c-9.8,5.8-35.4,11.8-35.4,11.8s21.1-2.7,37.1-10.7c16-8,21.1-19.1,21.1-19.1l-4.4,0.7l6.4-11.1c0,0-7.5-1.7-12.9-1.4
					c-5.4,0.2-6.6,0.5-9,0.8L2076.2,156.7z"/>
				<path class="st4" d="M2062.2,72.9c1.9-0.3,4.2-0.6,5.9-0.7c3.6-0.2,5.4,0.4,5.4,0.4l-5.8,11.2l4.2-0.1c0,0-5.7,8.9-15.5,14.7
					c-9.8,5.8-35.4,11.8-35.4,11.8s21.1-2.7,37.1-10.7c16-8,21.1-19.1,21.1-19.1l-4.4,0.7l6.4-11.1c0,0-7.5-1.7-12.9-1.4
					c-5.4,0.3-6.6,0.5-9,0.8L2062.2,72.9z"/>
				<path class="st4" d="M1943.5,152.6c4.5-8,14-23.6,21.7-28.4l-0.8,3.8c10-6.2,22.3-7.1,30.5-12.9c4-2.8,4-2.9,4-2.9
					s-1.1,2.9-7.3,6.7c-11.8,7.2-21.1,5.3-30.6,17.6l1.2-6.7c-5,6.1-9,12.9-12.1,20.1l14.5,4.6c0,0,0,0,0,1.6c0,1.6,0.3,6.2,0.3,6.2
					L1943.5,152.6z"/>
				<path class="st4" d="M1954.8,48.3c-7.9-10.6,10.5-7.9,16.3-22.7c0,0-0.6,3.6-1.3,5.7c-0.8,2.2-2.1,4.7-2.1,4.7
					c9.1-3.9,26.6-17.9,9.4-21.7c18.3,1.9,6.5,14.5-3.5,20.7c-5.8,3.6-10.4,6.4-10.4,6.4l2.5-4.1c-1.5,1.5-10.1,5.9-7.4,8l-3.2,2.7
					L1954.8,48.3z"/>
				<g>
					
						<rect x="1968.1" y="235.6" transform="matrix(0.1634 -0.9866 0.9866 0.1634 1419.6416 2145.3652)" class="st1" width="13.5" height="0"/>
					<polygon class="st1" points="2024.1,268.9 2016,268.5 2016,268.5 					"/>
					<polygon class="st1" points="2003.8,242.3 2003.8,242.3 2000.5,262.1 					"/>
					<rect x="1985.4" y="294.1" class="st1" width="59.9" height="0"/>
					<polygon class="st1" points="1953,207.9 1953,207.9 1945.3,253.6 					"/>
					<polygon class="st1" points="2038.3,229 2021.9,258 2038.3,229 2039.7,229 2039.8,229 2039.7,229 					"/>
					<polygon class="st1" points="1969.2,269.5 1970.4,262.1 1970.4,262.1 					"/>
					<rect x="1967.7" y="278.2" class="st1" width="31.5" height="0"/>
				</g>
				<g>
					<polygon class="st2" points="1968.1,261.7 1968.4,259.7 1970.4,259.7 1998.5,259.7 1999.6,253 1947.8,253 1940.5,296.9 
						1993.7,296.9 1996.4,280.6 1967.7,280.6 1965,280.6 1965.4,277.9 					"/>
					<polygon class="st2" points="2012.1,270.6 2013.9,267.3 2022,253 2011.7,253 2002.4,308.8 2028,271.5 2015.9,270.8 					"/>
				</g>
			</g>
		</g>
	</g>
	<g>
		<g>
			<g>
				<path class="st0" d="M1817.8,306.2c-6.7,0-13.3-2.5-18.4-7.6c-10.1-10.1-10.1-26.7,0-36.8c10.1-10.1,26.7-10.1,36.8,0
					c10.1,10.1,10.1,26.7,0,36.8C1831.1,303.7,1824.4,306.2,1817.8,306.2z M1817.8,257.5c-5.8,0-11.6,2.2-16,6.6
					c-8.8,8.8-8.8,23.2,0,32.1c8.8,8.8,23.2,8.8,32.1,0c8.8-8.8,8.8-23.2,0-32.1C1829.4,259.8,1823.6,257.5,1817.8,257.5z"/>
			</g>
			<g>
				<path class="st0" d="M1830.9,276.4c2-2.6,1.9-6.4-0.5-8.8c-2.4-2.5-6.2-2.6-8.8-0.6l-0.6-0.6c-0.3-0.3-0.9-0.3-1.2,0l-3.6,3.5
					c-0.3,0.3-0.3,0.9,0,1.2l0.6,0.6l-6.9,6.9l-0.6-0.6c-0.3-0.3-0.9-0.3-1.2,0l-3.6,3.5c-0.3,0.3-0.3,0.9,0,1.2l0.6,0.6
					c-2,2.6-1.9,6.4,0.5,8.8c2.4,2.4,6.2,2.6,8.8,0.6l0.6,0.6c0.3,0.3,0.9,0.3,1.2,0l3.6-3.5c0.3-0.3,0.3-0.9,0-1.2l-0.6-0.6
					l6.9-6.9l0.6,0.6c0.3,0.3,0.9,0.3,1.2,0l3.6-3.5c0.3-0.3,0.3-0.9,0-1.2L1830.9,276.4z M1820.3,268.1l1.2,1.2l-2.4,2.4l-1.2-1.2
					L1820.3,268.1z M1808.7,279.7l1.2,1.2l-2.4,2.4l-1.2-1.2L1808.7,279.7z M1812.8,290.9l0.5,0.5c-1.9,1.4-4.7,1.2-6.4-0.6
					c-1.8-1.8-1.9-4.5-0.5-6.5c0.4,0.4,0.6,0.8,1.1,0.8c0.2,0,0.4-0.1,0.6-0.2l1.2-1.2l4.7,4.7l-1.2,1.2
					C1812.4,290.1,1812.4,290.6,1812.8,290.9L1812.8,290.9z M1815.7,291.5l-1.2-1.2l2.4-2.4l1.2,1.2L1815.7,291.5z M1824.4,279.3
					l0.6,0.6l-6.9,6.9l-0.6-0.6c-0.3-0.3-0.9-0.3-1.2,0l-1.2,1.2l-4.7-4.7l1.2-1.2c0.3-0.3,0.3-0.9,0-1.2l-0.6-0.6l6.9-6.9l0.6,0.6
					c0.3,0.3,0.9,0.3,1.2,0l1.2-1.2l4.7,4.7l-1.2,1.2C1824.1,278.5,1824.1,279,1824.4,279.3z M1827.4,279.9l-1.2-1.2l2.4-2.4
					l1.2,1.2L1827.4,279.9z M1829.7,275.2l-0.5-0.5c-0.3-0.3-0.9-0.3-1.2,0l-1.2,1.2l-4.7-4.7l1.2-1.2c0.3-0.3,0.3-0.9,0-1.2
					l-0.5-0.5c1.9-1.4,4.7-1.2,6.4,0.6C1830.9,270.5,1831.1,273.2,1829.7,275.2L1829.7,275.2z"/>
			</g>
		</g>
		<g>
			<g>
				<path class="st0" d="M1877.4,306.2c-6.7,0-13.3-2.5-18.4-7.6c-10.1-10.1-10.1-26.7,0-36.8c10.2-10.2,26.7-10.1,36.8,0
					c10.1,10.1,10.1,26.7,0,36.8C1890.8,303.7,1884.1,306.2,1877.4,306.2z M1877.4,257.5c-5.8,0-11.6,2.2-16,6.6
					c-8.8,8.8-8.8,23.2,0,32.1c8.8,8.8,23.2,8.8,32.1,0c8.8-8.8,8.8-23.2,0-32.1C1889,259.8,1883.2,257.5,1877.4,257.5z"/>
			</g>
			<path class="st0" d="M1888.7,291.6c3.6,0,6.5-2.9,6.5-6.5s-2.9-6.5-6.5-6.5c-0.5,0-1,0.1-1.5,0.2l-0.1,0l-2.8-6.7l2.5-0.8
				c0.5-0.2,0.7-0.7,0.6-1.1c-0.2-0.5-0.7-0.7-1.1-0.6l-3.4,1.2c-0.4,0.2-0.7,0.7-0.5,1.2l0.7,1.8l-9.5,2.5l-1.1-2.6h1.7
				c0.5,0,0.9-0.4,0.9-0.9c0-0.5-0.4-0.9-0.9-0.9h-4.5c-0.5,0-0.9,0.4-0.9,0.9c0,0.5,0.4,0.9,0.9,0.9h0.9l1.5,3.5l-2.2,2.6l-0.1-0.1
				c-1-0.6-2.2-1-3.4-1c-3.6,0-6.5,2.9-6.5,6.5s2.9,6.5,6.5,6.5c3.2,0,5.9-2.4,6.4-5.5l0-0.1h3.7c0.3,0,0.5-0.1,0.7-0.4l6.9-9.5
				l1.4,3.4l-0.1,0.1c-1.9,1.2-3.1,3.3-3.1,5.5C1882.2,288.7,1885.1,291.6,1888.7,291.6z M1870.8,286.2c-0.5,2.1-2.4,3.7-4.6,3.7
				c-2.6,0-4.7-2.1-4.7-4.7s2.1-4.7,4.7-4.7c0.8,0,1.5,0.2,2.2,0.5l0.2,0.1l-3,3.5c-0.2,0.3-0.3,0.6-0.1,0.9
				c0.1,0.3,0.5,0.5,0.8,0.5h4.7L1870.8,286.2z M1868.1,284.2l4.6-5.3l2.3,5.3H1868.1z M1876.5,283.3l-2.4-5.5l7.9-2L1876.5,283.3z
				 M1885.9,281.3l0.2-0.1l1.8,4.3c0.1,0.2,0.3,0.4,0.5,0.5c0.2,0.1,0.5,0.1,0.7,0c0.2-0.1,0.4-0.3,0.5-0.5c0.1-0.2,0.1-0.5,0-0.7
				l-1.8-4.3l0.2,0c0.3,0,0.5-0.1,0.8-0.1c2.6,0,4.7,2.1,4.7,4.7s-2.1,4.7-4.7,4.7c-2.6,0-4.7-2.1-4.7-4.7
				C1883.9,283.6,1884.7,282.2,1885.9,281.3z"/>
		</g>
	</g>
	<g>
		<g>
			<g>
				<path class="st0" d="M2183.1,306.2c-6.7,0-13.3-2.5-18.4-7.6c-10.1-10.1-10.1-26.7,0-36.8c10.1-10.2,26.7-10.1,36.8,0
					c10.1,10.1,10.1,26.7,0,36.8C2196.5,303.7,2189.8,306.2,2183.1,306.2z M2183.1,257.5c-5.8,0-11.6,2.2-16,6.6
					c-8.8,8.8-8.8,23.2,0,32.1c8.8,8.8,23.2,8.8,32.1,0c8.8-8.8,8.8-23.2,0-32.1C2194.8,259.8,2189,257.5,2183.1,257.5z"/>
			</g>
			<path class="st0" d="M2188.4,280.9h2.4l0,0.2c0.1,1.3,1.3,2.3,2.6,2.3h3.5c1.5,0,2.7-1.2,2.7-2.6v-1.2c0-1.4-1.2-2.6-2.7-2.6
				h-3.5c-1.4,0-2.5,1-2.6,2.3l0,0.2h-2.4v-10.2c0-2.8-2.3-5.1-5.2-5.1s-5.2,2.3-5.2,5.1v10.2h-2.4l0-0.2c-0.1-1.3-1.3-2.3-2.6-2.3
				h-3.5c-1.5,0-2.7,1.2-2.7,2.6v1.2c0,1.4,1.2,2.6,2.7,2.6h3.5c1.4,0,2.5-1,2.6-2.3l0-0.2h2.4v10.2c0,2.8,2.3,5.1,5.2,5.1
				s5.2-2.3,5.2-5.1V280.9z M2192.2,279.6c0-0.6,0.5-1.2,1.2-1.2h3.5c0.7,0,1.2,0.5,1.2,1.2v1.2c0,0.6-0.5,1.2-1.2,1.2h-3.5
				c-0.7,0-1.2-0.5-1.2-1.2V279.6z M2174.1,280.8c0,0.6-0.5,1.2-1.2,1.2h-3.5c-0.7,0-1.2-0.5-1.2-1.2v-1.2c0-0.6,0.5-1.2,1.2-1.2
				h3.5c0.7,0,1.2,0.5,1.2,1.2V280.8z M2186.9,269.9l-2.3,1.7c-0.3,0.2-0.4,0.7-0.1,1c0.2,0.3,0.7,0.4,1,0.1l1.4-1v2l-2.3,1.7
				c-0.2,0.1-0.3,0.3-0.3,0.5c0,0.2,0,0.4,0.1,0.5c0.2,0.3,0.7,0.4,1,0.1l1.4-1v2l-2.3,1.7c-0.3,0.2-0.4,0.7-0.1,1
				c0.2,0.3,0.7,0.4,1,0.1l1.4-1v2l-2.3,1.7c-0.3,0.2-0.4,0.7-0.1,1c0.2,0.3,0.7,0.4,1,0.1l1.4-1v2l-2.3,1.7c-0.3,0.2-0.4,0.7-0.1,1
				c0.2,0.3,0.7,0.4,1,0.1l1.4-1v2l-2.3,1.7c-0.3,0.2-0.4,0.7-0.1,1c0.2,0.3,0.7,0.4,1,0.1l1.4-1v0.8c0,2-1.7,3.6-3.8,3.6
				s-3.8-1.6-3.8-3.6v-0.8l1.4,1c0.3,0.2,0.8,0.2,1-0.1c0.2-0.3,0.2-0.8-0.1-1l-2.3-1.7v-2l1.4,1c0.3,0.2,0.8,0.2,1-0.1
				c0.2-0.3,0.2-0.8-0.1-1l-2.3-1.7v-2l1.4,1c0.3,0.2,0.8,0.2,1-0.1c0.2-0.3,0.2-0.8-0.1-1l-2.3-1.7v-2l1.4,1c0.3,0.2,0.8,0.2,1-0.1
				c0.2-0.3,0.2-0.8-0.1-1l-2.3-1.7v-2l1.4,1c0.3,0.2,0.8,0.2,1-0.1c0.1-0.2,0.2-0.3,0.1-0.5c0-0.2-0.1-0.4-0.3-0.5l-2.3-1.7v-2
				l1.4,1c0.3,0.2,0.8,0.2,1-0.1c0.2-0.3,0.2-0.8-0.1-1l-2.3-1.7v-0.6c0-2,1.7-3.6,3.8-3.6s3.8,1.6,3.8,3.6V269.9z"/>
		</g>
		<g>
			<g>
				<path class="st0" d="M2123.5,306.2c-6.7,0-13.3-2.5-18.4-7.6c-10.1-10.1-10.1-26.7,0-36.8c10.1-10.2,26.7-10.1,36.8,0
					c10.1,10.1,10.1,26.7,0,36.8C2136.8,303.7,2130.1,306.2,2123.5,306.2z M2123.5,257.5c-5.8,0-11.6,2.2-16,6.6
					c-8.8,8.8-8.8,23.2,0,32.1c8.8,8.8,23.2,8.8,32.1,0c8.8-8.8,8.8-23.2,0-32.1C2135.1,259.8,2129.3,257.5,2123.5,257.5z"/>
			</g>
			<path class="st0" d="M2135.3,285.1l-3.9-20.9h-4.8v1.8h3.3l2.6,14l-3.2,5.9h-15c-0.6-0.5-1.5-0.8-2.3-0.8c-2.1,0-3.8,1.7-3.8,3.8
				c0,2.1,1.7,3.8,3.8,3.8c1.2,0,2.2-0.5,2.9-1.3h13.5l4.7-8.6l0.5,2.6c-1.3,0.6-2.3,1.9-2.3,3.5c0,2.1,1.7,3.8,3.8,3.8
				s3.8-1.7,3.8-3.8C2138.9,286.9,2137.3,285.2,2135.3,285.1L2135.3,285.1z M2111.9,290.9c-1.1,0-2-0.9-2-2c0-1.1,0.9-2,2-2
				s2,0.9,2,2C2113.9,290,2113,290.9,2111.9,290.9z M2115.7,289.6c0-0.2,0.1-0.5,0.1-0.7c0-0.4-0.1-0.8-0.2-1.2h12.7l-1.1,1.9
				H2115.7z M2135.1,290.9c-1.1,0-2-0.9-2-2c0-1.1,0.9-2,2-2s2,0.9,2,2C2137.1,290,2136.2,290.9,2135.1,290.9z"/>
		</g>
	</g>
</g>
<g id="Layer_3">
	<g>
		<g>
			<path class="st7" d="M1541.1,209.7l5.6-0.1c0,0-4.6,42.8-5.8,52.2c-1.1,9.5-19.8,71.6-19.8,71.6l-10.7-2.6c0,0,1.4-58.4,7.9-68.3
				c-1.6-28.5-3.8-44.5-0.5-49.8c3.3-5.3,14.7-9.9,14.7-9.9L1541.1,209.7z"/>
			<g>
				<path class="st8" d="M1553.6,208.4c0.1,0.4,3,9.8,3,9.8s2.3,0.9,3.7,3c1.4,2.1-2.7,2.8-4.3,3c-1.7-4-2.6-3.6-2.6-3.6l-6.4-11.4
					L1553.6,208.4z"/>
				<path class="st7" d="M1554.2,201.3c0.3,0.5,3.5,14.8,2.9,15c-0.6,0.2-8.1,1.5-8.1,1.5l-7.8-19.1L1554.2,201.3z"/>
			</g>
			<g>
				<path class="st0" d="M1538.3,142.9c0,0,3.5-6.7-0.3-8.8s-5.8,8.1-5.8,8.1l2.4,0.2c0,0,0.7-5.7,1.9-6.6c1.3-0.8,2.2,3.4,0.2,6.7
					L1538.3,142.9z"/>
				<path class="st9" d="M1542.4,147.5c0,0-2.2-6.4-8.5-7c-6.3-0.5-11.6,5.2-14.5,19.2c-7.2,9.8-18.9,13-19.3,19.5
					c-0.4,6.4,15,21.3,21.5,21.1C1534.6,169.8,1542.4,147.5,1542.4,147.5z"/>
			</g>
			<g>
				<path class="st10" d="M1462.4,351.8c0,2.3,20.1,4.2,44.9,4.2c24.8,0,44.9-1.9,44.9-4.2c0-2.3-20.1-4.2-44.9-4.2
					C1482.5,347.6,1462.4,349.5,1462.4,351.8z"/>
				<ellipse class="st11" cx="1515.7" cy="327.2" rx="22.9" ry="25.3"/>
				<g>
					<g>
						<ellipse class="st0" cx="1512.1" cy="327.2" rx="22.9" ry="26.3"/>
						<ellipse class="st10" cx="1512.1" cy="327.2" rx="14.6" ry="16.8"/>
						<ellipse class="st0" cx="1512.1" cy="327.2" rx="6.8" ry="7.8"/>
					</g>
				</g>
			</g>
			<path class="st11" d="M1542.1,221.7c0,0-6.5,39.5-9.4,51.8c-2.9,12.4-17.4,58.4-17.4,58.4l-8-2c0,0,0.3-43.1,0.9-53.9
				c0.6-10.8,3.5-17.6,3.5-17.6c-2-20-1.5-41.9,0.3-47.2c1.8-5.3,5.8-11.6,17.1-12.5C1534.7,203.1,1541.6,198.1,1542.1,221.7z"/>
			<g>
				<path class="st12" d="M1559.1,133.1l-4.2,17.3c0,0,0.5,6.4-11.5-7.4c9.5-13.3,10.1-16,10.1-16L1559.1,133.1z"/>
				<path class="st12" d="M1568.7,117c0,0,0.3,13.2-5.6,17.7c-5.9,4.4-10.9-4.8-11.8-11.6c-0.9-6.9,0.7-11.2,5.5-14.8
					C1561.7,104.5,1568.1,109.3,1568.7,117z"/>
				<path class="st0" d="M1560.9,118l-3,8c-1.5-5-2.9-4.8-4.6-4.1c-1.7,0.7,1.1,5.3,2.7,6c-3.5-0.6-4-1.7-4-1.7s-2.1-4.4-1.4-7.6
					C1551.4,115.4,1560.9,118,1560.9,118z"/>
				<path class="st6" d="M1578.5,119.7l-27.8-1.1c0,0-2.2-11,6.8-13.5c9-2.5,12.2,9.9,12.2,12.6
					C1578.6,117.9,1578.2,119.3,1578.5,119.7z"/>
			</g>
			<path class="st10" d="M1549.5,145.1c0,0,7.1,4.2,11.6,11.1c4.4,6.9,6.8,19.6,1,32.1c-5.8,12.5-13.4,24.8-13.4,24.8l-36.1-5.8
				c8.2-7.9,12.5-16.8,13.2-21.1c0.7-4.2,10.6-32.7,13.3-37.7C1541.7,143.5,1549.5,145.1,1549.5,145.1z"/>
			<path class="st6" d="M1520.4,186.7c0,0,7.2,3.5,15.5-1.1c-0.1,10,2.3,10.9,2.3,10.9s-14.4,3.4-18.9-1.5
				C1520,189.4,1520.4,186.7,1520.4,186.7z"/>
			<g>
				<path class="st12" d="M1552.3,211.9l1.1,12.8c0,0,2.1,1.8,2.9,4.4c0.8,2.6-6.7,3.3-7.3,2.2c-0.6-1.1-0.2-1.7-0.7-3.8
					c-0.5-2.3,1.2-3.2,1.2-3.2l-6.4-12.8L1552.3,211.9z"/>
				<path class="st11" d="M1540.7,143.9c0,0,10-6.2,14.7,10.2s-5.9,34-5.9,34l4.6,32.8l-6.1,3.7c0,0-7.3-18.9-10.2-26.2
					c-2.4-6.3-1.8-3-2.1-10.5c-0.3-7.5-1.3-28.3-0.4-34.2C1536.1,147.7,1538.4,144.8,1540.7,143.9z"/>
			</g>
		</g>
		<path class="st7" d="M1514.7,329.9c2.8-1,1,1.6,5.4,2.2c4.3,0.7,9.8,2.5,7.5,3.4c-2.3,1-16.3,0-19,0.1s-4.7,0.7-4.3-1.6
			c0.4-2.3,1-5.4,1.8-6.1S1511.9,330.9,1514.7,329.9z"/>
	</g>
	<g>
		<path class="st10" d="M2361.6,353.6c0,1.7,37.1,3.1,82.9,3.1c45.8,0,82.9-1.4,82.9-3.1c0-1.7-37.1-3.1-82.9-3.1
			C2398.8,350.5,2361.6,351.9,2361.6,353.6z"/>
		<g>
			<g>
				<path class="st8" d="M2462.9,239.2c11.4,6,15.4,11.6,11.8,18c-2.9,5.1-25.7,38-35.2,51.6l3.8,6.8l-6.9-2.3c-0.6,0.9-1,1.4-1,1.4
					l-5.9-2.2c0,0,5.9-40.9,21.8-52.7c-32-10.1-33.7-10.4-33.8-10.4l19.6-21.1C2437.2,228.3,2445.3,229.9,2462.9,239.2z"/>
				<g>
					<path class="st0" d="M2442.8,312.3c0,0-0.9-1.1-4.1-1c-3.3,0.1-7.1,1.7-9.7-2.2l-2.4,4.4l24.8,9.9L2442.8,312.3z"/>
					<polygon class="st11" points="2425.9,315.1 2450.6,324.9 2451.2,323.3 2426.5,313.5 					"/>
				</g>
				<path class="st6" d="M2434.5,233.1l-13-11.7c1.4-0.1,2.1-0.1,2.1-0.1l17.5,7.4c-3.4,0.7-6.3,4.7-6.3,4.7
					S2434.7,233.2,2434.5,233.1z"/>
			</g>
			<g>
				<path class="st8" d="M2429.9,177.5c0,0,17.9,18.7,22.2,22.7c4.3,4,24.9,17.3,24.9,17.3s1.8-2.4,3.6-1.9c1.8,0.5,4.1,2.8,4.1,2.8
					l-1.6,0.7l-4.3-0.2c0,0-1.1,2.8,0,4.3c-10.7,0-40.1-6.4-60.8-30.8C2427,181,2429.9,177.5,2429.9,177.5z"/>
				<path class="st7" d="M2431.7,177l-13.4,17.3c-10.4-6.6-15.9-15.6-10.2-25.5C2413.8,158.8,2424.7,169.4,2431.7,177z"/>
			</g>
		</g>
		<g>
			<ellipse class="st0" cx="2437.7" cy="316.5" rx="12.6" ry="13.2"/>
			<g>
				<ellipse class="st0" cx="2385" cy="318.8" rx="7" ry="7.3"/>
				<path class="st11" d="M2362.9,319.5c0,12.9,10,23.4,22.4,23.4s22.4-10.5,22.4-23.4s-10-23.4-22.4-23.4
					S2362.9,306.6,2362.9,319.5z M2367.1,319.5c0-10.5,8.2-19,18.2-19c10.1,0,18.2,8.5,18.2,19s-8.2,19-18.2,19
					C2375.3,338.6,2367.1,330.1,2367.1,319.5z"/>
				<path class="st0" d="M2354.6,319.5c0,17.7,13.8,32.1,30.7,32.1s30.7-14.4,30.7-32.1s-13.8-32.1-30.7-32.1
					S2354.6,301.8,2354.6,319.5z M2362.9,319.5c0-12.9,10-23.4,22.4-23.4s22.4,10.5,22.4,23.4s-10,23.4-22.4,23.4
					S2362.9,332.5,2362.9,319.5z"/>
			</g>
			<g>
				<path class="st0" d="M2500.8,318.8c0,4,3.1,7.3,7,7.3c3.8,0,7-3.2,7-7.3c0-4-3.1-7.3-7-7.3
					C2503.9,311.5,2500.8,314.8,2500.8,318.8z"/>
				<path class="st11" d="M2485.3,319.5c0,12.9,10,23.4,22.4,23.4s22.4-10.5,22.4-23.4s-10-23.4-22.4-23.4
					S2485.3,306.6,2485.3,319.5z M2489.5,319.5c0-10.5,8.2-19,18.2-19c10.1,0,18.2,8.5,18.2,19s-8.2,19-18.2,19
					C2497.7,338.6,2489.5,330.1,2489.5,319.5z"/>
				<path class="st0" d="M2477,319.5c0,17.7,13.8,32.1,30.7,32.1s30.7-14.4,30.7-32.1s-13.8-32.1-30.7-32.1S2477,301.8,2477,319.5z
					 M2485.3,319.5c0-12.9,10-23.4,22.4-23.4s22.4,10.5,22.4,23.4s-10,23.4-22.4,23.4S2485.3,332.5,2485.3,319.5z"/>
			</g>
			<g>
				<polygon class="st0" points="2423.9,268.9 2406.9,273.6 2420.9,320 2436.3,317.8 				"/>
				<polygon class="st1" points="2417.1,286.6 2425.7,297 2420.7,297.2 2425.7,306.1 2415.9,294.9 2420.9,294.6 				"/>
			</g>
			<polygon class="st0" points="2391.9,282.3 2384.9,317.8 2382.8,318.1 2389.2,282.3 			"/>
			<polygon class="st0" points="2367,282.8 2385.3,315 2384.9,317.8 2365.4,283.5 			"/>
			<path class="st10" d="M2495.9,277.4l14.7,41.9c0,0,0.5,2.6-2,3.5c-2.5,0.9-3.6-2.1-3.6-2.1l-14.7-40.7L2495.9,277.4z"/>
			<path class="st10" d="M2473.3,219.2l12.7-2.8c0,0,3.9,0.7,2.9,4.5l-8.6,11.8l11.3,34.5l-4.5,1.9l-11.6-34.3c0,0-0.9-2.6,1.8-6.2
				s5.4-7.6,5.4-7.6l-7.7,3.3C2475.1,224.4,2471,224.6,2473.3,219.2z"/>
			<polygon class="st7" points="2492.3,262.5 2483.5,265.5 2489.6,282.6 2498.2,279.3 			"/>
			<polygon class="st7" points="2490.3,280 2429.7,301.3 2426.1,287.3 2485.3,266.5 			"/>
			<path class="st10" d="M2425.9,276.7l-17.7,5.4c0,0-3.2,0-6.1,4c-2.9,4-19.3,31.9-19.3,31.9s-1.6,3.3,1.6,4
				c3.2,0.7,51.7-5.9,51.7-5.9l-1.4-5.4l-46.5,5.7l16.3-26.5c0,0,1.6-4.3,5.7-5c4.1-0.7,17-3.5,17-3.5L2425.9,276.7z"/>
			<path class="st7" d="M2425.4,255.1l16.1,61.5c0,0-2,3.1-6.3,1.7c-13.4-50.4-15.9-63.6-15.9-63.6L2425.4,255.1z"/>
			<path class="st0" d="M2405.5,279.7c0,0,1.1,2.6-0.2,3.3c-1.4,0.7-43.5,1.4-43.5,1.4s-1.6-2.1-0.5-3.8
				C2376,280.2,2405.5,279.7,2405.5,279.7z"/>
		</g>
		<g>
			<path class="st9" d="M2421.6,147.5c0,0-2.1,6-12.4-0.6c-10.3-6.6-24.5-3.2-30.5,3.2c-6,6.3-5.1,17.7-14.5,19.9
				c-9.4,2.2-17.8-1.3-23.6,3.8c0,0,2.1,4.4,13,16.1c10,10.7,18.7,16.1,25.7,14.8c7-1.3,6.3-16.1,10.9-19.6
				c4.5-3.5,17.8,3.5,17.8,3.5l11.8-23.7L2421.6,147.5z"/>
			<g>
				<path class="st12" d="M2430.7,229.6c0,0,22.7,21.5,28.1,27.2c5.4,5.7,5.4,11.4,4.1,19.9c-1.4,8.5-22.2,51.3-22.2,51.3l14.1,8.3
					l-24.5-0.5c0,0,6.1-51.8,16.3-64.8c-20.4-7.6-42.2-27.4-42.2-27.4L2430.7,229.6z"/>
				<g>
					<g>
						<path class="st9" d="M2399.2,222.2c10.5-0.4,22-0.9,24.1-0.9c-0.4,0-1,0-1.8,0.1l13,11.7c-0.8-0.6-3.5-1.6-11.1,1.2
							c-9.5,3.5-16.5,9.2-18.1,11.6C2398,237.6,2396,229.6,2399.2,222.2z"/>
					</g>
				</g>
				<g>
					<path class="st0" d="M2444.5,329.3c0,0-1.2-0.7-4.2,0.5c-3,1.3-6.1,4.1-9.9,1.4l-0.8,5l26.5,0.5L2444.5,329.3z"/>
					<polygon class="st11" points="2429.5,337.9 2456,338.3 2456,336.6 2429.5,336.2 					"/>
				</g>
			</g>
			<path class="st11" d="M2423.1,169.6c0,0,8.6,9.1,9.2,22.2c0.6,13.1-5.9,30-5.9,30l-28.3,1.3c0,0,0-18.8,0.6-29.5
				c0.6-10.7-0.5-22.1,8.5-26.9C2413.7,163.4,2423.1,169.6,2423.1,169.6z"/>
			<g>
				<g>
					<path class="st12" d="M2433.8,138c0,0,4.8,10.9,0.7,16.3c-4.1,5.4-12-0.7-15.2-6.2c-3.2-5.4-3.2-9.5,0.2-14
						C2422.9,129.8,2430.7,131.9,2433.8,138z"/>
					<path class="st12" d="M2426,153.4l-2.6,16.3c0,0,1,5.6-11.9-4.5c8.1-13.7,8.4-16.3,8.4-16.3L2426,153.4z"/>
					<path class="st0" d="M2428.2,139c0,0-2.4,13.9-7.3,15.1l-3.3,0.6l-0.6,0.1l5.7-13.7L2428.2,139z"/>
				</g>
				<g>
					<path class="st0" d="M2423.2,146.9c0,0,7.4,8.7,9.4,9.5c-2,1.1-2,1.1-2,1.1c-3.5-2.4-8.2-7.7-9.1-9.9L2423.2,146.9z"/>
					<path class="st6" d="M2436.2,137.3l-11.4,3.5c0,0,0.5,5.1-1.6,7.1c-2.1,2-5.2,2-5.2,2s-3.4-3.5-3.9-9.8
						c-0.5-6.3,3.7-8.4,8.7-9.6C2426.5,129.7,2433.5,130,2436.2,137.3z"/>
				</g>
			</g>
			<g>
				<path class="st12" d="M2424.3,177.8c0,0,17.9,18.7,22.2,22.7c4.3,4,24.9,17.3,24.9,17.3s1.8-2.4,3.6-1.9
					c1.8,0.5,4.1,2.8,4.1,2.8l-1.6,0.7l-4.3-0.2c0,0-1.1,2.8,0,4.3c-10.7,0-40.1-6.4-60.8-30.8
					C2421.4,181.3,2424.3,177.8,2424.3,177.8z"/>
				<path class="st7" d="M2426.1,177.3l-13.4,17.3c-10.4-6.6-15.9-15.6-10.2-25.5C2408.2,159.1,2419.1,169.7,2426.1,177.3z"/>
			</g>
		</g>
	</g>
	<g>
		<path class="st10" d="M1591.6,323.9c0,1.8,32.4,3.2,72.3,3.2c39.9,0,72.3-1.4,72.3-3.2c0-1.8-32.4-3.2-72.3-3.2
			C1624,320.7,1591.6,322.1,1591.6,323.9z"/>
		<g>
			<g>
				<circle class="st0" cx="1721.8" cy="310.9" r="14.6"/>
				<circle class="st10" cx="1721.8" cy="310.9" r="9.3"/>
			</g>
			<g>
				<circle class="st0" cx="1629" cy="310.9" r="14.6"/>
				<circle class="st10" cx="1629" cy="310.9" r="9.3"/>
			</g>
			<path class="st7" d="M1626.4,309.9c0.4-0.8,1.3-1.2,2.3-1.4c1.3-0.3,2.9-0.2,3.8-0.2c14,0,28,0,41.9,0c6.8,0,13.6,0,20.4,0
				c-0.3-5.3,0.5-21.3,20-27c1.7,7.5,2.3,9.2,2.3,9.2s-12,4-13.3,17.7c0.5,0,1.1,0,1.6,0l-0.2,5.7c-10.7,0-21.4,0-32.1,0
				c-13.7,0-27.5,0.3-41.2,0C1629.3,313.8,1624.7,313.6,1626.4,309.9z"/>
			<g>
				<polygon class="st10" points="1704.6,205.5 1713.6,250.1 1708.5,250.8 1699.8,205.4 				"/>
				<path class="st10" d="M1696.6,207.7c0,1.4,1.1,2.5,2.5,2.5c1.4,0,2.5-1.1,2.5-2.5c0-1.4-1.1-2.5-2.5-2.5
					C1697.8,205.2,1696.6,206.3,1696.6,207.7z"/>
			</g>
			<path class="st11" d="M1715.3,244.7l-9.4,1.1l11.3,65.6c0,0,0.9,3.4,5.7,3c4.2-0.3,3.8-4,4-4.7
				C1727,309,1715.3,244.7,1715.3,244.7z"/>
		</g>
		<g>
			<g>
				<path class="st7" d="M1673.7,242.9c-26.6-34.5-42.2-59.7-42.2-59.7l30.3,3.1c0,0,29.1,40.2,32.5,51.2
					c1.8,5.6-7.4,37.2-12.8,53.4l-13.9-0.9C1668,276.7,1669.3,258.4,1673.7,242.9z"/>
				<path class="st12" d="M1691.8,308h-24c0,0-0.4-7.4-0.1-18l13.9,0.9c-2.3,6.7-3.9,11.4-3.9,11.4L1691.8,308z"/>
				<g>
					<path class="st0" d="M1679.9,299.1c0,0-1.1-0.7-3.8,0.5c-2.7,1.3-5.5,4.2-8.9,1.4l-0.7,5.1l23.8,0.5L1679.9,299.1z"/>
					<polygon class="st10" points="1666.5,307.9 1690.2,308.3 1690.2,306.5 1666.5,306.1 					"/>
				</g>
			</g>
			<g>
				<path class="st8" d="M1678,143.3l-0.2,23.2l24.1,32.4c0,0,6.8,2.3,5.3,7c-2.3,1.7-2.3,1.7-2.3,1.7l-1.3-3l-3.2-2.6l-4.1,0.8
					c0,0-30.4-23.8-32.6-33.8c-2.3-10-3-25.1-3-25.1L1678,143.3z"/>
				<path class="st9" d="M1674.2,123.1c0,0,7,4.7,5.1,21.9c-11.7,3.4-14,4.1-14,4.1l-1.1-27.7
					C1664.2,121.4,1670.4,119.2,1674.2,123.1z"/>
				<polygon class="st6" points="1662.1,119 1667.2,114.7 1672.7,115.4 1679.4,127.5 1673.7,131.4 				"/>
			</g>
			<g>
				<path class="st11" d="M1625.1,201.6c-6.2-9.9-4.2-17.8-4.2-17.8c2.5-2,28,1.7,28,1.7s15.6,36.2,20.4,47.5s3.7,13.9,3.7,13.9
					l-14.7,42.9l-12.5-0.7c1.3-32.7,6.3-45.1,6.3-45.1S1631.3,211.5,1625.1,201.6z"/>
				<path class="st12" d="M1654.8,299.8l13,8.2H1646c0,0-0.6-2.8-0.6-9.3c0-3.4,0.1-6.5,0.3-9.5l12.5,0.7L1654.8,299.8z"/>
				<g>
					<path class="st0" d="M1657.4,299.1c0,0-1.1-0.7-3.8,0.5c-2.7,1.3-5.5,4.2-8.9,1.4l-0.7,5.1l23.8,0.5L1657.4,299.1z"/>
					<polygon class="st10" points="1644,307.9 1667.7,308.3 1667.7,306.5 1644,306.1 					"/>
				</g>
			</g>
			<path class="st10" d="M1667.4,116.2c0,0,6.8,13,6.8,13c-2,13.7-3.5,27.5-5.9,41.1c-0.7,3.7-0.4,11.8-3,19.6
				c-0.4,1.3-7.6,0.2-8.9,0c-11.9-1.5-23.6-4.6-35.5-6.1c0,0,3.4-34.4,17.9-51S1667.4,116.2,1667.4,116.2z"/>
			<g>
				<g>
					<path class="st12" d="M1695.6,105.1c0,0,4.9,11.3,0.7,17c-4.2,5.7-12.5-0.7-15.8-6.4c-3.3-5.7-3.3-9.8,0.2-14.5
						C1684.3,96.5,1692.3,98.7,1695.6,105.1z"/>
					<path class="st12" d="M1685.4,118.3L1672,129c0,0-3.1,5-6.1-11.7c15.8-4.9,17.8-6.7,17.8-6.7L1685.4,118.3z"/>
				</g>
				<g>
					<path class="st0" d="M1684.4,113c0,0,6.7,10.4,8.6,11.5c-1.3,0.4-2.5,0.4-2.5,0.4c-3.2-2.9-7.3-9.1-7.9-11.5L1684.4,113z"/>
					<path class="st6" d="M1698.8,103.7l-12.2,3.8c0,0,0.6,5.5-1.7,7.7c-2.3,2.1-5.5,2.1-5.5,2.1s-3.6-3.8-4.2-10.5
						c-0.6-6.8,4-9.1,9.3-10.4C1688.4,95.5,1695.9,95.9,1698.8,103.7z"/>
				</g>
			</g>
			<path class="st6" d="M1613.2,158.6c3.4,0,25.6-25.8,25.6-25.8s7.8-9.8,16.6-13.2c0.7-0.3,1.4-0.4,2-0.5l10-4.4l6.6,12l-5.7,4
				l-1.1-1c0.4,1.9,0.5,3.8,0.3,5.3c0,0-2.3,20.7-14.7,30.6c-12.4,9.9-51.2,14.7-51.2,14.7l-6.8-28.6
				C1594.8,151.5,1609.8,158.6,1613.2,158.6z"/>
			<g>
				<path class="st12" d="M1666.5,141.6c0,0,0.8,23.2,4.9,27.5c4.1,4.3,27,30,27,30l7,4.1c0,0,0.4,5.3-1.7,6.4
					c-2.1,1.1-2.6,0.2-2.6,0.2c0.8-2.1,1.1-4,1.1-4c-0.8-0.4-3.8-1.3-5.7,0.4c-1.9,1.7-3-3-3-3c-19-10.8-31.9-19.8-38.9-27.3
					c-4.6-5-9.8-17.7-11.5-26.4C1658.9,143.7,1666.5,141.6,1666.5,141.6z"/>
				<path class="st9" d="M1662.7,118.6c0,0,4.1,0.6,5.5,8.1c1.3,7.5,0,15.7,0,15.7l-26.6,9.8c0,0-3-8.5,2.8-20.7
					S1659.7,117.1,1662.7,118.6z"/>
			</g>
		</g>
	</g>
	<g>
		<path class="st10" d="M2227.7,314.7c0,2,16.9,3.6,37.8,3.6c20.9,0,37.8-1.6,37.8-3.6c0-2-16.9-3.6-37.8-3.6
			C2244.7,311.1,2227.7,312.7,2227.7,314.7z"/>
		<path class="st11" d="M2247.9,303.4l1.7,4c0.5,1.1,1.5,1.7,2.6,1.7h31c1.1,0,2.1-0.7,2.6-1.7c0-0.1,1.8-4.1,1.8-4.1H2247.9z"/>
		<polygon class="st0" points="2247.9,303.4 2249.6,307.4 2285.7,307.4 2287.5,303.4 		"/>
		<path class="st8" d="M2234.8,159.9c0.3,0.4,0.6,0.7,0.9,1c3.1,2.9,7.3,5,10.6,7.8c1.8,1.5,5.7,3.9,5.6,6.6c0,0.6-0.2,1.2-0.3,1.8
			c-0.1,0.7,0,1.4,0.2,2.1c0.1,0.4,0.3,0.8,0.7,0.9c0.2,0.1,0.3,0.1,0.5,0.1c3.3,0.2,4.2-3.7,3.3-6.2c-1.3-3.5-3.7-6.7-6.2-9.3
			c-1-1-8.5-8.1-7.6-8.8c1.3-1.1,2.8-1.8,4.1-2.9c2.2-1.9,4.6-3.6,6.9-5.5c4-3.3,7.9-7.5,8.9-12.6c0.2-1.2,0.3-2.5-0.2-3.7
			c-0.5-1.1-1.6-2.1-2.9-2c-0.9,0.1-1.7,0.6-2.4,1.1c-4.7,3.5-9,7.4-12.9,11.7c-3.4,3.8-8.6,8.9-9.9,14c-0.1,0.5-0.2,1-0.2,1.5
			C2233.9,158.3,2234.2,159.2,2234.8,159.9z"/>
		<path class="st12" d="M2251.9,185.4c0.1,0.2,0.2,0.3,0.4,0.4c1.1,1.2,3.9,1.6,5.1,1.8c5.2,0.8,13.3,1.7,17.9-1.4
			c0.2-0.2,0.3-0.5,0.2-0.8c0-0.1,0.1-0.2,0-0.3c-0.3-1.8-0.5-3.5-0.7-5.3c-0.5-4.6-0.5-9.1,0.4-14c1-5.3,4.1-9.9,5-15.1
			c0.8-4.6-2.5-8.1-4.8-11.6c-1.3-2-2.3-4-3.2-6c-0.8-2-1.5-4-2-6.1c0-0.6,0-1.3,0-1.9c0.1-2.1,0.6-3.3,1.6-4.9
			c1.2-0.8,0.5-3.8,0-4.7c-0.9-1.8-2.7-3.8-4.9-3.7c-1.9,0.1-2.7,1.7-2.8,3.4c0,0.4-0.1,0.8-0.1,1.2c-0.9,3.6-2.6,6.5-4.6,9.4
			c-0.7,1-1.5,2.1-2.2,3.2c-3,4.2-4.8,8.4-4.7,13.6c0.1,6.9,3.2,13,3.6,19.8c0.2,3.5,0.4,6.9-0.7,10.3c-0.6,1.9-1.3,3.7-2,5.6
			c-0.4,1-0.7,2.1-1,3.1C2252,182.8,2251.6,184.2,2251.9,185.4z"/>
		<path class="st12" d="M2261.9,104.7c0.1-0.4,0.2-0.7,0.3-1.2c0-0.2,0-0.5,0.1-0.7c0.7-4.8,6.8-8.4,11.4-7.4c2,0.4,3.4,1.4,4.4,2.7
			c0.1,0,0.1,0,0.2,0c1.4,1.3,3,4,2.9,6c0,0.6-0.2,1.2-0.3,1.8c-0.3,2,0.1,4,1.2,5.7c0.4,0.6,0.4,1.1-0.2,1.5
			c-0.3,0.2-0.9,0.1-1.2,0.4c-0.4,0.4-0.3,1-0.3,1.5c-0.8,0.2-1.6,0.1-2.3-0.1c-0.2,0.2-0.2,0.4,0,0.6c0.3,0.5,1.2,0.7,1.8,0.9
			c0.1,0,0.2,0.1,0.3,0.2c0,0.1,0,0.2,0,0.3c-0.3,1.2-0.5,2.4-0.8,3.6c0,0.2-0.1,0.4-0.3,0.6c-0.2,0.2-0.5,0.2-0.7,0.3
			c-4.8,0.4-9.9-2.8-13.4-5.8C2261.6,113,2261.2,108.8,2261.9,104.7z"/>
		<path class="st7" d="M2251.4,259.9c1.6-4.7,4.1-9.1,6.9-13.3c2.8-4,4.2-7,3.5-12c-0.7-4.7-2.7-9.1-4.4-13.4
			c-2.3-5.9-4.1-12-5.1-18.2c-0.7-4.4-1.2-9-1.1-13.5c0-1.2,0.1-2.4,0.3-3.6c0.1-0.6,0.2-1.2,0.4-1.8c0.9-2,2.2-2.1,4.1-2.4
			c1.3-0.2,2.5,0,3.7,0.5c2,0.9,3.6,2.7,4.7,4.6c1,1.6,1.8,3.6,2.3,5.4c0.4,1.7,1.2,3.1,1.8,4.8c1.7,4.6,2.6,9.5,3.4,14.3
			c1.8,11.2,2.7,22.8-0.4,33.6c-2,6.7-5.5,12.8-8.9,18.8c-2.9-0.6-5.8-1.3-8.5-2.5C2253.2,260.9,2252.3,260.4,2251.4,259.9z"/>
		<path class="st8" d="M2245.8,292.2c0-0.1,0.1-0.3,0.1-0.4c2.2-8.9,2.8-18,4.3-26.9c0.3-1.7,0.7-3.3,1.2-4.9c0.8,0.5,1.7,1,2.6,1.4
			c2.7,1.2,5.6,1.9,8.5,2.5c-0.6,1.1-1.2,2.1-1.8,3.2c-2,3.6-3.8,7.2-5.3,11c-1.3,3.4-3.3,8.6-2.4,12.3c0.1,0.3,0.2,0.5,0.3,0.8
			c0.5,0.8,1.4,1.2,2.2,1.5c0.3,0.1,0.7,0.3,1,0.4c0.1,0.1,0.3,0.1,0.4,0.2c-0.2,0-0.5,0.1-0.7,0.1c-3.6,0.5-7.2,0.3-10.7-0.4
			C2245.7,292.6,2245.8,292.4,2245.8,292.2z"/>
		<path class="st0" d="M2287.1,293.2c0.2,0,0.5-0.1,0.7-0.1c1.5,0.7,3.1,1.3,4.6,2c0.7,0.3,3.3,1.1,2.7,2.2
			c-0.5,1.1-3.2,0.7-4.2,0.7h-11.4c-1.4,0-3.3,0.3-4-1.2c-0.6-1.2,0.2-2.8,0.7-4.1C2279.9,293.5,2283.6,293.7,2287.1,293.2z"/>
		<path class="st0" d="M2256.3,293.2c0.2,0,0.5-0.1,0.7-0.1c1.5,0.7,3.1,1.3,4.6,2c0.7,0.3,3.3,1.1,2.7,2.2
			c-0.5,1.1-3.2,0.7-4.2,0.7h-11.4c-1.4,0-3.3,0.3-4-1.2c-0.6-1.2,0.2-2.8,0.7-4.1C2249.1,293.5,2252.8,293.7,2256.3,293.2z"/>
		<path class="st0" d="M2301.5,307.9c0-3.4-2.8-6.2-6.2-6.2c-3.4,0-6.2,2.8-6.2,6.2s2.8,6.2,6.2,6.2
			C2298.7,314.1,2301.5,311.3,2301.5,307.9z"/>
		<path class="st10" d="M2298.2,307.9c0-1.6-1.3-2.9-2.9-2.9c-1.6,0-2.9,1.3-2.9,2.9s1.3,2.9,2.9,2.9
			C2296.9,310.8,2298.2,309.5,2298.2,307.9z"/>
		<path class="st0" d="M2246.2,307.9c0-3.4-2.8-6.2-6.2-6.2c-3.4,0-6.2,2.8-6.2,6.2s2.8,6.2,6.2,6.2
			C2243.5,314.1,2246.2,311.3,2246.2,307.9z"/>
		<circle class="st10" cx="2240" cy="307.9" r="2.9"/>
		<path class="st11" d="M2221.5,296.1c0.2-0.3,0.5-0.6,1-0.6c0.3,0,0.6,0,0.8,0.1c1,0.4,1.8,1,2.8,1.3c1.1,0.3,2.2,0.5,3.3,0.6
			c2.2,0.4,4.4,0.6,6.6,0.6c6.6,0,63.8-0.5,63.8-0.5s5.4,0,9.9-1.7c0.3-0.1,0.5-0.2,0.8-0.3c0.1,0,0.2,0,0.3-0.1
			c3.6-0.6,1.9,3.9,0.6,5.4c-2,2.3-5.4,3.3-8.4,3.3c-0.1,0-74.9,0-74.9,0c-0.1,0-0.2,0-0.3,0c-3.1-0.7-6-2.8-6.6-6
			C2221.2,297.5,2221.2,296.6,2221.5,296.1z"/>
		<path class="st12" d="M2288.9,266.9c-0.8,3.6-1.5,7.2-2.3,10.8c-0.4,2-1,3.9-1.5,5.9c-0.4,1.6-1.6,5.1-1.2,6.8
			c0.1,0.3,0.2,0.5,0.3,0.8c0.5,0.8,1.4,1.2,2.2,1.5c0.3,0.1,0.7,0.3,1,0.4c0.1,0.1,0.3,0.1,0.4,0.2c-0.2,0-0.5,0.1-0.7,0.1
			c-3.6,0.5-7.2,0.3-10.7-0.4c0.1-0.2,0.2-0.4,0.2-0.6c0-0.1,0.1-0.3,0.1-0.4c2-7.9,2.3-16.8,1.7-24.9
			C2281.9,267.8,2285.5,267.8,2288.9,266.9z"/>
		<path class="st11" d="M2256,202.5c3.5,6.6,8.5,12.4,13.9,17.6c2.9,2.8,6,5.5,8.1,8.9c1.3,2.1,2.3,4.6,2.5,7.2
			c0.2,2.4-0.5,5.5-0.8,7.9c-0.5,3.6-1.8,7.1-1.9,10.8c-0.2,4,0.5,7.9,0.8,11.9c2,0.6,4.1,0.8,6.1,0.8c0.4,0,0.7,0,1.1-0.1
			c1.1-0.1,2.2-0.3,3.2-0.6c0.2-1.1,0.4-2.1,0.7-3.2c1.8-9.2,3.1-18.8,2-28.2c-0.4-3.7-1.4-7.2-2.7-10.6c-0.6-2.7-1.6-5.4-2.5-8.1
			c-1.5-4.7-3.4-9.3-5-13.9c-1.7-4.7-2.8-9.5-4.5-14.2c-0.5-1.2-0.9-2.5-1.5-3.6c-0.2-1.1-0.5-2.1-1.3-3.1c-2.6-3.6-9.4-5.6-13.6-6
			c-1.1-0.1-2.2-0.1-3.2,0.1c-2.3,0.6-4.1,2.6-4.9,4.9c-0.2,0.6-0.4,1.2-0.6,1.9C2250.2,189.3,2253.1,196.9,2256,202.5z"/>
		<path class="st6" d="M2261.4,114.5c-2.2-2.2-3-5.6-2.5-8.7c0.4-3.1,1.8-6.8,4-9c0.1-0.2,0.3-0.3,0.4-0.5c0.9-1.4-0.8-2.2-1.6-3
			c-1-0.9-1.9-2.1-2.4-3.5c-0.5-1.3-0.7-2.8-0.3-4.1c0.4-1.3,1.4-2.5,2.8-2.9c0.6-0.2,1.2-0.2,1.8-0.1c2.4,0.3,4.5,2.3,4.9,4.7
			c0.3,2.1-1.2,4.6-0.6,6.6c0.5,1.6,3.3,0.6,4.6,0.7c2.6,0.3,5.2,1.2,7.3,2.7c1,0.7,2.2,1.9,2.5,3.1c0.2,1-0.1,2.2-1,2.7
			c-0.5,0.3-1.1,0.4-1.7,0.4c-1.7,0-3.5-0.8-5.1-0.5c-1.6,0.3-2.4,1.5-3.3,2.7c-1.4,2-2.1-0.6-3.7,0.3c-0.6,0.3-0.9,1-1,1.7
			c-0.2,1,0,2.1,0.5,3.1c0.2,0.4,0.5,0.9,0.7,1.3c0.5,1.5-1.3,3.3-2.6,3.7c-1.2,0.3-2.5-0.4-3.4-1.2
			C2261.5,114.6,2261.4,114.6,2261.4,114.5z"/>
		<path class="st10" d="M2255.5,172.8c-0.6,1.9-1.3,3.7-2,5.6c6.5,5.8,15.3,7.3,22.4,6.9c-0.5-4.6-1.6-14.6-0.7-19.4
			c1-5.3,4.1-9.9,5-15.1c0.8-4.6-2.5-8.1-4.8-11.6c-1.3-2-2.3-4-3.2-6c-1.4-1.5-2.7-3-4.3-4.3c-2.4-2-5.6-3.5-8.6-3
			c-0.7,1-1.5,2.1-2.2,3.2c-3,4.2-4.8,8.4-4.7,13.6c0.1,6.9,3.2,13,3.6,19.8C2256.4,166,2256.5,169.3,2255.5,172.8z"/>
		<path class="st12" d="M2266.2,157.1c3.4,4.8,7.6,9.1,12,12.9c3.1,2.7,6.5,5,10.1,7c7.4,4.2,15.3,8.8,19.6,16.5
			c0.4,0.8,0.9,1.7,1.6,2.2c0.7,0.6,1.9,0.7,2.5,0c1.5-1.6-2.7-6.7-3.6-8c-2.4-3.7-5.2-7-8.3-10.1c-2.6-2.6-5.4-5-8.2-7.4
			c-2.6-2.1-6.1-4-8.2-6.7c-3.3-4-6.4-8.3-8.8-12.9c-2.4-4.5-3.6-9.6-5.9-14.1c-1.2-2.2-2.7-4.6-5.2-4.9c-2.5-0.3-4.8,1.8-5.5,4.2
			c-0.9,3.1,0,7.5,1.8,10.2c1.7,2.6,2.8,5.5,4.4,8.1C2264.9,155.2,2265.6,156.2,2266.2,157.1z"/>
		<path class="st10" d="M2262.3,94.8c0.1-0.3,0.4-0.6,0.7-0.7c1-0.2,2.1,0,3.1-0.3c0.8-0.2,1.6-1,2.5-0.6c0.2,0.1,0.3,0.2,0.2,0.4
			c-0.4,1.3-2.3,2-3.5,2.1C2264.4,95.8,2262,96.5,2262.3,94.8z"/>
		<path class="st11" d="M2264.8,131.3c-3.1-0.7-6.7,1.3-7.7,4.3c-0.3,0.9-0.4,1.9-0.5,2.8c-0.1,3.4,0.8,7,3.2,9.5
			c2-4.7,7.3-7.7,12.4-7c-0.5-2.1-1.2-4.2-2.4-5.9C2268.7,133.2,2266.9,131.8,2264.8,131.3z"/>
		<path class="st0" d="M2296.6,307.9c0-0.7-0.6-1.4-1.4-1.4c-0.7,0-1.4,0.6-1.4,1.4c0,0.7,0.6,1.4,1.4,1.4
			C2296,309.3,2296.6,308.7,2296.6,307.9z"/>
		<path class="st0" d="M2241.6,307.9c0-0.7-0.6-1.4-1.4-1.4c-0.7,0-1.4,0.6-1.4,1.4c0,0.7,0.6,1.4,1.4,1.4
			C2241,309.3,2241.6,308.7,2241.6,307.9z"/>
	</g>
</g>
<g id="Layer_2">
</g>
</svg>
