<?xml version="1.0" encoding="utf-8"?>
<!-- Generator: Adobe Illustrator 24.1.1, SVG Export Plug-In . SVG Version: 6.00 Build 0)  -->
<svg version="1.1" id="Layer_1" xmlns="http://www.w3.org/2000/svg" xmlns:xlink="http://www.w3.org/1999/xlink" x="0px" y="0px"
	 viewBox="0 0 1600 468.7" style="enable-background:new 0 0 1600 468.7;" xml:space="preserve">
<style type="text/css">
	.st0{fill:#ffffff;}
</style>
<g>
	<path class="st0" d="M0,468.7c6.4-10.1,15-11,24.6-10.8c12.3,0.3,24.7-1.4,37-1.7c4.4-0.1,8.8,1.4,13.3,1.8
		c7.3,0.6,14.5,1.3,20.2-6.9c5.7-8.1,13.9-9.6,22-9.8c11-0.3,22-0.1,34.3-0.1c-4.4-20.8,8-27.5,19.5-36.6
		c12.4,28.4,34,14.1,53.7,18.2c-2-30.5,0.4-59.2,9.5-86.5c8.1,4,16.1,31.3,17.7,59.6c4,0,8.1,0,13.2,0c0-3.6-0.3-7.4,0-11.1
		c1.1-12.4,1.9-24.8,3.8-37c0.5-3.1,4.3-5.4,6.6-8c1,2.5,2.7,5,3,7.7c1.4,10.2,2.6,20.5,3.4,30.9c0.8,10,1.1,20.1,1.5,29.7
		c12.4,5,21.3-0.7,29.4-10.4c4.4-5.3,8.8-11.1,14-15c3.8-2.8,8.9-2.8,14-4.2c-4.7-16.4,0.9-28.9,11.8-38.6c1.5-1.3,4.4-2,5.8-1
		c7.9,5.1,14.1,22.4,12.8,32.4c8.8,6,17.3,11.6,25.6,17.5c8.9,6.3,9.7,5.9,13.2-5.6c2-6.6,5.1-12.8,8.1-20.2c10.2,0,21.5,0,33.9,0
		c0-10-0.6-19.5,0.2-28.8c0.4-5,2.2-10.9,5-14.3c7.7-9.5,16.2-18.2,24.7-26.7c1.3-1.3,5.1-1.4,6.3,0c8,8.6,16.2,17,23,27
		c2.7,4,1.9,11.8,2.9,19.2c9.5-0.5,20.1,4.7,27.6-10.3c2.3-4.7,8.6-6.2,13.9-9.7c0-9.6-0.1-20.9,0.1-32.2c0-2.4,1-6.4,2.2-6.8
		c13.6-4.7,11.4-19.6,12.9-31.5c4.2-33.6,7.8-67.2,11.6-100.9c0.8-7.2,1.3-14.5,2.3-21.7c0.2-1.8,1.9-3.2,3-4.9
		c1.2,1.7,3.3,3.3,3.5,5.2c2.5,18.1,4.7,36.2,6.9,54.4c2.8,22.9,6.5,45.8,7.8,68.9c0.7,12,5,19.9,10.4,28.3c1.8,2.7,1.9,7.5,2,11.3
		c0.3,8.4,0.1,16.9,0.1,25.9c1.7,0.4,3.1,1.1,4.3,0.8c11.6-2.5,19.7,4.1,27.1,14.5c7.9,11.1,11.5,10.1,18.2-2.7c1.1-2,2.2-4,3.2-6.1
		c4.6-10,7.9-10.7,14.8-3c0.8,0.9,1.6,1.7,3.8,3.9c0-11.3,0.2-20.9-0.1-30.5c-0.1-1.9-1.6-4.6-3-5.6c-5.2-3.4-5.1-9.5-2.2-13.1
		c5.1-6.4,12-16,17.3-15.2c6.6,0.9,12.5,10.8,18.2,17.3c1,1.2,0.7,6.9-0.4,7.8c-6.9,5.6-3.6,13.5-4.3,21.4c2.8,0.3,5.1,0.5,7.5,0.7
		c0.4-1.5,0.9-2.5,0.9-3.5c0.1-9.2,0.1-18.4,0.1-27.5c0-2.1,0.1-4.3-0.4-6.3c-1.1-4.6-4.6-11.5-3.5-13c5.1-6.6,11-14,17.7-16.4
		c3.8-1.4,10,5.8,14.4,10.2c4.3,4.4,6.7,8.8,3.2,17.7c-2.9,7.3-0.6,17.9-0.6,28.3c2.3-0.6,4.8-0.3,6-1.8c0.8-0.9,0.3-5.5-0.8-6.4
		c-8.8-7.6-2.5-14.7,1.2-19.9c8.3-11.6,21.1-10.5,28.9,2c2.2,3.4,3.3,9.1,3,13.5c-1,14.3-2.9,28.5-4.5,43.1
		c13,3.7,20.8-5.7,29.6-10.4c1.7-0.9,2.3-6.8,2.4-10.5c0.3-11.3-0.1-22.6,0.2-33.9c0.1-3.5,1-8.4,3-10c8.2-6.8,7.9-17.3,8.7-27.3
		c2.3-28.4,4.5-56.8,6.7-85.2c0.8-10.1,1.2-20.2,1.8-30.3c2.2-32.6,4.6-65.3,6.7-97.9c0.4-6.3,0.1-12.6,2-20.1c1,1.6,2.8,3,3,4.7
		c3,29.3,5.7,58.6,8.7,87.9c2.6,25.1,5.7,50.1,8.3,75.2c2,20,3.5,40.1,5.3,60.1c0.7,7.6,1.1,15.3,2.8,22.6c1.1,4.7,4.3,8.6,6.6,12.8
		c0.8-0.5,1.6-1,2.5-1.5c0,14.1,0.1,28.2,0,42.3c-0.1,5.4,0.4,8.8,5.7,10.6c6,2,11.4,6.6,18.2,10.8c0-12,0.1-22.5,0-33
		c-0.2-15.2,9.7-23.4,15.6-34.3c0.4-0.7,6.2,1.5,7.9,4c9.1,13,16.8,27,13.9,45.8c-0.4,2.7,0.1,5.6,0.3,8.4c0,0.5,0.7,0.9,2.6,3.4
		c1.7-32.2-2.4-63.7,7-92.8c1.1,0,2.2,0,3.3,0c3.8,30.8,7.7,61.7,11.6,92.9c13.8,4.3,12-14.6,19.8-21.5c4.6,6.6,9.9,12.7,13.7,20
		c3.3,6.4,6.7,4.8,8,0.3c5.3-17.3,16.4-15.9,27.7-15.4c9.6,0.4,19.2,0.1,29.6,0.1c-5.4-12.1,2.3-17.7,6.4-25.4
		c3.1-5.8,6.5-12.4,7.1-19c2.5-25.6,4-51.3,6.1-80.7c2.8,3.6,5.6,5.5,5.8,7.8c2,19.6,3.3,39.4,5.4,59.1c1.2,11.4,0.5,23.5,8.2,33
		c2.5,3.1,3.4,9.3,3.5,14.2c0.4,20.4,0.2,40.8,0.2,60.8c7.8,3.1,11.5-0.4,14.2-8.6c3.2-9.9,7.4-19.3,11.3-28.8
		c3.1-7.6,6.5-7.9,10.4-0.7c5,9.1,10.9,17.8,14.5,27.8c6.3,17.5,17.5,24.7,31.5,28.4c12.5,3.3,12.4,3.6,13.9,18.3
		c12.9,2.5,24.8,2.6,33.7-12.9c3.2-5.5,9.3-8.3,14.1-12.3c0.6,0.8,1.2,1.7,1.8,2.5c0.4-3,0.8-6,1.2-9.6c1.2-0.2,2.6-0.9,3.9-0.6
		c7.7,2.1,13.6-3.2,19.3-7.8c9.3-7.5,15.6-6.7,23.6,1.8c8.3,8.7,11.7,18.6,10.5,32c-0.8,9-0.2,18.3-0.2,29.7
		c11.6-1,22.9-0.3,33.6-3.4c11.1-3.1,18.7,2.1,26.1,10.3c2.3,2.6,4.5,5.3,6.6,8.3c5,7.2,11,9.6,18,5.1c8.8-5.6,19.7-2.3,28-11.8
		c2.4-2.8,10.8-4.4,14.4,4.9c1,2.6,5.1,3.4,7.9,4.8c3.5,1.7,8,2,10.5,5c14.4,17.2,32,7.8,48.2,9.5c2.5,0.3,5.3-4.6,8.1-7.2
		c9.2,3.4,12.2,7.3,13.1,19c8.8-0.9,17.7-3,26.5-2.4c14.4,1,29.8-1.3,41,14.3C1066.7,468.7,533.3,468.7,0,468.7z"/>
</g>
</svg>
