<?xml version="1.0" encoding="utf-8"?>
<!-- Generator: Adobe Illustrator 26.0.2, SVG Export Plug-In . SVG Version: 6.00 Build 0)  -->
<svg version="1.1" id="Layer_1" xmlns="http://www.w3.org/2000/svg" xmlns:xlink="http://www.w3.org/1999/xlink" x="0px" y="0px"
	 viewBox="0 0 16 16" style="enable-background:new 0 0 16 16;" xml:space="preserve">
<style type="text/css">
	.st0{fill:#1A2740;}
	.st1{fill:#FFFFFF;}
	.st2{fill:#F8DC19;}
	.st3{fill:#EC990F;}
</style>
<rect class="st0" width="16" height="16"/>
<polygon class="st1" points="9,3.7 4.6,3.7 3.1,3.7 1.8,11.8 6.9,11.8 7.2,10 4.4,10 4.7,8.5 7.4,8.5 7.6,6.7 5,6.7 5.2,5.6 
	8.5,5.6 7.2,13.6 10.2,9.2 8.7,9.1 10.7,5.6 10.9,5.6 10.9,5.6 13.5,5.6 13.8,3.7 "/>
<polygon class="st2" points="11.3,8.4 12.6,6.1 11.1,6.1 9.7,8.7 11.1,8.8 8.4,12.8 10.2,11.3 12.5,8.4 "/>
<polygon class="st3" points="12.7,8.1 14.2,6.1 12.6,6.1 11.3,8.4 12.5,8.4 10.2,11.3 14.2,8.1 "/>
</svg>
