<?xml version="1.0" standalone="no"?>
<!DOCTYPE svg PUBLIC "-//W3C//DTD SVG 20010904//EN"
 "http://www.w3.org/TR/2001/REC-SVG-20010904/DTD/svg10.dtd">
<svg version="1.0" xmlns="http://www.w3.org/2000/svg"
 width="700.000000pt" height="700.000000pt" viewBox="0 0 700.000000 700.000000"
 preserveAspectRatio="xMidYMid meet">
<metadata>
Created by potrace 1.14, written by Peter Selinger 2001-2017
</metadata>
<g transform="translate(0.000000,700.000000) scale(0.100000,-0.100000)"
fill="#000000" stroke="none">
<path d="M0 3500 l0 -3500 3500 0 3500 0 0 3500 0 3500 -3500 0 -3500 0 0
-3500z m6551 2335 c3 -2 -31 -225 -75 -495 l-81 -490 -680 0 c-374 0 -703 -3
-731 -6 l-51 -6 -520 -922 c-515 -911 -520 -921 -494 -927 14 -4 179 -15 366
-24 187 -10 345 -21 352 -24 7 -4 -284 -437 -773 -1151 -431 -629 -789 -1149
-795 -1155 -7 -7 -9 -3 -5 15 4 14 159 954 346 2090 187 1136 342 2075 345
2088 l5 22 -878 0 -879 0 -47 -287 c-27 -159 -50 -300 -53 -315 l-5 -28 706 0
c635 0 706 -2 706 -16 0 -8 -34 -213 -75 -455 -41 -242 -75 -444 -75 -450 0
-5 -272 -9 -709 -9 l-708 0 -57 -347 c-31 -192 -59 -363 -62 -380 l-6 -33 741
0 741 0 -5 -22 c-2 -13 -39 -225 -80 -473 -41 -247 -78 -460 -80 -473 l-5 -22
-1360 0 c-1081 0 -1360 3 -1360 13 0 6 160 974 357 2150 l357 2137 2811 0
c1547 0 2814 -2 2816 -5z m207 -1323 c-7 -10 -179 -238 -383 -505 -203 -268
-371 -492 -373 -497 -2 -6 142 -11 387 -12 l391 -3 -1022 -815 c-561 -448
-1025 -817 -1031 -819 -6 -2 -6 2 -2 10 5 8 4 11 -1 6 -5 -5 -9 -12 -9 -15 0
-15 -67 -71 -524 -436 -262 -209 -467 -366 -457 -350 11 16 331 484 713 1041
381 557 696 1019 699 1028 5 12 -2 15 -33 15 -64 0 -707 31 -711 34 -1 2 161
293 361 647 200 354 369 654 376 667 l12 22 810 0 c782 0 810 -1 797 -18z"/>
</g>
</svg>
