<svg id="Layer_1" data-name="Layer 1" xmlns="http://www.w3.org/2000/svg" viewBox="0 0 512 512"><defs><style>.cls-1{fill:#1a2740;}.cls-2{fill:#fff;}.cls-3{fill:#f8dc19;}.cls-4{fill:#ec990f;}.cls-5{fill:#c0d0e4;}</style></defs><rect class="cls-1" width="512" height="512"/><path class="cls-2" d="M231.64,318.44l-10.13,60H56L99.56,117.62H287l-9.56,57.13H165.57l-6.78,40.89h86l-9.55,56.56H149.42l-7.66,46.24Z"/><polygon class="cls-2" points="145.93 117.62 135.8 177.62 271.72 177.62 229.26 434.38 326.05 293.22 279.58 290.47 343.18 177.78 347.44 177.78 347.47 177.62 431.69 177.62 441.63 117.62 145.93 117.62"/><polygon class="cls-3" points="362.26 269.03 404.28 196.48 356.4 196.48 310.33 278.18 356.63 280.29 268.51 408.8 327.23 361.96 398.94 269.03 362.26 269.03"/><polygon class="cls-4" points="407.48 259.22 455.2 196.48 404.28 196.48 362.26 269.03 398.94 269.03 327.23 361.96 456 259.22 407.48 259.22"/><circle class="cls-5" cx="249.27" cy="392.5" r="102.26"/><path class="cls-1" d="M320.9,367.4a11.78,11.78,0,0,0-11.77,11.77v49a11.77,11.77,0,0,0,23.53,0v-49A11.77,11.77,0,0,0,320.9,367.4Z"/><path class="cls-1" d="M177.64,367.4a11.77,11.77,0,0,0-11.76,11.77v49a11.77,11.77,0,0,0,23.53,0v-49A11.78,11.78,0,0,0,177.64,367.4Z"/><path class="cls-1" d="M200.94,362.27H301.75a44.77,44.77,0,0,0-1.66-12.08,48.83,48.83,0,0,0-21.48-28c-.59-.36-1.18-.71-1.79-1.06s-1.2-.67-1.82-1l2-3.62,6.3-11.36a1.67,1.67,0,0,0-.65-2.27,1.69,1.69,0,0,0-.81-.21,1.66,1.66,0,0,0-1.46.86L274,315l-2,3.63c-.63-.28-1.27-.55-1.92-.8s-1.31-.51-2-.74a56.61,56.61,0,0,0-37.64,0c-.66.23-1.32.48-2,.74s-1.29.52-1.92.8l-2-3.63-6.39-11.51a1.67,1.67,0,0,0-2.92,1.62l6.3,11.36,2,3.62c-.62.32-1.22.65-1.82,1s-1.2.7-1.79,1.06a48.83,48.83,0,0,0-21.48,28,45.17,45.17,0,0,0-1.66,12.08h4.15Zm24.11-28a4.39,4.39,0,0,1,4.38,4.38,3.31,3.31,0,0,1,0,.55,4.38,4.38,0,1,1-4.34-4.93Zm48.44,0a4.39,4.39,0,1,1-4.34,4.92,3.12,3.12,0,0,1,0-.54,4.39,4.39,0,0,1,4.38-4.38Z"/><path class="cls-1" d="M297.6,369.42H196.79v76.07a12.69,12.69,0,0,0,12.69,12.69h79.58a12.69,12.69,0,0,0,12.69-12.69V369.42H297.6Z"/></svg>