<?xml version="1.0" encoding="utf-8"?>
<!-- Generator: Adobe Illustrator 25.4.1, SVG Export Plug-In . SVG Version: 6.00 Build 0)  -->
<svg version="1.1" id="Layer_1" xmlns="http://www.w3.org/2000/svg" xmlns:xlink="http://www.w3.org/1999/xlink" x="0px" y="0px"
	 viewBox="0 0 512 512" style="enable-background:new 0 0 512 512;" xml:space="preserve">
<style type="text/css">
	.st0{fill:#1A2740;}
	.st1{fill:#FFFFFF;}
	.st2{fill:#F8DC19;}
	.st3{fill:#EC990F;}
	.st4{fill:#C0D0E4;}
</style>
<rect class="st0" width="512" height="512"/>
<path class="st1" d="M231.6,318.4l-10.1,60H56l43.6-260.8H287l-9.6,57.1H165.6l-6.8,40.9h86l-9.6,56.6h-85.8l-7.7,46.2H231.6z"/>
<polygon class="st1" points="145.9,117.6 135.8,177.6 271.7,177.6 229.3,434.4 326,293.2 279.6,290.5 343.2,177.8 347.4,177.8 
	347.5,177.6 431.7,177.6 441.6,117.6 "/>
<polygon class="st2" points="362.3,269 404.3,196.5 356.4,196.5 310.3,278.2 356.6,280.3 268.5,408.8 327.2,362 398.9,269 "/>
<polygon class="st3" points="407.5,259.2 455.2,196.5 404.3,196.5 362.3,269 398.9,269 327.2,362 456,259.2 "/>
<g>
	<circle class="st4" cx="256" cy="392.5" r="102.3"/>
	<path class="st0" d="M327.6,367.4c-6.5,0-11.8,5.3-11.8,11.8v49c0.2,6.5,5.6,11.6,12.1,11.4c6.2-0.2,11.2-5.2,11.4-11.4v-49
		C339.4,372.7,334.1,367.4,327.6,367.4z"/>
	<path class="st0" d="M184.4,367.4c-6.5,0-11.8,5.3-11.8,11.8v49c0.2,6.5,5.6,11.6,12.1,11.4c6.2-0.2,11.2-5.2,11.4-11.4v-49
		C196.1,372.7,190.9,367.4,184.4,367.4z"/>
	<path class="st0" d="M207.7,362.3h100.8c0-4.1-0.6-8.1-1.7-12.1c-3.4-11.7-11.1-21.7-21.5-28c-0.6-0.4-1.2-0.7-1.8-1.1
		c-0.6-0.4-1.2-0.7-1.8-1l2-3.6l6.3-11.4c0.4-0.8,0.2-1.8-0.7-2.3c-0.2-0.1-0.5-0.2-0.8-0.2c-0.6,0-1.2,0.3-1.5,0.9l-6.4,11.5
		l-2,3.6c-0.6-0.3-1.3-0.5-1.9-0.8s-1.3-0.5-2-0.7c-12.2-4.3-25.5-4.3-37.6,0c-0.7,0.2-1.3,0.5-2,0.7s-1.3,0.5-1.9,0.8l-2-3.6
		l-6.4-11.5c-0.5-0.8-1.5-1.1-2.3-0.6c-0.8,0.5-1.1,1.4-0.6,2.2l6.3,11.4l2,3.6c-0.6,0.3-1.2,0.6-1.8,1s-1.2,0.7-1.8,1.1
		c-10.4,6.3-18.1,16.3-21.5,28c-1.1,3.9-1.7,8-1.7,12.1L207.7,362.3L207.7,362.3z M231.8,334.3c2.4,0,4.4,2,4.4,4.4
		c0,0.2,0,0.4,0,0.5c-0.3,2.4-2.5,4.1-4.9,3.8c-2.4-0.3-4.1-2.5-3.8-4.9C227.7,335.9,229.6,334.3,231.8,334.3L231.8,334.3z
		 M280.2,334.3c2.4,0,4.4,1.9,4.4,4.4c0,2.4-1.9,4.4-4.4,4.4c-2.2,0-4.1-1.6-4.4-3.9c0-0.2,0-0.4,0-0.5
		C275.9,336.2,277.8,334.3,280.2,334.3L280.2,334.3z"/>
	<path class="st0" d="M304.3,369.4H203.5v76.1c0,7,5.7,12.7,12.7,12.7l0,0h79.6c7,0,12.7-5.7,12.7-12.7l0,0v-76.1H304.3z"/>
</g>
</svg>
