<svg xmlns="http://www.w3.org/2000/svg" xmlns:xlink="http://www.w3.org/1999/xlink" data-name="Layer 1" viewBox="0 0 425.2 425.2"><style>
@keyframes c_f { 0% { fill: #fff; } 62.5% { fill: #f8dc14; } 75% { fill: #ec9a22; } 100% { fill: #f8dc14; } }
@keyframes d_f { 0% { fill: #f8dc14; } 62.5% { fill: #ec9a22; } 75% { fill: #f8dc14; } 100% { fill: #ec9a22; } }
@keyframes e_t { 0% { transform: translate(186.4px,187.2px) rotate(0deg) scale(1,1) translate(-186.4px,-187.2px); } 100% { transform: translate(186.4px,187.2px) rotate(12deg) scale(1,1) translate(-186.4px,-187.2px); } }
</style><defs><symbol id="a" preserveAspectRatio="none" width="96.4" height="109.2" viewBox="0 0 96.4 109.2" overflow="visible"><path class="cls-3" d="M267.2 208.7l21.7-37.3h-24.7l-23.7 42l23.9 1.1l-45.4 66.1l30.2-24.1l36.9-47.8h-18.9Z" fill="#fff" transform="translate(-219,-171.4)" style="animation: .8s linear infinite both c_f;"/><path class="cls-4" d="M290.5 203.6l24.5-32.2h-26.1l-21.7 37.3h18.9l-36.9 47.8l66.2-52.9h-24.9Z" fill="#f8dc14" transform="translate(-219,-171.4)" style="animation: .8s linear infinite both d_f;"/></symbol><symbol id="b" preserveAspectRatio="none" width="372.8" height="374.5" viewBox="0 0 372.8 374.5" overflow="visible"><g transform="translate(186.4,187.2) translate(-186.4,-187.2)" style="animation: 1s linear infinite both e_t;"><path class="cls-5" d="M33.7 162.6l-4.9-10.4l-10.8-22.7l-1.6 7.4l-7.5-9.2l-1.7 7.7l-1.5 7.3l10.4 9.5l1.8-7l15.8 17.4Z" fill="#c1d2e5"/><path class="cls-5" d="M31.9 194.9l-6.9-9.2l-15.3-19.9v7.5l-9.3-7.4v7.9v7.4l12.1 7.2l.3-7.2l19.1 13.7Z" fill="#c1d2e5"/><path class="cls-5" d="M36.9 226.8l-8.7-7.4l-19.1-16.4l1.6 7.4l-10.7-5.3l1.7 7.7l1.5 7.2l13.4 4.5l-1.2-7.1l21.5 9.4Z" fill="#c1d2e5"/><path class="cls-5" d="M48.4 257l-10.1-5.5l-22-12l3 6.9l-11.5-3l3.2 7.2l3 6.8l14 1.6l-2.6-6.7l23 4.7Z" fill="#c1d2e5"/><path class="cls-5" d="M65.9 284.2l-11-3.3l-24-7.1l4.4 6l-11.9-0.5l4.6 6.4l4.4 6l14-1.3l-4-6l23.5-0.2Z" fill="#c1d2e5"/><path class="cls-5" d="M88.7 307.1l-11.4-0.9l-25-2l5.5 5l-11.7 2l5.9 5.3l5.5 4.9l13.4-4.2l-5.1-5l22.9-5.1Z" fill="#c1d2e5"/><path class="cls-5" d="M115.8 324.8l-11.4 1.5l-24.9 3.2l6.5 3.8l-11 4.4l6.8 3.9l6.4 3.7l12.3-6.9l-6.1-3.9l21.4-9.7Z" fill="#c1d2e5"/><path class="cls-5" d="M146 336.5l-10.9 3.8l-23.7 8.3l7.2 2.4l-9.9 6.6l7.5 2.4l7 2.3l10.6-9.4l-6.7-2.5l18.9-13.9Z" fill="#c1d2e5"/><path class="cls-5" d="M177.9 341.6l-9.8 6l-21.5 13.1l7.5 .8l-8.3 8.5l7.8 .8l7.4 .8l8.4-11.4l-7.1-1l15.6-17.6Z" fill="#c1d2e5"/><path class="cls-5" d="M210.2 340l-8.4 7.9l-18.2 17.3l7.5-0.8l-6.4 10l7.8-0.8l7.4-0.8l5.8-12.8l-7.1 .5l11.6-20.5Z" fill="#c1d2e5"/><path class="cls-5" d="M241.4 331.7l-6.5 9.5l-14.2 20.7l7.1-2.4l-4.2 11.2l7.5-2.4l7.1-2.3l3-13.8l-6.9 1.9l7.1-22.4Z" fill="#c1d2e5"/><path class="cls-5" d="M270.3 317.1l-4.4 10.6l-9.7 23.2l6.5-3.7l-1.7 11.7l6.8-3.9l6.4-3.7l.2-14.1l-6.4 3.3l2.3-23.4Z" fill="#c1d2e5"/><path class="cls-5" d="M295.4 296.9l-2.1 11.2l-4.6 24.7l5.6-5l.8 11.9l5.8-5.3l5.5-5l-2.8-13.8l-5.5 4.6l-2.7-23.3Z" fill="#c1d2e5"/><path class="cls-5" d="M315.9 271.8l.3 11.4l.6 25.2l4.4-6.1l3.2 11.5l4.6-6.4l4.4-6l-5.6-12.9l-4.5 5.6l-7.4-22.3Z" fill="#c1d2e5"/><path class="cls-5" d="M330.6 243l2.7 11.2l5.8 24.4l3.1-6.8l5.5 10.5l3.2-7.2l3-6.8l-8.2-11.4l-3.2 6.4l-11.9-20.3Z" fill="#c1d2e5"/><path class="cls-5" d="M339.1 211.8l4.9 10.4l10.8 22.7l1.6-7.4l7.5 9.2l1.7-7.7l1.5-7.3l-10.4-9.5l-1.8 7l-15.8-17.4Z" fill="#c1d2e5"/><path class="cls-5" d="M340.9 179.5l6.9 9.1l15.3 20v-7.5l9.3 7.4v-7.9v-7.4l-12.1-7.2l-0.3 7.2l-19.1-13.7Z" fill="#c1d2e5"/><path class="cls-5" d="M335.9 147.6l8.7 7.5l19.1 16.3l-1.6-7.4l10.7 5.3l-1.6-7.7l-1.6-7.2l-13.4-4.5l1.2 7.1l-21.5-9.4Z" fill="#c1d2e5"/><path class="cls-5" d="M324.4 117.4l10.1 5.5l22 12l-3-6.9l11.5 3l-3.2-7.2l-3-6.8l-14-1.6l2.6 6.7l-23-4.7Z" fill="#c1d2e5"/><path class="cls-5" d="M306.9 90.2l11 3.3l24 7.1l-4.4-6l11.9 .5l-4.6-6.4l-4.4-6l-14 1.3l4 6l-23.5 .2Z" fill="#c1d2e5"/><path class="cls-5" d="M284.1 67.3l11.4 .9l25 2l-5.6-5l11.8-2l-5.9-5.3l-5.5-5l-13.4 4.3l5.1 5l-22.9 5.1Z" fill="#c1d2e5"/><path class="cls-5" d="M257 49.6l11.4-1.5l24.9-3.2l-6.5-3.8l11-4.4l-6.8-3.9l-6.4-3.7l-12.3 6.9l6.1 3.9l-21.4 9.7Z" fill="#c1d2e5"/><path class="cls-5" d="M226.9 37.9l10.8-3.8l23.7-8.3l-7.2-2.4l9.9-6.6l-7.5-2.4l-7-2.3l-10.6 9.4l6.7 2.5l-18.8 13.9Z" fill="#c1d2e5"/><path class="cls-5" d="M194.9 32.8l9.8-6l21.4-13.1l-7.4-0.8l8.3-8.5l-7.8-0.8l-7.4-0.8l-8.4 11.3l7.1 1.1l-15.6 17.6Z" fill="#c1d2e5"/><path class="cls-5" d="M162.6 34.4l8.4-7.9l18.2-17.3l-7.5 .8l6.4-10l-7.8 .8l-7.4 .8l-5.8 12.8l7.1-0.4l-11.6 20.4Z" fill="#c1d2e5"/><path class="cls-5" d="M131.4 42.7l6.5-9.5l14.2-20.7l-7.1 2.3l4.2-11.1l-7.6 2.4l-7 2.3l-3 13.8l6.9-1.9l-7.1 22.4Z" fill="#c1d2e5"/><path class="cls-5" d="M102.5 57.3l4.4-10.6l9.7-23.2l-6.5 3.7l1.7-11.7l-6.8 3.9l-6.5 3.7l-0.1 14.1l6.4-3.3l-2.3 23.4Z" fill="#c1d2e5"/><path class="cls-5" d="M77.3 77.5l2.2-11.2l4.6-24.7l-5.6 5l-0.8-11.9l-5.8 5.3l-5.6 5l2.9 13.8l5.5-4.6l2.6 23.3Z" fill="#c1d2e5"/><path class="cls-5" d="M56.9 102.6l-0.2-11.5l-0.7-25.1l-4.4 6.1l-3.2-11.5l-4.6 6.4l-4.4 6l5.6 12.9l4.5-5.6l7.4 22.3Z" fill="#c1d2e5"/><path class="cls-5" d="M42.2 131.4l-2.7-11.2l-5.8-24.4l-3.1 6.8l-5.5-10.5l-3.2 7.2l-3 6.8l8.2 11.4l3.2-6.4l11.9 20.3Z" fill="#c1d2e5"/></g></symbol></defs><ellipse cx="212.6" cy="212.6" class="cls-1" rx="212.6" ry="212.6" fill="#fff"/><ellipse cx="212.6" cy="212.6" class="cls-2" rx="199" ry="199" fill="#1b2840"/><path class="cls-1" d="M200.1 234.1l-5.2 30.8h-85.2l22.5-134.1h96.3l-4.9 29.4h-57.5l-3.5 21h44.2l-4.9 29.1h-44.1l-3.9 23.8Z" fill="#fff"/><path class="cls-1" d="M156 130.8l-5.2 30.9h69.9l-21.8 132l49.7-72.6l-23.9-1.4l32.7-58h2.2h43.3l5.1-30.9h-152Z" fill="#fff"/><use x="219" y="171.4" width="96.4" height="109.2" xlink:href="#a"/><path class="cls-5" d="M183.8 88.3l-0.8 4.7h-15.1l3.5-20.5h14.7l-0.8 4.5h-8.8l-0.5 3.2h7.4l-0.8 4.4h-7.3l-0.6 3.7Z" fill="#c1d2e5"/><path class="cls-5" d="M194.5 72.5l-3.4 20.5h-5.8l3.5-20.5Z" fill="#c1d2e5"/><path class="cls-5" d="M210.9 86.5h-10.4c-0.1 .3-0.1 .6-0.1 .9c0 .6 .2 1.2 .6 1.6c.4 .4 1 .6 1.6 .6c1.2 0 2.3-0.8 2.6-2l5.1 .9c-0.7 1.5-1.8 2.7-3.2 3.6c-1.5 .9-3.2 1.4-4.9 1.4c-2 0-4-0.7-5.5-2c-1.4-1.3-2.2-3.3-2.1-5.2c0-2.4 .9-4.7 2.6-6.4c1.7-1.6 4-2.5 6.4-2.4c2-0.1 4 .6 5.4 2c1.4 1.4 2.1 3.3 2 5.3c0 .6 0 1.1-0.1 1.7Zm-5.4-2.9c0-0.2 0-0.5 0-0.7c0-0.5-0.1-1-0.5-1.4c-0.3-0.4-0.8-0.7-1.4-0.6c-0.6 0-1.2 .2-1.7 .7c-0.6 .5-0.9 1.2-1 2Z" fill="#c1d2e5"/><path class="cls-5" d="M222.5 87.1l4.6 1.1c-0.6 1.7-1.8 3.1-3.2 4.1c-1.3 .7-2.7 1.1-4.2 1.1c-1.9 .1-3.7-0.6-5.1-2c-1.4-1.3-2.1-3.2-2-5.1c0-2.3 .8-4.6 2.4-6.3c1.5-1.8 3.8-2.8 6.2-2.7c1.8-0.1 3.4 .6 4.7 1.7c1.3 1.1 2 2.7 2 4.3l-5.2 .6c0-1.6-0.5-2.4-1.6-2.4c-1 0-1.7 .7-2 2c-0.4 1.1-0.6 2.3-0.6 3.5c0 1.5 .5 2.2 1.6 2.2c1.2 0 1.9-0.7 2.4-2.1Z" fill="#c1d2e5"/><path class="cls-5" d="M239.6 77.8l-0.6 3.9h-2.7l-0.9 5.4c-0.1 .3-0.2 .7-0.2 1c0 .7 .5 1.1 1.4 1.1c.5 0 1-0.1 1.4-0.2l-0.7 4c-1 .2-2 .3-3.1 .3c-0.9 .1-1.8-0.1-2.7-0.4c-0.6-0.3-1.1-0.8-1.5-1.3c-0.4-0.7-0.6-1.5-0.5-2.3c0-0.7 .1-1.5 .2-2.2l.9-5.4h-2l.6-3.9h2.1l.8-4.4l5.5-0.1l-0.7 4.5Z" fill="#c1d2e5"/><path class="cls-5" d="M241.9 77.8h5l-0.6 3.7c1.1-2.8 2.7-4.1 4.8-4.1c.3 0 .5 0 .8 0l-0.7 5.4c-0.5 0-0.9 0-1 0c-1 0-2 .3-2.8 .9c-0.7 .9-1.1 2-1.2 3.1l-1 6.2h-5.8Z" fill="#c1d2e5"/><path class="cls-5" d="M259.4 93.4c-2 .1-3.9-0.6-5.3-1.9c-1.5-1.3-2.3-3.1-2.2-5.1c-0.1-2.4 .8-4.7 2.5-6.4c1.7-1.7 3.9-2.6 6.3-2.5c2-0.1 4 .6 5.5 2c1.4 1.2 2.1 3 2 4.8c.2 2.5-0.8 5-2.5 6.7c-1.8 1.6-4 2.5-6.3 2.4Zm.2-3.7c1.1 0 1.8-0.7 2.2-2.3c.3-1.3 .5-2.6 .5-3.9c0-1.6-0.6-2.4-1.7-2.4c-1 0-1.8 .8-2.2 2.4c-0.3 1.2-0.5 2.6-0.6 3.9c0 1.6 .6 2.3 1.8 2.3Z" fill="#c1d2e5"/><path class="cls-5" d="M160.2 102.5l-2.7 15.9h-5.9l2.6-15.9h-4.3l.8-4.7h14.8l-0.8 4.7Z" fill="#c1d2e5"/><path class="cls-5" d="M177.9 118.4h-5.9c0-0.3 0-0.5 0-0.7c0-0.6 0-1.2 .1-1.9c-1 1.9-2.9 3-5 2.9c-1.3 .1-2.5-0.4-3.5-1.2c-0.9-0.8-1.3-2-1.3-3.2c0-0.9 .2-1.7 .7-2.5c.5-0.8 1.2-1.4 2-1.9c.8-0.4 1.8-0.7 2.7-0.9c.9-0.1 2.7-0.3 5.4-0.6c.1-0.2 .2-0.5 .2-0.8c0-0.9-0.6-1.3-1.8-1.3c-1.1 0-2.1 .7-2.5 1.7l-4.9-1c1.2-2.8 4-4.2 8.2-4.2c1.8-0.1 3.5 .3 5.1 1.1c1.2 .7 1.9 1.9 1.8 3.3c0 .7-0.3 3-1 6.9c-0.3 1-0.4 1.9-0.5 2.9c0 .5 .1 .9 .2 1.4Zm-5.3-7.2c-2.8 .2-4.2 1-4.2 2.6c0 .8 .5 1.3 1.3 1.3c.7-0.1 1.3-0.3 1.8-0.8c.7-0.9 1.1-2 1-3.1Z" fill="#c1d2e5"/><path class="cls-5" d="M189.8 97.9l-3.4 20.5h-5.8l3.4-20.5Z" fill="#c1d2e5"/><path class="cls-5" d="M198.7 97.9l-3.4 20.5h-5.8l3.4-20.5Z" fill="#c1d2e5"/><path class="cls-5" d="M206.8 103.2l-2.5 15.2h-5.9l2.5-15.2Zm1-5.8l-0.7 4.5h-5.9l.7-4.5Z" fill="#c1d2e5"/><path class="cls-5" d="M210 103.2h5.3l-0.4 2.5c.3-1 1.1-1.8 2-2.2c.9-0.5 1.9-0.7 2.9-0.7c1.1-0.1 2.3 .3 3.2 1c.7 .6 1.2 1.6 1.1 2.7c0 .5 0 1-0.1 1.5l-1.7 10.3h-5.8l1.5-9c.1-0.4 .2-0.8 .2-1.2c0-0.9-0.5-1.3-1.4-1.3c-1.2 0-1.9 .8-2.2 2.5l-1.5 9h-5.6Z" fill="#c1d2e5"/><path class="cls-5" d="M227.9 103.2h5.3l-0.4 2.5c.4-1 1.1-1.8 2-2.2c.9-0.5 1.9-0.7 2.9-0.7c1.2-0.1 2.3 .3 3.2 1c.8 .6 1.2 1.6 1.2 2.7c0 .5-0.1 1-0.2 1.5l-1.7 10.3h-5.8l1.6-9.1c0-0.3 .1-0.7 .1-1.1c0-0.9-0.4-1.3-1.3-1.3c-1.3 0-2 .8-2.3 2.4l-1.5 9.1h-5.6Z" fill="#c1d2e5"/><path class="cls-5" d="M266.5 111.6h-10.4c0 .3-0.1 .7-0.1 1c0 .5 .2 1.1 .7 1.5c.4 .4 1 .6 1.6 .6c1.2 0 2.3-0.8 2.6-1.9l5.1 .8c-0.7 1.5-1.8 2.7-3.2 3.6c-1.5 .9-3.2 1.4-4.9 1.4c-2 0-4-0.7-5.5-2c-1.5-1.3-2.2-3.3-2.1-5.2c-0.1-2.4 .9-4.7 2.6-6.4c1.7-1.6 4-2.5 6.4-2.4c2-0.1 3.9 .6 5.4 2c1.4 1.4 2.1 3.3 2 5.3c0 .6-0.1 1.2-0.2 1.7Zm-5.4-2.9c0-0.2 .1-0.4 .1-0.7c0-0.5-0.2-1-0.5-1.4c-0.4-0.4-0.9-0.6-1.5-0.6c-0.6 0-1.2 .3-1.7 .7c-0.5 .5-0.9 1.3-1 2Z" fill="#c1d2e5"/><path class="cls-5" d="M284.3 111.6h-10.4c-0.1 .3-0.1 .7-0.1 1c0 .5 .2 1.1 .6 1.5c.5 .4 1.1 .6 1.6 .6c1.2 0 2.3-0.8 2.6-1.9l5.1 .8c-0.6 1.5-1.7 2.7-3.2 3.6c-1.4 .9-3.1 1.4-4.9 1.4c-2 0-4-0.7-5.5-2c-1.4-1.3-2.2-3.3-2.1-5.2c0-2.4 .9-4.7 2.6-6.4c1.7-1.6 4.1-2.5 6.4-2.4c2-0.1 4 .6 5.4 2c1.4 1.4 2.1 3.3 2 5.3c0 .6 0 1.2-0.1 1.7Zm-5.5-2.9c.1-0.2 .1-0.4 .1-0.7c0-0.5-0.2-1-0.5-1.4c-0.3-0.4-0.9-0.6-1.4-0.6c-0.7 0-1.3 .3-1.7 .7c-0.6 .5-1 1.3-1 2Z" fill="#c1d2e5"/><path class="cls-5" d="M248.9 113.9l-0.7 4.5h-5.9l.8-4.5h5.8Z" fill="#c1d2e5"/><ellipse cx="125.2" cy="297.5" class="cls-1" rx="21.6" ry="21.6" fill="#fff"/><path class="cls-4" d="M125.2 320.6c-11.1 0-20.6-7.8-22.7-18.6c-2.2-10.8 3.6-21.7 13.8-25.9c10.2-4.2 22-0.7 28.1 8.5c6.2 9.2 4.9 21.4-2.9 29.2c-4.3 4.4-10.2 6.8-16.3 6.8Zm0-43.1c-9.6 0-17.8 6.7-19.6 16.1c-1.9 9.3 3.1 18.7 12 22.4c8.8 3.6 18.9 .5 24.2-7.4c5.3-8 4.3-18.5-2.5-25.3c-3.7-3.7-8.8-5.8-14.1-5.8Z" fill="#ec9a22"/><path class="cls-2" d="M129.8 298.1h2.1v.2c.2 1.2 1.2 2 2.4 2h3.1c.6 0 1.2-0.2 1.7-0.7c.4-0.4 .6-1 .7-1.6v-1.1c-0.1-1.3-1.1-2.3-2.4-2.3h-3.1c-1.2 0-2.2 .9-2.4 2v.2h-2.1v-9c0-2.6-2.1-4.6-4.6-4.6c-2.6 0-4.7 2-4.7 4.6v9h-2.1v-0.2c-0.2-1.1-1.2-2-2.3-2h-3.2c-1.2 0-2.3 1-2.3 2.3v1.1c0 .6 .2 1.2 .7 1.6c.4 .5 1 .7 1.6 .7h3.2c1.1 0 2.1-0.9 2.3-2v-0.2h2.1v9c0 2.6 2.1 4.6 4.7 4.6c2.5 0 4.6-2 4.6-4.6Zm3.4-1.2c0-0.2 .1-0.5 .3-0.7c.2-0.2 .5-0.3 .8-0.3h3.1c.3 0 .6 .1 .8 .3c.2 .2 .3 .5 .3 .7v1.1c0 .3-0.1 .5-0.3 .7c-0.2 .2-0.5 .3-0.8 .3h-3.1c-0.3 0-0.6-0.1-0.8-0.3c-0.2-0.2-0.3-0.4-0.3-0.7Zm-16.1 1.1c0 .3-0.1 .5-0.3 .7c-0.2 .2-0.5 .3-0.8 .3h-3.1c-0.3 0-0.5-0.1-0.7-0.3c-0.2-0.2-0.4-0.4-0.4-0.7v-1.1c0-0.3 .2-0.5 .4-0.7c.2-0.2 .4-0.3 .7-0.3h3.1c.3 0 .6 .1 .8 .3c.2 .2 .3 .4 .3 .7Zm11.4-9.7l-2 1.5c-0.1 .1-0.2 .2-0.2 .4c-0.1 .2 0 .3 .1 .5c.2 .2 .6 .3 .9 .1l1.2-0.9v1.7l-2 1.5c-0.1 .1-0.2 .2-0.2 .4c-0.1 .2 0 .3 .1 .5c.2 .3 .6 .3 .9 .1l1.2-0.9v1.8l-2 1.5c-0.1 .1-0.2 .2-0.2 .4c0 .1 0 .3 .1 .4c.2 .3 .6 .4 .9 .2l1.3-0.9v1.7l-2 1.5c-0.2 .1-0.3 .2-0.3 .4c0 .1 0 .3 .1 .4c.3 .3 .7 .4 .9 .2l1.3-0.9v1.7l-2 1.5c-0.1 .1-0.2 .2-0.3 .4c0 .1 .1 .3 .2 .4c.2 .3 .6 .4 .9 .2l1.2-0.9v1.7l-2 1.5c-0.1 .1-0.2 .2-0.2 .4c-0.1 .1 0 .3 .1 .5c.2 .2 .6 .3 .9 .1l1.2-0.9v.7c0 1.8-1.5 3.3-3.3 3.3c-1.9 0-3.4-1.5-3.4-3.3v-0.7l1.3 .9c.3 .2 .7 .1 .9-0.1c.2-0.3 .1-0.7-0.1-0.9l-2-1.5v-1.7l1.2 .9c.3 .2 .7 .1 .9-0.1c.2-0.3 .2-0.7-0.1-0.9l-2-1.5v-1.7l1.2 .9c.3 .2 .7 .1 .9-0.2c.2-0.2 .2-0.6-0.1-0.8l-2-1.5v-1.7l1.2 .9c.3 .2 .7 .1 1-0.2c.2-0.2 .1-0.6-0.2-0.8l-2-1.5v-1.7l1.3 .9c.2 .1 .5 0 .7-0.2c.1-0.1 .1-0.3 .1-0.5c0-0.1-0.1-0.3-0.2-0.4l-2-1.4v-1.8l1.2 .9c.3 .2 .7 .2 .9-0.1c.2-0.3 .2-0.7-0.1-0.9l-2-1.4v-0.6c0-1.8 1.5-3.3 3.3-3.3c1.9 0 3.4 1.5 3.4 3.3Z" fill="#1b2840"/><ellipse cx="178.7" cy="326.2" class="cls-1" rx="21.6" ry="21.6" fill="#fff"/><path class="cls-4" d="M178.7 349.3c-11 0-20.5-7.8-22.7-18.6c-2.1-10.8 3.7-21.7 13.9-25.9c10.2-4.2 22-0.7 28.1 8.5c6.1 9.2 4.9 21.4-2.9 29.2c-4.3 4.4-10.2 6.8-16.4 6.8Zm0-43.1c-9.5 0-17.7 6.7-19.6 16.1c-1.8 9.3 3.2 18.7 12 22.3c8.8 3.7 19 .6 24.3-7.4c5.3-7.9 4.2-18.5-2.5-25.2c-3.8-3.8-8.9-5.9-14.2-5.9Z" fill="#ec9a22"/><path class="cls-2" d="M190.4 322.8c1.8-2.4 1.6-5.7-0.5-7.8c-2.1-2.2-5.4-2.4-7.8-0.6l-0.6-0.5c-0.1-0.2-0.3-0.2-0.5-0.2c-0.2 0-0.4 0-0.5 .2l-3.2 3.1c-0.3 .3-0.3 .8 0 1.1l.6 .5l-6.2 6.1l-0.5-0.6c-0.3-0.2-0.7-0.2-1 0l-3.2 3.1c-0.3 .3-0.3 .8 0 1.1l.6 .5c-1.9 2.4-1.7 5.7 .4 7.9c2.1 2.1 5.5 2.3 7.8 .5l.6 .6c.3 .2 .7 .2 1 0l3.2-3.2c.1-0.1 .2-0.3 .2-0.5c0-0.2-0.1-0.4-0.2-0.5l-0.6-0.5l6.2-6.1l.5 .5c.3 .3 .7 .3 1 0l3.2-3.1c.1-0.1 .2-0.3 .2-0.5c0-0.2-0.1-0.4-0.2-0.6Zm-9.4-7.4l1 1.1l-2.1 2.1l-1-1.1Zm-10.3 10.3l1 1l-2.1 2.1l-1-1Zm3.6 10l.5 .5c-1.8 1.2-4.2 1-5.7-0.5c-1.5-1.6-1.7-4-0.5-5.8c.4 .4 .5 .8 1 .8c.2 0 .4-0.1 .5-0.3l1.1-1l4.2 4.2l-1.1 1.1c-0.3 .2-0.3 .7 0 .9Zm2.6 .5l-1-1l2.1-2.1l1 1Zm7.7-10.8l.6 .6l-6.2 6l-0.5-0.5c-0.3-0.3-0.7-0.3-1 0l-1.1 1l-4.1-4.2l1-1c.3-0.3 .3-0.7 0-1l-0.5-0.6l6.1-6l.5 .5c.2 .1 .3 .2 .5 .2c.2 0 .4-0.1 .6-0.2l1-1l4.2 4.2l-1.1 1c-0.3 .3-0.2 .7 0 1Zm2.7 .6l-1.1-1.1l2.1-2.1l1 1.1Zm2-4.3l-0.5-0.4c-0.3-0.3-0.7-0.3-1 0l-1 1l-4.2-4.2l1.1-1c.2-0.3 .2-0.8 0-1l-0.5-0.5c1.8-1.3 4.2-1.1 5.7 .5c1.5 1.5 1.7 3.9 .5 5.7Z" fill="#1b2840"/><ellipse cx="239.1" cy="325.8" class="cls-1" rx="21.6" ry="21.6" fill="#fff"/><path class="cls-4" d="M239.1 349c-10.4 0-19.6-7-22.3-17.2c-2.7-10.1 1.7-20.8 10.8-26c9-5.2 20.5-3.7 27.9 3.7c6.6 6.6 8.6 16.6 5 25.2c-3.6 8.7-12 14.3-21.4 14.3Zm0-43.2c-9.5 0-17.7 6.8-19.6 16.1c-1.8 9.4 3.2 18.7 12 22.4c8.8 3.6 19 .6 24.3-7.4c5.3-7.9 4.2-18.5-2.5-25.2c-3.7-3.8-8.8-5.9-14.2-5.9Z" fill="#ec9a22"/><path class="cls-2" d="M249.1 335.9c3.2 0 5.8-2.6 5.8-5.8c0-3.1-2.6-5.7-5.8-5.7c-0.4 0-0.9 0-1.3 .1h-0.2l-2.4-5.9l2.2-0.7c.4-0.1 .6-0.6 .5-1c-0.2-0.4-0.6-0.6-1-0.5l-3.1 1c-0.4 .2-0.6 .6-0.4 1l.7 1.6l-8.5 2.2l-1-2.3h1.5c.5 0 .8-0.4 .8-0.8c0-0.4-0.3-0.8-0.8-0.8h-4c-0.4 0-0.7 .4-0.7 .8c0 .4 .3 .8 .7 .8h.8l1.3 3l-1.9 2.3h-0.1c-2.1-1.3-4.8-1.2-6.7 .4c-1.9 1.5-2.6 4.1-1.8 6.4c.8 2.3 3 3.9 5.5 3.8c2.8 0 5.2-2 5.7-4.8v-0.1h3.2c.3-0.1 .5-0.2 .7-0.4l6.1-8.4l1.3 3l-0.1 .1c-2.2 1.3-3.3 3.9-2.6 6.4c.7 2.5 3 4.2 5.6 4.2Zm-15.8-4.8c-0.4 1.7-1.9 3-3.7 3.2c-1.8 .2-3.5-0.8-4.2-2.4c-0.8-1.6-0.4-3.6 .9-4.8c1.3-1.2 3.2-1.5 4.8-0.7l.2 .1l-2.7 3.1c-0.2 .3-0.3 .6-0.1 .9c.1 .2 .4 .4 .7 .4h4.1Zm-2.4-1.7l4-4.8l2 4.8Zm7.4-0.8l-2.1-4.9l7-1.8Zm8.3-1.9l.2-0.1l1.6 3.8c.1 .2 .2 .4 .4 .5c.3 .1 .6 0 .8-0.2c.2-0.2 .3-0.6 .2-0.8l-1.6-3.9h.2c.2 0 .5-0.1 .7-0.1c2.1 0 3.8 1.5 4.1 3.6c.4 2-0.8 4-2.8 4.6c-2 .7-4.1-0.2-5-2.1c-1-1.8-0.4-4 1.2-5.3Z" fill="#1b2840"/><ellipse cx="292.9" cy="297.5" class="cls-1" rx="21.6" ry="21.6" fill="#fff"/><path class="cls-4" d="M292.9 320.6c-11 0-20.5-7.8-22.7-18.6c-2.1-10.8 3.7-21.7 13.9-25.9c10.2-4.2 22-0.6 28.1 8.5c6.1 9.2 4.9 21.4-2.9 29.2c-4.3 4.4-10.2 6.8-16.4 6.8Zm0-43.1c-9.5 0-17.7 6.7-19.6 16.1c-1.8 9.3 3.2 18.7 12 22.4c8.8 3.6 19 .5 24.3-7.4c5.3-8 4.2-18.5-2.5-25.3c-3.8-3.7-8.9-5.8-14.2-5.8Z" fill="#ec9a22"/><path class="cls-2" d="M303.4 301.8l-3.5-18.6l-4.2 .1v1.6l3-0.1l2.2 12.4l-2.8 5.3h-13.4c-1.4-1.1-3.5-0.9-4.7 .6c-1.1 1.4-0.9 3.5 .5 4.7c1.4 1.2 3.5 1 4.7-0.4h12l4.2-7.7l.4 2.4c-1.5 .7-2.3 2.4-1.8 4.1c.5 1.6 2.1 2.6 3.8 2.3c1.7-0.3 2.9-1.8 2.8-3.5c-0.1-1.7-1.5-3.1-3.2-3.2Zm-20.7 5.2c-0.8 0-1.4-0.4-1.7-1.1c-0.3-0.7-0.1-1.5 .4-2c.5-0.5 1.3-0.6 2-0.4c.6 .3 1.1 1 1.1 1.7c0 1-0.8 1.8-1.8 1.8Zm3.3-1.2c0-0.2 .1-0.4 .1-0.6c0-0.4-0.1-0.8-0.2-1.1h11.3l-1 1.7Zm17.2 1.2c-0.7 0-1.4-0.4-1.7-1.1c-0.3-0.7-0.1-1.5 .4-2c.5-0.5 1.3-0.6 2-0.4c.6 .3 1.1 1 1.1 1.7c0 1-0.8 1.8-1.8 1.8Z" fill="#1b2840"/><use x="26.2" y="25.4" width="372.8" height="374.5" xlink:href="#b"/></svg>