<?xml version="1.0" encoding="utf-8"?>
<!-- Generator: Adobe Illustrator 25.4.1, SVG Export Plug-In . SVG Version: 6.00 Build 0)  -->
<svg version="1.1" id="Layer_1" xmlns="http://www.w3.org/2000/svg" xmlns:xlink="http://www.w3.org/1999/xlink" x="0px" y="0px"
	 viewBox="0 0 161.6 128" style="enable-background:new 0 0 161.6 128;" xml:space="preserve">
<style type="text/css">
	.st0{fill:#1A2740;}
	.st1{fill:#F8DC19;}
	.st2{fill:#EC990F;}
</style>
<g>
	<g>
		<polygon class="st0" points="71,81.1 71,81.2 71,81.2 		"/>
		<polygon class="st0" points="17.6,0 0,105.3 66.9,105.3 71,81.2 34.7,81.2 37.8,62.5 72.5,62.5 76.4,39.6 41.6,39.6 44.1,24.2 
			87.2,24.2 70,128 109.1,71 90.3,69.8 116,24.3 117.7,24.3 117.8,24.2 151.8,24.2 155.8,0 		"/>
	</g>
	<polygon class="st1" points="123.7,61.2 140.7,31.9 121.4,31.9 102.7,64.9 121.5,65.7 85.9,117.6 109.6,98.7 138.6,61.2 	"/>
	<polygon class="st2" points="142,57.2 161.3,31.9 140.7,31.9 123.7,61.2 138.6,61.2 109.6,98.7 161.6,57.2 	"/>
</g>
</svg>
