<?xml version="1.0" encoding="utf-8"?>
<!-- Generator: Adobe Illustrator 25.4.1, SVG Export Plug-In . SVG Version: 6.00 Build 0)  -->
<svg version="1.1" id="Layer_1" xmlns="http://www.w3.org/2000/svg" xmlns:xlink="http://www.w3.org/1999/xlink" x="0px" y="0px"
	 viewBox="0 0 131.2 128" style="enable-background:new 0 0 131.2 128;" xml:space="preserve">
<style type="text/css">
	.st0{fill-rule:evenodd;clip-rule:evenodd;fill:#427FA9;}
</style>
<path class="st0" d="M65.6,0C29.4,0,0,29.4,0,65.6c0,29,18.8,53.6,44.9,62.3c3.3,0.6,4.5-1.4,4.5-3.1c0-1.6-0.1-6.7-0.1-12.2
	c-16.5,3-20.8-4-22.1-7.7c-0.7-1.9-3.9-7.7-6.7-9.3c-2.3-1.2-5.6-4.3-0.1-4.3c5.2-0.1,8.9,4.8,10.1,6.7c5.9,9.9,15.3,7.1,19.1,5.4
	c0.6-4.3,2.3-7.1,4.2-8.8C39.2,92.9,24,87.3,24,62.2c0-7.1,2.5-13,6.7-17.6c-0.7-1.6-3-8.4,0.7-17.4c0,0,5.5-1.7,18,6.7
	c5.2-1.5,10.8-2.2,16.4-2.2c5.6,0,11.2,0.7,16.4,2.2c12.5-8.5,18-6.7,18-6.7c3.6,9,1.3,15.7,0.7,17.4c4.2,4.6,6.7,10.4,6.7,17.6
	c0,25.2-15.3,30.8-29.9,32.4c2.4,2.1,4.4,6,4.4,12.1c0,8.8-0.1,15.8-0.1,18c0,1.7,1.2,3.8,4.5,3.1c25.9-8.7,44.7-33.3,44.7-62.3
	C131.2,29.4,101.9,0,65.6,0z"/>
</svg>
