<?xml version="1.0" encoding="utf-8"?>
<!-- Generator: Adobe Illustrator 25.4.1, SVG Export Plug-In . SVG Version: 6.00 Build 0)  -->
<svg version="1.1" id="Layer_1" xmlns="http://www.w3.org/2000/svg" xmlns:xlink="http://www.w3.org/1999/xlink" x="0px" y="0px"
	 viewBox="0 0 283.5 283.5" style="enable-background:new 0 0 283.5 283.5;" xml:space="preserve">
<style type="text/css">
	.st0{fill:#ffffff;}
</style>
<g>
	<g>
		<path class="st0" d="M93.5,141.5c-0.6,0-1.2-0.3-1.7-0.7c-0.9-0.9-1-2.3-0.2-3.3l34.6-46.7l-14.1-1.2c-0.9-0.1-1.6-0.6-2-1.4
			c-0.4-0.8-0.4-1.7,0.1-2.4l19.7-32.1c0.5-0.8,1.3-1.2,2.2-1.2l39.7,1.5c0.9,0,1.8,0.6,2.2,1.5c0.4,0.9,0.3,1.9-0.3,2.6l-16.9,20.6
			l14.4,0.5c1.1,0,2,0.7,2.3,1.8c0.3,1,0,2.1-0.9,2.7L95.1,141C94.7,141.4,94.1,141.5,93.5,141.5z M116.6,85l14.5,1.2
			c0.9,0.1,1.7,0.6,2.1,1.5c0.4,0.8,0.3,1.8-0.3,2.5L105.6,127L163.9,84l-12.3-0.5c-0.9,0-1.8-0.6-2.2-1.5c-0.4-0.9-0.3-1.9,0.3-2.6
			l16.9-20.6l-33.2-1.2L116.6,85z"/>
	</g>
	<g>
		<g>
			<g>
				<path class="st0" d="M147.9,129.9c0.2-0.2,0.4-0.4,0.6-0.6c7.9-8.6,21.7-9.3,30.8-1.6l5.5,4.7c8.8-5.8,20.7-5.1,28.8,1.8
					l8.4,7.1c2.2,1.9,2.5,5.3,0.6,7.5l-1.9,2.2l8.6,7.3c1.4,1.2,2.2,2.9,2.3,4.8c0.1,1.8-0.7,3.6-2,4.9c-2.4,2.4-6.3,2.4-9,0.2
					l-8.4-7.2l-3.7,4.3l8.6,7.3c1.4,1.2,2.3,3,2.3,4.8c0.1,1.8-0.7,3.6-2,4.9c-2.4,2.3-6.3,2.4-8.9,0.2l-8.4-7.2l-1.9,2.2
					c-1.9,2.2-5.3,2.5-7.5,0.6l-8.4-7.1c-8.2-7-10.7-18.5-6.4-28.2l-5.9-5c-1.8-1.5-4.2-2.2-6.6-1.9c-2.4,0.3-4.4,1.7-5.8,3.7
					c-2.3,3.5-1.4,8.2,1.9,11.1c9.1,7.8,10.2,21.6,2.4,30.7l-8.2,9.7c-2.4,2.9-6.7,3.2-9.6,0.8c-2.9-2.4-3.2-6.7-0.8-9.6l8.1-9.6
					c3-3.5,2.5-8.7-0.9-11.7l-0.1-0.1c-4.6-3.9-7.3-9.3-7.7-15.4C142.4,139.7,144.2,134.2,147.9,129.9z M218.7,145.5
					c0.1-0.1,0.1-0.3,0-0.4l-8.4-7.1c-6.9-5.9-17.1-6.1-24.2-0.5l-1.6,1.3l-8.5-7.3c-7.1-6-17.8-5.5-23.8,1.1
					c-3.1,3.4-4.7,7.9-4.4,12.5c0.3,4.6,2.4,8.9,5.9,11.9l0.1,0.1c5.6,4.8,6.3,13.2,1.5,18.8l-8.1,9.6c-0.6,0.8-0.6,1.9,0.2,2.6
					c0.8,0.6,1.9,0.6,2.6-0.2l8.2-9.7c6-7,5.1-17.6-1.9-23.6c-5.3-4.5-6.5-12.1-2.8-17.7c2.1-3.2,5.5-5.4,9.3-5.9
					c3.8-0.5,7.6,0.6,10.5,3l8.9,7.6l-1,1.8c-4.4,7.9-2.5,17.9,4.4,23.8l8.4,7.1c0.1,0.1,0.3,0.1,0.4,0l5.1-6l12.2,10.4
					c0.7,0.6,1.7,0.6,2.2,0.1c0.4-0.4,0.5-0.9,0.5-1.2c0-0.3-0.1-0.8-0.6-1.1l-12.4-10.5l10.2-12l12.2,10.4c0.7,0.6,1.7,0.6,2.2,0
					c0.4-0.4,0.5-0.9,0.5-1.2c0-0.3-0.1-0.7-0.5-1.1l-12.4-10.5L218.7,145.5z"/>
			</g>
		</g>
	</g>
	<g>
		<path class="st0" d="M236.4,243.1l3.6,4.8l-0.4,0.3c-2.4,2.3-2.6,6.1-0.5,8.8l5.4,7.1c2.2,2.9,6.4,3.6,9.2,1.4l2.5-1.9
			c2.8-2.2,3.3-6.3,1.1-9.2l-5.4-7.1c-2.1-2.7-5.8-3.5-8.6-1.8l-0.4,0.3l-3.6-4.8l20.3-15.5c5.6-4.3,6.5-12.4,2.1-18.2
			c-4.4-5.8-12.5-7-18.1-2.7l-20.3,15.5l-3.6-4.8l0.4-0.3c2.4-2.3,2.6-6.1,0.5-8.8l-5.4-7.1c-2.2-2.9-6.4-3.6-9.2-1.4l-2.5,1.9
			c-2.8,2.2-3.3,6.3-1.1,9.2l5.4,7.1c2.1,2.7,5.8,3.5,8.6,1.8l0.4-0.3l3.6,4.8l-20.3,15.5c-5.6,4.3-6.5,12.4-2.1,18.2
			c4.4,5.8,12.5,7,18.1,2.7L236.4,243.1z M244.9,248.8c1.3-1,3.1-0.7,4.1,0.6l5.4,7.1c1,1.3,0.8,3.2-0.5,4.1l-2.5,1.9
			c-1.3,1-3.1,0.7-4.1-0.6l-5.4-7.1c-1-1.3-0.8-3.2,0.5-4.1L244.9,248.8z M214.7,214.4c-1.3,1-3.1,0.7-4.1-0.6l-5.4-7.1
			c-1-1.3-0.8-3.2,0.5-4.1l2.5-1.9c1.3-1,3.1-0.7,4.1,0.6l5.4,7.1c1,1.3,0.8,3.2-0.5,4.2L214.7,214.4z M256.1,223.4l-6.8-2
			c-1-0.3-2,0.3-2.2,1.2c-0.2,0.9,0.3,2,1.3,2.3l4.2,1.2l-3.9,3l-6.8-2c-0.5-0.1-1-0.1-1.4,0.1c-0.4,0.2-0.7,0.6-0.8,1.1
			c-0.2,0.9,0.3,2,1.3,2.3l4.2,1.2l-3.9,3l-6.8-2c-1-0.3-2,0.3-2.2,1.2c-0.2,0.9,0.3,2,1.3,2.3l4.2,1.2l-3.9,3l-6.8-2
			c-1-0.3-2,0.3-2.2,1.2c-0.2,0.9,0.3,2,1.3,2.3l4.2,1.2l-3.9,3l-6.8-2c-1-0.3-2,0.3-2.2,1.2c-0.2,0.9,0.3,2,1.3,2.3l4.2,1.2l-3.9,3
			l-6.8-2c-1-0.3-2,0.3-2.2,1.2c-0.2,0.9,0.3,2,1.3,2.3l4.2,1.2l-1.5,1.2c-4,3.1-9.8,2.2-13-2c-3.2-4.1-2.5-10,1.5-13.1l1.5-1.2
			l0.1,4.3c0,1,0.9,1.8,1.9,1.8c1,0,1.8-0.8,1.8-1.8l-0.2-7.1l3.9-3l0.1,4.3c0,1,0.9,1.8,1.9,1.8c1,0,1.8-0.8,1.8-1.8l-0.2-7.1
			l3.9-3l0.1,4.3c0,1,0.9,1.8,1.9,1.8c1,0,1.8-0.8,1.8-1.8l-0.2-7.1l3.9-3l0.1,4.3c0,1,0.9,1.8,1.9,1.8c1,0,1.8-0.8,1.8-1.8
			l-0.2-7.1l3.9-3l0.1,4.3c0,1,0.9,1.8,1.9,1.8c0.5,0,0.9-0.2,1.3-0.5c0.3-0.3,0.5-0.8,0.5-1.3l-0.2-7.1l3.9-3l0.1,4.3
			c0,1,0.9,1.8,1.9,1.8c1,0,1.8-0.8,1.8-1.8l-0.2-7.1l1.2-0.9c4-3.1,9.8-2.2,13,2c3.2,4.1,2.5,10-1.5,13.1L256.1,223.4z"/>
	</g>
	<g>
		<g>
			<path class="st0" d="M52.2,27.5c-5.5-7.3-15.7-9.6-23.9-5c-8.3,4.7-11.4,14.7-7.9,23.1l-2.1,1.2c-1.1,0.6-1.5,2-0.9,3.1l6.8,12
				c0.6,1.1,2,1.5,3.1,0.9l2-1.1L42.7,85l-2,1.1c-1.1,0.6-1.5,2-0.9,3.1l6.8,12c0.6,1.1,2,1.5,3.1,0.9l2.1-1.2
				c5.4,7.2,15.6,9.7,23.9,5c8.2-4.6,11.4-14.6,7.9-23.1l2.1-1.2c1.1-0.6,1.5-2,0.9-3.1l-6.8-12c-0.6-1.1-2-1.5-3.1-0.9l-2,1.1
				L61.5,43.4l2-1.1c1.1-0.6,1.5-2,0.9-3.1l-6.8-12c-0.6-1.1-2-1.5-3.1-0.9L52.2,27.5z M22.6,49.6l4-2.3l4.6,8l-4,2.3L22.6,49.6z
				 M44.9,89l4-2.3l4.6,8l-4,2.3L44.9,89z M77.8,86.2l1.8-1c2.2,6.1-0.1,13.3-6.2,16.8c-6.1,3.5-13.5,1.8-17.6-3.3
				c1.3-0.9,2.5-1,2.9-2.4c0.2-0.6,0.1-1.2-0.2-1.8l-2.3-4l16-9.1l2.3,4C75.3,86.5,76.7,86.9,77.8,86.2L77.8,86.2z M81.6,78.8
				l-4,2.3l-4.6-8l4-2.3L81.6,78.8z M55.5,46.9l2-1.1l13.3,23.3l-2,1.1c-1.1,0.6-1.5,2-0.9,3.1l2.3,4l-16,9.1l-2.3-4
				c-0.6-1.1-2-1.5-3.1-0.9l-2,1.1L33.4,59.4l2-1.1c1.1-0.6,1.5-2,0.9-3.1l-2.3-4L50,42l2.3,4C52.9,47.1,54.3,47.5,55.5,46.9z
				 M59.2,39.4l-4,2.3l-4.6-8l4-2.3L59.2,39.4z M48.2,29.8l-1.8,1c-1.1,0.6-1.5,2-0.9,3.1l2.3,4l-16,9.1l-2.3-4
				c-0.6-1.1-2-1.5-3.1-0.9l-1.8,1c-2.2-6.1,0.1-13.3,6.2-16.8C36.6,23.1,44,24.6,48.2,29.8L48.2,29.8z"/>
		</g>
	</g>
	<g>
		<path class="st0" d="M129.1,255.4c6.2-11.2,2.2-25.3-9-31.5c-1.6-0.9-3.3-1.6-5.1-2.1l-1.2-0.3l3.2-28l10.3,1.9
			c0.6,0.1,1.3,0,1.8-0.4c0.5-0.4,0.9-0.9,1-1.6c0.1-0.6,0-1.3-0.4-1.8c-0.4-0.5-0.9-0.9-1.6-1l-13.2-2.5c-1.3-0.1-2.4,0.8-2.6,2.2
			l-0.9,7.9l-36.7-9.5l1.3-12.2l6.6,3.7c1.2,0.7,2.7,0.2,3.3-0.9s0.2-2.7-0.9-3.3l-14.5-8.1c-1.2-0.7-2.7-0.2-3.3,0.9
			s-0.2,2.7,0.9,3.3l3.3,1.8l-1.5,14.8l-12.8,4.7l-0.6-1.1c-2.1-3.7-5.2-6.8-8.9-8.9c-11.2-6.2-25.3-2.2-31.5,9
			c-6.2,11.2-2.2,25.3,9,31.5c9.9,5.5,22.5,2.9,29.5-5.9l0.8-1l12.4,6.9c0.7,0.4,1.5,0.4,2.2,0.1l40.8-18.9L109,221l-1.2,0.1
			c-8.1,0.4-15.3,4.8-19.2,11.9c-6.2,11.2-2.2,25.3,9,31.5C108.7,270.6,122.8,266.6,129.1,255.4z M49.8,216.2
			c-5.7,6.3-15,7.8-22.4,3.7c-8.8-4.9-12-16.1-7.1-24.9c4.9-8.8,16.1-12,24.9-7.1c2.6,1.4,4.7,3.4,6.3,5.9l1,1.5l-17.1,6.3
			c-0.9,0.3-1.5,1.2-1.6,2.1c-0.1,0.9,0.4,1.9,1.2,2.3l15.9,8.9L49.8,216.2z M42.1,204.3l27.2-10.1l-2.5,23.8L42.1,204.3z M71.8,218
			l2.5-24.3l32.1,8.3L71.8,218z M99.9,260.2c-8.8-4.9-12-16.1-7.1-24.9c2.8-5.1,8-8.6,13.8-9.3l1.8-0.2l-2,18.1
			c-0.1,0.6,0.1,1.3,0.5,1.8c0.4,0.5,1,0.8,1.6,0.9c0.6,0.1,1.3-0.1,1.8-0.5c0.5-0.4,0.8-1,0.9-1.6l2.1-18.1l1.7,0.6
			c0.9,0.3,1.9,0.8,2.7,1.2c8.8,4.9,12,16.1,7.1,24.9C119.9,261.9,108.7,265.1,99.9,260.2z"/>
	</g>
	<g>
		<path class="st0" d="M254,51.6l-43.6-39.3l-10.6,8.1c0,0-1.4,1.5-0.1,3.1c1.2,1.6,3.2,0.9,3.2,0.9l7.3-5.6l29.2,26.3l2.9,18.3
			l-32.8,25.2c-2.3,0-4.5,0.7-6.4,2.2c-4.6,3.5-5.5,10.2-1.9,14.8c3.5,4.6,10.2,5.5,14.8,1.9c2.5-1.9,3.9-4.8,4.1-7.8l28.8-22.1
			c0,0,0.9-0.5,0.5-2c-0.2-0.9-4-25.4-4-25.4l5.5,4.9c-1.9,3.6-1.7,8,0.9,11.4c3.5,4.6,10.2,5.5,14.8,1.9c4.6-3.5,5.5-10.2,1.9-14.8
			C265,49.5,258.6,48.5,254,51.6L254,51.6z M212.8,103.7c-2.4,1.9-6,1.4-7.8-1c-1.9-2.4-1.4-6,1-7.8s6-1.4,7.8,1
			C215.7,98.3,215.2,101.8,212.8,103.7z M218.8,94.5c-0.3-0.6-0.6-1.1-1-1.6c-0.7-0.9-1.6-1.7-2.5-2.3l27.9-21.4l0.9,6L218.8,94.5z
			 M263.4,64.8c-2.4,1.9-6,1.4-7.8-1c-1.9-2.4-1.4-6,1-7.8c2.4-1.9,6-1.4,7.8,1C266.3,59.4,265.9,62.9,263.4,64.8z"/>
	</g>
</g>
</svg>
