<svg id="Layer_1" data-name="Layer 1" xmlns="http://www.w3.org/2000/svg" viewBox="0 0 64 64"><defs><style>.cls-1{fill:#fff;}.cls-2{fill:#1a2740;}.cls-3{fill:#ec970f;}</style></defs><circle class="cls-1" cx="32" cy="24.41" r="24.41"/><path class="cls-2" d="M32,51.9a24.29,24.29,0,0,1-14-4.43L32.17,64,46.92,46.81A24.29,24.29,0,0,1,32,51.9Z"/><circle class="cls-3" cx="32" cy="24.41" r="21.82"/><path class="cls-1" d="M50,22.4a1.18,1.18,0,0,0-1.17-.89,4,4,0,0,1-2.73-7,1,1,0,0,0,.11-1.36,17.78,17.78,0,0,0-2.86-2.89,1,1,0,0,0-1.38.11,4.18,4.18,0,0,1-4.51,1A4,4,0,0,1,35,7.5a1,1,0,0,0-.89-1,17.78,17.78,0,0,0-4.06,0,1,1,0,0,0-.9,1,4,4,0,0,1-2.47,3.86,4.2,4.2,0,0,1-4.48-1,1,1,0,0,0-1.36-.11,17.81,17.81,0,0,0-2.93,2.89A1,1,0,0,0,18,14.46,4,4,0,0,1,19,19a4.18,4.18,0,0,1-3.93,2.45A1,1,0,0,0,14,22.3a18.31,18.31,0,0,0,0,4.12,1.2,1.2,0,0,0,1.19.89,4,4,0,0,1,3.72,2.47,4,4,0,0,1-1,4.47,1,1,0,0,0-.11,1.37,17.77,17.77,0,0,0,2.86,2.89,1,1,0,0,0,1.37-.11,4.15,4.15,0,0,1,4.51-1A4,4,0,0,1,29,41.31a1,1,0,0,0,.89,1.06,18,18,0,0,0,2.08.12,18.77,18.77,0,0,0,2-.11,1,1,0,0,0,.9-1,4,4,0,0,1,2.47-3.85,4.16,4.16,0,0,1,4.48,1,1,1,0,0,0,1.36.11,17.81,17.81,0,0,0,2.93-2.89A1,1,0,0,0,46,34.35a4,4,0,0,1-1-4.51,4.05,4.05,0,0,1,3.7-2.45h.22A1,1,0,0,0,50,26.51,18.22,18.22,0,0,0,50,22.4ZM32,34.83a10.41,10.41,0,1,1,9-5.08l-4.57-4.56a6.25,6.25,0,0,0,.51-2.5,6.38,6.38,0,0,0-8.08-6.16.7.7,0,0,0-.3,1.19l3,3a.46.46,0,0,1,.07.33v.05a13.86,13.86,0,0,1-.34,2.21l0,0-.05.06a14.35,14.35,0,0,1-2.24.34h-.07a.46.46,0,0,1-.35-.15l-2.95-2.93a.73.73,0,0,0-.52-.23.72.72,0,0,0-.68.54A6.43,6.43,0,0,0,26,27.21a6.34,6.34,0,0,0,4.52,1.87,6.41,6.41,0,0,0,2.5-.5l4.61,4.61A10.33,10.33,0,0,1,32,34.83Z"/></svg>