<svg id="Layer_1" data-name="Layer 1" xmlns="http://www.w3.org/2000/svg" viewBox="0 0 64 64"><defs><style>.cls-1{fill:#fff;}.cls-2{fill:#1a2740;}.cls-3{fill:#4482aa;}</style></defs><circle class="cls-1" cx="32" cy="24.41" r="24.41"/><path class="cls-2" d="M32,51.9a24.29,24.29,0,0,1-14-4.43L32.17,64,46.92,46.81A24.29,24.29,0,0,1,32,51.9Z"/><circle class="cls-3" cx="32" cy="24.41" r="21.82"/><path class="cls-1" d="M43.14,28.19,32,5.91,20.86,28.2a8.24,8.24,0,0,0,2.9,10.59l.18.13A12.4,12.4,0,0,0,32,41.75a12.42,12.42,0,0,0,8.07-2.83l.16-.13A8.25,8.25,0,0,0,43.14,28.19ZM31.56,39.08a9.63,9.63,0,0,1-8.41-8.41l3.29-.27a6.35,6.35,0,0,0,5.4,5.4Z"/></svg>