<svg id="Layer_1" data-name="Layer 1" xmlns="http://www.w3.org/2000/svg" viewBox="0 0 600 233.34"><defs><style>.cls-1{fill:#1b2840;}.cls-2{fill:#fff;}.cls-3{fill:#f8dc14;}.cls-4{fill:#ec9a22;}</style></defs><path class="cls-1" d="M583.07,67v-50A16.92,16.92,0,0,0,566.15,0H16.93A16.93,16.93,0,0,0,0,16.93V216.41a16.93,16.93,0,0,0,16.93,16.93H566.15a16.92,16.92,0,0,0,16.92-16.93v-50A16.93,16.93,0,0,0,600,149.44V83.9A16.93,16.93,0,0,0,583.07,67Z"/><path class="cls-2" d="M404.81,16.46H28.22A11.77,11.77,0,0,0,16.48,28.23V205.11a11.78,11.78,0,0,0,11.76,11.76H404.81Z"/><polygon class="cls-2" points="443.91 33.34 443.91 102.3 468.9 106.52 468.9 69.07 488.23 72.26 488.23 108.02 511.79 112 511.79 76.16 527.61 78.78 527.61 123.22 420.63 105.53 479.44 145.86 480.59 126.49 527.54 152.99 527.54 154.77 527.61 154.78 527.61 189.87 552.61 194.01 552.61 51.49 443.91 33.34"/><polygon class="cls-3" points="489.52 160.94 519.75 178.45 519.75 158.5 485.71 139.3 484.83 158.6 431.28 121.88 450.8 146.34 489.52 176.22 489.52 160.94"/><polygon class="cls-4" points="493.61 179.79 519.75 199.67 519.75 178.45 489.52 160.94 489.52 176.22 450.8 146.34 493.61 200 493.61 179.79"/><path class="cls-1" d="M86.34,74.86l-2,11.92H46.13L54.79,35H92L90.13,46.3H67.9l-1.35,8.13H85.24L83.33,65.66H64.69l-1.52,9.19Z"/><path class="cls-1" d="M113.38,35l-8.66,51.82H90.14L98.79,35Z"/><path class="cls-1" d="M154.89,70.42H128.46a20.15,20.15,0,0,0-.19,2.32,5,5,0,0,0,1.62,3.94,5.94,5.94,0,0,0,4.08,1.4q4.67,0,6.6-4.87l12.91,2.09a20.3,20.3,0,0,1-8.1,9.14,23.09,23.09,0,0,1-12.44,3.48q-8.58,0-13.92-4.88t-5.33-13.3A21.84,21.84,0,0,1,120,54q6.31-6.55,16.46-6.56,8.63,0,13.73,5.09t5.11,13.49A26.6,26.6,0,0,1,154.89,70.42Zm-13.8-7.37a12.62,12.62,0,0,0,.19-1.83A5.35,5.35,0,0,0,140,57.65a4.37,4.37,0,0,0-3.55-1.52,6.27,6.27,0,0,0-4.4,1.83A8.27,8.27,0,0,0,129.61,63Z"/><path class="cls-1" d="M184.22,71.9l11.59,2.84q-3.12,7.45-8.17,10.31a20.85,20.85,0,0,1-10.44,2.87,17.25,17.25,0,0,1-18-18,23.73,23.73,0,0,1,6-15.92q5.92-6.92,15.74-6.92a17.77,17.77,0,0,1,12,4.27,13.88,13.88,0,0,1,4.94,11l-13,1.52q0-6.23-4.22-6.23-3.62,0-5.13,5.1a31.69,31.69,0,0,0-1.51,8.9c0,3.76,1.42,5.63,4.27,5.63S183.08,75.48,184.22,71.9Z"/><path class="cls-1" d="M227.54,48.43l-1.67,9.8h-7l-2.3,13.66a19.77,19.77,0,0,0-.34,2.55c0,1.88,1.19,2.81,3.57,2.81a16.83,16.83,0,0,0,3.61-.45l-1.67,10a37.72,37.72,0,0,1-7.86.88A15.59,15.59,0,0,1,207,86.48a9.72,9.72,0,0,1-3.66-3.34,10.18,10.18,0,0,1-1.42-5.7,39.73,39.73,0,0,1,.68-5.54l2.29-13.67h-5.27l1.61-9.8h5.28l2.13-11.35,13.93-.26-2,11.61Z"/><path class="cls-1" d="M233.27,48.43h12.8l-1.55,9.25q4-10.36,12.19-10.36a12.08,12.08,0,0,1,1.8.19L256.8,61.18c-1.32-.08-2.2-.11-2.63-.11-3.16,0-5.49.73-7,2.21s-2.54,4.1-3.17,7.86l-2.57,15.64H226.84Z"/><path class="cls-1" d="M277.54,87.92a19.74,19.74,0,0,1-13.45-4.76q-5.46-4.77-5.46-13,0-9.9,6.33-16.29a21.55,21.55,0,0,1,16-6.38q8.81,0,14,5A16.46,16.46,0,0,1,300.1,64.8q0,10.9-6.67,17A22.7,22.7,0,0,1,277.54,87.92Zm.61-9.34c2.66,0,4.47-2,5.42-5.92A44.3,44.3,0,0,0,285,62.75q0-6.11-4.4-6.1-3.91,0-5.42,6.06a42.86,42.86,0,0,0-1.5,9.89C273.67,76.59,275.17,78.58,278.15,78.58Z"/><path class="cls-1" d="M67.47,111,60.77,151H45.71L52.45,111H41.36l2-11.92H80.88L78.9,111Z"/><path class="cls-1" d="M112.26,151.05h-15a17.91,17.91,0,0,1-.11-1.79,40.92,40.92,0,0,1,.28-4.57q-4.53,7.23-12.6,7.23A12.46,12.46,0,0,1,76,148.77a10.4,10.4,0,0,1-3.39-7.92,12.11,12.11,0,0,1,1.83-6.47,12.89,12.89,0,0,1,5.16-4.69,22,22,0,0,1,6.84-2.25q3.5-.56,13.66-1.5a7.21,7.21,0,0,0,.47-2.2c0-2.1-1.46-3.15-4.4-3.16a6.61,6.61,0,0,0-6.38,4.27l-12.5-2.54Q82,111.63,98.14,111.64q8.17,0,12.83,2.83a9.13,9.13,0,0,1,4.67,8.33q0,2.48-2.73,17.47a52.7,52.7,0,0,0-1,7.4A18.42,18.42,0,0,0,112.26,151.05Zm-13.5-18.23q-10.45.8-10.45,6.71,0,3.22,3.37,3.22A6.46,6.46,0,0,0,96,140.81C97.44,139.52,98.36,136.84,98.76,132.82Z"/><path class="cls-1" d="M142.34,99.22l-8.65,51.83H119.1l8.65-51.83Z"/><path class="cls-1" d="M164.89,99.22l-8.65,51.83H141.65l8.65-51.83Z"/><path class="cls-1" d="M185.53,112.69l-6.43,38.36H164.2l6.42-38.36ZM188,98l-1.89,11.28h-14.9L173.06,98Z"/><path class="cls-1" d="M193.48,112.69h13.36l-1,6.21a10.33,10.33,0,0,1,5.08-5.6,16.4,16.4,0,0,1,7.43-1.72,11.84,11.84,0,0,1,7.93,2.58,8.52,8.52,0,0,1,3,6.8,24.43,24.43,0,0,1-.38,3.91l-4.38,26.22H210L213.84,128a22,22,0,0,0,.38-2.92q0-3.23-3.41-3.23-4.6,0-5.62,6.15l-3.87,23.05H187.08Z"/><path class="cls-1" d="M238.92,112.69h13.36l-1,6.21a10.36,10.36,0,0,1,5.08-5.6,16.41,16.41,0,0,1,7.44-1.72,11.83,11.83,0,0,1,7.92,2.58,8.49,8.49,0,0,1,3.05,6.8,23.33,23.33,0,0,1-.38,3.91L270,151.09H255.42L259.29,128a22,22,0,0,0,.38-2.92c0-2.16-1.14-3.23-3.41-3.23q-4.6,0-5.62,6.15l-3.88,23.05H232.51Z"/><path class="cls-1" d="M336.68,134H310.25a20.15,20.15,0,0,0-.19,2.32,5,5,0,0,0,1.61,3.93,6,6,0,0,0,4.09,1.42q4.67,0,6.6-4.88l12.91,2.08a20.34,20.34,0,0,1-8.11,9.15,23.11,23.11,0,0,1-12.43,3.49q-8.58,0-13.92-4.88t-5.33-13.31a21.89,21.89,0,0,1,6.3-15.7q6.32-6.54,16.46-6.54,8.63,0,13.73,5.07t5.11,13.5A27.6,27.6,0,0,1,336.68,134Zm-13.82-7.37a12.46,12.46,0,0,0,.18-1.83,5.32,5.32,0,0,0-1.27-3.57,4.35,4.35,0,0,0-3.54-1.51,6.26,6.26,0,0,0-4.41,1.82,8.22,8.22,0,0,0-2.44,5.07Z"/><path class="cls-1" d="M381.63,134H355.2a20.15,20.15,0,0,0-.19,2.32,5,5,0,0,0,1.61,3.93,6,6,0,0,0,4.09,1.42c3.11,0,5.32-1.63,6.6-4.88l12.91,2.08a20.34,20.34,0,0,1-8.11,9.15,23.11,23.11,0,0,1-12.43,3.49q-8.58,0-13.91-4.88t-5.34-13.31a21.89,21.89,0,0,1,6.3-15.7q6.31-6.54,16.46-6.54,8.63,0,13.73,5.07t5.11,13.5A26.46,26.46,0,0,1,381.63,134Zm-13.82-7.37a12.46,12.46,0,0,0,.18-1.83,5.32,5.32,0,0,0-1.27-3.57,4.35,4.35,0,0,0-3.54-1.51,6.26,6.26,0,0,0-4.41,1.82,8.32,8.32,0,0,0-2.44,5.07Z"/><polygon class="cls-1" points="292.1 139.76 290.21 151.05 275.31 151.05 277.2 139.76 292.1 139.76"/><path class="cls-1" d="M236.25,171.56l-.36,2.06h-1.46l-.49,2.89c0,.29-.07.46-.07.54,0,.39.25.6.75.6a3.31,3.31,0,0,0,.77-.09l-.36,2.1a7.68,7.68,0,0,1-1.66.19,3.27,3.27,0,0,1-1.45-.25,2,2,0,0,1-.78-.71,2.08,2.08,0,0,1-.3-1.22,9.33,9.33,0,0,1,.14-1.17l.48-2.88h-1.11l.34-2.07h1.12l.44-2.39,2.94-.06-.41,2.44Z"/><path class="cls-1" d="M239.51,176.75l-.49,2.9h-3l.48-2.9Z"/><path class="cls-1" d="M242,171.56h2.76l-.21,1.25a2.79,2.79,0,0,1,2.5-1.49,2,2,0,0,1,2.05,1.49,2.57,2.57,0,0,1,2.43-1.45,2.4,2.4,0,0,1,1.72.61,2.09,2.09,0,0,1,.61,1.62,5.39,5.39,0,0,1-.06.8l-.88,5.26h-3.09l.83-4.8a3.66,3.66,0,0,0,0-.57c0-.47-.21-.7-.64-.7a.83.83,0,0,0-.66.29A2.6,2.6,0,0,0,249,175l-.78,4.64h-3l.81-4.8a4.22,4.22,0,0,0,.07-.61.6.6,0,0,0-.21-.53.73.73,0,0,0-.42-.16,1.21,1.21,0,0,0-.56.19c-.23.12-.4.5-.5,1.12l-.8,4.8h-3Z"/><path class="cls-1" d="M263.48,176.22H257.9a3.89,3.89,0,0,0,0,.49,1.08,1.08,0,0,0,.34.83,1.29,1.29,0,0,0,.86.3,1.43,1.43,0,0,0,1.4-1l2.72.44a4.25,4.25,0,0,1-1.71,1.92,4.77,4.77,0,0,1-2.62.74,4.16,4.16,0,0,1-2.94-1,3.62,3.62,0,0,1-1.13-2.81,4.65,4.65,0,0,1,4.6-4.7h.21a4,4,0,0,1,2.9,1.08,3.82,3.82,0,0,1,1.08,2.85A7.34,7.34,0,0,1,263.48,176.22Zm-2.92-1.56c0-.13,0-.25,0-.38a1.18,1.18,0,0,0-.26-.75,1,1,0,0,0-.75-.33,1.42,1.42,0,0,0-.94.39,1.82,1.82,0,0,0-.51,1.07Z"/><path class="cls-1" d="M271.66,168.72l-7.88,13.5H262.2l7.93-13.5Z"/><path class="cls-1" d="M280,176.22h-5.57a2.63,2.63,0,0,0,0,.49,1,1,0,0,0,.34.83,1.27,1.27,0,0,0,.86.3,1.43,1.43,0,0,0,1.39-1l2.73.44a4.3,4.3,0,0,1-1.71,1.92,4.8,4.8,0,0,1-2.63.74,4.15,4.15,0,0,1-2.93-1,3.62,3.62,0,0,1-1.13-2.81,4.65,4.65,0,0,1,4.59-4.7h.22a3.91,3.91,0,0,1,2.89,1.08,3.82,3.82,0,0,1,1.08,2.85A4.86,4.86,0,0,1,280,176.22Zm-2.91-1.56c0-.13,0-.25,0-.38a1.13,1.13,0,0,0-.27-.75.93.93,0,0,0-.75-.33,1.4,1.4,0,0,0-.93.39,1.77,1.77,0,0,0-.51,1.07Z"/><path class="cls-1" d="M285.59,168.72l-1.83,10.93h-3.05l1.83-10.93Z"/><path class="cls-1" d="M294.35,176.22h-5.57a3.89,3.89,0,0,0,0,.49,1,1,0,0,0,.34.83,1.29,1.29,0,0,0,.86.3,1.45,1.45,0,0,0,1.4-1l2.72.44a4.3,4.3,0,0,1-1.71,1.92,4.79,4.79,0,0,1-2.62.74,4.16,4.16,0,0,1-2.94-1,3.62,3.62,0,0,1-1.13-2.81,4.65,4.65,0,0,1,4.59-4.7h.22a4,4,0,0,1,2.9,1.08,3.9,3.9,0,0,1,1.08,2.85A5.88,5.88,0,0,1,294.35,176.22Zm-2.91-1.56a2.45,2.45,0,0,0,0-.38,1.08,1.08,0,0,0-.27-.75.93.93,0,0,0-.75-.33,1.4,1.4,0,0,0-.93.39,1.77,1.77,0,0,0-.51,1.07Z"/><path class="cls-1" d="M300.54,176.51l2.44.61a4.26,4.26,0,0,1-1.72,2.18,4.39,4.39,0,0,1-2.21.6,3.65,3.65,0,0,1-3.79-3.51,1.31,1.31,0,0,1,0-.28,5,5,0,0,1,1.25-3.36,4.14,4.14,0,0,1,3.32-1.46,3.8,3.8,0,0,1,2.54.9,2.9,2.9,0,0,1,1,2.32l-2.75.32c0-.88-.29-1.31-.89-1.31s-.86.35-1.07,1.07a6.69,6.69,0,0,0-.33,1.88c0,.82.3,1.22.9,1.22S300.29,177.27,300.54,176.51Z"/><path class="cls-1" d="M309.68,171.56l-.35,2.06h-1.46l-.49,2.89a5,5,0,0,0-.07.54c0,.39.25.6.75.6a3.31,3.31,0,0,0,.77-.09l-.35,2.1a7.83,7.83,0,0,1-1.66.19,3.38,3.38,0,0,1-1.47-.25,2,2,0,0,1-.77-.71,2.08,2.08,0,0,1-.31-1.22,9.36,9.36,0,0,1,.15-1.17l.48-2.88h-1.11l.34-2.07h1.11l.46-2.39,2.93-.06-.41,2.44Z"/><path class="cls-1" d="M310.9,171.56h2.69l-.32,1.95c.56-1.45,1.42-2.17,2.59-2.17a2.31,2.31,0,0,1,.37,0l-.36,2.89h-.55a2,2,0,0,0-1.47.46,3.19,3.19,0,0,0-.67,1.67l-.55,3.3h-3.05Z"/><path class="cls-1" d="M320.24,179.87a4.09,4.09,0,0,1-2.84-1,3.47,3.47,0,0,1-1.16-2.75,4.66,4.66,0,0,1,1.34-3.43,4.54,4.54,0,0,1,3.37-1.35,4,4,0,0,1,2.95,1A3.53,3.53,0,0,1,325,175a4.62,4.62,0,0,1-1.41,3.58A4.77,4.77,0,0,1,320.24,179.87Zm.13-2c.56,0,.93-.42,1.14-1.25a8.64,8.64,0,0,0,.29-2.09c0-.86-.3-1.28-.92-1.28s-.94.42-1.14,1.28a8.66,8.66,0,0,0-.32,2.08c0,.86.31,1.28.95,1.28Z"/><path class="cls-1" d="M331.62,171.56l-.35,2.06H329.8l-.48,2.89a5,5,0,0,0-.07.54c0,.39.25.6.75.6a3.22,3.22,0,0,0,.76-.09l-.35,2.1a7.66,7.66,0,0,1-1.65.19,3.36,3.36,0,0,1-1.47-.25,2.12,2.12,0,0,1-.78-.71,2.15,2.15,0,0,1-.3-1.22,7.8,7.8,0,0,1,.15-1.17l.47-2.88h-1.1l.34-2.07h1.11l.45-2.39,2.94-.06-.41,2.44Z"/><path class="cls-1" d="M339.84,179.65h-3.16a2.28,2.28,0,0,1,0-.37,8.87,8.87,0,0,1,.05-1,3,3,0,0,1-2.66,1.53,2.61,2.61,0,0,1-1.86-.67,2.19,2.19,0,0,1-.72-1.67,2.53,2.53,0,0,1,.39-1.36,2.61,2.61,0,0,1,1.09-1,4.91,4.91,0,0,1,1.44-.49c.49-.07,1.45-.18,2.88-.31a1.52,1.52,0,0,0,.1-.47q0-.66-.93-.66a1.41,1.41,0,0,0-1.34.9l-2.64-.53c.67-1.5,2.14-2.26,4.4-2.26a5.32,5.32,0,0,1,2.71.61,2,2,0,0,1,1,1.76q-.19,1.85-.57,3.66a9.3,9.3,0,0,0-.22,1.56A3.54,3.54,0,0,0,339.84,179.65ZM337,175.81c-1.47.11-2.2.58-2.2,1.41,0,.45.23.68.71.68a1.42,1.42,0,0,0,.91-.41,2.64,2.64,0,0,0,.58-1.68Z"/><path class="cls-1" d="M346.19,168.72l-1.83,10.93h-3.08l1.83-10.93Z"/><path class="cls-1" d="M351,168.72l-1.83,10.93H346l1.83-10.93Z"/><path class="cls-1" d="M355.3,171.56l-1.36,8.09H350.8l1.36-8.09Zm.52-3.1-.4,2.38h-3.14l.4-2.38Z"/><path class="cls-1" d="M357,171.56h2.82l-.22,1.31a2.22,2.22,0,0,1,1.08-1.18,3.44,3.44,0,0,1,1.54-.35,2.49,2.49,0,0,1,1.68.54,1.82,1.82,0,0,1,.61,1.43,5.69,5.69,0,0,1-.08.83l-.93,5.53H360.4l.82-4.88a4.25,4.25,0,0,0,.08-.61c0-.46-.24-.68-.72-.68-.65,0-1,.43-1.18,1.3l-.82,4.87h-3Z"/><path class="cls-1" d="M366.57,171.56h2.82l-.21,1.31a2.17,2.17,0,0,1,1.07-1.18,3.39,3.39,0,0,1,1.57-.37,2.52,2.52,0,0,1,1.67.54,1.8,1.8,0,0,1,.64,1.44,4.56,4.56,0,0,1-.08.82l-.92,5.53h-3.08l.81-4.88a3.09,3.09,0,0,0,.08-.61c0-.46-.23-.68-.72-.68-.64,0-1,.43-1.18,1.3l-.82,4.87h-3Z"/><path class="cls-4" d="M235,195h-2.11v-9.25H230V184H238v1.69H235Z"/><path class="cls-4" d="M246.26,195h-7.11V184h7v1.62h-5.06v3h4.08v1.62h-4.08v3h5.14Z"/><path class="cls-4" d="M254.69,195H248V184h2v9.15h4.66Z"/><path class="cls-4" d="M263.24,195h-7.1V184h7v1.62h-5.06v3h4.09v1.62h-4.07v3h5.14Z"/><path class="cls-4" d="M273.24,189.37V195h-.87l-.61-1.48a3.19,3.19,0,0,1-2.95,1.65,3.74,3.74,0,0,1-3.34-1.7,7.06,7.06,0,0,1-1.1-3.94,6.44,6.44,0,0,1,1.22-4,4.06,4.06,0,0,1,3.44-1.64,3.91,3.91,0,0,1,2.71,1,4.21,4.21,0,0,1,1.35,2.38l-1.72.31a2.25,2.25,0,0,0-2.3-2,2.29,2.29,0,0,0-1.89.95,4.72,4.72,0,0,0-.73,2.91q0,4.14,2.59,4.14a2.19,2.19,0,0,0,1.7-.7,2.57,2.57,0,0,0,.66-1.83h-2.26v-1.58Z"/><path class="cls-4" d="M284,195h-2.09l-1.7-4.5h-2.77V195h-2V184h4.73a4.07,4.07,0,0,1,2.91.89,3.07,3.07,0,0,1,.94,2.31,2.92,2.92,0,0,1-2,2.91Zm-6.56-6.1h2.44a2.43,2.43,0,0,0,1.59-.45,1.55,1.55,0,0,0,.52-1.22,1.49,1.49,0,0,0-.52-1.16,2.09,2.09,0,0,0-1.43-.45h-2.6Z"/><path class="cls-4" d="M294.6,195h-2.1l-.88-2.61h-4.21l-.85,2.61h-1.68L288.51,184H291Zm-3.5-4.19-1.6-4.88-1.59,4.88Z"/><path class="cls-4" d="M306.65,195h-2v-9.58l-3,9.58h-1l-3.05-9.58V195h-1.61V184H299l2.28,7.05,2.26-7.05h3.1Z"/><path class="cls-1" d="M89,174H83.39c0,.22,0,.38,0,.48a1,1,0,0,0,.34.83,1.2,1.2,0,0,0,.86.3,1.43,1.43,0,0,0,1.4-1l2.72.44A4.25,4.25,0,0,1,87,176.92a4.89,4.89,0,0,1-2.63.74,4.15,4.15,0,0,1-2.93-1,3.62,3.62,0,0,1-1.13-2.81,4.64,4.64,0,0,1,4.58-4.7h.23A3.94,3.94,0,0,1,88,170.2a3.8,3.8,0,0,1,1,2.85A4.79,4.79,0,0,1,89,174Zm-2.92-1.56a2.45,2.45,0,0,0,0-.38,1.16,1.16,0,0,0-.27-.76.93.93,0,0,0-.75-.32,1.35,1.35,0,0,0-.91.39,1.68,1.68,0,0,0-.52,1.07Z"/><path class="cls-1" d="M94.52,166.46l-1.83,11h-3l1.83-11Z"/><path class="cls-1" d="M103.31,174H97.73c0,.22,0,.38,0,.48a1.07,1.07,0,0,0,.34.83,1.2,1.2,0,0,0,.86.3,1.43,1.43,0,0,0,1.4-1L103,175a4.25,4.25,0,0,1-1.71,1.92,4.83,4.83,0,0,1-2.62.74,4.18,4.18,0,0,1-2.94-1,3.62,3.62,0,0,1-1.13-2.81,4.65,4.65,0,0,1,4.59-4.7h.22a3.94,3.94,0,0,1,2.9,1.08,3.78,3.78,0,0,1,1.07,2.85A5.82,5.82,0,0,1,103.31,174Zm-2.92-1.56a1.64,1.64,0,0,0,0-.38,1.11,1.11,0,0,0-.27-.76.92.92,0,0,0-.75-.32,1.33,1.33,0,0,0-.92.39,1.68,1.68,0,0,0-.52,1.07Z"/><path class="cls-1" d="M109.49,174.28l2.44.61a4.29,4.29,0,0,1-1.72,2.17,4.5,4.5,0,0,1-2.21.61,3.66,3.66,0,0,1-3.79-3.52v-.28a5,5,0,0,1,1.25-3.36,4.19,4.19,0,0,1,3.32-1.46,3.74,3.74,0,0,1,2.54.9,2.93,2.93,0,0,1,1,2.32l-2.75.32c0-.87-.29-1.31-.88-1.31s-.87.36-1.09,1.08a6.6,6.6,0,0,0-.31,1.87c0,.82.3,1.21.89,1.19S109.24,175,109.49,174.28Z"/><path class="cls-1" d="M118.64,169.33l-.36,2.06h-1.46l-.49,2.89a4.52,4.52,0,0,0-.06.53c0,.4.25.61.75.61a3.29,3.29,0,0,0,.76-.09l-.36,2.11a8.34,8.34,0,0,1-1.65.18,3.31,3.31,0,0,1-1.46-.25,2,2,0,0,1-.78-.7,2.19,2.19,0,0,1-.3-1.22,8.91,8.91,0,0,1,.14-1.17l.48-2.89h-1.11l.34-2.06h1.12l.44-2.4,2.94-.06-.41,2.44Z"/><path class="cls-1" d="M119.85,169.33h2.69l-.32,1.95c.56-1.47,1.42-2.19,2.58-2.19a2.31,2.31,0,0,1,.37,0l-.36,2.89h-.55a2,2,0,0,0-1.47.47,3,3,0,0,0-.67,1.66l-.55,3.3h-3.08Z"/><path class="cls-1" d="M129.19,177.66a4.16,4.16,0,0,1-2.84-1,3.44,3.44,0,0,1-1.15-2.74,4.69,4.69,0,0,1,1.33-3.44,4.62,4.62,0,0,1,3.37-1.35,4.13,4.13,0,0,1,3,1.06,3.49,3.49,0,0,1,1.09,2.6,4.66,4.66,0,0,1-1.41,3.59A4.79,4.79,0,0,1,129.19,177.66Zm.12-2c.57,0,.95-.42,1.14-1.25a8.81,8.81,0,0,0,.31-2.1c0-.85-.31-1.28-.93-1.28s-.93.43-1.14,1.28a9.19,9.19,0,0,0-.32,2.09C128.37,175.27,128.67,175.69,129.31,175.69Z"/><path class="cls-1" d="M140.58,169.33l-.36,2.06h-1.46l-.49,2.89a4.51,4.51,0,0,0-.07.53c0,.4.25.61.75.61a3.31,3.31,0,0,0,.77-.09l-.36,2.11a8.35,8.35,0,0,1-1.66.18,3.31,3.31,0,0,1-1.46-.25,2.07,2.07,0,0,1-.77-.7,2.11,2.11,0,0,1-.3-1.22,7.48,7.48,0,0,1,.14-1.17l.48-2.89h-1.12l.35-2.06h1.12l.44-2.4,2.94-.06-.41,2.44Z"/><path class="cls-1" d="M148.79,177.44h-3.17v-.38a7.89,7.89,0,0,1,.06-1,3,3,0,0,1-2.66,1.53,2.61,2.61,0,0,1-1.86-.67,2.15,2.15,0,0,1-.72-1.66,2.56,2.56,0,0,1,.39-1.37,2.69,2.69,0,0,1,1.08-1,4.37,4.37,0,0,1,1.45-.49c.48-.08,1.45-.19,2.87-.32a1.47,1.47,0,0,0,.11-.46c0-.45-.31-.67-.93-.67a1.42,1.42,0,0,0-1.35.91l-2.64-.54q1-2.25,4.41-2.25a5.22,5.22,0,0,1,2.71.61,1.91,1.91,0,0,1,1,1.76c0,.34-.2,1.57-.58,3.66a11.49,11.49,0,0,0-.22,1.56A4.49,4.49,0,0,0,148.79,177.44Zm-2.85-3.85c-1.47.11-2.21.61-2.21,1.41,0,.45.24.68.72.68a1.37,1.37,0,0,0,.91-.41,2.56,2.56,0,0,0,.58-1.7Z"/><path class="cls-1" d="M155.14,166.46l-1.83,10.93h-3l1.82-10.93Z"/><path class="cls-1" d="M159.9,166.46l-1.83,10.93H155l1.83-10.93Z"/><path class="cls-1" d="M164.25,169.33l-1.35,8.11h-3.13l1.35-8.1Zm.52-3.11-.4,2.39h-3.14l.4-2.39Z"/><path class="cls-1" d="M165.93,169.33h2.82l-.21,1.31a2.14,2.14,0,0,1,1.07-1.18,3.42,3.42,0,0,1,1.57-.37,2.49,2.49,0,0,1,1.68.54,1.85,1.85,0,0,1,.61,1.43,5.83,5.83,0,0,1-.08.83l-.92,5.53h-3.05l.81-4.88a4.25,4.25,0,0,0,.08-.61c0-.45-.23-.68-.72-.68-.64,0-1.05.44-1.22,1.3l-.81,4.88h-3Z"/><path class="cls-1" d="M175.52,169.33h2.82l-.21,1.31a2.14,2.14,0,0,1,1.07-1.18,3.45,3.45,0,0,1,1.57-.37,2.45,2.45,0,0,1,1.67.54,1.78,1.78,0,0,1,.61,1.43,4.58,4.58,0,0,1-.08.83l-.89,5.55H179l.82-4.88c0-.2.06-.41.08-.61,0-.45-.25-.68-.72-.68-.65,0-1.05.43-1.22,1.3l-.82,4.88h-3Z"/><path class="cls-4" d="M83.13,192.73h-2V181.8H88v1.69H83.14v3H87v1.64H83.14Z"/><path class="cls-4" d="M97.24,192.73H95.13l-.88-2.6h-4.2l-.86,2.6H87.51l3.66-10.93h2.44Zm-3.5-4.18-1.6-4.88-1.59,4.88Z"/><path class="cls-4" d="M104.28,188.94l1.83.2a4.29,4.29,0,0,1-1.28,2.7A3.92,3.92,0,0,1,102,192.9a3.75,3.75,0,0,1-2.44-.75,4.82,4.82,0,0,1-1.44-2,7.73,7.73,0,0,1-.51-2.85,6.59,6.59,0,0,1,1.19-4.06,4.16,4.16,0,0,1,5.85-.66l.12.09a4.72,4.72,0,0,1,1.36,2.87l-1.83.19c-.33-1.65-1.07-2.48-2.22-2.47a1.86,1.86,0,0,0-1.72,1,5.9,5.9,0,0,0-.61,3,5.5,5.5,0,0,0,.65,3,2,2,0,0,0,1.74,1,1.89,1.89,0,0,0,1.47-.69A2.74,2.74,0,0,0,104.28,188.94Z"/><path class="cls-4" d="M114.81,192.73H107.7V181.8h7v1.62h-5.07v3h4.07V188h-4.07V191h5.14Z"/><path class="cls-4" d="M116.47,192.73V181.8h4.27a5.93,5.93,0,0,1,1.83.22,2.38,2.38,0,0,1,1.22.94,2.78,2.78,0,0,1,.52,1.67,2.51,2.51,0,0,1-.53,1.58,2.38,2.38,0,0,1-1.45.85,2.79,2.79,0,0,1,1.74.94,2.7,2.7,0,0,1,.61,1.75,2.94,2.94,0,0,1-.83,2.12,3.36,3.36,0,0,1-2.55.86Zm1.87-6.34h2.41a1.47,1.47,0,0,0,1.64-1.54,1.29,1.29,0,0,0-.49-1.11,1.88,1.88,0,0,0-1.15-.35h-2.36Zm0,4.7h2.55a1.82,1.82,0,0,0,1.28-.42,1.6,1.6,0,0,0,0-2.27h0a1.82,1.82,0,0,0-1.26-.44h-2.56Z"/><path class="cls-4" d="M130.5,192.9a4,4,0,0,1-3.4-1.64,6.53,6.53,0,0,1-1.22-4,6.21,6.21,0,0,1,1.29-4,4.18,4.18,0,0,1,3.41-1.6,4,4,0,0,1,3.37,1.6,6.44,6.44,0,0,1,1.22,4,6.19,6.19,0,0,1-1.29,4.09A4.17,4.17,0,0,1,130.5,192.9Zm0-1.59a2.29,2.29,0,0,0,1.83-.87,5.21,5.21,0,0,0,.73-3.2,5.85,5.85,0,0,0-.61-3,2,2,0,0,0-1.89-1.06c-1.68,0-2.53,1.36-2.53,4.07a5.75,5.75,0,0,0,.61,3A2.06,2.06,0,0,0,130.5,191.31Z"/><path class="cls-4" d="M141.06,192.9a4,4,0,0,1-3.39-1.64,6.53,6.53,0,0,1-1.22-4,6.21,6.21,0,0,1,1.29-4,4.16,4.16,0,0,1,3.4-1.6,4.06,4.06,0,0,1,3.38,1.6,6.43,6.43,0,0,1,1.21,4,6.13,6.13,0,0,1-1.28,4.09A4.21,4.21,0,0,1,141.06,192.9Zm0-1.59a2.26,2.26,0,0,0,1.83-.87,5.13,5.13,0,0,0,.74-3.2,6.07,6.07,0,0,0-.61-3,2,2,0,0,0-1.89-1.06q-2.53,0-2.53,4.07a5.77,5.77,0,0,0,.64,3,2.07,2.07,0,0,0,1.84,1Z"/><path class="cls-4" d="M156.19,192.73H154l-2.3-5.54L149.56,190v2.76h-2v-11h2v5.74q.38-.58.54-.81l3.66-4.93h2l-2.59,3.59Z"/><g id="Layer_1-2" data-name="Layer 1-2"><path class="cls-1" d="M74.5,179.67a16.58,16.58,0,1,0-19.17,16.5V184.5H51.11v-4.83h4.22V176c0-4.19,2.47-6.5,6.26-6.5a25.56,25.56,0,0,1,3.71.32v4.11H63.21a2.41,2.41,0,0,0-2.7,2.62v3.13h4.6l-.73,4.83H60.51v11.67A16.66,16.66,0,0,0,74.5,179.67Z"/></g><path class="cls-1" d="M208,165.24a16.59,16.59,0,1,0,16.58,16.59h0A16.58,16.58,0,0,0,208,165.24ZM216,176c-.05.67-.44,3-.82,5.56l-1.22,7.53s-.09,1.1-.9,1.29a4,4,0,0,1-2.4-.86c-.24-.19-3.6-2.31-4.84-3.35a.92.92,0,0,1-.25-1.27,1,1,0,0,1,.3-.27c1.72-1.58,3.78-3.55,5-4.79.57-.58,1.15-1.92-1.22-.29-3.4,2.35-6.76,4.55-6.76,4.55a2.83,2.83,0,0,1-2.21,0c-1.43-.43-3.11-1-3.11-1s-1.15-.72.82-1.48c0,0,8.28-3.4,11.16-4.6,1.1-.48,4.84-2,4.84-2s1.7-.67,1.56.94Z"/></svg>