<?xml version="1.0" encoding="utf-8"?>
<!-- Generator: Adobe Illustrator 25.4.1, SVG Export Plug-In . SVG Version: 6.00 Build 0)  -->
<svg version="1.1" id="Layer_1" xmlns="http://www.w3.org/2000/svg" xmlns:xlink="http://www.w3.org/1999/xlink" x="0px" y="0px"
	 viewBox="0 0 1113 1113" style="enable-background:new 0 0 1113 1113;" xml:space="preserve">
<style type="text/css">
	.st0{fill:#1A2740;}
	.st1{fill:none;}
	.st2{fill:#F8DC19;}
	.st3{fill:#EC990F;}
</style>
<g transform="translate(42,42)">
	<g>
		<path class="st0" d="M204.7,21h5.3c0,0,0-7.9,0-10.5c0-1.7,0-4.3,0-6.5v17v20.8V42c0,0.7,0,3.3,0,5.4c0,5.8,13.1,17.6,18.1,15.1
			c3.3-1.6,2.8-15.4,2.8-15.4V42h0c0,0,3.1,0,5.6,0c5.8,0,17.4-13.1,14.9-18.1c-1.6-3.3-15.2-2.8-15.2-2.8H231c0,0,0,7.9,0,10.5
			c0,1.7,0,4.3,0,6.5V21V7.2c0-2-0.7-3.7-2.1-5.1c-1.4-1.4-3.1-2.1-5.1-2.1H210c0,0-3.1,0-5.6,0c-5.8,0-17.6,13.1-15.1,18.1
			C191,21.4,204.7,21,204.7,21z"/>
		<path class="st0" d="M440,17.6c5.3-9.8-13.8-24-19-14.2C415.7,13.2,434.8,27.3,440,17.6z"/>
		<path class="st0" d="M624.7,21h5.3c0,0,0-7.9,0-10.5c0-1.7,0-4.3,0-6.5v17v13.8c0,2,0.7,3.7,2.1,5.1c1.4,1.4,3.1,2.1,5.1,2.1H651
			h21c0,0,3.1,0,5.6,0c5.8,0,17.4-13.1,14.9-18.1c-1.6-3.3-15.2-2.8-15.2-2.8H672c0,0,0,7.9,0,10.5c0,1.7,0,4.3,0,6.5V21V7.2
			c0-2-0.7-3.7-2.1-5.1c-1.4-1.4-3.1-2.1-5.1-2.1H651h-21c0,0-3.1,0-5.6,0c-5.8,0-17.6,13.1-15.1,18.1C611,21.4,624.7,21,624.7,21z"
			/>
		<path class="st0" d="M713,17.6c5.3-9.8-13.8-24-19-14.2C688.7,13.2,707.8,27.3,713,17.6z"/>
		<path class="st0" d="M188,38.6c5.3-9.8-13.8-24-19-14.2C163.7,34.2,182.8,48.3,188,38.6z"/>
		<path class="st0" d="M280.2,42H294c0,0.7,0,3.3,0,5.4c0,5.8,13.1,17.6,18.1,15.1c3.3-1.6,2.8-15.4,2.8-15.4V42h0h13.8
			c2,0,3.7-0.7,5.1-2.1c1.4-1.4,2.1-3.1,2.1-5.1V21c0,0,3.1,0,5.6,0c5.8,0,17.4-13.1,14.9-18.1C354.8-0.4,341.3,0,341.3,0H336
			c0,0,0,7.9,0,10.5c0,1.7,0,4.3,0,6.5V7.2V0h-13.8c-2,0-3.7,0.7-5.1,2.1c-1.4,1.4-2.1,3.1-2.1,5.1V21h-21c0,0,0-3.1,0-5.6
			c0-5.8-13.1-17.6-18.1-15.1C272.6,2,273,15.7,273,15.7V21c0,0,7.9,0,10.5,0c1.7,0,4.3,0,6.5,0h-17v13.8c0,2,0.7,3.7,2.1,5.1
			C276.5,41.3,278.2,42,280.2,42z"/>
		<path class="st0" d="M372.7,42h5.3c0,0,0-7.9,0-10.5c0-1.7,0-4.3,0-6.5v16.8V42c0,0.7,0,3.3,0,5.4c0,5.8,13.1,17.6,18.1,15.1
			c3.3-1.6,2.8-15.4,2.8-15.4V42h0V21c0,0,0-3.1,0-5.6c0-5.8-13.1-17.6-18.1-15.1C377.6,2,378,15.7,378,15.7V21c0,0,7.9,0,10.5,0
			c1.7,0,4.3,0,6.5,0h-17c0,0-3.1,0-5.6,0c-5.8,0-17.6,13.1-15.1,18.1C359,42.4,372.7,42,372.7,42z"/>
		<path class="st0" d="M813.7,42h5.3c0,0,0-7.9,0-10.5c0-1.7,0-4.3,0-6.5v17v20.8V63c0,0.7,0,3.3,0,5.4c0,5.8,13.1,17.6,18.1,15.1
			c3.3-1.6,2.8-15.4,2.8-15.4V63h0h13.8c2,0,3.7-0.7,5.1-2.1c1.4-1.4,2.1-3.1,2.1-5.1V42V21c0,0,0-3.1,0-5.6
			c0-5.8-13.1-17.6-18.1-15.1C839.6,2,840,15.7,840,15.7V21c0,0,7.9,0,10.5,0c1.7,0,4.3,0,6.5,0h-17h-21c0,0-3.1,0-5.6,0
			c-5.8,0-17.6,13.1-15.1,18.1C800,42.4,813.7,42,813.7,42z"/>
		<path class="st0" d="M480.1,62.4c3.3-1.6,2.8-15.4,2.8-15.4V42h0V21c0,0,3.1,0,5.6,0c5.8,0,17.4-13.1,14.9-18.1
			C501.8-0.4,488.3,0,488.3,0H483c0,0,0,7.9,0,10.5c0,1.7,0,4.3,0,6.5V7.2V0h-13.8c-2,0-3.7,0.7-5.1,2.1c-1.4,1.4-2.1,3.1-2.1,5.1
			V21v20.8V42c0,0.7,0,3.3,0,5.4C462,53.2,475.1,65,480.1,62.4z"/>
		<path class="st0" d="M708.7,63h5.3c0,0,0-7.9,0-10.5c0-1.7,0-4.3,0-6.5v17h13.8c2,0,3.7-0.7,5.1-2.1c1.4-1.4,2.1-3.1,2.1-5.1V42
			h21c0,0.7,0,3.3,0,5.4c0,5.8,13.1,17.6,18.1,15.1c3.3-1.6,2.8-15.4,2.8-15.4V42h0V21c0,0,3.1,0,5.6,0c5.8,0,17.4-13.1,14.9-18.1
			C795.8-0.4,782.3,0,782.3,0H777c0,0,0,7.9,0,10.5c0,1.7,0,4.3,0,6.5V7.2V0h-13.8c-2,0-3.7,0.7-5.1,2.1c-1.4,1.4-2.1,3.1-2.1,5.1
			V21h-21h-13.8c-2,0-3.7,0.7-5.1,2.1c-1.4,1.4-2.1,3.1-2.1,5.1V42c0,0-3.1,0-5.6,0c-5.8,0-17.6,13.1-15.1,18.1
			C695,63.4,708.7,63,708.7,63z"/>
		<path class="st0" d="M336,63c0,0-3.1,0-5.6,0c-5.8,0-17.6,13.1-15.1,18.1c1.6,3.3,15.4,2.8,15.4,2.8h5.3c0,0,0-7.9,0-10.5
			c0-1.7,0-4.3,0-6.5v16.8V84c0,0.7,0,3.3,0,5.4c0,5.8,13.1,17.6,18.1,15.1c3.3-1.6,2.8-15.4,2.8-15.4V84h0c0,0,3.1,0,5.6,0
			c5.8,0,17.4-13.1,14.9-18.1c-1.6-3.3-15.2-2.8-15.2-2.8H357c0,0,0,7.9,0,10.5c0,1.7,0,4.3,0,6.5V63H336z"/>
		<path class="st0" d="M419,80.6c5.3-9.8-13.8-24-19-14.2C394.7,76.2,413.8,90.3,419,80.6z"/>
		<path class="st0" d="M778,66.4c-5.3,9.8,13.9,23.9,19,14.2C802.3,70.8,783.2,56.7,778,66.4z"/>
		<path class="st0" d="M204.7,105h5.3c0,0,0-7.9,0-10.5c0-3.3,0-10.5,0-10.5s-3.1,0-5.6,0c-5.8,0-17.6,13.1-15.1,18.1
			C191,105.4,204.7,105,204.7,105z"/>
		<path class="st0" d="M215.6,105c5.8,0,17.4-13.1,14.9-18.1c-1.6-3.3-15.2-2.8-15.2-2.8H210c0,0,0,7.9,0,10.5c0,3.3,0,10.5,0,10.5
			S213.1,105,215.6,105z"/>
		<path class="st0" d="M267.7,105h5.3c0,0,0-7.9,0-10.5c0-1.7,0-4.3,0-6.5v16.8v0.2c0,0.7,0,3.3,0,5.4c0,5.8,13.1,17.6,18.1,15.1
			c3.3-1.6,2.8-15.4,2.8-15.4V105h0V91.2c0-2-0.7-3.7-2.1-5.1c-1.4-1.4-3.1-2.1-5.1-2.1H273c0,0-3.1,0-5.6,0
			c-5.8,0-17.6,13.1-15.1,18.1C254,105.4,267.7,105,267.7,105z"/>
		<path class="st0" d="M398,101.6c5.3-9.8-13.8-24-19-14.2C373.7,97.2,392.8,111.3,398,101.6z"/>
		<path class="st0" d="M456.7,105h5.3c0,0,0-7.9,0-10.5c0-1.7,0-4.3,0-6.5v17v21v21h-13.8c-2,0-3.7,0.7-5.1,2.1
			c-1.4,1.4-2.1,3.1-2.1,5.1V168v21v21c0,0-3.1,0-5.6,0c-5.8,0-17.6,13.1-15.1,18.1c1.6,3.3,15.4,2.8,15.4,2.8h5.3c0,0,0-7.9,0-10.5
			c0-1.7,0-4.3,0-6.5v17v13.8c0,2,0.7,3.7,2.1,5.1c1.4,1.4,3.1,2.1,5.1,2.1H462v13.8c0,2,0.7,3.7,2.1,5.1c1.4,1.4,3.1,2.1,5.1,2.1
			H483h21h21v21c0,0-3.1,0-5.6,0c-5.8,0-17.6,13.1-15.1,18.1c1.6,3.3,15.4,2.8,15.4,2.8h5.3c0,0,0-7.9,0-10.5c0-1.7,0-4.3,0-6.5v17
			v21h-21h-21c0,0-3.1,0-5.6,0c-5.8,0-17.6,13.1-15.1,18.1c1.6,3.3,15.4,2.8,15.4,2.8h5.3c0,0,0-7.9,0-10.5c0-1.7,0-4.3,0-6.5v17h21
			h21h13.8c2,0,3.7-0.7,5.1-2.1c1.4-1.4,2.1-3.1,2.1-5.1V336c0,0,3.1,0,5.6,0c5.8,0,17.4-13.1,14.9-18.1c-1.6-3.3-15.2-2.8-15.2-2.8
			H546c0,0,0,7.9,0,10.5c0,1.7,0,4.3,0,6.5v-17v-21v-21v-21h21h21v13.8c0,2,0.7,3.7,2.1,5.1c1.4,1.4,3.1,2.1,5.1,2.1H609
			c0,0.7,0,3.3,0,5.4c0,5.8,13.1,17.6,18.1,15.1c3.3-1.6,2.8-15.4,2.8-15.4V273h0c0,0,3.1,0,5.6,0c5.8,0,17.4-13.1,14.9-18.1
			c-1.6-3.3-15.2-2.8-15.2-2.8H630c0,0,0,7.9,0,10.5c0,1.7,0,4.3,0,6.5v-17h-21v-21v-13.8c0-2-0.7-3.7-2.1-5.1
			c-1.4-1.4-3.1-2.1-5.1-2.1H588h-21h-13.8c-2,0-3.7,0.7-5.1,2.1c-1.4,1.4-2.1,3.1-2.1,5.1V231h-21v-21v-21h21h21h21h21
			c0,0,3.1,0,5.6,0c5.8,0,17.4-13.1,14.9-18.1c-1.6-3.3-15.2-2.8-15.2-2.8H609c0,0,0,7.9,0,10.5c0,1.7,0,4.3,0,6.5v-17h-21h-21v-21
			v-21v-21V91.2c0-2-0.7-3.7-2.1-5.1c-1.4-1.4-3.1-2.1-5.1-2.1H546V63h21h13.8c2,0,3.7-0.7,5.1-2.1c1.4-1.4,2.1-3.1,2.1-5.1V42
			c0,0,3.1,0,5.6,0c5.8,0,17.4-13.1,14.9-18.1c-1.6-3.3-15.2-2.8-15.2-2.8H588c0,0,0,7.9,0,10.5c0,1.7,0,4.3,0,6.5V21V7.2
			c0-2-0.7-3.7-2.1-5.1c-1.4-1.4-3.1-2.1-5.1-2.1H567h-21c0,0-3.1,0-5.6,0c-5.8,0-17.6,13.1-15.1,18.1c1.6,3.3,15.4,2.8,15.4,2.8
			h5.3c0,0,0-7.9,0-10.5c0-1.7,0-4.3,0-6.5v17h21v21h-21h-13.8c-2,0-3.7,0.7-5.1,2.1c-1.4,1.4-2.1,3.1-2.1,5.1V63h-13.8
			c-2,0-3.7,0.7-5.1,2.1c-1.4,1.4-2.1,3.1-2.1,5.1V84h-21h-21c0,0-3.1,0-5.6,0c-5.8,0-17.6,13.1-15.1,18.1
			C443,105.4,456.7,105,456.7,105z M504,210v21h-21h-21v-21h13.8c2,0,3.7-0.7,5.1-2.1c1.4-1.4,2.1-3.1,2.1-5.1V189h21V210z M504,105
			h21h21v21v21v21h-21h-21h-21v-21v-21v-21H504z"/>
		<path class="st0" d="M671,101.6c5.3-9.8-13.8-24-19-14.2C646.7,97.2,665.8,111.3,671,101.6z"/>
		<path class="st0" d="M399.3,123.1c1.6,3.3,15.4,2.8,15.4,2.8h5.3c0,0,0-7.9,0-10.5c0-1.7,0-4.3,0-6.5v16.8v0.2c0,0.7,0,3.3,0,5.4
			c0,5.8,13.1,17.6,18.1,15.1c3.3-1.6,2.8-15.4,2.8-15.4V126h0v-13.8c0-2-0.7-3.7-2.1-5.1c-1.4-1.4-3.1-2.1-5.1-2.1H420
			c0,0-3.1,0-5.6,0C408.6,105,396.8,118.1,399.3,123.1z"/>
		<path class="st0" d="M610,108.4c-5.3,9.8,13.9,23.9,19,14.2C634.3,112.8,615.2,98.7,610,108.4z"/>
		<path class="st0" d="M211,129.4c-5.3,9.8,13.9,23.9,19,14.2C235.3,133.8,216.2,119.7,211,129.4z"/>
		<path class="st0" d="M314,143.6c5.3-9.8-13.8-24-19-14.2C289.7,139.2,308.8,153.3,314,143.6z"/>
		<path class="st0" d="M398,143.6c5.3-9.8-13.8-24-19-14.2C373.7,139.2,392.8,153.3,398,143.6z"/>
		<path class="st0" d="M524,143.6c5.3-9.8-13.8-24-19-14.2C499.7,139.2,518.8,153.3,524,143.6z"/>
		<path class="st0" d="M589,129.4c-5.3,9.8,13.9,23.9,19,14.2C613.3,133.8,594.2,119.7,589,129.4z"/>
		<path class="st0" d="M650,143.6c5.3-9.8-13.8-24-19-14.2C625.7,139.2,644.8,153.3,650,143.6z"/>
		<path class="st0" d="M673,129.4c-5.3,9.8,13.9,23.9,19,14.2C697.3,133.8,678.2,119.7,673,129.4z"/>
		<path class="st0" d="M860,143.6c5.3-9.8-13.8-24-19-14.2C835.7,139.2,854.8,153.3,860,143.6z"/>
		<path class="st0" d="M186.1,167.4c3.3-1.6,2.8-15.4,2.8-15.4V147h0v-21c0,0,0-3.1,0-5.6c0-5.8-13.1-17.6-18.1-15.1
			c-3.3,1.6-2.8,15.4-2.8,15.4v5.3c0,0,7.9,0,10.5,0c1.7,0,4.3,0,6.5,0h-17v20.8v0.2c0,0.7,0,3.3,0,5.4
			C168,158.2,181.1,170,186.1,167.4z"/>
		<path class="st0" d="M336,160.8c0,2,0.7,3.7,2.1,5.1c1.4,1.4,3.1,2.1,5.1,2.1H357c0,0,3.1,0,5.6,0c5.8,0,17.4-13.1,14.9-18.1
			c-1.6-3.3-15.2-2.8-15.2-2.8H357c0,0,0,7.9,0,10.5c0,1.7,0,4.3,0,6.5v-17c0,0,0-3.1,0-5.6c0-5.8-13.1-17.6-18.1-15.1
			c-3.3,1.6-2.8,15.4-2.8,15.4v5.3c0,0,7.9,0,10.5,0c1.7,0,4.3,0,6.5,0h-17V160.8z"/>
		<path class="st0" d="M419,164.6c5.3-9.8-13.8-24-19-14.2C394.7,160.2,413.8,174.3,419,164.6z"/>
		<path class="st0" d="M672,162.4c0-5.8-13.1-17.6-18.1-15.1c-3.3,1.6-2.8,15.4-2.8,15.4v5.3c0,0,7.9,0,10.5,0c1.7,0,4.3,0,6.5,0
			h-17v13.8c0,2,0.7,3.7,2.1,5.1c1.4,1.4,3.1,2.1,5.1,2.1H672h21h21h13.8c2,0,3.7-0.7,5.1-2.1c1.4-1.4,2.1-3.1,2.1-5.1V168v-21v-21
			h21c0,0.7,0,3.3,0,5.4c0,5.8,13.1,17.6,18.1,15.1c3.3-1.6,2.8-15.4,2.8-15.4V126h0h21c0,0.7,0,3.3,0,5.4
			c0,5.8,13.1,17.6,18.1,15.1c3.3-1.6,2.8-15.4,2.8-15.4V126h0v-13.8c0-2-0.7-3.7-2.1-5.1c-1.4-1.4-3.1-2.1-5.1-2.1H798h-21h-21
			c0,0,0-3.1,0-5.6c0-5.8-13.1-17.6-18.1-15.1c-3.3,1.6-2.8,15.4-2.8,15.4v5.3c0,0,7.9,0,10.5,0c1.7,0,4.3,0,6.5,0h-17h-21
			c0,0-3.1,0-5.6,0c-5.8,0-17.6,13.1-15.1,18.1c1.6,3.3,15.4,2.8,15.4,2.8h5.3c0,0,0-7.9,0-10.5c0-1.7,0-4.3,0-6.5v17v21h-13.8
			c-2,0-3.7,0.7-5.1,2.1c-1.4,1.4-2.1,3.1-2.1,5.1V168h-21C672,168,672,164.9,672,162.4z"/>
		<path class="st0" d="M797,164.6c5.3-9.8-13.8-24-19-14.2C772.7,160.2,791.8,174.3,797,164.6z"/>
		<path class="st0" d="M839,164.6c5.3-9.8-13.8-24-19-14.2C814.7,160.2,833.8,174.3,839,164.6z"/>
		<path class="st0" d="M225.4,168c-5.8,0-17.6,13.1-15.1,18.1c1.6,3.3,15.4,2.8,15.4,2.8h5.3c0,0,0-7.9,0-10.5c0-1.7,0-4.3,0-6.5v17
			h21c0,0.7,0,3.3,0,5.4c0,5.8,13.1,17.6,18.1,15.1c3.3-1.6,2.8-15.4,2.8-15.4V189h0h13.8c2,0,3.7-0.7,5.1-2.1
			c1.4-1.4,2.1-3.1,2.1-5.1V168v-13.8c0-2-0.7-3.7-2.1-5.1c-1.4-1.4-3.1-2.1-5.1-2.1H273c0,0,0-3.1,0-5.6c0-5.8-13.1-17.6-18.1-15.1
			c-3.3,1.6-2.8,15.4-2.8,15.4v5.3c0,0,7.9,0,10.5,0c1.7,0,4.3,0,6.5,0h-17v21h-21C231,168,227.9,168,225.4,168z"/>
		<path class="st0" d="M860,185.6c5.3-9.8-13.8-24-19-14.2C835.7,181.2,854.8,195.3,860,185.6z"/>
		<path class="st0" d="M372.4,189c-5.8,0-17.6,13.1-15.1,18.1c1.6,3.3,15.4,2.8,15.4,2.8h5.3c0,0,0-7.9,0-10.5c0-3.3,0-10.5,0-10.5
			S374.9,189,372.4,189z"/>
		<path class="st0" d="M383.6,210c5.8,0,17.4-13.1,14.9-18.1c-1.6-3.3-15.2-2.8-15.2-2.8H378c0,0,0,7.9,0,10.5c0,3.3,0,10.5,0,10.5
			S381.1,210,383.6,210z"/>
		<path class="st0" d="M650,206.6c5.3-9.8-13.8-24-19-14.2C625.7,202.2,644.8,216.3,650,206.6z"/>
		<path class="st0" d="M798.3,207.1c1.6,3.3,15.4,2.8,15.4,2.8h5.3c0,0,0-7.9,0-10.5c0-3.3,0-10.5,0-10.5s-3.1,0-5.6,0
			C807.6,189,795.8,202.1,798.3,207.1z"/>
		<path class="st0" d="M824.6,210c5.8,0,17.4-13.1,14.9-18.1c-1.6-3.3-15.2-2.8-15.2-2.8H819c0,0,0,7.9,0,10.5c0,3.3,0,10.5,0,10.5
			S822.1,210,824.6,210z"/>
		<path class="st0" d="M251,227.6c5.3-9.8-13.8-24-19-14.2C226.7,223.2,245.8,237.3,251,227.6z"/>
		<path class="st0" d="M314,227.6c5.3-9.8-13.8-24-19-14.2C289.7,223.2,308.8,237.3,314,227.6z"/>
		<path class="st0" d="M694,213.4c-5.3,9.8,13.9,23.9,19,14.2C718.3,217.8,699.2,203.7,694,213.4z"/>
		<path class="st0" d="M965,227.6c5.3-9.8-13.8-24-19-14.2C940.7,223.2,959.8,237.3,965,227.6z"/>
		<path class="st0" d="M21,252c0,0-3.1,0-5.6,0c-5.8,0-17.6,13.1-15.1,18.1c1.6,3.3,15.4,2.8,15.4,2.8H21c0,0,0-7.9,0-10.5
			c0-1.7,0-4.3,0-6.5v17h21h21v13.8c0,2,0.7,3.7,2.1,5.1c1.4,1.4,3.1,2.1,5.1,2.1H84h21v13.8c0,2,0.7,3.7,2.1,5.1
			c1.4,1.4,3.1,2.1,5.1,2.1H126c0,0,3.1,0,5.6,0c5.8,0,17.4-13.1,14.9-18.1c-1.6-3.3-15.2-2.8-15.2-2.8H126c0,0,0,7.9,0,10.5
			c0,1.7,0,4.3,0,6.5v-17v-21h21c0,0,3.1,0,5.6,0c5.8,0,17.4-13.1,14.9-18.1c-1.6-3.3-15.2-2.8-15.2-2.8H147c0,0,0,7.9,0,10.5
			c0,1.7,0,4.3,0,6.5v-17h-21v-21h21c0,0,3.1,0,5.6,0c5.8,0,17.4-13.1,14.9-18.1c-1.6-3.3-15.2-2.8-15.2-2.8H147c0,0,0,7.9,0,10.5
			c0,1.7,0,4.3,0,6.5v-17h-21v-21h21c0,0,3.1,0,5.6,0c5.8,0,17.4-13.1,14.9-18.1c-1.6-3.3-15.2-2.8-15.2-2.8H147c0,0,0,7.9,0,10.5
			c0,1.7,0,4.3,0,6.5v-17h-21h-21H91.2c-2,0-3.7,0.7-5.1,2.1c-1.4,1.4-2.1,3.1-2.1,5.1V189v13.8c0,2,0.7,3.7,2.1,5.1
			c1.4,1.4,3.1,2.1,5.1,2.1H105v21H84H63H42v-21c0,0,0-3.1,0-5.6c0-5.8-13.1-17.6-18.1-15.1c-3.3,1.6-2.8,15.4-2.8,15.4v5.3
			c0,0,7.9,0,10.5,0c1.7,0,4.3,0,6.5,0H21c0,0-3.1,0-5.6,0c-5.8,0-17.6,13.1-15.1,18.1c1.6,3.3,15.4,2.8,15.4,2.8H21
			c0,0,0-7.9,0-10.5c0-1.7,0-4.3,0-6.5v17V252z M105,252v21H84v-21H105z"/>
		<path class="st0" d="M330.4,231c-5.8,0-17.6,13.1-15.1,18.1c1.6,3.3,15.4,2.8,15.4,2.8h5.3c0,0,0-7.9,0-10.5c0-1.7,0-4.3,0-6.5v17
			h13.8c2,0,3.7-0.7,5.1-2.1c1.4-1.4,2.1-3.1,2.1-5.1V231c0,0,0-3.1,0-5.6c0-5.8-13.1-17.6-18.1-15.1c-3.3,1.6-2.8,15.4-2.8,15.4
			v5.3c0,0,7.9,0,10.5,0c1.7,0,4.3,0,6.5,0h-17C336,231,332.9,231,330.4,231z"/>
		<path class="st0" d="M671,248.6c5.3-9.8-13.8-24-19-14.2C646.7,244.2,665.8,258.3,671,248.6z"/>
		<path class="st0" d="M853.8,231H840h-21h-21c0,0,0-3.1,0-5.6c0-5.8-13.1-17.6-18.1-15.1c-3.3,1.6-2.8,15.4-2.8,15.4v5.3
			c0,0,7.9,0,10.5,0c1.7,0,4.3,0,6.5,0h-17h-21v-21h13.8c2,0,3.7-0.7,5.1-2.1c1.4-1.4,2.1-3.1,2.1-5.1V189c0,0,0-3.1,0-5.6
			c0-5.8-13.1-17.6-18.1-15.1c-3.3,1.6-2.8,15.4-2.8,15.4v5.3c0,0,7.9,0,10.5,0c1.7,0,4.3,0,6.5,0h-17h-13.8c-2,0-3.7,0.7-5.1,2.1
			c-1.4,1.4-2.1,3.1-2.1,5.1V210v21c0,0-3.1,0-5.6,0c-5.8,0-17.6,13.1-15.1,18.1c1.6,3.3,15.4,2.8,15.4,2.8h5.3c0,0,0-7.9,0-10.5
			c0-1.7,0-4.3,0-6.5v17v13.8c0,2,0.7,3.7,2.1,5.1c1.4,1.4,3.1,2.1,5.1,2.1H756c0,0.7,0,3.3,0,5.4c0,5.8,13.1,17.6,18.1,15.1
			c3.3-1.6,2.8-15.4,2.8-15.4V273h0v-21h21h21h21c0,0.7,0,3.3,0,5.4c0,5.8,13.1,17.6,18.1,15.1c3.3-1.6,2.8-15.4,2.8-15.4V252h0
			v-13.8c0-2-0.7-3.7-2.1-5.1C857.5,231.7,855.8,231,853.8,231z"/>
		<path class="st0" d="M1026.9,233.1c-1.4-1.4-3.1-2.1-5.1-2.1H1008v-21v-21c0,0,0-3.1,0-5.6c0-5.8-13.1-17.6-18.1-15.1
			c-3.3,1.6-2.8,15.4-2.8,15.4v5.3c0,0,7.9,0,10.5,0c1.7,0,4.3,0,6.5,0h-17v21v21h-13.8c-2,0-3.7,0.7-5.1,2.1
			c-1.4,1.4-2.1,3.1-2.1,5.1V252h-21v-13.8c0-2-0.7-3.7-2.1-5.1c-1.4-1.4-3.1-2.1-5.1-2.1H924v-21c0,0,3.1,0,5.6,0
			c5.8,0,17.4-13.1,14.9-18.1c-1.6-3.3-15.2-2.8-15.2-2.8H924c0,0,0,7.9,0,10.5c0,1.7,0,4.3,0,6.5v-17v-13.8c0-2-0.7-3.7-2.1-5.1
			c-1.4-1.4-3.1-2.1-5.1-2.1H903h-13.8c-2,0-3.7,0.7-5.1,2.1c-1.4,1.4-2.1,3.1-2.1,5.1V189c0,0-3.1,0-5.6,0
			c-5.8,0-17.6,13.1-15.1,18.1c1.6,3.3,15.4,2.8,15.4,2.8h5.3c0,0,0-7.9,0-10.5c0-1.7,0-4.3,0-6.5v17h21v21c0,0-3.1,0-5.6,0
			c-5.8,0-17.6,13.1-15.1,18.1c1.6,3.3,15.4,2.8,15.4,2.8h5.3c0,0,0-7.9,0-10.5c0-1.7,0-4.3,0-6.5v17h21v13.8c0,2,0.7,3.7,2.1,5.1
			c1.4,1.4,3.1,2.1,5.1,2.1H945v20.8v0.2c0,0.7,0,3.3,0,5.4c0,5.8,13.1,17.6,18.1,15.1c3.3-1.6,2.8-15.4,2.8-15.4V294h0h13.8
			c2,0,3.7-0.7,5.1-2.1c1.4-1.4,2.1-3.1,2.1-5.1V273h21h13.8c2,0,3.7-0.7,5.1-2.1c1.4-1.4,2.1-3.1,2.1-5.1V252v-13.8
			C1029,236.2,1028.3,234.5,1026.9,233.1z"/>
		<path class="st0" d="M687.4,252c-5.8,0-17.6,13.1-15.1,18.1c1.6,3.3,15.4,2.8,15.4,2.8h5.3c0,0,0-7.9,0-10.5c0-3.3,0-10.5,0-10.5
			S689.9,252,687.4,252z"/>
		<path class="st0" d="M713.4,254.9c-1.6-3.3-15.2-2.8-15.2-2.8H693c0,0,0,7.9,0,10.5c0,3.3,0,10.5,0,10.5s3.1,0,5.6,0
			C704.4,273,716,259.9,713.4,254.9z"/>
		<path class="st0" d="M231,294v20.8v0.2c0,0.7,0,3.3,0,5.4c0,5.8,13.1,17.6,18.1,15.1c3.3-1.6,2.8-15.4,2.8-15.4V315h0
			c0,0,3.1,0,5.6,0c5.8,0,17.4-13.1,14.9-18.1c-1.6-3.3-15.2-2.8-15.2-2.8H252c0,0,0,7.9,0,10.5c0,1.7,0,4.3,0,6.5v-17v-21h21h21
			c0,0,3.1,0,5.6,0c5.8,0,17.4-13.1,14.9-18.1c-1.6-3.3-15.2-2.8-15.2-2.8H294c0,0,0,7.9,0,10.5c0,1.7,0,4.3,0,6.5v-17
			c0,0,0-3.1,0-5.6c0-5.8-13.1-17.6-18.1-15.1c-3.3,1.6-2.8,15.4-2.8,15.4v5.3c0,0,7.9,0,10.5,0c1.7,0,4.3,0,6.5,0h-17h-21h-21
			v-13.8c0-2-0.7-3.7-2.1-5.1c-1.4-1.4-3.1-2.1-5.1-2.1H210v-21c0,0,0-3.1,0-5.6c0-5.8-13.1-17.6-18.1-15.1
			c-3.3,1.6-2.8,15.4-2.8,15.4v5.3c0,0,7.9,0,10.5,0c1.7,0,4.3,0,6.5,0h-17v21v13.8c0,2,0.7,3.7,2.1,5.1c1.4,1.4,3.1,2.1,5.1,2.1
			H210v21c0,0-3.1,0-5.6,0c-5.8,0-17.6,13.1-15.1,18.1c1.6,3.3,15.4,2.8,15.4,2.8h5.3c0,0,0-7.9,0-10.5c0-1.7,0-4.3,0-6.5v17H231z"
			/>
		<path class="st0" d="M351.4,273c-5.8,0-17.6,13.1-15.1,18.1c1.6,3.3,15.4,2.8,15.4,2.8h5.3c0,0,0-7.9,0-10.5c0-3.3,0-10.5,0-10.5
			S353.9,273,351.4,273z"/>
		<path class="st0" d="M377.4,275.9c-1.6-3.3-15.2-2.8-15.2-2.8H357c0,0,0,7.9,0,10.5c0,3.3,0,10.5,0,10.5s3.1,0,5.6,0
			C368.4,294,380,280.9,377.4,275.9z"/>
		<path class="st0" d="M671,290.6c5.3-9.8-13.8-24-19-14.2C646.7,286.2,665.8,300.3,671,290.6z"/>
		<path class="st0" d="M882,273h-13.8c-2,0-3.7,0.7-5.1,2.1c-1.4,1.4-2.1,3.1-2.1,5.1V294v21v21v13.8c0,2,0.7,3.7,2.1,5.1
			c1.4,1.4,3.1,2.1,5.1,2.1H882c0,0.7,0,3.3,0,5.4c0,5.8,13.1,17.6,18.1,15.1c3.3-1.6,2.8-15.4,2.8-15.4V357h0v-13.8
			c0-2-0.7-3.7-2.1-5.1c-1.4-1.4-3.1-2.1-5.1-2.1H882v-21h13.8c2,0,3.7-0.7,5.1-2.1c1.4-1.4,2.1-3.1,2.1-5.1V294c0,0,3.1,0,5.6,0
			c5.8,0,17.4-13.1,14.9-18.1c-1.6-3.3-15.2-2.8-15.2-2.8H903c0,0,0,7.9,0,10.5c0,1.7,0,4.3,0,6.5v-17H882z"/>
		<path class="st0" d="M169,297.4c-5.3,9.8,13.9,23.9,19,14.2C193.3,301.8,174.2,287.7,169,297.4z"/>
		<path class="st0" d="M295,297.4c-5.3,9.8,13.9,23.9,19,14.2C319.3,301.8,300.2,287.7,295,297.4z"/>
		<path class="st0" d="M441,294c0,0,3.1,0,5.6,0c5.8,0,17.4-13.1,14.9-18.1c-1.6-3.3-15.2-2.8-15.2-2.8H441c0,0,0,7.9,0,10.5
			c0,1.7,0,4.3,0,6.5v-17c0,0,0-3.1,0-5.6c0-5.8-13.1-17.6-18.1-15.1c-3.3,1.6-2.8,15.4-2.8,15.4v5.3c0,0,7.9,0,10.5,0
			c1.7,0,4.3,0,6.5,0h-17h-13.8c-2,0-3.7,0.7-5.1,2.1c-1.4,1.4-2.1,3.1-2.1,5.1V294v13.8c0,2,0.7,3.7,2.1,5.1
			c1.4,1.4,3.1,2.1,5.1,2.1H420h13.8c2,0,3.7-0.7,5.1-2.1c1.4-1.4,2.1-3.1,2.1-5.1V294z"/>
		<path class="st0" d="M482,311.6c5.3-9.8-13.8-24-19-14.2C457.7,307.2,476.8,321.3,482,311.6z"/>
		<path class="st0" d="M585.1,314.4c3.3-1.6,2.8-15.4,2.8-15.4V294c0,0,0,0,0,0s0-3.1,0-5.6c0-5.8-13.1-17.6-18.1-15.1
			c-3.3,1.6-2.8,15.4-2.8,15.4v5.1c0,0,0,0,0,0s0,3.1,0,5.6C567,305.2,580.1,317,585.1,314.4z"/>
		<path class="st0" d="M693,315c0,0,0-3.1,0-5.6c0-5.8-13.1-17.6-18.1-15.1c-3.3,1.6-2.8,15.4-2.8,15.4v5.1c0,0,0,0,0,0s0,3.1,0,5.6
			c0,5.8,13.1,17.6,18.1,15.1c3.3-1.6,2.8-15.4,2.8-15.4L693,315C693,315,693,315,693,315z"/>
		<path class="st0" d="M609,336v13.8c0,2,0.7,3.7,2.1,5.1c1.4,1.4,3.1,2.1,5.1,2.1H630h21c0,0,3.1,0,5.6,0
			c5.8,0,17.4-13.1,14.9-18.1c-1.6-3.3-15.2-2.8-15.2-2.8H651c0,0,0,7.9,0,10.5c0,1.7,0,4.3,0,6.5v-17v-13.8c0-2-0.7-3.7-2.1-5.1
			c-1.4-1.4-3.1-2.1-5.1-2.1H630h-21c0,0-3.1,0-5.6,0c-5.8,0-17.6,13.1-15.1,18.1c1.6,3.3,15.4,2.8,15.4,2.8L609,336
			c0,0,0-7.9,0-10.5c0-1.7,0-4.3,0-6.5V336z"/>
		<path class="st0" d="M126,336h-21c0,0,0-3.1,0-5.6c0-5.8-13.1-17.6-18.1-15.1c-3.3,1.6-2.8,15.4-2.8,15.4v5.3c0,0,7.9,0,10.5,0
			c1.7,0,4.3,0,6.5,0H84v20.8v0.2c0,0.7,0,3.3,0,5.4c0,5.8,13.1,17.6,18.1,15.1c3.3-1.6,2.8-15.4,2.8-15.4V357h0h21h21h21h21v21
			v20.8v0.2c0,0.7,0,3.3,0,5.4c0,5.8,13.1,17.6,18.1,15.1c3.3-1.6,2.8-15.4,2.8-15.4V399h0v-21c0,0,3.1,0,5.6,0
			c5.8,0,17.4-13.1,14.9-18.1c-1.6-3.3-15.2-2.8-15.2-2.8H210c0,0,0,7.9,0,10.5c0,1.7,0,4.3,0,6.5v-17v-13.8c0-2-0.7-3.7-2.1-5.1
			c-1.4-1.4-3.1-2.1-5.1-2.1H189h-21h-21H126z"/>
		<path class="st0" d="M440.4,338.9c-1.6-3.3-15.2-2.8-15.2-2.8H420c0,0,0,7.9,0,10.5c0,1.7,0,4.3,0,6.5v-17h-21c0,0,0-3.1,0-5.6
			c0-5.8-13.1-17.6-18.1-15.1c-3.3,1.6-2.8,15.4-2.8,15.4v5.3c0,0,7.9,0,10.5,0c1.7,0,4.3,0,6.5,0h-17v13.8c0,2,0.7,3.7,2.1,5.1
			c1.4,1.4,3.1,2.1,5.1,2.1H399h21c0,0,3.1,0,5.6,0C431.4,357,443,343.9,440.4,338.9z"/>
		<path class="st0" d="M18.1,377.4c3.3-1.6,2.8-15.4,2.8-15.4V357h0h21c0,0.7,0,3.3,0,5.4c0,5.8,13.1,17.6,18.1,15.1
			c3.3-1.6,2.8-15.4,2.8-15.4V357h0v-21c0,0,0-3.1,0-5.6c0-5.8-13.1-17.6-18.1-15.1c-3.3,1.6-2.8,15.4-2.8,15.4v5.3
			c0,0,7.9,0,10.5,0c1.7,0,4.3,0,6.5,0H42H21H7.2c-2,0-3.7,0.7-5.1,2.1c-1.4,1.4-2.1,3.1-2.1,5.1v13.6v0.2c0,0.7,0,3.3,0,5.4
			C0,368.2,13.1,380,18.1,377.4z"/>
		<path class="st0" d="M942.1,377.4c3.3-1.6,2.8-15.4,2.8-15.4V357h0v-21c0,0,0-3.1,0-5.6c0-5.8-13.1-17.6-18.1-15.1
			c-3.3,1.6-2.8,15.4-2.8,15.4v5.3c0,0,7.9,0,10.5,0c1.7,0,4.3,0,6.5,0h-17v20.8v0.2c0,0.7,0,3.3,0,5.4
			C924,368.2,937.1,380,942.1,377.4z"/>
		<path class="st0" d="M232,381.4c-5.3,9.8,13.9,23.9,19,14.2C256.3,385.8,237.2,371.7,232,381.4z"/>
		<path class="st0" d="M357,378v-13.8c0-2-0.7-3.7-2.1-5.1c-1.4-1.4-3.1-2.1-5.1-2.1H336c0,0,0-3.1,0-5.6c0-5.8-13.1-17.6-18.1-15.1
			c-3.3,1.6-2.8,15.4-2.8,15.4v5.3c0,0,7.9,0,10.5,0c1.7,0,4.3,0,6.5,0h-17v21h-21v-21c0,0,0-3.1,0-5.6c0-5.8-13.1-17.6-18.1-15.1
			c-3.3,1.6-2.8,15.4-2.8,15.4v5.3c0,0,7.9,0,10.5,0c1.7,0,4.3,0,6.5,0h-17c0,0-3.1,0-5.6,0c-5.8,0-17.6,13.1-15.1,18.1
			c1.6,3.3,15.4,2.8,15.4,2.8h5.3c0,0,0-7.9,0-10.5c0-1.7,0-4.3,0-6.5v17v21c0,0-3.1,0-5.6,0c-5.8,0-17.6,13.1-15.1,18.1
			c1.6,3.3,15.4,2.8,15.4,2.8h5.3c0,0,0-7.9,0-10.5c0-1.7,0-4.3,0-6.5v17h13.8c2,0,3.7-0.7,5.1-2.1c1.4-1.4,2.1-3.1,2.1-5.1V399h21
			h21h13.8c2,0,3.7-0.7,5.1-2.1c1.4-1.4,2.1-3.1,2.1-5.1V378z"/>
		<path class="st0" d="M1,402.4c-5.3,9.8,13.9,23.9,19,14.2C25.3,406.8,6.2,392.7,1,402.4z"/>
		<path class="st0" d="M1009,423.4c-5.3,9.8,13.9,23.9,19,14.2C1033.3,427.8,1014.2,413.7,1009,423.4z"/>
		<path class="st0" d="M15.7,462H21c0,0,0-7.9,0-10.5c0-3.3,0-10.5,0-10.5s-3.1,0-5.6,0c-5.8,0-17.6,13.1-15.1,18.1
			C2,462.4,15.7,462,15.7,462z"/>
		<path class="st0" d="M26.6,462c5.8,0,17.4-13.1,14.9-18.1c-1.6-3.3-15.2-2.8-15.2-2.8H21c0,0,0,7.9,0,10.5c0,3.3,0,10.5,0,10.5
			S24.1,462,26.6,462z"/>
		<path class="st0" d="M204.4,441c-5.8,0-17.6,13.1-15.1,18.1c1.6,3.3,15.4,2.8,15.4,2.8h5.3c0,0,0-7.9,0-10.5c0-1.7,0-4.3,0-6.5v17
			h21c0,0,3.1,0,5.6,0c5.8,0,17.4-13.1,14.9-18.1c-1.6-3.3-15.2-2.8-15.2-2.8H231c0,0,0,7.9,0,10.5c0,1.7,0,4.3,0,6.5v-17
			c0,0,0-3.1,0-5.6c0-5.8-13.1-17.6-18.1-15.1c-3.3,1.6-2.8,15.4-2.8,15.4v5.3c0,0,7.9,0,10.5,0c1.7,0,4.3,0,6.5,0h-17
			C210,441,206.9,441,204.4,441z"/>
		<path class="st0" d="M294.3,459.1c1.6,3.3,15.4,2.8,15.4,2.8h5.3c0,0,0-7.9,0-10.5c0-3.3,0-10.5,0-10.5s-3.1,0-5.6,0
			C303.6,441,291.8,454.1,294.3,459.1z"/>
		<path class="st0" d="M320.6,462c5.8,0,17.4-13.1,14.9-18.1c-1.6-3.3-15.2-2.8-15.2-2.8H315c0,0,0,7.9,0,10.5c0,3.3,0,10.5,0,10.5
			S318.1,462,320.6,462z"/>
		<path class="st0" d="M62,479.6c5.3-9.8-13.8-24-19-14.2C37.7,475.2,56.8,489.3,62,479.6z"/>
		<path class="st0" d="M672,475.8c0,2,0.7,3.7,2.1,5.1c1.4,1.4,3.1,2.1,5.1,2.1H693c0,0,3.1,0,5.6,0c5.8,0,17.4-13.1,14.9-18.1
			c-1.6-3.3-15.2-2.8-15.2-2.8H693c0,0,0,7.9,0,10.5c0,1.7,0,4.3,0,6.5v-17c0,0,0-3.1,0-5.6c0-5.8-13.1-17.6-18.1-15.1
			c-3.3,1.6-2.8,15.4-2.8,15.4v5.3c0,0,7.9,0,10.5,0c1.7,0,4.3,0,6.5,0h-17V475.8z"/>
		<path class="st0" d="M356,500.6c5.3-9.8-13.8-24-19-14.2C331.7,496.2,350.8,510.3,356,500.6z"/>
		<path class="st0" d="M1021.8,483H1008h-21v-21v-21v-21v-21v-21h13.8c2,0,3.7-0.7,5.1-2.1c1.4-1.4,2.1-3.1,2.1-5.1V357
			c0,0,3.1,0,5.6,0c5.8,0,17.4-13.1,14.9-18.1c-1.6-3.3-15.2-2.8-15.2-2.8h-5.3c0,0,0,7.9,0,10.5c0,1.7,0,4.3,0,6.5v-17
			c0,0,0-3.1,0-5.6c0-5.8-13.1-17.6-18.1-15.1c-3.3,1.6-2.8,15.4-2.8,15.4v5.3c0,0,7.9,0,10.5,0c1.7,0,4.3,0,6.5,0h-17v21h-13.8
			c-2,0-3.7,0.7-5.1,2.1c-1.4,1.4-2.1,3.1-2.1,5.1V378c0,0-3.1,0-5.6,0c-5.8,0-17.6,13.1-15.1,18.1c1.6,3.3,15.4,2.8,15.4,2.8h5.3
			c0,0,0-7.9,0-10.5c0-1.7,0-4.3,0-6.5v17v21h-21v-13.8c0-2-0.7-3.7-2.1-5.1c-1.4-1.4-3.1-2.1-5.1-2.1H924c0,0-3.1,0-5.6,0
			c-5.8,0-17.6,13.1-15.1,18.1c1.6,3.3,15.4,2.8,15.4,2.8h5.3c0,0,0-7.9,0-10.5c0-1.7,0-4.3,0-6.5v17v21h-21c0,0,0-3.1,0-5.6
			c0-5.8-13.1-17.6-18.1-15.1c-3.3,1.6-2.8,15.4-2.8,15.4v5.3c0,0,7.9,0,10.5,0c1.7,0,4.3,0,6.5,0h-17h-13.8c-2,0-3.7,0.7-5.1,2.1
			c-1.4,1.4-2.1,3.1-2.1,5.1V462h-13.8c-2,0-3.7,0.7-5.1,2.1c-1.4,1.4-2.1,3.1-2.1,5.1V483h-21v-21h13.8c2,0,3.7-0.7,5.1-2.1
			c1.4-1.4,2.1-3.1,2.1-5.1V441v-21h21c0,0,3.1,0,5.6,0c5.8,0,17.4-13.1,14.9-18.1c-1.6-3.3-15.2-2.8-15.2-2.8H861c0,0,0,7.9,0,10.5
			c0,1.7,0,4.3,0,6.5v-17c0,0,0-3.1,0-5.6c0-5.8-13.1-17.6-18.1-15.1c-3.3,1.6-2.8,15.4-2.8,15.4v5.3c0,0,7.9,0,10.5,0
			c1.7,0,4.3,0,6.5,0h-17h-21h-21h-21v-13.8c0-2-0.7-3.7-2.1-5.1c-1.4-1.4-3.1-2.1-5.1-2.1H756v-21h21h13.8c2,0,3.7-0.7,5.1-2.1
			c1.4-1.4,2.1-3.1,2.1-5.1V336h21c0,0.7,0,3.3,0,5.4c0,5.8,13.1,17.6,18.1,15.1c3.3-1.6,2.8-15.4,2.8-15.4V336h0v-21v-13.8
			c0-2-0.7-3.7-2.1-5.1c-1.4-1.4-3.1-2.1-5.1-2.1H819c0,0,0-3.1,0-5.6c0-5.8-13.1-17.6-18.1-15.1c-3.3,1.6-2.8,15.4-2.8,15.4v5.3
			c0,0,7.9,0,10.5,0c1.7,0,4.3,0,6.5,0h-17v21h-13.8c-2,0-3.7,0.7-5.1,2.1c-1.4,1.4-2.1,3.1-2.1,5.1V336h-21c0,0,0-3.1,0-5.6
			c0-5.8-13.1-17.6-18.1-15.1c-3.3,1.6-2.8,15.4-2.8,15.4v5.3c0,0,7.9,0,10.5,0c1.7,0,4.3,0,6.5,0h-17h-13.8c-2,0-3.7,0.7-5.1,2.1
			c-1.4,1.4-2.1,3.1-2.1,5.1V357h-21c0,0-3.1,0-5.6,0c-5.8,0-17.6,13.1-15.1,18.1c1.6,3.3,15.4,2.8,15.4,2.8h5.3c0,0,0-7.9,0-10.5
			c0-1.7,0-4.3,0-6.5v17v13.8c0,2,0.7,3.7,2.1,5.1c1.4,1.4,3.1,2.1,5.1,2.1H714v21c0,0-3.1,0-5.6,0c-5.8,0-17.6,13.1-15.1,18.1
			c1.6,3.3,15.4,2.8,15.4,2.8h5.3c0,0,0-7.9,0-10.5c0-1.7,0-4.3,0-6.5v17h21v21v21v21h-21h-21h-13.8c-2,0-3.7,0.7-5.1,2.1
			c-1.4,1.4-2.1,3.1-2.1,5.1V525v13.8c0,2,0.7,3.7,2.1,5.1c1.4,1.4,3.1,2.1,5.1,2.1H693c0,0.7,0,3.3,0,5.4
			c0,5.8,13.1,17.6,18.1,15.1c3.3-1.6,2.8-15.4,2.8-15.4V546h0v-21h21c0,0.7,0,3.3,0,5.4c0,5.8,13.1,17.6,18.1,15.1
			c3.3-1.6,2.8-15.4,2.8-15.4V525h0h13.8c2,0,3.7-0.7,5.1-2.1c1.4-1.4,2.1-3.1,2.1-5.1V504h21h21h21v21h-21h-13.8
			c-2,0-3.7,0.7-5.1,2.1c-1.4,1.4-2.1,3.1-2.1,5.1V546v21h-21c0,0,0-3.1,0-5.6c0-5.8-13.1-17.6-18.1-15.1
			c-3.3,1.6-2.8,15.4-2.8,15.4v5.3c0,0,7.9,0,10.5,0c1.7,0,4.3,0,6.5,0h-17v21h-13.8c-2,0-3.7,0.7-5.1,2.1c-1.4,1.4-2.1,3.1-2.1,5.1
			v13.6v0.2c0,0.7,0,3.3,0,5.4c0,5.8,13.1,17.6,18.1,15.1c3.3-1.6,2.8-15.4,2.8-15.4V609h0h21h13.8c2,0,3.7-0.7,5.1-2.1
			c1.4-1.4,2.1-3.1,2.1-5.1V588h13.8c2,0,3.7-0.7,5.1-2.1c1.4-1.4,2.1-3.1,2.1-5.1V567v-21h21v20.8v0.2c0,0.7,0,3.3,0,5.4
			c0,5.8,13.1,17.6,18.1,15.1c3.3-1.6,2.8-15.4,2.8-15.4V567h0h21v13.8c0,2,0.7,3.7,2.1,5.1c1.4,1.4,3.1,2.1,5.1,2.1H903v13.8
			c0,2,0.7,3.7,2.1,5.1c1.4,1.4,3.1,2.1,5.1,2.1H924h21h21h13.8c2,0,3.7-0.7,5.1-2.1c1.4-1.4,2.1-3.1,2.1-5.1V588h21
			c0,0.7,0,3.3,0,5.4c0,5.8,13.1,17.6,18.1,15.1c3.3-1.6,2.8-15.4,2.8-15.4V588h0v-13.8c0-2-0.7-3.7-2.1-5.1
			c-1.4-1.4-3.1-2.1-5.1-2.1H1008v-13.8c0-2-0.7-3.7-2.1-5.1c-1.4-1.4-3.1-2.1-5.1-2.1H987h-13.8c-2,0-3.7,0.7-5.1,2.1
			c-1.4,1.4-2.1,3.1-2.1,5.1V567h-13.8c-2,0-3.7,0.7-5.1,2.1c-1.4,1.4-2.1,3.1-2.1,5.1V588h-21v-21h13.8c2,0,3.7-0.7,5.1-2.1
			c1.4-1.4,2.1-3.1,2.1-5.1V546h13.8c2,0,3.7-0.7,5.1-2.1c1.4-1.4,2.1-3.1,2.1-5.1V525h21h21c0,0.7,0,3.3,0,5.4
			c0,5.8,13.1,17.6,18.1,15.1c3.3-1.6,2.8-15.4,2.8-15.4V525h0v-21v-13.8c0-2-0.7-3.7-2.1-5.1C1025.5,483.7,1023.8,483,1021.8,483z
			 M735,399h21v21h-21V399z M777,483h-21v-21v-21h13.8c2,0,3.7-0.7,5.1-2.1c1.4-1.4,2.1-3.1,2.1-5.1V420h21h21v21h-21
			c0,0-3.1,0-5.6,0c-5.8,0-17.6,13.1-15.1,18.1c1.6,3.3,15.4,2.8,15.4,2.8h5.3c0,0,0-7.9,0-10.5c0-1.7,0-4.3,0-6.5v17v21H777z
			 M903,546h-21h-21v-21v-21v-21h21h21h21v21v21v21H903z M945,504v-21v-21v-21h21v21v21v21H945z"/>
		<path class="st0" d="M146,521.6c5.3-9.8-13.8-24-19-14.2C121.7,517.2,140.8,531.3,146,521.6z"/>
		<path class="st0" d="M883,507.4c-5.3,9.8,13.9,23.9,19,14.2C907.3,511.8,888.2,497.7,883,507.4z"/>
		<path class="st0" d="M273,567c0,0,0-3.1,0-5.6c0-5.8-13.1-17.6-18.1-15.1c-3.3,1.6-2.8,15.4-2.8,15.4v5.1c0,0,0,0,0,0s0,3.1,0,5.6
			c0,5.8,13.1,17.6,18.1,15.1c3.3-1.6,2.8-15.4,2.8-15.4L273,567C273,567,273,567,273,567z"/>
		<path class="st0" d="M356,563.6c5.3-9.8-13.8-24-19-14.2C331.7,559.2,350.8,573.3,356,563.6z"/>
		<path class="st0" d="M1,570.4c-5.3,9.8,13.9,23.9,19,14.2C25.3,574.8,6.2,560.7,1,570.4z"/>
		<path class="st0" d="M102.1,587.4c3.3-1.6,2.8-15.4,2.8-15.4V567h0h21h21v21h-21c0,0-3.1,0-5.6,0c-5.8,0-17.6,13.1-15.1,18.1
			c1.6,3.3,15.4,2.8,15.4,2.8h5.3c0,0,0-7.9,0-10.5c0-1.7,0-4.3,0-6.5v17h21h13.8c2,0,3.7-0.7,5.1-2.1c1.4-1.4,2.1-3.1,2.1-5.1V588
			v-21h21c0,0,3.1,0,5.6,0c5.8,0,17.4-13.1,14.9-18.1c-1.6-3.3-15.2-2.8-15.2-2.8H189c0,0,0,7.9,0,10.5c0,1.7,0,4.3,0,6.5v-17v-21
			h21c0,0.7,0,3.3,0,5.4c0,5.8,13.1,17.6,18.1,15.1c3.3-1.6,2.8-15.4,2.8-15.4V525h0v-21h21c0,0.7,0,3.3,0,5.4
			c0,5.8,13.1,17.6,18.1,15.1c3.3-1.6,2.8-15.4,2.8-15.4V504h0h21c0,0,3.1,0,5.6,0c5.8,0,17.4-13.1,14.9-18.1
			c-1.6-3.3-15.2-2.8-15.2-2.8H294c0,0,0,7.9,0,10.5c0,1.7,0,4.3,0,6.5v-17h-21c0,0,0-3.1,0-5.6c0-5.8-13.1-17.6-18.1-15.1
			c-3.3,1.6-2.8,15.4-2.8,15.4v5.3c0,0,7.9,0,10.5,0c1.7,0,4.3,0,6.5,0h-17h-21h-21h-21v-13.8c0-2-0.7-3.7-2.1-5.1
			c-1.4-1.4-3.1-2.1-5.1-2.1H168v-21c0,0,3.1,0,5.6,0c5.8,0,17.4-13.1,14.9-18.1c-1.6-3.3-15.2-2.8-15.2-2.8H168c0,0,0,7.9,0,10.5
			c0,1.7,0,4.3,0,6.5v-17v-21v-13.8c0-2-0.7-3.7-2.1-5.1c-1.4-1.4-3.1-2.1-5.1-2.1H147h-21c0,0-3.1,0-5.6,0
			c-5.8,0-17.6,13.1-15.1,18.1c1.6,3.3,15.4,2.8,15.4,2.8h5.3c0,0,0-7.9,0-10.5c0-1.7,0-4.3,0-6.5v17h21v21h-21h-21H84v-13.8
			c0-2-0.7-3.7-2.1-5.1c-1.4-1.4-3.1-2.1-5.1-2.1H63H49.2c-2,0-3.7,0.7-5.1,2.1c-1.4,1.4-2.1,3.1-2.1,5.1V420v13.8
			c0,2,0.7,3.7,2.1,5.1c1.4,1.4,3.1,2.1,5.1,2.1H63h21h21v21H91.2c-2,0-3.7,0.7-5.1,2.1c-1.4,1.4-2.1,3.1-2.1,5.1V483H70.2
			c-2,0-3.7,0.7-5.1,2.1c-1.4,1.4-2.1,3.1-2.1,5.1V504H42c0,0,0-3.1,0-5.6c0-5.8-13.1-17.6-18.1-15.1c-3.3,1.6-2.8,15.4-2.8,15.4
			v5.3c0,0,7.9,0,10.5,0c1.7,0,4.3,0,6.5,0H21v21v13.8c0,2,0.7,3.7,2.1,5.1c1.4,1.4,3.1,2.1,5.1,2.1H42v21v21v20.8v0.2
			c0,0.7,0,3.3,0,5.4c0,5.8,13.1,17.6,18.1,15.1c3.3-1.6,2.8-15.4,2.8-15.4V609h0v-21v-21v-21v-21h21v21v20.8v0.2c0,0.7,0,3.3,0,5.4
			C84,578.2,97.1,590,102.1,587.4z M126,441h21v21h-21V441z M105,525v-21v-21h21h21h21v21v21v21h-21h-21h-21V525z"/>
		<path class="st0" d="M211,570.4c-5.3,9.8,13.9,23.9,19,14.2C235.3,574.8,216.2,560.7,211,570.4z"/>
		<path class="st0" d="M191.9,588.3c-3.3,1.6-2.8,15.4-2.8,15.4v5.1c0,0,0,0,0,0s0,3.1,0,5.6c0,5.8,13.1,17.6,18.1,15.1
			c3.3-1.6,2.8-15.4,2.8-15.4V609c0,0,0,0,0,0s0-3.1,0-5.6C210,597.6,196.9,585.8,191.9,588.3z"/>
		<path class="st0" d="M232,591.4c-5.3,9.8,13.9,23.9,19,14.2C256.3,595.8,237.2,581.7,232,591.4z"/>
		<path class="st0" d="M706.8,588H693h-13.8c-2,0-3.7,0.7-5.1,2.1c-1.4,1.4-2.1,3.1-2.1,5.1V609v13.8c0,2,0.7,3.7,2.1,5.1
			c1.4,1.4,3.1,2.1,5.1,2.1H693h13.8c2,0,3.7-0.7,5.1-2.1c1.4-1.4,2.1-3.1,2.1-5.1V609v-13.8c0-2-0.7-3.7-2.1-5.1
			C710.5,588.7,708.8,588,706.8,588z"/>
		<path class="st0" d="M881,605.6c5.3-9.8-13.8-24-19-14.2C856.7,601.2,875.8,615.3,881,605.6z"/>
		<path class="st0" d="M104,626.6c5.3-9.8-13.8-24-19-14.2C79.7,622.2,98.8,636.3,104,626.6z"/>
		<path class="st0" d="M315,630h13.8c2,0,3.7-0.7,5.1-2.1c1.4-1.4,2.1-3.1,2.1-5.1V609v-13.8c0-2-0.7-3.7-2.1-5.1
			c-1.4-1.4-3.1-2.1-5.1-2.1H315v-21v-21v-13.8c0-2-0.7-3.7-2.1-5.1c-1.4-1.4-3.1-2.1-5.1-2.1H294c0,0-3.1,0-5.6,0
			c-5.8,0-17.6,13.1-15.1,18.1c1.6,3.3,15.4,2.8,15.4,2.8h5.3c0,0,0-7.9,0-10.5c0-1.7,0-4.3,0-6.5v17v21v21v21h-21h-13.8
			c-2,0-3.7,0.7-5.1,2.1c-1.4,1.4-2.1,3.1-2.1,5.1V630h-21c0,0-3.1,0-5.6,0c-5.8,0-17.6,13.1-15.1,18.1c1.6,3.3,15.4,2.8,15.4,2.8
			h5.3c0,0,0-7.9,0-10.5c0-1.7,0-4.3,0-6.5v17h21v21h-21c0,0-3.1,0-5.6,0c-5.8,0-17.6,13.1-15.1,18.1c1.6,3.3,15.4,2.8,15.4,2.8h5.3
			c0,0,0-7.9,0-10.5c0-1.7,0-4.3,0-6.5v17v13.8c0,2,0.7,3.7,2.1,5.1c1.4,1.4,3.1,2.1,5.1,2.1H252h21v13.8c0,2,0.7,3.7,2.1,5.1
			c1.4,1.4,3.1,2.1,5.1,2.1H294h13.8c2,0,3.7-0.7,5.1-2.1c1.4-1.4,2.1-3.1,2.1-5.1V714v-21c0,0,3.1,0,5.6,0
			c5.8,0,17.4-13.1,14.9-18.1c-1.6-3.3-15.2-2.8-15.2-2.8H315c0,0,0,7.9,0,10.5c0,1.7,0,4.3,0,6.5v-17h-21v-13.8
			c0-2-0.7-3.7-2.1-5.1c-1.4-1.4-3.1-2.1-5.1-2.1H273v-21h21c0,0.7,0,3.3,0,5.4c0,5.8,13.1,17.6,18.1,15.1
			c3.3-1.6,2.8-15.4,2.8-15.4L315,630L315,630z"/>
		<path class="st0" d="M902,626.6c5.3-9.8-13.8-24-19-14.2C877.7,622.2,896.8,636.3,902,626.6z"/>
		<path class="st0" d="M1007,626.6c5.3-9.8-13.8-24-19-14.2C982.7,622.2,1001.8,636.3,1007,626.6z"/>
		<path class="st0" d="M141.4,630c-5.8,0-17.6,13.1-15.1,18.1c1.6,3.3,15.4,2.8,15.4,2.8h5.3c0,0,0-7.9,0-10.5c0-3.3,0-10.5,0-10.5
			S143.9,630,141.4,630z"/>
		<path class="st0" d="M167.4,632.9c-1.6-3.3-15.2-2.8-15.2-2.8H147c0,0,0,7.9,0,10.5c0,3.3,0,10.5,0,10.5s3.1,0,5.6,0
			C158.4,651,170,637.9,167.4,632.9z"/>
		<path class="st0" d="M338.9,630.3c-3.3,1.6-2.8,15.4-2.8,15.4v5.1c0,0,0,0,0,0s0,3.1,0,5.6c0,5.8,13.1,17.6,18.1,15.1
			c3.3-1.6,2.8-15.4,2.8-15.4V651c0,0,0,0,0,0s0-3.1,0-5.6C357,639.6,343.9,627.8,338.9,630.3z"/>
		<path class="st0" d="M816.1,650.4c3.3-1.6,2.8-15.4,2.8-15.4V630c0,0,0,0,0,0s0-3.1,0-5.6c0-5.8-13.1-17.6-18.1-15.1
			c-3.3,1.6-2.8,15.4-2.8,15.4v5.1c0,0,0,0,0,0s0,3.1,0,5.6C798,641.2,811.1,653,816.1,650.4z"/>
		<path class="st0" d="M714,672v13.8c0,2,0.7,3.7,2.1,5.1c1.4,1.4,3.1,2.1,5.1,2.1H735h13.8c2,0,3.7-0.7,5.1-2.1
			c1.4-1.4,2.1-3.1,2.1-5.1V672v-13.8c0-2-0.7-3.7-2.1-5.1c-1.4-1.4-3.1-2.1-5.1-2.1H735c0,0,0-3.1,0-5.6c0-5.8-13.1-17.6-18.1-15.1
			c-3.3,1.6-2.8,15.4-2.8,15.4v5.3c0,0,7.9,0,10.5,0c1.7,0,4.3,0,6.5,0h-17V672z"/>
		<path class="st0" d="M861,672c0,0-3.1,0-5.6,0c-5.8,0-17.6,13.1-15.1,18.1c1.6,3.3,15.4,2.8,15.4,2.8h5.3c0,0,0-7.9,0-10.5
			c0-1.7,0-4.3,0-6.5v17v13.8c0,2,0.7,3.7,2.1,5.1c1.4,1.4,3.1,2.1,5.1,2.1H882h13.8c2,0,3.7-0.7,5.1-2.1c1.4-1.4,2.1-3.1,2.1-5.1
			V693h13.8c2,0,3.7-0.7,5.1-2.1c1.4-1.4,2.1-3.1,2.1-5.1V672h13.8c2,0,3.7-0.7,5.1-2.1c1.4-1.4,2.1-3.1,2.1-5.1V651
			c0,0,3.1,0,5.6,0c5.8,0,17.4-13.1,14.9-18.1c-1.6-3.3-15.2-2.8-15.2-2.8H945c0,0,0,7.9,0,10.5c0,1.7,0,4.3,0,6.5v-9.8V630h-13.8
			c-2,0-3.7,0.7-5.1,2.1c-1.4,1.4-2.1,3.1-2.1,5.1V651h-21h-21v-13.8c0-2-0.7-3.7-2.1-5.1c-1.4-1.4-3.1-2.1-5.1-2.1H861
			c0,0-3.1,0-5.6,0c-5.8,0-17.6,13.1-15.1,18.1c1.6,3.3,15.4,2.8,15.4,2.8h5.3c0,0,0-7.9,0-10.5c0-1.7,0-4.3,0-6.5v17V672z"/>
		<path class="st0" d="M986,668.6c5.3-9.8-13.8-24-19-14.2C961.7,664.2,980.8,678.3,986,668.6z"/>
		<path class="st0" d="M169,675.4c-5.3,9.8,13.9,23.9,19,14.2C193.3,679.8,174.2,665.7,169,675.4z"/>
		<path class="st0" d="M377,689.6c5.3-9.8-13.8-24-19-14.2C352.7,685.2,371.8,699.3,377,689.6z"/>
		<path class="st0" d="M443.9,672.3c-3.3,1.6-2.8,15.4-2.8,15.4v5.3c0,0,7.9,0,10.5,0c1.7,0,4.3,0,6.5,0h-17v20.8v0.2
			c0,0.7,0,3.3,0,5.4c0,5.8,13.1,17.6,18.1,15.1c3.3-1.6,2.8-15.4,2.8-15.4V714h0v-21c0,0,0-3.1,0-5.6
			C462,681.6,448.9,669.8,443.9,672.3z"/>
		<path class="st0" d="M568,675.4c-5.3,9.8,13.9,23.9,19,14.2C592.3,679.8,573.2,665.7,568,675.4z"/>
		<path class="st0" d="M777,693v21h-13.8c-2,0-3.7,0.7-5.1,2.1c-1.4,1.4-2.1,3.1-2.1,5.1V735h-13.8c-2,0-3.7,0.7-5.1,2.1
			c-1.4,1.4-2.1,3.1-2.1,5.1V756v20.8v0.2c0,0.7,0,3.3,0,5.4c0,5.8,13.1,17.6,18.1,15.1c3.3-1.6,2.8-15.4,2.8-15.4V777h0h13.8
			c2,0,3.7-0.7,5.1-2.1c1.4-1.4,2.1-3.1,2.1-5.1V756v-21h21h21h21c0,0,3.1,0,5.6,0c5.8,0,17.4-13.1,14.9-18.1
			c-1.6-3.3-15.2-2.8-15.2-2.8H840c0,0,0,7.9,0,10.5c0,1.7,0,4.3,0,6.5v-17v-13.8c0-2-0.7-3.7-2.1-5.1c-1.4-1.4-3.1-2.1-5.1-2.1H819
			v-13.8c0-2-0.7-3.7-2.1-5.1c-1.4-1.4-3.1-2.1-5.1-2.1H798c0,0,0-3.1,0-5.6c0-5.8-13.1-17.6-18.1-15.1c-3.3,1.6-2.8,15.4-2.8,15.4
			v5.3c0,0,7.9,0,10.5,0c1.7,0,4.3,0,6.5,0h-17V693z"/>
		<path class="st0" d="M946,675.4c-5.3,9.8,13.9,23.9,19,14.2C970.3,679.8,951.2,665.7,946,675.4z"/>
		<path class="st0" d="M1021.8,672H1008h-13.8c-2,0-3.7,0.7-5.1,2.1c-1.4,1.4-2.1,3.1-2.1,5.1V693v13.8c0,2,0.7,3.7,2.1,5.1
			c1.4,1.4,3.1,2.1,5.1,2.1h13.8h13.8c2,0,3.7-0.7,5.1-2.1c1.4-1.4,2.1-3.1,2.1-5.1V693v-13.8c0-2-0.7-3.7-2.1-5.1
			C1025.5,672.7,1023.8,672,1021.8,672z"/>
		<path class="st0" d="M118.8,714c2,0,3.7-0.7,5.1-2.1c1.4-1.4,2.1-3.1,2.1-5.1V693c0,0,3.1,0,5.6,0c5.8,0,17.4-13.1,14.9-18.1
			c-1.6-3.3-15.2-2.8-15.2-2.8H126c0,0,0,7.9,0,10.5c0,1.7,0,4.3,0,6.5v-9.8V672h-13.8c-2,0-3.7,0.7-5.1,2.1
			c-1.4,1.4-2.1,3.1-2.1,5.1V693c0,0-3.1,0-5.6,0c-5.8,0-17.6,13.1-15.1,18.1c1.6,3.3,15.4,2.8,15.4,2.8h5.3c0,0,0-7.9,0-10.5
			c0-1.7,0-4.3,0-6.5v17H118.8z"/>
		<path class="st0" d="M417.1,713.4c3.3-1.6,2.8-15.4,2.8-15.4V693c0,0,0,0,0,0s0-3.1,0-5.6c0-5.8-13.1-17.6-18.1-15.1
			c-3.3,1.6-2.8,15.4-2.8,15.4v5.1c0,0,0,0,0,0s0,3.1,0,5.6C399,704.2,412.1,716,417.1,713.4z"/>
		<path class="st0" d="M589,696.4c-5.3,9.8,13.9,23.9,19,14.2C613.3,700.8,594.2,686.7,589,696.4z"/>
		<path class="st0" d="M695.9,693.3c-3.3,1.6-2.8,15.4-2.8,15.4v5.3c0,0,7.9,0,10.5,0c1.7,0,4.3,0,6.5,0h-17h-21v-13.8
			c0-2-0.7-3.7-2.1-5.1c-1.4-1.4-3.1-2.1-5.1-2.1H651v-13.8c0-2-0.7-3.7-2.1-5.1c-1.4-1.4-3.1-2.1-5.1-2.1H630c0,0-3.1,0-5.6,0
			c-5.8,0-17.6,13.1-15.1,18.1c1.6,3.3,15.4,2.8,15.4,2.8h5.3c0,0,0-7.9,0-10.5c0-1.7,0-4.3,0-6.5v17v21v21c0,0-3.1,0-5.6,0
			c-5.8,0-17.6,13.1-15.1,18.1c1.6,3.3,15.4,2.8,15.4,2.8h5.3c0,0,0-7.9,0-10.5c0-1.7,0-4.3,0-6.5v17h21h13.8c2,0,3.7-0.7,5.1-2.1
			c1.4-1.4,2.1-3.1,2.1-5.1V735h21h13.8c2,0,3.7-0.7,5.1-2.1c1.4-1.4,2.1-3.1,2.1-5.1V714c0,0,0-3.1,0-5.6
			C714,702.6,700.9,690.8,695.9,693.3z"/>
		<path class="st0" d="M925,696.4c-5.3,9.8,13.9,23.9,19,14.2C949.3,700.8,930.2,686.7,925,696.4z"/>
		<path class="st0" d="M18.1,734.4c3.3-1.6,2.8-15.4,2.8-15.4V714h0h21h13.8c2,0,3.7-0.7,5.1-2.1c1.4-1.4,2.1-3.1,2.1-5.1V693h13.8
			c2,0,3.7-0.7,5.1-2.1c1.4-1.4,2.1-3.1,2.1-5.1V672c0,0,3.1,0,5.6,0c5.8,0,17.4-13.1,14.9-18.1c-1.6-3.3-15.2-2.8-15.2-2.8H84
			c0,0,0,7.9,0,10.5c0,1.7,0,4.3,0,6.5v-17c0,0,0-3.1,0-5.6c0-5.8-13.1-17.6-18.1-15.1c-3.3,1.6-2.8,15.4-2.8,15.4v5.3
			c0,0,7.9,0,10.5,0c1.7,0,4.3,0,6.5,0H63v21H49.2c-2,0-3.7,0.7-5.1,2.1c-1.4,1.4-2.1,3.1-2.1,5.1V693H21v-21h13.8
			c2,0,3.7-0.7,5.1-2.1c1.4-1.4,2.1-3.1,2.1-5.1V651v-13.8c0-2-0.7-3.7-2.1-5.1c-1.4-1.4-3.1-2.1-5.1-2.1H21H7.2
			c-2,0-3.7,0.7-5.1,2.1c-1.4,1.4-2.1,3.1-2.1,5.1V651v21v21v20.8v0.2c0,0.7,0,3.3,0,5.4C0,725.2,13.1,737,18.1,734.4z"/>
		<path class="st0" d="M230.4,716.9c-1.6-3.3-15.2-2.8-15.2-2.8H210c0,0,0,7.9,0,10.5c0,1.7,0,4.3,0,6.5v-17c0,0,0-3.1,0-5.6
			c0-5.8-13.1-17.6-18.1-15.1c-3.3,1.6-2.8,15.4-2.8,15.4v5.3c0,0,7.9,0,10.5,0c1.7,0,4.3,0,6.5,0h-17h-21c0,0,0-3.1,0-5.6
			c0-5.8-13.1-17.6-18.1-15.1c-3.3,1.6-2.8,15.4-2.8,15.4v5.3c0,0,7.9,0,10.5,0c1.7,0,4.3,0,6.5,0h-17c0,0-3.1,0-5.6,0
			c-5.8,0-17.6,13.1-15.1,18.1c1.6,3.3,15.4,2.8,15.4,2.8h5.3c0,0,0-7.9,0-10.5c0-1.7,0-4.3,0-6.5v16.8v0.2c0,0.7,0,3.3,0,5.4
			c0,5.8,13.1,17.6,18.1,15.1c3.3-1.6,2.8-15.4,2.8-15.4V735h0h21h21c0,0,3.1,0,5.6,0C221.4,735,233,721.9,230.4,716.9z"/>
		<path class="st0" d="M357,735c0,0,0-3.1,0-5.6c0-5.8-13.1-17.6-18.1-15.1c-3.3,1.6-2.8,15.4-2.8,15.4v5.1c0,0,0,0,0,0s0,3.1,0,5.6
			c0,5.8,13.1,17.6,18.1,15.1c3.3-1.6,2.8-15.4,2.8-15.4L357,735C357,735,357,735,357,735z"/>
		<path class="st0" d="M379,717.4c-5.3,9.8,13.9,23.9,19,14.2C403.3,721.8,384.2,707.7,379,717.4z"/>
		<path class="st0" d="M946,717.4c-5.3,9.8,13.9,23.9,19,14.2C970.3,721.8,951.2,707.7,946,717.4z"/>
		<path class="st0" d="M84,756h21v13.8c0,2,0.7,3.7,2.1,5.1c1.4,1.4,3.1,2.1,5.1,2.1H126c0,0,3.1,0,5.6,0c5.8,0,17.4-13.1,14.9-18.1
			c-1.6-3.3-15.2-2.8-15.2-2.8H126c0,0,0,7.9,0,10.5c0,1.7,0,4.3,0,6.5v-17v-13.8c0-2-0.7-3.7-2.1-5.1c-1.4-1.4-3.1-2.1-5.1-2.1H105
			H84H70.2c-2,0-3.7,0.7-5.1,2.1c-1.4,1.4-2.1,3.1-2.1,5.1v13.6v0.2c0,0.7,0,3.3,0,5.4c0,5.8,13.1,17.6,18.1,15.1
			c3.3-1.6,2.8-15.4,2.8-15.4L84,756L84,756z"/>
		<path class="st0" d="M420,756c0,0,3.1,0,5.6,0c5.8,0,17.4-13.1,14.9-18.1c-1.6-3.3-15.2-2.8-15.2-2.8H420c0,0,0,7.9,0,10.5
			c0,1.7,0,4.3,0,6.5v-9.8V735h-13.8c-2,0-3.7,0.7-5.1,2.1c-1.4,1.4-2.1,3.1-2.1,5.1v13.6v0.2c0,0.7,0,3.3,0,5.4
			c0,5.8,13.1,17.6,18.1,15.1c3.3-1.6,2.8-15.4,2.8-15.4L420,756L420,756z"/>
		<path class="st0" d="M273,777c0,0,3.1,0,5.6,0c5.8,0,17.4-13.1,14.9-18.1c-1.6-3.3-15.2-2.8-15.2-2.8H273c0,0,0,7.9,0,10.5
			c0,1.7,0,4.3,0,6.5v-9.8V756h-13.8c-2,0-3.7,0.7-5.1,2.1c-1.4,1.4-2.1,3.1-2.1,5.1v13.6v0.2c0,0.7,0,3.3,0,5.4
			c0,5.8,13.1,17.6,18.1,15.1c3.3-1.6,2.8-15.4,2.8-15.4L273,777L273,777z"/>
		<path class="st0" d="M966,769.8c0,2,0.7,3.7,2.1,5.1c1.4,1.4,3.1,2.1,5.1,2.1H987c0,0.7,0,3.3,0,5.4c0,5.8,13.1,17.6,18.1,15.1
			c3.3-1.6,2.8-15.4,2.8-15.4V777h0v-13.8c0-2-0.7-3.7-2.1-5.1c-1.4-1.4-3.1-2.1-5.1-2.1H987c0,0,0-3.1,0-5.6
			c0-5.8-13.1-17.6-18.1-15.1c-3.3,1.6-2.8,15.4-2.8,15.4v5.3c0,0,7.9,0,10.5,0c1.7,0,4.3,0,6.5,0h-17V769.8z"/>
		<path class="st0" d="M189,798h21c0,0,3.1,0,5.6,0c5.8,0,17.4-13.1,14.9-18.1c-1.6-3.3-15.2-2.8-15.2-2.8H210c0,0,0,7.9,0,10.5
			c0,1.7,0,4.3,0,6.5v-17v-13.8c0-2-0.7-3.7-2.1-5.1c-1.4-1.4-3.1-2.1-5.1-2.1H189h-13.8c-2,0-3.7,0.7-5.1,2.1
			c-1.4,1.4-2.1,3.1-2.1,5.1V777c0,0-3.1,0-5.6,0c-5.8,0-17.6,13.1-15.1,18.1c1.6,3.3,15.4,2.8,15.4,2.8h5.3c0,0,0-7.9,0-10.5
			c0-1.7,0-4.3,0-6.5v16.8v0.2c0,0.7,0,3.3,0,5.4c0,5.8,13.1,17.6,18.1,15.1c3.3-1.6,2.8-15.4,2.8-15.4L189,798L189,798z"/>
		<path class="st0" d="M624.4,777c-5.8,0-17.6,13.1-15.1,18.1c1.6,3.3,15.4,2.8,15.4,2.8h5.3c0,0,0-7.9,0-10.5c0-3.3,0-10.5,0-10.5
			S626.9,777,624.4,777z"/>
		<path class="st0" d="M650.4,779.9c-1.6-3.3-15.2-2.8-15.2-2.8H630c0,0,0,7.9,0,10.5c0,3.3,0,10.5,0,10.5s3.1,0,5.6,0
			C641.4,798,653,784.9,650.4,779.9z"/>
		<path class="st0" d="M882,798v-13.8c0-2-0.7-3.7-2.1-5.1c-1.4-1.4-3.1-2.1-5.1-2.1H861h-21h-21h-13.8c-2,0-3.7,0.7-5.1,2.1
			c-1.4,1.4-2.1,3.1-2.1,5.1v13.6v0.2c0,0.7,0,3.3,0,5.4c0,5.8,13.1,17.6,18.1,15.1c3.3-1.6,2.8-15.4,2.8-15.4V798h0h21h21
			c0,0.7,0,3.3,0,5.4c0,5.8,13.1,17.6,18.1,15.1c3.3-1.6,2.8-15.4,2.8-15.4L882,798L882,798z"/>
		<path class="st0" d="M126,798c0,0-3.1,0-5.6,0c-5.8,0-17.6,13.1-15.1,18.1c1.6,3.3,15.4,2.8,15.4,2.8h5.3c0,0,0-7.9,0-10.5
			C126,805.1,126,798,126,798z"/>
		<path class="st0" d="M131.6,819c5.8,0,17.4-13.1,14.9-18.1c-1.6-3.3-15.2-2.8-15.2-2.8H126c0,0,0,7.9,0,10.5c0,3.3,0,10.5,0,10.5
			S129.1,819,131.6,819z"/>
		<path class="st0" d="M588,819c0,0,3.1,0,5.6,0c5.8,0,17.4-13.1,14.9-18.1c-1.6-3.3-15.2-2.8-15.2-2.8H588c0,0,0,7.9,0,10.5
			c0,1.7,0,4.3,0,6.5v-17v-21v-21v-13.8c0-2-0.7-3.7-2.1-5.1c-1.4-1.4-3.1-2.1-5.1-2.1H567h-21h-13.8c-2,0-3.7,0.7-5.1,2.1
			c-1.4,1.4-2.1,3.1-2.1,5.1V756v13.8c0,2,0.7,3.7,2.1,5.1c1.4,1.4,3.1,2.1,5.1,2.1H546v13.8c0,2,0.7,3.7,2.1,5.1
			c1.4,1.4,3.1,2.1,5.1,2.1H567v20.8v0.2c0,0.7,0,3.3,0,5.4c0,5.8,13.1,17.6,18.1,15.1c3.3-1.6,2.8-15.4,2.8-15.4L588,819L588,819z"
			/>
		<path class="st0" d="M757,801.4c-5.3,9.8,13.9,23.9,19,14.2C781.3,805.8,762.2,791.7,757,801.4z"/>
		<path class="st0" d="M68.3,819H63c0,0,0,7.9,0,10.5c0,1.7,0,4.3,0,6.5v-17H42v-21v-21v-21c0,0,0-3.1,0-5.6
			c0-5.8-13.1-17.6-18.1-15.1c-3.3,1.6-2.8,15.4-2.8,15.4v5.3c0,0,7.9,0,10.5,0c1.7,0,4.3,0,6.5,0H21c0,0-3.1,0-5.6,0
			c-5.8,0-17.6,13.1-15.1,18.1c1.6,3.3,15.4,2.8,15.4,2.8H21c0,0,0-7.9,0-10.5c0-1.7,0-4.3,0-6.5v17v21v21v21c0,0-3.1,0-5.6,0
			c-5.8,0-17.6,13.1-15.1,18.1c1.6,3.3,15.4,2.8,15.4,2.8H21c0,0,0-7.9,0-10.5c0-1.7,0-4.3,0-6.5v17h21h13.8c2,0,3.7-0.7,5.1-2.1
			c1.4-1.4,2.1-3.1,2.1-5.1V840c0,0,3.1,0,5.6,0c5.8,0,17.4-13.1,14.9-18.1C81.8,818.6,68.3,819,68.3,819z"/>
		<path class="st0" d="M168,840c0,0,0-3.1,0-5.6c0-5.8-13.1-17.6-18.1-15.1c-3.3,1.6-2.8,15.4-2.8,15.4v5.3c0,0,7.9,0,10.5,0
			c1.7,0,4.3,0,6.5,0h-17c0,0-3.1,0-5.6,0c-5.8,0-17.6,13.1-15.1,18.1c1.6,3.3,15.4,2.8,15.4,2.8h5.3c0,0,0-7.9,0-10.5
			c0-1.7,0-4.3,0-6.5v17h13.8c2,0,3.7-0.7,5.1-2.1c1.4-1.4,2.1-3.1,2.1-5.1V840z"/>
		<path class="st0" d="M1028,857.6c5.3-9.8-13.8-24-19-14.2C1003.7,853.2,1022.8,867.3,1028,857.6z"/>
		<path class="st0" d="M252,861L252,861l0-13.8c0-2-0.7-3.7-2.1-5.1c-1.4-1.4-3.1-2.1-5.1-2.1H231c0,0,0-3.1,0-5.6
			c0-5.8-13.1-17.6-18.1-15.1c-3.3,1.6-2.8,15.4-2.8,15.4v5.3c0,0,7.9,0,10.5,0c1.7,0,4.3,0,6.5,0h-17v13.8c0,2,0.7,3.7,2.1,5.1
			c1.4,1.4,3.1,2.1,5.1,2.1H231c0,0.7,0,3.3,0,5.4c0,5.8,13.1,17.6,18.1,15.1c3.3-1.6,2.8-15.4,2.8-15.4V861z"/>
		<path class="st0" d="M524,899.6c5.3-9.8-13.8-24-19-14.2C499.7,895.2,518.8,909.3,524,899.6z"/>
		<path class="st0" d="M734,899.6c5.3-9.8-13.8-24-19-14.2C709.7,895.2,728.8,909.3,734,899.6z"/>
		<path class="st0" d="M883,885.4c-5.3,9.8,13.9,23.9,19,14.2C907.3,889.8,888.2,875.7,883,885.4z"/>
		<path class="st0" d="M210,902.8c0,0,0,3.1,0,5.6c0,5.8,13.1,17.6,18.1,15.1c3.3-1.6,2.8-15.4,2.8-15.4V903c0,0,0,0,0,0
			s0-3.1,0-5.6c0-5.8-13.1-17.6-18.1-15.1c-3.3,1.6-2.8,15.4-2.8,15.4L210,902.8C210,902.8,210,902.8,210,902.8z"/>
		<path class="st0" d="M314,920.6c5.3-9.8-13.8-24-19-14.2C289.7,916.2,308.8,930.3,314,920.6z"/>
		<path class="st0" d="M189,924L189,924l0-21v-21c0,0,0-3.1,0-5.6c0-5.8-13.1-17.6-18.1-15.1c-3.3,1.6-2.8,15.4-2.8,15.4v5.3
			c0,0,7.9,0,10.5,0c1.7,0,4.3,0,6.5,0h-17v21v20.8v0.2c0,0.7,0,3.3,0,5.4c0,5.8,13.1,17.6,18.1,15.1c3.3-1.6,2.8-15.4,2.8-15.4V924
			z"/>
		<path class="st0" d="M293,941.6c5.3-9.8-13.8-24-19-14.2C268.7,937.2,287.8,951.3,293,941.6z"/>
		<path class="st0" d="M525,945h21h13.8c2,0,3.7-0.7,5.1-2.1c1.4-1.4,2.1-3.1,2.1-5.1V924v-21h21v13.8c0,2,0.7,3.7,2.1,5.1
			c1.4,1.4,3.1,2.1,5.1,2.1H609h21c0,0,3.1,0,5.6,0c5.8,0,17.4-13.1,14.9-18.1c-1.6-3.3-15.2-2.8-15.2-2.8H630c0,0,0,7.9,0,10.5
			c0,1.7,0,4.3,0,6.5v-17v-13.8c0-2-0.7-3.7-2.1-5.1c-1.4-1.4-3.1-2.1-5.1-2.1H609h-21h-21v-21v-13.8c0-2-0.7-3.7-2.1-5.1
			c-1.4-1.4-3.1-2.1-5.1-2.1H546h-21v-21c0,0,3.1,0,5.6,0c5.8,0,17.4-13.1,14.9-18.1c-1.6-3.3-15.2-2.8-15.2-2.8H525
			c0,0,0,7.9,0,10.5c0,1.7,0,4.3,0,6.5v-17v-13.8c0-2-0.7-3.7-2.1-5.1c-1.4-1.4-3.1-2.1-5.1-2.1H504v-21v-21h13.8
			c2,0,3.7-0.7,5.1-2.1c1.4-1.4,2.1-3.1,2.1-5.1V714h13.8c2,0,3.7-0.7,5.1-2.1c1.4-1.4,2.1-3.1,2.1-5.1V693v-13.8
			c0-2-0.7-3.7-2.1-5.1c-1.4-1.4-3.1-2.1-5.1-2.1H525h-13.8c-2,0-3.7,0.7-5.1,2.1c-1.4,1.4-2.1,3.1-2.1,5.1V693h-13.8
			c-2,0-3.7,0.7-5.1,2.1c-1.4,1.4-2.1,3.1-2.1,5.1V714v21v21h-21c0,0-3.1,0-5.6,0c-5.8,0-17.6,13.1-15.1,18.1
			c1.6,3.3,15.4,2.8,15.4,2.8h5.3c0,0,0-7.9,0-10.5c0-1.7,0-4.3,0-6.5v17h21v21c0,0-3.1,0-5.6,0c-5.8,0-17.6,13.1-15.1,18.1
			c1.6,3.3,15.4,2.8,15.4,2.8h5.3c0,0,0-7.9,0-10.5c0-1.7,0-4.3,0-6.5v17v21h-13.8c-2,0-3.7,0.7-5.1,2.1c-1.4,1.4-2.1,3.1-2.1,5.1
			V861v21h-21v-21v-21c0,0,3.1,0,5.6,0c5.8,0,17.4-13.1,14.9-18.1c-1.6-3.3-15.2-2.8-15.2-2.8H441c0,0,0,7.9,0,10.5
			c0,1.7,0,4.3,0,6.5v-17h-21v-13.8c0-2-0.7-3.7-2.1-5.1c-1.4-1.4-3.1-2.1-5.1-2.1H399h-21v-21c0,0,0-3.1,0-5.6
			c0-5.8-13.1-17.6-18.1-15.1c-3.3,1.6-2.8,15.4-2.8,15.4v5.3c0,0,7.9,0,10.5,0c1.7,0,4.3,0,6.5,0h-17h-21c0,0,0-3.1,0-5.6
			c0-5.8-13.1-17.6-18.1-15.1c-3.3,1.6-2.8,15.4-2.8,15.4v5.3c0,0,7.9,0,10.5,0c1.7,0,4.3,0,6.5,0h-17h-13.8c-2,0-3.7,0.7-5.1,2.1
			c-1.4,1.4-2.1,3.1-2.1,5.1V798c0,0-3.1,0-5.6,0c-5.8,0-17.6,13.1-15.1,18.1c1.6,3.3,15.4,2.8,15.4,2.8h5.3c0,0,0-7.9,0-10.5
			c0-1.7,0-4.3,0-6.5v17v21h-13.8c-2,0-3.7,0.7-5.1,2.1c-1.4,1.4-2.1,3.1-2.1,5.1v13.6v0.2c0,0.7,0,3.3,0,5.4
			c0,5.8,13.1,17.6,18.1,15.1c3.3-1.6,2.8-15.4,2.8-15.4V861h0h13.8c2,0,3.7-0.7,5.1-2.1c1.4-1.4,2.1-3.1,2.1-5.1V840v-21v-21h21v21
			v21v13.8c0,2,0.7,3.7,2.1,5.1c1.4,1.4,3.1,2.1,5.1,2.1H357c0,0,3.1,0,5.6,0c5.8,0,17.4-13.1,14.9-18.1c-1.6-3.3-15.2-2.8-15.2-2.8
			H357c0,0,0,7.9,0,10.5c0,1.7,0,4.3,0,6.5v-17v-21h21v13.8c0,2,0.7,3.7,2.1,5.1c1.4,1.4,3.1,2.1,5.1,2.1H399h21v21h-13.8
			c-2,0-3.7,0.7-5.1,2.1c-1.4,1.4-2.1,3.1-2.1,5.1V882v21h-21c0,0,0-3.1,0-5.6c0-5.8-13.1-17.6-18.1-15.1
			c-3.3,1.6-2.8,15.4-2.8,15.4v5.3c0,0,7.9,0,10.5,0c1.7,0,4.3,0,6.5,0h-17v13.8c0,2,0.7,3.7,2.1,5.1c1.4,1.4,3.1,2.1,5.1,2.1H378
			v21h-21v-13.8c0-2-0.7-3.7-2.1-5.1c-1.4-1.4-3.1-2.1-5.1-2.1H336h-13.8c-2,0-3.7,0.7-5.1,2.1c-1.4,1.4-2.1,3.1-2.1,5.1V945h-13.8
			c-2,0-3.7,0.7-5.1,2.1c-1.4,1.4-2.1,3.1-2.1,5.1V966h-13.8c-2,0-3.7,0.7-5.1,2.1c-1.4,1.4-2.1,3.1-2.1,5.1V987h-13.8
			c-2,0-3.7,0.7-5.1,2.1c-1.4,1.4-2.1,3.1-2.1,5.1v13.8v13.8c0,2,0.7,3.7,2.1,5.1c1.4,1.4,3.1,2.1,5.1,2.1H273h21h21
			c0,0,3.1,0,5.6,0c5.8,0,17.4-13.1,14.9-18.1c-1.6-3.3-15.2-2.8-15.2-2.8H315c0,0,0,7.9,0,10.5c0,1.7,0,4.3,0,6.5v-17v-21h21h13.8
			c2,0,3.7-0.7,5.1-2.1c1.4-1.4,2.1-3.1,2.1-5.1V966h21c0,0.7,0,3.3,0,5.4c0,5.8,13.1,17.6,18.1,15.1c3.3-1.6,2.8-15.4,2.8-15.4V966
			h0v-21h13.8c2,0,3.7-0.7,5.1-2.1c1.4-1.4,2.1-3.1,2.1-5.1V924h21v13.8c0,2,0.7,3.7,2.1,5.1c1.4,1.4,3.1,2.1,5.1,2.1H462v13.8
			c0,2,0.7,3.7,2.1,5.1c1.4,1.4,3.1,2.1,5.1,2.1H483v21v21c0,0-3.1,0-5.6,0c-5.8,0-17.6,13.1-15.1,18.1c1.6,3.3,15.4,2.8,15.4,2.8
			h5.3c0,0,0-7.9,0-10.5c0-1.7,0-4.3,0-6.5v17h13.8c2,0,3.7-0.7,5.1-2.1c1.4-1.4,2.1-3.1,2.1-5.1V1008v-21h21c0,0,3.1,0,5.6,0
			c5.8,0,17.4-13.1,14.9-18.1c-1.6-3.3-15.2-2.8-15.2-2.8H525c0,0,0,7.9,0,10.5c0,1.7,0,4.3,0,6.5v-17h-21v-21H525z M483,924v-21
			v-21v-21h21h21h21v21v21v21h-21h-21H483z"/>
		<path class="st0" d="M1029,945c0,0,0-3.1,0-5.6c0-5.8-13.1-17.6-18.1-15.1c-3.3,1.6-2.8,15.4-2.8,15.4v5.1c0,0,0,0,0,0
			s0,3.1,0,5.6c0,5.8,13.1,17.6,18.1,15.1c3.3-1.6,2.8-15.4,2.8-15.4L1029,945C1029,945,1029,945,1029,945z"/>
		<path class="st0" d="M441,966c0,0,0-3.1,0-5.6c0-5.8-13.1-17.6-18.1-15.1c-3.3,1.6-2.8,15.4-2.8,15.4v5.1c0,0,0,0,0,0s0,3.1,0,5.6
			c0,5.8,13.1,17.6,18.1,15.1c3.3-1.6,2.8-15.4,2.8-15.4L441,966C441,966,441,966,441,966z"/>
		<path class="st0" d="M698.3,945H693c0,0,0,7.9,0,10.5c0,1.7,0,4.3,0,6.5v-17c0,0,0-3.1,0-5.6c0-5.8-13.1-17.6-18.1-15.1
			c-3.3,1.6-2.8,15.4-2.8,15.4v5.3c0,0,7.9,0,10.5,0c1.7,0,4.3,0,6.5,0h-17h-13.8c-2,0-3.7,0.7-5.1,2.1c-1.4,1.4-2.1,3.1-2.1,5.1
			v13.6v0.2c0,0.7,0,3.3,0,5.4c0,5.8,13.1,17.6,18.1,15.1c3.3-1.6,2.8-15.4,2.8-15.4V966h0h21c0,0,3.1,0,5.6,0
			c5.8,0,17.4-13.1,14.9-18.1C711.8,944.6,698.3,945,698.3,945z"/>
		<path class="st0" d="M236.3,966H231c0,0,0,7.9,0,10.5c0,1.7,0,4.3,0,6.5v-17h-21c0,0-3.1,0-5.6,0c-5.8,0-17.6,13.1-15.1,18.1
			c1.6,3.3,15.4,2.8,15.4,2.8h5.3c0,0,0-7.9,0-10.5c0-1.7,0-4.3,0-6.5v17v21c0,0-3.1,0-5.6,0c-5.8,0-17.6,13.1-15.1,18.1
			c1.6,3.3,15.4,2.8,15.4,2.8h5.3c0,0,0-7.9,0-10.5c0-1.7,0-4.3,0-6.5v17h13.8c2,0,3.7-0.7,5.1-2.1c1.4-1.4,2.1-3.1,2.1-5.1V1008
			v-21c0,0,3.1,0,5.6,0c5.8,0,17.4-13.1,14.9-18.1C249.8,965.6,236.3,966,236.3,966z"/>
		<path class="st0" d="M358,990.4c-5.3,9.8,13.9,23.9,19,14.2C382.3,994.8,363.2,980.7,358,990.4z"/>
		<path class="st0" d="M420,1008c0,0,0-3.1,0-5.6c0-5.8-13.1-17.6-18.1-15.1c-3.3,1.6-2.8,15.4-2.8,15.4v5.1c0,0,0,0,0,0
			s0,3.1,0,5.6c0,5.8,13.1,17.6,18.1,15.1c3.3-1.6,2.8-15.4,2.8-15.4L420,1008C420,1008,420,1008,420,1008z"/>
		<path class="st0" d="M547,990.4c-5.3,9.8,13.9,23.9,19,14.2C571.3,994.8,552.2,980.7,547,990.4z"/>
		<path class="st0" d="M643.8,987H630v-13.8c0-2-0.7-3.7-2.1-5.1c-1.4-1.4-3.1-2.1-5.1-2.1H609v-13.8c0-2-0.7-3.7-2.1-5.1
			c-1.4-1.4-3.1-2.1-5.1-2.1H588h-13.8c-2,0-3.7,0.7-5.1,2.1c-1.4,1.4-2.1,3.1-2.1,5.1V966v13.8c0,2,0.7,3.7,2.1,5.1
			c1.4,1.4,3.1,2.1,5.1,2.1H588h21v13.8c0,2,0.7,3.7,2.1,5.1c1.4,1.4,3.1,2.1,5.1,2.1H630c0,0.7,0,3.3,0,5.4
			c0,5.8,13.1,17.6,18.1,15.1c3.3-1.6,2.8-15.4,2.8-15.4v-5.1h0v-13.8c0-2-0.7-3.7-2.1-5.1C647.5,987.7,645.8,987,643.8,987z"/>
		<path class="st0" d="M693,1008c0,0,0-3.1,0-5.6c0-5.8-13.1-17.6-18.1-15.1c-3.3,1.6-2.8,15.4-2.8,15.4v5.1c0,0,0,0,0,0
			s0,3.1,0,5.6c0,5.8,13.1,17.6,18.1,15.1c3.3-1.6,2.8-15.4,2.8-15.4L693,1008C693,1008,693,1008,693,1008z"/>
		<path class="st0" d="M929.3,987H924c0,0,0,7.9,0,10.5c0,1.7,0,4.3,0,6.5v-17v-21v-21h21h21h13.8c2,0,3.7-0.7,5.1-2.1
			c1.4-1.4,2.1-3.1,2.1-5.1V924c0,0,3.1,0,5.6,0c5.8,0,17.4-13.1,14.9-18.1c-1.6-3.3-15.2-2.8-15.2-2.8H987c0,0,0,7.9,0,10.5
			c0,1.7,0,4.3,0,6.5v-17v-13.8c0-2-0.7-3.7-2.1-5.1c-1.4-1.4-3.1-2.1-5.1-2.1H966v-21v-21h13.8c2,0,3.7-0.7,5.1-2.1
			c1.4-1.4,2.1-3.1,2.1-5.1V819c0,0,0-3.1,0-5.6c0-5.8-13.1-17.6-18.1-15.1c-3.3,1.6-2.8,15.4-2.8,15.4v5.3c0,0,7.9,0,10.5,0
			c1.7,0,4.3,0,6.5,0h-17h-21v-21v-21v-13.8c0-2-0.7-3.7-2.1-5.1c-1.4-1.4-3.1-2.1-5.1-2.1H924v-21c0,0,0-3.1,0-5.6
			c0-5.8-13.1-17.6-18.1-15.1c-3.3,1.6-2.8,15.4-2.8,15.4v5.3c0,0,7.9,0,10.5,0c1.7,0,4.3,0,6.5,0h-17h-13.8c-2,0-3.7,0.7-5.1,2.1
			c-1.4,1.4-2.1,3.1-2.1,5.1V756v13.8c0,2,0.7,3.7,2.1,5.1c1.4,1.4,3.1,2.1,5.1,2.1H903h21v21v21v21h-21c0,0,0-3.1,0-5.6
			c0-5.8-13.1-17.6-18.1-15.1c-3.3,1.6-2.8,15.4-2.8,15.4v5.3c0,0,7.9,0,10.5,0c1.7,0,4.3,0,6.5,0h-17h-21c0,0,0-3.1,0-5.6
			c0-5.8-13.1-17.6-18.1-15.1c-3.3,1.6-2.8,15.4-2.8,15.4v5.3c0,0,7.9,0,10.5,0c1.7,0,4.3,0,6.5,0h-17v21h-21c0,0,0-3.1,0-5.6
			c0-5.8-13.1-17.6-18.1-15.1c-3.3,1.6-2.8,15.4-2.8,15.4v5.3c0,0,7.9,0,10.5,0c1.7,0,4.3,0,6.5,0h-17h-21v-13.8
			c0-2-0.7-3.7-2.1-5.1c-1.4-1.4-3.1-2.1-5.1-2.1H756v-13.8c0-2-0.7-3.7-2.1-5.1c-1.4-1.4-3.1-2.1-5.1-2.1H735v-13.8
			c0-2-0.7-3.7-2.1-5.1c-1.4-1.4-3.1-2.1-5.1-2.1H714v-21v-13.8c0-2-0.7-3.7-2.1-5.1c-1.4-1.4-3.1-2.1-5.1-2.1H693h-13.8
			c-2,0-3.7,0.7-5.1,2.1c-1.4,1.4-2.1,3.1-2.1,5.1V777v13.8c0,2,0.7,3.7,2.1,5.1c1.4,1.4,3.1,2.1,5.1,2.1H693v21h-21
			c0,0,0-3.1,0-5.6c0-5.8-13.1-17.6-18.1-15.1c-3.3,1.6-2.8,15.4-2.8,15.4v5.3c0,0,7.9,0,10.5,0c1.7,0,4.3,0,6.5,0h-17h-13.8
			c-2,0-3.7,0.7-5.1,2.1c-1.4,1.4-2.1,3.1-2.1,5.1v13.6v0.2c0,0.7,0,3.3,0,5.4c0,5.8,13.1,17.6,18.1,15.1c3.3-1.6,2.8-15.4,2.8-15.4
			V840h0h21v13.8c0,2,0.7,3.7,2.1,5.1c1.4,1.4,3.1,2.1,5.1,2.1H693h13.8c2,0,3.7-0.7,5.1-2.1c1.4-1.4,2.1-3.1,2.1-5.1V840h21v13.8
			c0,2,0.7,3.7,2.1,5.1c1.4,1.4,3.1,2.1,5.1,2.1H756v13.8c0,2,0.7,3.7,2.1,5.1c1.4,1.4,3.1,2.1,5.1,2.1H777v21h-13.8
			c-2,0-3.7,0.7-5.1,2.1c-1.4,1.4-2.1,3.1-2.1,5.1V924h-21c0,0-3.1,0-5.6,0c-5.8,0-17.6,13.1-15.1,18.1c1.6,3.3,15.4,2.8,15.4,2.8
			h5.3c0,0,0-7.9,0-10.5c0-1.7,0-4.3,0-6.5v17v13.8c0,2,0.7,3.7,2.1,5.1c1.4,1.4,3.1,2.1,5.1,2.1H756h13.8c2,0,3.7-0.7,5.1-2.1
			c1.4-1.4,2.1-3.1,2.1-5.1V945v-21h21h21h21v13.8c0,2,0.7,3.7,2.1,5.1c1.4,1.4,3.1,2.1,5.1,2.1H861h21v21v13.8c0,2,0.7,3.7,2.1,5.1
			c1.4,1.4,3.1,2.1,5.1,2.1H903v13.8c0,2,0.7,3.7,2.1,5.1c1.4,1.4,3.1,2.1,5.1,2.1H924c0,0,3.1,0,5.6,0c5.8,0,17.4-13.1,14.9-18.1
			C942.8,986.6,929.3,987,929.3,987z M966,924h-21v-21h21V924z M819,903h-21v-21h21h21v21H819z M861,924v-21v-21v-21h21h21h21v21v21
			v21h-21h-21H861z"/>
		<path class="st0" d="M715,1011.4c-5.3,9.8,13.9,23.9,19,14.2C739.3,1015.8,720.2,1001.7,715,1011.4z"/>
		<path class="st0" d="M866.3,1008H861c0,0,0,7.9,0,10.5c0,1.7,0,4.3,0,6.5v-17h-21v-13.8c0-2-0.7-3.7-2.1-5.1
			c-1.4-1.4-3.1-2.1-5.1-2.1H819v-21c0,0,0-3.1,0-5.6c0-5.8-13.1-17.6-18.1-15.1c-3.3,1.6-2.8,15.4-2.8,15.4v5.3c0,0,7.9,0,10.5,0
			c1.7,0,4.3,0,6.5,0h-17h-13.8c-2,0-3.7,0.7-5.1,2.1c-1.4,1.4-2.1,3.1-2.1,5.1V987h-21c0,0-3.1,0-5.6,0c-5.8,0-17.6,13.1-15.1,18.1
			c1.6,3.3,15.4,2.8,15.4,2.8h5.3c0,0,0-7.9,0-10.5c0-1.7,0-4.3,0-6.5v16.8v0.2c0,0.7,0,3.3,0,5.4c0,5.8,13.1,17.6,18.1,15.1
			c3.3-1.6,2.8-15.4,2.8-15.4v-5.1h0h21v13.8c0,2,0.7,3.7,2.1,5.1c1.4,1.4,3.1,2.1,5.1,2.1H819h21h21c0,0,3.1,0,5.6,0
			c5.8,0,17.4-13.1,14.9-18.1C879.8,1007.6,866.3,1008,866.3,1008z"/>
		<path class="st0" d="M1013.3,1008h-5.3c0,0,0,7.9,0,10.5c0,1.7,0,4.3,0,6.5v-17v-13.8c0-2-0.7-3.7-2.1-5.1
			c-1.4-1.4-3.1-2.1-5.1-2.1H987v-13.8c0-2-0.7-3.7-2.1-5.1c-1.4-1.4-3.1-2.1-5.1-2.1H966c0,0-3.1,0-5.6,0
			c-5.8,0-17.6,13.1-15.1,18.1c1.6,3.3,15.4,2.8,15.4,2.8h5.3c0,0,0-7.9,0-10.5c0-1.7,0-4.3,0-6.5v17v21v13.8c0,2,0.7,3.7,2.1,5.1
			c1.4,1.4,3.1,2.1,5.1,2.1H987h21c0,0,3.1,0,5.6,0c5.8,0,17.4-13.1,14.9-18.1C1026.8,1007.6,1013.3,1008,1013.3,1008z"/>
	</g>
	<g transform="translate(0,0) scale(1.47, 1.47)">
		<g transform=" translate(0,100) scale(1,-1) ">
			<g>
				<path class="st1" d="M15,34.1L15,85h51.2C76.6,85,85,76.4,85,65.9V15H33.8C23.4,15,15,23.6,15,34.1z"/>
				<path class="st0" d="M66.2,0H33.8C15.2,0,0,15.3,0,34.1L0,100h66.2c18.6,0,33.8-15.3,33.8-34.1V34.1V0H66.2z M85,65.9
					C85,76.4,76.6,85,66.2,85H15l0-50.9C15,23.6,23.4,15,33.8,15H85V65.9z"/>
			</g>
		</g>
	</g>
	<g transform="translate(882,0) scale(1.47, 1.47)">
		<g transform="">
			<g>
				<path class="st1" d="M15,34.1L15,85h51.2C76.6,85,85,76.4,85,65.9V15H33.8C23.4,15,15,23.6,15,34.1z"/>
				<path class="st0" d="M66.2,0H33.8C15.2,0,0,15.3,0,34.1L0,100h66.2c18.6,0,33.8-15.3,33.8-34.1V34.1V0H66.2z M85,65.9
					C85,76.4,76.6,85,66.2,85H15l0-50.9C15,23.6,23.4,15,33.8,15H85V65.9z"/>
			</g>
		</g>
	</g>
	<g transform="translate(0,882) scale(1.47, 1.47)">
		<g transform="">
			<g>
				<path class="st1" d="M15,34.1L15,85h51.2C76.6,85,85,76.4,85,65.9V15H33.8C23.4,15,15,23.6,15,34.1z"/>
				<path class="st0" d="M66.2,0H33.8C15.2,0,0,15.3,0,34.1L0,100h66.2c18.6,0,33.8-15.3,33.8-34.1V34.1V0H66.2z M85,65.9
					C85,76.4,76.6,85,66.2,85H15l0-50.9C15,23.6,23.4,15,33.8,15H85V65.9z"/>
			</g>
		</g>
	</g>
	<g transform="translate(42,42) scale(0.63, 0.63)">
		<g transform=" translate(0,100) scale(1,-1) ">
			<path class="st0" d="M72.7,0H27.2c-2.3,0-4.6,0.3-6.8,0.9c-4.8,1.3-9,3.8-12.4,7.2c-0.6,0.6-1.2,1.3-1.8,2
				C2.4,14.8,0.1,21,0.1,27.6l0,72.4h72.7c15,0,27.1-12.4,27.1-27.6V27.6v0L100.1,0C100.1,0,82.1,0,72.7,0z"/>
		</g>
	</g>
	<g transform="translate(924,42) scale(0.63, 0.63)">
		<g transform="">
			<path class="st0" d="M72.7,0H27.2c-2.3,0-4.6,0.3-6.8,0.9c-4.8,1.3-9,3.8-12.4,7.2c-0.6,0.6-1.2,1.3-1.8,2
				C2.4,14.8,0.1,21,0.1,27.6l0,72.4h72.7c15,0,27.1-12.4,27.1-27.6V27.6v0L100.1,0C100.1,0,82.1,0,72.7,0z"/>
		</g>
	</g>
	<g transform="translate(42,924) scale(0.63, 0.63)">
		<g transform="">
			<path class="st0" d="M72.7,0H27.2c-2.3,0-4.6,0.3-6.8,0.9c-4.8,1.3-9,3.8-12.4,7.2c-0.6,0.6-1.2,1.3-1.8,2
				C2.4,14.8,0.1,21,0.1,27.6l0,72.4h72.7c15,0,27.1-12.4,27.1-27.6V27.6v0L100.1,0C100.1,0,82.1,0,72.7,0z"/>
		</g>
	</g>
	<g transform="translate(357,357) scale(0.615234375,0.615234375)">
		<polygon class="st0" points="287,117.6 145.9,117.6 99.6,117.6 56,378.4 221.5,378.4 231.6,318.4 141.8,318.4 149.4,272.2 
			235.2,272.2 244.8,215.6 158.8,215.6 165.1,177.6 271.7,177.6 229.3,434.4 326.1,293.2 279.6,290.5 343.2,177.8 347.4,177.8 
			347.5,177.6 431.7,177.6 441.6,117.6 		"/>
		<polygon class="st2" points="362.3,269 404.3,196.5 356.4,196.5 310.3,278.2 356.6,280.3 268.5,408.8 327.2,362 398.9,269 		"/>
		<polygon class="st3" points="407.5,259.2 455.2,196.5 404.3,196.5 362.3,269 398.9,269 327.2,362 456,259.2 		"/>
	</g>
</g>
</svg>
